<svg id="Слой_1" data-name="Слой 1" xmlns="http://www.w3.org/2000/svg" viewBox="0 0 80 97.9"><defs><style>.cls-1{fill:#0097e8;}</style></defs><title>1</title><path class="cls-1" d="M91.4,93.75,85,92.39A12.19,12.19,0,0,0,87.73,88a2.93,2.93,0,0,0,1.84-1.91,2.52,2.52,0,0,0-.79-2.78v-.86c.7-2.08,1.06-5.49-2.09-7.32a4.11,4.11,0,0,0-3.44-.59c-.14-.37.27-.87.27-.87a1.35,1.35,0,0,0-1.26.58,5.92,5.92,0,0,0-3.86-.29c-5.18,1.09-5.84,7.87-4.91,9.36a2.48,2.48,0,0,0-.73,2.77A2.86,2.86,0,0,0,74.59,88a12,12,0,0,0,2.7,4.41l-6.38,1.34a3.7,3.7,0,0,0-2.69,2.78l-.86,4.83a2.05,2.05,0,0,0,.46,1.78,2.12,2.12,0,0,0,1.68.76H92.8a2.12,2.12,0,0,0,2.14-2.54l-.85-4.84a3.65,3.65,0,0,0-2.69-2.77ZM75.4,87a1.74,1.74,0,0,1-1.58-1.2c-.2-.8,0-1.52.41-1.64a.45.45,0,0,1,.4.06V82.58c.1-1,1.05-2.89,6.23-1.18a2.63,2.63,0,0,0,3.45-1.57c1.75.18,2.93,2.18,3.37,3.43v1a.51.51,0,0,1,.2-.06v0s0,0,.07,0,.08,0,.11,0c.43.12.62.84.43,1.64A1.75,1.75,0,0,1,86.92,87a11.17,11.17,0,0,1-3.29,5.11,5.79,5.79,0,0,1-.58.38,4,4,0,0,1-.91.37,3.63,3.63,0,0,1-1,.14,3.48,3.48,0,0,1-1-.14,3.85,3.85,0,0,1-.92-.37c-.2-.12-.4-.24-.6-.38A10.87,10.87,0,0,1,75.4,87Zm2.89,6.2a4.93,4.93,0,0,0,5.71,0l1.52.34a6.85,6.85,0,0,1-4.34,1.54,7,7,0,0,1-4.35-1.55ZM74,102.9H69.51a1.23,1.23,0,0,1-.94-.39,1.16,1.16,0,0,1-.21-.77H74Zm13.75-3.32a.48.48,0,0,0-.49.49v2.83H75v-2.82a.51.51,0,0,0-.5-.5.5.5,0,0,0-.5.5v.68H68.48l.72-4.06a2.68,2.68,0,0,1,1.93-2l4.52-1a7.83,7.83,0,0,0,11.09,0l4.46.94a2.73,2.73,0,0,1,1.9,2l.73,4.07H88.27v-.68a.48.48,0,0,0-.49-.5Zm6,2.93a1.16,1.16,0,0,1-.92.39H88.27v-1.16H94a1.18,1.18,0,0,1-.23.77Zm-44-44.26-4.68-1A9,9,0,0,0,47,54a2.13,2.13,0,0,0,1.34-1.4,1.8,1.8,0,0,0-.57-2V50c.49-1.52.77-4-1.52-5.35a3,3,0,0,0-2.52-.43c-.11-.27.2-.65.2-.65A1.07,1.07,0,0,0,43,44a4.39,4.39,0,0,0-2.82-.22c-3.78.79-4.27,5.77-3.58,6.85a1.84,1.84,0,0,0-.55,2A2.14,2.14,0,0,0,37.38,54a9.25,9.25,0,0,0,2,3.23l-4.67,1a2.66,2.66,0,0,0-2,2l-.64,3.54a1.55,1.55,0,0,0,1.56,1.86h17A1.58,1.58,0,0,0,52,65.13a1.53,1.53,0,0,0,.32-1.31l-.61-3.54a2.7,2.7,0,0,0-2-2ZM38,53.33a1.32,1.32,0,0,1-1.17-.89c-.13-.57,0-1.11.31-1.18a.33.33,0,0,1,.29,0v-1.2c.08-.73.77-2.11,4.55-.87a1.91,1.91,0,0,0,2.53-1.15c1.27.15,2.13,1.62,2.46,2.51v.72l.15-.06v0a.06.06,0,0,0,.05,0s.07,0,.09,0c.31.07.44.61.31,1.18a1.28,1.28,0,0,1-1.16.89A8,8,0,0,1,44,57.05a3.59,3.59,0,0,1-.44.28,3.53,3.53,0,0,1-.67.28,2.78,2.78,0,0,1-.72.1,3.06,3.06,0,0,1-.73-.1,3.53,3.53,0,0,1-.67-.28,2.87,2.87,0,0,1-.43-.28A7.87,7.87,0,0,1,38,53.33Zm2.11,4.52a3.65,3.65,0,0,0,2.09.66,3.59,3.59,0,0,0,2.07-.66l1.13.23a4.93,4.93,0,0,1-3.18,1.13,5,5,0,0,1-3.17-1.13ZM37,64.94H33.68a.9.9,0,0,1-.68-.27.83.83,0,0,1-.17-.58H37Zm10-2.43a.37.37,0,0,0-.35.37v2.06h-9V62.88a.36.36,0,1,0-.71,0v.49H32.94l.52-3A2,2,0,0,1,34.86,59l3.31-.69A5.82,5.82,0,0,0,42.23,60a5.72,5.72,0,0,0,4-1.68l3.26.69a2,2,0,0,1,1.41,1.45l.52,3H47.4v-.49a.36.36,0,0,0-.36-.37Zm4.36,2.16a.9.9,0,0,1-.68.27H47.4v-.83h4.17a.93.93,0,0,1-.17.56ZM69.28,35.22H82.45a1.21,1.21,0,0,0,1-.44,1.23,1.23,0,0,0,.26-1l-.49-2.72a2.05,2.05,0,0,0-1.51-1.57L78,28.71a6.7,6.7,0,0,0,1.56-2.49,1.72,1.72,0,0,0,1-1.09,1.4,1.4,0,0,0-.45-1.57v-.48c.4-1.18.6-3.11-1.17-4.13a2.28,2.28,0,0,0-2-.34c-.08-.2.15-.5.15-.5a.87.87,0,0,0-.72.33,3.42,3.42,0,0,0-2.17-.17c-2.94.61-3.31,4.46-2.77,5.3a1.42,1.42,0,0,0-.43,1.56,1.67,1.67,0,0,0,1,1.09,6.87,6.87,0,0,0,1.54,2.49l-3.61.75a2.09,2.09,0,0,0-1.51,1.59l-.48,2.72a1.19,1.19,0,0,0,.25,1,1.21,1.21,0,0,0,1,.44ZM83,34.43a.69.69,0,0,1-.52.22H79.89V34h3.22a.74.74,0,0,1-.14.43ZM72.62,25.67a1,1,0,0,1-.91-.68c-.11-.45,0-.86.25-.93a.26.26,0,0,1,.21,0v-.92c.06-.57.6-1.64,3.53-.67a1.48,1.48,0,0,0,2-.9c1,.13,1.64,1.25,1.89,1.94v.55l.12,0s0,0,0,0a0,0,0,0,0,0,0h.08c.23.07.34.48.23.93a1,1,0,0,1-.89.69,6.28,6.28,0,0,1-1.85,2.88,2.19,2.19,0,0,1-.34.21,2,2,0,0,1-.5.21,2,2,0,0,1-1.13,0,2.1,2.1,0,0,1-.52-.21,2,2,0,0,1-.32-.21,5.88,5.88,0,0,1-1.83-2.89Zm1.63,3.5a2.85,2.85,0,0,0,1.61.51,3,3,0,0,0,1.62-.51l.86.17a3.84,3.84,0,0,1-2.46.88,3.9,3.9,0,0,1-2.44-.88Zm-5.14,2A1.53,1.53,0,0,1,70.19,30l2.55-.54a4.49,4.49,0,0,0,3.14,1.29A4.43,4.43,0,0,0,79,29.48l2.5.54a1.54,1.54,0,0,1,1.1,1.12L83,33.43H79.89v-.38a.27.27,0,0,0-.27-.28.28.28,0,0,0-.29.28v1.6H72.4v-1.6a.28.28,0,0,0-.29-.28.29.29,0,0,0-.28.28v.38H68.7ZM71.83,34v.65H69.28a.68.68,0,0,1-.52-.22.72.72,0,0,1-.12-.43Zm8.74,31.25A23.57,23.57,0,0,0,63.14,73l-7.67-6.21A17.74,17.74,0,0,0,54.55,43c4.57-3.46,9.42-7,10.49-7.61a13.13,13.13,0,1,0-2.48-7.63A13.25,13.25,0,0,0,64.22,34c-1.89,1.14-8.09,5.8-10.84,7.87a17.75,17.75,0,1,0,.8,26.26l-.46.58L61.5,75a23.57,23.57,0,1,0,19.07-9.75ZM64,27.71A11.72,11.72,0,1,1,75.74,39.45,11.74,11.74,0,0,1,64,27.71ZM41.89,71.14A15.77,15.77,0,1,1,57.67,55.38,15.79,15.79,0,0,1,41.89,71.14Zm38.68,38.7a21,21,0,1,1,21-21,21,21,0,0,1-21,21Zm0,0" transform="translate(-24.16 -14.53)"/></svg>