<svg id="Слой_1" data-name="Слой 1" xmlns="http://www.w3.org/2000/svg" viewBox="0 0 80 78.4"><defs><style>.cls-1{fill:#0097e8}</style></defs><path class="cls-1" d="M103 25.84a2.7 2.7 0 0 0-2.13-.8L88.39 26a2.72 2.72 0 0 0 .4 5.43L94 31 75.7 49.3l-21.26-18a2.72 2.72 0 0 0-3.68.15L24.6 57.62a2.7 2.7 0 0 0 0 3.84 2.66 2.66 0 0 0 1.92.8 2.7 2.7 0 0 0 1.93-.8l24.39-24.39 21.26 18a2.72 2.72 0 0 0 3.68-.16l20-20-.41 5a2.72 2.72 0 0 0 2.49 2.94h.23a2.73 2.73 0 0 0 2.71-2.5l1-12.37a2.7 2.7 0 0 0-.78-2.14zm0 0" transform="translate(-23.8 -25.03)"/><path class="cls-1" d="M48.07 57a2.71 2.71 0 0 0-3 .59L33.8 68.92a2.74 2.74 0 0 0-.8 1.93v29.86a2.72 2.72 0 0 0 2.72 2.72H47a2.72 2.72 0 0 0 2.72-2.72V59.54A2.71 2.71 0 0 0 48.07 57zm12.19.62a2.72 2.72 0 0 0-4.64 1.92v41.17a2.71 2.71 0 0 0 2.72 2.72h11.3a2.72 2.72 0 0 0 2.73-2.72V70.85a2.74 2.74 0 0 0-.8-1.93zM93.3 57a2.73 2.73 0 0 0-3 .59L79 68.92a2.74 2.74 0 0 0-.8 1.93v29.86a2.72 2.72 0 0 0 2.8 2.72h11.26a2.72 2.72 0 0 0 2.74-2.72V59.54A2.71 2.71 0 0 0 93.3 57zm0 0" transform="translate(-23.8 -25.03)"/></svg>