<svg id="Слой_1" data-name="Слой 1" xmlns="http://www.w3.org/2000/svg" viewBox="0 0 80 74.01"><defs><style>.cls-1{fill:#0097e8}</style></defs><path class="cls-1" d="M80.35 96.32h.38c-4-.5-6.06-2.08-7.18-3.68H53.09c-1.12 1.6-3.22 3.18-7.18 3.68h.25a2.22 2.22 0 0 0 0 4.44h34.19a2.22 2.22 0 0 0 2.22-2.22 2.2 2.2 0 0 0-2.22-2.22zm22.97-21.87V32.57a5.81 5.81 0 0 0-5.81-5.81H29.13a5.81 5.81 0 0 0-5.81 5.81v51.48A5.12 5.12 0 0 0 28.44 89h69.74a5.12 5.12 0 0 0 5.12-4.92zM68 83.39a1.28 1.28 0 0 1-1.28 1.28h-6.78a1.28 1.28 0 0 1-1.28-1.28v-.89a1.28 1.28 0 0 1 1.28-1.28h6.74A1.28 1.28 0 0 1 68 82.5zm29.55-6.9H29.13a1 1 0 0 1-1-1V32.57a1 1 0 0 1 1-1h68.36a1 1 0 0 1 1 1v42.9a1 1 0 0 1-1 1zm0 0" transform="translate(-23.32 -26.76)"/><path class="cls-1" d="M80 52.3h2.57l.08-.08a16 16 0 0 0-.18-2.39zm-5.89-14.59L66 45.86v2.57l9.71-9.72a14.11 14.11 0 0 0-1.56-1zm-3.63-1.5L66 40.74v2.57l6.42-6.43a12.59 12.59 0 0 0-1.9-.67zm-2.1-.44a15.93 15.93 0 0 0-2.38-.19v2.57zm3.95 16.53l8.18-8.19a14.11 14.11 0 0 0-1-1.56l-9.75 9.75zm6.04-11.18c-.2-.22-.39-.43-.61-.65l-.67-.64L66 51v1.3h1.25zm-.92 11.18L82 47.72a18.39 18.39 0 0 0-.66-1.89L74.9 52.3zm0 0" transform="translate(-23.32 -26.76)"/><path class="cls-1" d="M63 38.47a16.76 16.76 0 1 0 16.8 16.76H63zm0 0" transform="translate(-23.32 -26.76)"/></svg>