<svg id="Слой_1" data-name="Слой 1" xmlns="http://www.w3.org/2000/svg" viewBox="0 0 80 72.7"><defs><style>.cls-1{fill:#0097e8;}</style></defs><title>12</title><path class="cls-1" d="M64.74,63.68a1.74,1.74,0,0,0,2.46,0l1.85-1.84,1.84,1.84a1.73,1.73,0,0,0,1.23.51,1.7,1.7,0,0,0,1.22-.51,1.74,1.74,0,0,0,0-2.46L71.5,59.38l1.84-1.84a1.74,1.74,0,1,0-2.45-2.46l-1.84,1.84L67.2,55.08a1.74,1.74,0,0,0-2.46,0,1.76,1.76,0,0,0,0,2.46l1.85,1.84-1.85,1.84a1.76,1.76,0,0,0,0,2.46Zm0,0" transform="translate(-24.16 -27.06)"/><path class="cls-1" d="M81.34,52.36a17.38,17.38,0,1,0,5.09,12.29,17.28,17.28,0,0,0-5.09-12.29ZM59.22,54.82A13.9,13.9,0,0,1,82.5,68.19H55.61a13.9,13.9,0,0,1,3.61-13.37Zm9.83,23.74a13.85,13.85,0,0,1-9.83-4.07,14.07,14.07,0,0,1-2.17-2.82h24a13.93,13.93,0,0,1-12,6.89Zm0,0" transform="translate(-24.16 -27.06)"/><path class="cls-1" d="M102.59,90.63,89,77a23.55,23.55,0,0,0,3.44-14.16h6.8A1.73,1.73,0,0,0,101,61.12V28.8a1.73,1.73,0,0,0-1.73-1.74H25.9a1.74,1.74,0,0,0-1.74,1.74V61.12a1.74,1.74,0,0,0,1.74,1.74H45.68A23.46,23.46,0,0,0,81.42,84.59L95,98.2a5.35,5.35,0,1,0,7.56-7.57ZM27.64,59.38V30.54H97.49V59.38H91.9a23.45,23.45,0,0,0-45.7,0Zm27.28,19.4a20,20,0,1,1,28.26,0,20,20,0,0,1-28.26,0Zm45.22,17a1.9,1.9,0,0,1-1.33.55,1.86,1.86,0,0,1-1.32-.55L84.26,82.51c.47-.4.93-.82,1.38-1.27s.87-.91,1.27-1.38l13.23,13.23a1.88,1.88,0,0,1,0,2.65Zm0,0" transform="translate(-24.16 -27.06)"/><path class="cls-1" d="M91.75,36.79A1.73,1.73,0,0,0,90,35.05H35.11a1.74,1.74,0,1,0,0,3.48H90a1.73,1.73,0,0,0,1.73-1.74Zm0,0" transform="translate(-24.16 -27.06)"/></svg>