<svg id="Слой_1" data-name="Слой 1" xmlns="http://www.w3.org/2000/svg" viewBox="0 0 80 69.32"><defs><style>.cls-1{fill:#0097e8;}</style></defs><title>13</title><path class="cls-1" d="M98.46,29.54H79.71a8.44,8.44,0,0,0-7.92,5.34s-.67,4.89-5.34,5.34H29.14a5.25,5.25,0,0,0-5.34,5.23v48.1a5.32,5.32,0,0,0,5.34,5.31H98.46a5.32,5.32,0,0,0,5.34-5.31V34.88a5.34,5.34,0,0,0-5.34-5.34Zm0,15.91v48.1H29.14v-48H66.45l.53,0c5-.48,8.09-4,9.53-7.58s3.8-3,3.8-3H98.46Zm0,0" transform="translate(-23.8 -29.54)"/><path class="cls-1" d="M77.13,66.89H66.45V56.21a2.65,2.65,0,1,0-5.3,0V66.89H50.47a2.65,2.65,0,1,0,0,5.3H61.15V82.87a2.65,2.65,0,1,0,5.3,0V72.19H77.13a2.65,2.65,0,1,0,0-5.3Zm0,0" transform="translate(-23.8 -29.54)"/></svg>