<svg id="Слой_1" data-name="Слой 1" xmlns="http://www.w3.org/2000/svg" viewBox="0 0 80 82.59"><defs><style>.cls-1{fill:#0097e8}</style></defs><path class="cls-1" d="M101.49 22.27H25.71a2.12 2.12 0 0 0 0 4.23h4.57v76.19a2.1 2.1 0 0 0 3.28 1.76l9.18-6.11 9.26 6.13a2.1 2.1 0 0 0 2.35 0l9.18-6.11 9.21 6.13a2.13 2.13 0 0 0 2.35 0l9.18-6.12 9.21 6.14a2.14 2.14 0 0 0 1.17.35 2.28 2.28 0 0 0 1-.25 2.11 2.11 0 0 0 1.11-1.87V26.55h4.81a2.12 2.12 0 0 0 2.11-2.11 2.16 2.16 0 0 0-2.11-2.17zm-9 76.47L85.4 94a2.13 2.13 0 0 0-2.35 0l-9.18 6.13L64.66 94a2.13 2.13 0 0 0-2.35 0l-9.18 6.12L43.92 94a2.13 2.13 0 0 0-2.35 0l-7.06 4.71V26.48h58zm0 0" transform="translate(-23.6 -22.27)"/><path class="cls-1" d="M44.23 56h22.15a2.12 2.12 0 1 0 0-4.23H44.23a2.12 2.12 0 0 0 0 4.23zm0 7.38h16.6a2.12 2.12 0 1 0 0-4.23h-16.6a2.12 2.12 0 0 0 0 4.23zM77.45 56H83a2.12 2.12 0 1 0 0-4.23h-5.55a2.12 2.12 0 0 0 0 4.23zm0 7.38H83a2.12 2.12 0 1 0 0-4.23h-5.55a2.12 2.12 0 0 0 0 4.23zM44.23 39.06h22.15a2.12 2.12 0 1 0 0-4.23H44.23a2.12 2.12 0 0 0 0 4.23zm0 7.33h16.6a2.12 2.12 0 1 0 0-4.23h-16.6a2.12 2.12 0 0 0 0 4.23zm33.22-7.33H83a2.12 2.12 0 1 0 0-4.23h-5.55a2.12 2.12 0 0 0 0 4.23zm0 7.33H83a2.12 2.12 0 1 0 0-4.23h-5.55a2.12 2.12 0 0 0 0 4.23zM44.23 73.21h22.15a2.12 2.12 0 1 0 0-4.23H44.23a2.12 2.12 0 0 0 0 4.23zm0 7.33h16.6a2.12 2.12 0 1 0 0-4.23h-16.6a2.12 2.12 0 0 0 0 4.23zm33.22-7.33H83A2.12 2.12 0 1 0 83 69h-5.55a2.12 2.12 0 0 0 0 4.23zm0 7.33H83a2.12 2.12 0 1 0 0-4.23h-5.55a2.12 2.12 0 0 0 0 4.23zm0 0" transform="translate(-23.6 -22.27)"/></svg>