<svg id="Слой_1" data-name="Слой 1" xmlns="http://www.w3.org/2000/svg" viewBox="0 0 80 84.74"><defs><style>.cls-1{fill:#0097e8;}</style></defs><title>15</title><path class="cls-1" d="M93.64,69.6V47.67a2.14,2.14,0,0,0-2.14-2.14H55.34a2.15,2.15,0,0,0-2.15,2.14V57.1h-17A2.15,2.15,0,0,0,34,59.25V81.17a2.16,2.16,0,0,0,2.15,2.16H72.32a2.16,2.16,0,0,0,2.16-2.16V71.75h17a2.14,2.14,0,0,0,2.14-2.15ZM72.36,81.17a0,0,0,0,1,0,0l-36.19,0,0-22,36.19,0ZM91.53,69.6s0,0,0,0h-17V59.25a2.16,2.16,0,0,0-2.16-2.15h-17V47.63l36.2,0V69.6Zm-67.7-4V55.94a1.61,1.61,0,0,1,3.22,0v9.65a1.61,1.61,0,1,1-3.22,0Zm80-25.3v9.65a1.61,1.61,0,1,1-3.21,0V40.29a1.61,1.61,0,1,1,3.21,0Zm-80,44.61V75.25a1.61,1.61,0,1,1,3.22,0V84.9a1.61,1.61,0,1,1-3.22,0Zm3.77,20a1.62,1.62,0,0,1-1.29.64,1.55,1.55,0,0,1-1-.31,3.78,3.78,0,0,1-1.52-3V94.56a1.61,1.61,0,1,1,3.22,0v7.65a.53.53,0,0,0,.21.43,1.62,1.62,0,0,1,.34,2.26ZM39.91,22.84a1.62,1.62,0,0,1,1.61-1.61h9.65a1.61,1.61,0,1,1,0,3.21H41.52a1.61,1.61,0,0,1-1.61-1.6Zm38.62,0a1.62,1.62,0,0,1,1.61-1.61h9.65a1.61,1.61,0,1,1,0,3.21H80.14a1.61,1.61,0,0,1-1.61-1.6Zm-19.3,0a1.61,1.61,0,0,1,1.61-1.61h9.65a1.61,1.61,0,0,1,0,3.21H60.84a1.6,1.6,0,0,1-1.61-1.6Zm-25.76,0a1.59,1.59,0,0,1-1.6,1.6H27.59a.55.55,0,0,0-.54.55v2a1.61,1.61,0,1,1-3.22,0V25a3.77,3.77,0,0,1,3.76-3.76h4.28a1.6,1.6,0,0,1,1.6,1.61ZM23.83,46.29V36.63a1.61,1.61,0,0,1,3.22,0v9.66a1.61,1.61,0,0,1-3.22,0Zm23.3,58.07A1.61,1.61,0,0,1,45.52,106H35.87a1.61,1.61,0,1,1,0-3.22h9.65a1.61,1.61,0,0,1,1.61,1.61Zm56.7-44.76v9.65a1.61,1.61,0,1,1-3.21,0V59.6a1.61,1.61,0,1,1,3.21,0Zm0,38.61v4a3.75,3.75,0,0,1-3.75,3.76H93.79a1.61,1.61,0,0,1,0-3.22h6.29a.55.55,0,0,0,.54-.54v-4a1.61,1.61,0,1,1,3.21,0Zm0-19.3v9.65a1.61,1.61,0,1,1-3.21,0V78.91a1.61,1.61,0,1,1,3.21,0Zm0-53.92v5.65a1.61,1.61,0,0,1-3.21,0V25a.55.55,0,0,0-.54-.55h-.64a1.61,1.61,0,0,1,0-3.21h.64A3.75,3.75,0,0,1,103.83,25ZM66.44,104.36A1.61,1.61,0,0,1,64.83,106H55.17a1.61,1.61,0,0,1,0-3.22h9.66a1.61,1.61,0,0,1,1.61,1.61Zm19.31,0A1.61,1.61,0,0,1,84.14,106H74.48a1.61,1.61,0,0,1,0-3.22h9.66a1.61,1.61,0,0,1,1.61,1.61Zm0,0" transform="translate(-23.83 -21.23)"/></svg>