<svg data-name="Слой 1" xmlns="http://www.w3.org/2000/svg" viewBox="0 0 80 84.74"><path d="M69.81 48.37V26.44a2.14 2.14 0 0 0-2.14-2.14H31.51a2.15 2.15 0 0 0-2.15 2.14v9.43h-17a2.15 2.15 0 0 0-2.19 2.15v21.92a2.16 2.16 0 0 0 2.15 2.16h36.17a2.16 2.16 0 0 0 2.16-2.16v-9.42h17a2.14 2.14 0 0 0 2.14-2.15zM48.53 59.94H12.34v-22h36.19zM67.7 48.37h-17V38.02a2.16 2.16 0 0 0-2.16-2.15h-17V26.4h36.2v21.97zm-67.7-4v-9.66a1.61 1.61 0 0 1 3.22 0v9.65a1.61 1.61 0 1 1-3.22 0zm80-25.3v9.65a1.61 1.61 0 1 1-3.21 0v-9.66a1.61 1.61 0 1 1 3.21 0zM0 63.68v-9.66a1.61 1.61 0 1 1 3.22 0v9.65a1.61 1.61 0 1 1-3.22 0zm3.77 20a1.62 1.62 0 0 1-1.29.64 1.55 1.55 0 0 1-1-.31 3.78 3.78 0 0 1-1.52-3v-7.68a1.61 1.61 0 1 1 3.22 0v7.65a.53.53 0 0 0 .21.43 1.62 1.62 0 0 1 .34 2.26zM16.08 1.61A1.62 1.62 0 0 1 17.69 0h9.65a1.61 1.61 0 1 1 0 3.21h-9.65a1.61 1.61 0 0 1-1.61-1.6zm38.62 0A1.62 1.62 0 0 1 56.31 0h9.65a1.61 1.61 0 1 1 0 3.21h-9.65a1.61 1.61 0 0 1-1.61-1.6zm-19.3 0A1.61 1.61 0 0 1 37.01 0h9.65a1.61 1.61 0 0 1 0 3.21h-9.65a1.6 1.6 0 0 1-1.61-1.6zm-25.76 0a1.59 1.59 0 0 1-1.6 1.6H3.76a.55.55 0 0 0-.54.55v2a1.61 1.61 0 1 1-3.22 0V3.77A3.77 3.77 0 0 1 3.76.01h4.28a1.6 1.6 0 0 1 1.6 1.61zM0 25.06V15.4a1.61 1.61 0 0 1 3.22 0v9.66a1.61 1.61 0 0 1-3.22 0zm23.3 58.07a1.61 1.61 0 0 1-1.61 1.64h-9.65a1.61 1.61 0 1 1 0-3.22h9.65a1.61 1.61 0 0 1 1.61 1.61zM80 38.37v9.65a1.61 1.61 0 1 1-3.21 0v-9.65a1.61 1.61 0 1 1 3.21 0zm0 38.61v4a3.75 3.75 0 0 1-3.75 3.76h-6.29a1.61 1.61 0 0 1 0-3.22h6.29a.55.55 0 0 0 .54-.54v-4a1.61 1.61 0 1 1 3.21 0zm0-19.3v9.65a1.61 1.61 0 1 1-3.21 0v-9.65a1.61 1.61 0 1 1 3.21 0zm0-53.92v5.65a1.61 1.61 0 0 1-3.21 0V3.77a.55.55 0 0 0-.54-.55h-.64a1.61 1.61 0 0 1 0-3.21h.64A3.75 3.75 0 0 1 80 3.77zM42.61 83.13A1.61 1.61 0 0 1 41 84.77h-9.66a1.61 1.61 0 0 1 0-3.22H41a1.61 1.61 0 0 1 1.61 1.61zm19.31 0a1.61 1.61 0 0 1-1.61 1.64h-9.66a1.61 1.61 0 0 1 0-3.22h9.66a1.61 1.61 0 0 1 1.61 1.61zm0 0" fill="#0097e8"/></svg>