<svg id="Слой_1" data-name="Слой 1" xmlns="http://www.w3.org/2000/svg" viewBox="0 0 80 92.62"><defs><style>.cls-1{fill:#0097e8;}</style></defs><title>19</title><path class="cls-1" d="M94.34,74.81a22.45,22.45,0,0,0,2.54-32.35v-22a1.86,1.86,0,0,0-2-2H26.13a1.86,1.86,0,0,0-2,2v88.68a1.86,1.86,0,0,0,2,2H94.89a2,2,0,0,0,2-2V98.1l7.3-2.52Zm4.5-17.27A18.28,18.28,0,0,1,88.19,74.3a19.84,19.84,0,0,1-7.68,1.57A18.33,18.33,0,1,1,98.84,57.54ZM73.06,78.37,69.07,96l-7.68-2.74,8-16.52a21.93,21.93,0,0,0,3.69,1.67Zm19.86,28.84H28.09V22.47H92.92V39a22.32,22.32,0,0,0-26,.85v-.1H40.69v3.94H63a22.28,22.28,0,0,0-4.79,13.79,22.64,22.64,0,0,0,.64,5.31H40.69v3.94H60.25a22.14,22.14,0,0,0,5.81,7.6L60.61,85.89H40.69v3.94H58.76l-2.71,5.71,16,5.53,5-21.76a23.49,23.49,0,0,0,3.49.27,25.36,25.36,0,0,0,2.75-.16l5,21.63,4.73-1.63ZM91.15,96,87.23,78.69a33.57,33.57,0,0,0,3.82-1.61l7.78,16.14Zm0,0" transform="translate(-24.16 -18.53)"/><path class="cls-1" d="M75.77,50.86,65.51,52.43,73,59.71,71.23,70l9.26-4.54,9.07,4.73L87.8,59.92l7.28-7.49L84.83,50.86l-4.52-9.27Zm6.69,3.75,4.33.58-3.15,3.16.81,4.31-3.94-2-3.93,2.17.79-4.54L74.2,55.19l4.33-.58,2-3.94Zm0,0" transform="translate(-24.16 -18.53)"/></svg>