<svg id="Слой_1" data-name="Слой 1" xmlns="http://www.w3.org/2000/svg" viewBox="0 0 80 92.62"><defs><style>.cls-1{fill:#0097e8}</style></defs><path class="cls-1" d="M94.34 74.81a22.45 22.45 0 0 0 2.54-32.35v-22a1.86 1.86 0 0 0-2-2H26.13a1.86 1.86 0 0 0-2 2v88.68a1.86 1.86 0 0 0 2 2h68.76a2 2 0 0 0 2-2V98.1l7.3-2.52zm4.5-17.27A18.28 18.28 0 0 1 88.19 74.3a19.84 19.84 0 0 1-7.68 1.57 18.33 18.33 0 1 1 18.33-18.33zM73.06 78.37L69.07 96l-7.68-2.74 8-16.52a21.93 21.93 0 0 0 3.69 1.67zm19.86 28.84H28.09V22.47h64.83V39a22.32 22.32 0 0 0-26 .85v-.1H40.69v3.94H63a22.28 22.28 0 0 0-4.79 13.79 22.64 22.64 0 0 0 .64 5.31H40.69v3.94h19.56a22.14 22.14 0 0 0 5.81 7.6l-5.45 11.56H40.69v3.94h18.07l-2.71 5.71 16 5.53 5-21.76a23.49 23.49 0 0 0 3.49.27 25.36 25.36 0 0 0 2.75-.16l5 21.63 4.73-1.63zM91.15 96l-3.92-17.31a33.57 33.57 0 0 0 3.82-1.61l7.78 16.14zm0 0" transform="translate(-24.16 -18.53)"/><path class="cls-1" d="M75.77 50.86l-10.26 1.57L73 59.71 71.23 70l9.26-4.54 9.07 4.73-1.76-10.27 7.28-7.49-10.25-1.57-4.52-9.27zm6.69 3.75l4.33.58-3.15 3.16.81 4.31-3.94-2-3.93 2.17.79-4.54-3.17-3.1 4.33-.58 2-3.94zm0 0" transform="translate(-24.16 -18.53)"/></svg>