<svg id="Слой_1" data-name="Слой 1" xmlns="http://www.w3.org/2000/svg" viewBox="0 0 80 81.79"><defs><style>.cls-1{fill:#0097e8;}</style></defs><title>2</title><path class="cls-1" d="M59.5,93.77,60.42,96A29.58,29.58,0,0,1,36,79l-2.08,5L32,83.26l3.44-8.36,8.35,3.44L43,80.27l-5.1-2.11A27.46,27.46,0,0,0,59.5,93.77Zm3.38-33.62a3,3,0,0,1-3,3.63h-.05l-33.35.16a3,3,0,0,1-2.4-1,3.07,3.07,0,0,1-.65-2.54l1.2-6.92a5.25,5.25,0,0,1,3.8-4l5.26-1.14,2.85-.61a18,18,0,0,1-2.84-4.93,4.1,4.1,0,0,1-2.59-2.62,3.47,3.47,0,0,1,1-3.86c-1.34-2-.59-11.49,6.59-13.14a8.43,8.43,0,0,1,5.35.33,1.92,1.92,0,0,1,1.73-.84s-.56.73-.36,1.22a5.78,5.78,0,0,1,4.81.73c4.4,2.47,4,7.2,3.07,10.11l0,1.19c1,.64,1.53,2.15,1.14,3.85A4.09,4.09,0,0,1,52,42.45a18.08,18.08,0,0,1-2.75,5.1l8.52,1.76a5.23,5.23,0,0,1,3.85,3.92ZM48.21,48.74a8,8,0,0,1-4,2.23l.83.75-1.3,1.2,1,4.06,6.46-7.62Zm-9.92-1.39a7.8,7.8,0,0,0,.58.57q.33.28.69.54A5.75,5.75,0,0,0,43,49.59a5.62,5.62,0,0,0,3.33-1.24A6,6,0,0,0,47,47.8c.2-.19.39-.38.58-.58a17.36,17.36,0,0,0,3.29-6.08A2.47,2.47,0,0,0,53,39.42c.25-1.1,0-2.12-.62-2.27a.25.25,0,0,0-.17,0c-.05,0-.08.06-.1,0v0a1.19,1.19,0,0,0-.26.11l0-1.35c-.66-1.7-2.34-4.44-4.78-4.67a3.61,3.61,0,0,1-4.74,2.26c-7.24-2.23-8.49.41-8.62,1.79v.56a.19.19,0,0,0,0,.08v0l0,1.62a.69.69,0,0,0-.54-.06c-.59.17-.84,1.19-.55,2.27a2.42,2.42,0,0,0,2.24,1.64,16.56,16.56,0,0,0,3.43,6ZM34.77,49.5,41.43,57l.94-4-1.3-1.19.78-.72a7.91,7.91,0,0,1-4.19-2.15ZM61.55,60.39l-1.27-6.9a3.87,3.87,0,0,0-2.78-2.84l-4.78-1L43.66,60.37a.7.7,0,0,1-.5.24h0a.66.66,0,0,1-.51-.23L33.25,49.82l-4.49,1A3.9,3.9,0,0,0,26,53.67l-1.2,6.92a1.65,1.65,0,0,0,1.71,2l6.51,0L33,59a.69.69,0,0,1,.67-.68.67.67,0,0,1,.69.68l0,3.57L52,62.46V58.89a.68.68,0,0,1,.66-.68h0a.68.68,0,0,1,.68.67l0,3.57,6.51,0,0,.67,0-.67a1.69,1.69,0,0,0,1.33-.6,1.78,1.78,0,0,0,.33-1.43Zm41.21,42.79a3.07,3.07,0,0,1-2.35,1.09h0L67,104.43a3,3,0,0,1-2.39-1,3.1,3.1,0,0,1-.66-2.55l1.2-6.92A5.22,5.22,0,0,1,69,90l5.25-1.14,2.84-.62a18,18,0,0,1-2.84-4.93,4.08,4.08,0,0,1-2.58-2.62c-.45-1.67,0-3.17,1-3.86C71.27,74.74,72,65.3,79.2,63.65a8.37,8.37,0,0,1,5.35.33,2,2,0,0,1,1.73-.84s-.56.72-.36,1.22a5.79,5.79,0,0,1,4.8.73c4.41,2.47,4,7.2,3.09,10.11l0,1.2c1.06.64,1.53,2.14,1.14,3.83a4,4,0,0,1-2.48,2.71,18.13,18.13,0,0,1-2.75,5.11l8.52,1.75a5.26,5.26,0,0,1,3.85,3.92l1.25,6.91a3.09,3.09,0,0,1-.6,2.55Zm-14.07-14a8,8,0,0,1-4,2.24l.84.75L84.26,93.4l1,4.07,6.45-7.63Zm-9.92-1.38.59.57a6,6,0,0,0,.69.53,5.68,5.68,0,0,0,3.43,1.14,5.61,5.61,0,0,0,3.32-1.24,6,6,0,0,0,.67-.56,5.94,5.94,0,0,0,.55-.57,16.8,16.8,0,0,0,3.3-6.09,2.45,2.45,0,0,0,2.16-1.71c.25-1.11,0-2.12-.63-2.28h-.16c0,.06-.1.07-.11.05v-.05a1.06,1.06,0,0,0-.26.1l0-1.35c-.65-1.71-2.32-4.44-4.78-4.67A3.61,3.61,0,0,1,82.78,74c-7.24-2.23-8.5.41-8.63,1.8v.56a.11.11,0,0,1,0,.08h0l0,1.63a.67.67,0,0,0-.55-.07c-.59.17-.82,1.2-.53,2.28a2.43,2.43,0,0,0,2.23,1.64,16.81,16.81,0,0,0,3.42,5.94ZM75.26,90l6.66,7.48.94-4-1.31-1.19.79-.72a7.94,7.94,0,0,1-4.19-2.15ZM102,100.89,100.77,94A3.92,3.92,0,0,0,98,91.14l-4.77-1-9.06,10.71a.76.76,0,0,1-.51.25.7.7,0,0,1-.51-.23l-9.4-10.56-4.48,1a3.87,3.87,0,0,0-2.75,2.88l-1.2,6.9a1.72,1.72,0,0,0,.35,1.44,1.62,1.62,0,0,0,1.35.57l6.51,0V99.48a.67.67,0,0,1,.66-.68h0a.67.67,0,0,1,.67.67l0,3.57,17.62-.1,0-3.56a.68.68,0,0,1,.66-.68h0a.69.69,0,0,1,.69.68v3.56l6.51,0,.05.67v-.67a1.73,1.73,0,0,0,1.32-.59,1.77,1.77,0,0,0,.32-1.43Zm-19.31-45L78,53l-1.09,1.78,7.7,4.73,4.72-7.7-1.78-1.09-2.84,4.63A29.57,29.57,0,0,0,63.27,34.69L63.82,37a27.43,27.43,0,0,1,18.9,18.84Zm0,0" transform="translate(-23.42 -22.65)"/></svg>