<svg id="Слой_1" data-name="Слой 1" xmlns="http://www.w3.org/2000/svg" viewBox="0 0 80 80"><defs><style>.cls-1{fill:#0097e8;}</style></defs><title>20</title><rect class="cls-1" width="80" height="10"/><rect class="cls-1" y="19.99" width="50" height="10.01"/><rect class="cls-1" y="40.21" width="80" height="10.01"/><path class="cls-1" d="M34.8,100.14a5,5,0,1,1-5-5,5,5,0,0,1,5,5Zm0,0" transform="translate(-24.8 -25.15)"/><path class="cls-1" d="M54.8,100.14a5,5,0,1,1-5-5,5,5,0,0,1,5,5Zm0,0" transform="translate(-24.8 -25.15)"/><path class="cls-1" d="M74.8,100.14a5,5,0,1,1-5-5,5,5,0,0,1,5,5Zm0,0" transform="translate(-24.8 -25.15)"/></svg>