<svg id="Слой_1" data-name="Слой 1" xmlns="http://www.w3.org/2000/svg" viewBox="0 0 80 61.99"><defs><style>.cls-1{fill:#0097e8}</style></defs><path class="cls-1" d="M102.28 32.45h-58A1.29 1.29 0 0 0 43 33.74v16.52H24.87a1.29 1.29 0 0 0-1.29 1.29v35.21a1.3 1.3 0 0 0 1.29 1.3h27.7v3.79h-8.88a1.29 1.29 0 1 0 0 2.58H64a1.29 1.29 0 1 0 0-2.58h-8.84v-3.79h27.69a1.3 1.3 0 0 0 1.3-1.3V70.25h18.13a1.3 1.3 0 0 0 1.3-1.29V33.74a1.3 1.3 0 0 0-1.3-1.29zm-76.12 38l15 15h-15zm4.66 1v-14h46.09v23.37H40.18zm50.74 14H44.83l-2.06-2.05H78.2a1.29 1.29 0 0 0 1.29-1.29V56.2a1.29 1.29 0 0 0-1.29-1.29H29.52a1.29 1.29 0 0 0-1.29 1.29v12.67l-2.07-2.07v-14h55.4zM50.25 50.26V39.69h46.09V63H84.15V51.55a1.29 1.29 0 0 0-1.3-1.29zM101 67.66H84.15v-2.07h13.48a1.29 1.29 0 0 0 1.29-1.29V38.39a1.29 1.29 0 0 0-1.29-1.29H49a1.29 1.29 0 0 0-1.29 1.29v11.87h-2.12V35H101zm0 0" transform="translate(-23.58 -32.45)"/><path class="cls-1" d="M52.46 64.09a5.08 5.08 0 1 0-5.07 5.08 5.09 5.09 0 0 0 5.07-5.08zm-5.07 2.49a2.49 2.49 0 1 1 2.48-2.49 2.49 2.49 0 0 1-2.48 2.49zm12.95 2.57a5.08 5.08 0 1 0 5.07 5.07 5.08 5.08 0 0 0-5.07-5.07zm0 7.56a2.49 2.49 0 1 1 2.49-2.49 2.49 2.49 0 0 1-2.49 2.49zM57 59.32a1.3 1.3 0 0 0-1.63.84l-5.54 17.2A1.3 1.3 0 0 0 50.7 79a1.32 1.32 0 0 0 .39.06 1.28 1.28 0 0 0 1.23-.9L57.86 61a1.29 1.29 0 0 0-.86-1.68zm0 0" transform="translate(-23.58 -32.45)"/></svg>