<svg id="Слой_1" data-name="Слой 1" xmlns="http://www.w3.org/2000/svg" viewBox="0 0 80 61.99"><defs><style>.cls-1{fill:#0097e8;}</style></defs><title>3</title><path class="cls-1" d="M102.28,32.45h-58A1.29,1.29,0,0,0,43,33.74V50.26H24.87a1.29,1.29,0,0,0-1.29,1.29V86.76a1.3,1.3,0,0,0,1.29,1.3h27.7v3.79H43.69a1.29,1.29,0,1,0,0,2.58H64a1.29,1.29,0,1,0,0-2.58H55.16V88.06H82.85a1.3,1.3,0,0,0,1.3-1.3V70.25h18.13a1.3,1.3,0,0,0,1.3-1.29V33.74a1.3,1.3,0,0,0-1.3-1.29Zm-76.12,38,15,15h-15Zm4.66,1v-14H76.91V80.82H40.18Zm50.74,14H44.83L42.77,83.4H78.2a1.29,1.29,0,0,0,1.29-1.29V56.2a1.29,1.29,0,0,0-1.29-1.29H29.52a1.29,1.29,0,0,0-1.29,1.29V68.87L26.16,66.8v-14h55.4ZM50.25,50.26V39.69H96.34V63H84.15V51.55a1.29,1.29,0,0,0-1.3-1.29ZM101,67.66H84.15V65.59H97.63a1.29,1.29,0,0,0,1.29-1.29V38.39a1.29,1.29,0,0,0-1.29-1.29H49a1.29,1.29,0,0,0-1.29,1.29V50.26H45.59V35H101Zm0,0" transform="translate(-23.58 -32.45)"/><path class="cls-1" d="M52.46,64.09a5.08,5.08,0,1,0-5.07,5.08,5.09,5.09,0,0,0,5.07-5.08Zm-5.07,2.49a2.49,2.49,0,1,1,2.48-2.49,2.49,2.49,0,0,1-2.48,2.49Zm0,0" transform="translate(-23.58 -32.45)"/><path class="cls-1" d="M60.34,69.15a5.08,5.08,0,1,0,5.07,5.07,5.08,5.08,0,0,0-5.07-5.07Zm0,7.56a2.49,2.49,0,1,1,2.49-2.49,2.49,2.49,0,0,1-2.49,2.49Zm0,0" transform="translate(-23.58 -32.45)"/><path class="cls-1" d="M57,59.32a1.3,1.3,0,0,0-1.63.84l-5.54,17.2A1.3,1.3,0,0,0,50.7,79a1.32,1.32,0,0,0,.39.06,1.28,1.28,0,0,0,1.23-.9L57.86,61A1.29,1.29,0,0,0,57,59.32Zm0,0" transform="translate(-23.58 -32.45)"/></svg>