<svg id="Слой_1" data-name="Слой 1" xmlns="http://www.w3.org/2000/svg" viewBox="0 0 81.51 65.47"><defs><style>.cls-1{fill:#0097e8;}.cls-2{fill:none;stroke:#0097e8;stroke-miterlimit:10;stroke-width:1.5px;}</style></defs><title>4</title><path class="cls-1" d="M48.67,70.63V62.12h2.14a1.7,1.7,0,0,0,0-3.4H48.67V57.65a1.7,1.7,0,0,0-3.4,0v1.26a7.56,7.56,0,0,0,0,14.73v8.5H42.75a1.7,1.7,0,0,0,0,3.4h2.52v1.07a1.7,1.7,0,1,0,3.4,0V85.35a7.55,7.55,0,0,0,0-14.72Zm-5.86-4.35a4.15,4.15,0,0,1,2.46-3.79v7.57a4.15,4.15,0,0,1-2.46-3.78Zm5.86,15.49V74.2a4.15,4.15,0,0,1,0,7.57Zm0,0" transform="translate(-22.65 -30.65)"/><path class="cls-1" d="M33.79,46.15a4.62,4.62,0,1,0-4.62-4.62,4.62,4.62,0,0,0,4.62,4.62Zm0-5.83a1.22,1.22,0,1,1-1.21,1.21,1.22,1.22,0,0,1,1.21-1.21Zm0,0" transform="translate(-22.65 -30.65)"/><path class="cls-2" d="M44.9,46.15a4.62,4.62,0,1,0-4.62-4.62,4.63,4.63,0,0,0,4.62,4.62Zm0-5.83a1.22,1.22,0,0,1,0,2.43,1.22,1.22,0,1,1,0-2.43Zm0,0" transform="translate(-22.65 -30.65)"/><path class="cls-2" d="M98.52,31.4H28.29a4.91,4.91,0,0,0-4.89,4.9V90.48a4.91,4.91,0,0,0,4.89,4.9H98.52a4.9,4.9,0,0,0,4.89-4.9V36.3a4.89,4.89,0,0,0-4.89-4.9ZM28.29,34.81H98.52A1.49,1.49,0,0,1,100,36.3V47.72H26.8V36.3a1.49,1.49,0,0,1,1.49-1.49ZM98.52,92H28.29a1.49,1.49,0,0,1-1.49-1.49V51.12H100V90.48A1.49,1.49,0,0,1,98.52,92Zm0,0" transform="translate(-22.65 -30.65)"/><path class="cls-1" d="M80,60.85A11.28,11.28,0,1,0,91.28,72.13,11.28,11.28,0,0,0,80,60.85Zm4.13,7a12.73,12.73,0,0,0-1.89,2.8,17.18,17.18,0,0,0-1.47,3.87,15.35,15.35,0,0,0-.5,3.67H78.16a16.58,16.58,0,0,1,1-5.16,17.37,17.37,0,0,1,2.47-4.7h-5V66.12h7.52Z" transform="translate(-22.65 -30.65)"/></svg>