<svg id="Слой_1" data-name="Слой 1" xmlns="http://www.w3.org/2000/svg" viewBox="0 0 80 78.1"><defs><style>.cls-1{fill:#0097e8}</style></defs><path class="cls-1" d="M33 73.27a4.43 4.43 0 1 0 4.43 4.43A4.43 4.43 0 0 0 33 73.27zm8.1-43.42a6.61 6.61 0 1 0 6.61 6.61 6.6 6.6 0 0 0-6.61-6.61zm54.37 1.54a3.35 3.35 0 1 0-3.35 3.34 3.35 3.35 0 0 0 3.35-3.34zm-16.7 26.13a19.95 19.95 0 1 0 19.94 19.94 19.94 19.94 0 0 0-19.94-19.94zM77 64a5.61 5.61 0 0 1 1 11.12c-3.27 1.63-5.38 1-5.38 1a7.84 7.84 0 0 0 2.08-1.34A5.61 5.61 0 0 1 77 64zm15.13 22s-3.45-4.32-9.5.86c0 0-5.89 7.94-13.81 1.73 0 0 5.18 3.45 7.77-6.91 0 0-9.5-2.59-8.2-6.48 0 0 13.81 8.64 16.4-9.49a17.86 17.86 0 0 1 .43 15.11s8.64-2.57 6.91 5.18z" transform="translate(-23.74 -24.33)"/><path class="cls-1" d="M87.63 54.14l3.78-15.77a5.51 5.51 0 0 0 .71.07 7.1 7.1 0 1 0-2.82-.6l-3.74 15.6a24.7 24.7 0 0 0-24 6l-12.92-14.5a11.66 11.66 0 1 0-1.76 1.28L60 61a24.9 24.9 0 0 0-6.2 16.09L42.16 78v-.29a9.47 9.47 0 1 0-.4 2.49l12.08-.94a25 25 0 1 0 33.79-25.12zm-.39-22.75a4.89 4.89 0 1 1 4.88 4.88 4.89 4.89 0 0 1-4.88-4.88zM41.1 45.68a9.23 9.23 0 1 1 9.23-9.22 9.22 9.22 0 0 1-9.23 9.22zM33 84.75a7.06 7.06 0 1 1 7.06-7 7.06 7.06 0 0 1-7.06 7zm45.81 15a22.29 22.29 0 1 1 22.28-22.29 22.3 22.3 0 0 1-22.32 22.29z" transform="translate(-23.74 -24.33)"/></svg>