<svg id="Слой_1" data-name="Слой 1" xmlns="http://www.w3.org/2000/svg" viewBox="0 0 80 78.1"><defs><style>.cls-1{fill:#0097e8;}</style></defs><title>5</title><path class="cls-1" d="M33,73.27a4.43,4.43,0,1,0,4.43,4.43A4.43,4.43,0,0,0,33,73.27Z" transform="translate(-23.74 -24.33)"/><path class="cls-1" d="M41.1,29.85a6.61,6.61,0,1,0,6.61,6.61A6.6,6.6,0,0,0,41.1,29.85Z" transform="translate(-23.74 -24.33)"/><path class="cls-1" d="M95.47,31.39a3.35,3.35,0,1,0-3.35,3.34A3.35,3.35,0,0,0,95.47,31.39Z" transform="translate(-23.74 -24.33)"/><path class="cls-1" d="M78.77,57.52A19.95,19.95,0,1,0,98.71,77.46,19.94,19.94,0,0,0,78.77,57.52ZM77,64a5.61,5.61,0,0,1,1,11.12h0c-3.27,1.63-5.38,1-5.38,1a7.84,7.84,0,0,0,2.08-1.34A5.61,5.61,0,0,1,77,64ZM92.13,86s-3.45-4.32-9.5.86c0,0-5.89,7.94-13.81,1.73,0,0,5.18,3.45,7.77-6.91,0,0-9.5-2.59-8.2-6.48,0,0,13.81,8.64,16.4-9.49a17.86,17.86,0,0,1,.43,15.11S93.86,78.25,92.13,86Z" transform="translate(-23.74 -24.33)"/><path class="cls-1" d="M87.63,54.14l3.78-15.77a5.51,5.51,0,0,0,.71.07,7.1,7.1,0,1,0-2.82-.6l-3.74,15.6a24.7,24.7,0,0,0-24,6L48.64,44.94a11.66,11.66,0,1,0-1.76,1.28L60,61A24.9,24.9,0,0,0,53.8,77.09L42.16,78c0-.1,0-.19,0-.29a9.47,9.47,0,1,0-.4,2.49l12.08-.94A25,25,0,1,0,87.63,54.14Zm-.39-22.75a4.89,4.89,0,1,1,4.88,4.88A4.89,4.89,0,0,1,87.24,31.39ZM41.1,45.68a9.23,9.23,0,1,1,9.23-9.22A9.22,9.22,0,0,1,41.1,45.68ZM33,84.75a7.06,7.06,0,1,1,7.06-7A7.06,7.06,0,0,1,33,84.75Zm45.81,15a22.29,22.29,0,1,1,22.28-22.29A22.3,22.3,0,0,1,78.77,99.75Z" transform="translate(-23.74 -24.33)"/></svg>