<svg id="Слой_1" data-name="Слой 1" xmlns="http://www.w3.org/2000/svg" viewBox="0 0 80 62.49"><defs><style>.cls-1{fill:#0097e8;}</style></defs><title>6</title><path class="cls-1" d="M53,61.82a1.71,1.71,0,1,0-2,2.77,15.15,15.15,0,1,1-11.13-2.71l.1,0L40,65.22a1,1,0,0,0,.59.85.91.91,0,0,0,1-.23l4.85-5.06a.93.93,0,0,0,0-1.3l-5.07-4.85a.92.92,0,0,0-1-.18.81.81,0,0,0-.3.21.93.93,0,0,0-.26.66l.07,3.2a1.88,1.88,0,0,0-.53,0,18.56,18.56,0,0,0-5.56,34.95,18.35,18.35,0,0,0,8.28,2A18.56,18.56,0,0,0,53,61.82Zm0,0" transform="translate(-23.54 -32.95)"/><path class="cls-1" d="M74.1,66.56a1.71,1.71,0,0,0,2-2.77A15.15,15.15,0,1,1,87.22,66.5l-.1,0-.06-3.37a1,1,0,0,0-.59-.84.91.91,0,0,0-1,.23L80.62,67.6a.93.93,0,0,0,0,1.3l5.07,4.85a.92.92,0,0,0,1,.18.81.81,0,0,0,.3-.21.93.93,0,0,0,.26-.66l-.07-3.2a1.88,1.88,0,0,0,.53,0A18.56,18.56,0,1,0,74.1,66.56Zm0,0" transform="translate(-23.54 -32.95)"/></svg>