<svg data-name="Слой 1" xmlns="http://www.w3.org/2000/svg" viewBox="0 0 80 62.49"><path d="M29.46 28.87a1.71 1.71 0 1 0-2 2.77 15.15 15.15 0 1 1-11.13-2.71h.1l.03 3.34a1 1 0 0 0 .59.85.91.91 0 0 0 1-.23l4.85-5.06a.93.93 0 0 0 0-1.3l-5.07-4.85a.92.92 0 0 0-1-.18.81.81 0 0 0-.3.21.93.93 0 0 0-.26.66l.07 3.2a1.88 1.88 0 0 0-.53 0 18.56 18.56 0 0 0-5.56 34.95 18.35 18.35 0 0 0 8.28 2 18.56 18.56 0 0 0 10.93-33.65zm21.1 4.74a1.71 1.71 0 0 0 2-2.77 15.15 15.15 0 1 1 11.12 2.71h-.1l-.06-3.37a1 1 0 0 0-.59-.84.91.91 0 0 0-1 .23l-4.85 5.08a.93.93 0 0 0 0 1.3l5.07 4.85a.92.92 0 0 0 1 .18.81.81 0 0 0 .3-.21.93.93 0 0 0 .26-.66l-.07-3.2a1.88 1.88 0 0 0 .53 0 18.56 18.56 0 1 0-13.61-3.3zm0 0" fill="#0097e8"/></svg>