<svg data-name="Слой 1" xmlns="http://www.w3.org/2000/svg" viewBox="0 0 80 51.94"><path d="M38.8 20.15H16.01v-4.11h22.81v4.11zm3.87 0h11.26v-4.11H42.67zm-26.66 7.87h37.92v-4.11H16.01zm18.09 7.87h19.83v-4.11H34.1zm-18.09 0h14.26v-4.11H16.01zm64 11.16l-7.8 2a19.89 19.89 0 0 1-5 .61 34.8 34.8 0 0 1-11.49-2.24 45.12 45.12 0 0 1-20.09 4.54c-19.62 0-35.58-11.65-35.58-26s16-26 35.58-26 35.59 11.64 35.59 26a21.12 21.12 0 0 1-6 14.49 21 21 0 0 0 7.18 4.05zm-17.67-2.71a18.68 18.68 0 0 1-2.39-2.4l-1.45-1.75 1.67-1.53c4.08-3.72 6.23-8.11 6.23-12.7 0-11.68-13.83-21.19-30.82-21.19S4.76 14.28 4.76 25.96s13.83 21.21 30.82 21.21a40.13 40.13 0 0 0 18.82-4.46l1-.51 1 .37a39.75 39.75 0 0 0 6 1.77zm0 0" fill="#0097e8"/></svg>