<svg id="Слой_1" data-name="Слой 1" xmlns="http://www.w3.org/2000/svg" viewBox="0 0 80 51.94"><defs><style>.cls-1{fill:#0097e8;}</style></defs><title>7</title><path class="cls-1" d="M62.4,57.65H39.61V53.54H62.42v4.11Zm3.87,0H77.53V53.54H66.27ZM39.61,65.52H77.53V61.41H39.61ZM57.7,73.39H77.53V69.28H57.7Zm-18.09,0H53.87V69.28H39.61Zm64,11.16-7.8,2a19.89,19.89,0,0,1-5,.61,34.8,34.8,0,0,1-11.49-2.24,45.12,45.12,0,0,1-20.09,4.54c-19.62,0-35.58-11.65-35.58-26s16-26,35.58-26,35.59,11.64,35.59,26a21.12,21.12,0,0,1-6,14.49A21,21,0,0,0,96,82ZM85.94,81.84a18.68,18.68,0,0,1-2.39-2.4L82.1,77.69l1.67-1.53C87.85,72.44,90,68.05,90,63.46c0-11.68-13.83-21.19-30.82-21.19S28.36,51.78,28.36,63.46,42.19,84.67,59.18,84.67A40.13,40.13,0,0,0,78,80.21l1-.51,1,.37a39.75,39.75,0,0,0,6,1.77Zm0,0" transform="translate(-23.6 -37.5)"/></svg>