<svg data-name="Слой 1" xmlns="http://www.w3.org/2000/svg" viewBox="0 0 80 77.5"><path d="M62.46 53.43a6.51 6.51 0 0 1 .86 3.38 7.16 7.16 0 0 1-1.77 5 7.64 7.64 0 0 1-5.12 2.26v3.39h-2.84v-3.34q-5.58-.57-6.91-6.48l4.4-1.14q.6 3.7 4 3.71a3.15 3.15 0 0 0 2.37-.79 2.71 2.71 0 0 0 .75-1.92 2.1 2.1 0 0 0-.75-1.76 14 14 0 0 0-3.37-1.53 19.25 19.25 0 0 1-3.66-1.61 6 6 0 0 1-2.14-2.22 6.55 6.55 0 0 1-.78-3.31 7.39 7.39 0 0 1 1.47-4.49 6.56 6.56 0 0 1 4.62-2.44V37.5h2.84v2.63a6.86 6.86 0 0 1 6.17 5.39l-3.92 1.6q-1.14-3.3-3.54-3.3a2.6 2.6 0 0 0-1.93.73 2.5 2.5 0 0 0-.73 1.8 2 2 0 0 0 .7 1.64 11.93 11.93 0 0 0 3 1.42 25.86 25.86 0 0 1 4 1.75 6.11 6.11 0 0 1 2.3 2.27zM80 52.5a25 25 0 1 1-25-25 25 25 0 0 1 25 25zm-5 0a20 20 0 1 0-20 20 20 20 0 0 0 20-20zm-35-45h30c1.38 0 2.5-.84 2.5-1.87V1.88C72.5.88 71.38 0 70 0H40c-1.38 0-2.5.84-2.5 1.88v3.75c0 1 1.12 1.87 2.5 1.87zm0 10h30c1.38 0 2.5-.84 2.5-1.87v-3.75c0-1-1.12-1.88-2.5-1.88H40c-1.38 0-2.5.84-2.5 1.88v3.75c0 1 1.12 1.87 2.5 1.87zm-37.5 50h29.48a27.28 27.28 0 0 1-3.41-7.5H2.5c-1.38 0-2.5.84-2.5 1.88v3.75c0 1 1.12 1.87 2.5 1.87zm30 2.5h-30c-1.38 0-2.5.84-2.5 1.88v3.75c0 1 1.12 1.87 2.5 1.87h30c1.38 0 2.5-.84 2.5-1.87v-3.75c0-1-1.12-1.88-2.5-1.88zm-30-12.5h25.48a27.43 27.43 0 0 1-.48-5c0-.84.05-1.67.13-2.5H2.5c-1.38 0-2.5.84-2.5 1.88v3.75c0 1 1.12 1.87 2.5 1.87zm37.5-30h3.61a27.2 27.2 0 0 1 22.78 0H70c1.38 0 2.5-.84 2.5-1.87v-3.75c0-1-1.12-1.88-2.5-1.88H40c-1.38 0-2.5.84-2.5 1.88v3.75c0 1 1.12 1.87 2.5 1.87zm-37.5 0h30c1.38 0 2.5-.84 2.5-1.87v-3.75c0-1-1.12-1.88-2.5-1.88h-30c-1.38 0-2.5.84-2.5 1.88v3.75c0 1 1.12 1.87 2.5 1.87zm0 20h25.48a27.15 27.15 0 0 1 2.56-7.5h-28c-1.38 0-2.5.84-2.5 1.88v3.75c0 1 1.12 1.87 2.5 1.87zm0-10h29.48a28.48 28.48 0 0 1 3-3.82v-1.8c0-1-1.12-1.88-2.5-1.88h-30c-1.38 0-2.5.84-2.5 1.88v3.75c0 1 1.12 1.87 2.5 1.87zm0 0" fill="#0097e8"/></svg>