<svg id="Слой_1" data-name="Слой 1" xmlns="http://www.w3.org/2000/svg" viewBox="0 0 80 77.5"><defs><style>.cls-1{fill:#0097e8;}</style></defs><title>8</title><path class="cls-1" d="M86.26,78.36a6.51,6.51,0,0,1,.86,3.38,7.16,7.16,0,0,1-1.77,5A7.64,7.64,0,0,1,80.23,89v3.39H77.39V89.05q-5.58-.57-6.91-6.48l4.4-1.14q.6,3.7,4,3.71a3.15,3.15,0,0,0,2.37-.79A2.71,2.71,0,0,0,82,82.43a2.1,2.1,0,0,0-.75-1.76,14,14,0,0,0-3.37-1.53,19.25,19.25,0,0,1-3.66-1.61,6,6,0,0,1-2.14-2.22A6.55,6.55,0,0,1,71.3,72a7.39,7.39,0,0,1,1.47-4.49,6.56,6.56,0,0,1,4.62-2.44V62.43h2.84v2.63a6.86,6.86,0,0,1,6.17,5.39l-3.92,1.6q-1.14-3.3-3.54-3.3a2.6,2.6,0,0,0-1.93.73,2.5,2.5,0,0,0-.73,1.8,2,2,0,0,0,.7,1.64,11.93,11.93,0,0,0,3,1.42,25.86,25.86,0,0,1,4,1.75,6.11,6.11,0,0,1,2.3,2.27Zm17.54-.93a25,25,0,1,1-25-25,25,25,0,0,1,25,25Zm-5,0a20,20,0,1,0-20,20,20,20,0,0,0,20-20Zm-35-45h30c1.38,0,2.5-.84,2.5-1.87V26.81c0-1-1.12-1.88-2.5-1.88h-30c-1.38,0-2.5.84-2.5,1.88v3.75c0,1,1.12,1.87,2.5,1.87Zm0,10h30c1.38,0,2.5-.84,2.5-1.87V36.81c0-1-1.12-1.88-2.5-1.88h-30c-1.38,0-2.5.84-2.5,1.88v3.75c0,1,1.12,1.87,2.5,1.87Zm-37.5,50H55.78a27.28,27.28,0,0,1-3.41-7.5H26.3c-1.38,0-2.5.84-2.5,1.88v3.75c0,1,1.12,1.87,2.5,1.87Zm30,2.5h-30c-1.38,0-2.5.84-2.5,1.88v3.75c0,1,1.12,1.87,2.5,1.87h30c1.38,0,2.5-.84,2.5-1.87V96.81c0-1-1.12-1.88-2.5-1.88Zm-30-12.5H51.78a27.43,27.43,0,0,1-.48-5c0-.84.05-1.67.13-2.5H26.3c-1.38,0-2.5.84-2.5,1.88v3.75c0,1,1.12,1.87,2.5,1.87Zm37.5-30h3.61a27.2,27.2,0,0,1,22.78,0H93.8c1.38,0,2.5-.84,2.5-1.87V46.81c0-1-1.12-1.88-2.5-1.88h-30c-1.38,0-2.5.84-2.5,1.88v3.75c0,1,1.12,1.87,2.5,1.87Zm-37.5,0h30c1.38,0,2.5-.84,2.5-1.87V46.81c0-1-1.12-1.88-2.5-1.88h-30c-1.38,0-2.5.84-2.5,1.88v3.75c0,1,1.12,1.87,2.5,1.87Zm0,20H51.78a27.15,27.15,0,0,1,2.56-7.5h-28c-1.38,0-2.5.84-2.5,1.88v3.75c0,1,1.12,1.87,2.5,1.87Zm0-10H55.78a28.48,28.48,0,0,1,3-3.82v-1.8c0-1-1.12-1.88-2.5-1.88h-30c-1.38,0-2.5.84-2.5,1.88v3.75c0,1,1.12,1.87,2.5,1.87Zm0,0" transform="translate(-23.8 -24.93)"/></svg>