<svg id="Слой_1" data-name="Слой 1" xmlns="http://www.w3.org/2000/svg" viewBox="0 0 80 80"><defs><style>.cls-1{fill:#0097e8;}</style></defs><title>9</title><path class="cls-1" d="M83.79,58.57V37.4l-14-14h-46v80h60v-.14a22.5,22.5,0,0,0,0-44.72Zm-15-29.11,9,9h-9Zm-40,69v-70h35v15h15V58.57a22.5,22.5,0,0,0-11.63,4.86H33.8v5H62.59a23.89,23.89,0,0,0-2.49,5H33.8v5H58.94c-.08.81-.14,1.64-.14,2.48a22.47,22.47,0,0,0,8.37,17.51Zm52.48-.3A17.21,17.21,0,1,1,98.5,80.92,17.24,17.24,0,0,1,81.29,98.13Zm0,0" transform="translate(-23.8 -23.43)"/><rect class="cls-1" x="10" y="30" width="40" height="4.99"/><path class="cls-1" d="M71.29,90.93H78.8l-7.51-7.5Zm2.51-10,12.5-12.5,7.49,7.51-12.5,12.5Zm0,0" transform="translate(-23.8 -23.43)"/></svg>