<svg id="Слой_1" data-name="Слой 1" xmlns="http://www.w3.org/2000/svg" viewBox="0 0 80 80"><defs><style>.cls-1{fill:#0097e8}</style></defs><path class="cls-1" d="M83.79 58.57V37.4l-14-14h-46v80h60v-.14a22.5 22.5 0 0 0 0-44.72zm-15-29.11l9 9h-9zm-40 69v-70h35v15h15v15.11a22.5 22.5 0 0 0-11.63 4.86H33.8v5h28.79a23.89 23.89 0 0 0-2.49 5H33.8v5h25.14c-.08.81-.14 1.64-.14 2.48a22.47 22.47 0 0 0 8.37 17.51zm52.48-.3A17.21 17.21 0 1 1 98.5 80.92a17.24 17.24 0 0 1-17.21 17.21zm0 0" transform="translate(-23.8 -23.43)"/><path class="cls-1" d="M10 30h40v4.99H10z"/><path class="cls-1" d="M71.29 90.93h7.51l-7.51-7.5zm2.51-10l12.5-12.5 7.49 7.51-12.5 12.5zm0 0" transform="translate(-23.8 -23.43)"/></svg>