<svg viewBox="0 0 144 144" xmlns="http://www.w3.org/2000/svg"><g fill="none" fill-rule="evenodd"><path d="M141.846 89.417c-9.62 38.57-48.69 62.046-87.27 52.428C16.012 132.228-7.466 93.16 2.157 54.59 11.771 16.016 50.843-7.462 89.41 2.155c38.575 9.617 62.052 48.688 52.436 87.262z" fill="#F7931A"/><path d="M103.736 61.743c1.433-9.582-5.863-14.731-15.838-18.167l3.235-12.978-7.899-1.97-3.15 12.637a322.75 322.75 0 0 0-6.332-1.49l3.171-12.72-7.894-1.968-3.239 12.976a264.204 264.204 0 0 1-5.045-1.186l.008-.04-10.894-2.72-2.102 8.437s5.861 1.343 5.737 1.427c3.2.799 3.777 2.916 3.681 4.594L53.49 63.36c.22.057.505.136.821.264-.264-.066-.545-.137-.834-.207l-5.166 20.71c-.392.972-1.385 2.43-3.62 1.877.078.114-5.746-1.433-5.746-1.433l-3.92 9.04 10.28 2.564c1.911.479 3.788.979 5.632 1.453l-3.267 13.127 7.891 1.969 3.237-12.987a313.73 313.73 0 0 0 6.298 1.634l-3.226 12.926 7.9 1.969 3.27-13.102c13.473 2.548 23.604 1.52 27.866-10.663 3.437-9.81-.17-15.47-7.258-19.16 5.161-1.19 9.051-4.586 10.088-11.598zm-18.049 25.31c-2.444 9.812-18.96 4.508-24.318 3.177l4.338-17.39c5.355 1.336 22.53 3.982 19.98 14.214zm2.44-25.451c-2.226 8.924-15.975 4.389-20.435 3.277l3.932-15.772c4.46 1.112 18.824 3.187 16.503 12.495z" fill="#FFF"/></g></svg>