<svg viewBox="0 0 328 502" xmlns="http://www.w3.org/2000/svg"><defs><filter x="-50%" y="-50%" width="200%" height="200%" filterUnits="objectBoundingBox" id="a"><feOffset dx="-1" dy="3" in="SourceAlpha" result="shadowOffsetOuter1"/><feGaussianBlur stdDeviation=".5" in="shadowOffsetOuter1" result="shadowBlurOuter1"/><feColorMatrix values="0 0 0 0 0.253253169 0 0 0 0 0.335172461 0 0 0 0 0.39758716 0 0 0 0.688377491 0" in="shadowBlurOuter1" result="shadowMatrixOuter1"/><feMerge><feMergeNode in="shadowMatrixOuter1"/><feMergeNode in="SourceGraphic"/></feMerge></filter></defs><g filter="url(#a)" transform="translate(19 12)" fill="none" fill-rule="evenodd"><path d="M104.448 298.424L0 196.45v122.118h95.532c1.638-7.31 4.731-14.262 8.916-20.145z" fill="#4BAFCE"/><path d="M96.231 339.806H0c2.191 33.417 15.704 63.583 36.703 87.607l67.745-67.014c-3.834-6.323-6.938-13.187-8.217-20.593z" fill="#62B5D0"/><path d="M246.391 219.559c-23.871-20.635-54.485-34.029-88.38-36.382v95.027c7.654 1.449 14.397 4.164 20.228 8.508l68.152-67.153z" fill="#B2D4DF"/><path d="M192.828 358.328l66.831 66.43c19.889-23.33 32.43-52.538 34.94-84.952h-94.067c-1.791 6.946-4.12 13.001-7.704 18.522z" fill="#9EC8D7"/><path d="M201.41 318.569h95.866c-2.19-33.417-15.703-63.583-36.703-87.607l-67.745 67.015a65.825 65.825 0 0 1 8.582 20.592z" fill="#B1D0DA"/><path d="M50.885 441.47c23.872 20.635 54.486 34.03 88.38 36.383v-95.028c-7.654-1.448-14.396-4.163-20.227-8.507l-68.153 67.153z" fill="#77BBD2"/><path d="M160.69 382.825v95.028c33.894-2.172 64.508-15.748 88.38-36.382l-67.424-67.153c-6.56 4.344-13.485 7.06-20.956 8.507z" fill="#8AC1D5"/><path d="M.365 165.296c25.702 25.333 106.453 105.286 119.942 118.761 5.833-3.234 11.849-6.109 18.958-7.546V121.816L0 0c0 .18.365 161.523.365 165.296z" fill="#00587C"/></g></svg>