<svg xmlns="http://www.w3.org/2000/svg" width="512" height="512" viewBox="0 0 128 128"><defs>
<style type="text/css">
    .fil1 {fill:#FEFEFE}
    .fil0 {fill:#727272}
</style>
</defs>
  <path class="fil0" d="M125.29 97.24l0 14.36c-1.65,0.66 -4.33,2.49 -6.03,3.46 -1.14,0.65 -2.14,1.27 -3.09,1.79 -3.93,2.17 -1.95,2.47 -9.32,-1.79 -1.66,-0.97 -4.73,-2.53 -6.03,-3.64l-0.06 -12.11c-4.78,-2.85 -3.32,-2.65 -7.81,-0.2 -1.18,0.64 -7.01,4.05 -7.59,4.09 -1.15,0.07 -9.47,-5.51 -11.18,-6.45 -0.82,-0.46 -0.97,-0.1 -1.75,0.35 -0.65,0.37 -1.35,0.67 -1.9,1.15l-0.45 15.13c-3.76,2.38 -7.98,4.33 -11.69,6.53 -5.52,3.27 -4.6,1.99 -12.33,-2.48 -1.33,-0.77 -2.28,-1.38 -3.84,-2.33 -0.81,-0.49 -3.04,-1.66 -3.76,-2.39l0.24 -14.11 -3.32 -1.85c-2.62,1.62 -5.79,3.36 -8.25,4.69 -1.44,0.78 -2.62,1.4 -4.1,2.28 -4.17,2.5 -3.08,2.02 -8.26,-1.08 -1.84,-1.1 -11.31,-6.96 -12.06,-7.11l0 -21.69 15.61 -8.77c2.06,-1.12 2.22,-1.03 4.14,0.11l7.65 4.68c1.28,0.69 2.93,-0.56 4.03,-1.46l0.04 -22.98c3.26,-2.17 7.28,-4.41 10.67,-6.31 12.88,-7.2 8.93,-7.39 16.5,-3.13l10.95 6.24c1.69,1.01 3.68,2.08 5.34,3.26 0.37,2.4 0.17,8.57 0.06,11.24 -0.14,3.66 -0.06,7.55 -0.03,11.24 0.01,2.56 0.3,2.54 -1.84,3.69 -1.15,0.61 -2.39,1.38 -3.64,2.1 -2.53,1.43 -4.82,2.83 -7.21,4.2 -2.34,1.35 -4.83,2.79 -7.07,4.21 -2.65,1.68 -4.31,-0.28 -7.63,-2.26l-10.75 -6.21c-0.94,-0.54 -2.82,-2.28 -3.71,-0.66 0.5,1.1 2.31,0.43 2.43,3.08 0.09,1.79 -0.26,3.74 -0.28,5.52 -0.06,3.62 -0.24,7.73 -0.05,11.32 0.54,0.16 1.34,0.65 1.82,0.9l7.82 -4.38c1.42,-0.82 2.61,-1.42 3.84,-2.14 4.12,-2.43 3.32,-1.87 8.13,0.97l7.72 4.63c1.5,0.9 1.21,1.31 4.02,-0.49l0.12 -13.45c1.28,-0.84 13.36,-7.74 14.08,-7.86 0.87,-0.14 6.03,3.19 7.06,3.81 2.29,1.37 4.89,2.85 6.96,4.25l-0.02 14.12c5.72,2.6 2.35,3.44 9.62,-0.77 4.3,-2.48 3.4,-2.51 5.49,-1.31l10.71 6.01 0 0z"/>
  <path class="fil1" d="M53.43 116.61c-0.94,-0.06 -9.44,-5.5 -11,-6.24l0.3 -12.66c1.08,0 8.22,4.58 9.68,5.49 1.99,1.23 1.35,1.35 1.24,5.97 -0.05,2.22 0.02,5.25 -0.22,7.44l0 0zm-19.9 -26.31l-0.1 -0.07 0 0.09c0.63,0.39 0.78,0.65 1.61,0.55 -0.05,-3.43 0.55,-12.84 0.24,-14.76 -3.63,-2.08 -6.74,-3.93 -10.31,-6.14 -1.68,-1.05 -4.15,-2.96 -5.31,-2.48l-10.48 5.85c-2.76,1.52 -4.35,1.89 -4.38,3.65 -0.1,5.43 -0.1,10.92 -0.12,16.36l13.74 8.28c1.68,1.09 2.1,0.35 3.58,-0.5 1.32,-0.76 2.46,-1.4 3.51,-1.98l6.88 -3.85c-0.27,-0.57 -0.92,-0.83 -1.44,-1 -0.14,0 -0.3,0.03 -0.48,0.08 -2.18,0.66 -7,4.27 -9.36,4.93 -0.14,0.04 -0.28,0.08 -0.41,0.1 -0.06,-2.83 -0.01,-5.69 -0.01,-8.52 0,-4.33 -0.47,-5.43 1.79,-6.68 1.74,-0.97 3.75,-2.02 5.42,-2.96 1.15,-0.65 4.16,-2.53 5.35,-2.85 0.07,-0.02 0.14,-0.04 0.2,-0.05l0.08 11.95 0 0zm5.99 -40.44l0 -0.28c1.25,0.31 14.47,7.94 15.51,9.1 -0.4,2.25 -0.02,13.36 -0.1,16.85 -0.03,0.01 -0.06,0.01 -0.09,0.01l-0.01 0.24c-0.99,0.11 -5.19,-2.58 -6.1,-3.14 -1.03,-0.62 -5.54,-3.03 -5.94,-3.51l0 0c-0.95,0.09 -1.87,0.82 -2.33,1.25 0.9,0.69 3.22,1.9 4.3,2.5l8.36 4.84c4.09,2.25 1.91,2 12.88,-4.23 1.46,-0.82 7.64,-4.19 8.3,-4.87l-0.05 -21.53c-2.99,-1.67 -6.36,-3.55 -9.24,-5.27 -1.35,-0.8 -8.51,-5.22 -9.3,-5.07 -0.19,0.04 -17.51,9.91 -18.32,10.55l0.05 19.21c0.58,-0.05 1.58,-0.72 2,-1.2l-0.02 -15.48c0.03,0 0.06,0.01 0.1,0.03zm74.18 64.41l-0.06 -9.54c1.26,-0.7 2.57,-1.55 4.04,-2.38 1.16,-0.65 3.21,-2.14 4.5,-2.34 0,1.87 0.02,3.75 0.02,5.62 0,3.68 0.46,3.87 -1.11,4.74 -1.41,0.78 -6.18,3.89 -7.39,3.9l0 0zm-1.25 -9.84l-0.01 9.64c-0.98,-0.05 -7.46,-3.82 -8.56,-4.68l-0.06 -9.62c0.95,0 7.55,4.04 8.63,4.66zm-57.26 12.53c-0.31,-1.46 -0.09,-5.65 -0.05,-7.36 0.08,-3.19 -0.55,-5.03 1.47,-6.16 1.38,-0.77 8.82,-5.09 9.84,-5.25l-0.09 11.14c-0.13,1.63 -0.24,1.66 -1.53,2.35l-9.64 5.28 0 0zm19.89 -35.16l0 -0.27c1.22,0.3 8.51,4.95 9.73,5.8l-0.28 10.99c-0.03,0 -0.06,-0.01 -0.1,-0.02l-0.01 0.26c-0.6,-0.08 -6.34,-3.39 -7.03,-4.15 -0.87,0.3 -0.91,0.22 -1.4,0.89 0.26,0.21 8.84,5.38 9.04,5.42 0.77,0.16 8.71,-4.49 9.23,-4.98 -0.34,-0.36 -0.29,-0.33 -0.71,-0.56 -0.33,-0.04 -0.67,0 -1.03,0.09 -1.9,0.56 -4.18,2.7 -6.04,3.22 -0.13,0.04 -0.27,0.07 -0.4,0.1l-0.02 -9.92c0.04,-1.37 0.34,-1.39 1.32,-1.96 0.89,-0.52 7.89,-4.45 8.48,-4.56 0.05,-0.02 0.09,-0.03 0.11,-0.03 0.08,1.4 -0.22,8.14 0.29,9.26 0,0.01 0.32,0.33 0.37,0.39l0 0c0.36,-0.06 0.28,-0.1 0.58,-0.21l0.22 -11.16 -9.01 -5.37c-0.59,-0.36 -2.21,-1.6 -2.96,-1.47l-11.84 6.74 -0.19 10.65c0.6,0.08 0.66,-0.11 1.17,-0.41 0.34,-0.59 0.39,-7.48 0.38,-8.77 0.03,0.01 0.07,0.02 0.1,0.03z"/>
  <path class="fil0" d="M57.05 75.67c-0.01,-1.66 0.07,-3.46 -0.01,-5.09l-0.17 -9.92c-0.02,-2.52 0.18,-2.28 1.93,-3.33l9.89 -5.74c0.7,-0.39 1.09,-0.58 1.72,-0.93 0.81,-0.45 1.06,-0.75 1.88,-0.87l0 15.27c0.03,2.82 0.01,2.18 -2.02,3.32 -1.99,1.11 -11.92,7.16 -13.22,7.29zm-38.16 23.57c-1.88,-0.28 -9.62,-5.93 -12.38,-6.97l0.17 -14.51c1.31,0.17 9.26,5.25 10.92,6.26 1.33,0.8 1.57,0.59 1.55,2.65l-0.26 12.57 0 0z"/>
  </svg>