<svg xmlns="http://www.w3.org/2000/svg" width="512" height="512" viewBox="0 0 128 128"><defs><style type="text/css">  
    .fil0 {fill:#6F6F6F}
    .fil2 {fill:#878787}
    .fil1 {fill:#B1B1B1}
   </style></defs><path class="fil0" d="M127.2 88.9l0 14.9c-1.7 0.7-4.5 2.6-6.2 3.6-1.2 0.7-2.2 1.3-3.2 1.9-4.1 2.3-2 2.6-9.6-1.8-1.7-1-4.9-2.6-6.2-3.8l-0.1-12.5c-4.9-2.9-3.4-2.7-8.1-0.2-1.2 0.7-7.2 4.2-7.8 4.2-1.2 0.1-9.8-5.7-11.6-6.7-0.8-0.5-1-0.1-1.8 0.4-0.7 0.4-1.4 0.7-2 1.2l-0.5 15.7c-3.9 2.5-8.2 4.5-12.1 6.8-5.7 3.4-4.8 2.1-12.7-2.6-1.4-0.8-2.4-1.4-4-2.4-0.8-0.5-3.1-1.7-3.9-2.5l0.2-14.6-3.4-1.9c-2.7 1.7-6 3.5-8.5 4.9-1.5 0.8-2.7 1.5-4.2 2.4-4.3 2.6-3.2 2.1-8.5-1.1-1.9-1.1-11.7-7.2-12.5-7.3l0-22.4 16.2-9.1c2.1-1.2 2.3-1.1 4.3 0.1l7.9 4.8c1.3 0.7 3-0.6 4.2-1.5l0-23.8c3.4-2.2 7.5-4.6 11-6.5 13.3-7.4 9.2-7.6 17.1-3.2l11.3 6.5c1.7 1.1 3.8 2.2 5.5 3.4 0.4 2.5 0.2 8.9 0.1 11.6-0.1 3.8-0.1 7.8 0 11.6 0 2.6 0.3 2.6-1.9 3.8-1.2 0.6-2.5 1.4-3.8 2.2-2.6 1.5-5 2.9-7.5 4.4-2.4 1.4-5 2.9-7.3 4.4-2.7 1.7-4.4-0.3-7.9-2.3l-11.1-6.4c-1-0.6-2.9-2.4-3.8-0.7 0.5 1.1 2.4 0.4 2.5 3.2 0.1 1.9-0.3 3.9-0.3 5.7-0.1 3.8-0.2 8 0 11.7 0.6 0.2 1.4 0.7 1.9 0.9l8.1-4.5c1.5-0.8 2.7-1.5 4-2.2 4.3-2.5 3.4-1.9 8.4 1l8 4.8c1.6 0.9 1.3 1.4 4.2-0.5l0.1-13.9c1.3-0.9 13.8-8 14.6-8.1 0.9-0.1 6.2 3.3 7.3 3.9 2.4 1.4 5.1 3 7.2 4.4l0 14.6c5.9 2.7 2.4 3.6 10-0.8 4.5-2.6 3.5-2.6 5.7-1.4l11.1 6.2zm-85.3-29.1c0.4 0.5 5.1 3 6.2 3.6 0.9 0.6 5.3 3.4 6.3 3.2 0.1-3.6-0.3-15.1 0.1-17.4-1.1-1.2-14.7-9.1-16-9.4l0 16c-0.4 0.5-1.5 1.2-2.1 1.2l0-19.9c0.8-0.7 18.8-10.9 19-10.9 0.8-0.2 8.2 4.4 9.6 5.2 3 1.8 6.5 3.7 9.6 5.5l0.1 22.3c-0.7 0.7-7.1 4.2-8.6 5-11.3 6.4-9.1 6.7-13.3 4.4l-8.6-5c-1.1-0.6-3.5-1.9-4.4-2.6 0.5-0.4 1.4-1.2 2.4-1.3zm26.1 28.1l-0.3 16.1c-0.6 0.5-13.3 7.7-14 7.7-0.7-0.1-12.3-7.3-13.7-8.1 0.1-4.8 0.2-9.6 0.2-14.6 0-1.6 0.2-1.6 1.4-2.2l7.4-4c1.1-0.6 4.2-2.5 4.8-2.7 1.2-0.4 4.1 1.8 5 2.3 3.3 2 6 3.7 9.3 5.6zm-35.8-6.2l-0.1-12.3c-1.1 0.2-4.4 2.3-5.6 3-1.7 1-3.8 2.1-5.6 3.1-2.3 1.3-1.8 2.4-1.8 6.9 0 2.9 0 5.9 0 8.8 2.5-0.4 8.7-5.3 10.6-5.3 0.5 0.2 1.2 0.4 1.5 1l-7.1 4c-1.1 0.6-2.3 1.3-3.6 2.1-1.5 0.9-2 1.7-3.7 0.5l-14.2-8.6c0-5.6 0-11.3 0.1-16.9 0-1.8 1.7-2.2 4.5-3.8l10.8-6c1.2-0.5 3.8 1.5 5.5 2.6 3.7 2.3 6.9 4.2 10.7 6.4 0.3 2-0.3 11.7-0.2 15.3-0.9 0.1-1-0.2-1.7-0.6zm92.9 8.3l0 12.6c-0.7 0.4-9.9 5.9-10.5 5.9-1 0-8.9-5.2-10.7-5.9l0-12.6c1.1-0.7 10.1-5.9 10.6-5.9 0.7 0 10.1 5.5 10.7 5.9zm-27.6-6.8l-0.3-0.3c0 0-0.1-0.1-0.1-0.1-0.7-1-0.3-8-0.4-9.5-0.5 0.1-7.9 4.2-8.8 4.7-1 0.6-1.3 0.6-1.4 2l0 10.3c2.4-0.4 5.5-3.8 7.7-3.5 0.4 0.2 0.4 0.2 0.7 0.6-0.5 0.5-8.7 5.3-9.5 5.2-0.2 0-9.1-5.4-9.3-5.6 0.5-0.7 0.6-0.6 1.5-0.9 0.7 0.8 6.7 4.2 7.3 4.3l0.3-11.4c-1.3-0.9-8.8-5.7-10.1-6 0 1.3 0 8.5-0.4 9.1-0.5 0.3-0.6 0.5-1.2 0.4l0.2-11 12.3-7c0.8-0.1 2.5 1.1 3.1 1.5l9.3 5.6-0.2 11.5c-0.3 0.1-0.2 0.2-0.6 0.2z"/><path class="fil1" d="M32.3 81.7c-2.9-1.8-6-4.1-7.5-1.6-1.8 3 3 4.2 4.6 5.5l0.3 0.3c-1.9 0-8.1 4.8-10.6 5.3 0-2.9 0-5.9 0-8.8 0-4.5-0.5-5.6 1.9-6.9 1.8-1 3.9-2.1 5.6-3.1 1.2-0.7 4.5-2.7 5.6-3l0.1 12.4zm82.9 24.8l-0.1-9.9c1.3-0.7 2.7-1.6 4.2-2.5 1.2-0.7 3.3-2.2 4.7-2.4 0 1.9 0 3.9 0 5.8 0 3.8 0.5 4-1.1 4.9-1.5 0.8-6.4 4-7.6 4zm-60.5 2.8c-0.3-1.5-0.1-5.8 0-7.6 0.1-3.3-0.6-5.2 1.5-6.4 1.4-0.8 9.1-5.3 10.2-5.4l-0.1 11.5c-0.1 1.7-0.2 1.7-1.6 2.4l-10 5.5zm1.9-42.7c0-1.7 0.1-3.6 0-5.3l-0.2-10.3c0-2.6 0.2-2.3 2-3.4l10.2-5.9c0.7-0.4 1.1-0.6 1.8-1 0.8-0.5 1.1-0.8 1.9-0.9l0 15.8c0 2.9 0 2.3-2.1 3.4-2.1 1.2-12.3 7.4-13.7 7.5zm41 16.6c-1.6-0.6-5.3-4.5-7.4-2.4-1.1 1.1-0.8 3 0.6 3.8 0.7 0.4 1.2 0.7 1.8 1l1.9 1.1c-2.2-0.3-5.4 3.1-7.7 3.5l0-10.3c0-1.4 0.4-1.4 1.4-2 0.9-0.5 8.3-4.7 8.8-4.7 0.1 1.5-0.4 8.4 0.4 9.5 0 0.1 0.1 0.1 0.1 0.2l0.3 0.3z"/><path class="fil2" d="M114 96.3l0 10c-1 0-7.7-3.9-8.8-4.8l-0.1-9.9c1 0 7.8 4.2 8.9 4.8zm-96.8-5.4c-1.9-0.3-9.9-6.1-12.8-7.2l0.2-15c1.4 0.2 9.6 5.4 11.3 6.5 1.4 0.8 1.6 0.6 1.6 2.8l-0.3 13zm24.8-31.4c0.9-1.5 7.7-2.8 5-6.2-2.2-2.7-6.2 1.7-8.4 2.2l0-16c1.3 0.3 15 8.2 16 9.4-0.4 2.3 0 13.8-0.1 17.4-1 0.1-5.4-2.7-6.3-3.2-1.1-0.6-5.7-3.1-6.1-3.6zm35.8 26.1c1.1-0.9 1.9-1.1 3.3-2 1.4-0.8 1.7-2.3 0.9-3.5-1.7-2.6-5.3 0.7-7.1 1.5 0.4-0.6 0.4-7.7 0.4-9.1 1.3 0.3 8.8 5.1 10.1 6l-0.3 11.4c-0.6-0.1-6.6-3.5-7.3-4.3zm-24.9 23.2c-1-0.1-9.8-5.7-11.4-6.4l0.3-13.1c1.1 0 8.5 4.7 10 5.7 2.1 1.3 1.4 1.4 1.3 6.2-0.1 2.3 0 5.4-0.2 7.7z"/></svg>