<svg xmlns="http://www.w3.org/2000/svg" viewBox="0 0 128 128"><defs><style>.fil0{fill:#727272}</style></defs><path class="fil0" d="M125.29 97.24v14.36c-1.65.66-4.33 2.49-6.03 3.46-1.14.65-2.14 1.27-3.09 1.79-3.93 2.17-1.95 2.47-9.32-1.79-1.66-.97-4.73-2.53-6.03-3.64l-.06-12.11c-4.78-2.85-3.32-2.65-7.81-.2-1.18.64-7.01 4.05-7.59 4.09-1.15.07-9.47-5.51-11.18-6.45-.82-.46-.97-.1-1.75.35-.65.37-1.35.67-1.9 1.15l-.45 15.13c-3.76 2.38-7.98 4.33-11.69 6.53-5.52 3.27-4.6 1.99-12.33-2.48-1.33-.77-2.28-1.38-3.84-2.33-.81-.49-3.04-1.66-3.76-2.39l.24-14.11-3.32-1.85c-2.62 1.62-5.79 3.36-8.25 4.69-1.44.78-2.62 1.4-4.1 2.28-4.17 2.5-3.08 2.02-8.26-1.08-1.84-1.1-11.31-6.96-12.06-7.11V73.84l15.61-8.77c2.06-1.12 2.22-1.03 4.14.11l7.65 4.68c1.28.69 2.93-.56 4.03-1.46l.04-22.98c3.26-2.17 7.28-4.41 10.67-6.31 12.88-7.2 8.93-7.39 16.5-3.13l10.95 6.24c1.69 1.01 3.68 2.08 5.34 3.26.37 2.4.17 8.57.06 11.24-.14 3.66-.06 7.55-.03 11.24.01 2.56.3 2.54-1.84 3.69-1.15.61-2.39 1.38-3.64 2.1-2.53 1.43-4.82 2.83-7.21 4.2-2.34 1.35-4.83 2.79-7.07 4.21-2.65 1.68-4.31-.28-7.63-2.26l-10.75-6.21c-.94-.54-2.82-2.28-3.71-.66.5 1.1 2.31.43 2.43 3.08.09 1.79-.26 3.74-.28 5.52-.06 3.62-.24 7.73-.05 11.32.54.16 1.34.65 1.82.9l7.82-4.38c1.42-.82 2.61-1.42 3.84-2.14 4.12-2.43 3.32-1.87 8.13.97l7.72 4.63c1.5.9 1.21 1.31 4.02-.49l.12-13.45c1.28-.84 13.36-7.74 14.08-7.86.87-.14 6.03 3.19 7.06 3.81 2.29 1.37 4.89 2.85 6.96 4.25l-.02 14.12c5.72 2.6 2.35 3.44 9.62-.77 4.3-2.48 3.4-2.51 5.49-1.31l10.71 6.01z"/><path d="M53.43 116.61c-.94-.06-9.44-5.5-11-6.24l.3-12.66c1.08 0 8.22 4.58 9.68 5.49 1.99 1.23 1.35 1.35 1.24 5.97-.05 2.22.02 5.25-.22 7.44zM33.53 90.3l-.1-.07v.09c.63.39.78.65 1.61.55-.05-3.43.55-12.84.24-14.76a337.11 337.11 0 0 1-10.31-6.14c-1.68-1.05-4.15-2.96-5.31-2.48L9.18 73.34c-2.76 1.52-4.35 1.89-4.38 3.65-.1 5.43-.1 10.92-.12 16.36l13.74 8.28c1.68 1.09 2.1.35 3.58-.5 1.32-.76 2.46-1.4 3.51-1.98l6.88-3.85c-.27-.57-.92-.83-1.44-1-.14 0-.3.03-.48.08-2.18.66-7 4.27-9.36 4.93-.14.04-.28.08-.41.1-.06-2.83-.01-5.69-.01-8.52 0-4.33-.47-5.43 1.79-6.68 1.74-.97 3.75-2.02 5.42-2.96 1.15-.65 4.16-2.53 5.35-2.85.07-.02.14-.04.2-.05l.08 11.95zm5.99-40.44v-.28c1.25.31 14.47 7.94 15.51 9.1-.4 2.25-.02 13.36-.1 16.85-.03.01-.06.01-.09.01l-.01.24c-.99.11-5.19-2.58-6.1-3.14-1.03-.62-5.54-3.03-5.94-3.51-.95.09-1.87.82-2.33 1.25.9.69 3.22 1.9 4.3 2.5l8.36 4.84c4.09 2.25 1.91 2 12.88-4.23 1.46-.82 7.64-4.19 8.3-4.87l-.05-21.53c-2.99-1.67-6.36-3.55-9.24-5.27-1.35-.8-8.51-5.22-9.3-5.07-.19.04-17.51 9.91-18.32 10.55l.05 19.21c.58-.05 1.58-.72 2-1.2l-.02-15.48c.03 0 .06.01.1.03zm74.18 64.41l-.06-9.54c1.26-.7 2.57-1.55 4.04-2.38 1.16-.65 3.21-2.14 4.5-2.34 0 1.87.02 3.75.02 5.62 0 3.68.46 3.87-1.11 4.74-1.41.78-6.18 3.89-7.39 3.9zm-1.25-9.84l-.01 9.64c-.98-.05-7.46-3.82-8.56-4.68l-.06-9.62c.95 0 7.55 4.04 8.63 4.66zm-57.26 12.53c-.31-1.46-.09-5.65-.05-7.36.08-3.19-.55-5.03 1.47-6.16 1.38-.77 8.82-5.09 9.84-5.25l-.09 11.14c-.13 1.63-.24 1.66-1.53 2.35l-9.64 5.28zM75.08 81.8v-.27c1.22.3 8.51 4.95 9.73 5.8l-.28 10.99c-.03 0-.06-.01-.1-.02l-.01.26c-.6-.08-6.34-3.39-7.03-4.15-.87.3-.91.22-1.4.89.26.21 8.84 5.38 9.04 5.42.77.16 8.71-4.49 9.23-4.98-.34-.36-.29-.33-.71-.56-.33-.04-.67 0-1.03.09-1.9.56-4.18 2.7-6.04 3.22-.13.04-.27.07-.4.1l-.02-9.92c.04-1.37.34-1.39 1.32-1.96.89-.52 7.89-4.45 8.48-4.56.05-.02.09-.03.11-.03.08 1.4-.22 8.14.29 9.26 0 .01.32.33.37.39.36-.06.28-.1.58-.21l.22-11.16-9.01-5.37c-.59-.36-2.21-1.6-2.96-1.47L73.62 80.3l-.19 10.65c.6.08.66-.11 1.17-.41.34-.59.39-7.48.38-8.77l.1.03z" fill="#fefefe"/><path class="fil0" d="M57.05 75.67c-.01-1.66.07-3.46-.01-5.09l-.17-9.92c-.02-2.52.18-2.28 1.93-3.33l9.89-5.74c.7-.39 1.09-.58 1.72-.93.81-.45 1.06-.75 1.88-.87v15.27c.03 2.82.01 2.18-2.02 3.32-1.99 1.11-11.92 7.16-13.22 7.29zM18.89 99.24c-1.88-.28-9.62-5.93-12.38-6.97l.17-14.51c1.31.17 9.26 5.25 10.92 6.26 1.33.8 1.57.59 1.55 2.65l-.26 12.57z"/></svg>