<?xml version="1.0" ?><!DOCTYPE svg  PUBLIC '-//W3C//DTD SVG 1.1//EN'  'http://www.w3.org/Graphics/SVG/1.1/DTD/svg11.dtd'>
<svg enable-background="new 0 0 33 33" height="33px" version="1.1" viewBox="0 0 33 33" width="33px" xml:space="preserve" xmlns="http://www.w3.org/2000/svg" xmlns:xlink="http://www.w3.org/1999/xlink">
    <g id="Chevron_Up_Circle">
        <circle cx="16" cy="16" r="15" stroke="#121313" fill="none" />
        <!-- path d="M16,0C7.163,0,0,7.164,0,16c0,8.837,7.163,16,16,16c8.836,0,16-7.163,16-16C32,7.164,24.836,0,16,0z M16,30   C8.28,30,1.969,23.72,1.969,16C1.969,8.28,8.28,2,16,2c7.72,0,14,6.28,14,14C30,23.72,23.72,30,16,30z" fill="#121313"/> -->
        <path d="M16.699,11.293c-0.384-0.38-1.044-0.381-1.429,0l-6.999,6.899c-0.394,0.391-0.394,1.024,0,1.414   c0.395,0.391,1.034,0.391,1.429,0l6.285-6.195l6.285,6.196c0.394,0.391,1.034,0.391,1.429,0c0.394-0.391,0.394-1.024,0-1.414   L16.699,11.293z" fill="#121313"/>
    </g>
</svg>
