<svg xmlns="http://www.w3.org/2000/svg" xmlns:xlink="http://www.w3.org/1999/xlink" version="1.1" id="Layer_1" x="0px" y="0px" viewBox="0 0 28 29" enable-background="new 0 0 28 29" xml:space="preserve"><g><g id="steem"><path id="Fill-1" fill="#1A5099" d="M13 11.9c-0.2-0.1-2.6 2-2.6 3.4 0 2 3 6.5 3.5 8.3 0.4 1.5-0.6 3.3-0.3 3.4 0.3 0.2 2.9-2.6 2.9-3.7 0.1-1.8-3.2-7.1-3.5-8.4C12.7 13.3 13.2 11.9 13 11.9L13 11.9 13 11.9z"/><path id="Fill-2" fill="#4BA2F2" d="M19 9.7c-0.2-0.1-3.3 2.5-3.3 4.4 0 2.6 3.8 8.3 4.4 10.6 0.6 1.9-0.8 4.3-0.4 4.4 0.4 0.2 3.7-3.2 3.8-4.7 0.1-2.3-4.1-9-4.5-10.7C18.6 11.5 19.3 9.7 19 9.7L19 9.7 19 9.7z"/><path id="Fill-3" fill="#1A5099" d="M25.3 11.7c-0.2-0.1-2.6 2-2.6 3.4 0 2 3 6.5 3.5 8.3 0.4 1.5-0.6 3.3-0.3 3.4 0.3 0.2 2.9-2.6 3-3.7 0.1-1.8-3.2-7.1-3.5-8.4C25 13.1 25.5 11.7 25.3 11.7L25.3 11.7z"/></g></g><g id="layer1" transform="translate(-8.9025329,-24.385462)"><path id="path1309" fill="#D00000" stroke="#000000" stroke-width="0.5" d="M24.1 24.7c-1.9 0.5-3.9 1.6-5.2 2.6 -1.4 1-5 3.5-5.8 4.4 -0.8 0.8-1.7 1.1-2.1 2 -0.2 0.4 1.1 1.5 1.3 1.6 0.6 0.3 1.6-0.2 2.1-0.3 1.5-0.1 3.1-0.3 4.6 0.7 -0.3 0.3 0.2 0-0.4 2.5 -0.2 0.9-0.6 3.2-0.1 3.6 0.5 0.4 0.9-1.3 1.4-1 0 0 0 0 0 0 0 0 0 0 0 0 0 0 0 0 0 0l0 0c0 0 0 0 0 0h0c0 0 0 0 0 0l0 0c0.3-0.1 2.3-0.9 4.1-0.6 1 0.2 2.7-0.4 3.6-0.6 1.5-0.5 3.6-0.9 4.9-0.9 1 0 1.9-0.6 2.8-0.6 0.6 0 0-1.8 0-2 -0.1-0.9-1.2-2.3-1.8-3.6 -0.6-1.2-1.6-2.8-2.6-4.1 -1.1-1.2-2.5-2.8-3.6-3.3C26.4 24.5 26.2 24.1 24.1 24.7z"/><path id="path5882" opacity="0.1011" fill="#0E0000" enable-background="new    " d="M19.6 29c-1.2 0.3-2.3 4.2-3.8 4.9 -1 0.4-3.7 1.1-3.5 1.2 0.6 0.3 1.6-0.2 2.1-0.3 1.5-0.1 3.1-0.3 4.6 0.7 -0.3 0.3 0.2 0-0.4 2.5 -0.2 0.9-0.6 3.2-0.1 3.6 0.5 0.4 0.9-1.3 1.4-1 0 0 0 0 0 0 0 0 0 0 0 0 0 0 0 0 0 0l0 0c0 0 0 0 0 0h0c0 0 0 0 0 0l0 0c0.3-0.1 2.3-0.9 4.1-0.6 1 0.2 2.7-0.4 3.6-0.6 1.5-0.5 3.6-0.9 4.9-0.9 1 0 1.9-0.6 2.8-0.6 0.6 0-3.5 0.3-1.9-0.8 0.7-0.5-7.1 1.1-10.1-2.4C20.4 31.4 20.8 28.7 19.6 29z"/><path id="path5878" opacity="0.2697" stroke="#000000" stroke-width="0.5" enable-background="new    " d="M11.1 33.2c0.2 0.2 1.9 2.2 2 2.1 0-0.2-0.2-0.3-0.3-0.3 0.2-0.2 0.2-0.5-0.1-0.5 -0.3-0.1-0.7-0.1-0.3-0.5 0.2-0.2 0-0.6-0.1-0.8 -0.3-0.1-0.5-0.4-0.6-0.6"/><path id="path5003" opacity="0.294" stroke="#000000" stroke-width="0.5" enable-background="new    " d="M33 37.6c-0.5-0.2-1.1-0.4-1.6-0.4 -0.3-0.3-0.5 0.1-0.8 0.1 0-0.5-0.8 0.2-1.1 0.2 -0.2 0.1-0.1-0.4-0.5-0.2 -0.5 0-0.8 0.1-1.2 0.2 -0.1 0.5-0.9 0.8-1 0.3 -0.4 0.2-1.3 0.6-1.3 0 -0.7 0.6-0.7 1.1-1.4 1.3 0.1-0.5-1.5-0.7-1.7-0.2 -0.4 0.2 0.1-0.6-0.5-0.4 -0.7-0.2-0.3 1.2-1.7 0.6 -0.8 0-0.4 1.1-0.9 1.6 -0.1 0.5-0.8-0.2-1-0.1 0.1 0.8 0.2 0.5 0 1.1 -0.1 0.7-0.3 1 0.5 1.2 0.2-0.3 0-0.2 0 0.4 0.4-0.1 1-0.9 1-0.1C20 42.7 21 42.5 21 42c0.5 0 1 0.6 1.4-0.1 0.4-0.5 1-0.7 1-0.3 0.5 0.5 0.5 0.4 1 0.2 -0.1-0.6 1.2 0 0.5-0.6 0.3-0.3 1-0.4 1.5-0.3 0.4 0.6 1.6 0.6 1.7-0.1 0-0.6 0.9-0.8 1.3-0.4 0.6-0.5 1.5 0.2 2-0.2 -0.4-0.6 0.6-1 0.8-0.5 0.4-0.2 0.8-1 1.2-0.4 0.5-0.2 1.1-0.4 1.5-0.6 0.3 0.5 1.1 0 0.8-0.6 -0.2-0.4 0.6 0.2 0.4-0.4 -0.3-0.6-0.6-1.5-1-1.4 -0.6-0.1-1 0.3-1 0.8 0-0.4-0.7 0-1.1 0.1l-0.2 0 -0.2-0.2"/><path id="path1307" fill="#FFFFFF" stroke="#000000" stroke-width="0.5" d="M33.3 37.7c-0.5-0.2-1-0.2-1.4-0.2 -0.3-0.3-0.7-0.2-0.9-0.1 0-0.5-0.6 0.4-1 0.4 -0.2 0.1-0.1-0.4-0.5-0.2 -0.5 0-1.1-0.3-1.5-0.1 -0.1 0.5-0.9 0.8-1 0.3 -0.4 0.2-1 0.9-1 0.3 -0.8 0-1.2 0.8-1.9 1.1 0.1-0.5-1.1-0.5-1.3 0 -0.4 0.2-0.1-0.9-0.7-0.7 -0.7-0.2-0.7 1.2-1.5 0.9 -0.8 0-0.7 0.8-1.2 1.3 -0.1 0.5-0.4 0.2-0.7 0.2 0.4 0.6-1.2 0.5-0.8 1.3 -0.1 0.7 0.1 1.2 0.8 1.3 0.2-0.3 0.5-0.6 0.5 0 0.4-0.1 1-0.9 1-0.1 0.3-0.5 1.2-0.7 1.2-1.2 0.5 0 1 0.6 1.4-0.1 0.4-0.5 0.5-0.1 0.5 0.3 0.5 0.5 1-0.2 1.6-0.4 -0.1-0.6 1.2 0 0.5-0.6 0.3-0.3 1-0.4 1.5-0.3 0.4 0.4 1.6 0.6 1.7-0.1 0-0.6 0.9-0.8 1.3-0.4 0.6-0.5 1.5 0.2 2-0.2 -0.4-0.6 0.6-1 0.8-0.5 0.4-0.2 0.8-1 1.2-0.4 0.5-0.2 1.1-0.4 1.5-0.6 0.3 0.5 1.1 0 0.8-0.6 -0.2-0.4 0.6 0.2 0.4-0.4 0-0.7-0.2-1.7-1-1.4 -0.6-0.1-1 0.3-1 0.8 0-0.4-0.9-0.3-1.3-0.1l-0.1 0.1L33 37.5"/><path id="path3126" fill="none" stroke="#000000" stroke-width="0.5" d="M18.8 37c0.2-2.8 1.6-4 1.4-6.2 -0.1-1.3-1.3-0.3-0.9 0.9"/><path id="path3249" opacity="0.1124" enable-background="new    " d="M19.4 40.7c-0.1 0.5-0.4 0.2-0.7 0.2 0.4 0.6-1.2 0.5-0.8 1.3 -0.1 0.7 0.1 1.2 0.8 1.3 0.2-0.3 0.5-0.6 0.5 0 0.4-0.1 1-0.9 1-0.1 0.3-0.5 1.2-0.7 1.2-1.2 0.5 0 1 0.5 1.4-0.1 0.4-0.5 0.5 0 0.5 0.4 0.5 0.5 1-0.2 1.6-0.4 -0.1-0.6 0.6-0.1 0.5-0.6 -0.1-0.3 2.3-0.2 1.9-0.6 -1-1-2.6 0.5-2.8 0.4 -0.2-0.1-0.5 0-0.2-0.2 0.3-0.1-0.5 0.1-1.1-0.1 -0.6-0.2-1.1 0.1-1.2 0.6 -0.5-0.3-0.5 0-1.3 0.3 0.5-0.7-0.9-0.2-0.9-0.2s0.2-0.8-0.2-0.7c0.2-0.4 0-0.5 0-0.5S19.9 40.3 19.4 40.7z"/><path id="path2251" fill="#FFFFFF" stroke="#000000" stroke-width="0.5" d="M11.4 32.6c-0.1-0.2-0.4-0.2-0.4-0.3 0.1-0.2-0.2 0-0.2-0.1 -0.3 0.2-0.7 0.3-0.9 0.7 0.1 0 0.1-0.2 0-0.1 -0.2 0.1-0.5 0.3-0.4 0.6 0 0.1-0.2 0.3 0.1 0.3 0 0.2-0.4 0.2-0.4 0.4 0.1 0.2 0 0.5-0.1 0.6C8.9 34.9 9 35.1 9 35.3c-0.1 0.1-0.1 0.3 0 0.4 0 0.2 0.2 0.4 0.2 0.6 0.1 0.1 0.3 0.1 0.3 0.3 0.3 0 0.3 0.4 0.5 0.4 0.2 0.1 0.4 0 0.6 0.1 0.2 0.1 0.3 0.2 0.5 0.2 0.2 0.2 0.3-0.2 0.5-0.4 0-0.2 0.1-0.2 0.2 0 0.2 0.1 0.4-0.1 0.6-0.2 0.1-0.2 0.3-0.3 0.5-0.4 0.2-0.3 0.3-0.6 0.3-1 0-0.2-0.2-0.2-0.3-0.3 0.1-0.2 0.2-0.4-0.1-0.5 -0.2 0-0.6-0.2-0.3-0.4 0.2-0.2-0.1-0.5-0.2-0.6 -0.2-0.1-0.3-0.3-0.4-0.5C11.7 33 11.5 32.8 11.4 32.6 11.4 32.4 11.5 32.6 11.4 32.6"/><path id="path4128" opacity="9.550560e-02" enable-background="new    " d="M9.7 35c-0.1-0.1 0.3-0.1 0.3-0.2 0.1-0.2 0-0.2-0.1-0.2 -0.3 0.2-0.2-0.3-0.4 0 0.1 0 0.1-0.4 0-0.3 -0.2 0.1-0.2-0.4-0.2-0.2 0.1 0.2 0 0.5-0.1 0.6C8.9 34.9 9 35.1 9 35.3c-0.1 0.1-0.1 0.3 0 0.4 0 0.2 0.2 0.4 0.2 0.6 0.1 0.1 0.3 0.1 0.3 0.3 0.3 0 0.3 0.4 0.5 0.4 0.2 0.1 0.4 0 0.6 0.1 0.2 0.1 0.3 0.2 0.5 0.2 0.2 0.2 0.3-0.2 0.5-0.4 0-0.2 0.1-0.2 0.2 0 0.2 0.1 0.4-0.1 0.6-0.2 0.1-0.2-0.6 0-0.4-0.1 0.2-0.3-0.5 0.4-0.5 0 0-0.2-0.8 0.3-0.7-0.1 0.1-0.2 0.1 0-0.2-0.1 -0.2 0-0.7-0.4-0.4-0.6 0.2-0.2-0.1 0-0.2-0.1 -0.2-0.1-0.1-0.1-0.2-0.2 -0.2 0-0.1-0.1-0.2-0.4C9.6 35.4 9.6 34.9 9.7 35z"/><path id="path5880" fill-opacity="0.2235" d="M18.9 35.7c0 0 0.9-2.3 1.1-3.2 0.2-0.8 0.2-2.1-0.1-2.4s-0.7 0.2-0.7 0.7c0 0.5-0.1 0.6 0.1 1.5 0.1 0.4 0 1.4-0.1 1.9C19.1 34.8 18.8 35.8 18.9 35.7z"/></g></svg>