<?xml version="1.0" encoding="UTF-8" standalone="no"?>
<svg width="13px" height="13px" viewBox="0 0 13 13" version="1.1" xmlns="http://www.w3.org/2000/svg" xmlns:xlink="http://www.w3.org/1999/xlink">
    <!-- Generator: sketchtool 46.2 (44496) - http://www.bohemiancoding.com/sketch -->
    <title>9F57AE89-DA59-4ECD-9D7F-65D1F650028B</title>
    <desc>Created with sketchtool.</desc>
    <defs></defs>
    <g id="Elements" stroke="none" stroke-width="1" fill="none" fill-rule="evenodd">
        <g id="icons_2" transform="translate(-267.000000, -358.000000)" fill-rule="nonzero" fill="#E1E1E1">
            <path d="M273.5,363.478624 L268.23291,358.211534 C267.950865,357.929489 267.493579,357.929489 267.211534,358.211534 C266.929489,358.493579 266.929489,358.950865 267.211534,359.23291 L272.478624,364.5 L267.211534,369.76709 C266.929489,370.049135 266.929489,370.506421 267.211534,370.788466 C267.493579,371.070511 267.950865,371.070511 268.23291,370.788466 L273.5,365.521376 L278.76709,370.788466 C279.049135,371.070511 279.506421,371.070511 279.788466,370.788466 C280.070511,370.506421 280.070511,370.049135 279.788466,369.76709 L274.521376,364.5 L279.788466,359.23291 C280.070511,358.950865 280.070511,358.493579 279.788466,358.211534 C279.506421,357.929489 279.049135,357.929489 278.76709,358.211534 L273.5,363.478624 Z" id="ic_cross_medium"></path>
        </g>
    </g>
</svg>