<svg viewBox="0 0 142 228" xmlns="http://www.w3.org/2000/svg"><g fill="none" fill-rule="evenodd"><path d="M68.553 157V86.977L.158 116.937zm0-74.837V-.056L2.362 111.156zM72.962-.09v82.253l67.121 29.403zm0 87.067v70.025l68.443-40.045zm-4.409 140.429v-56.321L.618 131.31zm4.409 0l67.935-96.096-67.935 39.775z" fill="#231F20"/><path d="M3.674 109.995c0-.141 14.162-24.055 31.472-53.142C52.456 27.765 66.97 3.355 67.403 2.608c.6-1.037.75 8.212.633 39.03l-.152 40.39-26.84 11.749c-14.761 6.461-29.208 12.812-32.105 14.112-2.896 1.3-5.265 2.248-5.265 2.106z" fill="#A0A0A0"/><path d="M5.033 108.745c0-.19 12.586-21.55 27.97-47.466 15.383-25.916 29.372-49.51 31.085-52.433l3.116-5.313.176 38.907c.096 21.4-.057 39.115-.34 39.368-.416.371-57.783 25.662-61.075 26.925-.513.197-.932.202-.932.012z" fill="#8A92B2"/><path d="M34.896 136.826C16.68 126.163 1.773 117.258 1.772 117.037c-.001-.547 65.915-29.374 66.296-28.993.167.167.225 15.573.128 34.236l-.176 33.933-33.124-19.387z" fill="#62688F"/><path d="M73.116 122.164c0-18.855.227-34.282.504-34.282.962 0 66.084 28.754 66.084 29.179 0 .353-21.074 12.837-59.944 35.509l-6.644 3.875v-34.281z" fill="#454A75"/><path d="M105.713 96.085L73.455 81.944l-.151-40.348-.152-40.347 1.705 2.718c6.797 10.83 63.57 105.803 63.368 106.005-.14.14-14.77-6.11-32.512-13.887z" fill="#6A6F95"/><path d="M35.514 179.974c-17.877-25.296-32.388-46.11-32.245-46.253.263-.264 63.56 36.613 64.56 37.613.3.3.466 12.716.368 27.59l-.177 27.045-32.506-45.995z" fill="#8A92B2"/><path d="M73.302 198.701l.153-27.453 32.256-18.884c17.74-10.385 32.375-18.764 32.52-18.619.21.21-59.992 85.811-64.033 91.05-.95 1.23-1.034-1.238-.896-26.094z" fill="#62688F"/></g></svg>