<svg viewBox="0 0 30 30" xmlns="http://www.w3.org/2000/svg" xmlns:xlink="http://www.w3.org/1999/xlink"><use xlink:href="#path0_fill" fill="#E34646"/><use xlink:href="#path1_fill" transform="translate(11 7.58)" fill="#FFF"/><defs><path id="path0_fill" d="M15 0C6.729 0 0 6.729 0 15s6.729 15 15 15 15-6.729 15-15S23.271 0 15 0z"/><path id="path1_fill" d="M8.674.727A5.703 5.703 0 0 0 6.511.266c-.687 0-1.294.159-1.805.472-.452.278-1.066.418-1.825.418C1.82 1.156.773.876.4.765V.23C.4.103.31 0 .2 0 .09 0 0 .103 0 .231v.694l.002.01L0 .941v12.238c0 .128 0 .694.6.694s.6-.566.6-.693V8.324c.455.13.649.231 1.681.231.825 0 1.502-.159 2.013-.472.452-.278.996-.418 1.617-.418 1.072 0 2.006.424 2.015.428.062.029.131.02.186-.023a.242.242 0 0 0 .088-.191V.942c0-.095-.05-.18-.126-.215z"/></defs></svg>