<svg xmlns="http://www.w3.org/2000/svg" viewBox="0 0 40 42"><defs><linearGradient id="a" x1=".019%" x2="100.113%" y1="49.989%" y2="49.989%"><stop offset="0%" stop-color="#FF3F3F"/><stop offset="100%" stop-color="#EB0000"/></linearGradient><linearGradient id="b" x1="-.063%" x2="99.956%" y1="49.928%" y2="49.928%"><stop offset="0%" stop-color="#2482C5"/><stop offset="100%" stop-color="#285FAC"/></linearGradient></defs><g fill="none"><path fill="url(#a)" d="M17.924 16.116c3.114-1.245 5.291-4.249 5.291-7.74C23.241 3.76 19.392 0 14.684 0 9.949 0 6.1 3.76 6.1 8.376c0 2.515 1.14 4.761 2.937 6.3L4.532 17.58s9.038.757 13.392-1.465z"/><path fill="url(#b)" d="M36.228 25.273c-4.304-1.49-10.304 1.392-10.304 1.392s4.633-5.982 4.532-14.822c-.05-6.47-2.43-8.57-4.253-10.134.151.88.227 1.783.227 2.686 0 9.377-6.025 15.677-15.721 15.677-4.025 0-7.722-.024-10.684-2.198.05.147.481 1.93 2.203 3.785.76.83 1.797 1.66 3.14 2.369 4.354 2.27 7.695 2.54 8.024 2.564.026.024.026.073.051.098 0 4.663-3.392 11.33-8.202 11.33a10.12 10.12 0 0 1-2.127-.244C1.24 37.409.076 36.48.076 36.48s.658 4.86 6.076 5.348c5.95.537 8.683-.708 14.582-4.176 6.304-3.711 11.089-7.643 14.76-6.666 2.784.733 3.24 5.006 3.24 5.006s.836-1.685 1.089-3.174c.253-1.563.709-6.056-3.595-7.546z"/><path d="M14.277 2.404c1.733 0 3.296.912 4.345 2.338l.66-.656c-1.221-1.625-3.027-2.68-5.005-2.68-1.391 0-2.685.513-3.76 1.369l.49.826c.927-.74 2.05-1.197 3.27-1.197z" fill="#FFF"/></g></svg>