<?xml version="1.0" encoding="iso-8859-1"?>
<!-- Generator: Adobe Illustrator 19.0.0, SVG Export Plug-In . SVG Version: 6.00 Build 0)  -->
<svg version="1.1" id="Layer_1" xmlns="http://www.w3.org/2000/svg" xmlns:xlink="http://www.w3.org/1999/xlink" x="0px" y="0px"
	 viewBox="0 0 351.778 351.778" style="enable-background:new 0 0 351.778 351.778;" xml:space="preserve">
<path d="M321.778,95.024l30-0.049l-0.154-94.821L256.802,0l-0.049,30l43.741,0.071l-58.583,58.583
	c-26.385-21.595-59.13-33.339-93.68-33.339c-39.594,0-76.817,15.419-104.814,43.417C15.419,126.729,0,163.953,0,203.547
	s15.419,76.818,43.416,104.815s65.221,43.416,104.814,43.416s76.818-15.419,104.815-43.416
	c54.215-54.215,57.572-140.324,10.073-198.49l58.588-58.588L321.778,95.024z M231.833,287.149
	c-22.331,22.331-52.021,34.629-83.603,34.629S86.96,309.48,64.629,287.149C42.298,264.818,30,235.128,30,203.547
	s12.298-61.271,34.629-83.602s52.021-34.629,83.602-34.629c31.581,0,61.271,12.298,83.603,34.629
	C277.931,166.044,277.931,241.051,231.833,287.149z"/>
<g>
</g>
<g>
</g>
<g>
</g>
<g>
</g>
<g>
</g>
<g>
</g>
<g>
</g>
<g>
</g>
<g>
</g>
<g>
</g>
<g>
</g>
<g>
</g>
<g>
</g>
<g>
</g>
<g>
</g>
</svg>
