<svg xmlns="http://www.w3.org/2000/svg" width="512" height="512" viewBox="0 0 128 128"><defs><style type="text/css">  
    .fil0 {fill:#727272}
   </style></defs><path class="fil0" d="M35.4 21.4c0.9 2.5 3.2 4.2 5.8 4.2l15.9 0c2.6 0 5-1.7 5.8-4.2 0.8-2.4 3.4-7.8 5.4-9.5 1.8-1.5 2.6-3.8 2.2-6.1-0.4-2.2-2-3.9-4.1-4.6-6.4-2.1-12.1-1.4-16.4 2.1-0.8 0.6-1.8 0.6-2.6 0-4.3-3.5-10-4.2-16.4-2.1-2.1 0.7-3.7 2.5-4.1 4.7-0.4 2.2 0.4 4.6 2.2 6.1 2.3 1.9 5.8 7.7 6.4 9.5l0 0zm-4.4-14.7c0.1-0.4 0.3-1.1 1.3-1.4 2-0.7 3.8-1 5.5-1 2.6 0 4.9 0.8 6.9 2.3 2.3 1.9 5.6 1.9 7.9 0 3.2-2.6 7.4-3 12.4-1.3 0.9 0.3 1.2 1 1.3 1.4 0.2 0.7-0.1 1.5-0.7 2-3.3 2.8-6.2 9.8-6.7 11.4-0.3 0.8-1 1.3-1.8 1.3l-15.8 0c-0.8 0-1.5-0.5-1.8-1.3-0.9-2.6-4.8-8.9-7.7-11.3-0.6-0.5-0.9-1.2-0.7-2zm36.3 23.2c0-1.2-1-2.1-2.1-2.1-0.4 0-0.7 0.1-1.1 0.3-0.3-0.2-0.7-0.3-1.1-0.3l-25.6 0c-1.2 0-2.1 1-2.1 2.1 0 1.2 1 2.1 2.1 2.1l25.6 0 0 2.1-23.5 0c-1.2 0-2.1 1-2.1 2.1 0 1.2 1 2.1 2.1 2.1l25.4 0c1.9 1.6 4.3 2.5 6.8 2.5 2.9 0 5.5-1.1 7.5-3.1 0.8-0.8 0.8-2.2 0-3-0.8-0.8-2.2-0.8-3 0-2.4 2.4-6.6 2.4-9 0l0-4.9 0 0zm-21.3 25.6c-13.7 0-29.9 17.4-29.9 32 0 1.2 1 2.1 2.1 2.1 1.2 0 2.1-0.9 2.1-2.1 0-12.2 14.4-27.7 25.6-27.7 1.2 0 2.1-1 2.1-2.1 0-1.2-1-2.1-2.1-2.1zm59.7 12.8c-2.2 0-4.8 0.1-7.5 0.4-2.9-5.3-6.7-9.8-11.4-13.4l-15.4-10.4c-2.5-1.9-6.5-4.3-11.2-4.3l-16.6 0c-4.1 0-8.1 1.4-11.3 3.9l-15.1 11c-15.7 12.4-20.7 34.1-11.8 51.6 3.2 6.4 8.6 14.1 16 14.6 0.6 0 1.2 0.1 1.8 0.1l41.5 0c3.1 3.9 7.9 6.4 13.3 6.4 6.2 0 11.6-3.3 14.6-8.3 3.8 1.2 8.5 1.9 13.1 1.9 10.3 0 21.3-3.3 21.3-8.5l0-11.7-0.2 0c0.1-0.3 0.2-0.7 0.2-1.1l0-12.8 0-11.7c0-5.9-13.4-7.5-21.3-7.5l0 0zm16.9 7.5c0 0-0.1 0.1-0.1 0.1-0.1 0.1-0.2 0.1-0.3 0.2-0.1 0.1-0.3 0.2-0.5 0.3-0.1 0.1-0.3 0.2-0.5 0.3-0.2 0.1-0.5 0.2-0.8 0.3-0.2 0.1-0.4 0.2-0.7 0.2-0.3 0.1-0.7 0.2-1 0.3-0.3 0.1-0.5 0.2-0.9 0.3-0.4 0.1-0.9 0.2-1.3 0.3-0.3 0.1-0.7 0.1-1 0.2-0.5 0.1-1.1 0.2-1.6 0.2-0.4 0.1-0.7 0.1-1.2 0.2-0.7 0.1-1.4 0.1-2.1 0.2-0.4 0-0.7 0.1-1.1 0.1-1.2 0.1-2.4 0.1-3.7 0.1-1.3 0-2.5 0-3.7-0.1-0.4 0-0.7 0-1.1-0.1-0.7-0.1-1.5-0.1-2.1-0.2-0.4 0-0.8-0.1-1.2-0.1-0.6-0.1-1.1-0.1-1.6-0.2-0.4-0.1-0.7-0.1-1-0.2-0.4-0.1-0.9-0.2-1.3-0.3-0.3-0.1-0.6-0.2-0.9-0.2-0.4-0.1-0.7-0.2-1-0.3-0.2-0.1-0.5-0.2-0.7-0.2-0.3-0.1-0.5-0.2-0.8-0.3-0.2-0.1-0.3-0.2-0.5-0.2-0.2-0.1-0.4-0.2-0.5-0.3-0.1-0.1-0.2-0.1-0.3-0.2-0.1 0-0.1-0.1-0.1-0.1 0 0 0.1 0 0.1-0.1 0.1-0.1 0.2-0.1 0.3-0.2 0.2-0.1 0.4-0.2 0.6-0.4 0.1-0.1 0.3-0.1 0.4-0.2 0.2-0.1 0.4-0.1 0.6-0.2 0.2-0.1 0.5-0.2 0.8-0.3 0.2-0.1 0.4-0.1 0.6-0.2 0.5-0.1 1-0.3 1.6-0.4 0.3-0.1 0.6-0.1 0.9-0.2 0.4-0.1 0.7-0.1 1.1-0.2 0.4-0.1 0.9-0.1 1.3-0.2 2.4-0.3 5.3-0.6 8.7-0.6 10.1 0 15.7 2.1 16.9 3.2l0 0zm-32.5 17.5c0.2 0.1 0.4 0.2 0.6 0.2 0.4 0.2 0.8 0.3 1.1 0.4 0.2 0.1 0.4 0.1 0.6 0.2 0.5 0.1 0.9 0.3 1.4 0.4 0.2 0.1 0.3 0.1 0.5 0.1 0.7 0.2 1.3 0.3 2 0.4 0.1 0 0.3 0.1 0.4 0.1 0.5 0.1 1.1 0.2 1.7 0.3 0.2 0 0.5 0.1 0.7 0.1 0.5 0.1 1 0.1 1.5 0.2 0.3 0 0.5 0.1 0.8 0.1 0.5 0.1 1 0.1 1.5 0.1 0.2 0 0.5 0 0.7 0 0.7 0 1.5 0.1 2.2 0.1 0.7 0 1.5 0 2.2-0.1 0.2 0 0.5 0 0.7 0 0.5 0 1-0.1 1.5-0.1 0.3 0 0.5 0 0.8-0.1 0.5 0 1-0.1 1.4-0.2 0.3 0 0.5-0.1 0.7-0.1 0.6-0.1 1.1-0.2 1.6-0.3 0.2 0 0.3 0 0.5-0.1 0.7-0.1 1.3-0.3 2-0.4 0.2 0 0.4-0.1 0.5-0.1 0.5-0.1 0.9-0.3 1.4-0.4 0.2-0.1 0.4-0.1 0.6-0.2 0.4-0.1 0.8-0.3 1.1-0.4 0.2-0.1 0.4-0.1 0.6-0.2 0.4-0.2 0.8-0.3 1.1-0.5 0.1-0.1 0.2-0.1 0.4-0.2l0 7.5c-0.5 1.2-6 3.9-14.7 4.4-0.8 0-1.5 0.1-2.4 0.1-4.7 0-9.3-0.7-12.9-2 0 0 0 0 0-0.1-0.2-0.4-0.5-0.9-0.8-1.3 0-0.1-0.1-0.1-0.1-0.2-0.3-0.4-0.5-0.7-0.8-1.1-0.1-0.1-0.2-0.2-0.3-0.3-0.3-0.3-0.5-0.6-0.8-0.9-0.1-0.1-0.3-0.3-0.4-0.4-0.2-0.2-0.5-0.4-0.7-0.7 0 0 0 0-0.1-0.1 0-0.8 0-2.7 0-5 0.1 0.1 0.2 0.1 0.4 0.2 0.4 0.2 0.7 0.3 1.1 0.5l0 0zm-28.2 24.1l-38.7 0c-0.5 0-1 0-1.5 0-4.2-0.3-8.6-4.6-12.5-12.2-8-15.7-3.5-35.1 10.6-46.2l15.1-11c2.5-1.9 5.6-3 8.7-3l16.6 0c3.5 0 6.6 1.8 8.7 3.5l15.4 10.4c3.8 2.9 7 6.5 9.5 10.7-2.7 0.6-5.3 1.4-7.1 2.7 0 0-0.1 0.1-0.1 0.1-0.3 0.2-0.5 0.4-0.7 0.6-0.1 0.1-0.2 0.2-0.3 0.3-0.2 0.2-0.3 0.4-0.5 0.6-0.1 0.2-0.2 0.4-0.3 0.5-0.1 0.2-0.2 0.3-0.2 0.5-0.1 0.4-0.2 0.7-0.2 1.1l0 11.7 0 7.7c-0.7-0.3-1.5-0.5-2.2-0.7-0.1 0-0.2-0.1-0.3-0.1-0.7-0.2-1.5-0.3-2.3-0.4-0.1 0-0.2 0-0.3 0-0.4 0-0.9-0.1-1.3-0.1-0.2 0-0.5 0-0.7 0-0.2 0-0.4 0-0.5 0-0.8 0.1-1.5 0.2-2.2 0.3 0 0 0 0 0 0-0.1 0-0.1 0-0.2 0.1-0.7 0.2-1.3 0.3-2 0.6-0.2 0.1-0.5 0.2-0.7 0.3-0.6 0.3-1.3 0.5-1.8 0.9-0.2 0.1-0.4 0.3-0.6 0.4-0.4 0.3-0.8 0.5-1.2 0.8-0.2 0.2-0.5 0.3-0.7 0.5-0.5 0.4-1 0.8-1.4 1.3-0.2 0.2-0.4 0.4-0.6 0.6-0.3 0.4-0.6 0.7-0.9 1.1-0.2 0.2-0.3 0.4-0.5 0.6-0.4 0.6-0.7 1.1-1 1.7-0.1 0.2-0.2 0.5-0.3 0.7-0.2 0.5-0.5 1.1-0.6 1.6 0 0.2-0.1 0.3-0.2 0.5-0.2 0.7-0.4 1.4-0.5 2.2 0 0.1 0 0.2-0.1 0.3 0 0.1 0 0.2 0 0.4-0.1 0.5-0.1 1-0.1 1.5 0 0.2 0 0.4 0 0.6 0 0.1 0 0.2 0 0.2 0 0.3 0 0.7 0.1 1 0.1 1.9 0.4 3.7 0.9 5.4l0 0zm16.1 6.4c-7 0-12.7-5.7-12.8-12.6 0-0.2 0-0.3 0-0.5 0-0.2 0-0.5 0-0.7 0-0.2 0-0.4 0.1-0.6 0-0.2 0.1-0.4 0.1-0.6 0.1-0.6 0.2-1.1 0.4-1.6 0 0 0-0.1 0.1-0.2 0.2-0.5 0.4-1.1 0.7-1.6 0 0 0.1-0.1 0.1-0.1 1.2-2.3 3-4.2 5.2-5.4 0 0 0 0 0 0 0.5-0.3 1-0.5 1.6-0.7 0.1-0.1 0.3-0.1 0.4-0.2 0.5-0.2 1-0.3 1.5-0.4 0.1 0 0.1 0 0.2 0 0.6-0.1 1.2-0.2 1.9-0.2 0.1 0 0.2 0 0.4 0 0.6 0 1.3 0 1.9 0.1 0 0 0.1 0 0.1 0 0.7 0.1 1.3 0.2 1.9 0.4 0 0 0 0 0 0 0.7 0.2 1.3 0.4 1.9 0.7 0.6 0.3 1.1 0.6 1.7 0.9l0.1 0.1c0.1 0.1 0.1 0.1 0.2 0.2 0.4 0.3 0.7 0.5 1 0.8 0.1 0.1 0.2 0.1 0.2 0.2 0.3 0.3 0.6 0.6 0.9 1 0 0 0.1 0.1 0.1 0.1 0.7 0.8 1.3 1.7 1.7 2.6 0.1 0.2 0.2 0.4 0.3 0.7 0.2 0.4 0.3 0.8 0.4 1.1 0 0 0 0.1 0 0.1 0.1 0.4 0.2 0.8 0.3 1.2 0 0 0 0.1 0 0.1 0.1 0.4 0.1 0.8 0.2 1.2 0 0 0 0.1 0 0.1 0.1 0.4 0.1 0.9 0.1 1.3 0 0.5 0 0.9-0.1 1.4 0 0.1 0 0.1 0 0.2 0 0.4-0.1 0.8-0.2 1.2 0 0 0 0.1 0 0.1-0.1 0.4-0.2 0.8-0.3 1.2 0 0 0 0 0 0.1-0.1 0.4-0.3 0.8-0.5 1.2-2 4.4-6.5 7.5-11.6 7.5l0 0zm27.7-6.4c-4 0-8.1-0.5-11.4-1.5 0 0 0 0 0 0 0.2-0.7 0.4-1.4 0.5-2.1 0-0.2 0.1-0.3 0.1-0.5 0.1-0.7 0.2-1.5 0.2-2.2 0-0.6 0-1.1-0.1-1.6 0-0.2 0-0.4-0.1-0.6 0-0.3-0.1-0.5-0.1-0.8 3.2 0.6 7 0.9 10.9 0.9 5.1 0 12.5-0.6 17.1-2.7l0 6.8c-0.5 1.3-7 4.4-17.1 4.4l0 0zm0-25.6c-10 0-16.5-3.1-17-4.3 0-2.4 0-4.9 0-6.9 0.1 0 0.1 0 0.2 0.1 0.5 0.2 1.1 0.4 1.6 0.6 0 0 0.1 0 0.1 0 0.6 0.2 1.2 0.4 1.8 0.5 0.2 0.1 0.4 0.1 0.6 0.2 0.5 0.1 0.9 0.2 1.4 0.3 0.2 0 0.5 0.1 0.7 0.1 0.5 0.1 1 0.2 1.6 0.3 0.2 0 0.3 0 0.5 0.1 0.7 0.1 1.4 0.2 2.1 0.2 0.2 0 0.3 0 0.5 0.1 0.5 0.1 1.1 0.1 1.6 0.1 0.2 0 0.4 0 0.7 0.1 0.5 0 0.9 0 1.4 0.1 0.2 0 0.4 0 0.6 0 0.6 0 1.2 0 1.8 0 0.6 0 1.2 0 1.8 0 0.2 0 0.4 0 0.6 0 0.5 0 0.9 0 1.4-0.1 0.2 0 0.4 0 0.7 0 0.5 0 1-0.1 1.6-0.1 0.2 0 0.3 0 0.5 0 0.7-0.1 1.4-0.1 2.1-0.2 0.2 0 0.3-0.1 0.5-0.1 0.5-0.1 1.1-0.2 1.6-0.3 0.2 0 0.5-0.1 0.7-0.1 0.5-0.1 0.9-0.2 1.4-0.3 0.2 0 0.4-0.1 0.6-0.1 0.6-0.1 1.3-0.3 1.9-0.5 0 0 0.1 0 0.1 0 0.6-0.2 1.1-0.4 1.6-0.6 0.1 0 0.1 0 0.2-0.1l0 6.8c-0.5 1.3-7 4.4-17.1 4.4l0 0z"/></svg>
