<?xml version="1.0" encoding="UTF-8"?>
<!DOCTYPE svg PUBLIC "-//W3C//DTD SVG 1.1//EN" "http://www.w3.org/Graphics/SVG/1.1/DTD/svg11.dtd">
<!-- Creator: CorelDRAW 2017 -->
<svg xmlns="http://www.w3.org/2000/svg" xml:space="preserve" width="210mm" height="297mm" version="1.1" style="shape-rendering:geometricPrecision; text-rendering:geometricPrecision; image-rendering:optimizeQuality; fill-rule:evenodd; clip-rule:evenodd"
viewBox="0 0 21000 29700"
 xmlns:xlink="http://www.w3.org/1999/xlink">
 <defs>
  <style type="text/css">
   <![CDATA[
    .fil0 {fill:#727272}
   ]]>
  </style>
 </defs>
 <g id="Слой_x0020_1">
  <metadata id="CorelCorpID_0Corel-Layer"/>
  <path class="fil0" d="M5805.29 7859.92c142.45,412.31 526.42,689.52 955.53,689.52l2600.94 0c429.11,0 813.08,-277.21 955.53,-689.52 135.8,-394.11 562.47,-1275.79 893.58,-1555.8 290.16,-246.06 426.31,-627.22 354.91,-994.73 -70,-361.56 -322.36,-647.17 -674.82,-763.73 -1050.38,-348.26 -1982.12,-231.01 -2694.39,338.46 -127.75,102.2 -299.26,102.2 -427.01,0 -712.27,-569.12 -1643.31,-686.38 -2694.39,-338.11 -352.46,116.55 -605.17,401.81 -675.17,763.73 -71.4,367.51 64.75,748.67 354.91,994.73 374.86,317.11 948.88,1261.44 1050.38,1555.45zm-717.87 -2416.83c12.6,-65.45 56.7,-182.36 207.91,-232.41 325.51,-107.8 628.97,-161.36 909.68,-161.36 431.91,0 809.23,127.4 1127.39,381.86 383.26,306.96 918.78,306.26 1301.34,0 525.37,-420.01 1210.34,-494.22 2037.07,-220.51 151.21,50.05 194.96,167.31 207.56,232.41 23.45,121.45 -21.35,243.61 -120.05,327.26 -534.82,452.92 -1012.93,1601.65 -1102.54,1861.71 -44.8,130.2 -163.11,217.71 -293.66,217.71l-2600.94 0.01c-130.9,0 -248.86,-87.5 -293.66,-217.71 -145.95,-422.81 -795.23,-1467.95 -1259.69,-1861.71 -99.06,-84.01 -144.21,-206.16 -120.41,-327.26zm5949.15 3806.37c0,-193.21 -156.81,-350.01 -350.01,-350.01 -65.1,0 -122.85,22.75 -175.01,53.55 -52.15,-31.15 -109.9,-53.55 -175.01,-53.55l-4200.14 0c-193.21,0 -350.01,156.81 -350.01,350.01 0,193.2 156.81,350.01 350.01,350.01l4200.14 0 0 350.01 -3850.12 0.01c-193.21,0 -350.01,156.81 -350.01,350.01 0,193.2 156.81,350.01 350.01,350.01l4173.89 0c313.61,261.11 700.02,410.56 1112.69,410.56 467.27,0 906.88,-182.36 1237.64,-513.12 136.85,-136.85 136.85,-358.06 0,-494.92 -136.85,-136.85 -358.06,-136.85 -494.92,0 -395.51,395.51 -1080.84,396.56 -1479.15,4.9l0 -807.47zm-3500.12 4200.14c-2243.92,0 -4900.16,2845.94 -4900.16,5250.17 0,193.21 156.81,350.01 350.01,350.01 193.2,0 350.01,-156.81 350.01,-350.01 0,-1998.57 2355.23,-4550.15 4200.14,-4550.15 193.21,0 350.01,-156.81 350.01,-350.01 0,-193.2 -156.8,-350.01 -350.01,-350.01zm9800.33 2100.07c-360.86,0 -790.68,21 -1223.99,70.35 -471.47,-863.13 -1093.09,-1605.5 -1877.81,-2206.47l-2520.79 -1713.31c-416.86,-319.91 -1073.84,-700.72 -1836.16,-700.72l-2722.04 0c-673.42,0 -1335.64,229.26 -1855.06,637.72l-2477.38 1805.01c-2582.04,2030.07 -3399.31,5587.59 -1942.91,8459.08 529.92,1044.78 1415.1,2307.28 2625.44,2389.18 94.85,6.3 190.76,9.8 287.36,9.8l6810.86 0c513.82,639.12 1300.29,1050.03 2182.32,1050.03 1014.33,0 1901.96,-544.27 2393.38,-1354.2 625.47,194.26 1392.35,304.16 2156.77,304.16 1683.21,0 3500.12,-535.17 3500.12,-1400.05l0 -1925.06 -27.65 0.01c16.8,-56.7 27.65,-114.8 27.65,-175.01l0 -2100.07 0 -1925.06c0,-967.43 -2200.17,-1225.39 -3500.11,-1225.39zm2773.49 1221.89c-7.35,7.35 -13.3,14.7 -23.45,22.75 -13.65,10.85 -30.1,22.4 -48.65,34.3 -23.1,14.7 -51.1,30.1 -81.55,45.5 -24.85,12.6 -50.75,25.55 -80.5,38.5 -36.75,16.45 -80.15,32.9 -124.6,49.7 -35.7,13.3 -71.75,26.6 -112.35,40.25 -51.1,16.8 -109.9,33.6 -169.06,50.05 -46.2,12.95 -91.7,26.25 -142.8,38.85 -66.5,16.45 -141.4,31.5 -215.96,46.55 -56.35,11.55 -109.9,23.45 -170.81,34.3 -84,14.7 -177.81,27.3 -270.56,39.9 -63.35,8.75 -122.5,18.55 -190.06,26.25 -110.25,12.6 -231.71,21.35 -352.81,30.1 -61.6,4.55 -117.6,10.85 -182.01,14.7 -191.11,10.5 -393.41,16.8 -609.37,16.8 -215.96,0 -418.26,-6.3 -609.37,-16.8 -64.4,-3.5 -120.4,-9.8 -182.01,-14.7 -121.1,-9.1 -242.56,-17.85 -352.81,-30.1 -67.55,-7.7 -126.7,-17.5 -190.06,-26.25 -92.75,-12.6 -186.56,-25.2 -270.56,-39.9 -60.9,-10.85 -114.45,-22.75 -170.81,-34.3 -74.55,-15.4 -149.45,-30.45 -215.96,-46.55 -51.1,-12.6 -96.25,-25.55 -142.8,-38.85 -59.15,-16.45 -117.6,-33.25 -169.06,-50.05 -40.6,-13.3 -76.65,-26.95 -112.35,-40.25 -44.45,-16.8 -87.85,-33.25 -124.6,-49.7 -29.75,-12.95 -55.65,-25.9 -80.5,-38.5 -30.45,-15.75 -58.45,-31.15 -81.55,-45.5 -18.55,-11.9 -35,-23.1 -48.65,-34.3 -9.45,-7.35 -14.7,-14 -21.7,-21 4.2,-3.5 7,-7 11.9,-10.85 12.95,-10.85 31.5,-23.1 49.7,-35 28.35,-18.55 63.7,-38.15 105.35,-59.15 22.75,-11.55 45.15,-22.75 71.75,-34.3 27.65,-12.25 59.5,-24.5 91.35,-37.1 37.8,-14.7 79.1,-29.4 122.85,-44.1 31.5,-10.5 61.95,-21.35 96.95,-31.85 78.4,-23.8 164.16,-47.25 258.31,-70 43.4,-10.5 93.8,-19.95 141.05,-29.75 57.05,-12.25 115.5,-24.15 177.46,-35.35 68.25,-12.25 140.7,-23.8 215.61,-35 394.46,-59.5 866.63,-100.8 1429.8,-100.8 1654.16,-0.36 2579.24,340.9 2775.25,521.5zm-5337.33 2879.55c31.5,13.3 64.05,25.9 96.95,38.85 60.9,23.8 123.2,46.2 187.61,68.25 33.95,11.55 67.2,22.75 101.85,33.6 73.85,23.1 149.8,44.45 227.51,65.1 27.3,7.35 53.55,15.4 81.2,22.05 106.05,26.6 214.56,51.1 325.86,72.8 23.1,4.55 47.25,8.05 70.7,12.6 89.25,16.8 179.56,32.2 271.26,45.85 39.2,5.95 78.75,10.85 118.3,16.1 78.75,10.5 157.86,19.95 238.01,28.35 42,4.2 84,8.4 126,12.25 82.6,7.35 165.56,12.95 248.86,17.85 37.1,2.1 74.2,4.9 111.3,6.65 119.7,5.25 239.06,8.75 358.06,8.75 119,0 238.36,-3.5 358.06,-8.75 37.8,-1.75 75.6,-4.55 113.4,-6.65 82.25,-4.9 164.51,-10.5 246.41,-17.5 43.05,-3.85 86.1,-8.05 128.8,-12.6 78.75,-8.05 156.81,-17.5 234.51,-28 40.6,-5.25 81.2,-10.5 121.45,-16.45 90.3,-13.3 179.21,-28.7 267.06,-45.15 24.85,-4.55 50.05,-8.4 74.9,-13.3 110.6,-22.05 218.76,-46.2 324.11,-72.45 29.4,-7.35 57.4,-15.75 86.45,-23.45 75.95,-20.3 150.51,-41.3 222.61,-64.05 35.35,-11.2 69.3,-22.75 103.6,-34.3 64.05,-21.7 126.35,-44.45 186.91,-67.9 32.55,-12.6 65.1,-25.55 96.6,-38.85 63,-26.6 122.85,-54.6 180.61,-83.3 18.2,-9.1 38.85,-16.8 56.35,-25.9l2.1 1233.44c-82.25,199.16 -986.68,642.97 -2413.68,714.02 -128.1,4.55 -252.01,10.85 -390.26,10.85 -771.08,0 -1532.7,-118.3 -2114.42,-326.21 -2.1,-3.5 -4.55,-7 -6.65,-10.5 -41.3,-72.1 -85.05,-142.45 -132.3,-210.36 -7,-10.15 -15.05,-19.6 -22.4,-29.75 -43.75,-61.25 -88.9,-121.1 -137.55,-178.51 -14.7,-17.15 -30.45,-32.9 -45.5,-50.05 -43.05,-48.65 -86.45,-96.6 -132.65,-142.1 -23.8,-23.45 -49.35,-44.45 -73.85,-67.2 -40.6,-37.1 -80.5,-74.2 -122.85,-108.85 -4.2,-3.5 -7.7,-7.35 -11.9,-10.5 0,-136.85 0.35,-441.01 0.7,-823.58 17.85,9.45 39.2,17.5 57.4,26.6 57.76,28.35 116.56,56 178.51,82.25zm-4624 3948.83l-6355.51 0c-80.85,0 -161.36,-2.8 -240.81,-8.05 -687.77,-46.55 -1415.1,-759.53 -2047.92,-2007.32 -1305.89,-2574.69 -569.12,-5767.84 1740.96,-7584.4l2477.38 -1805.01c406.71,-319.56 915.63,-495.62 1432.6,-495.62l2722.04 0c565.97,0 1079.09,302.41 1426.65,568.07l2520.78 1712.96c626.17,480.22 1148.04,1067.54 1555.8,1750.41 -443.11,91.35 -871.53,230.66 -1165.89,435.06 -8.05,5.6 -16.1,11.2 -24.15,16.8 -44.45,32.2 -85.05,66.15 -122.15,101.85 -15.75,15.05 -29.75,30.45 -44.1,46.2 -27.65,30.45 -54.25,61.25 -75.95,94.15 -18.2,26.95 -31.5,56 -45.5,84.7 -12.25,25.9 -26.95,50.75 -35.7,78.05 -19.25,59.15 -31.15,121.1 -31.15,186.91l0 1925.06 0 1256.19c-117.95,-47.95 -240.11,-86.45 -365.41,-117.95 -16.45,-4.2 -32.9,-8.75 -49.35,-12.6 -122.5,-28.7 -247.46,-50.4 -375.21,-62.3 -14.35,-1.4 -28.7,-1.05 -43.05,-2.1 -71.75,-5.6 -143.85,-10.85 -217.01,-10.85 -38.5,0 -75.6,4.2 -113.75,5.6 -29.75,1.05 -59.5,2.45 -89.25,4.55 -124.6,9.1 -247.81,23.45 -367.51,48.3 -2.45,0.35 -4.55,0.35 -7,1.05 -9.45,2.1 -18.2,5.95 -27.65,8.05 -109.55,24.15 -216.31,56 -320.61,93.1 -37.8,13.3 -75.6,26.6 -112.7,41.3 -103.95,41.65 -205.46,87.85 -303.11,141.4 -36.75,19.95 -71.05,43.05 -106.75,64.75 -68.25,41.65 -134.75,85.4 -198.81,132.65 -37.8,27.65 -75.95,54.6 -112.35,84 -82.25,66.5 -160.66,137.55 -234.86,213.16 -32.55,32.9 -62.3,67.9 -93.1,102.55 -52.5,58.8 -102.55,120.05 -149.8,183.06 -25.55,34.3 -52.5,66.85 -76.65,102.2 -61.6,89.95 -116.55,184.46 -167.31,281.41 -19.6,37.8 -37.45,76.3 -55.65,115.15 -39.9,85.75 -75.6,173.26 -106.75,263.56 -9.1,26.25 -20.3,51.1 -28.35,77.7 -36.05,114.8 -62.3,233.81 -83.3,354.21 -2.8,15.4 -8.4,30.1 -10.85,45.5 -2.8,18.9 -2.8,39.2 -5.25,58.1 -11.2,82.25 -18.2,165.56 -22.05,249.91 -1.4,30.1 -4.2,59.85 -4.55,90.3 0,12.95 -2.1,25.55 -2.1,38.5 0,55.65 5.25,109.9 8.4,164.51 13.6,302.45 62.96,606.26 154.31,885.22zm2637.69 1050.04c-1149.79,0 -2085.37,-928.93 -2098.67,-2075.22 0,-27.3 0.7,-54.25 1.75,-81.55 1.05,-38.5 2.8,-76.65 5.95,-114.8 2.45,-32.2 6.3,-64.05 10.15,-95.9 4.2,-32.55 9.1,-64.75 14.7,-96.6 15.75,-91 36.05,-180.96 63.7,-268.11 2.8,-9.45 7,-18.2 10.15,-27.3 29.4,-87.85 64.75,-173.61 105.7,-256.56 3.85,-8.05 7.7,-16.1 11.55,-23.8 188.66,-370.31 486.52,-683.22 847.38,-889.38 1.4,-0.7 2.45,-1.75 3.85,-2.45 81.9,-46.55 168.01,-85.75 255.51,-120.75 22.75,-9.1 45.85,-17.15 68.6,-25.2 77.7,-27.65 156.81,-51.8 238.36,-69.65 11.2,-2.45 21.7,-6.3 32.9,-8.4 101.15,-20.65 202.66,-31.85 303.81,-37.8 19.25,-1.05 38.5,-2.45 58.1,-2.8 103.25,-3.15 206.16,-0.35 307.66,11.55 5.95,0.7 11.55,1.75 17.15,2.8 107.1,13.3 213.16,34.65 317.46,64.75 1.4,0.35 3.15,0.7 4.55,1.05 107.45,31.15 212.81,71.4 315.71,120.05 94.5,44.8 186.56,94.85 272.66,152.61l14 9.8c12.25,8.4 23.45,17.85 35.35,26.25 58.1,41.65 113.75,85.75 167.31,133 12.95,11.2 25.55,23.1 38.15,34.65 53.55,49.7 104.65,101.5 152.61,156.11 4.9,5.6 9.8,10.5 14.7,16.1 111.3,129.5 207.21,272.66 284.21,426.31 17.85,35 35.7,70.35 51.45,106.4 26.6,61.25 49.7,123.2 70.35,185.86 1.4,4.55 3.5,9.1 4.9,13.65 20.3,63.35 36.75,127.75 50.75,192.51 1.05,5.25 2.8,10.15 3.85,15.05 13.3,64.4 23.1,129.5 30.45,194.96 0.7,5.95 2.1,11.2 2.8,17.15 7.35,71.4 11.2,143.15 11.2,215.61 0,74.2 -4.2,148.05 -11.9,221.56 -1.05,10.85 -3.5,21 -4.9,31.85 -7.7,63.35 -17.15,126.35 -30.8,188.31 -1.4,7 -3.85,13.65 -5.25,20.65 -15.05,66.5 -32.9,132.3 -54.6,197.41 -1.05,2.8 -2.1,5.6 -3.15,8.4 -23.1,67.9 -49.7,134.75 -79.8,200.91 -332.16,724.84 -1062.64,1230.96 -1910.36,1230.96zm4550.15 -1050.04c-664.32,0 -1325.49,-88.55 -1868.71,-247.11 0.35,-0.7 0.35,-1.4 0.35,-2.1 33.95,-113.4 58.8,-230.31 78.4,-349.31 4.55,-28.35 9.1,-56.35 12.95,-85.05 15.75,-120.4 26.95,-241.86 26.95,-366.46 0,-90.65 -4.9,-180.61 -13.65,-269.86 -3.15,-32.2 -8.75,-63.35 -12.95,-95.2 -5.95,-45.15 -10.15,-90.65 -18.2,-135.1 530.97,98 1147.69,150.16 1794.86,150.16 836.53,0 2045.82,-106.75 2801.49,-440.66l2.1 1115.84c-89.6,216.63 -1151.89,724.85 -2803.59,724.85zm0 -4200.14c-1646.1,0 -2705.94,-504.37 -2798.34,-697.92 0.35,-399.01 0.7,-803.98 0.7,-1141.39 8.75,3.85 19.25,7 28.35,10.85 83.65,35.7 171.16,69.3 264.26,100.1 4.9,1.75 9.8,3.5 15.05,4.9 95.2,30.8 195.66,58.45 298.21,84 33.6,8.4 68.25,16.1 102.55,23.8 74.9,17.15 150.51,33.6 227.86,48.3 37.45,7.35 74.55,14.35 112.35,21 85.05,15.05 170.46,28.35 256.91,40.95 27.3,3.85 54.25,8.4 81.55,12.25 113.05,15.05 226.11,28.35 338.46,39.2 28.35,2.8 56,4.9 84.35,7.35 86.45,7.7 171.86,14.7 256.56,20.3 36.75,2.45 72.45,4.55 108.5,6.65 78.4,4.55 154.71,8.05 230.31,10.85 31.85,1.05 63.7,2.45 94.85,3.5 102.55,2.8 202.66,4.55 297.16,4.55 94.15,0 194.26,-1.75 296.81,-4.55 31.85,-1.05 64.05,-2.45 96.25,-3.5 74.9,-2.8 150.86,-6.3 228.91,-10.85 36.75,-2.1 72.8,-4.2 109.9,-6.65 84.7,-5.6 170.46,-12.6 256.91,-20.65 28,-2.45 55.3,-4.55 83.3,-7.35 112.7,-11.2 225.76,-24.15 338.81,-39.55 27.65,-3.85 54.95,-8.4 82.6,-12.25 86.1,-12.25 171.51,-25.9 256.21,-40.95 38.15,-6.65 75.25,-14 112.7,-21 77.35,-15.05 153.31,-31.15 228.56,-48.65 34.3,-8.05 68.6,-15.4 102.2,-23.8 104.65,-26.25 206.86,-54.25 303.81,-85.75 4.9,-1.75 9.1,-3.5 14,-4.9 91.35,-30.1 177.81,-63.35 260.06,-98.35 9.8,-4.2 21.35,-7.7 31.15,-11.9l2.1 1115.84c-89.93,217.35 -1152.22,725.57 -2803.92,725.57z"/>
 </g>
</svg>
