<svg xmlns="http://www.w3.org/2000/svg" viewBox="0 0 128 128"><defs><style>.fil0{fil0:#727272}</style></defs><path class="fil0" d="M192 75.7v-5.1l-.2-10c0-2.5.1-2.2 1.9-3.3l9.9-5.7 1.7-1c.8-.4 1-.7 1.9-.8V65c0 2.8 0 2.1-2 3.3-2 1-12 7.1-13.3 7.3zm-38.2 23.5c-1.9-.2-9.6-5.9-12.4-7l.2-14.4c1.3.1 9.2 5.2 10.9 6.2 1.3.8 1.6.6 1.5 2.7l-.2 12.5z"/><path class="fil0" d="M260.2 97.2v14.4c-1.7.7-4.3 2.5-6 3.5l-3.1 1.7c-4 2.2-2 2.5-9.4-1.7-1.6-1-4.7-2.6-6-3.7v-12c-4.8-3-3.4-2.7-7.9-.3-1.1.6-7 4-7.6 4.1-1.1 0-9.4-5.5-11.1-6.5-.8-.4-1 0-1.8.4l-1.9 1.1-.4 15.2c-3.8 2.4-8 4.3-11.7 6.5-5.5 3.3-4.6 2-12.3-2.5-1.4-.7-2.3-1.4-3.9-2.3-.8-.5-3-1.7-3.7-2.4l.2-14.1-3.3-1.9a184 184 0 0 1-8.3 4.7l-4 2.3c-4.2 2.5-3.2 2-8.3-1-1.9-1.2-11.3-7-12.1-7.2V73.8l15.6-8.7c2-1.2 2.2-1 4.2 0L165 70c1.3.6 3-.6 4-1.5v-23c3.3-2.2 7.4-4.4 10.7-6.3 13-7.2 9-7.4 16.5-3.1l11 6.2c1.7 1 3.7 2.1 5.3 3.3.4 2.4.2 8.5.1 11.2V68c0 2.5.3 2.5-1.9 3.6l-3.6 2.1-7.2 4.2c-2.4 1.4-4.9 2.8-7.1 4.3-2.7 1.6-4.3-.3-7.6-2.3l-10.8-6.2c-1-.6-2.8-2.3-3.7-.7.5 1.1 2.3.5 2.4 3.1.1 1.8-.2 3.7-.2 5.5 0 3.6-.3 7.8 0 11.3l1.7 1 7.9-4.4 3.8-2.2c4.1-2.4 3.3-1.8 8.1 1l7.7 4.6c1.5 1 1.2 1.3 4-.5l.2-13.4a214 214 0 0 1 14-7.9c1-.1 6 3.2 7.1 3.8 2.3 1.4 5 2.9 7 4.3v14.1c5.7 2.6 2.3 3.4 9.6-.8 4.3-2.4 3.4-2.5 5.5-1.3l10.7 6zm-12.9 7.2v9.7c-1 0-7.4-3.9-8.5-4.7v-9.6c.9 0 7.5 4 8.5 4.6zm1.3 9.9v-9.6l4-2.4c1.1-.6 3.2-2 4.5-2.3v5.6c0 3.7.4 3.9-1.1 4.8-1.4.7-6.2 3.9-7.4 3.9zM190 117c-.3-1.5-.1-5.7 0-7.4 0-3.2-.6-5 1.4-6.2 1.4-.7 8.8-5 9.8-5.2v11.1c-.2 1.7-.3 1.7-1.6 2.4L190 117zm-1.8-.4c-1 0-9.4-5.5-11-6.2l.3-12.7c1.1 0 8.2 4.6 9.7 5.5 2 1.2 1.4 1.4 1.3 6-.1 2.2 0 5.2-.3 7.4zm-19.9-26.3c.6.4.7.7 1.5.6 0-3.5.6-12.9.3-14.8-3.7-2-6.8-4-10.3-6.1-1.7-1-4.2-3-5.3-2.5L144 73.3c-2.8 1.6-4.4 2-4.4 3.7l-.1 16.3 13.7 8.3c1.7 1.1 2.1.4 3.6-.5l3.5-2 6.9-3.8c-.3-.6-1-.8-1.5-1a2 2 0 0 0-.4 0c-2.2.7-7 4.3-9.4 5l-.4.1V91c0-4.3-.5-5.4 1.8-6.7l5.4-3c1.1-.6 4.1-2.5 5.3-2.8h.2l.1 11.9zm41.6-8.5v-.3c1.2.3 8.5 5 9.7 5.8l-.3 11v.3c-.7-.1-6.4-3.4-7.1-4.2-.9.3-1 .2-1.4.9.2.2 8.8 5.4 9 5.4a53 53 0 0 0 9.3-5l-.8-.5h-1c-1.9.6-4.2 2.8-6 3.3h-.4v-9.8c0-1.4.3-1.4 1.3-2a141 141 0 0 1 8.6-4.6c0 1.4-.2 8.2.3 9.3l.3.4c.4 0 .3-.1.6-.2l.2-11.2-9-5.4c-.6-.3-2.2-1.6-3-1.4l-11.8 6.7-.2 10.7c.6 0 .7-.2 1.2-.5.3-.5.4-7.4.4-8.7zm-35.6-32v-.2c1.3.3 14.5 8 15.5 9-.4 2.3 0 13.4 0 17h-.2v.2c-1 0-5.2-2.6-6-3.2-1.1-.6-5.6-3-6-3.5-1 .1-1.9.9-2.3 1.3.9.7 3.2 1.9 4.3 2.5l8.3 4.8c4.1 2.3 2 2 12.9-4.2 1.5-.8 7.6-4.2 8.3-4.9V47.1l-9.3-5.3c-1.3-.8-8.5-5.2-9.3-5-.2 0-17.5 9.9-18.3 10.5v19.2c.6 0 1.6-.7 2-1.2V49.8h.1zM45 48.4c.7 1.9 2.4 3 4.3 3H61c2 0 3.7-1.2 4.3-3 .6-1.8 2.5-5.7 4-7 1.3-1.1 2-2.8 1.6-4.5a4.5 4.5 0 0 0-3-3.4c-4.8-1.6-9-1-12.1 1.5-.6.5-1.4.5-2 0-3.2-2.5-7.3-3-12-1.5a4.5 4.5 0 0 0-3 3.4c-.4 1.7.2 3.4 1.5 4.5 1.7 1.4 4.3 5.7 4.7 7zm-3.2-10.9c0-.3.3-.8 1-1a12 12 0 0 1 4-.7c2 0 3.7.5 5 1.7a4.7 4.7 0 0 0 6 0c2.3-2 5.4-2.2 9-1 .8.2 1 .7 1 1 .1.6 0 1.1-.5 1.5-2.4 2-4.6 7.2-5 8.4-.2.5-.7 1-1.3 1H49.3c-.6 0-1.1-.5-1.3-1-.7-2-3.6-6.6-5.7-8.4-.4-.4-.6-1-.5-1.5zm26.7 17.1c0-.8-.7-1.5-1.5-1.5-.3 0-.6 0-.8.2l-.8-.2H46.5c-.9 0-1.6.7-1.6 1.5 0 1 .7 1.6 1.6 1.6h18.9v1.6H48a1.6 1.6 0 0 0 0 3.1h18.7a7.7 7.7 0 0 0 10.6-.4c.6-.6.6-1.6 0-2.2-.6-.7-1.6-.7-2.2 0a4.8 4.8 0 0 1-6.7 0v-3.7zm-15.7 19c-10 0-22 12.7-22 23.5 0 .9.7 1.6 1.5 1.6 1 0 1.6-.7 1.6-1.6 0-9 10.6-20.4 18.9-20.4.9 0 1.6-.7 1.6-1.6 0-.9-.7-1.6-1.6-1.6zm44 9.4c-1.6 0-3.5 0-5.5.3a29 29 0 0 0-8.4-10l-11.3-7.6a14 14 0 0 0-8.3-3.2H51.1c-3 0-6 1-8.4 2.9l-11 8a30.8 30.8 0 0 0-8.8 38c2.4 4.8 6.3 10.4 11.8 10.8h31.9A12.6 12.6 0 0 0 87 121a33 33 0 0 0 9.7 1.4c7.6 0 15.8-2.4 15.8-6.3v-8.7h-.2l.2-.8v-18c0-4.4-10-5.6-15.8-5.6zm12.5 5.4l-.1.1-.2.2-.4.2-.4.2-.5.2-.5.2-.8.2-.6.2-1 .2-.8.1-1.2.2-.8.1-1.6.2h-.8a47 47 0 0 1-5.5 0h-.8l-1.6-.2h-.9l-1.2-.3-.8-.1-1-.2-.6-.2-.7-.2-.5-.2-.6-.2-.3-.2-.4-.2-.2-.2h-.1v-.1l.2-.2.5-.2.3-.2c.2 0 .3 0 .5-.2.1 0 .3 0 .5-.2h.4L88 87l.6-.1.8-.2 1-.2a44 44 0 0 1 6.4-.4c7.4 0 11.6 1.5 12.5 2.3zm-24 13l.5.1.8.4.4.1 1 .3.4.1 1.5.3h.3l1.2.3h.6l1 .2h.6a20.3 20.3 0 0 0 1.6.1h4.9l.5-.1 1-.1.6-.1 1.2-.2h.4l1.4-.4.4-.1 1-.3.5-.1a16.4 16.4 0 0 0 1.3-.5l.8-.4.2-.1v5.5c-.3 1-4.4 3-10.8 3.2h-1.8c-3.4 0-6.9-.5-9.5-1.4l-.6-1-.1-.1-.6-.8-.2-.2-.6-.7-.3-.3-.6-.5v-3.7l.2.1.8.4zM64.5 119H35c-3-.2-6.4-3.4-9.2-9a27.7 27.7 0 0 1 7.7-34l11.1-8.1c1.9-1.5 4.2-2.3 6.5-2.3h12.2a11 11 0 0 1 6.4 2.6L81 75.9c2.9 2.2 5.2 4.8 7 7.9a14.6 14.6 0 0 0-5.3 2l-.6.4c0 .1 0 .2-.2.2 0 .2-.2.3-.3.5l-.2.4-.2.3-.1.9v14.3c-.5-.3-1-.4-1.6-.6h-.3a16 16 0 0 0-1.7-.3h-2c-.6 0-1.1 0-1.7.2h-.1l-1.5.4-.5.2-1.4.7-.4.3-1 .6-.4.3c-.4.3-.8.6-1 1l-.5.4-.7.9-.3.4a16.3 16.3 0 0 0-1.5 3l-.1.3-.4 1.6v.5l-.2 1.1v1.3c0 1.4.3 2.8.7 4zm11.9 4.7a9.4 9.4 0 0 1-9.4-9.3v-1.3l.1-.4c0-.5.2-.9.3-1.3l.5-1.2v-.1a10 10 0 0 1 3.9-4l1.1-.6h.3l1.1-.4h.2l1.3-.2h1.7l1.5.3a9.4 9.4 0 0 1 2.6 1.3h.1l.1.1.8.6.2.2.7.7a9.2 9.2 0 0 1 1.5 2.5l.4.8a12 12 0 0 1 .4 1.8v.1a7.9 7.9 0 0 1 0 2.1l-.2.9c0 .4-.2.7-.3 1l-.3.9a9.5 9.5 0 0 1-8.6 5.5zm20.4-4.7c-3 0-6-.4-8.4-1v-.1a10.5 10.5 0 0 0 .4-2 11 11 0 0 0 0-3.2v-.6a45.4 45.4 0 0 0 20.6-1.3v5c-.4 1-5.2 3.2-12.6 3.2zm0-18.9c-7.4 0-12.1-2.2-12.5-3.1v-5l1.3.5 1.4.4h.4l1 .3h.6a40 40 0 0 0 3 .5h.4l1.1.1h.5l1 .1h5.1l1.2-.2h.3l1.6-.2h.3l1.2-.2h.5c.3-.2.7-.2 1-.3l.5-.1 1.3-.4h.1l1.2-.5h.1v5c-.4 1-5.1 3.3-12.6 3.3z"/></svg>