<svg xmlns="http://www.w3.org/2000/svg" width="512" height="512" viewBox="0 0 128 128"><defs>
<style type="text/css">
    .fil0 {fil0:#727272}
</style>
</defs>
  <path class="fil0" d="M191.94 75.67c-0.01,-1.66 0.07,-3.46 -0.01,-5.09l-0.16 -9.92c-0.02,-2.52 0.17,-2.28 1.92,-3.33l9.89 -5.74c0.71,-0.39 1.1,-0.58 1.73,-0.93 0.81,-0.45 1.06,-0.75 1.87,-0.87l0.01 15.27c0.03,2.82 0.01,2.18 -2.02,3.32 -1.99,1.11 -11.92,7.16 -13.23,7.29z"/>
  <path class="fil0" d="M153.79 99.24c-1.89,-0.28 -9.62,-5.93 -12.39,-6.97l0.18 -14.51c1.3,0.17 9.25,5.25 10.91,6.26 1.34,0.8 1.58,0.59 1.55,2.65l-0.25 12.57 0 0z"/>
  <path class="fil1" d="M260.18 97.24l0 14.36c-1.65,0.66 -4.33,2.49 -6.03,3.46 -1.14,0.65 -2.14,1.27 -3.08,1.79 -3.94,2.17 -1.96,2.47 -9.32,-1.79 -1.67,-0.97 -4.73,-2.53 -6.04,-3.64l-0.06 -12.11c-4.77,-2.85 -3.31,-2.65 -7.81,-0.2 -1.18,0.64 -7.01,4.05 -7.59,4.09 -1.15,0.07 -9.46,-5.51 -11.17,-6.45 -0.83,-0.46 -0.97,-0.1 -1.76,0.35 -0.64,0.37 -1.35,0.67 -1.9,1.15l-0.44 15.13c-3.76,2.38 -7.98,4.33 -11.69,6.53 -5.52,3.27 -4.61,1.99 -12.33,-2.48 -1.34,-0.77 -2.28,-1.38 -3.84,-2.33 -0.81,-0.49 -3.04,-1.66 -3.76,-2.39l0.23 -14.11 -3.31 -1.85c-2.63,1.62 -5.8,3.36 -8.25,4.69 -1.44,0.78 -2.62,1.4 -4.1,2.28 -4.18,2.5 -3.09,2.02 -8.27,-1.08 -1.83,-1.1 -11.3,-6.96 -12.06,-7.11l0 -21.69 15.62 -8.77c2.06,-1.12 2.21,-1.03 4.14,0.11l7.65 4.68c1.27,0.69 2.92,-0.56 4.03,-1.46l0.04 -22.98c3.25,-2.17 7.28,-4.41 10.66,-6.31 12.89,-7.2 8.94,-7.39 16.5,-3.13l10.96 6.24c1.68,1.01 3.67,2.08 5.34,3.26 0.36,2.4 0.16,8.57 0.06,11.24 -0.14,3.66 -0.06,7.55 -0.03,11.24 0.01,2.56 0.3,2.54 -1.84,3.69 -1.15,0.61 -2.4,1.38 -3.65,2.1 -2.52,1.43 -4.81,2.83 -7.21,4.2 -2.34,1.35 -4.82,2.79 -7.07,4.21 -2.65,1.68 -4.3,-0.28 -7.63,-2.26l-10.75 -6.21c-0.94,-0.54 -2.81,-2.28 -3.71,-0.66 0.5,1.1 2.31,0.43 2.44,3.08 0.08,1.79 -0.26,3.74 -0.28,5.52 -0.06,3.62 -0.25,7.73 -0.05,11.32 0.54,0.16 1.33,0.65 1.82,0.9l7.82 -4.38c1.42,-0.82 2.61,-1.42 3.84,-2.14 4.11,-2.43 3.31,-1.87 8.13,0.97l7.71 4.63c1.5,0.9 1.21,1.31 4.03,-0.49l0.11 -13.45c1.29,-0.84 13.36,-7.74 14.09,-7.86 0.87,-0.14 6.02,3.19 7.06,3.81 2.29,1.37 4.89,2.85 6.96,4.25l-0.03 14.12c5.72,2.6 2.36,3.44 9.62,-0.77 4.3,-2.48 3.4,-2.51 5.49,-1.31l10.72 6.01 -0.01 0zm-12.84 7.19l0 9.64c-0.98,-0.05 -7.47,-3.82 -8.56,-4.68l-0.06 -9.62c0.95,0 7.54,4.04 8.62,4.66zm1.25 9.84l-0.06 -9.54c1.27,-0.7 2.58,-1.55 4.04,-2.38 1.17,-0.65 3.22,-2.14 4.5,-2.34 0,1.87 0.03,3.75 0.03,5.62 0,3.68 0.45,3.87 -1.11,4.74 -1.41,0.78 -6.18,3.89 -7.4,3.9l0 0zm-58.5 2.69c-0.31,-1.46 -0.09,-5.65 -0.05,-7.36 0.08,-3.19 -0.55,-5.03 1.47,-6.16 1.37,-0.77 8.82,-5.09 9.83,-5.25l-0.09 11.14c-0.12,1.63 -0.24,1.66 -1.52,2.35l-9.64 5.28 0 0zm-1.76 -0.35c-0.94,-0.06 -9.44,-5.5 -11.01,-6.24l0.3 -12.66c1.09,0 8.22,4.58 9.68,5.49 1.99,1.23 1.36,1.35 1.25,5.97 -0.06,2.22 0.02,5.25 -0.22,7.44l0 0zm-19.9 -26.31l-0.11 -0.07 0 0.09c0.64,0.39 0.79,0.65 1.62,0.55 -0.05,-3.43 0.55,-12.84 0.24,-14.76 -3.64,-2.08 -6.74,-3.93 -10.32,-6.14 -1.67,-1.05 -4.15,-2.96 -5.31,-2.48l-10.48 5.85c-2.75,1.52 -4.35,1.89 -4.38,3.65 -0.09,5.43 -0.09,10.92 -0.11,16.36l13.73 8.28c1.69,1.09 2.1,0.35 3.58,-0.5 1.33,-0.76 2.47,-1.4 3.51,-1.98l6.89 -3.85c-0.27,-0.57 -0.92,-0.83 -1.44,-1 -0.14,0 -0.31,0.03 -0.49,0.08 -2.18,0.66 -6.99,4.27 -9.35,4.93 -0.15,0.04 -0.29,0.08 -0.41,0.1 -0.06,-2.83 -0.01,-5.69 -0.01,-8.52 0,-4.33 -0.48,-5.43 1.79,-6.68 1.74,-0.97 3.75,-2.02 5.41,-2.96 1.16,-0.65 4.16,-2.53 5.35,-2.85 0.07,-0.02 0.14,-0.04 0.2,-0.05l0.09 11.95 0 0zm41.55 -8.5l-0.01 -0.27c1.22,0.3 8.51,4.95 9.73,5.8l-0.28 10.99c-0.02,0 -0.06,-0.01 -0.1,-0.02l-0.01 0.26c-0.6,-0.08 -6.34,-3.39 -7.02,-4.15 -0.87,0.3 -0.91,0.22 -1.41,0.89 0.26,0.21 8.84,5.38 9.04,5.42 0.78,0.16 8.72,-4.49 9.24,-4.98 -0.34,-0.36 -0.29,-0.33 -0.72,-0.56 -0.32,-0.04 -0.66,0 -1.02,0.09 -1.91,0.56 -4.19,2.7 -6.04,3.22 -0.14,0.04 -0.27,0.07 -0.4,0.1l-0.02 -9.92c0.04,-1.37 0.34,-1.39 1.31,-1.96 0.9,-0.52 7.89,-4.45 8.49,-4.56 0.05,-0.02 0.09,-0.03 0.11,-0.03 0.08,1.4 -0.22,8.14 0.29,9.26 0,0.01 0.31,0.33 0.37,0.39l0 0c0.35,-0.06 0.28,-0.1 0.58,-0.21l0.22 -11.16 -9.01 -5.37c-0.59,-0.36 -2.22,-1.6 -2.96,-1.47l-11.85 6.74 -0.19 10.65c0.6,0.08 0.67,-0.11 1.17,-0.41 0.35,-0.59 0.4,-7.48 0.39,-8.77 0.03,0.01 0.06,0.02 0.1,0.03zm-35.57 -31.94l0 -0.28c1.25,0.31 14.48,7.94 15.51,9.1 -0.39,2.25 -0.02,13.36 -0.09,16.85 -0.03,0.01 -0.06,0.01 -0.1,0.01l0 0.24c-1,0.11 -5.19,-2.58 -6.1,-3.14 -1.04,-0.62 -5.54,-3.03 -5.95,-3.51l0 0c-0.95,0.09 -1.86,0.82 -2.33,1.25 0.9,0.69 3.22,1.9 4.3,2.5l8.37 4.84c4.09,2.25 1.9,2 12.88,-4.23 1.46,-0.82 7.63,-4.19 8.29,-4.87l-0.05 -21.53c-2.98,-1.67 -6.36,-3.55 -9.24,-5.27 -1.34,-0.8 -8.51,-5.22 -9.29,-5.07 -0.2,0.04 -17.51,9.91 -18.32,10.55l0.04 19.21c0.59,-0.05 1.58,-0.72 2.01,-1.2l-0.02 -15.48c0.02,0 0.06,0.01 0.09,0.03z"/>
  <path class="fil0" d="M-134.97 48.4c0.64,1.85 2.36,3.09 4.3,3.09l11.68 0c1.93,0 3.66,-1.24 4.3,-3.09 0.6,-1.77 2.52,-5.74 4.01,-6.99 1.3,-1.11 1.92,-2.83 1.6,-4.48 -0.32,-1.62 -1.45,-2.9 -3.04,-3.43 -4.72,-1.56 -8.9,-1.03 -12.1,1.52 -0.58,0.46 -1.35,0.46 -1.92,0 -3.2,-2.55 -7.39,-3.08 -12.11,-1.52 -1.58,0.53 -2.72,1.81 -3.03,3.43 -0.33,1.65 0.28,3.37 1.59,4.48 1.69,1.42 4.27,5.67 4.72,6.99l0 0 0 0zm-3.22 -10.86c0.06,-0.3 0.25,-0.82 0.93,-1.05 1.46,-0.49 2.83,-0.72 4.09,-0.72 1.94,0 3.63,0.57 5.06,1.71 1.73,1.38 4.13,1.38 5.85,0 2.36,-1.89 5.44,-2.22 9.15,-0.99 0.68,0.23 0.88,0.75 0.93,1.05 0.11,0.54 -0.09,1.09 -0.54,1.47 -2.4,2.03 -4.54,7.19 -4.95,8.36 -0.2,0.58 -0.73,0.98 -1.32,0.98l-11.68 0c-0.59,0 -1.12,-0.4 -1.32,-0.98 -0.66,-1.9 -3.58,-6.6 -5.67,-8.36 -0.44,-0.38 -0.64,-0.93 -0.53,-1.47l0 0zm26.73 17.1c0,-0.87 -0.72,-1.58 -1.57,-1.58 -0.3,0 -0.56,0.11 -0.79,0.25 -0.24,-0.14 -0.5,-0.25 -0.79,-0.25l-18.87 0c-0.86,0 -1.57,0.71 -1.57,1.58 0,0.87 0.71,1.57 1.57,1.57l18.87 0 0 1.57 -17.29 0c-0.88,0 -1.58,0.71 -1.58,1.58 0,0.87 0.7,1.57 1.58,1.57l18.75 0c1.4,1.17 3.13,1.84 4.99,1.84 2.1,0 4.08,-0.82 5.56,-2.3 0.62,-0.62 0.62,-1.61 0,-2.22 -0.61,-0.62 -1.61,-0.62 -2.22,0 -1.78,1.77 -4.86,1.78 -6.64,0.02l0 -3.63 0 0 0 0zm-15.73 18.87c-10.08,0 -22.02,12.79 -22.02,23.59 0,0.87 0.7,1.57 1.57,1.57 0.87,0 1.58,-0.7 1.58,-1.57 0,-8.97 10.58,-20.44 18.87,-20.44 0.87,0 1.57,-0.71 1.57,-1.58 0,-0.87 -0.7,-1.57 -1.57,-1.57l0 0zm44.03 9.44c-1.62,0 -3.55,0.1 -5.5,0.32 -2.12,-3.88 -4.91,-7.22 -8.43,-9.92l-11.33 -7.69c-1.87,-1.44 -4.82,-3.16 -8.25,-3.16l-12.23 0c-3.03,0 -6,1.03 -8.34,2.87l-11.13 8.11c-11.6,9.12 -15.27,25.1 -8.73,38 2.39,4.7 6.36,10.37 11.8,10.74 0.43,0.02 0.86,0.05 1.29,0.05l30.61 0c2.31,2.86 5.84,4.71 9.8,4.71 4.56,0 8.54,-2.44 10.75,-6.09 2.81,0.88 6.25,1.38 9.69,1.38 7.56,0 15.73,-2.41 15.73,-6.3l0 -8.65 -0.12 0c0.07,-0.26 0.12,-0.51 0.12,-0.79l0 -9.43 0 -8.64c0,-4.35 -9.88,-5.51 -15.73,-5.51l0 0zm12.47 5.49c-0.04,0.03 -0.06,0.07 -0.11,0.1 -0.06,0.05 -0.14,0.09 -0.22,0.15 -0.1,0.07 -0.23,0.14 -0.37,0.2 -0.11,0.06 -0.23,0.13 -0.36,0.19 -0.16,0.07 -0.36,0.14 -0.56,0.22 -0.16,0.06 -0.32,0.11 -0.5,0.17 -0.24,0.08 -0.49,0.16 -0.77,0.23 -0.2,0.06 -0.4,0.12 -0.64,0.18 -0.29,0.07 -0.63,0.14 -0.96,0.21 -0.26,0.05 -0.5,0.09 -0.77,0.15 -0.38,0.07 -0.8,0.13 -1.22,0.18 -0.28,0.04 -0.55,0.08 -0.85,0.11 -0.5,0.07 -1.04,0.09 -1.59,0.15 -0.28,0.01 -0.53,0.04 -0.82,0.06 -0.86,0.05 -1.77,0.08 -2.73,0.08 -0.97,0 -1.88,-0.03 -2.74,-0.08 -0.29,-0.02 -0.54,-0.04 -0.82,-0.06 -0.55,-0.06 -1.09,-0.08 -1.59,-0.15 -0.3,-0.03 -0.56,-0.07 -0.85,-0.11 -0.41,-0.05 -0.84,-0.11 -1.22,-0.18 -0.27,-0.05 -0.51,-0.1 -0.77,-0.15 -0.33,-0.07 -0.67,-0.14 -0.96,-0.21 -0.24,-0.06 -0.44,-0.13 -0.64,-0.18 -0.27,-0.07 -0.53,-0.15 -0.76,-0.23 -0.19,-0.06 -0.35,-0.11 -0.51,-0.17 -0.2,-0.08 -0.39,-0.15 -0.56,-0.22 -0.13,-0.06 -0.25,-0.13 -0.36,-0.19 -0.14,-0.06 -0.27,-0.13 -0.37,-0.2 -0.08,-0.06 -0.15,-0.1 -0.21,-0.15 -0.05,-0.03 -0.07,-0.06 -0.11,-0.1 0.02,-0.01 0.04,-0.03 0.06,-0.04 0.07,-0.05 0.14,-0.11 0.22,-0.16 0.13,-0.09 0.29,-0.17 0.47,-0.27 0.11,-0.04 0.21,-0.09 0.33,-0.15 0.12,-0.06 0.26,-0.11 0.41,-0.17 0.17,-0.07 0.36,-0.14 0.56,-0.2 0.13,-0.05 0.27,-0.09 0.43,-0.14 0.35,-0.11 0.74,-0.21 1.16,-0.32 0.2,-0.04 0.42,-0.08 0.63,-0.13 0.26,-0.05 0.52,-0.11 0.8,-0.15 0.31,-0.07 0.63,-0.11 0.97,-0.17 1.77,-0.26 3.89,-0.45 6.42,-0.45 7.43,0 11.59,1.53 12.48,2.34l0 0.01 0 0zm-23.99 12.93c0.14,0.06 0.28,0.12 0.44,0.17 0.27,0.11 0.55,0.22 0.84,0.31 0.15,0.05 0.3,0.11 0.46,0.16 0.33,0.1 0.67,0.2 1.02,0.29 0.12,0.03 0.24,0.07 0.36,0.1 0.48,0.12 0.97,0.23 1.47,0.32 0.1,0.02 0.21,0.04 0.32,0.06 0.39,0.08 0.8,0.14 1.21,0.21 0.18,0.02 0.36,0.04 0.53,0.07 0.36,0.05 0.72,0.09 1.07,0.13 0.19,0.01 0.39,0.03 0.57,0.05 0.38,0.04 0.74,0.06 1.12,0.08 0.16,0.01 0.33,0.02 0.5,0.03 0.54,0.02 1.07,0.04 1.61,0.04 0.53,0 1.07,-0.02 1.61,-0.04 0.17,-0.01 0.34,-0.02 0.51,-0.03 0.36,-0.02 0.74,-0.04 1.11,-0.08 0.19,-0.02 0.38,-0.03 0.57,-0.05 0.36,-0.04 0.71,-0.08 1.06,-0.13 0.18,-0.02 0.36,-0.05 0.54,-0.07 0.41,-0.06 0.81,-0.13 1.2,-0.21 0.12,-0.02 0.23,-0.04 0.34,-0.06 0.5,-0.09 0.99,-0.2 1.46,-0.32 0.13,-0.04 0.26,-0.08 0.39,-0.1 0.34,-0.1 0.67,-0.2 0.99,-0.29 0.16,-0.05 0.32,-0.11 0.47,-0.16 0.29,-0.1 0.57,-0.2 0.84,-0.31 0.14,-0.05 0.29,-0.11 0.43,-0.17 0.29,-0.12 0.56,-0.25 0.81,-0.37 0.08,-0.05 0.18,-0.08 0.26,-0.12l0.01 5.54c-0.37,0.9 -4.43,2.89 -10.85,3.21 -0.57,0.02 -1.13,0.05 -1.75,0.05 -3.47,0 -6.89,-0.53 -9.5,-1.46 -0.01,-0.02 -0.02,-0.03 -0.03,-0.06 -0.19,-0.31 -0.39,-0.63 -0.6,-0.94 -0.03,-0.04 -0.07,-0.09 -0.1,-0.13 -0.19,-0.28 -0.39,-0.55 -0.62,-0.81 -0.06,-0.07 -0.14,-0.14 -0.2,-0.22 -0.19,-0.22 -0.38,-0.43 -0.6,-0.64 -0.1,-0.1 -0.22,-0.2 -0.33,-0.3 -0.18,-0.16 -0.36,-0.33 -0.55,-0.49 -0.02,-0.01 -0.03,-0.04 -0.05,-0.05 0,-0.61 0,-1.98 0,-3.7 0.08,0.04 0.18,0.08 0.26,0.12 0.26,0.13 0.52,0.26 0.8,0.37l0 0 0 0zm-20.77 17.75l-28.56 0c-0.36,0 -0.72,-0.02 -1.08,-0.04 -3.09,-0.21 -6.36,-3.41 -9.2,-9.02 -5.87,-11.57 -2.56,-25.91 7.82,-34.08l11.13 -8.11c1.83,-1.43 4.11,-2.22 6.44,-2.22l12.23 0c2.55,0 4.85,1.35 6.41,2.55l11.32 7.7c2.81,2.16 5.16,4.8 6.99,7.86 -1.99,0.41 -3.91,1.03 -5.24,1.96 -0.04,0.02 -0.07,0.04 -0.1,0.07 -0.2,0.15 -0.39,0.3 -0.56,0.46 -0.06,0.06 -0.13,0.14 -0.19,0.2 -0.13,0.15 -0.25,0.28 -0.34,0.43 -0.08,0.13 -0.14,0.26 -0.21,0.38 -0.05,0.12 -0.12,0.23 -0.15,0.36 -0.09,0.26 -0.15,0.54 -0.15,0.84l0 8.64 0 5.65c-0.53,-0.23 -1.08,-0.4 -1.64,-0.54 -0.07,-0.02 -0.15,-0.04 -0.22,-0.06 -0.55,-0.12 -1.11,-0.22 -1.69,-0.28 -0.06,0 -0.12,0 -0.19,0 -0.32,-0.03 -0.65,-0.05 -0.97,-0.05 -0.18,0 -0.35,0.02 -0.52,0.03 -0.13,0 -0.26,0 -0.4,0.01 -0.56,0.05 -1.11,0.11 -1.65,0.22 -0.01,0 -0.02,0 -0.03,0 -0.04,0.02 -0.09,0.03 -0.12,0.04 -0.5,0.11 -0.98,0.25 -1.45,0.42 -0.17,0.06 -0.34,0.12 -0.5,0.18 -0.47,0.19 -0.93,0.4 -1.36,0.64 -0.17,0.09 -0.32,0.2 -0.48,0.29 -0.31,0.19 -0.61,0.39 -0.89,0.6 -0.17,0.12 -0.35,0.24 -0.51,0.37 -0.37,0.31 -0.73,0.62 -1.06,0.96 -0.15,0.15 -0.28,0.31 -0.42,0.46 -0.23,0.27 -0.46,0.55 -0.67,0.83 -0.12,0.15 -0.24,0.3 -0.35,0.45 -0.27,0.41 -0.52,0.84 -0.75,1.27 -0.09,0.17 -0.17,0.34 -0.25,0.52 -0.18,0.38 -0.34,0.78 -0.48,1.18 -0.04,0.12 -0.09,0.23 -0.12,0.35 -0.17,0.52 -0.28,1.05 -0.38,1.59 -0.01,0.07 -0.04,0.14 -0.04,0.21 -0.02,0.08 -0.02,0.18 -0.03,0.26 -0.05,0.37 -0.09,0.74 -0.1,1.12 -0.01,0.14 -0.02,0.27 -0.02,0.4 0,0.06 -0.01,0.12 -0.01,0.18 0,0.25 0.02,0.49 0.04,0.74 0.06,1.36 0.28,2.72 0.69,3.98l0.01 0 0 0zm11.85 4.72c-5.16,0 -9.37,-4.18 -9.42,-9.33 0,-0.12 0,-0.24 0,-0.37 0,-0.17 0.01,-0.34 0.02,-0.51 0.02,-0.14 0.03,-0.29 0.05,-0.43 0.02,-0.15 0.04,-0.3 0.06,-0.44 0.08,-0.41 0.16,-0.81 0.29,-1.21 0.02,-0.03 0.03,-0.08 0.05,-0.11 0.12,-0.4 0.29,-0.78 0.48,-1.16 0,-0.04 0.03,-0.07 0.05,-0.1 0.85,-1.67 2.18,-3.08 3.79,-4 0.01,-0.01 0.02,-0.01 0.03,-0.01 0.37,-0.21 0.75,-0.39 1.15,-0.54 0.09,-0.05 0.2,-0.08 0.3,-0.12 0.35,-0.13 0.71,-0.23 1.08,-0.31 0.04,-0.01 0.09,-0.03 0.14,-0.04 0.45,-0.09 0.91,-0.14 1.37,-0.17 0.08,0 0.17,-0.01 0.25,-0.01 0.47,-0.02 0.93,0 1.39,0.05 0.02,0 0.05,0.01 0.07,0.01 0.48,0.06 0.96,0.16 1.43,0.29 0.01,0 0.02,0.01 0.02,0.01 0.49,0.14 0.96,0.32 1.42,0.54 0.43,0.2 0.84,0.43 1.23,0.68l0.06 0.05c0.05,0.03 0.1,0.08 0.16,0.12 0.26,0.18 0.51,0.38 0.75,0.59 0.06,0.05 0.12,0.11 0.17,0.16 0.24,0.23 0.47,0.46 0.68,0.7 0.03,0.03 0.05,0.05 0.07,0.07 0.5,0.58 0.94,1.23 1.28,1.92 0.08,0.15 0.16,0.32 0.23,0.48 0.12,0.27 0.22,0.55 0.32,0.83 0.01,0.02 0.01,0.05 0.02,0.07 0.09,0.28 0.16,0.57 0.23,0.86 0,0.02 0.01,0.04 0.01,0.07 0.06,0.28 0.11,0.58 0.14,0.87 0,0.03 0.01,0.05 0.01,0.08 0.04,0.32 0.05,0.65 0.05,0.97 0,0.33 -0.01,0.66 -0.05,1 -0.01,0.04 -0.01,0.09 -0.02,0.14 -0.04,0.28 -0.07,0.56 -0.14,0.84 -0.01,0.03 -0.01,0.06 -0.02,0.1 -0.07,0.29 -0.15,0.59 -0.25,0.89 0,0.01 -0.01,0.02 -0.01,0.03 -0.1,0.3 -0.22,0.61 -0.36,0.9 -1.49,3.26 -4.78,5.54 -8.58,5.54l0 0 0 0zm20.44 -4.72c-2.99,0 -5.96,-0.4 -8.4,-1.11 0,0 0,-0.01 0,-0.01 0.16,-0.51 0.27,-1.04 0.36,-1.57 0.02,-0.13 0.04,-0.25 0.06,-0.39 0.07,-0.53 0.11,-1.08 0.11,-1.64 0,-0.41 -0.02,-0.81 -0.06,-1.22 -0.01,-0.14 -0.03,-0.28 -0.05,-0.42 -0.03,-0.2 -0.05,-0.41 -0.09,-0.61 2.39,0.44 5.16,0.67 8.07,0.67 3.76,0 9.19,-0.48 12.59,-1.97l0.01 5.01c-0.41,0.97 -5.18,3.26 -12.6,3.26l0 0 0 0zm0 -18.88c-7.4,0 -12.16,-2.27 -12.57,-3.14 0,-1.78 0,-3.61 0,-5.11 0.04,0.01 0.09,0.03 0.13,0.04 0.37,0.16 0.77,0.3 1.18,0.45 0.03,0.01 0.05,0.01 0.07,0.03 0.43,0.14 0.88,0.25 1.34,0.36 0.16,0.05 0.31,0.08 0.46,0.11 0.34,0.08 0.68,0.16 1.03,0.23 0.16,0.03 0.33,0.05 0.5,0.08 0.38,0.07 0.77,0.14 1.16,0.2 0.12,0 0.24,0.02 0.36,0.05 0.51,0.07 1.02,0.12 1.53,0.17 0.12,0.01 0.25,0.02 0.37,0.03 0.39,0.04 0.78,0.07 1.16,0.09 0.16,0.02 0.32,0.02 0.49,0.04 0.34,0.01 0.69,0.03 1.03,0.04 0.14,0.01 0.28,0.01 0.43,0.02 0.45,0.01 0.9,0.02 1.33,0.02 0.42,0 0.87,-0.01 1.33,-0.02 0.14,-0.01 0.29,-0.01 0.44,-0.02 0.33,-0.01 0.67,-0.03 1.02,-0.04 0.17,-0.02 0.33,-0.02 0.5,-0.04 0.38,-0.02 0.76,-0.05 1.16,-0.09 0.12,-0.01 0.24,-0.02 0.36,-0.03 0.51,-0.05 1.02,-0.11 1.53,-0.17 0.13,-0.03 0.24,-0.05 0.37,-0.05 0.39,-0.06 0.77,-0.13 1.15,-0.2 0.18,-0.03 0.34,-0.05 0.51,-0.08 0.34,-0.07 0.69,-0.15 1.02,-0.23 0.16,-0.03 0.31,-0.06 0.47,-0.11 0.47,-0.11 0.93,-0.24 1.36,-0.38 0.02,-0.01 0.04,-0.01 0.06,-0.03 0.41,-0.13 0.8,-0.27 1.17,-0.43 0.05,-0.02 0.1,-0.03 0.14,-0.06l0.01 5.01c-0.41,0.98 -5.18,3.27 -12.6,3.27l0 0 0 -0.01z"/>
  <path class="fil0" d="M24.98 124.12c0,-0.98 -0.8,-1.78 -1.78,-1.78 -0.98,0 -1.78,0.8 -1.78,1.78 0,0.99 0.8,1.78 1.78,1.78 0.98,0 1.78,-0.79 1.78,-1.78zm70.45 -73.45c-1.5,0 -2.21,-0.67 -2.54,-1.21 0.43,-0.16 0.82,-0.43 1.13,-0.79l0.48 -0.57c0.26,-0.32 0.32,-0.74 0.14,-1.11 -0.17,-0.37 -0.53,-0.6 -0.94,-0.6l-3.41 0c-0.42,0 -0.78,0.23 -0.95,0.6 -0.17,0.37 -0.12,0.79 0.14,1.11l0.48 0.57c0.31,0.36 0.71,0.63 1.14,0.79 -0.33,0.54 -1.04,1.21 -2.54,1.21 -0.33,0 -0.59,0.26 -0.59,0.58 0,0.33 0.26,0.59 0.59,0.59 0.28,0 0.54,-0.01 0.79,-0.05l0 0.64c0,1.45 1.18,2.64 2.64,2.64 1.46,0 2.64,-1.19 2.64,-2.64l0 -0.64c0.25,0.04 0.51,0.05 0.8,0.05 0.32,0 0.59,-0.26 0.59,-0.59 0,-0.32 -0.27,-0.58 -0.59,-0.58l0 0zm-4.56 -2.76l-0.28 -0.34 2.81 0 -0.28 0.34c-0.29,0.33 -0.69,0.52 -1.13,0.52 -0.43,0 -0.84,-0.19 -1.12,-0.52zm2.58 4.52c0,0.8 -0.65,1.45 -1.46,1.45 -0.81,0 -1.46,-0.65 -1.46,-1.45l0 -0.98c0.33,-0.15 0.63,-0.33 0.87,-0.54l0 1.09c0,0.33 0.26,0.59 0.59,0.59 0.33,0 0.6,-0.26 0.6,-0.59l0 -1.09c0.24,0.21 0.53,0.39 0.86,0.54l0 0.98 0 0zm-7.37 -8.42c-0.32,0 -0.58,0.26 -0.58,0.59l0 0.93c0,0.33 0.26,0.6 0.58,0.6 0.33,0 0.59,-0.27 0.59,-0.6l0 -0.93c0,-0.33 -0.26,-0.59 -0.59,-0.59zm12.41 1.52l0 -0.93c0,-0.33 -0.26,-0.59 -0.59,-0.59 -0.32,0 -0.59,0.26 -0.59,0.59l0 0.93c0,0.33 0.27,0.6 0.59,0.6 0.33,0 0.59,-0.27 0.59,-0.6zm5.11 -9.33c-0.45,-0.37 -1.03,-0.5 -1.59,-0.36 -1.15,0.3 -2.28,0.7 -3.36,1.2 -0.41,0.18 -0.69,0.54 -0.78,0.98 -0.09,0.44 0.02,0.88 0.31,1.21 1.01,1.15 2.18,2.11 3.5,2.87 0.22,0.13 0.46,0.19 0.7,0.19 0.19,0 0.37,-0.04 0.56,-0.11 0.41,-0.18 0.7,-0.53 0.8,-0.96 0,0 0,0 0,0 0.28,-1.16 0.45,-2.34 0.51,-3.52 0.03,-0.59 -0.21,-1.13 -0.65,-1.5zm-1 4.74c0,0 0,0 0,0 -0.02,0.1 -0.09,0.14 -0.13,0.15 -0.04,0.02 -0.12,0.04 -0.2,-0.01 -1.21,-0.69 -2.28,-1.58 -3.19,-2.62 -0.07,-0.07 -0.06,-0.16 -0.06,-0.19 0.01,-0.04 0.04,-0.12 0.13,-0.16 1.01,-0.47 2.07,-0.84 3.15,-1.12 0.05,-0.01 0.1,-0.02 0.16,-0.02 0.14,0 0.27,0.05 0.39,0.14 0.15,0.14 0.24,0.32 0.23,0.52 -0.06,1.12 -0.22,2.23 -0.48,3.31l0 0zm-1.24 11.29l-2.61 -2.05c-0.26,-0.2 -0.63,-0.16 -0.83,0.1 -0.2,0.26 -0.16,0.63 0.1,0.83l2.61 2.05c0.11,0.09 0.24,0.12 0.36,0.12 0.18,0 0.36,-0.07 0.47,-0.22 0.2,-0.26 0.16,-0.62 -0.1,-0.83l0 0zm-16.13 -2.05l-2.6 2.05c-0.27,0.21 -0.31,0.57 -0.11,0.83 0.12,0.15 0.29,0.22 0.47,0.22 0.12,0 0.25,-0.03 0.36,-0.12l2.61 -2.05c0.26,-0.2 0.31,-0.57 0.11,-0.83 -0.21,-0.26 -0.58,-0.3 -0.84,-0.1l0 0zm17.2 -1.54l-3.3 -0.4c-0.32,-0.04 -0.62,0.19 -0.66,0.52 -0.04,0.32 0.19,0.62 0.52,0.66l3.29 0.39c0.03,0 0.06,0.01 0.08,0.01 0.29,0 0.55,-0.22 0.58,-0.52 0.04,-0.33 -0.19,-0.62 -0.51,-0.66l0 0zm3.38 -15.13c-0.83,-0.67 -1.9,-0.91 -2.93,-0.65 0,0 0,0 0,0 -2.39,0.61 -4.73,1.43 -6.97,2.44 -1.28,-0.32 -2.59,-0.48 -3.92,-0.48 -1.32,0 -2.64,0.16 -3.92,0.48 -2.24,-1.01 -4.58,-1.83 -6.96,-2.44 0,0 0,0 0,0 -1.04,-0.26 -2.1,-0.02 -2.93,0.65 -0.82,0.68 -1.26,1.68 -1.21,2.75 0.13,2.51 0.49,5.03 1.07,7.49 -0.34,0.85 -0.6,1.73 -0.76,2.63l-4.07 3.09c-0.5,-0.99 -0.77,-2.09 -0.77,-3.22 0,-1.76 0.65,-3.46 1.84,-4.77 0.69,-0.76 0.63,-1.94 -0.14,-2.63 -0.36,-0.34 -0.84,-0.5 -1.35,-0.48 -0.49,0.03 -0.95,0.24 -1.28,0.62 -1.8,1.99 -2.79,4.57 -2.79,7.26 0,2.25 0.67,4.4 1.95,6.22 -0.98,1.03 -1.92,2.1 -2.82,3.21l-3.89 4.78 -10.18 -0.3c-0.02,0 -0.03,0 -0.05,0 -8.07,0 -15.66,3.15 -21.37,8.85l-10.42 10.43c-0.49,0.49 -0.65,1.23 -0.4,1.88 0.25,0.66 0.87,1.11 1.56,1.14l22.07 1.14 -0.91 1.1c-0.45,0.56 -0.52,1.34 -0.17,1.97 0.34,0.64 0.71,1.26 1.08,1.88l-5.23 6.2c-0.45,0.54 -0.55,1.28 -0.25,1.91 1.14,2.41 2.66,4.58 4.51,6.45 1.89,1.91 4.11,3.47 6.58,4.64 0.24,0.12 0.51,0.17 0.76,0.17 0.41,0 0.8,-0.13 1.12,-0.4 1.13,-0.91 2.43,-2 3.69,-3.04 0.89,-0.75 1.81,-1.51 2.66,-2.22 0.51,0.31 1.03,0.6 1.56,0.9 0.26,0.14 0.56,0.21 0.85,0.21 0.38,0 0.76,-0.13 1.08,-0.37l1.21 -0.95 1.14 22.16c0.04,0.7 0.48,1.31 1.14,1.57 0.2,0.08 0.42,0.11 0.63,0.11 0.46,0 0.92,-0.18 1.26,-0.52l10.42 -10.42c5.71,-5.7 8.85,-13.29 8.85,-21.36l0 -9.72 4.11 -3.19c12.32,-9.56 19.83,-23.98 20.59,-39.56l0.04 -0.86c0.06,-1.17 -0.38,-2.31 -1.21,-3.13l0 0c-0.84,-0.82 -1.98,-1.25 -3.15,-1.17l-0.51 0.03c-0.03,-0.97 -0.46,-1.86 -1.21,-2.48l0 0zm-28.37 17.1c0.25,0.85 0.63,1.68 1.13,2.45 -0.11,0.07 -0.21,0.14 -0.31,0.22 -0.99,-0.19 -1.92,-0.59 -2.74,-1.15l1.92 -1.52zm-4.28 4.4c0.42,0.31 0.86,0.59 1.32,0.83 -0.57,0.96 -1.01,2 -1.32,3.11 -0.94,3.42 -0.4,6.91 1.22,9.77 1.63,2.86 4.35,5.11 7.77,6.06 3.43,0.94 6.91,0.4 9.78,-1.23 2.86,-1.62 5.11,-4.34 6.05,-7.77 0.77,-2.77 0.56,-5.59 -0.41,-8.08 2.74,-0.25 5.26,-1.51 7.01,-3.52 1.79,-2.07 2.58,-4.64 2.21,-7.28 -0.14,-1.07 -0.43,-2.13 -0.84,-3.14 0.32,-1.39 0.57,-2.79 0.76,-4.19l1.04 -0.08c0.22,0 0.36,0.1 0.43,0.17 0.07,0.07 0.18,0.21 0.17,0.43l-0.04 0.86c-0.71,14.54 -7.72,28 -19.22,36.93l-27.83 21.59c-2.31,-1.35 -4.46,-2.94 -6.43,-4.75l9.38 -9.38c0.7,-0.69 0.7,-1.81 0,-2.51 -0.69,-0.69 -1.81,-0.69 -2.51,0l-9.36 9.38c-1.73,-1.91 -3.26,-3.98 -4.55,-6.21l22.81 -28.09c0.82,-1 1.67,-1.97 2.56,-2.9zm5.35 13.59c1.4,-0.08 2.51,-1.24 2.51,-2.66l0 -1.56c0.27,0.04 0.55,0.06 0.83,0.06l2.06 0 0 1.5c0,1.47 1.19,2.67 2.67,2.67 1.47,0 2.66,-1.2 2.66,-2.67l0 -1.53c0.23,-0.03 0.45,-0.07 0.67,-0.11l0 1.64c0,1.47 1.2,2.67 2.67,2.67l0.06 0c-0.7,0.78 -1.51,1.44 -2.41,1.95 -2.1,1.19 -4.65,1.58 -7.16,0.89 -1.84,-0.51 -3.39,-1.52 -4.56,-2.85zm0.42 -34.17c0.39,-0.32 0.86,-0.49 1.35,-0.49 0.17,0 0.35,0.02 0.53,0.07 0,0 0,0 0,0 1.65,0.42 3.28,0.94 4.87,1.57 -0.29,0.44 -0.68,0.83 -1.13,1.12 -0.84,-0.35 -1.7,-0.63 -2.57,-0.86 -0.57,-0.14 -1.14,-0.01 -1.59,0.36 -0.12,0.09 -0.21,0.2 -0.3,0.31 -0.63,-0.49 -1.1,-1.17 -1.32,-1.93 0.05,-0.05 0.1,-0.11 0.16,-0.15l0 0zm5.98 4.03c-0.91,1.04 -1.99,1.93 -3.2,2.62 -0.08,0.05 -0.16,0.03 -0.19,0.01 -0.04,-0.02 -0.11,-0.05 -0.13,-0.15 0,0 0,0 0,0 -0.26,-1.08 -0.43,-2.2 -0.48,-3.31 -0.01,-0.2 0.07,-0.38 0.23,-0.52 0.15,-0.13 0.35,-0.17 0.55,-0.12 1.08,0.28 2.14,0.65 3.15,1.12 0.09,0.04 0.11,0.12 0.12,0.15 0.01,0.04 0.01,0.13 -0.05,0.2l0 0zm-8.5 16.94c-1.79,-0.62 -3.38,-1.77 -4.54,-3.29 -1.29,-1.69 -1.98,-3.72 -1.98,-5.86 0,-2.39 0.89,-4.69 2.5,-6.48 0.12,-0.13 0.29,-0.21 0.47,-0.22 0.18,-0.01 0.36,0.05 0.49,0.18 0.28,0.24 0.3,0.68 0.05,0.96 -1.38,1.53 -2.14,3.5 -2.14,5.56 0,2 0.72,3.94 2.03,5.45 1.05,1.21 2.41,2.08 3.92,2.54 -0.32,0.35 -0.59,0.74 -0.8,1.17l0 -0.01zm0.45 3.03c0.8,0.25 1.37,1 1.37,1.86 0,0.88 -0.57,1.62 -1.37,1.87l0 -3.73zm17.2 7.51l0 0c0,0.82 -0.66,1.48 -1.48,1.48 -0.82,0 -1.49,-0.66 -1.49,-1.48l0 -1.99c0.28,-0.1 0.55,-0.23 0.81,-0.37 0.51,0.73 1.29,1.22 2.16,1.38l0 0.98 0 0zm-1.17 -3.01c0.22,-0.18 0.44,-0.38 0.64,-0.59 0.2,-0.19 0.37,-0.39 0.53,-0.6l0 2c-0.47,-0.13 -0.88,-0.42 -1.17,-0.81zm-0.2 -1.41c-1.08,1.09 -2.52,1.71 -4.05,1.74 -0.33,0.01 -0.58,0.27 -0.58,0.59l0 2.09c0,0.82 -0.67,1.48 -1.48,1.48 -0.83,0 -1.49,-0.66 -1.49,-1.48l0 -2.09c0,-0.32 -0.27,-0.59 -0.59,-0.59l-2.65 0c-0.43,0 -0.86,-0.05 -1.27,-0.17 -0.18,-0.04 -0.37,-0.01 -0.52,0.11 -0.14,0.11 -0.22,0.28 -0.22,0.46l0 2.28c0,0.82 -0.67,1.48 -1.48,1.48 -0.36,0 -0.68,-0.12 -0.93,-0.32l-0.05 -0.08c-0.19,-0.34 -0.37,-0.7 -0.52,-1.06l0 -0.02 0 -2.57c1.46,-0.28 2.55,-1.55 2.55,-3.08 0,-1.48 -1.04,-2.74 -2.43,-3.05 0.27,-1.34 1.1,-2.5 2.29,-3.23 0.04,0.06 0.09,0.11 0.13,0.16 1.98,2.27 4.9,3.57 8.03,3.57l6.92 0c-0.07,1.42 -0.65,2.75 -1.66,3.78l0 0zm13.15 -25.32c-0.14,2.51 -0.5,5.02 -1.08,7.47 -0.03,0.12 -0.03,0.25 0.03,0.37 0.41,0.97 0.69,1.99 0.83,3.02 0.32,2.3 -0.36,4.54 -1.93,6.34 -1.74,2.01 -4.35,3.16 -7.13,3.16l-9.13 0c-2.79,0 -5.39,-1.15 -7.13,-3.16 -1.57,-1.8 -2.26,-4.04 -1.94,-6.34 0.15,-1.03 0.43,-2.05 0.84,-3.02 0.05,-0.12 0.06,-0.25 0.03,-0.37 -0.58,-2.45 -0.94,-4.96 -1.08,-7.47 0,-0.05 0,-0.09 0,-0.12 0.39,0.64 0.93,1.2 1.58,1.62 0.06,1.18 0.24,2.36 0.51,3.52 0,0 0,0 0,0 0.11,0.43 0.4,0.78 0.81,0.96 0.18,0.07 0.37,0.11 0.56,0.11 0.24,0 0.48,-0.06 0.69,-0.19 1.32,-0.76 2.5,-1.72 3.5,-2.87 0.3,-0.33 0.41,-0.77 0.32,-1.21 -0.06,-0.28 -0.2,-0.53 -0.41,-0.72 0.43,-0.36 0.8,-0.8 1.08,-1.28 0.33,0.15 0.66,0.29 0.99,0.44 0.12,0.06 0.27,0.07 0.4,0.03 1.24,-0.33 2.52,-0.5 3.81,-0.5 1.3,0 2.58,0.17 3.82,0.5 0.13,0.04 0.27,0.03 0.4,-0.03 2.24,-1.02 4.58,-1.84 6.96,-2.45l0.01 0c0.66,-0.17 1.34,-0.02 1.88,0.42 0.53,0.43 0.81,1.08 0.78,1.77l0 0zm-20.33 12.56c-0.04,-0.33 -0.33,-0.56 -0.66,-0.52l-3.3 0.4c-0.32,0.04 -0.54,0.33 -0.51,0.66 0.04,0.3 0.3,0.52 0.59,0.52 0.02,0 0.05,-0.01 0.07,-0.01l3.29 -0.39c0.33,-0.04 0.56,-0.34 0.52,-0.66l0 0zm-41.93 59.63c-0.87,-0.43 -1.94,-0.08 -2.38,0.8l-2.11 4.25c-0.92,1.84 -2.77,3.08 -4.82,3.21l-2.46 0.17c-0.42,0.03 -0.69,-0.18 -0.82,-0.3 -0.12,-0.13 -0.33,-0.4 -0.3,-0.82l0.17 -2.46c0.13,-2.05 1.37,-3.9 3.21,-4.82l4.25 -2.11c0.88,-0.44 1.23,-1.51 0.8,-2.38 -0.44,-0.88 -1.5,-1.23 -2.38,-0.8l-4.25 2.12c-2.97,1.47 -4.95,4.45 -5.18,7.75l-0.16 2.46c-0.09,1.33 0.4,2.62 1.33,3.57 0.87,0.86 2.04,1.35 3.26,1.35 0.1,0 0.21,-0.01 0.31,-0.02l2.46 -0.16c3.3,-0.24 6.28,-2.21 7.75,-5.18l2.12 -4.24c0.43,-0.89 0.08,-1.95 -0.8,-2.39l0 0zm26.79 -29.36c0,-0.98 -0.78,-1.77 -1.76,-1.77 -0.99,0 -1.78,0.79 -1.78,1.77 0,0.98 0.79,1.78 1.78,1.78 0.98,0 1.76,-0.8 1.76,-1.78zm-43.09 0.09l7.59 -7.6c5.03,-5.03 11.72,-7.8 18.83,-7.81l7.44 0.22 -13.2 16.26 -20.66 -1.07 0 0zm26.8 22.63c-0.93,0.78 -1.89,1.57 -2.76,2.3 -1.71,-0.93 -3.25,-2.08 -4.6,-3.44 -1.3,-1.31 -2.42,-2.81 -3.31,-4.46l3.83 -4.55c1.16,1.55 2.43,3.03 3.8,4.41 0,0 0,0 0,0 0,0 0,0 0,0 0,0 0,0 0,0 1.52,1.52 3.15,2.93 4.89,4.2 -0.61,0.5 -1.24,1.03 -1.86,1.54l0.01 0zm29.52 -8.16c0,7.12 -2.77,13.81 -7.81,18.86l-7.6 7.6 -1.06 -20.64 16.47 -12.79 0 6.97 0 0 0 0z"/>
</svg>