<svg xmlns="http://www.w3.org/2000/svg" width="512" height="512" viewBox="0 0 128 128"><defs><style type="text/css">  
    .fil0 {fill:#727272}
    .fil1 {fill:#727272;fill-rule:nonzero}
   </style></defs><polygon class="fil0" points="71.7 24.8 77.9 20.1 78.4 25.5 74.4 28.6 "/><path class="fil0" d="M7.7 124.1c0-1.3-1.1-2.4-2.4-2.4-1.3 0-2.4 1.1-2.4 2.4 0 1.3 1.1 2.4 2.4 2.4 1.3 0 2.4-1.1 2.4-2.4z"/><path class="fil0" d="M68.3 63.9c0-1.3-1-2.4-2.4-2.4-1.3 0-2.4 1.1-2.4 2.4 0 1.3 1.1 2.4 2.4 2.4 1.3 0 2.4-1.1 2.4-2.4z"/><path class="fil0" d="M32.5 103.1c-1.2-0.6-2.6-0.1-3.2 1.1l-2.8 5.7c-1.2 2.5-3.7 4.1-6.4 4.3l-3.3 0.2c-0.6 0-0.9-0.2-1.1-0.4-0.2-0.2-0.4-0.5-0.4-1.1l0.2-3.3c0.2-2.7 1.8-5.2 4.3-6.4l5.7-2.8c1.2-0.6 1.7-2 1.1-3.2-0.6-1.2-2-1.6-3.2-1.1l-5.7 2.8c-4 2-6.6 5.9-6.9 10.4l-0.2 3.3c-0.1 1.8 0.5 3.5 1.8 4.8 1.2 1.2 2.7 1.8 4.3 1.8 0.1 0 0.3 0 0.4 0l3.3-0.2c4.4-0.3 8.4-2.9 10.4-6.9l2.8-5.7c0.6-1.2 0.1-2.6-1.1-3.2z"/><path class="fil0" d="M88.5 23.5c0-0.4-0.4-0.7-0.9-0.7l-4.4 0.5c-0.4 0.1-0.7 0.4-0.7 0.9 0.1 0.4 0.4 0.7 0.8 0.7 0 0 0.1 0 0.1 0l4.4-0.5c0.4 0 0.7-0.4 0.7-0.9z"/><path class="fil0" d="M115.6 3.2c-1.1-0.9-2.5-1.2-3.9-0.9 0 0 0 0 0 0-3.2 0.8-6.3 1.9-9.3 3.3-1.7-0.4-3.4-0.6-5.2-0.6-1.8 0-3.5 0.2-5.2 0.6-3-1.3-6.1-2.4-9.3-3.2 0 0 0 0 0 0-1.4-0.3-2.8 0-3.9 0.9-1.1 0.9-1.7 2.2-1.6 3.7 0.2 3.4 0.7 6.7 1.4 10-0.5 1.4-0.9 2.8-1.1 4.2-0.4 2.9 0.2 5.8 1.8 8.2-0.1 0.1-0.3 0.2-0.4 0.3-2.1-0.4-4-1.5-5.4-3.1-1.5-1.7-2.3-3.9-2.3-6.2 0-2.4 0.9-4.6 2.5-6.4 0.9-1 0.8-2.6-0.2-3.5-0.5-0.4-1.1-0.7-1.8-0.6-0.7 0-1.3 0.3-1.7 0.8-2.4 2.7-3.7 6.1-3.7 9.7 0 3.2 1 6.2 3 8.8 1.7 2.2 4.1 4 6.7 4.9-0.2 0.8-0.4 1.6-0.4 2.4l0 10.2c0 2 1.6 3.6 3.6 3.6 2 0 3.6-1.6 3.6-3.6l0-2.1c0.4 0.1 0.7 0.1 1.1 0.1l2.7 0 0 2c0 2 1.6 3.6 3.6 3.6 2 0 3.6-1.6 3.6-3.6l0-2c0.3 0 0.6-0.1 0.9-0.1l0 2.2c0 2 1.6 3.6 3.6 3.6 2 0 3.6-1.6 3.6-3.6l0-8.6c0.2-0.7 0.4-1.5 0.4-2.3l1.4 0c4.2 0 8.1-1.7 10.7-4.8 2.4-2.7 3.4-6.2 3-9.7-0.2-1.4-0.6-2.8-1.1-4.2 0.8-3.3 1.2-6.6 1.4-10 0.1-1.4-0.5-2.8-1.6-3.7zm-35.9 1.2c0.5-0.4 1.2-0.6 1.8-0.6 0.2 0 0.5 0 0.7 0.1 0 0 0 0 0 0 2.2 0.6 4.4 1.3 6.5 2.1-0.4 0.6-0.9 1.1-1.5 1.5-1.1-0.5-2.3-0.8-3.4-1.1-0.8-0.2-1.5 0-2.1 0.5-0.1 0.1-0.3 0.3-0.4 0.4-0.8-0.7-1.5-1.6-1.8-2.6 0.1-0.1 0.1-0.1 0.2-0.2zm8 5.4c-1.2 1.4-2.7 2.6-4.3 3.5-0.1 0.1-0.2 0-0.3 0 0 0-0.1-0.1-0.2-0.2 0 0 0 0 0 0-0.3-1.4-0.6-2.9-0.6-4.4 0-0.3 0.1-0.5 0.3-0.7 0.2-0.2 0.5-0.2 0.7-0.2 1.4 0.4 2.9 0.9 4.2 1.5 0.1 0.1 0.2 0.2 0.2 0.2 0 0.1 0 0.2-0.1 0.3zm-11.3 22.6c-2.4-0.8-4.5-2.4-6-4.4-1.7-2.3-2.6-5-2.6-7.8 0-3.2 1.2-6.3 3.3-8.6 0.2-0.2 0.4-0.3 0.6-0.3 0.2 0 0.5 0.1 0.7 0.2 0.4 0.3 0.4 0.9 0.1 1.3-1.8 2-2.9 4.7-2.9 7.4 0 2.7 1 5.3 2.7 7.3 1.4 1.6 3.2 2.8 5.2 3.4-0.4 0.5-0.8 1-1.1 1.6zm0.6 4c1.1 0.3 1.8 1.3 1.8 2.5 0 1.2-0.8 2.2-1.8 2.5l0-5zm23 10l0 0c0 1.1-0.9 2-2 2-1.1 0-2-0.9-2-2l0-2.6c0.4-0.1 0.7-0.3 1.1-0.5 0.7 1 1.7 1.6 2.9 1.8l0 1.3 0 0zm-1.6-4c0.3-0.2 0.6-0.5 0.9-0.8 0.3-0.3 0.5-0.5 0.7-0.8l0 2.7c-0.6-0.2-1.2-0.6-1.6-1.1zm-0.3-1.9c-1.4 1.5-3.4 2.3-5.4 2.3-0.4 0-0.8 0.4-0.8 0.8l0 2.8c0 1.1-0.9 2-2 2-1.1 0-2-0.9-2-2l0-2.8c0-0.4-0.3-0.8-0.8-0.8l-3.5 0c-0.6 0-1.1-0.1-1.7-0.2-0.2-0.1-0.5 0-0.7 0.1-0.2 0.2-0.3 0.4-0.3 0.6l0 3c0 1.1-0.9 2-2 2-1.1 0-2-0.9-2-2l0-3.4c1.9-0.4 3.4-2.1 3.4-4.1 0-2-1.4-3.6-3.2-4.1 0.4-1.8 1.5-3.3 3.1-4.3 0.1 0.1 0.1 0.2 0.2 0.2 2.6 3 6.5 4.8 10.7 4.8l9.2 0c-0.1 1.9-0.9 3.7-2.2 5zm17.5-33.8c-0.2 3.4-0.7 6.7-1.4 10 0 0.2 0 0.3 0 0.5 0.6 1.3 0.9 2.7 1.1 4 0.4 3.1-0.5 6.1-2.6 8.5-2.3 2.7-5.8 4.2-9.5 4.2l-12.2 0c-3.7 0-7.2-1.5-9.5-4.2-2.1-2.4-3-5.4-2.6-8.5 0.2-1.4 0.6-2.7 1.1-4 0.1-0.1 0.1-0.3 0-0.5-0.8-3.3-1.3-6.6-1.4-10 0-0.1 0-0.1 0-0.2 0.5 0.9 1.3 1.6 2.1 2.2 0.1 1.6 0.3 3.2 0.7 4.7 0 0 0 0 0 0 0.1 0.6 0.5 1 1.1 1.3 0.2 0.1 0.5 0.2 0.7 0.2 0.3 0 0.6-0.1 0.9-0.2 1.8-1 3.3-2.3 4.7-3.8 0.4-0.4 0.6-1 0.4-1.6-0.1-0.4-0.3-0.7-0.5-1 0.6-0.5 1.1-1.1 1.4-1.7 0.4 0.2 0.9 0.4 1.3 0.6 0.2 0.1 0.4 0.1 0.5 0 1.7-0.4 3.4-0.7 5.1-0.7 1.7 0 3.4 0.2 5.1 0.7 0.2 0.1 0.4 0 0.5 0 3-1.4 6.1-2.5 9.3-3.3l0 0c0.9-0.2 1.8 0 2.5 0.6 0.7 0.6 1.1 1.4 1 2.4z"/><path class="fil0" d="M111.1 23.4l-4.4-0.5c-0.4 0-0.8 0.3-0.9 0.7 0 0.4 0.3 0.8 0.7 0.9l4.4 0.5c0 0 0.1 0 0.1 0 0.4 0 0.7-0.3 0.8-0.7 0.1-0.4-0.3-0.8-0.7-0.9z"/><path class="fil0" d="M88.1 25.4l-3.5 2.7c-0.3 0.3-0.4 0.8-0.1 1.1 0.2 0.2 0.4 0.3 0.6 0.3 0.2 0 0.3 0 0.5-0.2l3.5-2.7c0.4-0.3 0.4-0.8 0.1-1.1-0.3-0.3-0.8-0.4-1.1-0.1z"/><path class="fil0" d="M109.6 28.2l-3.5-2.7c-0.3-0.3-0.8-0.2-1.1 0.1-0.3 0.4-0.2 0.8 0.1 1.1l3.5 2.7c0.1 0.1 0.3 0.2 0.5 0.2 0.2 0 0.5-0.1 0.6-0.3 0.3-0.3 0.2-0.8-0.1-1.1z"/><path class="fil0" d="M112.6 6.8c-0.6-0.5-1.4-0.7-2.1-0.5-1.5 0.4-3 0.9-4.5 1.6-0.5 0.3-0.9 0.7-1 1.3-0.1 0.6 0 1.2 0.4 1.6 1.3 1.5 2.9 2.8 4.7 3.8 0.3 0.2 0.6 0.3 0.9 0.3 0.3 0 0.5 0 0.7-0.1 0.6-0.2 0.9-0.7 1.1-1.3 0 0 0 0 0 0 0.4-1.5 0.6-3.1 0.7-4.7 0-0.8-0.3-1.5-0.9-2zm-1.3 6.3c0 0 0 0 0 0 0 0.1-0.1 0.2-0.2 0.2 0 0-0.2 0.1-0.3 0-1.6-0.9-3-2.1-4.3-3.5-0.1-0.1-0.1-0.2-0.1-0.3 0 0 0.1-0.1 0.2-0.2 1.3-0.6 2.8-1.1 4.2-1.5 0.1 0 0.1 0 0.2 0 0.2 0 0.4 0.1 0.5 0.2 0.2 0.2 0.3 0.4 0.3 0.7-0.1 1.5-0.3 3-0.6 4.4z"/><path class="fil0" d="M105.8 19.2l0-1.2c0-0.4-0.3-0.8-0.8-0.8-0.4 0-0.8 0.4-0.8 0.8l0 1.3c0 0.4 0.4 0.8 0.8 0.8 0.4 0 0.8-0.3 0.8-0.8z"/><path class="fil0" d="M89.3 17.2c-0.4 0-0.8 0.4-0.8 0.8l0 1.3c0 0.4 0.4 0.8 0.8 0.8 0.4 0 0.8-0.3 0.8-0.8l0-1.2c0-0.4-0.3-0.8-0.8-0.8z"/><path class="fil0" d="M101.7 26.1c-2 0-2.9-0.9-3.4-1.6 0.6-0.2 1.1-0.6 1.5-1.1l0.6-0.8c0.4-0.4 0.4-1 0.2-1.5-0.2-0.5-0.7-0.8-1.2-0.8l-4.6 0c-0.5 0-1 0.3-1.3 0.8-0.2 0.5-0.2 1.1 0.2 1.5l0.6 0.8c0.4 0.5 0.9 0.9 1.5 1.1-0.4 0.7-1.4 1.6-3.4 1.6-0.4 0-0.8 0.4-0.8 0.8 0 0.4 0.4 0.8 0.8 0.8 0.4 0 0.7 0 1.1-0.1l0 0.9c0 1.9 1.6 3.5 3.5 3.5 1.9 0 3.5-1.6 3.5-3.5l0-0.8c0.3 0.1 0.7 0.1 1.1 0.1 0.4 0 0.8-0.3 0.8-0.8 0-0.4-0.4-0.8-0.8-0.8zm-6.1-3.7l-0.4-0.4 3.8 0-0.4 0.5c-0.4 0.4-0.9 0.7-1.5 0.7-0.6 0-1.1-0.3-1.5-0.7zm3.5 6c0 1.1-0.9 1.9-1.9 1.9-1.1 0-1.9-0.9-1.9-1.9l0-1.3c0.4-0.2 0.8-0.4 1.2-0.7l0 1.5c0 0.4 0.4 0.8 0.8 0.8 0.4 0 0.8-0.3 0.8-0.8l0-1.5c0.3 0.3 0.7 0.5 1.2 0.7l0 1.3 0 0z"/><path class="fil0" d="M122.1 8c-1.1-1.1-2.6-1.7-4.2-1.6l-1.3 0.1-0.6 4.8 0 0 2.2-0.1c0.3 0 0.5 0.1 0.6 0.2 0.1 0.1 0.2 0.3 0.2 0.6l0 1.2c-0.9 19.4-10.3 37.4-25.6 49.3l-37.1 28.8c-3.1-1.8-5.9-3.9-8.6-6.3l12.5-12.5c0.9-0.9 0.9-2.4 0-3.3-0.9-0.9-2.4-0.9-3.3 0l-12.5 12.5c-2.3-2.5-4.3-5.3-6.1-8.3l30.4-37.5c1.2-1.5 2.5-2.9 3.8-4.3l-3.1-3.6c-1.5 1.6-3 3.2-4.4 4.9l-5.2 6.4-13.6-0.4c0 0 0 0-0.1 0-10.8 0-20.9 4.2-28.5 11.8l-13.9 13.9c-0.7 0.7-0.9 1.7-0.5 2.5 0.3 0.9 1.2 1.5 2.1 1.5l29.5 1.5-1.2 1.5c-0.6 0.7-0.7 1.8-0.2 2.6 0.5 0.9 1 1.7 1.5 2.5l-7 8.3c-0.6 0.7-0.7 1.7-0.3 2.5 1.5 3.2 3.6 6.1 6 8.6 2.5 2.6 5.5 4.6 8.8 6.2 0.3 0.2 0.7 0.2 1 0.2 0.5 0 1.1-0.2 1.5-0.5 1.5-1.2 3.2-2.7 4.9-4.1 1.2-1 2.4-2 3.6-3 0.7 0.4 1.4 0.8 2.1 1.2 0.4 0.2 0.7 0.3 1.1 0.3 0.5 0 1-0.2 1.5-0.5l1.6-1.3 1.5 29.6c0.1 0.9 0.6 1.8 1.5 2.1 0.3 0.1 0.6 0.2 0.8 0.2 0.6 0 1.2-0.2 1.7-0.7l13.9-13.9c7.6-7.6 11.8-17.7 11.8-28.5l0-13 5.5-4.3c16.4-12.8 26.5-32 27.5-52.8l0.1-1.1c0.1-1.6-0.5-3.1-1.6-4.2zm-111.3 56l10.1-10.1c6.7-6.7 15.6-10.4 25.1-10.4l9.9 0.3-17.6 21.7-27.6-1.4zm35.8 30.2c-1.2 1-2.5 2.1-3.7 3.1-2.3-1.2-4.3-2.8-6.1-4.6-1.7-1.7-3.2-3.7-4.4-5.9l5.1-6.1c1.6 2.1 3.2 4 5.1 5.9 0 0 0 0 0 0 0 0 0 0 0 0 0 0 0 0 0 0 2 2 4.2 3.9 6.5 5.6-0.8 0.7-1.6 1.4-2.5 2.1zm39.4-10.9c0 9.5-3.7 18.4-10.4 25.2l-10.1 10.1-1.4-27.5 22-17.1 0 9.3 0 0z"/><path class="fil1" d="M101.4 35.1c0.2 0.4 2.5-1.1 2.7-0.8 1.7 3.6 2.2 7.8 1 11.9-1.3 4.6-4.3 8.2-8.1 10.4-3.8 2.2-8.5 2.9-13 1.6-4.6-1.3-8.2-4.3-10.4-8.1-2.2-3.8-2.9-8.5-1.6-13 0.5-1.7 1.2-3.4 2.2-4.8l3.3 3.4c0.4 0.4-0.5 0-0.9 0.6-0.3 0.4-0.1 1.7-0.2 2.1-0.9 3.4-0.4 6.8 1.2 9.6 1.6 2.8 4.2 5 7.6 5.9 3.4 0.9 6.8 0.4 9.6-1.2 2.8-1.6 5-4.2 5.9-7.6 0.7-2.6-1.3-5.3-0.3-7.6l1-2.3z"/></svg>