<svg xmlns="http://www.w3.org/2000/svg" viewBox="0 0 128 128"><defs><style>.fil0{fil0:#727272}</style></defs><path class="fil0" d="M192 75.7v-5.1l-.2-10c0-2.5.1-2.2 1.9-3.3l9.9-5.7 1.7-1c.8-.4 1-.7 1.9-.8V65c0 2.8 0 2.1-2 3.3-2 1-12 7.1-13.3 7.3zm-38.2 23.5c-1.9-.2-9.6-5.9-12.4-7l.2-14.4c1.3.1 9.2 5.2 10.9 6.2 1.3.8 1.6.6 1.5 2.7l-.2 12.5z"/><path class="fil1" d="M260.2 97.2v14.4c-1.7.7-4.3 2.5-6 3.5l-3.1 1.7c-4 2.2-2 2.5-9.4-1.7-1.6-1-4.7-2.6-6-3.7v-12c-4.8-3-3.4-2.7-7.9-.3-1.1.6-7 4-7.6 4.1-1.1 0-9.4-5.5-11.1-6.5-.8-.4-1 0-1.8.4l-1.9 1.1-.4 15.2c-3.8 2.4-8 4.3-11.7 6.5-5.5 3.3-4.6 2-12.3-2.5-1.4-.7-2.3-1.4-3.9-2.3-.8-.5-3-1.7-3.7-2.4l.2-14.1-3.3-1.9a184 184 0 0 1-8.3 4.7l-4 2.3c-4.2 2.5-3.2 2-8.3-1-1.9-1.2-11.3-7-12.1-7.2V73.8l15.6-8.7c2-1.2 2.2-1 4.2 0L165 70c1.3.6 3-.6 4-1.5v-23c3.3-2.2 7.4-4.4 10.7-6.3 13-7.2 9-7.4 16.5-3.1l11 6.2c1.7 1 3.7 2.1 5.3 3.3.4 2.4.2 8.5.1 11.2V68c0 2.5.3 2.5-1.9 3.6l-3.6 2.1-7.2 4.2c-2.4 1.4-4.9 2.8-7.1 4.3-2.7 1.6-4.3-.3-7.6-2.3l-10.8-6.2c-1-.6-2.8-2.3-3.7-.7.5 1.1 2.3.5 2.4 3.1.1 1.8-.2 3.7-.2 5.5 0 3.6-.3 7.8 0 11.3l1.7 1 7.9-4.4 3.8-2.2c4.1-2.4 3.3-1.8 8.1 1l7.7 4.6c1.5 1 1.2 1.3 4-.5l.2-13.4a214 214 0 0 1 14-7.9c1-.1 6 3.2 7.1 3.8 2.3 1.4 5 2.9 7 4.3v14.1c5.7 2.6 2.3 3.4 9.6-.8 4.3-2.4 3.4-2.5 5.5-1.3l10.7 6zm-12.9 7.2v9.7c-1 0-7.4-3.9-8.5-4.7v-9.6c.9 0 7.5 4 8.5 4.6zm1.3 9.9v-9.6l4-2.4c1.1-.6 3.2-2 4.5-2.3v5.6c0 3.7.4 3.9-1.1 4.8-1.4.7-6.2 3.9-7.4 3.9zM190 117c-.3-1.5-.1-5.7 0-7.4 0-3.2-.6-5 1.4-6.2 1.4-.7 8.8-5 9.8-5.2v11.1c-.2 1.7-.3 1.7-1.6 2.4L190 117zm-1.8-.4c-1 0-9.4-5.5-11-6.2l.3-12.7c1.1 0 8.2 4.6 9.7 5.5 2 1.2 1.4 1.4 1.3 6-.1 2.2 0 5.2-.3 7.4zm-19.9-26.3c.6.4.7.7 1.5.6 0-3.5.6-12.9.3-14.8-3.7-2-6.8-4-10.3-6.1-1.7-1-4.2-3-5.3-2.5L144 73.3c-2.8 1.6-4.4 2-4.4 3.7l-.1 16.3 13.7 8.3c1.7 1.1 2.1.4 3.6-.5l3.5-2 6.9-3.8c-.3-.6-1-.8-1.5-1a2 2 0 0 0-.4 0c-2.2.7-7 4.3-9.4 5l-.4.1V91c0-4.3-.5-5.4 1.8-6.7l5.4-3c1.1-.6 4.1-2.5 5.3-2.8h.2l.1 11.9zm41.6-8.5v-.3c1.2.3 8.5 5 9.7 5.8l-.3 11v.3c-.7-.1-6.4-3.4-7.1-4.2-.9.3-1 .2-1.4.9.2.2 8.8 5.4 9 5.4a53 53 0 0 0 9.3-5l-.8-.5h-1c-1.9.6-4.2 2.8-6 3.3h-.4v-9.8c0-1.4.3-1.4 1.3-2a141 141 0 0 1 8.6-4.6c0 1.4-.2 8.2.3 9.3l.3.4c.4 0 .3-.1.6-.2l.2-11.2-9-5.4c-.6-.3-2.2-1.6-3-1.4l-11.8 6.7-.2 10.7c.6 0 .7-.2 1.2-.5.3-.5.4-7.4.4-8.7zm-35.6-32v-.2c1.3.3 14.5 8 15.5 9-.4 2.3 0 13.4 0 17h-.2v.2c-1 0-5.2-2.6-6-3.2-1.1-.6-5.6-3-6-3.5-1 .1-1.9.9-2.3 1.3.9.7 3.2 1.9 4.3 2.5l8.3 4.8c4.1 2.3 2 2 12.9-4.2 1.5-.8 7.6-4.2 8.3-4.9V47.1l-9.3-5.3c-1.3-.8-8.5-5.2-9.3-5-.2 0-17.5 9.9-18.3 10.5v19.2c.6 0 1.6-.7 2-1.2V49.8h.1z"/><path class="fil0" d="M-135 48.4c.7 1.9 2.4 3 4.3 3h11.7c2 0 3.7-1.2 4.3-3 .6-1.8 2.5-5.7 4-7 1.3-1.1 2-2.8 1.6-4.5a4.5 4.5 0 0 0-3-3.4c-4.7-1.6-9-1-12.1 1.5-.6.5-1.4.5-2 0-3.1-2.5-7.3-3-12-1.5a4.5 4.5 0 0 0-3 3.4c-.4 1.7.2 3.4 1.5 4.5 1.7 1.4 4.3 5.7 4.7 7zm-3.2-10.9c0-.3.3-.8 1-1a12 12 0 0 1 4-.7c2 0 3.7.5 5 1.7a4.7 4.7 0 0 0 6 0c2.3-2 5.4-2.2 9-1 .8.2 1 .7 1 1 .1.6 0 1.1-.5 1.5-2.4 2-4.6 7.2-5 8.4-.2.5-.7 1-1.3 1h-11.7c-.6 0-1-.5-1.3-1-.6-2-3.6-6.6-5.7-8.4-.4-.4-.6-1-.5-1.5zm26.7 17.1c0-.8-.7-1.5-1.5-1.5-.3 0-.6 0-.8.2l-.8-.2h-18.9c-.8 0-1.5.7-1.5 1.5 0 1 .7 1.6 1.5 1.6h18.9v1.6H-132a1.6 1.6 0 1 0 0 3.1h18.8a7.7 7.7 0 0 0 10.5-.4c.6-.6.6-1.6 0-2.2-.6-.7-1.6-.7-2.2 0a4.8 4.8 0 0 1-6.7 0v-3.7zm-15.7 19c-10 0-22 12.7-22 23.5 0 .9.7 1.6 1.6 1.6.8 0 1.5-.7 1.5-1.6 0-9 10.6-20.4 19-20.4a1.6 1.6 0 0 0 0-3.2zm44 9.4c-1.6 0-3.5 0-5.5.3a29 29 0 0 0-8.4-10l-11.3-7.6a14 14 0 0 0-8.3-3.2h-12.2c-3 0-6 1-8.3 2.9l-11.2 8a30.8 30.8 0 0 0-8.7 38c2.4 4.8 6.4 10.4 11.8 10.8h31.9a12.6 12.6 0 0 0 20.6-1.3c2.8.9 6.2 1.4 9.6 1.4 7.6 0 15.8-2.4 15.8-6.3v-8.7h-.1V88.5c0-4.4-9.8-5.6-15.7-5.6zm12.5 5.4l-.1.1-.2.2-.4.2-.3.2-.6.2-.5.2-.8.2-.6.2-1 .2-.7.1-1.3.2-.8.1-1.6.2h-.8a47 47 0 0 1-5.5 0h-.8l-1.6-.2h-.9l-1.2-.3-.7-.1-1-.2-.6-.2-.8-.2-.5-.2-.6-.2-.3-.2-.4-.2-.2-.2h-.1v-.1l.3-.2.4-.2.4-.2.4-.2c.1 0 .3 0 .5-.2h.5l1.1-.4.6-.1.8-.2 1-.2a44 44 0 0 1 6.4-.4c7.5 0 11.6 1.5 12.5 2.3zm-24 13l.5.1.8.4.5.1 1 .3.3.1a22.5 22.5 0 0 0 1.8.4l1.2.2h.6l1 .2h.6a21 21 0 0 0 1.6.1h4.8l.6-.1 1.1-.1.5-.1 1.2-.2h.4l1.4-.4.4-.1 1-.3.5-.1a16.4 16.4 0 0 0 1.3-.5l.8-.4.2-.1v5.5c-.3 1-4.4 3-10.8 3.2h-1.8c-3.4 0-6.8-.5-9.5-1.4l-.6-1v-.1l-.7-.8-.2-.2a9 9 0 0 0-.6-.7l-.3-.3-.6-.5v-3.7l.2.1.8.4zm-20.7 17.7H-145c-3.2-.2-6.5-3.4-9.3-9a27.7 27.7 0 0 1 7.8-34.1l11.2-8.1c1.8-1.5 4-2.3 6.4-2.3h12.2a11 11 0 0 1 6.4 2.6l11.4 7.7a28 28 0 0 1 7 7.9 14.6 14.6 0 0 0-5.4 2l-.5.4-.2.2-.4.5-.2.4-.1.3-.2.9v14.3c-.5-.3-1-.4-1.6-.6h-.3c-.5-.2-1-.3-1.6-.3h-2.1c-.6 0-1.1 0-1.7.2h-.1l-1.5.4-.5.2-1.3.7c-.2 0-.4.2-.5.3l-.9.6c-.2 0-.4.2-.5.3l-1 1-.5.4-.7.9-.3.4a16.3 16.3 0 0 0-1.5 3l-.1.3-.4 1.6v.5l-.2 1.1v1.3c.1 1.4.3 2.8.7 4zm11.8 4.7a9.4 9.4 0 0 1-9.4-9.3v-1.3l.1-.4c0-.5.2-.9.3-1.3l.5-1.2v-.1c1-1.7 2.3-3.1 3.9-4a8 8 0 0 1 1.2-.6h.3l1-.4h.2l1.3-.2h1.7l1.5.3a9 9 0 0 1 2.7 1.3l.2.1a8.5 8.5 0 0 1 1.6 1.5 9.2 9.2 0 0 1 1.6 2.5l.3.8.2 1 .2.8v.1a7.9 7.9 0 0 1 0 2v.1l-.2.9-.2 1-.4.9a9.5 9.5 0 0 1-8.6 5.5zm20.4-4.7c-3 0-6-.4-8.4-1v-.1l.4-1.6v-.4a12.5 12.5 0 0 0 0-3.2v-.6a45.4 45.4 0 0 0 20.6-1.3v5c-.4 1-5.1 3.2-12.6 3.2zm0-18.9c-7.4 0-12.1-2.2-12.5-3.1V92h.1l1.2.5a17.5 17.5 0 0 0 2.9.7h.5a40 40 0 0 0 1.5.3l1.5.2h.4l1.2.1h.5l1 .1h5l1.2-.2h.3l1.6-.2h.3l1.2-.2h.5a30.5 30.5 0 0 0 2.9-.8l1.2-.5h.1v5c-.4 1-5.1 3.3-12.6 3.3zM25 124.1a1.8 1.8 0 1 0-3.6 0 1.8 1.8 0 0 0 3.6 0zm70.4-73.4c-1.5 0-2.2-.7-2.5-1.2l1.1-.8.5-.6c.3-.3.3-.7.1-1.1a1 1 0 0 0-.9-.6h-3.4a1 1 0 1 0-.8 1.7l.5.6 1.1.8c-.3.5-1 1.2-2.5 1.2-.4 0-.6.2-.6.5 0 .4.2.6.6.6h.8v.6a2.6 2.6 0 0 0 5.2 0v-.6h.8c.4 0 .6-.2.6-.5 0-.4-.2-.6-.6-.6zM91 47.9l-.3-.3h2.8l-.3.3c-.3.3-.7.5-1.1.5-.4 0-.8-.2-1.1-.5zm2.5 4.5c0 .8-.6 1.5-1.4 1.5-.8 0-1.5-.7-1.5-1.5v-1c.4-.1.7-.3.9-.5V52c0 .3.3.6.6.6s.6-.3.6-.6v-1l.9.5v1zM86.2 44c-.3 0-.6.3-.6.6v1c0 .3.3.5.6.5s.6-.2.6-.6v-.9c0-.3-.3-.6-.6-.6zm12.4 1.5v-.9c0-.3-.3-.6-.6-.6s-.6.3-.6.6v1c0 .3.3.5.6.5s.6-.2.6-.6zm5.1-9.3c-.5-.4-1-.5-1.6-.4a20 20 0 0 0-3.4 1.2c-.4.2-.6.6-.7 1-.1.5 0 .9.3 1.2 1 1.2 2.2 2.1 3.5 2.9l.7.2.5-.1c.4-.2.7-.5.8-1 .3-1.1.5-2.3.5-3.5a2 2 0 0 0-.6-1.5zm-1 4.7l-.1.2h-.2c-1.2-.7-2.3-1.6-3.2-2.6v-.4c1-.5 2.1-.8 3.2-1.1h.2l.3.1c.2.2.3.3.3.5 0 1.2-.2 2.3-.5 3.3zm-1.2 11.3l-2.7-2a.6.6 0 0 0-.8 0c-.2.3-.1.7.1 1l2.6 2h.4l.5-.1c.2-.3.1-.7-.1-.9zm-16.2-2l-2.6 2a.6.6 0 0 0 .4 1h.4l2.6-2c.2-.3.3-.7 0-1a.6.6 0 0 0-.8 0zm17.2-1.6l-3.3-.4a.6.6 0 0 0-.1 1.2l3.3.4c.4 0 .6-.2.6-.5s-.1-.6-.5-.7zm3.4-15a3 3 0 0 0-3-.7c-2.3.6-4.7 1.4-6.9 2.4a16.1 16.1 0 0 0-7.8 0c-2.3-1-4.6-1.8-7-2.4a3.3 3.3 0 0 0-4.1 3.4c.1 2.5.5 5 1 7.5a11 11 0 0 0-.7 2.6l-4 3a7.1 7.1 0 0 1 1-8c.7-.7.6-1.9-.2-2.5-.3-.4-.8-.5-1.3-.5s-1 .2-1.3.6a10.8 10.8 0 0 0-.8 13.5c-1 1-2 2-2.9 3.2L64 60.5l-10.2-.3A30 30 0 0 0 32.3 69L21.9 79.4a1.8 1.8 0 0 0 1.2 3l22 1.2-.8 1.1c-.5.6-.6 1.3-.2 2l1 1.9-5.2 6.2c-.4.5-.5 1.2-.2 1.9a23.3 23.3 0 0 0 11 11c.3.2.6.2.8.2a2 2 0 0 0 1.2-.4l3.6-3 2.7-2.2 1.6.9a1.8 1.8 0 0 0 1.9-.2l1.2-1 1.1 22.2c0 .7.5 1.3 1.2 1.6h.6c.5 0 1 0 1.3-.4l10.4-10.5a30 30 0 0 0 8.8-21.3v-9.7l4.2-3.2A53.3 53.3 0 0 0 111.8 41v-.8c.2-1.2-.3-2.4-1.1-3.2-.9-.8-2-1.2-3.2-1.1h-.5a3 3 0 0 0-1.2-2.5zm-28.4 17c.3.9.7 1.7 1.2 2.5l-.3.2a7 7 0 0 1-2.8-1.2l2-1.5zM73.2 55l1.3.8a12.8 12.8 0 0 0 7.6 19 12.9 12.9 0 0 0 15.5-17.1c2.7-.2 5.2-1.5 7-3.5a9 9 0 0 0 2.2-7.3c-.2-1-.4-2.1-.9-3.1.4-1.4.6-2.8.8-4.2l1-.1c.3 0 .4 0 .5.2l.2.4v.9c-.8 14.5-7.8 28-19.3 36.9L61.3 99.5c-2.3-1.4-4.5-3-6.5-4.8l9.4-9.4c.7-.6.7-1.8 0-2.5s-1.8-.7-2.5 0l-9.4 9.4c-1.7-1.9-3.2-4-4.5-6.2l22.8-28 2.6-3zm5.3 13.6c1.4 0 2.5-1.2 2.5-2.7v-1.5h3V66a2.7 2.7 0 1 0 5.3 0v-1.5l.7-.1V66c0 1.5 1.2 2.7 2.7 2.7a9.4 9.4 0 0 1-14.1 0zm.4-34.2a2.1 2.1 0 0 1 2-.4c1.6.4 3.2 1 4.8 1.6-.3.4-.7.8-1.2 1.1l-2.5-.9a1.8 1.8 0 0 0-2 .7 3.8 3.8 0 0 1-1.2-2h.1zm6 4c-.9 1.1-2 2-3.2 2.7h-.2l-.1-.2c-.3-1-.4-2.2-.5-3.3 0-.2 0-.3.2-.5.2-.1.4-.2.6-.1 1 .3 2.1.6 3.1 1.1l.2.2v.2zm-8.5 17a9.7 9.7 0 0 1-6.5-9.1c0-2.4.9-4.7 2.5-6.5.1-.2.3-.2.5-.2l.4.1c.3.3.3.7.1 1a8.3 8.3 0 0 0-.1 11c1 1.2 2.4 2 4 2.5a5 5 0 0 0-.9 1.2zm.5 3a2 2 0 0 1 0 3.8v-3.8zM94 66c0 .9-.7 1.5-1.5 1.5S91 66.8 91 66v-2c.3 0 .5-.2.8-.3.5.7 1.3 1.2 2.2 1.4v1zm-1.2-3a7.1 7.1 0 0 0 1.2-1.2v2c-.5 0-1-.4-1.2-.8zm-.2-1.4a6 6 0 0 1-4 1.8c-.4 0-.6.2-.6.6v2a1.5 1.5 0 0 1-3 0v-2c0-.4-.3-.6-.6-.6h-2.6c-.5 0-1 0-1.3-.2l-.5.1c-.2.1-.3.3-.3.5V66a1.5 1.5 0 0 1-2.4 1.2l-.5-1.1v-2.6a3.1 3.1 0 0 0 0-6.2 5 5 0 0 1 2.4-3.2l.1.2c2 2.2 4.9 3.5 8 3.5h7a5.8 5.8 0 0 1-1.7 3.8zm13.1-25.3a42.8 42.8 0 0 1-1 7.8c.4 1 .7 2 .8 3 .3 2.4-.3 4.6-2 6.4a9.4 9.4 0 0 1-7 3.2h-9.2a9.4 9.4 0 0 1-7.1-3.2 7.9 7.9 0 0 1-2-6.3l.9-3v-.4c-.5-2.5-1-5-1-7.5v-.1a5 5 0 0 0 1.5 1.6c0 1.2.3 2.4.5 3.5.2.5.4.8.9 1h.5l.7-.1c1.3-.8 2.5-1.7 3.5-2.9a1.4 1.4 0 0 0 0-1.9l1-1.3 1 .5h.4a14.8 14.8 0 0 1 7.6 0h.4a42 42 0 0 1 7-2.5c.6-.2 1.3 0 1.9.4.5.5.8 1.1.7 1.8zM85.5 48.8c0-.4-.3-.6-.6-.6l-3.3.4c-.4 0-.6.4-.6.7 0 .3.3.5.6.5h.1l3.3-.4c.3 0 .6-.3.5-.6zm-42 59.6c-.8-.4-1.9 0-2.3.8l-2.1 4.2a6.1 6.1 0 0 1-4.8 3.3l-2.5.1a1 1 0 0 1-.8-.3 1 1 0 0 1-.3-.8l.2-2.5c0-2 1.3-3.9 3.2-4.8l4.2-2c.9-.5 1.3-1.6.8-2.5a1.8 1.8 0 0 0-2.4-.8l-4.2 2.2c-3 1.4-5 4.4-5.2 7.7l-.2 2.5c0 1.3.4 2.6 1.4 3.5a4.6 4.6 0 0 0 3.5 1.4l2.5-.2a9.4 9.4 0 0 0 7.8-5.2l2-4.2c.5-1 .2-2-.7-2.4zm27-29.4c0-1-.8-1.7-1.8-1.7s-1.8.8-1.8 1.7c0 1 .8 1.8 1.8 1.8s1.8-.8 1.8-1.8zm-43.1.1l7.6-7.6c5-5 11.7-7.8 18.8-7.8l7.4.2L48 80.2l-20.6-1zM54 101.8c-1 .7-2 1.5-2.8 2.3a19.7 19.7 0 0 1-7.9-8l3.8-4.5c1.2 1.6 2.5 3 3.8 4.4 1.6 1.5 3.2 3 5 4.2l-2 1.6zm29.5-8.2c0 7.1-2.8 13.8-7.8 18.9l-7.6 7.6-1-20.7 16.4-12.8v7z"/></svg>