<svg viewBox="0 0 28 29" xmlns="http://www.w3.org/2000/svg"><g fill="none" fill-rule="evenodd"><path d="M4.23 3.232C3.944 3.09.337 6.072.337 8.265c-.005 2.998 4.207 9.79 4.917 12.418.61 2.253-1.036 4.957-.583 5.08.413.265 4.343-3.714 4.496-5.411.197-2.702-4.59-10.58-4.97-12.615-.443-2.374.35-4.452.031-4.505z" fill="#1A5099"/><path d="M13.232.13C12.87-.05 8.27 3.748 8.27 6.548c-.005 3.824 5.366 12.486 6.27 15.833.778 2.874-1.32 6.323-.746 6.477.53.337 5.54-4.734 5.737-6.9.252-3.445-5.854-13.49-6.34-16.089-.563-3.02.445-5.672.042-5.739z" fill="#4BA2F2"/><path d="M22.524 3.232c-.282-.142-3.892 2.84-3.892 5.033-.004 2.998 4.208 9.79 4.918 12.418.61 2.253-1.036 4.957-.584 5.08.416.265 4.346-3.714 4.497-5.411.197-2.702-4.589-10.58-4.97-12.615-.443-2.374.35-4.452.03-4.505z" fill="#1A5099"/></g></svg>