<svg xmlns="http://www.w3.org/2000/svg" viewBox="0 0 20 22"><g fill="none" fill-rule="evenodd"><path fill="#333" fill-rule="nonzero" d="M14.334 11.725a5330.859 5330.859 0 0 0 .004-2.462c-1.46.684-3.75 1.051-6.338 1.051-2.587 0-4.877-.366-6.336-1.05a4548.89 4548.89 0 0 0 .005 2.468c.215.498 2.985 1.297 6.331 1.297 3.361 0 6.141-.806 6.334-1.304zm-.004 1.885c-1.46.682-3.747 1.047-6.33 1.047-2.581 0-4.866-.365-6.326-1.045a1236.575 1236.575 0 0 0 .009 2.029c.001.18.002.318.004.414.39.601 3.113 1.316 6.313 1.316 3.349 0 6.172-.785 6.349-1.388-.034.116-.025-.296-.03.06a574.881 574.881 0 0 0 .01-2.432zM.013 11.67a4277.212 4277.212 0 0 1-.007-4.213A1.504 1.504 0 0 1 0 7.328h.005L0 2.987C0 1.079 3.563 0 8 0c4.437 0 8 1.079 8 2.986l-.004 4.343H16c0 .038-.001.077-.004.115a8402.322 8402.322 0 0 1-.007 4.227H16c0 .062-.004.122-.01.181a2346.665 2346.665 0 0 1-.012 3.778l-.003.43c-.006.557 0 .252-.036.376C15.459 18.063 12.094 19 8 19c-4.052 0-7.395-.921-7.923-2.514-.045-.136-.037.15-.045-.4a458.87 458.87 0 0 1-.011-1.938c-.003-.637-.005-1.4-.007-2.273A1.492 1.492 0 0 1 0 11.67h.013zm14.328-4.309l.002-2.444C12.883 5.603 10.591 5.97 8 5.97c-2.59 0-4.883-.367-6.343-1.053l.004 2.448C1.8 7.863 4.603 8.686 8 8.686c3.407 0 6.216-.828 6.34-1.324zM8 4.342c3.485 0 6.345-.865 6.345-1.356 0-.492-2.86-1.357-6.345-1.357s-6.345.865-6.345 1.357c0 .491 2.86 1.357 6.345 1.357z"/><path fill="#333" fill-rule="nonzero" d="M14.5 21.65a5.15 5.15 0 1 1 0-10.3 5.15 5.15 0 0 1 0 10.3zm0-1.3a3.85 3.85 0 1 1 0-7.7 3.85 3.85 0 0 1 0 7.7z"/><path fill="#FFF" d="M14.5 20.35a3.85 3.85 0 1 0 0-7.7 3.85 3.85 0 0 0 0 7.7z"/><rect width="5" height="1.2" x="12" y="16" fill="#333" rx=".6"/><rect width="5" height="1.2" x="12" y="16" fill="#333" rx=".6" transform="rotate(90 14.5 16.6)"/></g></svg>
