<?xml version="1.0" encoding="UTF-8"?>
<!DOCTYPE svg PUBLIC "-//W3C//DTD SVG 1.1//EN" "http://www.w3.org/Graphics/SVG/1.1/DTD/svg11.dtd">
<!-- Creator: CorelDRAW 2017 -->
<svg xmlns="http://www.w3.org/2000/svg" xml:space="preserve" width="210mm" height="297mm" version="1.1" style="shape-rendering:geometricPrecision; text-rendering:geometricPrecision; image-rendering:optimizeQuality; fill-rule:evenodd; clip-rule:evenodd"
viewBox="0 0 21000 29700"
 xmlns:xlink="http://www.w3.org/1999/xlink">
 <defs>
  <style type="text/css">
   <![CDATA[
    .fil0 {fill:#727272}
   ]]>
  </style>
 </defs>
 <g id="Слой_x0020_1">
  <metadata id="CorelCorpID_0Corel-Layer"/>
  <path class="fil0" d="M14118.18 13891.3l-1787.55 -794.47c-126.29,-56.11 -207.83,-181.66 -207.83,-319.8l0.01 -490.88c600.47,-478.45 986.43,-1215.21 986.43,-2040.86l0 -690.99c197.82,-109.31 328.78,-320.54 328.78,-557.12l0 -67.06c0,-1438.67 -1170.47,-2609.13 -2609.13,-2609.13l-657.57 0c-1438.67,0 -2609.13,1170.47 -2609.13,2609.13l0 608.47c0,207.95 89.5,396.33 245.48,516.88 26.46,20.43 54.3,38.39 83.3,53.94l0 135.84c0,825.65 385.92,1562.41 986.35,2040.82l0 490.92c0,138.14 -81.58,263.69 -207.83,319.8l-1787.55 794.47c-585.42,260.16 -963.71,842.26 -963.71,1482.88l0 4077.13c0,169.89 137.73,307.62 307.62,307.62 169.89,0 307.62,-137.73 307.62,-307.62l0 -4077.08c0,-35.64 2.54,-70.88 6.23,-105.82l823.68 823.68c128.17,128.22 198.8,298.64 198.8,479.97l0 2879.3c0,169.89 137.73,307.62 307.62,307.62 169.89,0 307.62,-137.73 307.62,-307.62l0 -2879.3c0,-345.64 -134.57,-670.57 -378.99,-914.98l-981.96 -982c88.47,-91.79 194.62,-167.88 315.37,-221.57l1757.4 -781.06 1303.27 1303.27 0 4475.59c0,169.89 137.73,307.62 307.62,307.62 169.89,0 307.62,-137.73 307.62,-307.62l0.01 -4475.55 1303.27 -1303.27 1757.36 781.02c120.75,53.69 226.9,129.77 315.37,221.61l-981.96 981.96c-244.41,244.41 -378.99,569.34 -378.99,914.98l0 2879.3c0,169.89 137.73,307.62 307.62,307.62 169.89,0 307.62,-137.73 307.62,-307.62l0 -2879.3c0,-181.29 70.59,-351.75 198.8,-479.97l823.64 -823.64c3.69,34.95 6.23,70.1 6.23,105.74l0 4077.13c0,169.89 137.73,307.62 307.62,307.62 169.89,0 307.62,-137.73 307.62,-307.62l0 -4077.08c-0.12,-640.64 -378.36,-1222.74 -963.78,-1482.9zm-3618.16 521.97l-1143.56 -1143.6c86.95,-146.3 136.05,-315.57 136.05,-492.64l0 -125.18c310.2,130.35 650.59,202.58 1007.55,202.58 356.96,0 697.31,-72.19 1007.47,-202.54l0 125.14c0,177.11 49.1,346.34 136.09,492.68l-1143.6 1143.56zm0.04 -2174.12c-1099.43,0.04 -1993.9,-894.43 -1993.9,-1993.86l0 -138.35c191.95,-76.08 379.31,-197.16 558.67,-362.66 124.81,-115.21 132.64,-309.83 17.39,-434.68 -115.21,-124.81 -309.79,-132.64 -434.68,-17.43 -153.85,142.04 -307.58,233.79 -456.79,272.75 -3.61,0.94 -6.28,1.35 -8.16,1.52 -2.21,-4.31 -5.21,-13.33 -5.21,-27.81l0 -608.47c0,-1099.43 894.47,-1993.9 1993.9,-1993.9l657.56 0.01c1099.47,0 1993.9,894.47 1993.9,1993.9l0 67.06c0,9.97 -5.99,18.62 -13.86,20.18 -1842.06,363.81 -2765.98,-321.85 -3077.7,-633.57 -120.14,-120.14 -314.92,-120.14 -435.01,0 -120.14,120.14 -120.14,314.92 0,435.01 955.26,955.26 2349.17,972.48 3197.79,870.52l0 555.89c0,1099.42 -894.47,1993.89 -1993.9,1993.89zm-4953.01 1788.96l0 -657.69c0,-802.51 -417.05,-1508.97 -1045.45,-1915.52 38.8,-124.48 59.06,-254.87 59.06,-386 0,-713.51 -580.45,-1293.96 -1293.96,-1293.96 -713.51,0 -1293.96,580.5 -1293.96,1293.96 0,132.77 20.1,261.89 58.98,386.08 -628.36,406.51 -1045.37,1112.96 -1045.37,1915.43l0 657.56c0,777.12 391,1464.3 986.35,1876.18l0 676.47c0,133.42 -74.12,253.35 -193.43,313.03l-1063.99 531.97c-441.21,220.69 -715.28,664.15 -715.28,1157.45l0 2678.28c0,169.89 137.73,307.62 307.62,307.62 169.89,0 307.62,-137.73 307.62,-307.62l0 -2545.23 501.13 501.13c128.17,128.22 198.8,298.64 198.8,479.97l0 1564.13c0,169.89 137.73,307.62 307.62,307.62 169.89,0 307.62,-137.73 307.62,-307.62l0 -1564.13c0,-345.64 -134.61,-670.57 -378.99,-914.98l-697.47 -697.47c-3.36,-3.36 -6.97,-6.28 -10.42,-9.43 43.76,-38.64 92.86,-72.27 146.92,-99.34l1063.99 -531.97c54.51,-27.28 105.25,-59.47 152.54,-95.24l752.1 752.15 0 3160.47c0,169.89 137.73,307.62 307.62,307.62 169.89,0 307.62,-137.73 307.62,-307.62l0 -3160.51 752.15 -752.15c47.33,35.81 98.03,68 152.54,95.24l293.39 146.71c44.17,22.11 91.1,32.57 137.36,32.57 112.83,0 221.48,-62.34 275.38,-170.09 76,-151.96 14.4,-336.74 -137.57,-412.7l-293.39 -146.71c-119.36,-59.68 -193.47,-179.61 -193.47,-312.99l0 -676.47c595.33,-411.9 986.34,-1099.12 986.34,-1876.2zm-2280.35 -3637.93c374.27,0 678.73,304.5 678.73,678.73 0,41.22 -3.69,81.62 -10.75,121.2 -211.39,-64.89 -435.63,-100.04 -667.98,-100.04 -232.03,0 -455.97,35.03 -667.04,99.75 -7.1,-39.58 -11.69,-79.78 -11.69,-120.91 0,-374.27 304.46,-678.73 678.73,-678.73zm0 1315.17c918.14,0 1665.11,746.98 1665.11,1665.11l0 111.48c-1280.72,392.11 -2043.98,-582.14 -2076.58,-624.83 -53.53,-71.33 -135.35,-115.95 -224.27,-122.27 -88.92,-6.23 -176.29,26.29 -239.33,89.33 -293.63,293.63 -581.23,435.26 -788.94,503.63 22.76,-898.49 760.18,-1622.45 1664.01,-1622.45zm0 5833.05l-710.84 -710.84c20.75,-79.32 32.12,-162.01 32.12,-246.87l0 -375.5c214.47,67.02 442.48,103.15 678.73,103.15 236.25,0 464.26,-36.13 678.73,-103.15l0 375.5c0,84.86 11.36,167.59 32.12,246.87l-710.86 710.84zm0 -1845.3c-918.14,0 -1665.11,-746.98 -1665.11,-1665.11l0 -63.74c245.31,-56.36 609.04,-187.32 988.48,-492.48 134.24,126.66 326.12,282.02 570.45,415.28 289,157.62 688.12,303.43 1175.63,303.43 185.27,0 383.5,-21.53 593.05,-71 -47.72,875.78 -775.09,1573.62 -1662.5,1573.62zm17018.07 1075.02l-1721.55 -860.8c-119.31,-59.68 -193.43,-179.61 -193.43,-312.99l0 -435.96c402.98,-357.78 657.56,-879.17 657.56,-1459.13l0 -350.15c7.1,0 14.07,0.21 21.16,0.21 169.89,0 307.62,-137.73 307.62,-307.62l0 -657.56c0,-1076.09 -875.48,-1951.57 -1951.57,-1951.57l-657.56 0c-1076.09,0 -1951.57,875.48 -1951.57,1951.57l0 657.56c0,169.89 137.73,307.62 307.62,307.62 2.54,0 9.93,-0.08 21.16,-0.53l0 350.48c0,580 254.63,1101.39 657.6,1459.17l0 435.96c0,133.42 -74.12,253.35 -193.47,312.99 -151.96,75.96 -213.57,260.74 -137.57,412.7 53.89,107.79 162.55,170.13 275.38,170.13 46.22,0 93.15,-10.46 137.32,-32.53 54.51,-27.28 105.25,-59.47 152.54,-95.24l752.15 752.15 0 4146.81c0,169.89 137.73,307.62 307.62,307.62 169.89,0 307.62,-137.73 307.62,-307.62l0 -4146.89 752.1 -752.15c47.33,35.81 98.03,68 152.54,95.24l1665.85 832.95 -505.27 505.27c-244.37,244.41 -378.99,569.34 -378.99,914.98l0 2550.52c0,169.89 137.73,307.62 307.62,307.62 169.89,0 307.62,-137.73 307.62,-307.62l0 -2550.52c0,-181.29 70.59,-351.75 198.8,-479.97l478.61 -478.61c14.52,55.66 22.48,113.7 22.48,173.25l0 3335.85c0,169.89 137.73,307.62 307.62,307.62 169.89,0 307.62,-137.73 307.62,-307.62l0 -3335.85c0.04,-493.25 -274.03,-936.72 -715.23,-1157.34zm-4874.14 -4097.35l0 -286.7 0.04 0c0,-736.85 599.49,-1336.33 1336.33,-1336.33l657.56 0c736.85,0 1336.33,599.49 1336.33,1336.33l0 341.7c-1337.24,-72.15 -2144.22,-592.51 -2152.05,-597.64 -52.05,-34.7 -111.44,-51.68 -170.54,-51.68 -79.41,0 -158.16,30.68 -217.63,90.11 -294.33,294.34 -582.71,436.01 -790.04,504.21zm1665.15 3881.28l-710.84 -710.84c20.75,-79.32 32.12,-162.01 32.12,-246.87l0 -65.5c211.48,78.71 440.14,121.94 678.73,121.94 238.59,0 467.25,-43.23 678.73,-121.94l0 65.5c0,84.86 11.32,167.55 32.12,246.87l-710.86 710.84zm0 -1516.47c-736.85,0 -1336.33,-599.44 -1336.33,-1336.33l0 -495.92 0 -0.01c215.46,-86.09 466.47,-222.96 721.92,-440.59 323.04,168.08 998.9,458.6 1950.75,554.57l0 381.94c-0.01,736.85 -599.49,1336.34 -1336.34,1336.34z"/>
 </g>
</svg>
