<svg xmlns="http://www.w3.org/2000/svg" width="512" height="512" viewBox="0 0 128 128"><defs><style type="text/css">  
    .fil0 {fill:#727272}
   </style></defs><path class="fil0" d="M85.8 80l-10.7-4.8c-0.7-0.3-1.2-1.1-1.2-1.9l0-2.9c3.6-2.9 5.9-7.3 5.9-12.2l0-4.1c1.2-0.7 2-1.9 2-3.3l0-0.4c0-8.6-7-15.6-15.6-15.6l-3.9 0c-8.6 0-15.6 7-15.6 15.6l0 3.7c0 1.3 0.5 2.4 1.5 3.1 0.2 0.1 0.3 0.2 0.5 0.3l0 0.8c0 5 2.3 9.4 5.9 12.2l0 2.9c0 0.8-0.5 1.6-1.2 1.9l-10.7 4.8c-3.5 1.6-5.8 5.1-5.8 8.9l0 24.4c0 1 0.8 1.8 1.8 1.8 1 0 1.8-0.8 1.8-1.8l0-24.4c0-0.2 0-0.4 0-0.6l4.9 4.9c0.8 0.8 1.2 1.8 1.2 2.9l0 17.3c0 1 0.8 1.8 1.8 1.8 1 0 1.9-0.8 1.9-1.8l0-17.3c0-2.1-0.8-4-2.3-5.5l-5.9-5.9c0.5-0.5 1.2-1 1.9-1.3l10.5-4.7 7.8 7.8 0 26.8c0 1 0.8 1.8 1.8 1.8 1 0 1.8-0.8 1.8-1.8l0-26.8 7.8-7.8 10.5 4.7c0.7 0.3 1.4 0.8 1.9 1.3l-5.9 5.9c-1.5 1.5-2.3 3.4-2.3 5.5l0 17.3c0 1 0.8 1.8 1.9 1.8 1 0 1.8-0.8 1.8-1.8l0-17.3c0-1.1 0.4-2.1 1.2-2.9l4.9-4.9c0 0.2 0 0.4 0 0.6l0 24.4c0 1 0.8 1.8 1.8 1.8 1 0 1.8-0.8 1.8-1.8l0-24.4c0-3.8-2.3-7.3-5.8-8.9zm-21.7 3.1l-6.8-6.8c0.5-0.9 0.8-1.9 0.8-3l0-0.7c1.9 0.8 3.9 1.2 6 1.2 2.1 0 4.2-0.4 6-1.2l0 0.8c0 1.1 0.3 2.1 0.8 3l-6.9 6.9zm0-13c-6.6 0-11.9-5.4-11.9-11.9l0-0.8c1.2-0.5 2.3-1.2 3.4-2.2 0.8-0.7 0.8-1.8 0.1-2.6-0.7-0.7-1.9-0.8-2.6-0.1-0.9 0.9-1.8 1.4-2.7 1.6 0 0 0 0 0 0 0 0 0-0.1 0-0.2l0-3.6c0-6.6 5.4-12 12-12l3.9 0c6.6 0 12 5.4 12 12l0 0.4c0 0.1 0 0.1-0.1 0.1-11 2.2-16.6-1.9-18.4-3.8-0.7-0.7-1.9-0.7-2.6 0-0.7 0.7-0.7 1.9 0 2.6 5.7 5.7 14.1 5.8 19.2 5.2l0 3.3c0 6.6-5.4 12-11.9 12zm-29.7 9.4l0-3.9c0-4.8-2.5-9-6.3-11.5 0.2-0.7 0.4-1.5 0.4-2.3 0-4.3-3.5-7.8-7.8-7.8-4.3 0-7.7 3.5-7.7 7.8 0 0.8 0.1 1.6 0.4 2.3-3.8 2.4-6.3 6.7-6.3 11.5l0 3.9c0 4.7 2.4 8.8 5.9 11.3l0 4.1c0 0.8-0.4 1.5-1.2 1.9l-6.4 3.2c-2.6 1.3-4.3 4-4.3 6.9l0 16.1c0 1 0.8 1.8 1.9 1.8 1 0 1.8-0.8 1.8-1.8l0-15.3 3 3c0.8 0.8 1.2 1.8 1.2 2.9l0 9.4c0 1 0.8 1.8 1.8 1.8 1 0 1.8-0.8 1.8-1.8l0-9.4c0-2.1-0.8-4-2.3-5.5l-4.2-4.2c0 0 0 0-0.1-0.1 0.3-0.2 0.6-0.4 0.9-0.6l6.4-3.2c0.3-0.2 0.6-0.4 0.9-0.6l4.5 4.5 0 18.9c0 1 0.8 1.8 1.8 1.8 1 0 1.9-0.8 1.9-1.8l0-18.9 4.5-4.5c0.3 0.2 0.6 0.4 0.9 0.6l1.8 0.9c0.3 0.1 0.5 0.2 0.8 0.2 0.7 0 1.3-0.4 1.7-1 0.5-0.9 0.1-2-0.8-2.5l-1.8-0.9c-0.7-0.4-1.2-1.1-1.2-1.9l0-4c3.6-2.5 5.9-6.6 5.9-11.2zm-13.7-21.8c2.3 0 4.1 1.8 4.1 4.1 0 0.2 0 0.5-0.1 0.7-1.3-0.4-2.6-0.6-4-0.6-1.4 0-2.7 0.2-4 0.6 0-0.2-0.1-0.5-0.1-0.7 0-2.2 1.8-4.1 4.1-4.1zm0 7.9c5.5 0 10 4.5 10 10l0 0.7c-7.7 2.4-12.2-3.5-12.4-3.7-0.3-0.4-0.8-0.7-1.3-0.7-0.5 0-1 0.2-1.4 0.5-1.8 1.8-3.5 2.6-4.7 3 0.1-5.4 4.6-9.7 10-9.7zm0 35l-4.3-4.3c0.1-0.5 0.2-1 0.2-1.5l0-2.2c1.3 0.4 2.7 0.6 4.1 0.6 1.4 0 2.8-0.2 4.1-0.6l0 2.3c0 0.5 0.1 1 0.2 1.5l-4.3 4.3zm0-11.1c-5.5 0-10-4.5-10-10l0-0.4c1.5-0.3 3.7-1.1 5.9-2.9 0.8 0.8 2 1.7 3.4 2.5 1.7 0.9 4.1 1.8 7 1.8 1.1 0 2.3-0.1 3.6-0.4-0.3 5.3-4.6 9.4-10 9.4zm102 6.5l-10.3-5.2c-0.7-0.4-1.2-1.1-1.2-1.9l0-2.6c2.4-2.1 3.9-5.3 3.9-8.7l0-2.1c0.1 0 0.1 0 0.1 0 1 0 1.8-0.8 1.8-1.8l0-3.9c0-6.4-5.2-11.7-11.7-11.7l-3.9 0c-6.4 0-11.7 5.3-11.7 11.7l0 3.9c0 1 0.8 1.8 1.8 1.8 0 0 0.1 0 0.1 0l0 2.1c0 3.5 1.5 6.6 3.9 8.8l0 2.6c0 0.8-0.4 1.5-1.2 1.9-0.9 0.5-1.3 1.6-0.8 2.5 0.3 0.7 1 1 1.7 1 0.3 0 0.6-0.1 0.8-0.2 0.3-0.2 0.6-0.4 0.9-0.6l4.5 4.5 0 24.9c0 1 0.8 1.8 1.8 1.8 1 0 1.9-0.8 1.9-1.8l0-24.9 4.5-4.5c0.3 0.2 0.6 0.4 0.9 0.6l10 5-3 3c-1.5 1.5-2.3 3.4-2.3 5.5l0 15.3c0 1 0.8 1.8 1.8 1.8 1 0 1.8-0.8 1.8-1.8l0-15.3c0-1.1 0.4-2.1 1.2-2.9l2.9-2.9c0.1 0.3 0.1 0.7 0.1 1l0 20c0 1 0.8 1.8 1.8 1.8 1 0 1.9-0.8 1.9-1.8l0-20c0-2.9-1.6-5.6-4.3-6.9zm-29.2-24.6l0-1.7 0 0c0-4.4 3.6-8 8-8l4 0c4.4 0 8 3.6 8 8l0 2.1c-8-0.4-12.9-3.5-12.9-3.6-0.3-0.2-0.7-0.3-1-0.3-0.5 0-0.9 0.2-1.3 0.6-1.8 1.8-3.5 2.6-4.7 3zm10 23.3l-4.3-4.3c0.1-0.5 0.2-1 0.2-1.5l0-0.4c1.3 0.5 2.6 0.7 4.1 0.7 1.4 0 2.8-0.3 4.1-0.7l0 0.4c0 0.5 0.1 1 0.2 1.5l-4.3 4.3zm0-9.1c-4.4 0-8-3.6-8-8l0-3 0 0c1.3-0.5 2.8-1.3 4.3-2.6 1.9 1 6 2.8 11.7 3.3l0 2.3c0 4.4-3.6 8-8 8z"/></svg>