<svg viewBox="0 0 32 32" xmlns="http://www.w3.org/2000/svg"><path d="M20.046 3.071c-2.89 1.052-4.716 3.764-4.509 6.732l.07 1.145-1.156-.14c-4.207-.537-7.884-2.36-11.006-5.423L1.919 3.866l-.393 1.122c-.832 2.501-.3 5.143 1.433 6.92.925.982.716 1.122-.878.537-.555-.186-1.041-.327-1.087-.257-.161.164.393 2.291.832 3.133.601 1.17 1.826 2.314 3.168 2.993l1.133.537-1.341.023c-1.294 0-1.341.023-1.202.515.462 1.519 2.289 3.133 4.323 3.834l1.433.49-1.248.748a12.962 12.962 0 0 1-6.197 1.729c-1.04.023-1.895.117-1.895.188 0 .233 2.821 1.541 4.462 2.057 4.925 1.519 10.775.864 15.168-1.73 3.122-1.847 6.242-5.517 7.7-9.071.787-1.892 1.572-5.353 1.572-7.011 0-1.076.07-1.216 1.364-2.501.764-.748 1.48-1.566 1.619-1.8.232-.445.207-.445-.971-.047-1.965.702-2.243.608-1.271-.444.716-.748 1.572-2.104 1.572-2.501 0-.07-.346.046-.74.257-.416.232-1.341.583-2.035.793l-1.248.398-1.133-.772c-.625-.42-1.502-.888-1.965-1.028-1.18-.327-2.984-.281-4.048.093z"/></svg>