<svg viewBox="0 0 94 90" xmlns="http://www.w3.org/2000/svg"><path d="M73.602 67.24c-12.326-4.493-16.266-8.282-16.266-16.395 0-4.871 3.764-3.28 5.416-12.2.686-3.7 4.01-.06 4.646-8.507 0-3.367-1.814-4.203-1.814-4.203s.922-4.982 1.283-8.816C67.314 12.342 64.107 0 47 0S26.684 12.342 27.133 17.119c.361 3.834 1.283 8.816 1.283 8.816s-1.814.836-1.814 4.203c.635 8.447 3.959 4.807 4.645 8.507 1.654 8.919 5.416 7.329 5.416 12.2 0 8.113-3.938 11.902-16.264 16.395C8.033 71.746 0 76.339 0 79.473V90h94V79.473c0-3.134-8.033-7.727-20.398-12.233z"/></svg>