<svg viewBox="0 0 100 88" xmlns="http://www.w3.org/2000/svg"><path d="M100 88s-.197-18.934-1.354-20.896c-1.721-2.923-5.729-4.932-13.17-8.041-7.416-3.101-9.787-5.716-9.787-11.316 0-3.364 2.264-2.264 3.26-8.419.412-2.555 2.412-.043 2.795-5.872 0-2.324-1.092-2.903-1.092-2.903s.555-3.437.771-6.084c.27-3.298-1.662-11.815-11.955-11.815-10.295 0-12.225 8.518-11.955 11.815.217 2.647.77 6.084.77 6.084s-1.09.579-1.09 2.903c.383 5.829 2.381 3.317 2.795 5.872.994 6.155 3.26 5.056 3.26 8.419 0 3.807-1.102 6.235-4.137 8.375 16.203 8.111 18.375 9.764 18.375 17.015V88H100zM51.117 61.877c-9.891-4.134-13.051-7.621-13.051-15.086 0-4.483 3.02-3.019 4.346-11.228.549-3.404 3.217-.056 3.727-7.829 0-3.098-1.455-3.868-1.455-3.868s.74-4.583 1.029-8.112C46.072 11.357 43.498 0 29.771 0c-13.724 0-16.3 11.357-15.939 15.754.289 3.529 1.027 8.112 1.027 8.112s-1.455.77-1.455 3.868c.512 7.773 3.178 4.425 3.729 7.829 1.326 8.208 4.346 6.744 4.346 11.228 0 7.465-3.162 10.952-13.051 15.086C5.414 63.137 0 65.088 0 69.783V88h69.469V74.341c0-4.282-8.432-8.316-18.352-12.464z"/></svg>