<svg viewBox="0 0 30 30" xmlns="http://www.w3.org/2000/svg" xmlns:xlink="http://www.w3.org/1999/xlink"><use xlink:href="#path0_fill" fill="#1298FF"/><use xlink:href="#path1_fill" transform="translate(7.78 10.56)" fill="#FFF"/><defs><path id="path0_fill" d="M15 0C6.729 0 0 6.729 0 15s6.729 15 15 15 15-6.729 15-15S23.271 0 15 0z"/><path id="path1_fill" d="M7.894.278a.952.952 0 0 0-1.343 0L.163 6.664a.555.555 0 1 0 .785.786l6.274-6.274 6.274 6.274a.554.554 0 0 0 .786 0 .555.555 0 0 0 0-.786L7.894.277z"/></defs></svg>