<svg xmlns="http://www.w3.org/2000/svg" viewBox="0 0 32 32"><path d="M16 20a2 2 0 1 1 3.999-.001A2 2 0 0 1 16 20zm13.001-7c-.001 0-.001 0 0 0L29 7V4a3 3 0 0 0-3-3H5.5A5.506 5.506 0 0 0 0 6.5v20C0 29.532 2.467 32 5.5 32h18c3.032 0 5.5-2.468 5.5-5.5V25h.001c3.998-3.001 3.998-8.999 0-12zM5.5 3H26c.551 0 1 .448 1 1v6.184A2.966 2.966 0 0 0 26 10h-.001V5a1 1 0 0 0-1-1h-21a1 1 0 0 0-1 1v3.943A3.482 3.482 0 0 1 2 6.5 3.5 3.5 0 0 1 5.5 3zm19.499 3h-21V5h21v1zm0 1v1h-21V7h21zm0 2v1H5.5A3.46 3.46 0 0 1 4 9.65V9h20.999zM27 26.5a3.5 3.5 0 0 1-3.5 3.5h-18A3.5 3.5 0 0 1 2 26.5V10.739A5.473 5.473 0 0 0 5.5 12H26c.551 0 1 .448 1 1v2h-9a5 5 0 1 0 0 10h9v1.5zm1.277-3.5H18c-1.654 0-3-1.346-3-3s1.346-3 3-3h9a2.062 2.062 0 0 0 1.602-.804c.104-.14.185-.297.25-.461.009-.022.025-.039.033-.062A5.458 5.458 0 0 1 30 19a5.448 5.448 0 0 1-1.723 4z"/></svg>