<?xml version="1.0" encoding="utf-8"?>

<!DOCTYPE svg PUBLIC "-//W3C//DTD SVG 1.1//EN" "http://www.w3.org/Graphics/SVG/1.1/DTD/svg11.dtd">
<svg version="1.1" xmlns="http://www.w3.org/2000/svg" xmlns:xlink="http://www.w3.org/1999/xlink" x="0px" y="0px" viewBox="0 0 1000 1000" enable-background="new 0 0 1000 1000" xml:space="preserve">
    <g><path
        d="M585.8,500l385.9-385.9c24.5-24.5,24.5-61.3,0-85.8c-24.5-24.5-61.3-24.5-85.8,0L500,414.3L114.1,28.4c-24.5-24.5-61.2-24.5-85.8,0c-24.5,24.5-24.5,61.3,0,85.8L411.2,500L28.4,885.9c-24.5,24.5-24.5,61.3,0,85.8c9.2,12.3,27.6,18.4,42.9,18.4c15.3,0,30.6-6.1,42.9-18.4L500,585.8l385.9,385.9c12.3,12.3,27.6,18.4,42.9,18.4s30.6-6.1,42.9-18.4c24.5-24.5,24.5-61.3,0-85.8L585.8,500z"/></g>
</svg>
