<?xml version="1.0" encoding="UTF-8" standalone="no"?>
<svg width="640px" height="480px" viewBox="0 0 640 480" version="1.1" xmlns="http://www.w3.org/2000/svg" xmlns:xlink="http://www.w3.org/1999/xlink">
    <!-- Generator: Sketch 3.8.3 (29802) - http://www.bohemiancoding.com/sketch -->
    <title>404-1</title>
    <desc>Created with Sketch.</desc>
    <defs>
        <polygon id="path-1" points="0 387.865326 471 387.865326 471 0 0 0"></polygon>
        <rect id="path-3" x="-18" y="-21" width="671" height="511" rx="10"></rect>
        <mask id="mask-4" maskContentUnits="userSpaceOnUse" maskUnits="objectBoundingBox" x="0" y="0" width="671" height="511" fill="white">
            <use xlink:href="#path-3"></use>
        </mask>
    </defs>
    <g id="404" stroke="none" stroke-width="1" fill="none" fill-rule="evenodd">
        <g id="404-1">
            <g id="Page-1" transform="translate(74.000000, 46.000000)">
                <path d="M384.2038,341.570618 L52.8293,341.570618 C52.8288,278.052265 127.0093,226.56091 218.5158,226.56091 C310.0223,226.56091 384.2033,278.052765 384.2038,341.570618 L384.2038,341.570618 Z" id="Fill-1" fill="#E9EEF4"></path>
                <path d="M219.0106,87.5389579 C218.5981,87.5389579 218.4511,87.544465 217.8221,87.5474689 C217.1936,87.544465 217.1196,87.5389579 216.7071,87.5389579 C184.2021,87.5389579 145.9176,90.6314431 132.3666,96.6677218 L133.9671,108.195077 C136.4301,120.71421 170.9781,128.851195 216.7071,128.851195 C217.1196,128.851195 217.1936,128.849193 217.8221,128.847691 C218.4511,128.849193 218.5981,128.851195 219.0106,128.851195 C264.7391,128.851195 299.3241,120.71421 301.7866,108.195077 L303.3691,96.6677218 C289.8181,90.6314431 251.5151,87.5389579 219.0106,87.5389579" id="Fill-3" fill="#DEE5ED"></path>
                <path d="M217.8191,127.524185 L219.0106,127.52819 C241.2526,127.52819 261.6016,125.54113 276.3091,121.93298 C290.7961,118.378399 299.3781,113.422513 300.4831,107.974993 L301.9221,97.4904821 C287.2806,91.5653466 248.9916,88.8623634 219.0106,88.8623634 C218.7946,88.8623634 218.6536,88.8638653 218.4741,88.8653672 L217.8296,88.8708743 L217.1891,88.8653672 C217.0356,88.8633646 216.9161,88.8623634 216.7071,88.8623634 C186.7366,88.8623634 148.4581,91.5658472 133.8151,97.4904821 L135.2706,107.973992 C136.3751,113.422513 144.9506,118.3789 159.4271,121.93298 C174.1251,125.54113 194.4676,127.52819 216.7071,127.52819 L217.8191,127.524185 Z M219.0106,130.174601 L217.8191,130.170596 L216.7071,130.174601 C193.9361,130.174601 173.9116,128.213574 158.7976,124.503292 C143.0086,120.627298 133.9741,115.076144 132.6706,108.451107 L132.6581,108.377512 L130.9211,95.8633853 L131.8296,95.458864 C146.0866,89.1081801 185.8216,86.2154524 216.7071,86.2154524 C216.9296,86.2154524 217.0566,86.2169543 217.2201,86.2189569 L217.8296,86.224464 L218.4461,86.2194575 C218.6351,86.217455 218.7836,86.2154524 219.0106,86.2154524 C249.9046,86.2154524 289.6491,89.1081801 303.9061,95.458864 L304.8136,95.8628846 L303.0836,108.451107 C301.7801,115.075643 292.7391,120.626296 276.9376,124.503292 C261.8151,128.213574 241.7836,130.174601 219.0106,130.174601 L219.0106,130.174601 Z" id="Fill-5" fill="#A7B8D1"></path>
                <path d="M217.8223,74.964704 C170.6663,74.964704 132.1668,84.2126214 132.1668,95.6208227 C132.1668,107.029024 170.6663,116.276941 217.8223,116.276941 C264.9783,116.276941 303.4778,107.029024 303.4778,95.6208227 C303.4778,84.2126214 264.9783,74.964704 217.8223,74.964704" id="Fill-7" fill="#FFFFFF"></path>
                <path d="M217.82225,76.2879592 C195.09975,76.2879592 173.71975,78.4237115 157.62025,82.3012083 C142.50925,85.9408986 133.48825,90.9203154 133.48825,95.6208728 C133.48825,100.32143 142.50925,105.300847 157.62025,108.940537 C173.71975,112.818535 195.09975,114.953786 217.82225,114.953786 C240.54475,114.953786 261.92525,112.818535 278.02475,108.940537 C293.13525,105.300847 302.15675,100.32143 302.15675,95.6208728 C302.15675,90.9203154 293.13525,85.9408986 278.02475,82.3012083 C261.92525,78.4237115 240.54475,76.2879592 217.82225,76.2879592 M217.82225,117.600197 C194.89775,117.600197 173.29775,115.438911 157.00175,111.513853 C145.06925,108.63965 130.84525,103.54909 130.84525,95.6208728 C130.84525,87.692656 145.06925,82.6025966 157.00175,79.7283928 C173.29775,75.8033347 194.89775,73.6415489 217.82225,73.6415489 C240.74675,73.6415489 262.34675,75.8033347 278.64275,79.7283928 C290.57575,82.6025966 304.79975,87.692656 304.79975,95.6208728 C304.79975,103.54909 290.57575,108.63965 278.64275,111.513853 C262.34675,115.438911 240.74675,117.600197 217.82225,117.600197" id="Fill-9" fill="#A7B8D1"></path>
                <path d="M265.12785,86.8978317 C265.12785,92.627215 244.85385,97.2717001 219.84435,97.2717001 C194.83485,97.2717001 174.56035,92.627215 174.56035,86.8978317 C174.56035,81.1684485 180.90435,79.5954214 205.89785,78.7002679 C264.62385,76.5970575 265.12785,81.1684485 265.12785,86.8978317" id="Fill-11" fill="#DEE5ED"></path>
                <path d="M219.75995,40.0544165 C195.68745,40.0544165 176.02145,58.0756397 175.30945,80.4825146 L264.21145,80.4825146 C263.49845,58.0756397 243.83245,40.0544165 219.75995,40.0544165 L219.75995,40.0544165 Z M172.77445,83.0007597 L172.77445,81.7416372 C172.77445,57.3667262 193.85195,37.5361714 219.75995,37.5361714 C245.66745,37.5356707 266.74545,57.3667262 266.74595,81.7416372 L266.74595,83.0007597 L172.77445,83.0007597 Z" id="Combined-Shape" fill="#A7B8D1"></path>
                <path d="M220.39525,98.5769822 L219.75725,98.5749796 L219.16425,98.5769822 C199.29825,98.5769822 175.47425,95.6992738 173.71225,87.5883215 L173.69775,87.5117228 L172.84225,81.9330338 L175.32825,81.5510415 L176.17725,87.0866751 C177.19725,91.4427886 192.57725,96.058737 219.16425,96.058737 L219.75725,96.0567345 L220.39525,96.058737 C246.99275,96.058737 262.37975,91.4432893 263.40125,87.0876764 L264.24025,81.5530441 L266.72675,81.9305306 L265.86675,87.5883215 C264.10425,95.6992738 240.27025,98.5769822 220.39525,98.5769822" id="Fill-17" fill="#A7B8D1"></path>
                <path d="M264.1925,79.8768341 C267.009,84.8637605 244.7695,89.3435334 219.76,89.3435334 C194.7505,89.3435334 172.6735,84.2674921 175.3425,79.8377837 C178.84,74.0333037 180.904,73.6117605 205.8975,72.716607 C264.6235,70.6133966 262.018,76.0268728 264.1925,79.8768341" id="Fill-19" fill="#FFFFFF"></path>
                <path d="M219.76015,90.7518483 C196.38465,90.7518483 172.72065,86.5043747 172.72065,79.4953425 L175.23615,79.4953425 C175.23615,80.9972779 178.49665,83.2556883 187.68515,85.2597708 C196.25765,87.1291799 207.64865,88.1214586 219.76015,88.1214586 C231.87165,88.1214586 243.26215,87.1482044 251.83465,85.2782947 C261.02365,83.2742121 264.28415,80.9972779 264.28415,79.4953425 L266.79915,79.4953425 C266.79915,86.5043747 243.13565,90.7518483 219.76015,90.7518483" id="Fill-21" fill="#A7B8D1"></path>
                <path d="M174.9254,99.7180526 C174.9254,101.043761 173.8524,102.118146 172.5284,102.118146 C171.2044,102.118146 170.1314,101.043761 170.1314,99.7180526 C170.1314,98.3923443 171.2044,97.3179597 172.5284,97.3179597 C173.8524,97.3179597 174.9254,98.3923443 174.9254,99.7180526" id="Fill-23" fill="#A7B8D1"></path>
                <path d="M222.59865,104.518439 C222.59865,105.844147 221.52515,106.918532 220.20165,106.918532 C218.87765,106.918532 217.80415,105.844147 217.80415,104.518439 C217.80415,103.19273 218.87765,102.118346 220.20165,102.118346 C221.52515,102.118346 222.59865,103.19273 222.59865,104.518439" id="Fill-25" fill="#A7B8D1"></path>
                <path d="M269.38905,99.7180526 C269.38905,101.043761 268.31605,102.118146 266.99205,102.118146 C265.66805,102.118146 264.59505,101.043761 264.59505,99.7180526 C264.59505,98.3923443 265.66805,97.3179597 266.99205,97.3179597 C268.31605,97.3179597 269.38905,98.3923443 269.38905,99.7180526" id="Fill-27" fill="#A7B8D1"></path>
                <path d="M221.2212,45.3872888 C221.2212,46.2373843 217.7742,46.2373843 217.7742,45.3872888 L217.7742,22.0402023 L221.2212,21.8784939 L221.2212,45.3872888 Z" id="Fill-29" fill="#A7B8D1"></path>
                <path d="M224.9484,25.8165187 C224.9484,28.8309032 222.5079,31.2740516 219.4979,31.2740516 C216.4874,31.2740516 214.0474,28.8309032 214.0474,25.8165187 C214.0474,22.8021342 216.4874,20.3589858 219.4979,20.3589858 C222.5079,20.3589858 224.9484,22.8021342 224.9484,25.8165187" id="Fill-31" fill="#A7B8D1"></path>
                <mask id="mask-2" fill="white">
                    <use xlink:href="#path-1"></use>
                </mask>
                <g id="Clip-34"></g>
                <polygon id="Fill-33" fill="#A7B8D1" mask="url(#mask-2)" points="212.686 46.3527329 226.309 46.3527329 226.309 44.9364077 212.686 44.9364077"></polygon>
                <polygon id="Fill-35" fill="#CFD7E6" mask="url(#mask-2)" points="217.774 15.9500542 221.221 15.9500542 221.221 2.30947613 217.774 2.30947613"></polygon>
                <polygon id="Fill-36" fill="#CFD7E6" mask="url(#mask-2)" points="227.74485 20.3589357 224.94835 18.3413357 232.91185 7.27457445 235.70835 9.29167381"></polygon>
                <polygon id="Fill-37" fill="#CFD7E6" mask="url(#mask-2)" points="211.25075 20.3589357 214.04725 18.3413357 206.08375 7.27457445 203.28725 9.29167381"></polygon>
                <polygon id="Fill-38" fill="#A7B8D1" mask="url(#mask-2)" points="292.1831 253.650469 281.9766 121.760007 283.6966 121.626836 293.9031 253.517298"></polygon>
                <polygon id="Fill-39" fill="#A7B8D1" mask="url(#mask-2)" points="147.42185 253.650469 145.70185 253.517298 155.90835 121.626836 157.62835 121.760007"></polygon>
                <polygon id="Fill-40" fill="#A7B8D1" mask="url(#mask-2)" points="197.5 179.624475 199 179.624475 199 146.081249 197.5 146.081249"></polygon>
                <polygon id="Fill-41" fill="#A7B8D1" mask="url(#mask-2)" points="218 202.153507 219.5 202.153507 219.5 175.619314 218 175.619314"></polygon>
                <polygon id="Fill-42" fill="#A7B8D1" mask="url(#mask-2)" points="218 163.103185 219.5 163.103185 219.5 136.068346 218 136.068346"></polygon>
                <polygon id="Fill-43" fill="#A7B8D1" mask="url(#mask-2)" points="171.5 166.107055 173.5 166.107055 173.5 133.064475 171.5 133.064475"></polygon>
                <polygon id="Fill-44" fill="#A7B8D1" mask="url(#mask-2)" points="242.5 179.624475 244 179.624475 244 146.081249 242.5 146.081249"></polygon>
                <polygon id="Fill-45" fill="#A7B8D1" mask="url(#mask-2)" points="268.5 166.107055 270 166.107055 270 133.064475 268.5 133.064475"></polygon>
                <path d="M185.12585,78.2405254 L182.61385,78.118368 C183.57735,58.2898157 199.19385,48.1507499 199.85785,47.7292067 L201.20635,49.8549461 C201.05435,49.9515706 186.02485,59.7486957 185.12585,78.2405254" id="Fill-46" fill="#A7B8D1" mask="url(#mask-2)"></path>
                <g id="Group" mask="url(#mask-2)" fill="#A7B8D1">
                    <g transform="translate(149.000000, 231.000000)">
                        <path d="M27.25575,37.6696237 L27.25575,23.9569528 C27.25575,20.4339128 27.54125,14.9102947 27.73125,11.3867541 L27.35075,11.3867541 C25.82925,14.5293037 24.11725,17.5767308 22.40575,20.8144031 L11.37325,37.6696237 L27.25575,37.6696237 Z M27.25575,46.1450457 L0.53125,46.1450457 L0.53125,38.7174741 L24.49775,1.1971231 L37.52725,1.1971231 L37.52725,37.6696237 L45.13575,37.6696237 L45.13575,46.1450457 L37.52725,46.1450457 L37.52725,61.7626715 L27.25575,61.7626715 L27.25575,46.1450457 Z" id="Fill-47"></path>
                        <path d="M82.03455,31.1942292 C82.03455,14.0531401 77.85005,8.62514529 71.95355,8.62514529 C66.15205,8.62514529 61.87205,14.0531401 61.87205,31.1942292 C61.87205,48.3353182 66.15205,54.3345492 71.95355,54.3345492 C77.85005,54.3345492 82.03455,48.3353182 82.03455,31.1942292 M51.41055,31.1942292 C51.41055,10.7203453 59.39955,0.0546007742 71.95355,0.0546007742 C84.50755,0.0546007742 92.49605,10.8154679 92.49605,31.1942292 C92.49605,51.668113 84.50755,62.9055943 71.95355,62.9055943 C59.39955,62.9055943 51.41055,51.668113 51.41055,31.1942292" id="Fill-48"></path>
                        <path d="M124.83015,37.6696237 L124.83015,23.9569528 C124.83015,20.4339128 125.11515,14.9102947 125.30565,11.3867541 L124.92515,11.3867541 C123.40315,14.5293037 121.69115,17.5767308 119.97965,20.8144031 L108.94715,37.6696237 L124.83015,37.6696237 Z M124.83015,46.1450457 L98.10515,46.1450457 L98.10515,38.7174741 L122.07215,1.1971231 L135.10115,1.1971231 L135.10115,37.6696237 L142.70965,37.6696237 L142.70965,46.1450457 L135.10115,46.1450457 L135.10115,61.7626715 L124.83015,61.7626715 L124.83015,46.1450457 Z" id="Fill-49"></path>
                        <polygon id="Fill-50" points="6.739 74.275296 25.1855 74.275296 25.1855 78.869216 12.17 78.869216 12.17 86.698305 23.1725 86.698305 23.1725 91.292225 12.17 91.292225 12.17 100.339884 25.6535 100.339884 25.6535 104.934305 6.739 104.934305"></polygon>
                        <path d="M41.7121,88.6201817 C45.8791,88.6201817 48.1731,86.8388862 48.1731,83.3699159 C48.1731,79.8538849 45.8791,78.6353146 41.7121,78.6353146 L37.3581,78.6353146 L37.3581,88.6201817 L41.7121,88.6201817 Z M31.9271,74.2751959 L42.2741,74.2751959 C48.6411,74.2751959 53.5106,76.5255959 53.5106,83.3699159 C53.5106,88.0574565 51.0761,90.8705817 47.4241,92.1362126 L54.7281,104.934205 L48.6411,104.934205 L42.0401,92.9332397 L37.3581,92.9332397 L37.3581,104.934205 L31.9271,104.934205 L31.9271,74.2751959 Z" id="Fill-51"></path>
                        <path d="M69.4285,88.6201817 C73.5955,88.6201817 75.8895,86.8388862 75.8895,83.3699159 C75.8895,79.8538849 73.5955,78.6353146 69.4285,78.6353146 L65.0745,78.6353146 L65.0745,88.6201817 L69.4285,88.6201817 Z M59.6435,74.2751959 L69.9905,74.2751959 C76.3575,74.2751959 81.227,76.5255959 81.227,83.3699159 C81.227,88.0574565 78.7925,90.8705817 75.1405,92.1362126 L82.4445,104.934205 L76.3575,104.934205 L69.7565,92.9332397 L65.0745,92.9332397 L65.0745,104.934205 L59.6435,104.934205 L59.6435,74.2751959 Z" id="Fill-52"></path>
                        <path d="M107.1645,89.463969 C107.1645,82.619649 104.0745,78.4472723 99.252,78.4472723 C94.4295,78.4472723 91.3395,82.619649 91.3395,89.463969 C91.3395,96.3553497 94.4295,100.762028 99.252,100.762028 C104.0745,100.762028 107.1645,96.3553497 107.1645,89.463969 M85.768,89.463969 C85.768,79.5727226 91.293,73.712671 99.252,73.712671 C107.258,73.712671 112.783,79.5727226 112.783,89.463969 C112.783,99.4027768 107.258,105.49663 99.252,105.49663 C91.293,105.49663 85.768,99.4027768 85.768,89.463969" id="Fill-53"></path>
                        <path d="M128.70045,88.6201817 C132.86695,88.6201817 135.16145,86.8388862 135.16145,83.3699159 C135.16145,79.8538849 132.86695,78.6353146 128.70045,78.6353146 L124.34645,78.6353146 L124.34645,88.6201817 L128.70045,88.6201817 Z M118.91545,74.2751959 L129.26245,74.2751959 C135.62995,74.2751959 140.49895,76.5255959 140.49895,83.3699159 C140.49895,88.0574565 138.06445,90.8705817 134.41245,92.1362126 L141.71645,104.934205 L135.62995,104.934205 L129.02795,92.9332397 L124.34645,92.9332397 L124.34645,104.934205 L118.91545,104.934205 L118.91545,74.2751959 Z" id="Fill-54"></path>
                    </g>
                </g>
                <g id="Group-2" mask="url(#mask-2)" fill="#A7B8D1">
                    <g transform="translate(132.000000, 364.000000)">
                        <polygon id="Fill-55" points="5.14455 3.97654658 0.28805 3.97654658 0.28805 1.45529755 12.98155 1.45529755 12.98155 3.97654658 8.12505 3.97654658 8.12505 18.2824821 5.14455 18.2824821"></polygon>
                        <path d="M15.5257,0.11727329 L18.4807,0.11727329 L18.4807,4.80030813 L18.3782,7.24395716 C19.4317,6.2411649 20.6907,5.34050426 22.4122,5.34050426 C25.1102,5.34050426 26.2922,7.16685781 26.2922,10.3574694 L26.2922,18.2821817 L23.3377,18.2821817 L23.3377,10.7434668 C23.3377,8.65928103 22.7462,7.88778684 21.3587,7.88778684 C20.2537,7.88778684 19.5342,8.42798297 18.4807,9.45730942 L18.4807,18.2821817 L15.5257,18.2821817 L15.5257,0.11727329 Z" id="Fill-56"></path>
                        <path d="M29.8645,18.2821316 L32.8195,18.2821316 L32.8195,5.64885161 L29.8645,5.64885161 L29.8645,18.2821316 Z M29.5305,1.76384516 C29.5305,0.760552258 30.301,0.0656567742 31.3545,0.0656567742 C32.408,0.0656567742 33.179,0.760552258 33.179,1.76384516 C33.179,2.74160516 32.408,3.43650065 31.3545,3.43650065 C30.301,3.43650065 29.5305,2.74160516 29.5305,1.76384516 L29.5305,1.76384516 Z" id="Fill-57"></path>
                        <path d="M35.33745,16.8413249 L36.72495,14.9373714 C37.85545,15.8119985 38.93495,16.3526952 40.21995,16.3526952 C41.58145,16.3526952 42.22395,15.7088655 42.22395,14.8347391 C42.22395,13.7793791 40.86195,13.3162823 39.52595,12.8021197 C37.85545,12.1843236 35.97995,11.2325972 35.97995,9.12237781 C35.97995,6.91002684 37.75295,5.34050426 40.57945,5.34050426 C42.32695,5.34050426 43.73995,6.06093265 44.76795,6.85846039 L43.40595,8.65928103 C42.53245,8.01645265 41.63295,7.57888877 40.63095,7.57888877 C39.37195,7.57888877 38.78095,8.17065135 38.78095,8.9681791 C38.78095,9.971472 40.03945,10.3574694 41.40145,10.8460991 C43.12345,11.4899288 45.02495,12.3129894 45.02495,14.6800397 C45.02495,16.8413249 43.30295,18.5910797 40.11695,18.5910797 C38.39495,18.5910797 36.57095,17.8451185 35.33745,16.8413249" id="Fill-58"></path>
                        <path d="M61.26525,11.7983763 C61.26525,9.27712723 60.44275,7.784704 58.54125,7.784704 C57.61625,7.784704 56.74275,8.24780077 55.76625,9.19952723 L55.76625,15.0916201 C56.69125,15.863615 57.56475,16.1469801 58.31025,16.1469801 C59.98025,16.1469801 61.26525,14.6545569 61.26525,11.7983763 L61.26525,11.7983763 Z M52.81125,5.64895174 L55.25225,5.64895174 L55.45775,6.98667561 L55.56075,6.98667561 C56.61425,6.08651561 57.97625,5.34005368 59.36375,5.34005368 C62.49875,5.34005368 64.32275,7.86180335 64.32275,11.7728434 C64.32275,16.0954137 61.72775,18.5911298 58.92675,18.5911298 C57.82175,18.5911298 56.71675,18.0764666 55.68925,17.2013388 L55.76625,19.3115582 L55.76625,23.273664 L52.81125,23.273664 L52.81125,5.64895174 Z" id="Fill-59"></path>
                        <path d="M73.7538,14.8859551 L73.7538,12.055808 C70.3103,12.4928712 69.1798,13.3935319 69.1798,14.654657 C69.1798,15.7861151 69.9508,16.2752454 71.0043,16.2752454 C72.0318,16.2752454 72.8028,15.7605822 73.7538,14.8859551 M66.3273,14.8859551 C66.3273,12.1844738 68.5628,10.7691499 73.7538,10.2029203 C73.7023,8.86519639 73.1628,7.73323768 71.4413,7.73323768 C70.2078,7.73323768 69.0258,8.29946735 67.8948,8.96782865 L66.8158,6.98677574 C68.2033,6.11264929 70.0018,5.34015381 72.0063,5.34015381 C75.1413,5.34015381 76.7088,7.2701409 76.7088,10.7946828 L76.7088,18.2823319 L74.2678,18.2823319 L74.0623,16.8925409 L73.9593,16.8925409 C72.8283,17.844768 71.5438,18.5907293 70.0533,18.5907293 C67.8433,18.5907293 66.3273,17.0988067 66.3273,14.8859551" id="Fill-60"></path>
                        <path d="M86.98715,9.86873961 C86.98715,8.29921703 86.03665,7.37302348 84.80315,7.37302348 C83.56965,7.37302348 82.59315,8.27368413 82.59315,9.86873961 C82.59315,11.4898286 83.56965,12.4155215 84.80315,12.4155215 C86.01065,12.4155215 86.98715,11.4898286 86.98715,9.86873961 M88.52915,19.9031706 C88.52915,18.9254106 87.73215,18.6425461 86.29365,18.6425461 L84.57215,18.6425461 C83.87815,18.6425461 83.33815,18.5909796 82.85015,18.4623138 C82.18215,18.976977 81.87365,19.5432067 81.87365,20.1344686 C81.87365,21.266928 83.10715,21.9357899 85.11165,21.9357899 C87.14165,21.9357899 88.52915,20.9840635 88.52915,19.9031706 M79.40665,20.5720325 C79.40665,19.5171732 80.04915,18.5909796 81.20565,17.8705512 L81.20565,17.767919 C80.56315,17.355888 80.07515,16.6870261 80.07515,15.6576996 C80.07515,14.6804403 80.74315,13.8308454 81.46265,13.3166828 L81.46265,13.2135499 C80.61465,12.5702209 79.81815,11.3611628 79.81815,9.86873961 C79.81815,6.96149316 82.15665,5.34040413 84.80315,5.34040413 C85.49715,5.34040413 86.13915,5.46906994 86.65315,5.64880155 L91.17565,5.64880155 L91.17565,7.83612026 L88.86315,7.83612026 C89.27415,8.32474994 89.58265,9.09674477 89.58265,9.97187252 C89.58265,12.7764867 87.47565,14.2684093 84.80315,14.2684093 C84.26365,14.2684093 83.64665,14.165777 83.08165,13.9339783 C82.69615,14.2684093 82.46465,14.5773074 82.46465,15.1430364 C82.46465,15.8639654 82.97865,16.3010286 84.52015,16.3010286 L86.75615,16.3010286 C89.78815,16.3010286 91.38115,17.2272222 91.38115,19.4145409 C91.38115,21.9097564 88.76015,23.8652764 84.64915,23.8652764 C81.64265,23.8652764 79.40665,22.7848841 79.40665,20.5720325" id="Fill-61"></path>
                        <path d="M100.83745,10.7690498 C100.83745,8.81352981 99.98945,7.63050529 98.26745,7.63050529 C96.77745,7.63050529 95.49295,8.73643045 95.23595,10.7690498 L100.83745,10.7690498 Z M92.38345,11.9786085 C92.38345,7.86180335 95.23595,5.34005368 98.19045,5.34005368 C101.60845,5.34005368 103.40745,7.8102369 103.40745,11.3352795 C103.40745,11.9010085 103.35595,12.4672382 103.27895,12.7761363 L95.26145,12.7761363 C95.51845,15.0145208 96.95745,16.3011788 98.98745,16.3011788 C100.06695,16.3011788 100.99145,15.9667479 101.91695,15.3744846 L102.91895,17.2273724 C101.71145,18.0249001 100.19495,18.5911298 98.60195,18.5911298 C95.10745,18.5911298 92.38345,16.1469801 92.38345,11.9786085 L92.38345,11.9786085 Z" id="Fill-62"></path>
                        <path d="M111.3725,18.2821316 L114.3275,18.2821316 L114.3275,5.64885161 L111.3725,5.64885161 L111.3725,18.2821316 Z M111.0385,1.76384516 C111.0385,0.760552258 111.8095,0.0656567742 112.863,0.0656567742 C113.9165,0.0656567742 114.6875,0.760552258 114.6875,1.76384516 C114.6875,2.74160516 113.9165,3.43650065 112.863,3.43650065 C111.8095,3.43650065 111.0385,2.74160516 111.0385,1.76384516 L111.0385,1.76384516 Z" id="Fill-63"></path>
                        <path d="M116.8459,16.8413249 L118.2334,14.9373714 C119.3644,15.8119985 120.4434,16.3526952 121.7284,16.3526952 C123.0904,16.3526952 123.7324,15.7088655 123.7324,14.8347391 C123.7324,13.7793791 122.3704,13.3162823 121.0344,12.8021197 C119.3644,12.1843236 117.4884,11.2325972 117.4884,9.12237781 C117.4884,6.91002684 119.2614,5.34050426 122.0879,5.34050426 C123.8354,5.34050426 125.2484,6.06093265 126.2764,6.85846039 L124.9144,8.65928103 C124.0409,8.01645265 123.1414,7.57888877 122.1394,7.57888877 C120.8804,7.57888877 120.2894,8.17065135 120.2894,8.9681791 C120.2894,9.971472 121.5484,10.3574694 122.9104,10.8460991 C124.6319,11.4899288 126.5334,12.3129894 126.5334,14.6800397 C126.5334,16.8413249 124.8119,18.5910797 121.6254,18.5910797 C119.9039,18.5910797 118.0794,17.8451185 116.8459,16.8413249" id="Fill-64"></path>
                        <path d="M134.3195,15.040304 L134.3195,0.117073032 L137.2745,0.117073032 L137.2745,15.1945027 C137.2745,15.9154317 137.6085,16.1727634 137.917,16.1727634 C138.0455,16.1727634 138.148,16.1727634 138.3795,16.1211969 L138.765,18.3335479 C138.405,18.4882472 137.891,18.5908795 137.1975,18.5908795 C135.09,18.5908795 134.3195,17.2271221 134.3195,15.040304" id="Fill-65"></path>
                        <path d="M149.4288,11.9784583 C149.4288,9.43167639 148.2978,7.7590209 146.4478,7.7590209 C144.5978,7.7590209 143.4928,9.43167639 143.4928,11.9784583 C143.4928,14.500208 144.5978,16.1723628 146.4478,16.1723628 C148.2978,16.1723628 149.4288,14.500208 149.4288,11.9784583 M140.4608,11.9784583 C140.4608,7.7590209 143.3128,5.34040413 146.4478,5.34040413 C149.6088,5.34040413 152.4608,7.7590209 152.4608,11.9784583 C152.4608,16.1723628 149.6088,18.5909796 146.4478,18.5909796 C143.3128,18.5909796 140.4608,16.1723628 140.4608,11.9784583" id="Fill-66"></path>
                        <path d="M154.0285,16.8413249 L155.416,14.9373714 C156.547,15.8119985 157.6265,16.3526952 158.911,16.3526952 C160.273,16.3526952 160.9155,15.7088655 160.9155,14.8347391 C160.9155,13.7793791 159.5535,13.3162823 158.217,12.8021197 C156.547,12.1843236 154.671,11.2325972 154.671,9.12237781 C154.671,6.91002684 156.444,5.34050426 159.271,5.34050426 C161.018,5.34050426 162.431,6.06093265 163.459,6.85846039 L162.097,8.65928103 C161.224,8.01645265 160.324,7.57888877 159.322,7.57888877 C158.063,7.57888877 157.472,8.17065135 157.472,8.9681791 C157.472,9.971472 158.731,10.3574694 160.093,10.8460991 C161.8145,11.4899288 163.716,12.3129894 163.716,14.6800397 C163.716,16.8413249 161.9945,18.5910797 158.808,18.5910797 C157.0865,18.5910797 155.262,17.8451185 154.0285,16.8413249" id="Fill-67"></path>
                        <path d="M166.28585,14.0109775 L166.28585,7.99071948 L164.48735,7.99071948 L164.48735,5.77736723 L166.44035,5.64920206 L166.79985,2.20125884 L169.26685,2.20125884 L169.26685,5.64920206 L172.47885,5.64920206 L172.47885,7.99071948 L169.26685,7.99071948 L169.26685,14.0109775 C169.26685,15.5034008 169.83235,16.2238292 171.03985,16.2238292 C171.47685,16.2238292 171.99085,16.0951634 172.35035,15.9409646 L172.86435,18.1277827 C172.17035,18.3595814 171.29685,18.5908795 170.29485,18.5908795 C167.36535,18.5908795 166.28585,16.7384924 166.28585,14.0109775" id="Fill-68"></path>
                    </g>
                </g>
                <polygon id="Fill-69" fill="#A7B8D1" mask="url(#mask-2)" points="10.5 47.4541523 44.5 47.4541523 44.5 45.4515716 10.5 45.4515716"></polygon>
                <polygon id="Fill-70" fill="#A7B8D1" mask="url(#mask-2)" points="114.5 49.4567329 148.5 49.4567329 148.5 47.9547974 114.5 47.9547974"></polygon>
                <polygon id="Fill-71" fill="#4D6892" mask="url(#mask-2)" points="43 54.4631845 95 54.4631845 95 52.4606039 43 52.4606039"></polygon>
                <polygon id="Fill-72" fill="#A7B8D1" mask="url(#mask-2)" points="132 42.4477006 146 42.4477006 146 40.44512 132 40.44512"></polygon>
                <polygon id="Fill-73" fill="#A7B8D1" mask="url(#mask-2)" points="14 41.9470555 37.5 41.9470555 37.5 39.9444748 14 39.9444748"></polygon>
                <polygon id="Fill-74" fill="#A7B8D1" mask="url(#mask-2)" points="114.5 42.4477006 129 42.4477006 129 40.44512 114.5 40.44512"></polygon>
                <path d="M114.7227,41.4797032 C114.0807,33.4673781 107.9632,27.4255923 100.4942,27.4255923 C97.4152,27.4255923 94.5097,28.4283845 92.0912,30.3263303 L90.9777,31.2004568 L90.7122,29.8081626 C89.3542,22.6794761 83.4677,17.5048077 76.7147,17.5048077 C69.5457,17.5048077 63.4547,23.2682348 62.5457,30.9105832 L62.3367,32.6678477 L61.0822,31.4217419 C58.4902,28.8484258 55.0522,27.4310994 51.4012,27.4310994 C43.9317,27.4310994 37.8147,33.4708826 37.1727,41.4797032 L35.4532,41.3415252 C36.1677,32.4265368 43.0242,25.7038735 51.4012,25.7038735 C54.9682,25.7038735 58.3542,26.9059226 61.0937,29.1172723 C62.7137,21.4093394 69.1817,15.7775819 76.7147,15.7775819 C83.8757,15.7775819 90.1617,20.9227123 92.1102,28.1885755 C94.6012,26.555471 97.4737,25.6983665 100.4942,25.6983665 C108.8712,25.6983665 115.7272,32.4235329 116.4422,41.3415252 L114.7227,41.4797032 Z" id="Fill-75" fill="#A7B8D1" mask="url(#mask-2)"></path>
                <polygon id="Fill-76" fill="#CFD7E6" mask="url(#mask-2)" points="437 148.584475 471 148.584475 471 146.581894 437 146.581894"></polygon>
                <polygon id="Fill-77" fill="#CFD7E6" mask="url(#mask-2)" points="332.5 150.587055 366.5 150.587055 366.5 148.584475 332.5 148.584475"></polygon>
                <polygon id="Fill-78" fill="#4D6892" mask="url(#mask-2)" points="402 155.593507 454 155.593507 454 153.590926 402 153.590926"></polygon>
                <polygon id="Fill-79" fill="#CFD7E6" mask="url(#mask-2)" points="377.5 155.593507 391.5 155.593507 391.5 153.590926 377.5 153.590926"></polygon>
                <polygon id="Fill-80" fill="#CFD7E6" mask="url(#mask-2)" points="444.5 143.077378 467 143.077378 467 141.575443 444.5 141.575443"></polygon>
                <polygon id="Fill-81" fill="#CFD7E6" mask="url(#mask-2)" points="352 143.578023 366.5 143.578023 366.5 141.575443 352 141.575443"></polygon>
                <path d="M443.8481,142.522263 C443.2056,134.513442 437.0886,128.473659 429.6191,128.473659 C425.9686,128.473659 422.5301,129.890985 419.9381,132.464802 L418.6831,133.710407 L418.4741,131.953143 C417.5391,124.0825 412.1486,115.587052 405.0726,115.587052 C398.2866,115.587052 391.6806,123.645437 390.3081,130.850722 L390.0431,132.243016 L388.9291,131.36889 C386.5111,129.470944 383.6051,128.468152 380.5266,128.468152 C373.0571,128.468152 366.9401,134.509938 366.2971,142.522263 L364.5781,142.384085 C365.2931,133.466092 372.1496,126.740926 380.5266,126.740926 C383.5461,126.740926 386.4181,127.59753 388.9086,129.230134 C390.8956,121.711445 397.6716,113.859827 405.0726,113.859827 C412.5991,113.859827 418.4071,122.033359 419.9406,130.148818 C422.6781,127.944477 426.0586,126.746433 429.6191,126.746433 C437.9961,126.746433 444.8526,133.469096 445.5671,142.384085 L443.8481,142.522263 Z" id="Fill-82" fill="#CFD7E6" mask="url(#mask-2)"></path>
                <polygon id="Fill-83" fill="#A7B8D1" mask="url(#mask-2)" points="79 202.153507 106 202.153507 106 200.651572 79 200.651572"></polygon>
                <polygon id="Fill-84" fill="#4D6892" mask="url(#mask-2)" points="0 203.655443 40.5 203.655443 40.5 201.652862 0 201.652862"></polygon>
                <polygon id="Fill-85" fill="#A7B8D1" mask="url(#mask-2)" points="42 207.159959 53 207.159959 53 205.658023 42 205.658023"></polygon>
                <polygon id="Fill-86" fill="#A7B8D1" mask="url(#mask-2)" points="85 197.147055 103 197.147055 103 195.64512 85 195.64512"></polygon>
                <polygon id="Fill-87" fill="#A7B8D1" mask="url(#mask-2)" points="11.5 197.647701 23.5 197.647701 23.5 196.145765 11.5 196.145765"></polygon>
                <path d="M84.52055,196.922416 C84.01155,189.765693 79.19355,184.368739 73.31305,184.368238 C70.45455,184.368238 67.75755,185.624857 65.71855,187.906297 L64.63055,189.124367 L64.45905,187.499273 C63.73905,180.671474 58.94205,175.522839 53.30005,175.522839 C47.98905,175.522839 43.35305,180.142793 42.27705,186.507995 L42.06005,187.793151 L41.08405,186.930039 C39.18505,185.250875 36.90855,184.363231 34.49955,184.363231 C28.61955,184.363231 23.80155,189.76269 23.29205,196.921915 L21.84805,196.819283 C22.41205,188.892068 27.85105,182.913363 34.49955,182.913363 C36.87305,182.913363 39.12955,183.658824 41.09155,185.081157 C42.64155,178.634349 47.62205,174.072971 53.30005,174.072971 C59.26905,174.072971 64.39155,179.060899 65.68555,185.893704 C67.84705,183.965219 70.50805,182.91887 73.31305,182.91887 C79.96205,182.91887 85.40105,188.894571 85.96455,196.819283 L84.52055,196.922416 Z" id="Fill-88" fill="#A7B8D1" mask="url(#mask-2)"></path>
                <path d="M357.4626,202.63708 C360.2466,203.828616 362.2601,206.379903 363.3646,210.103202 C363.9896,208.059568 364.9726,206.285782 366.2681,204.928033 C367.1721,203.980812 368.2221,203.244363 369.3881,202.731702 C368.3191,202.248079 367.3451,201.564698 366.4906,200.693075 C365.0851,199.259227 364.0241,197.356776 363.3651,195.158443 C362.2441,198.716027 360.1906,201.322386 357.4626,202.63708 L357.4626,202.63708 Z M362.5936,216.516967 C362.5916,216.478918 362.5906,216.440869 362.5891,216.402319 C362.4006,211.551067 360.9521,203.595816 353.4996,203.595816 C353.4431,203.595816 353.3871,203.596316 353.3306,203.597318 L353.2996,201.870092 C358.7456,201.763454 362.3931,196.730969 362.5926,189.050572 L362.5926,189.048069 L364.3166,189.092125 L364.3166,189.093127 L364.3166,189.094629 C364.2136,193.319573 365.4861,197.203078 367.7216,199.483516 C369.2881,201.081075 371.2696,201.892621 373.5876,201.870092 L373.5881,201.870092 L373.5986,203.597318 L373.5981,203.597318 C371.1456,203.611836 369.0991,204.461431 367.5151,206.12107 C365.3331,208.408518 364.1686,212.126809 364.3126,216.335733 C364.3141,216.374783 364.3156,216.413333 364.3171,216.452383 L362.5936,216.516967 Z" id="Fill-89" fill="#4BA2F2" mask="url(#mask-2)"></path>
                <path d="M68.69845,235.169253 C71.48195,236.360789 73.49595,238.912076 74.60045,242.635374 C75.22495,240.591741 76.20845,238.817955 77.50345,237.460205 C78.40745,236.512985 79.45795,235.776536 80.62395,235.264376 C79.55495,234.780252 78.58095,234.096871 77.72645,233.225248 C76.32045,231.7914 75.25995,229.888949 74.60095,227.690616 C73.47945,231.2477 71.42595,233.85506 68.69845,235.169253 L68.69845,235.169253 Z M73.82895,249.04914 C73.82745,249.011091 73.82595,248.972541 73.82495,248.934993 C73.63595,244.083741 72.18795,236.127989 64.73545,236.127989 C64.67945,236.127989 64.62295,236.128489 64.56595,236.129491 L64.53545,234.402265 C69.98195,234.295627 73.62995,229.262642 73.82845,221.580242 L75.55295,221.624298 L75.55295,221.6253 L75.55295,221.626301 C75.44895,225.851245 76.72195,229.735251 78.95745,232.015689 C80.50995,233.59923 82.46345,234.402265 84.76295,234.402265 L84.82395,234.402265 L84.83445,236.129491 C82.38145,236.144009 80.33495,236.993604 78.75095,238.653743 C76.56895,240.940691 75.40445,244.658982 75.54845,248.867906 C75.54995,248.906956 75.55145,248.945506 75.55295,248.984556 L73.82895,249.04914 Z" id="Fill-90" fill="#4BA2F2" mask="url(#mask-2)"></path>
                <path d="M73.62475,106.778952 C76.40825,107.970487 78.42225,110.521775 79.52675,114.245574 C80.15125,112.20194 81.13475,110.428154 82.42975,109.070405 C83.33375,108.122683 84.38375,107.386234 85.55025,106.873574 C84.48125,106.38995 83.50725,105.70657 82.65275,104.834947 C81.24725,103.401599 80.18575,101.498647 79.52725,99.3003143 C78.40575,102.857899 76.35225,105.464758 73.62475,106.778952 L73.62475,106.778952 Z M78.75525,120.659339 C78.75375,120.620789 78.75225,120.582239 78.75125,120.54369 C78.56075,115.655891 77.10825,107.619535 69.49225,107.738689 L69.46175,106.011963 C74.90775,105.905326 78.55525,100.873842 78.75475,93.1934446 L78.75475,93.1914421 L78.75475,93.1904408 L80.47925,93.2339969 L80.47925,93.2349982 L80.47925,93.2359995 C80.37525,97.460944 81.64775,101.344449 83.88375,103.624887 C85.44825,105.221445 87.42375,106.042002 89.74225,106.011963 L89.75025,106.011963 L89.76075,107.739189 L89.75875,107.739189 C87.30675,107.754209 85.26025,108.603803 83.67725,110.263442 C81.49475,112.55089 80.33075,116.268681 80.47475,120.477605 C80.47625,120.516154 80.47775,120.555205 80.47925,120.594255 L78.75525,120.659339 Z" id="Fill-91" fill="#4BA2F2" mask="url(#mask-2)"></path>
                <path d="M318.6924,52.5012062 C318.4504,45.6483752 316.0784,38.6318333 308.5539,38.7519881 C314.6769,38.6318333 318.4864,33.0541455 318.6924,25.088881 C318.5224,31.9747546 321.8284,38.7950436 328.8309,38.7519881 C321.6489,38.7950436 318.4144,45.5046901 318.6924,52.5012062" id="Fill-92" fill="#FFFFFF" mask="url(#mask-2)"></path>
                <path d="M312.69985,38.6554637 C315.48385,39.8469992 317.49785,42.3977863 318.60185,46.121585 C319.22685,44.0779515 320.20985,42.3041657 321.50535,40.9469166 C322.40935,39.9991954 323.45935,39.2627463 324.62585,38.7500857 C323.55685,38.2664625 322.58235,37.5830818 321.72785,36.7114586 C320.32235,35.2776108 319.26135,33.3756599 318.60285,31.1768263 C317.48135,34.7339102 315.42785,37.3407695 312.69985,38.6554637 L312.69985,38.6554637 Z M317.83085,52.5358508 C317.82885,52.4973012 317.82785,52.4587515 317.82585,52.4207025 C317.63785,47.5689502 316.18935,39.6141992 308.73685,39.6141992 C308.68035,39.6141992 308.62435,39.6146999 308.56785,39.6157012 L308.53685,37.8884754 C313.98335,37.7818379 317.63135,32.7488521 317.83035,25.0664521 L319.55435,25.1105089 L319.55435,25.1115102 L319.55435,25.1120108 C319.45035,29.337456 320.72285,33.2209605 322.95885,35.5018999 C324.51185,37.0859412 326.46485,37.8884754 328.76435,37.8884754 C328.78485,37.8884754 328.82385,37.8854715 328.82585,37.8884754 L328.83635,39.6157012 L328.83585,39.6157012 C326.38335,39.6302199 324.33585,40.4798147 322.75185,42.1399541 C320.57085,44.4269012 319.40635,48.1436908 319.54985,52.3521141 C319.55135,52.391665 319.55285,52.431216 319.55435,52.470767 L317.83085,52.5358508 Z" id="Fill-93" fill="#4BA2F2" mask="url(#mask-2)"></path>
                <path d="M123.34035,156.759309 C123.34035,158.034953 122.30735,159.069286 121.03335,159.069286 C119.75935,159.069286 118.72635,158.034953 118.72635,156.759309 C118.72635,155.483666 119.75935,154.449333 121.03335,154.449333 C122.30735,154.449333 123.34035,155.483666 123.34035,156.759309" id="Fill-94" fill="#FBB326" mask="url(#mask-2)"></path>
                <path d="M49.83305,253.583983 C49.83305,254.859627 48.80005,255.89396 47.52605,255.89396 C46.25205,255.89396 45.21905,254.859627 45.21905,253.583983 C45.21905,252.30834 46.25205,251.274007 47.52605,251.274007 C48.80005,251.274007 49.83305,252.30834 49.83305,253.583983" id="Fill-95" fill="#FFC857" opacity="0.660331157" mask="url(#mask-2)"></path>
                <path d="M39.8258,142.358852 C39.8258,143.634496 38.7928,144.668829 37.5188,144.668829 C36.2448,144.668829 35.2118,143.634496 35.2118,142.358852 C35.2118,141.083208 36.2448,140.048875 37.5188,140.048875 C38.7928,140.048875 39.8258,141.083208 39.8258,142.358852" id="Fill-96" fill="#FFC857" opacity="0.660331157" mask="url(#mask-2)"></path>
                <path d="M147.9423,2.30982658 C147.9423,3.58547045 146.9093,4.61980335 145.6353,4.61980335 C144.3613,4.61980335 143.3283,3.58547045 143.3283,2.30982658 C143.3283,1.03418271 144.3613,-0.000150193548 145.6353,-0.000150193548 C146.9093,-0.000150193548 147.9423,1.03418271 147.9423,2.30982658" id="Fill-97" fill="#FFC857" opacity="0.660331157" mask="url(#mask-2)"></path>
                <path d="M423.7553,65.7957383 C423.7553,67.0713822 422.7223,68.1057151 421.4483,68.1057151 C420.1743,68.1057151 419.1413,67.0713822 419.1413,65.7957383 C419.1413,64.5200945 420.1743,63.4857615 421.4483,63.4857615 C422.7223,63.4857615 423.7553,64.5200945 423.7553,65.7957383" id="Fill-98" fill="#FBB326" mask="url(#mask-2)"></path>
                <path d="M348.3134,97.2714999 C348.3134,98.5471437 347.2804,99.5814766 346.0064,99.5814766 C344.7324,99.5814766 343.6994,98.5471437 343.6994,97.2714999 C343.6994,95.995856 344.7324,94.9615231 346.0064,94.9615231 C347.2804,94.9615231 348.3134,95.995856 348.3134,97.2714999" id="Fill-99" fill="#FBB326" mask="url(#mask-2)"></path>
                <path d="M382.24575,246.705019 C382.24575,247.980663 381.21275,249.014996 379.93875,249.014996 C378.66475,249.014996 377.63175,247.980663 377.63175,246.705019 C377.63175,245.429375 378.66475,244.395042 379.93875,244.395042 C381.21275,244.395042 382.24575,245.429375 382.24575,246.705019" id="Fill-100" fill="#FFC857" opacity="0.660331157" mask="url(#mask-2)"></path>
                <path d="M278.8628,33.9517523 C278.8628,35.2273961 277.8298,36.261729 276.5558,36.261729 C275.2818,36.261729 274.2488,35.2273961 274.2488,33.9517523 C274.2488,32.6761084 275.2818,31.6417755 276.5558,31.6417755 C277.8298,31.6417755 278.8628,32.6761084 278.8628,33.9517523" id="Fill-101" fill="#FBB326" mask="url(#mask-2)"></path>
                <path d="M336.40705,188.130286 C336.40705,189.40593 335.37405,190.440263 334.10005,190.440263 C332.82605,190.440263 331.79305,189.40593 331.79305,188.130286 C331.79305,186.854642 332.82605,185.820309 334.10005,185.820309 C335.37405,185.820309 336.40705,186.854642 336.40705,188.130286" id="Fill-102" fill="#FFC857" opacity="0.660331157" mask="url(#mask-2)"></path>
            </g>
            <use id="Rectangle-1" stroke="#CFD7E6" mask="url(#mask-4)" stroke-width="2" fill-opacity="0.3" fill="#fff" xlink:href="#path-3"></use>
        </g>
    </g>
</svg>
