<?xml version="1.0" encoding="UTF-8"?>
<svg width="98px" height="30px" viewBox="0 0 98 30" version="1.1" xmlns="http://www.w3.org/2000/svg" xmlns:xlink="http://www.w3.org/1999/xlink">
    <!-- Generator: Sketch 53.2 (72643) - https://sketchapp.com -->
    <title>Asset 1</title>
    <desc>Created with Sketch.</desc>
    <g id="Page-1" stroke="none" stroke-width="1" fill="none" fill-rule="evenodd">
        <g id="steem-keys-copy-3" transform="translate(-448.000000, -47.000000)">
            <g id="Asset-1" transform="translate(448.000000, 47.000000)">
                <ellipse id="Oval" fill="#FFFFFF" cx="15.0709752" cy="14.9974063" rx="15.0709752" ry="14.9974063"></ellipse>
                <path d="M18.0770035,18.5118156 C18.0515776,18.2856991 18.0023658,18.0628639 17.9301773,17.8469741 L17.694734,17.1458213 L15.4975532,11.9913545 C15.343448,11.6454617 15.2071601,11.2919772 15.0892199,10.9322767 L14.9875709,10.621902 C14.6958925,9.73216114 14.6505741,8.78063927 14.856383,7.86743516 L15.0501241,7.00893372 C15.06468,6.94677943 15.0380009,6.88228115 14.9836936,6.84833406 C14.9293863,6.81438696 14.8594157,6.81847027 14.8094681,6.85850144 L14.3194681,7.24236311 C13.9048741,7.56777037 13.5103092,7.9176808 13.1379078,8.29020173 L12.9537234,8.47262248 C12.2535662,9.16977838 11.9112871,10.1467194 12.0241135,11.1259366 L12.064078,11.4829971 C12.0895069,11.7088307 12.1387194,11.931379 12.2109043,12.1469741 L12.4463475,12.8481268 L14.6443972,18.0025937 L14.6443972,18.0025937 C14.7981305,18.3485349 14.9341268,18.7020152 15.0518617,19.0616715 L15.1543794,19.3711816 C15.447198,20.2630919 15.4925231,21.2171424 15.2855674,22.1325648 L15.092695,22.9910663 C15.0783887,23.0528828 15.1053064,23.1168917 15.1595922,23.1501441 C15.1833037,23.1656746 15.2111364,23.173803 15.2395213,23.173487 C15.2732709,23.173707 15.3060783,23.1624178 15.3324823,23.1414986 L15.8224823,22.7576369 C16.237331,22.4322058 16.6321835,22.0822975 17.0049113,21.7097983 L17.188227,21.526513 C17.8884151,20.8290206 18.2306767,19.8518114 18.1178369,18.8723343 L18.0770035,18.5118156 Z" id="Path" fill="#171FC9"></path>
                <path d="M22.9500709,18.0622478 L22.9187943,17.7829971 C22.8980254,17.6025292 22.8587243,17.4246546 22.8015071,17.2521614 L22.6147163,16.6962536 L20.8719149,12.6086455 C20.7501601,12.3349545 20.6422938,12.0553516 20.5487234,11.7708934 L20.4687943,11.5262248 C20.2374521,10.8217141 20.2014343,10.0681367 20.364539,9.34495677 L20.5139716,8.68184438 C20.5266193,8.62503916 20.501959,8.56646264 20.4524,8.53559092 C20.402841,8.5047192 20.3391184,8.50823951 20.2932979,8.5443804 L19.9188475,8.83832853 C19.5892884,9.09653802 19.2756645,9.37427478 18.9796809,9.67002882 L18.8363298,9.81354467 C18.2778286,10.3699985 18.0046891,11.1494519 18.0943794,11.9308357 L18.125656,12.2100865 C18.146332,12.3902874 18.1856358,12.5678847 18.2429433,12.7400576 L18.429734,13.29683 L20.1725355,17.3827089 L20.1725355,17.3827089 C20.2944361,17.6566341 20.402305,17.9365321 20.495727,18.2213256 L20.575656,18.4659942 C20.8069983,19.1705049 20.8430161,19.9240823 20.6799113,20.6472622 L20.5304787,21.3095101 C20.5176464,21.3663181 20.5424107,21.4249762 20.5921631,21.4556196 C20.6141624,21.4697751 20.639813,21.4772826 20.6660106,21.4772334 C20.6975015,21.4776429 20.7281763,21.4672644 20.7528901,21.4478386 L21.1273404,21.1538905 C21.4568916,20.89627 21.7707885,20.6194144 22.0673759,20.3247839 L22.210727,20.181268 C22.7686738,19.6238755 23.0408545,18.8437834 22.9500709,18.0622478 L22.9500709,18.0622478 Z" id="Path" fill="#171FC9"></path>
                <path d="M12.0475709,18.0622478 L12.0154255,17.7829971 C11.9950757,17.6024599 11.9557652,17.4245425 11.8981383,17.2521614 L11.7113475,16.6962536 L9.9685461,12.6086455 C9.84778369,12.3354467 9.7391844,12.0536023 9.6462234,11.7708934 L9.56629433,11.5262248 C9.33513199,10.8217069 9.2988201,10.0682549 9.46117021,9.34495677 L9.61060284,8.68184438 C9.62416253,8.6251827 9.59963714,8.56626043 9.54978723,8.53573487 C9.50035328,8.50461111 9.43652947,8.50808173 9.39079787,8.5443804 L9.01547872,8.83832853 C8.6870943,9.09662799 8.37463208,9.37436368 8.07978723,9.67002882 L7.93643617,9.81354467 C7.37665211,10.3693159 7.10247322,11.1489966 7.19187943,11.9308357 L7.22315603,12.2100865 C7.24341355,12.3903565 7.28272688,12.5679968 7.34044326,12.7400576 L7.52723404,13.29683 L9.2648227,17.3827089 L9.2648227,17.3827089 C9.38558511,17.6559078 9.4941844,17.9377522 9.58714539,18.2213256 L9.66794326,18.4659942 C9.89885988,19.1705827 9.93487218,19.9240451 9.77219858,20.6472622 L9.62276596,21.3095101 C9.61005556,21.3661497 9.63445938,21.4246309 9.68374925,21.4556502 C9.73303912,21.4866695 9.79659514,21.4835435 9.84257092,21.4478386 L10.2178901,21.1538905 C10.5469367,20.8953988 10.860255,20.6176758 11.1561879,20.3221902 L11.299539,20.1786744 C11.8601148,19.6235948 12.1355431,18.8443184 12.0475709,18.0622478 Z" id="Path" fill="#171FC9"></path>
                <path d="M47.1338298,14.2651297 L45.1086702,13.418732 C43.8662943,12.9146974 42.7160106,12.4798271 42.7160106,11.3118156 C42.7160106,10.2129683 43.6369326,9.54899135 45.0617553,9.54899135 C46.2172518,9.54899135 47.1685816,9.93544669 48.0330319,10.5925072 L49.6941667,9.12276657 C48.4550639,7.91898466 46.7934291,7.24293792 45.0617553,7.23804035 C42.14,7.23804035 40.0227482,9.06916427 40.0227482,11.4501441 C40.0227482,13.6478386 41.5639894,14.8158501 43.0591844,15.4340058 L45.1069326,16.3270893 C46.4874468,16.8994236 47.4526773,17.2884726 47.4526773,18.5247839 C47.4526773,19.6919308 46.5100355,20.4475504 44.830656,20.4475504 C43.5344149,20.4475504 42.1956028,19.8587896 41.1469681,18.9778098 L39.356383,20.5590778 C40.8007837,21.96655 42.7413188,22.7556697 44.7628901,22.7576369 C48.1451064,22.7576369 50.1693972,20.7423631 50.1693972,18.3164265 C50.170266,16.1412104 48.9278901,15.0190202 47.1338298,14.2651297 Z" id="Path" fill="#FFFFFF"></path>
                <path d="M56.7270567,20.6507205 C55.6454078,20.6507205 55.1389007,20.0100865 55.1389007,18.6821326 L55.1389007,13.4809798 L57.5141844,13.4809798 L57.5141844,11.3974063 L55.1389007,11.3974063 L55.1389007,7.39365994 L52.7062766,9.54553314 L52.607234,11.3974063 L50.8600887,11.3974063 L50.8600887,13.4809798 L52.4751773,13.4809798 L52.4751773,18.6821326 C52.4751773,21.1089337 53.4412766,22.7576369 56.0641667,22.7576369 C56.7392285,22.7507401 57.4095936,22.6449957 58.0537057,22.443804 C58.1614362,22.4118156 58.2656915,22.378098 58.364734,22.345245 L57.5828191,20.5132565 C57.3054587,20.598804 57.0173791,20.6450792 56.7270567,20.6507205 L56.7270567,20.6507205 Z" id="Path" fill="#FFFFFF"></path>
                <path d="M94.4379433,10.9668588 C93.011383,10.9668588 91.8845567,11.8365994 90.8029078,12.981268 C90.2738121,11.7224784 89.3303014,10.9668588 87.6752482,10.9668588 C86.2721454,10.9668588 85.1679078,11.7682997 84.2243972,12.7755043 L84.132305,12.7755043 L83.942039,11.2391931 L81.7535461,11.2391931 L81.7535461,22.4783862 L84.3990248,22.4783862 L84.3990248,14.7579251 C84.3983524,14.6752711 84.4294299,14.5954825 84.4859043,14.5348703 C85.3251596,13.6599424 86.0992553,13.2337176 86.7656206,13.2337176 C87.9619504,13.2337176 88.5136348,13.9201729 88.5136348,15.7746398 L88.5136348,22.4827089 L91.1599823,22.4827089 L91.1599823,14.7579251 C91.1596578,14.6753347 91.1906875,14.5956688 91.2468617,14.5348703 C92.0852482,13.6599424 92.8384929,13.2337176 93.526578,13.2337176 C94.7003191,13.2337176 95.2520035,13.9201729 95.2520035,15.7746398 L95.2520035,22.4827089 L97.9210012,22.4827089 L97.9209397,15.4314121 C97.9304965,12.592219 96.8262589,10.9668588 94.4379433,10.9668588 Z" id="Path" fill="#FFFFFF"></path>
                <path d="M75.1289894,10.9685879 C72.4826418,10.9685879 69.9292553,13.2164265 69.9292553,16.8752161 C69.9292553,20.5841499 72.367961,22.759366 75.4964894,22.759366 C76.9230496,22.759366 78.2766312,22.2553314 79.3617553,21.5489914 L78.6093794,19.7818444 C77.8274645,20.4631124 76.8075,20.7242075 75.8414007,20.7242075 C74.023883,20.7242075 72.735461,19.5795389 72.5060993,17.5417867 L79.6832092,17.5417867 C79.7674984,17.1351955 79.8062514,16.7205615 79.7987589,16.3054755 C79.7987589,13.1662824 78.1914894,10.9685879 75.1289894,10.9685879 Z M72.4826418,15.8680115 C72.7128723,13.9910663 73.863156,13.0063401 75.1976241,13.0063401 C76.7388652,13.0063401 77.4981915,14.0827089 77.4981915,15.8680115 L72.4826418,15.8680115 Z" id="Shape" fill="#FFFFFF" fill-rule="nonzero"></path>
                <path d="M64.042305,10.9685879 C61.3968262,10.9685879 58.8434397,13.2164265 58.8434397,16.8752161 C58.8434397,20.5841499 61.2821454,22.759366 64.4106738,22.759366 C65.837234,22.759366 67.1908156,22.2553314 68.2759397,21.5489914 L67.5235638,19.7818444 C66.7416489,20.4631124 65.7216844,20.7242075 64.7555851,20.7242075 C62.9380674,20.7242075 61.6496454,19.5795389 61.4202837,17.5417867 L68.5973936,17.5417867 C68.6816828,17.1351955 68.7204358,16.7205615 68.7129433,16.3054755 C68.7129433,13.1662824 67.1021986,10.9685879 64.042305,10.9685879 Z M61.3968262,15.8680115 C61.6270567,13.9910663 62.7773404,13.0063401 64.1118085,13.0063401 C65.6530496,13.0063401 66.4123759,14.0827089 66.4123759,15.8680115 L61.3968262,15.8680115 Z" id="Shape" fill="#FFFFFF" fill-rule="nonzero"></path>
            </g>
        </g>
    </g>
</svg>