<?xml version="1.0" ?><svg height="512" id="Layer_1" version="1.1" viewBox="0 0 512 512" width="512" xml:space="preserve" xmlns="http://www.w3.org/2000/svg" xmlns:cc="http://creativecommons.org/ns#" xmlns:dc="http://purl.org/dc/elements/1.1/" xmlns:inkscape="http://www.inkscape.org/namespaces/inkscape" xmlns:rdf="http://www.w3.org/1999/02/22-rdf-syntax-ns#" xmlns:sodipodi="http://sodipodi.sourceforge.net/DTD/sodipodi-0.dtd" xmlns:svg="http://www.w3.org/2000/svg"><defs id="defs12"/><g id="g5230"><rect height="512" id="rect2987" rx="64" ry="64" style="fill:#ef4623;fill-opacity:1;fill-rule:nonzero;stroke:none" width="512" x="0" y="5.6843419e-014"/><path d="m 341.9888,270.87205 c 1.0292,2.6422 1.5014,5.3692 1.5014,8.0759 0,5.4488 -1.885,10.7458 -5.0438,15.0704 -3.1231,4.2665 -7.5504,7.5872 -12.76,9.0457 h 0.012 c -0.044,0.019 -0.084,0.019 -0.1145,0.03 -0.016,0 -0.051,0.017 -0.065,0.017 -2.4422,0.8368 -4.9425,1.2293 -7.4238,1.2293 -5.8174,0 -11.5258,-2.099 -16.0961,-5.6717 -4.5272,-3.5562 -7.9581,-8.6683 -9.0354,-14.7375 h -0.012 c 0,-0.021 0,-0.033 -0.012,-0.059 0,-0.019 0,-0.033 -0.019,-0.062 h 0.019 c -0.338,-1.5647 -0.514,-3.127 -0.514,-4.6702 0,-5.2514 1.7889,-10.299 4.7399,-14.46035 2.946,-4.14489 7.0947,-7.43396 11.9459,-9.1266 0.016,0 0.036,-0.005 0.036,-0.005 0.027,0 0.027,-0.0228 0.042,-0.0228 2.7535,-1.0204 5.6553,-1.52173 8.5139,-1.52173 5.226,0 10.3749,1.58123 14.7173,4.47657 4.2853,2.85231 7.7669,7.02884 9.5151,12.22963 0.015,0.027 0.015,0.062 0.031,0.089 0,0.033 0.022,0.053 0.034,0.075 h -0.014 z m -15.991,64.4434 c -2.0522,-1.3293 -4.4208,-2.1409 -6.9287,-2.1409 -2.0206,0 -4.1234,0.5786 -5.987,1.8218 l 0,0 c -17.6733,10.5509 -38.4637,16.3289 -59.0969,16.3289 -15.4884,0 -30.8778,-3.2687 -44.8204,-10.1216 l -0.071,-0.034 -0.07,-0.026 c -2.0966,-0.8559 -4.4931,-2.6904 -7.1049,-4.4273 -1.3293,-0.8557 -2.718,-1.7129 -4.255,-2.3421 -1.5205,-0.6507 -3.203,-1.1064 -5.0071,-1.1064 -1.4963,0 -3.0675,0.3417 -4.6095,1.0444 -0.08,0.028 -0.157,0.062 -0.2367,0.086 h 0.012 c -2.4308,0.9357 -4.3311,2.6333 -5.554,4.6411 -1.2787,2.0776 -1.9053,4.4905 -1.9053,6.8959 0,2.1688 0.5164,4.34 1.5723,6.3099 1.0102,1.8661 2.5612,3.4941 4.593,4.5942 19.932,13.4463 43.3949,19.5319 66.9551,19.5079 21.2398,0 42.606,-4.921 61.6328,-13.8703 l 0.101,-0.055 0.095,-0.054 c 2.5117,-1.48 5.8413,-2.8143 8.986,-4.7526 1.556,-0.9938 3.0727,-2.1395 4.3766,-3.6259 1.304,-1.4824 2.3485,-3.308 2.9397,-5.4728 v -0.012 c 0.2418,-0.9507 0.3633,-1.8825 0.3633,-2.8066 0,-1.77 -0.4343,-3.4486 -1.1508,-4.954 -1.0773,-2.2559 -2.8042,-4.1093 -4.8273,-5.4323 z m -139.921,-32.3286 c 0.034,0 0.076,0.012 0.122,0.031 2.5421,0.9292 5.1652,1.3888 7.7568,1.3888 6.4781,0 12.7689,-2.651 17.5353,-6.9756 4.7602,-4.3324 8.0164,-10.4737 8.0164,-17.4595 0,-0.181 0,-0.3659 -0.012,-0.5836 0.015,-0.3153 0.026,-0.6533 0.026,-1.0039 0,-6.9365 -3.208,-13.09177 -7.9238,-17.44175 -4.7299,-4.36264 -11.0067,-7.02632 -17.5114,-7.02632 -1.7318,0 -3.5069,0.20383 -5.2349,0.60515 -0.026,0 -0.041,0.007 -0.065,0.007 0,0 -0.022,0 -0.031,0 -8.6012,1.80152 -16.1516,8.18343 -18.9407,16.97452 l 0,0 v 0.012 c 0,0.018 0,0.036 0,0.036 -0.7975,2.4066 -1.1723,4.888 -1.1723,7.339 0,5.3855 1.7801,10.6281 4.8425,14.9476 3.0359,4.2412 7.3415,7.5695 12.5119,9.1317 0.029,0 0.048,0.012 0.085,0.025 z m 269.842,-62.77603 v 0.0379 c 0.062,0.87986 0.081,1.74327 0.081,2.61302 0,9.71277 -3.1182,19.05839 -8.3177,26.98226 -4.8513,7.4163 -11.5471,13.6311 -19.2545,17.8341 0.495,3.8703 0.7823,7.7695 0.7823,11.6511 -0.012,20.9194 -7.2263,41.4844 -19.7838,57.9664 v 0.012 h -0.025 c -23.2223,30.8866 -58.8855,49.1018 -94.8894,58.2918 h 0 l -0.032,0.022 c -19.1976,4.6664 -38.9966,7.0452 -58.7918,7.0452 -29.5029,0 -58.9944,-5.3248 -86.502,-16.3542 l -0.012,-0.028 h -0.026 C 140.6261,394.5307 113.4438,375.8471 96.7768,348.4597 87.8123,333.8462 82.89,316.7084 82.89,299.4882 c 0,-3.8967 0.2621,-7.7935 0.7825,-11.6598 -7.5099,-4.226 -14.0135,-10.2192 -18.8394,-17.3784 -5.1539,-7.69103 -8.4189,-16.69231 -8.8329,-26.21264 v -0.038 -0.0304 -0.0797 c 0,-13.33354 5.7971,-25.96444 14.797,-35.27588 9.0064,-9.31019 21.2955,-15.38952 34.4809,-15.38952 0.181,0 0.3645,0 0.5456,0 1.3787,-0.0974 2.7788,-0.15445 4.1791,-0.15445 6.6199,0 13.2613,1.07609 19.5622,3.49289 l 0.036,0.0278 0.037,0.006 c 5.3805,2.26361 10.7268,4.99818 15.4933,8.78478 1.547,-0.80896 3.2283,-1.71795 5.1248,-2.43705 28.8851,-17.11001 62.4607,-23.70968 95.1881,-25.61375 0.2887,-16.20862 2.2738,-33.17812 10.1824,-48.03211 6.5909,-12.34352 18.0116,-21.94489 31.6248,-25.27193 l 0.051,-0.0266 0.071,-0.007 c 5.1805,-1.00267 10.4053,-1.46477 15.5997,-1.46477 13.8261,0 27.4926,3.27641 40.2766,8.38093 5.6603,-8.54171 13.7412,-15.20215 23.221,-18.94318 l 0.085,-0.0519 0.086,-0.0329 c 5.5653,-1.73062 11.4409,-2.74722 17.343,-2.74722 6.2262,0 12.4928,1.13434 18.3697,3.76002 v -0.0177 c 0.012,0.0177 0.016,0.0177 0.016,0.0177 0.046,0.0203 0.08,0.0379 0.1158,0.0379 8.4291,3.24857 15.5553,9.24308 20.6092,16.69604 5.0577,7.4846 8.0353,16.44916 8.0353,25.66693 0,1.69643 -0.095,3.40047 -0.2937,5.10577 l -0.018,0.0329 c 0,0.0253 0,0.0583 -0.012,0.0912 -0.99,11.90295 -7.0237,22.3614 -15.5654,29.81308 -8.5949,7.48461 -19.7231,12.00677 -31.145,12.00677 -1.8331,0 -3.684,-0.10386 -5.5235,-0.34309 -11.3282,-0.86974 -21.8904,-6.35154 -29.6536,-14.50585 -7.7821,-8.14039 -12.7992,-19.02168 -12.7992,-30.76005 0,-0.5697 0.049,-1.1508 0.065,-1.7167 -10.6319,-4.73232 -21.9285,-8.66705 -33.1528,-8.65439 -1.6218,0 -3.2448,0.0899 -4.8665,0.25321 h -0.02 c -8.4,0.81023 -16.2124,6.10085 -19.9978,13.72598 v 0.007 0.0202 c -5.7451,11.19272 -6.892,24.27685 -7.0693,37.26096 32.2159,2.10031 64.6193,9.83051 93.0398,26.1708 h 0.045 l 0.4039,0.23674 c 0.5406,0.32156 1.5356,0.86848 2.4409,1.34577 1.9559,-1.58251 4.0182,-3.20932 6.373,-4.61712 8.6214,-5.73878 18.8292,-8.59109 29.0383,-8.59109 4.5272,0 9.0696,0.5735 13.4727,1.70657 h 0.015 l 0.1836,0.0532 c 0.06,0.005 0.1096,0.0291 0.1659,0.0291 v 0.006 c 10.4015,2.6434 19.8091,8.6202 26.8899,16.67197 7.0757,8.06824 11.8409,18.27221 12.7702,29.34846 v 0.0216 z M 361.0344,134.78703 c 0,0.43552 0,0.88747 0.051,1.34324 v 0.024 0.048 c 0.2063,5.59573 2.8446,10.80787 6.868,14.65524 4.0335,3.85117 9.3887,6.23126 14.8223,6.25658 h 0.07 0.071 c 0.3886,0.0266 0.7887,0.0266 1.1722,0.0266 5.4831,0.01 10.9257,-2.35856 15.0186,-6.18949 4.0931,-3.85117 6.7972,-9.09875 7.0099,-14.73878 l 0.012,-0.0254 v -0.0355 c 0.036,-0.4317 0.049,-0.84442 0.049,-1.28119 0,-5.80336 -2.713,-11.34338 -6.968,-15.45029 -4.2349,-4.10058 -9.9407,-6.63385 -15.5656,-6.62372 -1.8142,0 -3.608,0.24939 -5.3703,0.79758 l -0.051,0.005 -0.057,0.0202 c -4.6323,1.2103 -8.9747,4.06387 -12.098,7.85935 -3.1334,3.78028 -5.0337,8.45308 -5.0337,13.3082 z m -237.7892,86.35021 c -4.3045,-2.00408 -8.757,-3.44101 -13.1588,-3.41442 -0.7381,0 -1.4864,0.0341 -2.2245,0.12159 h -0.1059 l -0.101,0.0152 c -6.3212,0.17343 -12.6981,2.9308 -17.4848,7.34787 -4.7906,4.39935 -7.9606,10.34704 -8.2025,16.89607 v 0.0569 l -0.012,0.0532 c -0.041,0.53045 -0.059,1.05964 -0.059,1.56477 0,4.03728 1.2419,7.94417 3.3447,11.49277 1.551,2.64848 3.5931,5.06655 5.9022,7.17064 7.3833,-16.17571 18.9204,-29.89917 32.0995,-41.30458 z m 280.6282,79.10111 c 0,-14.4147 -5.1994,-28.8941 -13.626,-40.54882 -16.787,-23.36154 -42.8275,-38.59788 -69.9199,-47.09021 l -0.1912,-0.0658 c -5.1995,-1.59642 -10.4496,-3.00929 -15.7466,-4.21578 -15.8325,-3.60558 -32.0652,-5.40456 -48.2827,-5.40456 -21.7753,0 -43.5454,3.2207 -64.3965,9.65073 -27.0873,8.59995 -53.2151,23.72868 -69.9668,47.16616 v 0.0127 c -8.4898,11.70418 -13.4678,26.23788 -13.4678,40.70078 0,5.3272 0.6723,10.6483 2.0776,15.8363 l 0.015,0.012 c 3.0473,11.6282 9.009,22.0107 16.7277,31.055 7.7213,9.062 17.181,16.7934 27.1368,23.0981 2.2041,1.361 4.4171,2.665 6.6857,3.9398 28.9105,16.1353 62.2139,23.2122 95.2693,23.2122 5.5894,0 11.2142,-0.1937 16.7668,-0.5976 33.2934,-2.7472 66.7222,-12.579 93.7438,-32.6501 l 0.012,-0.026 c 8.6012,-6.3553 16.5707,-14.0526 22.8728,-22.8108 6.325,-8.7531 10.9648,-18.5494 13.0221,-29.1826 v -0.03 l 0,-0.012 c 0.8546,-3.9765 1.2647,-8.0024 1.2647,-12.0486 z m 26.2734,-57.36387 c -0.012,-3.50176 -0.809,-6.98326 -2.5611,-10.23689 l -0.042,-0.0329 -0.019,-0.0532 c -2.3408,-4.82727 -6.0249,-8.46955 -10.4559,-10.95344 -4.4386,-2.50289 -9.6267,-3.77143 -14.8388,-3.77143 -4.7057,0 -9.3951,1.05711 -13.5487,3.14349 13.2195,11.47757 24.8187,25.27192 32.3184,41.51094 2.4092,-2.10156 4.4652,-4.66902 6.0034,-7.52259 2.0053,-3.74357 3.1435,-7.9391 3.1435,-12.08399 z" id="reddit_4_" style="fill:#ffffff"/></g></svg>