<svg xmlns="http://www.w3.org/2000/svg" viewBox="0 0 14 14"><path d="M5.803 1.167c-.356 0-.644-.262-.644-.584 0-.322.288-.583.644-.583h6.879c.356 0 .644.261.644.583 0 .322-.288.584-.644.584H5.803zm0 3.111c-.356 0-.644-.261-.644-.584 0-.322.288-.583.644-.583h6.879c.356 0 .644.261.644.583 0 .323-.288.584-.644.584H5.803zm0 3.111c-.356 0-.644-.261-.644-.583 0-.323.288-.584.644-.584h6.879c.356 0 .644.261.644.584 0 .322-.288.583-.644.583H5.803zM.645 10.5C.289 10.5 0 10.239 0 9.917c0-.322.289-.584.645-.584h12.037c.356 0 .644.262.644.584 0 .322-.288.583-.644.583H.645zm0 3.111c-.356 0-.645-.261-.645-.583 0-.322.289-.584.645-.584h12.037c.356 0 .644.262.644.584 0 .322-.288.583-.644.583H.645zM1.2 5.697l.903 1.084L3 5.698V1.2H1.2v4.497zM.8 0h2.6a.8.8 0 0 1 .8.8v5.042a.8.8 0 0 1-.184.51L2.72 7.918a.8.8 0 0 1-1.127.105c-.055-.048-.055-.048-.104-.104L.185 6.353A.8.8 0 0 1 0 5.842V.8A.8.8 0 0 1 .8 0z"/></svg>