<svg xmlns="http://www.w3.org/2000/svg" viewBox="0 0 21 21"><path d="M15.75 5.25H5.25c-.525 0-.875-.35-.875-.875s.35-.875.875-.875h10.5c.525 0 .875.35.875.875s-.35.875-.875.875zm-4.375 3.5H5.25c-.525 0-.875-.35-.875-.875S4.725 7 5.25 7h6.125c.525 0 .875.35.875.875s-.35.875-.875.875zM14 12.25H5.25c-.525 0-.875-.35-.875-.875s.35-.875.875-.875H14c.525 0 .875.35.875.875s-.35.875-.875.875z"/><path d="M15.1 20.506a.817.817 0 0 1-.521-.183l-5.456-4.468H1.965C.888 15.855 0 14.953 0 13.853V1.98C0 .886.888.012 1.965.012H19.03c1.088 0 1.97.874 1.97 1.969v11.872c0 1.1-.882 2.002-1.971 2.002H15.91v3.833a.813.813 0 0 1-.811.818zM1.965 1.645c-.173 0-.314.142-.314.336v11.872c0 .195.144.37.314.37h7.452c.19 0 .371.06.518.181l4.338 3.554v-2.927c0-.452.374-.808.826-.808h3.93c.175 0 .333-.181.333-.37V1.98a.337.337 0 0 0-.333-.336H1.965z"/></svg>