<svg xmlns="http://www.w3.org/2000/svg" viewBox="0 0 20 20"><path d="M20 19.219a.781.781 0 0 0-.781-.782H.78A.781.781 0 1 0 .78 20h18.44c.431 0 .781-.35.781-.781zm0-4.61a.781.781 0 0 0-.781-.78H.78a.781.781 0 1 0 0 1.562h18.44c.431 0 .781-.35.781-.782zM20 10a.781.781 0 0 0-.781-.781H8.047a.781.781 0 1 0 0 1.562h11.172c.431 0 .781-.35.781-.781zm0-4.61a.781.781 0 0 0-.781-.78H8.047a.781.781 0 1 0 0 1.562h11.172c.431 0 .781-.35.781-.781zm0-4.609A.781.781 0 0 0 19.219 0H8.047a.781.781 0 1 0 0 1.563h11.172c.431 0 .781-.35.781-.782zM1.562 7.733l1.094 1.139 1.094-1.14v-6.17H1.562v6.17zm1.094 3.048a.781.781 0 0 1-.563-.24L.218 8.588A.781.781 0 0 1 0 8.047V.78C0 .35.35 0 .781 0h3.75c.432 0 .782.35.782.781v7.266a.781.781 0 0 1-.218.54L3.22 10.542a.781.781 0 0 1-.564.24z"/></svg>