<svg xmlns="http://www.w3.org/2000/svg" viewBox="0 0 25 24"><path d="M15.517 8.571H5.172c-.517 0-.862-.342-.862-.857 0-.514.345-.857.862-.857h10.345c.517 0 .862.343.862.857 0 .515-.345.857-.862.857zM11.207 12H5.172c-.517 0-.862-.343-.862-.857s.345-.857.862-.857h6.035c.517 0 .862.343.862.857s-.345.857-.862.857zm2.586 3.429h-8.62c-.518 0-.863-.343-.863-.858 0-.514.345-.857.862-.857h8.621c.517 0 .862.343.862.857 0 .515-.345.858-.862.858z"/><path d="M14.876 23.516a.808.808 0 0 1-.513-.179L8.99 18.96H1.936C.874 18.96 0 18.076 0 17V5.369C0 4.296.874 3.44 1.936 3.44h16.811a1.93 1.93 0 0 1 1.943 1.93v11.629c0 1.077-.87 1.961-1.943 1.961h-3.07v3.755a.796.796 0 0 1-.8.8zM1.936 5.04c-.17 0-.31.14-.31.33v11.629c0 .191.142.362.31.362h7.342a.8.8 0 0 1 .51.178l4.274 3.481v-2.868c0-.442.368-.791.814-.791h3.871c.173 0 .329-.177.329-.362V5.369a.331.331 0 0 0-.329-.33H1.937z"/><ellipse cx="19.397" cy="5.571" fill="#FFF" rx="3.879" ry="3.857"/><path d="M19.698 10.029c-2.785 0-5.043-2.245-5.043-5.015C14.655 2.245 16.913 0 19.698 0c2.786 0 5.043 2.245 5.043 5.014 0 2.77-2.257 5.015-5.043 5.015zm0-1.458c1.976 0 3.578-1.592 3.578-3.557 0-1.964-1.602-3.557-3.578-3.557-1.976 0-3.577 1.593-3.577 3.557 0 1.965 1.601 3.557 3.577 3.557z"/><path d="M20.358 3.911v.676H18.24a.555.555 0 0 0 0 1.11h2.12v.677c0 .025.017.048.044.057.028.01.06.005.08-.013l1.466-1.23a.057.057 0 0 0 .021-.043.058.058 0 0 0-.02-.044l-1.467-1.233a.083.083 0 0 0-.08-.014c-.027.01-.045.033-.045.057z"/></svg>