<svg xmlns="http://www.w3.org/2000/svg" viewBox="0 0 44 34"><path d="M38.593.088H5.376C2.41.088 0 2.53 0 5.537V28.55C0 31.556 2.41 34 5.376 34h33.207c2.966 0 5.376-2.444 5.376-5.45V5.547C43.97 2.54 41.558.088 38.593.088zm2.92 28.463c0 1.632-1.31 2.96-2.92 2.96H5.376c-1.61 0-2.92-1.328-2.92-2.96V5.546c0-1.632 1.31-2.96 2.92-2.96h33.207c1.61 0 2.92 1.328 2.92 2.96V28.55h.01z"/><path d="M27.723 16.758l10.751-9.774c.5-.46.546-1.244.091-1.76a1.222 1.222 0 0 0-1.737-.093l-14.826 13.49L19.11 16c-.01-.008-.018-.017-.018-.027a1.875 1.875 0 0 0-.2-.175L7.122 5.122a1.215 1.215 0 0 0-1.738.101c-.454.517-.408 1.3.1 1.761l10.88 9.857L5.53 27.12a1.262 1.262 0 0 0-.054 1.762 1.22 1.22 0 0 0 1.737.064l10.996-10.428 2.984 2.701a1.21 1.21 0 0 0 1.638-.009l3.064-2.784 10.933 10.53a1.218 1.218 0 0 0 1.737-.046 1.261 1.261 0 0 0-.045-1.762L27.723 16.76z"/></svg>