<svg xmlns="http://www.w3.org/2000/svg" viewBox="0 0 13 24"><path d="M7.405 22.373v-10.03h3.73l.14-2.98h-3.87V6.41c0-1.34.486-1.912 1.826-1.912.585 0 1.24.003 1.966.008l.068-2.768a22.084 22.084 0 0 0-2.185-.11c-3.17 0-4.804 1.823-4.804 4.333v3.401h-2.63v2.98h2.63v10.03h3.13zM9.051 24h-6.42V13.969H0V7.735h2.63V5.961C2.63 2.593 4.955 0 9.08 0c1.013 0 2.057.07 3.133.21l.733.094-.143 5.844-.811-.008c-1.05-.01-1.97-.014-2.761-.014-.236 0-.271.009-.204-.07.041-.05.024.054.024.354v1.326H13l-.293 6.234H9.05V24z"/></svg>