<svg xmlns="http://www.w3.org/2000/svg" viewBox="0 0 24 24"><path fill="#3F46AD" fill-rule="evenodd" d="M22.442 9.73l-2.26-.45a9.331 9.331 0 0 0-.397-.952l1.28-1.926a1.475 1.475 0 0 0-.184-1.86L19.46 3.12a1.464 1.464 0 0 0-1.047-.432c-.284 0-.57.078-.818.245l-1.922 1.284a8.777 8.777 0 0 0-.956-.397l-.45-2.265A1.479 1.479 0 0 0 12.818.37H10.81c-.703 0-1.309.498-1.45 1.186l-.45 2.265a9.118 9.118 0 0 0-.952.397L6.036 2.934a1.483 1.483 0 0 0-.819-.245c-.382 0-.76.144-1.045.432L2.751 4.54a1.47 1.47 0 0 0-.184 1.861l1.28 1.926a9.336 9.336 0 0 0-.397.952l-2.264.45A1.483 1.483 0 0 0 0 11.18v2.009a1.48 1.48 0 0 0 1.186 1.45l2.264.453c.116.325.25.642.397.952l-1.28 1.922a1.475 1.475 0 0 0 .184 1.864l1.421 1.421a1.477 1.477 0 0 0 1.864.184l1.922-1.284c.306.152.624.285.952.397l.455 2.264a1.47 1.47 0 0 0 1.445 1.186h2.009c.706 0 1.312-.497 1.449-1.186l.454-2.264c.329-.112.645-.245.952-.397l1.922 1.284a1.48 1.48 0 0 0 1.865-.184l1.42-1.42a1.48 1.48 0 0 0 .184-1.865l-1.28-1.922c.148-.31.28-.627.396-.955l2.26-.45a1.48 1.48 0 0 0 1.192-1.45V11.18c0-.703-.499-1.309-1.191-1.45zm-2.552 3.913c-.513.1-.935.469-1.104.963a7.355 7.355 0 0 1-.332.793 1.467 1.467 0 0 0 .102 1.464l1.28 1.922-1.422 1.42-1.921-1.28a1.468 1.468 0 0 0-1.464-.1 7.956 7.956 0 0 1-.793.33c-.494.17-.859.592-.963 1.105l-.454 2.264H10.81l-.45-2.264a1.478 1.478 0 0 0-.963-1.104 7.258 7.258 0 0 1-.794-.332 1.512 1.512 0 0 0-.645-.147c-.288 0-.573.083-.819.248l-1.922 1.28-1.424-1.42 1.284-1.922c.288-.437.328-.992.1-1.464a7.35 7.35 0 0 1-.33-.793 1.476 1.476 0 0 0-1.104-.963L1.48 13.19v-2.01l2.264-.451c.511-.104.93-.472 1.103-.966.094-.27.206-.537.328-.793a1.47 1.47 0 0 0-.097-1.46L3.793 5.583l1.42-1.42L7.14 5.446c.246.163.53.245.819.245.22 0 .44-.046.641-.144.257-.127.52-.238.794-.332.494-.173.861-.591.963-1.104l.454-2.264h2.009l.454 2.264c.1.513.469.93.963 1.104.274.094.537.205.793.328a1.495 1.495 0 0 0 1.464-.097l1.921-1.284 1.421 1.42-1.28 1.926a1.469 1.469 0 0 0-.1 1.46c.122.257.234.52.328.794a1.48 1.48 0 0 0 1.107.963l2.26.454.004 2.009-2.264.454z"/></svg>