<svg xmlns="http://www.w3.org/2000/svg" viewBox="0 0 26 21"><path d="M1.92 9.121a.75.75 0 1 1-.84-1.242L12.018.471a1.75 1.75 0 0 1 1.962 0l10.94 7.408a.75.75 0 0 1-.842 1.242L13.14 1.713a.25.25 0 0 0-.28 0L1.92 9.12z"/><path d="M5.5 19.5h4.133v-5.636l.03-.162a3.31 3.31 0 0 1 6.521.05l.02.123V19.5H20.5V9.75a.75.75 0 1 1 1.5 0V20a1 1 0 0 1-1 1h-5.295a1 1 0 0 1-1-1v-6a1.81 1.81 0 0 0-3.567-.028L11.133 20a1 1 0 0 1-1 1H5a1 1 0 0 1-1-1V9.75a.75.75 0 0 1 1.5 0v9.75zm4.133 0h.5a.5.5 0 0 0-.5.5v-.5zm6.572 0v.5a.5.5 0 0 0-.5-.5h.5zm4.295 0h.5a.5.5 0 0 0-.5.5v-.5z"/></svg>