<svg xmlns="http://www.w3.org/2000/svg" viewBox="0 0 20 20"><path d="M18.438 17.656a.783.783 0 0 1-.782.782h-1.172a.782.782 0 0 1-.78-.782V9.688c0-.431.35-.782.78-.782h1.172c.431 0 .782.35.782.781v7.97zm-.782-10.312h-1.172c-.254 0-.5.04-.729.116l-3.857-6.006-.503-.707-.043-.044A2.326 2.326 0 0 0 9.678 0a2.346 2.346 0 0 0-2.217 3.105l.016.047.022.044c.123.25.254.511.393.787.35.698.928 1.848 1.015 2.194-.057.41-.604.659-.994.659h-5.14A2.23 2.23 0 0 0 .547 9.062c0 .405.11.795.312 1.134A2.224 2.224 0 0 0 0 11.953a2.26 2.26 0 0 0 .883 1.793c-.19.33-.294.707-.294 1.098 0 .847.478 1.584 1.181 1.96a2.115 2.115 0 0 0-.208.908c0 1.326.94 2.288 2.235 2.288h7.648a.781.781 0 1 0 0-1.563H3.797c-.606 0-.672-.507-.672-.725 0-.322.272-.498.356-.544.438-.241.503-.589.503-.774 0-.497-.429-.886-.976-.886h-.176a.673.673 0 0 1-.681-.664c0-.233.13-.453.339-.573l.037-.02c.345-.187.52-.455.52-.797 0-.295-.197-.804-.935-.844-.298-.016-.55-.317-.55-.657 0-.3.212-.57.504-.644.47-.119.786-.488.786-.918 0-.214-.08-.522-.454-.782a.665.665 0 0 1 .375-1.21h5.14c1.19 0 2.507-.846 2.56-2.212v-.03c0-.47-.343-1.199-1.185-2.875l-.361-.723a.782.782 0 0 1 1.273-.797l.394.552 3.92 6.105a2.33 2.33 0 0 0-.373 1.268v7.97A2.346 2.346 0 0 0 16.484 20h1.172A2.346 2.346 0 0 0 20 17.656V9.688a2.346 2.346 0 0 0-2.344-2.344z"/></svg>