<svg xmlns="http://www.w3.org/2000/svg" viewBox="0 0 19 20"><path d="M18.82 10.418l.009-.008c.012-.016.025-.028.033-.045.004-.004.004-.008.009-.012.008-.016.02-.032.029-.049 0-.004.004-.008.004-.008a.615.615 0 0 0 .025-.053c0-.004 0-.004.004-.008.008-.016.013-.037.021-.057 0-.004 0-.008.004-.008.004-.02.013-.037.013-.057 0-.008 0-.012.004-.02.004-.017.004-.033.008-.05.005-.024.005-.044.005-.068 0-.025 0-.045-.005-.07a.193.193 0 0 0-.008-.048c0-.009 0-.013-.004-.02l-.013-.058c0-.004 0-.008-.004-.008-.004-.02-.013-.037-.02-.057 0-.004 0-.004-.005-.008l-.025-.053c0-.004-.004-.008-.004-.008a.282.282 0 0 0-.03-.05c-.004-.003-.004-.007-.008-.011-.012-.016-.02-.033-.033-.045l-.009-.008c-.016-.017-.029-.037-.05-.053l-4.13-4.022a.732.732 0 0 0-1.014 0 .688.688 0 0 0 0 .989l2.906 2.833H4.978a.709.709 0 0 0-.719.697c0 .386.322.7.719.7h11.558l-2.885 2.813a.688.688 0 0 0 0 .99.724.724 0 0 0 .505.203c.184 0 .367-.07.505-.204l4.105-4.002a.795.795 0 0 1 .054-.057z"/><path d="M3.888 1.4h5.345A.709.709 0 0 0 9.95.705a.71.71 0 0 0-.718-.7H3.888C1.746.004 0 1.706 0 3.794V16.16c0 2.088 1.746 3.79 3.888 3.79h5.257a.709.709 0 0 0 .718-.696.71.71 0 0 0-.718-.7H3.888c-1.353 0-2.456-1.075-2.456-2.394V3.794c.004-1.323 1.103-2.393 2.456-2.393z"/></svg>