<svg xmlns="http://www.w3.org/2000/svg" viewBox="0 0 44 40"><path d="M38.501.106H5.417C2.435.106 0 2.56 0 5.584v21.22c0 3.015 2.426 5.477 5.417 5.477h15.31v5.23h-7.632c-.684 0-1.231.553-1.231 1.244 0 .692.547 1.245 1.231 1.245h17.728c.684 0 1.23-.553 1.23-1.245 0-.691-.546-1.245-1.23-1.245H23.19v-5.229h15.311c2.982 0 5.417-2.453 5.417-5.477V5.584c0-3.025-2.426-5.478-5.417-5.478zM5.417 2.596H38.51c1.623 0 2.955 1.337 2.955 2.988v17.733H2.462V5.584c0-1.651 1.322-2.988 2.955-2.988zM38.5 29.791H5.417c-1.623 0-2.955-1.337-2.955-2.987v-.996h38.994v.996c0 1.641-1.323 2.987-2.955 2.987z"/></svg>