<svg xmlns="http://www.w3.org/2000/svg" viewBox="0 0 22 20"><path d="M17.71 20a.857.857 0 0 1-.488-.153l-5.532-3.813-2.967 2.17a.86.86 0 0 1-.803.115.88.88 0 0 1-.547-.608l-1.49-5.738L.56 9.905a.885.885 0 0 1-.56-.82.885.885 0 0 1 .549-.83L20.789.07a.848.848 0 0 1 .392-.068.86.86 0 0 1 .604.3.888.888 0 0 1 .197.76l-3.416 18.219a.881.881 0 0 1-.522.652.853.853 0 0 1-.334.067zm-5.534-5.77l4.927 3.397L19.762 3.45l-9.602 9.39 1.993 1.373.023.016zm-4.102-.756l.66 2.541 1.421-1.04-1.861-1.283a.856.856 0 0 1-.22-.218zM3.267 9.061l3.655 1.42a.88.88 0 0 1 .531.601l.463 1.786a.892.892 0 0 1 .263-.546l9.148-8.946L3.267 9.06z"/></svg>