<svg xmlns="http://www.w3.org/2000/svg" viewBox="0 0 28 18"><path d="M11.487 3.722c.153 1.079.172 2.225.06 3.599-.035.428-.106.773-.227 1.08a1.471 1.471 0 0 1-.142.275l-.374.56-.617-.264a1.4 1.4 0 0 1-.27-.157c-.349-.255-.584-.542-.93-1.06l-.06-.09c-.965-1.45-1.774-3.046-2.474-4.876-.165-.43-.407-.617-.736-.622a93.062 93.062 0 0 0-3.6.001c-.288.006-.407.063-.458.148-.06.1-.057.279.074.589 1.586 3.753 3.02 6.47 4.649 8.82 1.11 1.6 2.21 2.694 3.467 3.46 1.3.791 2.769 1.179 4.495 1.179.2 0 .402-.006.61-.016.73-.035.87-.18.903-.961.039-.845.142-1.399.415-1.93.161-.312.362-.544.708-.637.354-.094.654.017.952.223.257.177.465.383.717.675l.117.137.119.14.239.284c.487.58.71.84.993 1.147.638.692 1.322.987 2.15.922l3.655.001c.135-.012.252-.094.336-.253.132-.248.13-.589-.024-.905-.206-.424-.468-.813-.86-1.317-.45-.575-.858-1.01-1.785-1.945a123.07 123.07 0 0 1-.566-.573l-.11-.115c-.418-.434-.643-.771-.68-1.177-.04-.409.121-.78.454-1.273l.05-.074c.196-.292.406-.594.665-.96l.378-.532c.48-.674.698-.982.956-1.363l.071-.105c.891-1.312 1.239-1.924 1.492-2.77.087-.294.093-.485.029-.597-.057-.1-.195-.168-.462-.217a1.629 1.629 0 0 0-.298-.017l-4.021-.004c-.34-.006-.518.122-.662.51a25.038 25.038 0 0 1-.768 1.882c-.771 1.672-1.46 2.852-2.386 3.9l-.045.05-.091.102-.037.04c-.125.131-.21.208-.353.28l-.42.213-.393-.262c-.392-.262-.604-.93-.592-1.413l-.004-4.908c-.083-.638-.187-.809-.64-.91h-4.134c-.398 0-.607.127-.9.491.774.194 1.248.75 1.365 1.595zM9.01 16.585c-1.465-.892-2.725-2.145-3.958-3.923-1.7-2.451-3.185-5.265-4.812-9.116-.319-.754-.33-1.472.028-2.074C.636.856 1.282.547 2.085.532A94.61 94.61 0 0 1 5.743.531c1.02.015 1.83.642 2.224 1.669.586 1.532 1.247 2.879 2.017 4.104a13.069 13.069 0 0 0-.104-2.353c-.026-.19-.015-.178-.117-.198-.585-.118-1.04-.371-1.264-1.045-.168-.506-.062-.972.194-1.378.055-.086.098-.144.166-.23C9.435.383 10.067 0 11.022 0h4.168c.09 0 .18.01.267.028 1.294.272 1.787 1.044 1.95 2.324.008.06.012.119.012.178l.002 3.625c.414-.643.804-1.389 1.226-2.304.23-.495.427-.987.72-1.767.38-1.018 1.164-1.587 2.195-1.569l4.006.004c.237 0 .396.01.587.044.69.125 1.226.394 1.578 1.007.344.6.324 1.2.12 1.888-.317 1.06-.724 1.776-1.707 3.223l-.07.105c-.269.395-.49.71-.978 1.394l-.375.527c-.252.357-.456.65-.644.93l-.048.071c-.054.08-.097.149-.129.206.037.038.094.104.175.187a32.98 32.98 0 0 0 .342.351l.317.32c.972.98 1.408 1.446 1.912 2.09.459.587.776 1.06 1.043 1.61.377.776.383 1.67-.002 2.397-.344.647-.955 1.063-1.659 1.113l-.095.004-3.602-.005c-1.279.105-2.44-.396-3.404-1.441-.306-.331-.54-.604-1.043-1.203l-.237-.28c-.057-.07-.057-.07-.115-.137a3.332 3.332 0 0 0-.056.54c-.069 1.614-.869 2.446-2.445 2.522-.232.012-.462.018-.69.018-2.013 0-3.771-.464-5.333-1.415zm7.374-9.08z"/></svg>