<svg xmlns="http://www.w3.org/2000/svg" viewBox="0 0 20 20"><path d="M16.596 1.922V4.23H6.316l10.28-2.307zm1.737 7.294H14.84c-1.604 0-2.91 1.3-2.91 2.9a2.91 2.91 0 0 0 2.91 2.9h3.493v3.322H1.667V5.89h16.666v3.325zm0 4.136H14.84a1.24 1.24 0 0 1-1.242-1.237 1.24 1.24 0 0 1 1.242-1.237h3.493v2.474zM.833 20h18.334c.46 0 .833-.372.833-.831V5.059a.833.833 0 0 0-.833-.83h-.905V.883a.832.832 0 0 0-1.015-.811L.65 3.796a.832.832 0 0 0-.651.81V19.17c0 .459.373.831.833.831z"/><path d="M4.43 14.677h1.085V9.483H4.43v5.194zM6.349 7.82H3.597a.833.833 0 0 0-.834.832v6.856c0 .459.374.831.834.831h2.752c.46 0 .833-.372.833-.831V8.652a.832.832 0 0 0-.833-.832z"/></svg>