<svg xmlns="http://www.w3.org/2000/svg" viewBox="0 0 46 32"><path d="M45.967 0H36.46l-.681.118v.913c0 .107.324.197.414.264.085.073.32.112.414.112l.862.043c.978.045 1.275.257 1.656.616.372.37.435.998.143 1.882l-8.405 21.937-.32-.095-5.341-12.009c.077-.18.125-.28.125-.28l4.37-8.982a40.727 40.727 0 0 1 1.252-2.19c.457-.72.68-.854 1.922-.92.255 0 .352-.124.352-.375V.125L33.16.027s-5.226-.017-7.607 0l.003.096v.908c0 .11-.063.2.022.267.09.072.127.11.225.11l.356.045c.974.044 1.408.324 1.54.498.233.315.342.652-.222 2l-3.367 7.37-3.04-6.837c-.997-2.183-1.245-2.86.26-2.987l.405-.092c.287 0 .242-.115.242-.332V.118l-.03-.078h-8.111L13.8.135v.958c0 .215.212.27.604.33 1.41.201 1.385.364 2.775 3.395.21.454.824 1.825.824 1.825l3.17 6.841s.358.881.923 2.246l-4.61 10.098-.262-.075s-7.15-16.566-9.22-22.11c-.216-.569-.31-.998-.31-1.26 0-.564.461-.868 1.384-.908l1.408-.052c.287 0 .759-.12.759-.372V.142L10.82.048S2.062.038.293.048L0 .142v.959c0 .17.23.277.626.322 1.089.067 1.82.256 2.161.573.342.322.714 1.133 1.193 2.396 2.601 6.862 8.129 19.103 10.82 26.077.773 1.901 1.748 2.198 2.93-.06 1.214-2.478 3.668-7.977 5.457-12.037 1.675 4.05 3.953 9.527 5.054 12.01.873 1.986 1.872 2.183 2.885.06 2.648-6.468 10.385-25.928 10.385-25.928.334-.955.803-1.69 1.404-2.226.597-.526 1.488-.826 2.733-.883.252 0 .352-.127.352-.374V.118L45.967 0z"/></svg>