<svg xmlns="http://www.w3.org/2000/svg" viewBox="0 0 33 33"><circle r="15" cy="16" cx="16" fill="#0078c4" transform="translate(.28 .72)"/><g fill="#fff"><path d="M18.004 21.288c-.1-.069-.277-.173-.673-.173h-4.466c-1.334 0-2.48-1.003-2.48-2.277v-3.876h-.07c-1.011 0-1.777.788-1.777 1.75v4.957c0 .962.824 1.562 1.835 1.562H11v1.846l2.042-1.73c.073-.055.204-.116.508-.116h3.454c.884 0 1.823-.439 1.996-1.231z"/><path d="M22.115 9.077h-8.357c-1.335 0-2.143 1.03-2.143 2.3v6.47c0 1.272 1.077 2.307 2.412 2.307h3.888c.4 0 .577.088.673.161l2.874 2.3v-2.461h.653c1.339 0 2.423-1.035 2.423-2.304v-6.473c0-1.27-1.084-2.3-2.423-2.3z"/></g></svg>