<?xml version="1.0" encoding="UTF-8" standalone="no"?>
<svg
   xmlns:dc="http://purl.org/dc/elements/1.1/"
   xmlns:cc="http://creativecommons.org/ns#"
   xmlns:rdf="http://www.w3.org/1999/02/22-rdf-syntax-ns#"
   xmlns:svg="http://www.w3.org/2000/svg"
   xmlns="http://www.w3.org/2000/svg"
   enable-background="new 0 0 33 33"
   height="33px"
   version="1.1"
   viewBox="0 0 33 33"
   width="33px"
   xml:space="preserve"
   id="svg3767"><metadata
   id="metadata3773"><rdf:RDF><cc:Work
       rdf:about=""><dc:format>image/svg+xml</dc:format><dc:type
         rdf:resource="http://purl.org/dc/dcmitype/StillImage" /><dc:title></dc:title></cc:Work></rdf:RDF></metadata><defs
   id="defs3771" />
    
<g
   id="layer1"
   style="display:inline"><g
     id="Chevron_Up_Circle"
     transform="translate(0.27965618,0.72033918)">
        <circle
   cx="16"
   cy="16"
   r="15"
   id="circle3764"
   style="fill:#0078c4;stroke:none" />
        <!-- path d="M16,0C7.163,0,0,7.164,0,16c0,8.837,7.163,16,16,16c8.836,0,16-7.163,16-16C32,7.164,24.836,0,16,0z M16,30   C8.28,30,1.969,23.72,1.969,16C1.969,8.28,8.28,2,16,2c7.72,0,14,6.28,14,14C30,23.72,23.72,30,16,30z" fill="#121313"/> -->
        <!--<path d="M16.699,11.293c-0.384-0.38-1.044-0.381-1.429,0l-6.999,6.899c-0.394,0.391-0.394,1.024,0,1.414   c0.395,0.391,1.034,0.391,1.429,0l6.285-6.195l6.285,6.196c0.394,0.391,1.034,0.391,1.429,0c0.394-0.391,0.394-1.024,0-1.414   L16.699,11.293z" fill="#121313"/>-->
    </g><g
     id="g3878"
     style="fill:#ffffff;fill-rule:evenodd"
     transform="translate(8.4289961,8.5308034)"><g
       id="g3876"
       style="fill:#ffffff;fill-rule:nonzero"><path
         style="fill:#ffffff"
         id="path3872"
         d="M 1.707,8.778 7.364,3.121 a 1,1 0 0 1 1.414,0 l 5.657,5.657 A 1,1 0 1 0 15.849,7.364 L 9.485,1 A 2,2 0 0 0 6.657,1 L 0.293,7.364 a 1,1 0 1 0 1.414,1.414 z" /><path
         style="fill:#ffffff"
         id="path3874"
         d="m 1.707,15.778 5.657,-5.657 a 1,1 0 0 1 1.414,0 l 5.657,5.657 a 1,1 0 1 0 1.414,-1.414 L 9.485,8 A 2,2 0 0 0 6.657,8 l -6.364,6.364 a 1,1 0 1 0 1.414,1.414 z" /></g></g></g></svg>