<?xml version="1.0" standalone="no"?>
<!DOCTYPE svg PUBLIC "-//W3C//DTD SVG 20010904//EN"
 "http://www.w3.org/TR/2001/REC-SVG-20010904/DTD/svg10.dtd">
<svg version="1.0" xmlns="http://www.w3.org/2000/svg"
 width="688.000000pt" height="688.000000pt" viewBox="0 0 688.000000 688.000000"
 preserveAspectRatio="xMidYMid meet">
<metadata>
Created by potrace 1.11, written by Peter Selinger 2001-2013
</metadata>
<g transform="translate(0.000000,688.000000) scale(0.100000,-0.100000)"
fill="#000000" stroke="none">
<path d="M2385 6864 c-341 -59 -652 -249 -858 -522 -352 -467 -375 -1096 -59
-1587 52 -81 176 -230 209 -252 13 -9 23 -20 23 -27 0 -6 -156 -114 -345 -240
-190 -126 -345 -232 -345 -236 0 -27 939 -23 1190 5 432 48 691 117 967 255
186 93 264 149 393 279 196 198 328 458 375 736 24 142 23 360 -3 491 -59 293
-185 527 -396 732 -207 201 -447 321 -731 367 -111 18 -313 18 -420 -1z m450
-324 c167 -45 316 -124 452 -240 105 -88 107 -95 48 -147 l-48 -42 -78 72
c-299 278 -719 331 -1086 137 l-91 -49 -37 56 c-43 64 -46 58 75 122 88 46
207 88 305 107 107 21 358 12 460 -16z"/>
<path d="M4434 6539 c28 -203 33 -436 16 -655 -87 -1072 -652 -1848 -1567
-2153 -302 -101 -507 -131 -940 -138 -556 -9 -929 28 -1208 122 -105 35 -282
121 -370 178 -38 25 -71 44 -73 42 -9 -9 45 -145 97 -249 132 -261 326 -478
576 -645 364 -244 967 -470 1378 -517 31 -3 59 -10 62 -13 8 -14 -15 -256 -35
-368 -97 -532 -380 -1044 -719 -1299 -109 -82 -241 -146 -356 -174 -78 -20
-108 -22 -240 -18 -268 9 -504 77 -703 204 -29 19 -54 34 -56 34 -7 0 14 -82
40 -160 72 -213 226 -419 398 -534 200 -132 399 -180 806 -193 497 -16 853 68
1345 317 342 173 578 316 1480 897 688 443 998 586 1300 600 280 13 455 -90
595 -350 46 -86 102 -249 125 -367 25 -123 24 -122 57 -50 187 410 217 880 78
1215 -181 432 -653 618 -1299 509 -217 -36 -553 -138 -755 -228 -33 -14 -61
-25 -63 -23 -2 2 23 47 56 99 406 646 641 1479 641 2273 0 601 -116 1052 -352
1370 -56 74 -270 300 -302 317 -18 10 -18 7 -12 -43z"/>
</g>
</svg>
