<?xml version="1.0" encoding="UTF-8" standalone="no"?>
<svg width="480px" height="240px" viewBox="0 0 480 240" version="1.1" xmlns="http://www.w3.org/2000/svg" xmlns:xlink="http://www.w3.org/1999/xlink">
    <!-- Generator: Sketch 3.6.1 (26313) - http://www.bohemiancoding.com/sketch -->
    <title>STEEMIT/steemit_logo_final Copy 2</title>
    <desc>Created with Sketch.</desc>
    <defs>
        <path id="path-1" d="M174.9574,111.381242 L174.9574,0 L0,0 L0,55.6906212 L0,111.381242 L174.9574,111.381242 L174.9574,111.381242 Z"></path>
    </defs>
    <g id="STEEMIT" stroke="none" stroke-width="1" fill="none" fill-rule="evenodd">
        <g id="STEEMIT/steemit_logo_final-Copy-2">
            <path d="M262.269249,124.994 C262.269249,116.7572 249.785349,119.5028 249.785349,115.8563 C249.785349,114.4406 251.243949,113.3252 253.560549,113.3252 C255.405249,113.3252 257.164149,113.8829 258.494049,114.7838 C258.794349,114.9554 259.137549,115.0412 259.437849,115.0412 C260.424549,115.0412 261.282549,114.269 261.282549,113.2823 C261.282549,112.8962 261.153849,112.553 260.896449,112.2527 C259.480749,110.6225 256.349049,109.7645 253.560549,109.7645 C248.283849,109.7645 245.323749,112.6817 245.323749,116.0708 C245.323749,124.0502 257.850549,121.133 257.850549,125.1656 C257.850549,126.7529 256.520649,127.9112 253.817949,127.9112 C251.844549,127.9112 249.699549,127.139 248.112249,126.0665 C247.811949,125.852 247.425849,125.7662 247.082649,125.7662 C246.053049,125.7662 245.109248,126.6242 245.109248,127.6967 C245.109248,128.1257 245.280848,128.5118 245.538249,128.8121 C247.168449,130.6568 250.857849,131.5148 253.646349,131.5148 C259.223349,131.5148 262.269249,128.6834 262.269249,124.994 L262.269249,124.994 Z M279.198449,129.284 C279.198449,128.1686 278.426249,127.3106 277.182149,127.3106 C276.924749,127.3106 276.538649,127.4393 276.238349,127.4393 C275.165849,127.4393 274.264949,126.5813 274.264949,124.994 L274.264949,114.3119 L276.796049,114.3119 C277.868549,114.3119 278.726549,113.411 278.726549,112.3385 C278.726549,111.1802 277.868549,110.2793 276.796049,110.2793 L274.264949,110.2793 L274.264949,106.632799 C274.264949,105.388699 273.278249,104.359099 272.034149,104.359099 C270.704249,104.359099 269.674649,105.388699 269.674649,106.632799 L269.674649,110.2793 L267.958649,110.2793 C266.886149,110.2793 265.985249,111.1802 265.985249,112.2527 C265.985249,113.411 266.886149,114.3119 267.958649,114.3119 L269.674649,114.3119 L269.674649,126.1523 C269.674649,129.6272 271.519349,131.5148 275.037149,131.5148 C277.954349,131.5148 279.198449,130.6568 279.198449,129.284 L279.198449,129.284 Z M303.42065,117.1433 C302.13365,112.6817 298.61585,109.7645 293.768149,109.7645 C287.633449,109.7645 283.257649,114.6122 283.257649,120.6182 C283.257649,127.1819 287.890849,131.5148 294.111349,131.5148 C296.77115,131.5148 303.09075,129.4423 303.09075,127.0828 C303.09075,125.9674 302.10405,125.1952 301.16025,125.1952 C300.85995,125.1952 300.51675,125.281 300.21645,125.4526 C298.80075,126.3535 296.08475,127.8254 294.583249,127.8254 C290.722249,127.8254 288.362749,125.2085 288.062449,122.1197 L301.70465,122.1197 C302.94875,122.1197 303.93545,121.0901 303.93545,119.8889 C303.93545,118.988 303.67805,118.0013 303.42065,117.1433 Z M299.51675,118.9451 L288.019549,118.9451 C288.234049,116.4569 289.992949,113.4539 293.768149,113.4539 C297.80075,113.4539 299.43095,116.5427 299.51675,118.9451 L299.51675,118.9451 Z M329.31595,117.1433 C328.02895,112.6817 324.51115,109.7645 319.66345,109.7645 C313.52875,109.7645 309.15295,114.6122 309.15295,120.6182 C309.15295,127.1819 313.78615,131.5148 320.00665,131.5148 C322.66645,131.5148 328.98605,129.4423 328.98605,127.0828 C328.98605,125.9674 327.99935,125.1952 327.05555,125.1952 C326.75525,125.1952 326.41205,125.281 326.11175,125.4526 C324.69605,126.3535 321.98005,127.8254 320.47855,127.8254 C316.61755,127.8254 314.25805,125.2085 313.95775,122.1197 L327.59995,122.1197 C328.84405,122.1197 329.83075,121.0901 329.83075,119.8889 C329.83075,118.988 329.57335,118.0013 329.31595,117.1433 Z M325.41205,118.9451 L313.91485,118.9451 C314.12935,116.4569 315.88825,113.4539 319.66345,113.4539 C323.69605,113.4539 325.32625,116.5427 325.41205,118.9451 L325.41205,118.9451 Z M366.365251,128.9837 L366.365251,116.0279 C366.365251,111.8237 364.177351,109.7645 360.402151,109.7645 C357.270451,109.7645 354.524851,111.695 353.323651,113.5826 C352.637251,111.3089 350.749651,109.7645 347.660851,109.7645 C344.52915,109.7645 341.78355,111.8237 340.92555,113.1107 L340.92555,112.2527 C340.92555,111.0515 339.89595,110.0219 338.69475,110.0219 C337.32195,110.0219 336.33525,111.0515 336.33525,112.2527 L336.33525,128.9837 C336.33525,130.2278 337.32195,131.2574 338.60895,131.2574 C339.89595,131.2574 340.92555,130.2278 340.92555,128.9837 L340.92555,116.5856 C341.82645,115.2557 343.67115,113.84 345.644551,113.84 C348.046951,113.84 349.033651,115.3415 349.033651,117.5294 L349.033651,128.9837 C349.033651,130.2278 350.020351,131.2574 351.307351,131.2574 C352.594351,131.2574 353.623951,130.2278 353.623951,128.9837 L353.623951,116.5427 C354.524851,115.2557 356.369551,113.84 358.385851,113.84 C360.788251,113.84 361.732051,115.3415 361.732051,117.5294 L361.732051,128.9837 C361.732051,130.2278 362.761651,131.2574 364.005751,131.2574 C365.335651,131.2574 366.365251,130.2278 366.365251,128.9837 L366.365251,128.9837 Z M376.430451,102.128299 C374.886051,102.128299 373.599051,103.372399 373.599051,104.916799 C373.599051,106.504099 374.886051,107.748199 376.430451,107.748199 C377.974851,107.748199 379.261851,106.504099 379.261851,104.916799 C379.261851,103.372399 377.974851,102.128299 376.430451,102.128299 L376.430451,102.128299 Z M378.747051,128.9837 L378.747051,112.2527 C378.747051,111.0515 377.717451,110.0219 376.516251,110.0219 C375.143451,110.0219 374.156751,111.0515 374.156751,112.2527 L374.156751,128.9837 C374.156751,130.2278 375.143451,131.2574 376.430451,131.2574 C377.717451,131.2574 378.747051,130.2278 378.747051,128.9837 L378.747051,128.9837 Z M396.963252,129.284 C396.963252,128.1686 396.191052,127.3106 394.946951,127.3106 C394.689551,127.3106 394.303451,127.4393 394.003151,127.4393 C392.930651,127.4393 392.029751,126.5813 392.029751,124.994 L392.029751,114.3119 L394.560851,114.3119 C395.633351,114.3119 396.491352,113.411 396.491352,112.3385 C396.491352,111.1802 395.633351,110.2793 394.560851,110.2793 L392.029751,110.2793 L392.029751,106.632799 C392.029751,105.388699 391.043051,104.359099 389.798951,104.359099 C388.469051,104.359099 387.439451,105.388699 387.439451,106.632799 L387.439451,110.2793 L385.723451,110.2793 C384.650951,110.2793 383.750051,111.1802 383.750051,112.2527 C383.750051,113.411 384.650951,114.3119 385.723451,114.3119 L387.439451,114.3119 L387.439451,126.1523 C387.439451,129.6272 389.284151,131.5148 392.801951,131.5148 C395.719152,131.5148 396.963252,130.6568 396.963252,129.284 L396.963252,129.284 Z" id="steemit" stroke="#1A5099" fill="#1A5099"></path>
            <g id="Page-1" transform="translate(45.000000, 65.000000)">
                <g id="Clip-1"></g>
                <path d="M0,87.9982595 C56.5,65.5 113.458343,63.7236019 172.805542,61.3947801 C168.570937,66.6126782 165.091194,71.0646587 161.379625,75.3109762 C160.766006,76.0127296 159.140874,75.9799721 157.976374,76.0083395 C138.208066,76.4919347 118.371652,76.0569691 98.6852035,77.5861027 C69.0724964,79.8865572 39.5637925,83.5456036 10.0138228,86.6555398 C6.66592886,87.0077673 3.3374936,87.5460709 0,87.9982595" id="Fill-2" fill="#1A5099" mask="url(#mask-2)"></path>
                <path d="M162.141733,35.0648765 C152.786485,23.4437316 143.472838,11.8749311 133.913274,-0.000168853088 C133.807593,1.67654231 133.706945,2.38572528 133.727075,3.09153119 C133.933403,10.2937908 134.060556,17.5007783 134.423225,24.6952707 C134.594326,28.0922571 134.151139,30.4109477 130.209085,31.4588499 C124.001777,33.1082069 117.849489,35.1189095 111.881723,37.5037905 C90.0253,46.238223 68.254428,55.1901383 46.4516841,64.059991 C46.5503193,64.2116211 46.6496255,64.3635889 46.7485962,64.5152189 C67.9981107,61.6501198 89.197972,58.3085171 110.51123,56.0550038 C131.733234,53.811284 153.069306,52.6603814 174.957601,50.9843456 C172.341755,47.7349368 169.741677,44.5054526 167.146631,41.2817095" id="Fill-3" fill="#4BA2F2" mask="url(#mask-2)"></path>
            </g>
        </g>
    </g>
</svg>
