<?xml version="1.0" standalone="no"?>
<!DOCTYPE svg PUBLIC "-//W3C//DTD SVG 20010904//EN"
 "http://www.w3.org/TR/2001/REC-SVG-20010904/DTD/svg10.dtd">
<svg version="1.0" xmlns="http://www.w3.org/2000/svg"
 width="300.000000pt" height="300.000000pt" viewBox="0 0 300.000000 300.000000"
 preserveAspectRatio="xMidYMid meet">
<metadata>
Created by potrace 1.10, written by Peter Selinger 2001-2011
</metadata>
<g transform="translate(0.000000,300.000000) scale(0.100000,-0.100000)"
fill="#000000" stroke="none">
<path d="M1415 2892 c-50 -18 -904 -495 -1002 -559 -58 -38 -94 -81 -126 -151
-22 -47 -22 -50 -22 -682 l0 -635 26 -55 c14 -30 43 -72 63 -92 37 -38 53 -48
331 -205 88 -50 281 -159 429 -243 147 -84 289 -159 315 -167 71 -22 170 -12
241 24 32 17 263 147 515 289 300 170 471 273 498 299 22 22 52 65 66 95 l26
55 0 635 0 635 -33 68 c-19 38 -49 80 -70 98 -36 30 -871 507 -1000 571 -81
40 -181 48 -257 20z m225 -34 c58 -24 101 -48 118 -65 7 -7 21 -13 29 -13 9 0
24 -6 32 -14 9 -8 50 -32 91 -54 41 -21 101 -55 133 -76 31 -20 57 -34 57 -31
0 3 19 -7 43 -22 23 -16 67 -42 97 -57 30 -16 61 -34 69 -40 18 -14 50 -32 91
-51 19 -9 42 -23 52 -32 10 -9 18 -12 18 -8 0 4 8 1 18 -7 9 -8 42 -28 72 -43
54 -28 140 -101 140 -118 0 -5 7 -15 15 -23 31 -32 34 -93 34 -709 0 -527 -2
-625 -14 -649 -8 -16 -15 -35 -15 -43 0 -18 -117 -133 -135 -133 -7 0 -18 -7
-25 -15 -7 -8 -19 -15 -27 -15 -8 0 -29 -11 -46 -24 -18 -13 -67 -42 -111 -65
-103 -56 -120 -65 -126 -71 -3 -3 -21 -13 -40 -23 -19 -9 -73 -40 -120 -68
-100 -60 -207 -120 -270 -152 -25 -12 -47 -25 -50 -28 -14 -17 -144 -79 -165
-79 -14 0 -25 -4 -25 -10 0 -15 -80 -12 -141 6 -44 13 -203 95 -338 174 -14 9
-73 42 -131 74 -58 33 -107 62 -110 65 -3 3 -36 22 -74 41 -37 19 -103 56
-145 82 -42 26 -96 58 -121 70 -53 26 -129 75 -150 97 -15 16 -54 72 -56 81 0
3 -6 18 -13 34 -8 21 -11 195 -11 659 l0 630 25 52 c28 61 90 126 143 150 20
10 43 23 51 29 17 14 127 76 201 114 30 15 77 41 105 57 94 56 110 65 155 88
25 12 51 27 58 34 6 6 22 15 34 19 12 3 45 22 75 41 29 18 53 30 53 26 0 -4 4
-3 8 2 17 26 203 121 259 134 51 11 128 3 183 -21z"/>
<path d="M1365 2486 l-80 -12 166 -5 165 -4 77 -38 c42 -21 82 -35 87 -32 18
11 50 -6 50 -25 0 -22 67 -65 115 -75 24 -5 22 -1 -15 17 -64 32 -86 50 -94
75 -5 16 -17 22 -49 26 -23 2 -73 18 -112 34 -38 17 -95 33 -125 36 -30 3 -66
8 -80 11 -14 2 -61 -1 -105 -8z"/>
<path d="M1038 2473 c6 -2 18 -2 25 0 6 3 1 5 -13 5 -14 0 -19 -2 -12 -5z"/>
<path d="M1085 2470 c3 -5 8 -10 11 -10 2 0 4 5 4 10 0 6 -5 10 -11 10 -5 0
-7 -4 -4 -10z"/>
<path d="M1138 2463 c18 -2 45 -2 60 0 15 2 0 4 -33 4 -33 0 -45 -2 -27 -4z"/>
<path d="M1310 2451 l-65 -8 73 -1 c46 -1 71 -6 67 -12 -3 -5 -16 -10 -28 -10
-26 0 -95 -24 -146 -49 -20 -11 -50 -22 -66 -25 -17 -3 -54 -11 -83 -17 -50
-11 -54 -11 -69 10 -11 17 -18 20 -27 11 -8 -8 -7 -14 7 -21 9 -6 17 -19 17
-31 0 -15 4 -18 18 -13 9 4 31 11 47 15 17 4 41 12 54 19 12 7 25 10 28 8 2
-3 30 7 61 23 31 15 78 35 105 44 65 22 226 40 306 33 l66 -5 -40 15 c-46 16
-230 24 -325 14z"/>
<path d="M1007 2443 c-14 -13 -7 -25 8 -13 8 7 26 10 40 8 13 -3 22 -1 19 3
-6 11 -58 12 -67 2z"/>
<path d="M1158 2433 c7 -3 16 -2 19 1 4 3 -2 6 -13 5 -11 0 -14 -3 -6 -6z"/>
<path d="M1539 2416 c-3 -3 -45 -10 -94 -16 -105 -13 -165 -30 -257 -76 -74
-37 -83 -40 -72 -22 4 7 -12 0 -37 -14 -24 -14 -44 -31 -44 -36 0 -6 -4 -14
-9 -19 -5 -5 -6 -3 -2 5 11 19 -5 14 -62 -18 -29 -17 -50 -34 -48 -39 3 -4
-15 -23 -40 -42 -44 -33 -84 -91 -84 -124 0 -31 18 -13 41 40 25 58 46 74 34
28 -8 -36 -55 -104 -66 -98 -29 18 -63 -160 -65 -340 -1 -82 -5 -188 -9 -235
-6 -75 -4 -95 20 -175 28 -96 90 -238 112 -256 9 -8 13 -39 13 -108 0 -85 -2
-93 -13 -71 -10 18 -10 32 -3 53 13 34 -7 75 -44 94 -34 18 -134 17 -149 -1
-8 -9 -11 -54 -9 -132 l3 -119 76 -3 c64 -2 79 0 102 18 15 12 28 29 28 38 1
9 4 1 8 -18 5 -31 10 -35 39 -38 27 -3 35 1 39 17 5 20 5 20 23 -2 16 -20 26
-22 103 -19 81 3 85 2 101 -23 22 -34 69 -32 74 3 3 17 8 22 19 18 19 -8 55
22 46 37 -3 6 -1 7 6 3 6 -4 9 -11 6 -16 -5 -8 64 -40 87 -40 6 0 27 12 45 26
27 21 33 31 29 50 -3 12 -1 26 5 29 6 5 8 22 4 47 -5 28 -3 44 8 56 8 9 17 26
18 36 2 11 16 23 32 27 21 6 29 3 38 -12 5 -11 8 -23 5 -28 -3 -4 1 -17 9 -27
13 -17 14 -15 15 28 0 45 2 49 40 68 45 23 82 27 74 7 -3 -8 6 -18 21 -25 14
-6 25 -19 25 -28 0 -10 7 -25 15 -34 11 -12 16 -43 18 -101 2 -84 2 -84 -24
-87 -22 -3 -29 2 -37 27 -10 28 -15 31 -56 31 -40 0 -45 -3 -55 -30 -7 -22
-16 -30 -34 -30 l-25 0 43 110 c52 132 51 130 75 130 18 0 48 -65 90 -193 6
-21 14 -37 16 -34 6 5 -32 136 -55 190 -17 40 -24 47 -48 47 -41 0 -51 -10
-72 -70 -10 -30 -28 -82 -40 -114 -11 -33 -21 -62 -21 -65 0 -14 60 -31 87
-25 24 6 26 5 16 -7 -10 -12 -7 -15 18 -17 18 -1 28 2 24 7 -8 14 23 28 61 29
26 0 33 -4 36 -23 4 -17 0 -25 -11 -28 -9 -2 15 -9 53 -16 37 -6 71 -10 74 -6
3 3 -3 5 -13 5 -13 0 -3 14 34 53 28 28 51 58 51 65 0 7 5 10 11 6 7 -4 9 -22
4 -51 -7 -50 5 -73 39 -73 27 0 46 18 46 42 0 12 11 19 34 24 19 3 42 15 52
25 17 19 18 19 39 -1 71 -67 201 -2 151 75 -10 15 -12 26 -6 30 18 11 11 54
-12 69 -12 9 -40 16 -61 16 -31 0 -45 -7 -68 -31 -16 -17 -29 -26 -29 -20 0 5
-9 19 -21 30 l-21 19 40 27 c54 35 91 120 131 300 18 77 37 158 43 180 6 22
12 81 13 130 1 50 5 97 9 105 4 9 -4 36 -17 60 -16 32 -21 54 -17 75 7 32 -6
76 -39 140 -12 21 -21 48 -21 58 0 19 -18 58 -30 67 -19 14 -59 91 -54 105 9
24 -15 73 -48 96 -16 12 -32 19 -35 16 -3 -3 -23 1 -45 10 -42 17 -67 10 -27
-7 20 -9 17 -10 -21 -6 -25 2 -54 7 -65 11 -11 4 0 -6 25 -22 25 -16 52 -38
60 -48 18 -23 23 -25 -120 65 -58 36 -118 72 -135 80 -16 8 -36 20 -43 27 -29
28 -206 66 -223 49z m101 -27 c0 -18 -38 -28 -68 -19 -53 15 -60 24 -22 30 43
6 90 1 90 -11z m-119 -20 c12 -14 35 -23 63 -26 39 -5 46 -3 61 21 10 14 22
26 27 26 10 0 58 -23 133 -65 28 -15 59 -33 70 -39 11 -6 72 -45 135 -87 63
-41 130 -84 149 -95 27 -15 37 -31 52 -79 11 -33 21 -86 23 -119 3 -32 11 -66
19 -75 41 -46 74 -160 53 -181 -8 -8 -6 -9 7 -5 9 4 17 13 17 19 0 25 -33 122
-57 169 -22 40 -24 56 -19 98 4 31 3 48 -3 45 -5 -4 -7 3 -3 16 3 12 1 19 -5
15 -5 -3 -17 16 -27 44 -13 34 -27 54 -46 64 -43 22 -45 34 -4 20 52 -18 104
-112 109 -198 3 -58 43 -195 44 -152 1 33 -19 109 -31 116 -6 4 -7 16 -3 29 6
19 12 11 32 -51 13 -41 23 -89 21 -106 -2 -18 -1 -33 4 -33 4 0 5 -7 2 -15 -4
-8 -2 -15 3 -15 20 0 29 -48 27 -145 -1 -98 -4 -114 -79 -428 -13 -54 -34
-116 -47 -139 -25 -46 -86 -93 -133 -104 l-30 -7 35 25 c100 68 218 390 223
605 1 58 -2 106 -8 112 -7 7 -9 -26 -7 -99 3 -101 0 -121 -33 -242 -20 -72
-44 -148 -54 -167 -10 -20 -27 -56 -37 -79 -10 -24 -39 -66 -64 -93 -36 -39
-53 -49 -78 -49 -32 0 -54 -23 -45 -47 3 -7 0 -13 -6 -13 -6 0 -11 6 -11 14 0
30 -42 46 -117 46 -66 0 -72 2 -78 23 -4 12 -16 31 -26 43 -23 24 -18 30 46
60 22 10 51 28 65 39 26 21 136 131 157 158 21 27 81 151 88 182 3 17 11 53
17 80 20 94 2 251 -38 342 -8 17 -14 35 -14 41 0 5 -7 15 -15 22 -8 6 -13 15
-12 18 3 11 -88 124 -134 167 -81 73 -213 139 -277 138 -39 0 -42 2 -36 21 4
12 13 30 20 41 18 25 18 44 0 51 -19 7 -140 -50 -178 -85 -25 -22 -40 -26 -91
-27 -44 -1 -79 -9 -120 -27 -32 -15 -65 -27 -75 -27 -28 0 -139 -78 -161 -113
-11 -18 -31 -44 -45 -58 -25 -27 -56 -104 -56 -142 0 -18 -2 -19 -10 -7 -8 12
-10 9 -10 -13 0 -16 -5 -37 -10 -48 -6 -11 -13 -70 -16 -132 -5 -97 -2 -124
19 -207 14 -52 29 -104 33 -115 7 -18 6 -18 -9 -6 -9 7 -17 17 -17 22 0 5 -14
28 -31 52 -34 46 -32 24 -14 237 l5 55 -16 -45 c-9 -27 -16 -83 -17 -140 -2
-94 -2 -95 33 -141 19 -25 45 -53 57 -63 21 -16 22 -16 17 1 -5 16 -4 16 10
-1 10 -12 12 -22 6 -26 -11 -7 19 -71 49 -107 33 -39 239 -162 315 -187 15 -5
17 -9 8 -18 -7 -7 -12 -24 -12 -38 l0 -25 -79 3 c-71 4 -81 2 -92 -16 -13 -20
-13 -20 -40 0 -33 25 -90 26 -118 2 -21 -19 -29 -60 -12 -66 5 -1 3 -12 -5
-22 -13 -18 -14 -11 -14 65 0 46 -4 89 -8 96 -4 6 -23 13 -42 15 -31 3 -37 9
-71 76 -81 159 -109 302 -79 412 12 44 7 280 -6 314 -6 15 -4 17 6 11 9 -5 11
-4 6 3 -4 6 -2 29 3 49 5 21 15 58 21 83 8 34 20 51 46 68 19 12 40 34 46 47
6 14 15 25 19 25 4 0 3 16 -1 35 -7 31 -5 38 13 49 105 64 248 146 257 146 5
0 10 4 10 8 0 9 77 45 97 45 7 0 13 4 13 7 0 7 30 15 95 27 17 3 32 7 34 9 2
2 24 4 49 4 33 0 49 -6 63 -21z m98 -114 c-29 -59 -33 -88 -38 -255 -1 -26 -4
-31 -11 -20 -6 9 -10 10 -10 3 0 -6 5 -15 10 -18 6 -3 10 -15 10 -26 0 -11 -4
-17 -10 -14 -6 4 -10 -12 -10 -40 0 -26 4 -44 9 -40 5 3 8 17 5 31 -3 14 -1
31 4 38 6 6 10 33 11 60 0 27 3 51 6 54 3 3 5 -11 5 -32 0 -22 4 -35 10 -31 6
4 10 -7 10 -24 0 -17 5 -31 10 -31 6 0 10 -26 10 -57 0 -52 1 -55 14 -37 8 10
10 21 5 22 -12 5 -12 42 0 42 17 0 23 -38 24 -148 1 -66 7 -115 14 -127 11
-17 13 -11 10 42 -1 34 1 59 5 57 5 -3 8 7 8 23 -1 53 -19 110 -59 180 -39 69
-72 166 -64 191 6 15 45 16 61 0 7 -7 12 -27 12 -45 0 -44 19 -83 41 -83 10 0
26 -12 36 -27 10 -16 22 -31 27 -35 7 -4 6 -24 -2 -55 -6 -26 -10 -79 -8 -118
2 -38 5 -162 7 -275 1 -130 5 -185 9 -150 6 49 7 45 8 -40 l2 -94 39 38 c22
21 52 66 68 100 25 55 28 71 28 166 -1 98 -3 112 -39 199 -41 104 -59 197 -35
189 9 -3 15 -24 17 -62 3 -50 6 -58 28 -66 13 -5 29 -21 36 -35 6 -14 14 -25
18 -25 4 0 20 -19 35 -42 l28 -42 -21 -61 c-23 -62 -29 -125 -13 -125 5 0 17
-20 27 -45 16 -43 16 -47 -1 -84 -26 -58 -73 -99 -122 -107 -30 -4 -43 -3 -43
5 0 12 -28 -1 -62 -27 -9 -8 -21 -11 -27 -8 -5 3 -26 -3 -45 -15 -20 -12 -45
-19 -56 -16 -11 3 -18 1 -15 -4 5 -8 -55 -30 -64 -23 -2 2 22 31 53 65 59 64
106 144 99 169 -3 11 -1 10 6 -2 14 -20 10 -50 -9 -74 -9 -11 -10 -15 -2 -10
7 4 12 2 12 -6 0 -8 3 -9 8 -3 4 6 13 11 20 12 16 4 16 -63 0 -73 -8 -5 -9 3
-5 27 5 29 4 31 -5 12 -15 -30 -3 -60 17 -43 21 17 20 86 -1 94 -12 5 -15 17
-13 50 3 37 1 43 -13 41 -20 -4 -25 29 -8 55 7 11 9 9 7 -12 -1 -15 3 -26 8
-25 6 1 10 32 10 68 0 46 -3 65 -11 62 -8 -3 -11 16 -9 64 2 82 3 85 13 79 4
-2 8 4 9 14 2 17 -1 18 -17 7 -17 -10 -19 -23 -19 -90 0 -54 5 -80 13 -83 15
-6 9 -50 -10 -79 -13 -18 -14 -17 -14 17 0 20 -5 38 -11 40 -9 3 -9 10 0 26 8
14 8 22 1 22 -5 0 -10 -8 -10 -17 0 -15 -2 -16 -10 -3 -5 9 -5 17 0 20 10 6
-9 60 -21 60 -10 0 -8 104 2 111 7 4 5 25 -4 60 l-14 54 -2 -122 c-1 -79 2
-123 9 -123 5 0 10 -15 10 -32 0 -18 12 -55 25 -83 27 -54 32 -118 13 -160
l-11 -25 -24 21 c-12 12 -26 37 -29 56 -3 18 -10 36 -15 39 -5 3 -3 17 4 32
10 20 13 64 10 162 -2 74 -6 136 -9 139 -2 2 -4 -61 -4 -142 0 -80 -4 -148 -9
-151 -5 -3 -21 4 -36 16 -30 23 -125 35 -136 16 -4 -7 -14 -6 -28 1 -24 13
-29 33 -6 25 14 -6 15 30 15 302 -1 170 -4 303 -8 297 -4 -7 -7 -98 -6 -203 1
-111 -2 -188 -7 -184 -5 3 -9 -2 -9 -11 0 -9 5 -13 10 -10 6 3 10 -1 10 -9 0
-9 -4 -16 -10 -16 -5 0 -10 -14 -10 -31 0 -16 4 -28 8 -25 4 3 7 -9 6 -25 -2
-35 -14 -53 -14 -22 0 11 -8 31 -19 44 -10 13 -21 31 -24 39 -3 8 -6 -11 -6
-42 -1 -86 -16 -70 -16 17 -1 81 13 103 35 57 13 -27 13 -27 22 23 8 47 11
191 8 300 -2 47 -3 48 -10 17 -10 -44 -20 -52 -20 -16 0 91 52 198 127 264 30
27 153 93 160 86 1 -1 -12 -28 -28 -61z m-509 30 c0 -2 -15 -12 -32 -20 l-33
-16 25 20 c24 20 40 26 40 16z m1027 -93 c37 -42 42 -57 13 -42 -11 6 -26 8
-32 4 -7 -4 -8 -3 -4 4 4 7 -10 22 -34 38 -49 32 -52 48 -7 39 19 -4 45 -21
64 -43z m41 8 c12 -18 22 -40 22 -48 0 -18 2 -20 -40 42 -18 27 -26 47 -19 44
8 -2 24 -19 37 -38z m-789 -8 c-7 -10 -32 -24 -58 -31 -159 -42 -317 -196
-388 -377 -24 -62 -27 -82 -27 -194 0 -112 3 -132 27 -195 92 -235 322 -395
569 -395 104 0 168 15 264 60 297 142 416 498 267 800 -67 137 -242 282 -369
306 -35 6 -39 11 -26 31 10 16 130 -32 204 -81 71 -46 166 -147 206 -217 57
-101 77 -181 77 -309 0 -187 -51 -308 -184 -440 -88 -87 -145 -120 -265 -155
-177 -51 -369 -22 -519 78 -76 52 -192 184 -224 256 -74 165 -74 382 -1 524
11 22 15 36 9 32 -15 -9 -14 -2 10 42 28 52 56 89 64 82 3 -4 -5 -19 -18 -35
-23 -28 -59 -89 -40 -69 5 6 28 35 51 66 23 31 70 78 105 104 69 54 90 73 67
60 -30 -17 -86 -59 -122 -94 -43 -40 -52 -25 -10 17 31 32 136 95 145 86 3 -3
20 2 39 12 30 16 132 52 151 53 4 1 2 -7 -4 -17z m279 -42 c9 0 23 -4 31 -9
12 -8 13 -12 1 -26 -12 -14 -15 -14 -34 4 -20 19 -24 21 -46 21 -5 0 -10 12
-10 27 l0 27 20 -22 c12 -12 28 -22 38 -22z m-285 -7 c-7 -2 -19 -2 -25 0 -7
3 -2 5 12 5 14 0 19 -2 13 -5z m-45 -41 c4 -28 22 -29 22 -1 0 11 5 17 10 14
6 -4 7 -13 1 -24 -18 -33 -23 -117 -12 -191 23 -154 13 -214 -37 -227 -33 -8
-36 0 -18 53 25 73 21 132 -13 195 -15 29 -37 58 -47 64 -45 24 -55 33 -46 39
6 3 17 -1 26 -10 26 -25 38 -7 31 46 -6 46 -5 48 22 58 40 15 57 10 61 -16z
m411 -63 c1 -9 -8 -27 -19 -40 -17 -21 -21 -22 -30 -9 -16 25 -11 73 12 110
l22 35 7 -40 c4 -22 8 -47 8 -56z m177 -52 c36 -37 62 -72 59 -76 -3 -5 1 -11
8 -14 27 -10 88 -171 90 -234 2 -66 -14 -264 -23 -285 -7 -18 -9 -10 -9 35 -1
38 -5 56 -12 52 -5 -4 -9 -17 -8 -28 2 -36 0 -40 -16 -27 -20 17 -19 46 5 115
13 38 17 67 12 85 -6 24 -69 106 -113 149 -9 9 -19 35 -22 59 -2 23 -12 51
-21 61 -9 9 -16 25 -16 34 0 22 -16 30 -39 18 -15 -9 -23 -5 -44 21 -21 25
-24 35 -15 51 6 11 8 39 4 64 l-6 44 51 -28 c28 -15 80 -59 115 -96z m-720 87
c-3 -9 -6 -18 -6 -20 0 -2 -7 -4 -15 -4 -13 0 -14 4 -5 20 13 24 35 27 26 4z
m-26 -50 c0 -8 -5 -12 -11 -8 -8 4 -7 0 1 -15 6 -12 8 -32 4 -44 -4 -12 -6
-35 -6 -52 3 -67 -19 -134 -63 -190 -43 -55 -64 -123 -56 -180 3 -18 1 -18
-18 4 -12 13 -21 36 -21 50 -1 14 -7 53 -15 86 -18 74 -18 78 -2 69 6 -4 4 2
-5 13 -24 26 -23 31 14 105 53 103 178 218 178 162z m63 -59 c42 -41 63 -100
44 -124 -10 -12 -9 -14 6 -8 13 5 17 1 17 -18 0 -16 -6 -25 -15 -25 -15 0 -19
-35 -15 -157 1 -34 -3 -53 -10 -53 -11 0 -9 205 3 292 2 21 1 36 -3 33 -5 -3
-11 3 -13 12 -4 14 -5 13 -6 -4 0 -12 5 -24 12 -26 9 -4 9 -8 -2 -16 -13 -8
-15 -62 -14 -336 1 -179 4 -329 7 -332 3 -4 6 25 6 63 l1 69 14 -40 c15 -42
89 -117 166 -170 53 -35 35 -46 -37 -21 -24 8 -42 11 -40 7 3 -4 -6 -6 -19 -3
-14 2 -28 9 -31 14 -4 6 3 8 17 4 19 -6 21 -5 8 3 -11 7 -15 19 -11 37 3 18 1
25 -6 20 -6 -4 -9 -13 -6 -20 11 -28 -13 -24 -50 8 l-39 32 0 95 0 94 -6 -89
c-5 -76 -8 -87 -19 -73 -9 10 -10 22 -5 34 5 10 7 32 5 48 -4 43 -4 56 2 95
l5 35 -15 -28 c-9 -16 -13 -31 -10 -34 7 -8 -13 -43 -24 -43 -6 0 -5 8 1 18 9
14 9 29 1 58 l-11 39 1 -40 c0 -56 -2 -63 -12 -38 -5 13 -9 55 -9 95 1 119 3
139 16 134 7 -3 10 4 7 20 -2 13 0 24 6 24 5 0 11 -26 12 -57 l2 -58 3 58 c2
31 8 57 13 57 6 0 10 8 10 18 0 14 -2 15 -10 2 -9 -13 -11 -13 -20 0 -14 22
-12 29 8 25 9 -2 22 -4 29 -4 6 -1 14 -9 16 -18 3 -10 5 41 6 112 0 108 -3
137 -19 173 -23 51 -15 53 33 7z m-32 -32 c10 -205 9 -233 -5 -233 -22 0 -27
29 -11 60 8 16 15 35 15 42 0 7 -9 -5 -20 -27 l-19 -40 6 45 c3 25 9 62 13 82
4 20 5 48 3 62 -3 15 -1 26 6 26 6 0 11 -8 12 -17z m628 -32 c-8 -24 -7 -156
1 -181 3 -8 0 -100 -5 -170 -2 -36 -5 -84 -5 -107 0 -23 -4 -45 -10 -48 -5 -3
-10 -14 -9 -23 0 -14 2 -13 9 3 7 17 9 18 14 4 7 -16 32 -19 52 -6 14 8 17
107 4 107 -6 0 -9 36 -8 88 1 71 2 76 5 27 3 -41 7 -55 13 -45 17 27 11 -147
-7 -202 -13 -41 -18 -48 -23 -32 -4 10 -5 22 -3 27 6 10 -20 4 -28 -6 -3 -5
-14 -1 -24 9 -12 12 -16 27 -12 51 3 18 2 33 -3 33 -5 0 -11 -15 -13 -32 -3
-28 -4 -27 -5 10 -1 27 2 41 8 37 12 -7 14 4 10 64 -1 33 1 42 11 36 9 -6 10
-4 3 6 -10 15 -10 21 -15 144 l-2 80 -7 -60 c-7 -59 -7 -59 -8 27 -2 93 7 130
40 166 28 29 29 28 17 -7z m-860 -295 c10 -65 18 -84 42 -108 19 -19 29 -40
29 -59 0 -16 4 -29 8 -29 5 0 13 53 19 118 9 107 13 121 42 165 27 39 51 60
51 43 0 -2 3 -13 6 -23 5 -14 4 -15 -4 -4 -8 11 -13 7 -25 -20 -33 -79 -41
-119 -40 -199 0 -70 5 -97 28 -153 29 -71 44 -75 45 -12 0 18 3 25 8 18 6 -10
7 -36 3 -75 -2 -14 -46 2 -63 23 -15 17 -20 19 -31 7 -7 -7 -16 -21 -20 -31
-11 -30 -58 2 -86 58 -51 101 -55 120 -59 244 -3 85 0 137 9 165 l13 41 7 -45
c3 -25 12 -81 18 -124z m894 -33 c2 -60 7 -119 11 -133 6 -20 5 -22 -4 -10 -8
12 -9 6 -5 -25 5 -30 4 -36 -4 -25 -6 8 -11 33 -11 56 0 22 -6 46 -12 53 -11
11 -10 12 0 6 11 -6 13 12 10 89 -2 53 0 96 4 96 3 0 8 -48 11 -107z m-558
-13 c0 -90 -9 -111 -38 -93 -7 4 -5 -2 3 -12 12 -15 12 -17 1 -10 -10 6 -13 4
-9 -6 3 -8 2 -23 -3 -34 -5 -12 -8 14 -7 68 1 70 5 90 20 104 10 9 18 29 18
45 0 15 3 28 8 28 4 0 7 -40 7 -90z m472 -52 c-2 -29 -3 -8 -3 47 0 55 1 79 3
53 2 -26 2 -71 0 -100z m-403 -57 c-8 -115 -34 -201 -59 -201 -19 0 -45 63
-45 107 0 27 10 55 35 93 23 38 35 68 36 95 l1 40 18 -39 c13 -28 17 -56 14
-95z m466 -13 c0 -38 -5 -34 -13 10 -4 21 -3 31 3 27 6 -3 10 -20 10 -37z
m-280 -43 c11 -10 25 -37 32 -59 6 -23 22 -56 36 -74 27 -37 29 -33 -47 -116
l-45 -49 22 -18 c26 -21 56 -15 160 33 37 17 85 32 107 35 l40 4 -30 -26 c-16
-14 -50 -35 -75 -46 -231 -104 -487 -62 -667 110 -26 25 -30 51 -8 51 8 0 15
5 15 10 0 22 79 -35 176 -126 27 -25 47 -33 108 -43 61 -10 78 -10 89 1 21 19
3 50 -40 73 -19 11 -49 31 -65 46 l-30 26 18 29 c10 16 22 32 27 35 5 3 8 10
7 15 -3 14 10 100 16 106 3 3 34 5 69 4 46 -2 70 -7 85 -21z m291 -96 c4 -17
1 -32 -11 -47 -17 -21 -17 -21 -16 20 1 29 -4 42 -14 45 -9 3 -11 1 -5 -4 6
-5 7 -29 4 -58 -7 -56 -8 -53 -13 23 -3 51 -3 52 22 49 18 -2 28 -12 33 -28z
m-691 6 c0 -8 -2 -15 -4 -15 -2 0 -6 7 -10 15 -3 8 -1 15 4 15 6 0 10 -7 10
-15z m-141 -116 c70 -78 78 -104 12 -36 -38 39 -89 107 -79 107 2 0 32 -32 67
-71z m725 63 c3 -5 -1 -9 -9 -9 -8 0 -12 4 -9 9 3 4 7 8 9 8 2 0 6 -4 9 -8z
m-570 -18 c3 -8 2 -12 -4 -9 -6 3 -10 10 -10 16 0 14 7 11 14 -7z m-254 -406
c0 -127 0 -128 -23 -128 -23 0 -23 1 -21 128 1 70 2 127 3 127 1 1 10 1 21 1
19 0 20 -7 20 -128z m575 120 c3 -2 0 -19 -6 -37 -8 -22 -16 -30 -26 -27 -30
12 -93 18 -117 12 -14 -3 -28 -15 -31 -27 -4 -11 -9 -18 -12 -16 -11 12 23 80
47 93 24 14 132 15 145 2z m-687 -24 c26 -18 30 -65 7 -84 -14 -11 -13 -14 5
-27 25 -18 26 -54 1 -84 -16 -19 -30 -24 -90 -27 l-71 -4 0 121 0 121 63 0
c40 0 70 -5 85 -16z m282 -61 c10 -9 17 -40 20 -88 5 -72 4 -75 -17 -75 -12 0
-23 6 -26 13 -4 10 -7 10 -18 0 -29 -28 -99 1 -99 42 0 27 38 55 76 55 28 0
35 3 32 18 -3 18 -48 31 -48 13 0 -6 -11 -11 -25 -11 -29 0 -32 11 -7 32 34
30 81 30 112 1z m863 7 c35 -28 45 -81 23 -127 -17 -35 -18 -36 -66 -30 l-50
6 0 -39 c0 -33 -3 -40 -20 -40 -19 0 -20 7 -20 121 l0 122 28 -6 c15 -3 34 -2
42 4 22 13 35 11 63 -11z m-673 -6 c0 -9 -21 -41 -46 -70 l-46 -54 51 0 c44 0
51 -3 51 -20 0 -18 -7 -20 -75 -20 -70 0 -75 2 -75 21 0 12 18 43 40 69 22 26
40 50 40 53 0 3 -18 3 -40 0 -36 -5 -40 -3 -40 16 0 19 5 21 70 21 58 0 70 -3
70 -16z m156 8 c16 -11 34 -48 34 -71 0 -19 -6 -21 -60 -21 -58 0 -60 -1 -50
-20 12 -22 49 -27 68 -8 8 8 15 8 28 -3 15 -12 14 -15 -6 -31 -32 -26 -86 -23
-115 7 -33 32 -35 105 -5 135 20 20 83 28 106 12z m624 -4 c0 -9 3 -9 12 0 18
18 73 14 91 -6 42 -46 24 -145 -29 -158 -15 -4 -35 -2 -45 5 -27 16 -29 15
-28 -26 l2 -38 7 35 8 35 -1 -35 c-2 -30 -6 -35 -29 -38 l-28 -3 0 120 c0 114
1 121 20 121 11 0 20 -5 20 -12z m282 -5 c25 -22 23 -33 -7 -33 -14 0 -25 5
-25 10 0 6 -11 10 -25 10 -34 0 -32 -28 3 -36 70 -16 95 -66 50 -98 -42 -30
-128 -10 -128 30 0 19 29 18 52 -3 14 -12 24 -14 35 -7 25 16 18 28 -27 44
-53 19 -67 42 -46 76 13 19 25 24 58 24 25 0 49 -7 60 -17z m-1180 -73 c-15
-21 -30 -39 -33 -40 -4 0 -5 67 0 78 1 1 14 2 31 2 l30 0 -28 -40z m138 23
c-1 -50 -11 -63 -51 -63 l-38 0 37 39 c41 44 52 49 52 24z m920 -28 c10 -12
10 -15 -4 -15 -9 0 -16 7 -16 15 0 8 2 15 4 15 2 0 9 -7 16 -15z m-494 -47 c8
-13 -20 -36 -54 -45 -30 -7 -36 0 -28 32 5 21 12 25 41 25 18 0 37 -5 41 -12z
m204 -48 c0 -8 -30 -24 -42 -22 -4 1 -5 -4 -2 -12 3 -8 1 -17 -5 -21 -7 -4
-11 8 -11 33 0 37 1 38 30 34 17 -2 30 -8 30 -12z m-700 -20 c0 -15 -7 -20
-25 -20 -14 0 -25 2 -25 4 0 2 -3 11 -6 20 -5 13 1 16 25 16 24 0 31 -4 31
-20z"/>
<path d="M2352 1661 c0 -25 2 -31 10 -23 8 8 8 18 1 34 -9 21 -10 20 -11 -11z"/>
<path d="M2236 1047 c-51 -104 -52 -107 -27 -77 19 24 75 149 69 155 -2 2 -21
-33 -42 -78z"/>
<path d="M1436 2142 c-3 -5 -5 -148 -5 -318 0 -226 3 -312 12 -323 8 -10 8
-13 1 -8 -8 4 -13 -4 -16 -23 -7 -46 17 -19 43 48 22 59 30 158 18 242 l-6 45
-4 -55 c-2 -30 -4 -77 -5 -105 -1 -27 -2 -66 -4 -85 -5 -74 -17 49 -16 175 1
68 -2 122 -5 120 -5 -3 -4 43 4 158 1 20 -1 37 -6 37 -10 0 -6 50 5 65 4 6 3
17 -1 24 -5 8 -11 9 -15 3z"/>
<path d="M1479 2133 c-3 -10 -2 -85 2 -168 l6 -150 0 168 c0 92 -1 167 -2 167
-1 0 -4 -8 -6 -17z"/>
<path d="M1511 2110 c-1 -19 4 -26 19 -27 11 -1 20 3 20 8 0 6 -5 7 -10 4 -6
-3 -14 4 -19 17 l-10 23 0 -25z"/>
<path d="M1562 2025 c0 -16 2 -22 5 -12 2 9 2 23 0 30 -3 6 -5 -1 -5 -18z"/>
<path d="M1528 1961 c-22 -21 -24 -38 -4 -22 13 11 15 3 15 -53 0 -36 -4 -66
-9 -66 -5 0 -6 12 -4 28 4 18 2 24 -5 17 -18 -18 -16 -157 3 -194 15 -29 20
-31 32 -19 11 11 12 21 3 48 -5 19 -10 90 -9 158 0 67 -1 122 -2 121 -2 0 -11
-8 -20 -18z m4 -205 c-3 -33 0 -56 7 -60 6 -4 11 -12 11 -17 0 -6 -7 -4 -15 5
-16 16 -22 126 -7 126 5 0 7 -24 4 -54z"/>
<path d="M1599 1915 c-3 -5 -6 -39 -6 -75 -1 -36 1 -52 4 -35 3 16 8 32 11 35
4 3 5 23 2 45 -3 22 -7 36 -11 30z"/>
<path d="M1565 1818 c-12 -40 -11 -66 1 -61 9 3 13 18 11 39 -2 36 -5 42 -12
22z"/>
<path d="M1619 1798 c0 -18 -2 -45 -4 -60 -2 -16 1 -28 6 -28 5 0 9 27 9 60 0
62 -9 86 -11 28z"/>
<path d="M1577 1745 c-16 -23 -16 -24 -1 -18 10 4 15 2 11 -3 -3 -6 -2 -16 3
-24 6 -10 9 -1 7 28 0 23 -1 42 -2 42 0 0 -8 -12 -18 -25z"/>
<path d="M1580 1643 c0 -14 -2 -15 -9 -4 -17 26 -21 -7 -6 -49 8 -23 16 -69
16 -101 1 -38 6 -59 13 -59 8 0 12 35 13 118 0 73 -2 98 -6 67 -4 -30 -9 -45
-14 -38 -4 7 -5 28 -1 48 3 19 3 35 0 35 -3 0 -6 -8 -6 -17z"/>
<path d="M1670 1598 c0 -10 4 -18 9 -18 6 0 8 -8 7 -17 -2 -10 3 -25 12 -33
14 -13 15 -12 9 4 -4 10 -7 23 -7 30 0 7 -7 21 -15 32 -13 17 -14 17 -15 2z"/>
<path d="M1751 1584 c0 -11 3 -14 6 -6 3 7 2 16 -1 19 -3 4 -6 -2 -5 -13z"/>
<path d="M1713 1185 c0 -22 2 -30 4 -17 2 12 2 30 0 40 -3 9 -5 -1 -4 -23z"/>
<path d="M1682 1170 c0 -19 2 -27 5 -17 2 9 2 25 0 35 -3 9 -5 1 -5 -18z"/>
<path d="M1218 1558 c-2 -51 0 -104 4 -118 3 -14 7 28 7 93 1 64 -1 117 -3
117 -3 0 -6 -42 -8 -92z"/>
<path d="M1193 1590 c0 -25 2 -35 4 -22 2 12 2 32 0 45 -2 12 -4 2 -4 -23z"/>
<path d="M1147 1556 c-4 -10 -4 -36 0 -59 l7 -42 7 33 c8 41 -3 97 -14 68z"/>
<path d="M1185 1510 c-12 -19 -13 -92 -2 -81 6 6 11 29 11 51 1 43 0 45 -9 30z"/>
<path d="M1283 1204 c-3 -8 -1 -20 4 -25 7 -7 11 -2 11 15 0 29 -6 33 -15 10z"/>
<path d="M1821 1764 c0 -11 3 -14 6 -6 3 7 2 16 -1 19 -3 4 -6 -2 -5 -13z"/>
<path d="M1811 1735 c1 -19 18 -51 18 -35 0 8 -4 22 -9 30 -5 8 -9 11 -9 5z"/>
<path d="M1892 1510 c0 -14 2 -19 5 -12 2 6 2 18 0 25 -3 6 -5 1 -5 -13z"/>
<path d="M1284 1542 c0 -15 -2 -36 -5 -46 -2 -10 2 -21 9 -23 8 -3 12 9 12 41
0 47 -15 73 -16 28z"/>
<path d="M720 868 c0 -25 3 -27 32 -23 58 7 55 57 -3 53 -24 -2 -29 -7 -29
-30z m55 2 c-3 -5 -13 -10 -21 -10 -8 0 -14 5 -14 10 0 6 9 10 21 10 11 0 17
-4 14 -10z"/>
<path d="M708 813 c-3 -4 -8 -20 -11 -34 -9 -34 27 -56 70 -42 28 10 44 47 26
63 -12 13 -80 23 -85 13z m77 -38 c0 -19 -37 -36 -60 -28 -8 3 -12 49 -6 59 1
1 16 -2 34 -5 23 -5 32 -12 32 -26z"/>
<path d="M1033 780 c-25 -10 -31 -36 -10 -43 20 -7 47 12 47 33 0 22 -4 23
-37 10z m17 -20 c0 -5 -4 -10 -10 -10 -5 0 -10 5 -10 10 0 6 5 10 10 10 6 0
10 -4 10 -10z"/>
<path d="M1884 852 c-20 -14 -24 -43 -9 -78 24 -58 75 -41 75 26 0 50 -32 76
-66 52z m44 -14 c7 -10 2 -20 -19 -39 l-29 -27 0 27 c0 41 27 63 48 39z m2
-66 c0 -13 -12 -22 -22 -16 -10 6 -1 24 13 24 5 0 9 -4 9 -8z"/>
<path d="M1376 834 c-22 -22 -21 -24 19 -24 37 0 49 22 19 34 -21 8 -20 8 -38
-10z"/>
<path d="M2075 845 c-18 -14 -18 -18 -5 -58 24 -68 80 -60 80 12 0 58 -33 77
-75 46z m63 -29 c3 -15 -1 -18 -22 -14 -20 4 -26 1 -29 -16 -3 -14 -5 -11 -6
10 0 17 2 34 6 38 13 13 48 1 51 -18z m-8 -46 c0 -5 -7 -10 -15 -10 -8 0 -15
5 -15 10 0 6 7 10 15 10 8 0 15 -4 15 -10z"/>
<path d="M986 2395 c-9 -26 -7 -32 5 -12 6 10 9 21 6 23 -2 3 -7 -2 -11 -11z"/>
<path d="M901 2270 c-45 -93 -57 -112 -80 -116 -24 -5 -71 -60 -71 -84 0 -5
-10 -30 -22 -55 -16 -33 -30 -48 -54 -55 -18 -6 -37 -17 -44 -24 -13 -17 67
21 93 43 10 8 24 30 32 48 8 18 22 49 30 68 15 34 32 51 41 43 2 -3 -4 -16
-14 -29 -11 -13 -25 -42 -33 -64 -19 -56 -44 -86 -92 -113 -23 -12 -32 -20
-19 -17 25 7 29 -7 7 -25 -10 -8 -15 -33 -16 -74 -2 -57 -2 -58 -9 -21 -4 24
-7 -27 -8 -123 0 -90 2 -161 5 -158 3 3 11 29 18 58 l12 53 -1 -100 c0 -81 -2
-93 -9 -62 -5 20 -12 37 -16 37 -10 0 0 -93 14 -115 6 -11 20 -56 29 -100 28
-127 38 -166 43 -162 2 2 -8 58 -21 123 -13 65 -27 133 -30 149 -5 22 -4 25 3
10 5 -12 7 22 4 90 -4 90 -1 124 16 188 11 43 18 84 15 91 -3 7 3 44 12 82 9
38 18 78 19 89 2 20 11 44 45 120 9 22 38 65 62 95 58 70 90 135 93 183 1 20
2 37 1 37 -1 0 -26 -50 -55 -110z m-156 -337 c-4 -10 -10 -28 -12 -40 -3 -13
-10 -20 -16 -16 -6 4 -8 0 -5 -8 6 -16 -17 -177 -26 -187 -7 -6 -11 83 -8 143
2 22 7 42 12 43 6 2 10 10 10 18 0 8 6 14 13 15 9 0 9 2 -1 6 -10 4 -9 9 5 23
23 24 37 25 28 3z m-83 -304 l-10 -44 -1 55 c-1 39 2 51 10 43 7 -7 8 -24 1
-54z"/>
<path d="M757 1115 c9 -44 30 -90 46 -103 8 -7 5 6 -8 36 -12 26 -27 58 -33
72 -11 24 -11 24 -5 -5z"/>
<path d="M750 1041 c0 -6 4 -13 10 -16 6 -3 7 1 4 9 -7 18 -14 21 -14 7z"/>
<path d="M790 986 c0 -3 14 -12 30 -21 17 -9 30 -13 30 -11 0 3 -13 12 -30 21
-16 9 -30 13 -30 11z"/>
<path d="M1674 845 c-7 -19 -14 -41 -14 -49 0 -23 48 -32 68 -13 14 15 14 20
-3 57 -10 22 -22 40 -27 40 -5 0 -16 -16 -24 -35z m49 -47 c-2 -5 -16 -8 -30
-8 -20 0 -24 3 -18 18 4 9 10 28 13 41 5 23 6 23 22 -10 9 -19 15 -37 13 -41z"/>
<path d="M1314 665 c11 -8 25 -15 32 -15 7 0 46 -15 87 -34 67 -31 77 -34 108
-23 19 7 41 16 49 22 8 5 33 12 55 15 36 5 37 6 13 11 -17 4 -47 -3 -85 -21
l-58 -27 -50 25 c-46 23 -151 62 -164 62 -3 0 3 -7 13 -15z"/>
<path d="M1474 671 c7 -10 31 -9 42 2 4 4 -5 7 -20 7 -15 0 -25 -4 -22 -9z"/>
<path d="M1538 673 c6 -2 18 -2 25 0 6 3 1 5 -13 5 -14 0 -19 -2 -12 -5z"/>
<path d="M1470 635 c32 -18 50 -18 91 0 34 14 33 14 -41 14 -70 0 -73 -1 -50
-14z"/>
<path d="M1748 643 c6 -2 18 -2 25 0 6 3 1 5 -13 5 -14 0 -19 -2 -12 -5z"/>
<path d="M1690 626 c0 -2 9 -6 20 -9 11 -3 18 -1 14 4 -5 9 -34 13 -34 5z"/>
<path d="M1945 619 c-4 -6 -5 -12 -2 -15 2 -3 7 2 10 11 7 17 1 20 -8 4z"/>
<path d="M1748 613 c6 -2 18 -2 25 0 6 3 1 5 -13 5 -14 0 -19 -2 -12 -5z"/>
</g>
</svg>
