<?xml version="1.0" encoding="utf-8"?>
<svg viewBox="0 0 640 480" version="1.1" xmlns="http://www.w3.org/2000/svg">
  <title>404-1</title>
  <desc>Created with Sketch.</desc>
  <defs>
    <polygon id="path-1" points="0 387.865326 471 387.865326 471 0 0 0"/>
    <rect id="path-3" x="-18" y="-21" width="671" height="511" rx="10"/>
  </defs>
  <g id="404" stroke="none" stroke-width="1" fill="none" fill-rule="evenodd">
    <g id="404-1">
      <g id="Page-1" transform="translate(74.000000, 46.000000)">
        <path d="M384.2038,341.570618 L52.8293,341.570618 C52.8288,278.052265 127.0093,226.56091 218.5158,226.56091 C310.0223,226.56091 384.2033,278.052765 384.2038,341.570618 L384.2038,341.570618 Z" id="Fill-1" fill="#E9EEF4"/>
        <path d="M219.0106,87.5389579 C218.5981,87.5389579 218.4511,87.544465 217.8221,87.5474689 C217.1936,87.544465 217.1196,87.5389579 216.7071,87.5389579 C184.2021,87.5389579 145.9176,90.6314431 132.3666,96.6677218 L133.9671,108.195077 C136.4301,120.71421 170.9781,128.851195 216.7071,128.851195 C217.1196,128.851195 217.1936,128.849193 217.8221,128.847691 C218.4511,128.849193 218.5981,128.851195 219.0106,128.851195 C264.7391,128.851195 299.3241,120.71421 301.7866,108.195077 L303.3691,96.6677218 C289.8181,90.6314431 251.5151,87.5389579 219.0106,87.5389579" id="Fill-3" fill="#DEE5ED"/>
        <path d="M217.8191,127.524185 L219.0106,127.52819 C241.2526,127.52819 261.6016,125.54113 276.3091,121.93298 C290.7961,118.378399 299.3781,113.422513 300.4831,107.974993 L301.9221,97.4904821 C287.2806,91.5653466 248.9916,88.8623634 219.0106,88.8623634 C218.7946,88.8623634 218.6536,88.8638653 218.4741,88.8653672 L217.8296,88.8708743 L217.1891,88.8653672 C217.0356,88.8633646 216.9161,88.8623634 216.7071,88.8623634 C186.7366,88.8623634 148.4581,91.5658472 133.8151,97.4904821 L135.2706,107.973992 C136.3751,113.422513 144.9506,118.3789 159.4271,121.93298 C174.1251,125.54113 194.4676,127.52819 216.7071,127.52819 L217.8191,127.524185 Z M219.0106,130.174601 L217.8191,130.170596 L216.7071,130.174601 C193.9361,130.174601 173.9116,128.213574 158.7976,124.503292 C143.0086,120.627298 133.9741,115.076144 132.6706,108.451107 L132.6581,108.377512 L130.9211,95.8633853 L131.8296,95.458864 C146.0866,89.1081801 185.8216,86.2154524 216.7071,86.2154524 C216.9296,86.2154524 217.0566,86.2169543 217.2201,86.2189569 L217.8296,86.224464 L218.4461,86.2194575 C218.6351,86.217455 218.7836,86.2154524 219.0106,86.2154524 C249.9046,86.2154524 289.6491,89.1081801 303.9061,95.458864 L304.8136,95.8628846 L303.0836,108.451107 C301.7801,115.075643 292.7391,120.626296 276.9376,124.503292 C261.8151,128.213574 241.7836,130.174601 219.0106,130.174601 L219.0106,130.174601 Z" id="Fill-5" fill="#A7B8D1"/>
        <path d="M217.8223,74.964704 C170.6663,74.964704 132.1668,84.2126214 132.1668,95.6208227 C132.1668,107.029024 170.6663,116.276941 217.8223,116.276941 C264.9783,116.276941 303.4778,107.029024 303.4778,95.6208227 C303.4778,84.2126214 264.9783,74.964704 217.8223,74.964704" id="Fill-7" fill="#FFFFFF"/>
        <path d="M217.82225,76.2879592 C195.09975,76.2879592 173.71975,78.4237115 157.62025,82.3012083 C142.50925,85.9408986 133.48825,90.9203154 133.48825,95.6208728 C133.48825,100.32143 142.50925,105.300847 157.62025,108.940537 C173.71975,112.818535 195.09975,114.953786 217.82225,114.953786 C240.54475,114.953786 261.92525,112.818535 278.02475,108.940537 C293.13525,105.300847 302.15675,100.32143 302.15675,95.6208728 C302.15675,90.9203154 293.13525,85.9408986 278.02475,82.3012083 C261.92525,78.4237115 240.54475,76.2879592 217.82225,76.2879592 M217.82225,117.600197 C194.89775,117.600197 173.29775,115.438911 157.00175,111.513853 C145.06925,108.63965 130.84525,103.54909 130.84525,95.6208728 C130.84525,87.692656 145.06925,82.6025966 157.00175,79.7283928 C173.29775,75.8033347 194.89775,73.6415489 217.82225,73.6415489 C240.74675,73.6415489 262.34675,75.8033347 278.64275,79.7283928 C290.57575,82.6025966 304.79975,87.692656 304.79975,95.6208728 C304.79975,103.54909 290.57575,108.63965 278.64275,111.513853 C262.34675,115.438911 240.74675,117.600197 217.82225,117.600197" id="Fill-9" fill="#A7B8D1"/>
        <path d="M265.12785,86.8978317 C265.12785,92.627215 244.85385,97.2717001 219.84435,97.2717001 C194.83485,97.2717001 174.56035,92.627215 174.56035,86.8978317 C174.56035,81.1684485 180.90435,79.5954214 205.89785,78.7002679 C264.62385,76.5970575 265.12785,81.1684485 265.12785,86.8978317" id="Fill-11" fill="#DEE5ED"/>
        <path d="M219.75995,40.0544165 C195.68745,40.0544165 176.02145,58.0756397 175.30945,80.4825146 L264.21145,80.4825146 C263.49845,58.0756397 243.83245,40.0544165 219.75995,40.0544165 L219.75995,40.0544165 Z M172.77445,83.0007597 L172.77445,81.7416372 C172.77445,57.3667262 193.85195,37.5361714 219.75995,37.5361714 C245.66745,37.5356707 266.74545,57.3667262 266.74595,81.7416372 L266.74595,83.0007597 L172.77445,83.0007597 Z" id="Combined-Shape" fill="#A7B8D1"/>
        <path d="M220.39525,98.5769822 L219.75725,98.5749796 L219.16425,98.5769822 C199.29825,98.5769822 175.47425,95.6992738 173.71225,87.5883215 L173.69775,87.5117228 L172.84225,81.9330338 L175.32825,81.5510415 L176.17725,87.0866751 C177.19725,91.4427886 192.57725,96.058737 219.16425,96.058737 L219.75725,96.0567345 L220.39525,96.058737 C246.99275,96.058737 262.37975,91.4432893 263.40125,87.0876764 L264.24025,81.5530441 L266.72675,81.9305306 L265.86675,87.5883215 C264.10425,95.6992738 240.27025,98.5769822 220.39525,98.5769822" id="Fill-17" fill="#A7B8D1"/>
        <path d="M264.1925,79.8768341 C267.009,84.8637605 244.7695,89.3435334 219.76,89.3435334 C194.7505,89.3435334 172.6735,84.2674921 175.3425,79.8377837 C178.84,74.0333037 180.904,73.6117605 205.8975,72.716607 C264.6235,70.6133966 262.018,76.0268728 264.1925,79.8768341" id="Fill-19" fill="#FFFFFF"/>
        <path d="M219.76015,90.7518483 C196.38465,90.7518483 172.72065,86.5043747 172.72065,79.4953425 L175.23615,79.4953425 C175.23615,80.9972779 178.49665,83.2556883 187.68515,85.2597708 C196.25765,87.1291799 207.64865,88.1214586 219.76015,88.1214586 C231.87165,88.1214586 243.26215,87.1482044 251.83465,85.2782947 C261.02365,83.2742121 264.28415,80.9972779 264.28415,79.4953425 L266.79915,79.4953425 C266.79915,86.5043747 243.13565,90.7518483 219.76015,90.7518483" id="Fill-21" fill="#A7B8D1"/>
        <path d="M174.9254,99.7180526 C174.9254,101.043761 173.8524,102.118146 172.5284,102.118146 C171.2044,102.118146 170.1314,101.043761 170.1314,99.7180526 C170.1314,98.3923443 171.2044,97.3179597 172.5284,97.3179597 C173.8524,97.3179597 174.9254,98.3923443 174.9254,99.7180526" id="Fill-23" fill="#A7B8D1"/>
        <path d="M222.59865,104.518439 C222.59865,105.844147 221.52515,106.918532 220.20165,106.918532 C218.87765,106.918532 217.80415,105.844147 217.80415,104.518439 C217.80415,103.19273 218.87765,102.118346 220.20165,102.118346 C221.52515,102.118346 222.59865,103.19273 222.59865,104.518439" id="Fill-25" fill="#A7B8D1"/>
        <path d="M269.38905,99.7180526 C269.38905,101.043761 268.31605,102.118146 266.99205,102.118146 C265.66805,102.118146 264.59505,101.043761 264.59505,99.7180526 C264.59505,98.3923443 265.66805,97.3179597 266.99205,97.3179597 C268.31605,97.3179597 269.38905,98.3923443 269.38905,99.7180526" id="Fill-27" fill="#A7B8D1"/>
        <path d="M221.2212,45.3872888 C221.2212,46.2373843 217.7742,46.2373843 217.7742,45.3872888 L217.7742,22.0402023 L221.2212,21.8784939 L221.2212,45.3872888 Z" id="Fill-29" fill="#A7B8D1"/>
        <path d="M224.9484,25.8165187 C224.9484,28.8309032 222.5079,31.2740516 219.4979,31.2740516 C216.4874,31.2740516 214.0474,28.8309032 214.0474,25.8165187 C214.0474,22.8021342 216.4874,20.3589858 219.4979,20.3589858 C222.5079,20.3589858 224.9484,22.8021342 224.9484,25.8165187" id="Fill-31" fill="#A7B8D1"/>
        <mask id="mask-2" fill="white">
          <polygon id="" points="0 387.865326 471 387.865326 471 0 0 0" transform="matrix(1, 0, 0, 1, 0, 0)"/>
        </mask>
        <g id="Clip-34"/>
        <polygon id="Fill-33" fill="#A7B8D1" mask="url(#mask-2)" points="212.686 46.3527329 226.309 46.3527329 226.309 44.9364077 212.686 44.9364077"/>
        <polygon id="Fill-35" fill="#CFD7E6" mask="url(#mask-2)" points="217.774 15.9500542 221.221 15.9500542 221.221 2.30947613 217.774 2.30947613"/>
        <polygon id="Fill-36" fill="#CFD7E6" mask="url(#mask-2)" points="227.74485 20.3589357 224.94835 18.3413357 232.91185 7.27457445 235.70835 9.29167381"/>
        <polygon id="Fill-37" fill="#CFD7E6" mask="url(#mask-2)" points="211.25075 20.3589357 214.04725 18.3413357 206.08375 7.27457445 203.28725 9.29167381"/>
        <polygon id="Fill-38" fill="#A7B8D1" mask="url(#mask-2)" points="292.1831 253.650469 281.9766 121.760007 283.6966 121.626836 293.9031 253.517298"/>
        <polygon id="Fill-39" fill="#A7B8D1" mask="url(#mask-2)" points="147.42185 253.650469 145.70185 253.517298 155.90835 121.626836 157.62835 121.760007"/>
        <polygon id="Fill-40" fill="#A7B8D1" mask="url(#mask-2)" points="197.5 179.624475 199 179.624475 199 146.081249 197.5 146.081249"/>
        <polygon id="Fill-41" fill="#A7B8D1" mask="url(#mask-2)" points="218 202.153507 219.5 202.153507 219.5 175.619314 218 175.619314"/>
        <polygon id="Fill-42" fill="#A7B8D1" mask="url(#mask-2)" points="218 163.103185 219.5 163.103185 219.5 136.068346 218 136.068346"/>
        <polygon id="Fill-43" fill="#A7B8D1" mask="url(#mask-2)" points="171.5 166.107055 173.5 166.107055 173.5 133.064475 171.5 133.064475"/>
        <polygon id="Fill-44" fill="#A7B8D1" mask="url(#mask-2)" points="242.5 179.624475 244 179.624475 244 146.081249 242.5 146.081249"/>
        <polygon id="Fill-45" fill="#A7B8D1" mask="url(#mask-2)" points="268.5 166.107055 270 166.107055 270 133.064475 268.5 133.064475"/>
        <path d="M185.12585,78.2405254 L182.61385,78.118368 C183.57735,58.2898157 199.19385,48.1507499 199.85785,47.7292067 L201.20635,49.8549461 C201.05435,49.9515706 186.02485,59.7486957 185.12585,78.2405254" id="Fill-46" fill="#A7B8D1" mask="url(#mask-2)"/>
        <g id="Group" mask="url(#mask-2)" fill="#A7B8D1" style="">
          <path d="M 167.056 260.57 L 161.136 259.05 L 164.096 229.98 L 193.966 229.98 L 193.966 236.83 L 170.386 236.83 L 168.626 252.73 L 168.626 252.73 C 171.479 251.043 174.719 250.2 178.346 250.2 L 178.346 250.2 L 178.346 250.2 C 183.659 250.2 187.879 251.957 191.006 255.47 L 191.006 255.47 L 191.006 255.47 C 194.126 258.977 195.686 263.72 195.686 269.7 L 195.686 269.7 L 195.686 269.7 C 195.686 275.707 194.066 280.44 190.826 283.9 L 190.826 283.9 L 190.826 283.9 C 187.579 287.353 183.046 289.08 177.226 289.08 L 177.226 289.08 L 177.226 289.08 C 172.079 289.08 167.876 287.653 164.616 284.8 L 164.616 284.8 L 164.616 284.8 C 161.363 281.94 159.509 277.99 159.056 272.95 L 159.056 272.95 L 166.056 272.95 L 166.056 272.95 C 166.509 276.283 167.699 278.797 169.626 280.49 L 169.626 280.49 L 169.626 280.49 C 171.546 282.183 174.079 283.03 177.226 283.03 L 177.226 283.03 L 177.226 283.03 C 180.673 283.03 183.376 281.857 185.336 279.51 L 185.336 279.51 L 185.336 279.51 C 187.296 277.163 188.276 273.92 188.276 269.78 L 188.276 269.78 L 188.276 269.78 C 188.276 265.887 187.216 262.757 185.096 260.39 L 185.096 260.39 L 185.096 260.39 C 182.976 258.03 180.153 256.85 176.626 256.85 L 176.626 256.85 L 176.626 256.85 C 173.399 256.85 170.866 257.557 169.026 258.97 L 169.026 258.97 L 167.056 260.57 Z M 237.83 253.81 L 237.83 263.42 L 237.83 263.42 C 237.83 272.093 236.35 278.537 233.39 282.75 L 233.39 282.75 L 233.39 282.75 C 230.424 286.97 225.79 289.08 219.49 289.08 L 219.49 289.08 L 219.49 289.08 C 213.27 289.08 208.667 287.017 205.68 282.89 L 205.68 282.89 L 205.68 282.89 C 202.687 278.77 201.137 272.613 201.03 264.42 L 201.03 264.42 L 201.03 254.53 L 201.03 254.53 C 201.03 245.957 202.514 239.59 205.48 235.43 L 205.48 235.43 L 205.48 235.43 C 208.44 231.263 213.084 229.18 219.41 229.18 L 219.41 229.18 L 219.41 229.18 C 225.684 229.18 230.304 231.19 233.27 235.21 L 233.27 235.21 L 233.27 235.21 C 236.23 239.223 237.75 245.423 237.83 253.81 L 237.83 253.81 Z M 230.42 265.42 L 230.42 253.29 L 230.42 253.29 C 230.42 247.017 229.54 242.443 227.78 239.57 L 227.78 239.57 L 227.78 239.57 C 226.02 236.703 223.23 235.27 219.41 235.27 L 219.41 235.27 L 219.41 235.27 C 215.624 235.27 212.86 236.697 211.12 239.55 L 211.12 239.55 L 211.12 239.55 C 209.387 242.41 208.494 246.803 208.44 252.73 L 208.44 252.73 L 208.44 264.58 L 208.44 264.58 C 208.44 270.88 209.354 275.53 211.18 278.53 L 211.18 278.53 L 211.18 278.53 C 213.014 281.53 215.784 283.03 219.49 283.03 L 219.49 283.03 L 219.49 283.03 C 223.15 283.03 225.867 281.617 227.64 278.79 L 227.64 278.79 L 227.64 278.79 C 229.414 275.963 230.34 271.507 230.42 265.42 L 230.42 265.42 Z M 281.374 253.81 L 281.374 263.42 L 281.374 263.42 C 281.374 272.093 279.894 278.537 276.934 282.75 L 276.934 282.75 L 276.934 282.75 C 273.968 286.97 269.334 289.08 263.034 289.08 L 263.034 289.08 L 263.034 289.08 C 256.814 289.08 252.211 287.017 249.224 282.89 L 249.224 282.89 L 249.224 282.89 C 246.231 278.77 244.681 272.613 244.574 264.42 L 244.574 264.42 L 244.574 254.53 L 244.574 254.53 C 244.574 245.957 246.058 239.59 249.024 235.43 L 249.024 235.43 L 249.024 235.43 C 251.984 231.263 256.628 229.18 262.954 229.18 L 262.954 229.18 L 262.954 229.18 C 269.228 229.18 273.848 231.19 276.814 235.21 L 276.814 235.21 L 276.814 235.21 C 279.774 239.223 281.294 245.423 281.374 253.81 L 281.374 253.81 Z M 273.964 265.42 L 273.964 253.29 L 273.964 253.29 C 273.964 247.017 273.084 242.443 271.324 239.57 L 271.324 239.57 L 271.324 239.57 C 269.564 236.703 266.774 235.27 262.954 235.27 L 262.954 235.27 L 262.954 235.27 C 259.168 235.27 256.404 236.697 254.664 239.55 L 254.664 239.55 L 254.664 239.55 C 252.931 242.41 252.038 246.803 251.984 252.73 L 251.984 252.73 L 251.984 264.58 L 251.984 264.58 C 251.984 270.88 252.898 275.53 254.724 278.53 L 254.724 278.53 L 254.724 278.53 C 256.558 281.53 259.328 283.03 263.034 283.03 L 263.034 283.03 L 263.034 283.03 C 266.694 283.03 269.411 281.617 271.184 278.79 L 271.184 278.79 L 271.184 278.79 C 272.958 275.963 273.884 271.507 273.964 265.42 L 273.964 265.42 Z" style="white-space: pre; fill: rgb(162, 182, 211);"/>
          <path d="M 178.248 318.167 L 178.248 321.237 L 165.918 321.237 L 165.918 331.307 L 180.238 331.307 L 180.238 334.377 L 162.168 334.377 L 162.168 305.937 L 180.038 305.937 L 180.038 309.027 L 165.918 309.027 L 165.918 318.167 L 178.248 318.167 Z M 201.502 334.377 L 195.332 322.877 L 188.652 322.877 L 188.652 334.377 L 184.882 334.377 L 184.882 305.937 L 194.302 305.937 L 194.302 305.937 C 197.502 305.937 199.966 306.667 201.692 308.127 L 201.692 308.127 L 201.692 308.127 C 203.419 309.587 204.282 311.71 204.282 314.497 L 204.282 314.497 L 204.282 314.497 C 204.282 316.264 203.802 317.807 202.842 319.127 L 202.842 319.127 L 202.842 319.127 C 201.882 320.44 200.552 321.424 198.852 322.077 L 198.852 322.077 L 205.532 334.147 L 205.532 334.377 L 201.502 334.377 Z M 188.652 309.027 L 188.652 319.807 L 194.412 319.807 L 194.412 319.807 C 196.279 319.807 197.762 319.324 198.862 318.357 L 198.862 318.357 L 198.862 318.357 C 199.962 317.397 200.512 316.11 200.512 314.497 L 200.512 314.497 L 200.512 314.497 C 200.512 312.737 199.986 311.387 198.932 310.447 L 198.932 310.447 L 198.932 310.447 C 197.886 309.514 196.372 309.04 194.392 309.027 L 194.392 309.027 L 188.652 309.027 Z M 226.131 334.377 L 219.961 322.877 L 213.281 322.877 L 213.281 334.377 L 209.511 334.377 L 209.511 305.937 L 218.931 305.937 L 218.931 305.937 C 222.131 305.937 224.595 306.667 226.321 308.127 L 226.321 308.127 L 226.321 308.127 C 228.048 309.587 228.911 311.71 228.911 314.497 L 228.911 314.497 L 228.911 314.497 C 228.911 316.264 228.431 317.807 227.471 319.127 L 227.471 319.127 L 227.471 319.127 C 226.511 320.44 225.181 321.424 223.481 322.077 L 223.481 322.077 L 230.161 334.147 L 230.161 334.377 L 226.131 334.377 Z M 213.281 309.027 L 213.281 319.807 L 219.041 319.807 L 219.041 319.807 C 220.908 319.807 222.391 319.324 223.491 318.357 L 223.491 318.357 L 223.491 318.357 C 224.591 317.397 225.141 316.11 225.141 314.497 L 225.141 314.497 L 225.141 314.497 C 225.141 312.737 224.615 311.387 223.561 310.447 L 223.561 310.447 L 223.561 310.447 C 222.515 309.514 221.001 309.04 219.021 309.027 L 219.021 309.027 L 213.281 309.027 Z M 256.04 319.277 L 256.04 321.077 L 256.04 321.077 C 256.04 323.864 255.57 326.294 254.63 328.367 L 254.63 328.367 L 254.63 328.367 C 253.69 330.447 252.364 332.034 250.65 333.127 L 250.65 333.127 L 250.65 333.127 C 248.93 334.22 246.924 334.767 244.63 334.767 L 244.63 334.767 L 244.63 334.767 C 242.39 334.767 240.404 334.217 238.67 333.117 L 238.67 333.117 L 238.67 333.117 C 236.937 332.017 235.594 330.447 234.64 328.407 L 234.64 328.407 L 234.64 328.407 C 233.68 326.374 233.187 324.014 233.16 321.327 L 233.16 321.327 L 233.16 319.277 L 233.16 319.277 C 233.16 316.544 233.637 314.13 234.59 312.037 L 234.59 312.037 L 234.59 312.037 C 235.544 309.937 236.887 308.33 238.62 307.217 L 238.62 307.217 L 238.62 307.217 C 240.36 306.104 242.35 305.547 244.59 305.547 L 244.59 305.547 L 244.59 305.547 C 246.87 305.547 248.88 306.097 250.62 307.197 L 250.62 307.197 L 250.62 307.197 C 252.354 308.297 253.69 309.894 254.63 311.987 L 254.63 311.987 L 254.63 311.987 C 255.57 314.074 256.04 316.504 256.04 319.277 L 256.04 319.277 Z M 252.31 321.347 L 252.31 319.237 L 252.31 319.237 C 252.31 315.864 251.63 313.277 250.27 311.477 L 250.27 311.477 L 250.27 311.477 C 248.917 309.67 247.024 308.767 244.59 308.767 L 244.59 308.767 L 244.59 308.767 C 242.224 308.767 240.357 309.67 238.99 311.477 L 238.99 311.477 L 238.99 311.477 C 237.63 313.277 236.934 315.78 236.9 318.987 L 236.9 318.987 L 236.9 321.077 L 236.9 321.077 C 236.9 324.344 237.587 326.91 238.96 328.777 L 238.96 328.777 L 238.96 328.777 C 240.334 330.65 242.224 331.587 244.63 331.587 L 244.63 331.587 L 244.63 331.587 C 247.05 331.587 248.924 330.704 250.25 328.937 L 250.25 328.937 L 250.25 328.937 C 251.584 327.17 252.27 324.64 252.31 321.347 L 252.31 321.347 Z M 278.26 334.377 L 272.09 322.877 L 265.41 322.877 L 265.41 334.377 L 261.64 334.377 L 261.64 305.937 L 271.06 305.937 L 271.06 305.937 C 274.26 305.937 276.724 306.667 278.45 308.127 L 278.45 308.127 L 278.45 308.127 C 280.177 309.587 281.04 311.71 281.04 314.497 L 281.04 314.497 L 281.04 314.497 C 281.04 316.264 280.56 317.807 279.6 319.127 L 279.6 319.127 L 279.6 319.127 C 278.64 320.44 277.31 321.424 275.61 322.077 L 275.61 322.077 L 282.29 334.147 L 282.29 334.377 L 278.26 334.377 Z M 265.41 309.027 L 265.41 319.807 L 271.17 319.807 L 271.17 319.807 C 273.037 319.807 274.52 319.324 275.62 318.357 L 275.62 318.357 L 275.62 318.357 C 276.72 317.397 277.27 316.11 277.27 314.497 L 277.27 314.497 L 277.27 314.497 C 277.27 312.737 276.743 311.387 275.69 310.447 L 275.69 310.447 L 275.69 310.447 C 274.643 309.514 273.13 309.04 271.15 309.027 L 271.15 309.027 L 265.41 309.027 Z" style="white-space: pre; fill: rgb(162, 182, 211);"/>
        </g>
        <g id="Group-2" mask="url(#mask-2)" fill="#A7B8D1">
          <g transform="translate(132.000000, 364.000000)"/>
        </g>
        <polygon id="Fill-69" fill="#A7B8D1" mask="url(#mask-2)" points="10.5 47.4541523 44.5 47.4541523 44.5 45.4515716 10.5 45.4515716"/>
        <polygon id="Fill-70" fill="#A7B8D1" mask="url(#mask-2)" points="114.5 49.4567329 148.5 49.4567329 148.5 47.9547974 114.5 47.9547974"/>
        <polygon id="Fill-71" fill="#4D6892" mask="url(#mask-2)" points="43 54.4631845 95 54.4631845 95 52.4606039 43 52.4606039"/>
        <polygon id="Fill-72" fill="#A7B8D1" mask="url(#mask-2)" points="132 42.4477006 146 42.4477006 146 40.44512 132 40.44512"/>
        <polygon id="Fill-73" fill="#A7B8D1" mask="url(#mask-2)" points="14 41.9470555 37.5 41.9470555 37.5 39.9444748 14 39.9444748"/>
        <polygon id="Fill-74" fill="#A7B8D1" mask="url(#mask-2)" points="114.5 42.4477006 129 42.4477006 129 40.44512 114.5 40.44512"/>
        <path d="M114.7227,41.4797032 C114.0807,33.4673781 107.9632,27.4255923 100.4942,27.4255923 C97.4152,27.4255923 94.5097,28.4283845 92.0912,30.3263303 L90.9777,31.2004568 L90.7122,29.8081626 C89.3542,22.6794761 83.4677,17.5048077 76.7147,17.5048077 C69.5457,17.5048077 63.4547,23.2682348 62.5457,30.9105832 L62.3367,32.6678477 L61.0822,31.4217419 C58.4902,28.8484258 55.0522,27.4310994 51.4012,27.4310994 C43.9317,27.4310994 37.8147,33.4708826 37.1727,41.4797032 L35.4532,41.3415252 C36.1677,32.4265368 43.0242,25.7038735 51.4012,25.7038735 C54.9682,25.7038735 58.3542,26.9059226 61.0937,29.1172723 C62.7137,21.4093394 69.1817,15.7775819 76.7147,15.7775819 C83.8757,15.7775819 90.1617,20.9227123 92.1102,28.1885755 C94.6012,26.555471 97.4737,25.6983665 100.4942,25.6983665 C108.8712,25.6983665 115.7272,32.4235329 116.4422,41.3415252 L114.7227,41.4797032 Z" id="Fill-75" fill="#A7B8D1" mask="url(#mask-2)"/>
        <polygon id="Fill-76" fill="#CFD7E6" mask="url(#mask-2)" points="437 148.584475 471 148.584475 471 146.581894 437 146.581894"/>
        <polygon id="Fill-77" fill="#CFD7E6" mask="url(#mask-2)" points="332.5 150.587055 366.5 150.587055 366.5 148.584475 332.5 148.584475"/>
        <polygon id="Fill-78" fill="#4D6892" mask="url(#mask-2)" points="402 155.593507 454 155.593507 454 153.590926 402 153.590926"/>
        <polygon id="Fill-79" fill="#CFD7E6" mask="url(#mask-2)" points="377.5 155.593507 391.5 155.593507 391.5 153.590926 377.5 153.590926"/>
        <polygon id="Fill-80" fill="#CFD7E6" mask="url(#mask-2)" points="444.5 143.077378 467 143.077378 467 141.575443 444.5 141.575443"/>
        <polygon id="Fill-81" fill="#CFD7E6" mask="url(#mask-2)" points="352 143.578023 366.5 143.578023 366.5 141.575443 352 141.575443"/>
        <path d="M443.8481,142.522263 C443.2056,134.513442 437.0886,128.473659 429.6191,128.473659 C425.9686,128.473659 422.5301,129.890985 419.9381,132.464802 L418.6831,133.710407 L418.4741,131.953143 C417.5391,124.0825 412.1486,115.587052 405.0726,115.587052 C398.2866,115.587052 391.6806,123.645437 390.3081,130.850722 L390.0431,132.243016 L388.9291,131.36889 C386.5111,129.470944 383.6051,128.468152 380.5266,128.468152 C373.0571,128.468152 366.9401,134.509938 366.2971,142.522263 L364.5781,142.384085 C365.2931,133.466092 372.1496,126.740926 380.5266,126.740926 C383.5461,126.740926 386.4181,127.59753 388.9086,129.230134 C390.8956,121.711445 397.6716,113.859827 405.0726,113.859827 C412.5991,113.859827 418.4071,122.033359 419.9406,130.148818 C422.6781,127.944477 426.0586,126.746433 429.6191,126.746433 C437.9961,126.746433 444.8526,133.469096 445.5671,142.384085 L443.8481,142.522263 Z" id="Fill-82" fill="#CFD7E6" mask="url(#mask-2)"/>
        <polygon id="Fill-83" fill="#A7B8D1" mask="url(#mask-2)" points="79 202.153507 106 202.153507 106 200.651572 79 200.651572"/>
        <polygon id="Fill-84" fill="#4D6892" mask="url(#mask-2)" points="0 203.655443 40.5 203.655443 40.5 201.652862 0 201.652862"/>
        <polygon id="Fill-85" fill="#A7B8D1" mask="url(#mask-2)" points="42 207.159959 53 207.159959 53 205.658023 42 205.658023"/>
        <polygon id="Fill-86" fill="#A7B8D1" mask="url(#mask-2)" points="85 197.147055 103 197.147055 103 195.64512 85 195.64512"/>
        <polygon id="Fill-87" fill="#A7B8D1" mask="url(#mask-2)" points="11.5 197.647701 23.5 197.647701 23.5 196.145765 11.5 196.145765"/>
        <path d="M84.52055,196.922416 C84.01155,189.765693 79.19355,184.368739 73.31305,184.368238 C70.45455,184.368238 67.75755,185.624857 65.71855,187.906297 L64.63055,189.124367 L64.45905,187.499273 C63.73905,180.671474 58.94205,175.522839 53.30005,175.522839 C47.98905,175.522839 43.35305,180.142793 42.27705,186.507995 L42.06005,187.793151 L41.08405,186.930039 C39.18505,185.250875 36.90855,184.363231 34.49955,184.363231 C28.61955,184.363231 23.80155,189.76269 23.29205,196.921915 L21.84805,196.819283 C22.41205,188.892068 27.85105,182.913363 34.49955,182.913363 C36.87305,182.913363 39.12955,183.658824 41.09155,185.081157 C42.64155,178.634349 47.62205,174.072971 53.30005,174.072971 C59.26905,174.072971 64.39155,179.060899 65.68555,185.893704 C67.84705,183.965219 70.50805,182.91887 73.31305,182.91887 C79.96205,182.91887 85.40105,188.894571 85.96455,196.819283 L84.52055,196.922416 Z" id="Fill-88" fill="#A7B8D1" mask="url(#mask-2)"/>
        <path d="M357.4626,202.63708 C360.2466,203.828616 362.2601,206.379903 363.3646,210.103202 C363.9896,208.059568 364.9726,206.285782 366.2681,204.928033 C367.1721,203.980812 368.2221,203.244363 369.3881,202.731702 C368.3191,202.248079 367.3451,201.564698 366.4906,200.693075 C365.0851,199.259227 364.0241,197.356776 363.3651,195.158443 C362.2441,198.716027 360.1906,201.322386 357.4626,202.63708 L357.4626,202.63708 Z M362.5936,216.516967 C362.5916,216.478918 362.5906,216.440869 362.5891,216.402319 C362.4006,211.551067 360.9521,203.595816 353.4996,203.595816 C353.4431,203.595816 353.3871,203.596316 353.3306,203.597318 L353.2996,201.870092 C358.7456,201.763454 362.3931,196.730969 362.5926,189.050572 L362.5926,189.048069 L364.3166,189.092125 L364.3166,189.093127 L364.3166,189.094629 C364.2136,193.319573 365.4861,197.203078 367.7216,199.483516 C369.2881,201.081075 371.2696,201.892621 373.5876,201.870092 L373.5881,201.870092 L373.5986,203.597318 L373.5981,203.597318 C371.1456,203.611836 369.0991,204.461431 367.5151,206.12107 C365.3331,208.408518 364.1686,212.126809 364.3126,216.335733 C364.3141,216.374783 364.3156,216.413333 364.3171,216.452383 L362.5936,216.516967 Z" id="Fill-89" fill="#4BA2F2" mask="url(#mask-2)"/>
        <path d="M68.69845,235.169253 C71.48195,236.360789 73.49595,238.912076 74.60045,242.635374 C75.22495,240.591741 76.20845,238.817955 77.50345,237.460205 C78.40745,236.512985 79.45795,235.776536 80.62395,235.264376 C79.55495,234.780252 78.58095,234.096871 77.72645,233.225248 C76.32045,231.7914 75.25995,229.888949 74.60095,227.690616 C73.47945,231.2477 71.42595,233.85506 68.69845,235.169253 L68.69845,235.169253 Z M73.82895,249.04914 C73.82745,249.011091 73.82595,248.972541 73.82495,248.934993 C73.63595,244.083741 72.18795,236.127989 64.73545,236.127989 C64.67945,236.127989 64.62295,236.128489 64.56595,236.129491 L64.53545,234.402265 C69.98195,234.295627 73.62995,229.262642 73.82845,221.580242 L75.55295,221.624298 L75.55295,221.6253 L75.55295,221.626301 C75.44895,225.851245 76.72195,229.735251 78.95745,232.015689 C80.50995,233.59923 82.46345,234.402265 84.76295,234.402265 L84.82395,234.402265 L84.83445,236.129491 C82.38145,236.144009 80.33495,236.993604 78.75095,238.653743 C76.56895,240.940691 75.40445,244.658982 75.54845,248.867906 C75.54995,248.906956 75.55145,248.945506 75.55295,248.984556 L73.82895,249.04914 Z" id="Fill-90" fill="#4BA2F2" mask="url(#mask-2)"/>
        <path d="M73.62475,106.778952 C76.40825,107.970487 78.42225,110.521775 79.52675,114.245574 C80.15125,112.20194 81.13475,110.428154 82.42975,109.070405 C83.33375,108.122683 84.38375,107.386234 85.55025,106.873574 C84.48125,106.38995 83.50725,105.70657 82.65275,104.834947 C81.24725,103.401599 80.18575,101.498647 79.52725,99.3003143 C78.40575,102.857899 76.35225,105.464758 73.62475,106.778952 L73.62475,106.778952 Z M78.75525,120.659339 C78.75375,120.620789 78.75225,120.582239 78.75125,120.54369 C78.56075,115.655891 77.10825,107.619535 69.49225,107.738689 L69.46175,106.011963 C74.90775,105.905326 78.55525,100.873842 78.75475,93.1934446 L78.75475,93.1914421 L78.75475,93.1904408 L80.47925,93.2339969 L80.47925,93.2349982 L80.47925,93.2359995 C80.37525,97.460944 81.64775,101.344449 83.88375,103.624887 C85.44825,105.221445 87.42375,106.042002 89.74225,106.011963 L89.75025,106.011963 L89.76075,107.739189 L89.75875,107.739189 C87.30675,107.754209 85.26025,108.603803 83.67725,110.263442 C81.49475,112.55089 80.33075,116.268681 80.47475,120.477605 C80.47625,120.516154 80.47775,120.555205 80.47925,120.594255 L78.75525,120.659339 Z" id="Fill-91" fill="#4BA2F2" mask="url(#mask-2)"/>
        <path d="M318.6924,52.5012062 C318.4504,45.6483752 316.0784,38.6318333 308.5539,38.7519881 C314.6769,38.6318333 318.4864,33.0541455 318.6924,25.088881 C318.5224,31.9747546 321.8284,38.7950436 328.8309,38.7519881 C321.6489,38.7950436 318.4144,45.5046901 318.6924,52.5012062" id="Fill-92" fill="#FFFFFF" mask="url(#mask-2)"/>
        <path d="M312.69985,38.6554637 C315.48385,39.8469992 317.49785,42.3977863 318.60185,46.121585 C319.22685,44.0779515 320.20985,42.3041657 321.50535,40.9469166 C322.40935,39.9991954 323.45935,39.2627463 324.62585,38.7500857 C323.55685,38.2664625 322.58235,37.5830818 321.72785,36.7114586 C320.32235,35.2776108 319.26135,33.3756599 318.60285,31.1768263 C317.48135,34.7339102 315.42785,37.3407695 312.69985,38.6554637 L312.69985,38.6554637 Z M317.83085,52.5358508 C317.82885,52.4973012 317.82785,52.4587515 317.82585,52.4207025 C317.63785,47.5689502 316.18935,39.6141992 308.73685,39.6141992 C308.68035,39.6141992 308.62435,39.6146999 308.56785,39.6157012 L308.53685,37.8884754 C313.98335,37.7818379 317.63135,32.7488521 317.83035,25.0664521 L319.55435,25.1105089 L319.55435,25.1115102 L319.55435,25.1120108 C319.45035,29.337456 320.72285,33.2209605 322.95885,35.5018999 C324.51185,37.0859412 326.46485,37.8884754 328.76435,37.8884754 C328.78485,37.8884754 328.82385,37.8854715 328.82585,37.8884754 L328.83635,39.6157012 L328.83585,39.6157012 C326.38335,39.6302199 324.33585,40.4798147 322.75185,42.1399541 C320.57085,44.4269012 319.40635,48.1436908 319.54985,52.3521141 C319.55135,52.391665 319.55285,52.431216 319.55435,52.470767 L317.83085,52.5358508 Z" id="Fill-93" fill="#4BA2F2" mask="url(#mask-2)"/>
        <path d="M123.34035,156.759309 C123.34035,158.034953 122.30735,159.069286 121.03335,159.069286 C119.75935,159.069286 118.72635,158.034953 118.72635,156.759309 C118.72635,155.483666 119.75935,154.449333 121.03335,154.449333 C122.30735,154.449333 123.34035,155.483666 123.34035,156.759309" id="Fill-94" fill="#FBB326" mask="url(#mask-2)"/>
        <path d="M49.83305,253.583983 C49.83305,254.859627 48.80005,255.89396 47.52605,255.89396 C46.25205,255.89396 45.21905,254.859627 45.21905,253.583983 C45.21905,252.30834 46.25205,251.274007 47.52605,251.274007 C48.80005,251.274007 49.83305,252.30834 49.83305,253.583983" id="Fill-95" fill="#FFC857" opacity="0.660331157" mask="url(#mask-2)"/>
        <path d="M39.8258,142.358852 C39.8258,143.634496 38.7928,144.668829 37.5188,144.668829 C36.2448,144.668829 35.2118,143.634496 35.2118,142.358852 C35.2118,141.083208 36.2448,140.048875 37.5188,140.048875 C38.7928,140.048875 39.8258,141.083208 39.8258,142.358852" id="Fill-96" fill="#FFC857" opacity="0.660331157" mask="url(#mask-2)"/>
        <path d="M147.9423,2.30982658 C147.9423,3.58547045 146.9093,4.61980335 145.6353,4.61980335 C144.3613,4.61980335 143.3283,3.58547045 143.3283,2.30982658 C143.3283,1.03418271 144.3613,-0.000150193548 145.6353,-0.000150193548 C146.9093,-0.000150193548 147.9423,1.03418271 147.9423,2.30982658" id="Fill-97" fill="#FFC857" opacity="0.660331157" mask="url(#mask-2)"/>
        <path d="M423.7553,65.7957383 C423.7553,67.0713822 422.7223,68.1057151 421.4483,68.1057151 C420.1743,68.1057151 419.1413,67.0713822 419.1413,65.7957383 C419.1413,64.5200945 420.1743,63.4857615 421.4483,63.4857615 C422.7223,63.4857615 423.7553,64.5200945 423.7553,65.7957383" id="Fill-98" fill="#FBB326" mask="url(#mask-2)"/>
        <path d="M348.3134,97.2714999 C348.3134,98.5471437 347.2804,99.5814766 346.0064,99.5814766 C344.7324,99.5814766 343.6994,98.5471437 343.6994,97.2714999 C343.6994,95.995856 344.7324,94.9615231 346.0064,94.9615231 C347.2804,94.9615231 348.3134,95.995856 348.3134,97.2714999" id="Fill-99" fill="#FBB326" mask="url(#mask-2)"/>
        <path d="M382.24575,246.705019 C382.24575,247.980663 381.21275,249.014996 379.93875,249.014996 C378.66475,249.014996 377.63175,247.980663 377.63175,246.705019 C377.63175,245.429375 378.66475,244.395042 379.93875,244.395042 C381.21275,244.395042 382.24575,245.429375 382.24575,246.705019" id="Fill-100" fill="#FFC857" opacity="0.660331157" mask="url(#mask-2)"/>
        <path d="M278.8628,33.9517523 C278.8628,35.2273961 277.8298,36.261729 276.5558,36.261729 C275.2818,36.261729 274.2488,35.2273961 274.2488,33.9517523 C274.2488,32.6761084 275.2818,31.6417755 276.5558,31.6417755 C277.8298,31.6417755 278.8628,32.6761084 278.8628,33.9517523" id="Fill-101" fill="#FBB326" mask="url(#mask-2)"/>
        <path d="M336.40705,188.130286 C336.40705,189.40593 335.37405,190.440263 334.10005,190.440263 C332.82605,190.440263 331.79305,189.40593 331.79305,188.130286 C331.79305,186.854642 332.82605,185.820309 334.10005,185.820309 C335.37405,185.820309 336.40705,186.854642 336.40705,188.130286" id="Fill-102" fill="#FFC857" opacity="0.660331157" mask="url(#mask-2)"/>
      </g>
      <rect id="Rectangle-1" x="-18" y="-21" width="671" height="511" rx="10" transform="matrix(1, 0, 0, 1, 0, 0)"/>
    </g>
  </g>
</svg>
