<svg xmlns="http://www.w3.org/2000/svg" viewBox="3 3 18 18"><path id="a" fill="#333" d="M7.074 21C4.822 20.999 2.999 19.15 3 16.872c0-1.092.429-2.14 1.191-2.912l3.704-3.752a4.034 4.034 0 0 1 5.08-.557c.248.16.478.347.685.557.236.24.359.57.338.908-.02.282-.14.548-.338.748a1.183 1.183 0 0 1-1.636 0 1.732 1.732 0 0 0-2.47 0l-3.718 3.76a1.784 1.784 0 0 0 0 2.503c.683.69 1.79.69 2.472 0l2.199-2.228a.289.289 0 0 1 .317-.065 4.85 4.85 0 0 0 1.863.365h.117a.296.296 0 1 1 .207.504l-3.058 3.095A4.025 4.025 0 0 1 7.073 21zm6.164-6h-.22a4.001 4.001 0 0 1-.434-.041 4.668 4.668 0 0 1-.352-.074l-.172-.047a2.292 2.292 0 0 1-.186-.062c-.062-.024-.126-.044-.187-.07-.06-.027-.122-.05-.183-.08a4.039 4.039 0 0 1-1.164-.825 1.187 1.187 0 0 1 0-1.662 1.182 1.182 0 0 1 1.635 0 1.73 1.73 0 0 0 2.468 0l.955-.961.023-.027 2.73-2.76a1.785 1.785 0 0 0 0-2.503 1.732 1.732 0 0 0-2.471 0l-2.191 2.216a.288.288 0 0 1-.317.065 4.836 4.836 0 0 0-1.86-.368h-.108a.29.29 0 0 1-.273-.18.297.297 0 0 1 .06-.324l3.054-3.089a4.039 4.039 0 0 1 5.762 0 4.163 4.163 0 0 1 0 5.835l-3.705 3.752a4.062 4.062 0 0 1-1.889 1.084h-.032l-.168.036-.094.017-.2.03h-.1c-.075 0-.142.014-.206.017l-.175.021z"/></svg>
