<svg viewBox="0 0 2048 2048" xmlns="http://www.w3.org/2000/svg"><path fill="#E42B26" d="M1688.02 565.913c-30.376-27.574-68.845-45.658-110.919-50.307-91.447-10.235-183.723-15.387-276.305-17.97-91.988-2.566-184.37-2.566-276.547-2.512-92.164-.054-184.54-.054-276.54 2.512-92.593 2.583-184.896 7.735-276.395 17.97-42.033 4.651-80.486 22.744-110.834 50.33-30.155 27.408-52.31 64.218-62.002 106.533-13.084 56.72-19.703 115.899-23.047 175.445-3.357 59.798-3.44 118.839-3.44 176.156 0 57.24 0 116.205 3.278 176.039 3.262 59.519 9.801 118.696 22.892 175.426 9.75 42.331 31.916 79.152 62.069 106.56 30.33 27.57 68.744 45.651 110.766 50.303 91.51 10.234 183.814 15.386 276.407 17.968 91.998 2.565 184.375 2.565 276.552 2.512 92.218.053 184.593.053 276.579-2.512 92.58-2.582 184.856-7.734 276.356-17.968 42.013-4.651 80.42-22.727 110.763-50.29 30.167-27.404 52.364-64.229 62.178-106.573 13.033-56.732 19.573-115.91 22.847-175.426 3.23-58.693 3.257-118.234 3.253-176.04h.062v-2.901h-.062c.002-114.85.002-236.492-25.783-348.698-9.75-42.333-31.94-79.15-62.128-106.556z"/><path fill="#FFFFFE" d="M1309.36 995.76a842165.403 842165.403 0 0 0-255.803-133.518c-70.663-36.873-141.262-73.713-212.066-110.68l-23.375-12.204v539.339l23.312-12.076c78.202-40.508 156.07-80.866 233.935-121.236l233.934-121.313 27.23-14.123-27.167-14.189z"/></svg>
