<svg width="17" height="18" xmlns="http://www.w3.org/2000/svg"><path d="M8.297 6.312c-1.287 0-2.045.968-2.045 2.608 0 1.64.768 2.628 2.025 2.628 1.319 0 2.15-1.019 2.15-2.628 0-1.61-.831-2.608-2.13-2.608zM8.651.364C13.583.364 17 3.44 17 7.9c0 3.28-1.537 5.348-3.967 5.348-1.246 0-2.191-.662-2.357-1.65h-.177c-.436 1.028-1.34 1.588-2.555 1.588-2.16 0-3.603-1.731-3.603-4.308 0-2.475 1.454-4.197 3.572-4.197 1.09 0 2.015.55 2.42 1.447h.176V4.896h1.766v5.725c0 .713.395 1.14 1.1 1.14 1.226 0 2.005-1.487 2.005-3.799 0-3.687-2.762-6.152-6.844-6.152-4.04 0-6.916 2.944-6.916 7.11 0 4.257 2.845 6.977 7.28 6.977 1.308 0 2.617-.173 3.24-.428v1.446c-.893.286-2.077.449-3.313.449C3.447 17.364 0 14.033 0 8.869 0 3.827 3.52.364 8.65.364z" fill="currentColor" fill-rule="evenodd"/></svg>