<svg width="40" height="40" xmlns="http://www.w3.org/2000/svg" xmlns:xlink="http://www.w3.org/1999/xlink"><defs><circle id="a" cx="20" cy="20" r="19.509"/></defs><g fill="none" fill-rule="evenodd"><mask id="b" fill="#fff"><use xlink:href="#a"/></mask><circle stroke="currentColor" stroke-width="1.561" cx="20" cy="20" r="18.729"/><g mask="url(#b)" fill="currentColor"><path d="M15.72 14.996c0-2.383 1.92-4.32 4.28-4.32 2.36 0 4.28 1.937 4.28 4.32s-1.92 4.321-4.28 4.321c-2.36 0-4.28-1.938-4.28-4.32zm7.598 4.88a5.935 5.935 0 0 0 2.547-4.88c0-3.265-2.631-5.921-5.865-5.921-3.234 0-5.865 2.656-5.865 5.921a5.935 5.935 0 0 0 2.547 4.88c-1.435.5-2.75 1.326-3.856 2.441a10.223 10.223 0 0 0-2.97 7.163v.653a.793.793 0 0 0 1.585 0v-.647c.039-4.731 3.863-8.568 8.559-8.568 4.706 0 8.538 3.854 8.56 8.6v.615a.792.792 0 0 0 1.585 0v-.622a10.224 10.224 0 0 0-2.971-7.194 10.093 10.093 0 0 0-3.856-2.441z"/></g></g></svg>