<svg width="14" height="14" xmlns="http://www.w3.org/2000/svg"><path d="M14 7c0-3.86-3.14-7-7-7S0 3.14 0 7c0 1.974.824 3.756 2.143 5.03.03.04.067.072.11.1A6.966 6.966 0 0 0 7 14a6.966 6.966 0 0 0 4.747-1.87.427.427 0 0 0 .11-.1A6.975 6.975 0 0 0 14 7zM7 .875A6.132 6.132 0 0 1 13.125 7a6.09 6.09 0 0 1-1.324 3.792c-.38-1.224-1.463-2.182-2.933-2.622a3.182 3.182 0 0 0 1.325-2.581A3.194 3.194 0 0 0 7 2.4a3.194 3.194 0 0 0-3.193 3.189c0 1.061.524 2 1.325 2.58-1.47.441-2.553 1.4-2.933 2.623A6.09 6.09 0 0 1 .875 7 6.132 6.132 0 0 1 7 .875zM4.682 5.589a2.318 2.318 0 0 1 4.636 0 2.318 2.318 0 0 1-4.636 0zm-1.747 5.98C3.066 9.965 4.767 8.777 7 8.777c2.233 0 3.934 1.188 4.065 2.792A6.093 6.093 0 0 1 7 13.125a6.093 6.093 0 0 1-4.065-1.556z" fill="currentColor" fill-rule="nonzero"/></svg>