<svg width="19" height="20" xmlns="http://www.w3.org/2000/svg"><path d="M6.182 16.526H.779a.784.784 0 0 1-.779-.79c0-.435.349-.789.78-.789h.675V7.632C1.455 3.423 4.834 0 8.987 0c4.154 0 7.532 3.423 7.532 7.632v7.315h.884c.43 0 .779.354.779.79 0 .436-.349.79-.78.79h-5.506v.578c0 1.596-1.282 2.895-2.857 2.895-1.575 0-2.857-1.299-2.857-2.895v-.579zm1.558 0v.58c0 .725.583 1.315 1.299 1.315s1.299-.59 1.299-1.316v-.579H7.74zm7.221-1.579V7.632c0-3.338-2.68-6.053-5.974-6.053S3.013 4.294 3.013 7.632v7.315h11.948z" fill="currentColor" fill-rule="evenodd"/></svg>