<svg viewBox="0 0 20 18" xmlns="http://www.w3.org/2000/svg"><path d="M15.078 5.524l1.588-3.29 1.588 3.29h-3.176zm-3.924 9.363l3.286-7.982h3.428l-6.714 7.982zM10 14.168L7.01 6.905h5.98L10 14.168zM2.132 6.905H5.56l3.286 7.982-6.714-7.982zm1.202-4.67l1.588 3.29H1.746l1.588-3.29zm5.333-.854L6.114 4.906 4.412 1.381h4.255zm4 4.143H7.332L10 1.841l2.666 3.683zm2.92-4.143l-1.701 3.525-2.553-3.525h4.255zm4.342 4.525L17.263.382c-.13-.235-.31-.382-.597-.382H3.334c-.279 0-.465.143-.597.382L.071 5.906a.706.706 0 0 0 .094.762l9.332 11.095A.66.66 0 0 0 10 18a.657.657 0 0 0 .503-.237l9.332-11.095a.706.706 0 0 0 .094-.762z" fill="currentColor" fill-rule="evenodd"/></svg>
