<svg width="28" height="27" xmlns="http://www.w3.org/2000/svg" xmlns:xlink="http://www.w3.org/1999/xlink"><defs><path id="a" d="M.003.012H28v26.985H.003z"/></defs><g fill="none" fill-rule="evenodd"><mask id="b" fill="#fff"><use xlink:href="#a"/></mask><path d="M9.694 17.061a.535.535 0 0 1-.387-.16.526.526 0 0 1-.118-.179.584.584 0 0 1-.042-.21.545.545 0 0 1 .092-.306.526.526 0 0 1 .246-.202.549.549 0 1 1 .209 1.057" fill="#0A090B" mask="url(#b)"/><path d="M25.227 19.503c-.803.102-1.285.425-1.72.716-.47.316-.843.566-1.658.566-.816 0-1.188-.25-1.66-.566-.524-.351-1.118-.75-2.265-.75s-1.741.399-2.266.75c-.47.316-.843.566-1.658.566-.816 0-1.188-.25-1.66-.566-.524-.351-1.118-.75-2.265-.75-1.146 0-1.74.399-2.265.75-.471.316-.844.566-1.66.566-.815 0-1.187-.25-1.658-.566-.434-.29-.916-.614-1.719-.716v-1.895c0-.302.244-.547.544-.547h4.197a.548.548 0 0 0 .547-.55.548.548 0 0 0-.547-.55h-2.17v-2.564c.252.052.518.078.807.078 1.147 0 1.741-.399 2.265-.75.472-.316.844-.566 1.66-.566.815 0 1.187.25 1.658.566.524.351 1.119.75 2.266.75 1.146 0 1.74-.399 2.265-.75.471-.316.843-.566 1.659-.566.816 0 1.188.25 1.659.566.525.351 1.119.75 2.266.75.289 0 .555-.026.807-.078v2.565H11.874a.548.548 0 0 0-.547.55c0 .303.245.55.547.55h12.81c.299 0 .543.245.543.546v1.895zm0 6.397H2.773v-5.285c.465.086.762.284 1.112.52.525.351 1.12.75 2.266.75 1.147 0 1.741-.399 2.265-.75.472-.316.844-.566 1.66-.566.815 0 1.187.25 1.658.566.524.351 1.119.75 2.266.75 1.146 0 1.74-.399 2.265-.75.471-.316.843-.566 1.659-.566.816 0 1.188.25 1.659.566.525.351 1.119.75 2.266.75 1.146 0 1.74-.399 2.265-.75.351-.236.648-.434 1.113-.52V25.9zM5.344 10.537c0-.3.244-.546.544-.546h16.224c.3 0 .544.245.544.546v1.727c-.241.076-.5.111-.807.111-.816 0-1.188-.25-1.66-.565-.524-.352-1.118-.75-2.265-.75s-1.741.398-2.265.75c-.472.316-.844.565-1.66.565-.815 0-1.187-.25-1.658-.565-.525-.352-1.12-.75-2.266-.75s-1.74.398-2.265.75c-.471.316-.844.565-1.659.565-.306 0-.566-.035-.807-.111v-1.727zm1.973-4.604a1.137 1.137 0 0 1-.214-1.303l1.01-2.058 1.01 2.058a1.137 1.137 0 0 1-.463 1.491 1.124 1.124 0 0 1-1.343-.188zm5.886-.767a1.137 1.137 0 0 1-.213-1.303L14 1.805l1.01 2.058a1.137 1.137 0 0 1-.463 1.491 1.124 1.124 0 0 1-1.344-.188zm5.887.767a1.137 1.137 0 0 1-.214-1.303l1.01-2.058 1.011 2.058a1.137 1.137 0 0 1-.463 1.491 1.124 1.124 0 0 1-1.344-.188zM27.453 25.9H26.32v-8.292c0-.908-.734-1.646-1.637-1.646h-.934v-5.425c0-.907-.734-1.646-1.637-1.646h-1.678V7.295c.375-.095.73-.29 1.023-.584a2.24 2.24 0 0 0 .42-2.568l-1.5-3.057a.547.547 0 0 0-.98 0l-1.501 3.058a2.24 2.24 0 0 0 .42 2.567c.294.294.649.489 1.024.584V8.89h-4.793V6.528c.375-.096.73-.29 1.023-.585a2.24 2.24 0 0 0 .421-2.567L14.491.32a.547.547 0 0 0-.981 0l-1.501 3.057a2.24 2.24 0 0 0 .42 2.567c.294.295.649.49 1.024.585V8.89H8.66V7.297a2.204 2.204 0 0 0 1.023-.586 2.24 2.24 0 0 0 .421-2.567l-1.5-3.058a.547.547 0 0 0-.981 0l-1.5 3.058a2.241 2.241 0 0 0 .42 2.567c.287.288.64.488 1.023.586V8.89H5.888c-.903 0-1.637.739-1.637 1.647v5.424h-.934c-.903 0-1.637.738-1.637 1.646V25.9H.547a.548.548 0 0 0-.547.55c0 .304.245.55.547.55h26.906a.548.548 0 0 0 .547-.55.548.548 0 0 0-.547-.55z" fill="#0A090B" mask="url(#b)"/><path d="M4.798 25.192a.55.55 0 1 1 .303-1.008.556.556 0 0 1 .233.35.55.55 0 0 1-.536.658m5.877-1.645a.536.536 0 0 1-.304-.093.556.556 0 0 1-.2-.246.558.558 0 0 1 .05-.516.552.552 0 0 1 .347-.234.538.538 0 0 1 .494.15.59.59 0 0 1 .118.179.558.558 0 0 1-.05.516.59.59 0 0 1-.151.151.554.554 0 0 1-.304.093m6.323 1.645a.546.546 0 0 1-.505-.34.558.558 0 0 1 .05-.516.556.556 0 0 1 .348-.234.538.538 0 0 1 .494.15.58.58 0 0 1 .118.179.558.558 0 0 1-.05.516.55.55 0 0 1-.454.245m6.204-1.316a.54.54 0 0 1-.505-.34.558.558 0 0 1 .05-.515.55.55 0 0 1 .455-.245.55.55 0 0 1 0 1.1m-5.443-8.988a.536.536 0 0 1-.303-.093.524.524 0 0 1-.2-.247.558.558 0 0 1 .05-.516.526.526 0 0 1 .245-.202.55.55 0 0 1 .418 0 .554.554 0 0 1 .338.508.544.544 0 0 1-.244.457.554.554 0 0 1-.303.093m-7.141-.749a.541.541 0 0 1-.386-.162.62.62 0 0 1-.118-.178.558.558 0 0 1 .05-.516.587.587 0 0 1 .15-.152.58.58 0 0 1 .198-.082.538.538 0 0 1 .494.15.552.552 0 0 1-.387.94" fill="currentColor"/></g></svg>