<?xml version="1.0" encoding="UTF-8"?>
<svg viewBox="0 0 12 22" version="1.1" xmlns="http://www.w3.org/2000/svg" xmlns:xlink="http://www.w3.org/1999/xlink">
    <g stroke="none" stroke-width="1" fill="none" fill-rule="evenodd">
        <g transform="translate(-494.000000, -21.000000)" fill="currentColor">
            <g transform="translate(494.000000, 21.000000)">
                <path d="M1.04725,17 C-2.25,17 -5,14.2730372 -5,10.9965913 C-5,7.72696285 -2.25,5 1.04725,5 L12.601375,5 C15.018625,5 17,6.96477673 17,9.36177707 C17,11.7642313 15.018625,13.7235541 12.601375,13.7235541 L3.25,13.7235541 C1.708625,13.7235541 0.5,12.5264175 0.5,10.9965913 C0.5,9.47358255 1.708625,8.26962845 3.25,8.26962845 L10.6791842,8.26962845 C11.1325082,8.26962845 11.5,8.63712021 11.5,9.09044427 L11.5,9.09044427 C11.5,9.54376833 11.1325082,9.91126008 10.6791842,9.91126008 L3.25,9.91126008 C2.59,9.91126008 2.148625,10.3475741 2.148625,10.9965913 C2.148625,11.6524259 2.59,12.0887399 3.25,12.0887399 L12.601375,12.0887399 C14.14275,12.0887399 15.351375,10.8902397 15.351375,9.36177707 C15.351375,7.8333144 14.14275,6.63481423 12.601375,6.63481423 L1.04725,6.63481423 C-1.368625,6.63481423 -3.351375,8.60095444 -3.351375,10.9965913 C-3.351375,13.3990456 -1.368625,15.3651858 1.04725,15.3651858 L10.6825929,15.3651858 C11.1340344,15.3651858 11.5,15.7311514 11.5,16.1825929 L11.5,16.1825929 C11.5,16.6340344 11.1340344,17 10.6825929,17 L1.04725,17 Z" transform="translate(6.000000, 11.000000) rotate(-270.000000) translate(-6.000000, -11.000000) "></path>
            </g>
        </g>
    </g>
</svg>
