<svg viewBox="0 0 12 22" xmlns="http://www.w3.org/2000/svg"><path d="M0 6.047C0 2.75 2.727 0 6.003 0 9.273 0 12 2.75 12 6.047v11.554C12 20.02 10.035 22 7.638 22c-2.402 0-4.362-1.981-4.362-4.399V8.25c0-1.541 1.198-2.75 2.727-2.75 1.523 0 2.727 1.209 2.727 2.75v7.43a.82.82 0 0 1-1.642 0V8.25c0-.66-.436-1.101-1.085-1.101-.655 0-1.092.441-1.092 1.101v9.351c0 1.542 1.199 2.75 2.727 2.75 1.529 0 2.727-1.208 2.727-2.75V6.047c0-2.416-1.966-4.398-4.362-4.398-2.402 0-4.368 1.982-4.368 4.398v9.636a.817.817 0 1 1-1.635 0V6.047z" fill="currentColor" fill-rule="evenodd"/></svg>