<svg width="20" height="17" xmlns="http://www.w3.org/2000/svg"><g fill="currentColor" fill-rule="evenodd"><path d="M7.925 13.283c.37 0 .734-.04 1.103-.074v2.116c-.347.04-.711.063-1.103.074v-2.116zm3.31-.471v2.082c-.363.11-.732.201-1.104.272v-2.11c.386-.068.75-.148 1.103-.244zM1.124 9.896c0-.568.767-1.18 1.986-1.623.821 1.702 4.086 2.587 7.17 2.587 1.025 0-.378.632.63.432-.79.783-.482.867-3.52.867-3.872.006-6.266-1.327-6.266-2.263zm5.73 5.509c-.38 0-.744-.04-1.103-.074v-2.128c.364.04.728.063 1.103.074v2.128zm-2.206-.239a10.26 10.26 0 0 1-1.103-.272v-2.082c.353.096.717.176 1.103.244v2.11zm-2.206-.697c-.86-.426-1.34-.925-1.34-1.35v-1.39a6 6 0 0 0 1.335.72l.005 2.02zm1.544-8.465c.415.296.863.538 1.335.72v2.02c-.86-.426-1.335-.92-1.335-1.345V6.004zm3.53 1.327v2.11a10.26 10.26 0 0 1-1.103-.272V7.093c.37.096.756.176 1.109.244l-.006-.006zm2.206.227v2.116c-.38 0-.744-.04-1.103-.073V7.479c.368.041.736.07 1.103.085v-.006zm2.206-.074c-.474 1.453-.842 2.183-1.103 2.19v-2.11c.364-.011.756-.04 1.098-.085l.005.005zm-1.654-5.628c3.888 0 6.281 1.334 6.281 2.27 0 .936-2.388 2.27-6.281 2.27-3.894 0-6.282-1.334-6.282-2.27 0-.936 2.394-2.27 6.282-2.27zm2.99 13.69c-1.362.475-3.415.982-5.985.982-3.546 0-7.28-1.197-7.28-3.404V9.867c0-1.129 1.059-2.11 2.89-2.746V4.148c0-2.2 3.805-3.404 7.385-3.404 3.58 0 7.385 1.18 7.385 3.404v2.749a4.577 4.577 0 0 0-2.815-.97c-2.614 0-4.734 2.217-4.734 4.951 0 2.155 1.316 3.989 3.154 4.669z"/><path d="M14.845 14.715c2.012 0 3.65-1.714 3.65-3.837s-1.638-3.836-3.65-3.836-3.65 1.713-3.65 3.836c0 2.123 1.638 3.837 3.65 3.837zm0 1.114c-2.614 0-4.734-2.216-4.734-4.95 0-2.735 2.12-4.952 4.734-4.952s4.734 2.217 4.734 4.951c0 2.735-2.12 4.951-4.734 4.951z" fill-rule="nonzero"/><path d="M14.359 10.457V8.894a.544.544 0 0 1 1.087 0v1.563h1.343a.544.544 0 0 1 0 1.088h-1.343v1.52a.544.544 0 0 1-1.087 0v-1.52h-1.403a.544.544 0 0 1 0-1.088h1.403z"/></g></svg>