<svg width="23" height="18" xmlns="http://www.w3.org/2000/svg"><g fill="currentColor" fill-rule="evenodd"><path d="M9.014 13.829c.42 0 .834-.044 1.254-.082v2.331a15.3 15.3 0 0 1-1.254.081v-2.33zm3.764-.52v2.294a12.31 12.31 0 0 1-1.255.3V13.58c.44-.075.853-.163 1.255-.27zM1.28 10.1c0-.626.872-1.3 2.258-1.788.934 1.875 4.648 2.85 8.154 2.85 1.167 0-.428.695.717.475-.897.863-.547.955-4.004.955-4.403.007-7.125-1.462-7.125-2.493zm6.517 6.067c-.433 0-.847-.044-1.255-.082v-2.343c.414.044.828.069 1.255.081v2.344zm-2.51-.263a12.379 12.379 0 0 1-1.254-.3V13.31c.402.106.816.194 1.255.269v2.324zm-2.508-.768c-.979-.47-1.524-1.019-1.524-1.488v-1.53c.47.326.98.592 1.518.793l.006 2.225zM4.535 5.81c.471.327.981.593 1.518.794V8.83c-.978-.47-1.518-1.013-1.518-1.481V5.81zM8.55 7.274v2.324a12.426 12.426 0 0 1-1.255-.3V7.011c.42.106.86.194 1.261.269l-.006-.006zm2.509.25v2.33c-.433 0-.847-.043-1.255-.08V7.435c.418.046.837.077 1.255.094v-.006zm2.509-.082c-.54 1.6-.958 2.404-1.255 2.412V7.53c.414-.013.86-.044 1.249-.094l.006.006zm-1.882-6.198c4.422 0 7.145 1.468 7.145 2.499 0 1.031-2.716 2.5-7.145 2.5-4.428 0-7.145-1.469-7.145-2.5s2.723-2.5 7.145-2.5zm3.401 15.078c-1.55.522-3.884 1.08-6.807 1.08-4.033 0-8.28-1.318-8.28-3.748v-3.587c0-1.244 1.204-2.325 3.287-3.025V3.768c0-2.425 4.328-3.75 8.4-3.75 4.07 0 8.398 1.3 8.398 3.75v3.027a5.315 5.315 0 0 0-3.2-1.068c-2.974 0-5.385 2.442-5.385 5.453a5.451 5.451 0 0 0 3.587 5.142z"/><path d="M16.884 15.406c2.289 0 4.152-1.887 4.152-4.226 0-2.338-1.863-4.225-4.152-4.225-2.288 0-4.152 1.887-4.152 4.225 0 2.339 1.864 4.226 4.152 4.226zm0 1.227c-2.973 0-5.384-2.441-5.384-5.453 0-3.011 2.41-5.453 5.384-5.453s5.384 2.442 5.384 5.453c0 3.012-2.41 5.453-5.384 5.453z" fill-rule="nonzero"/><path d="M16.35 10.717V8.9a.599.599 0 0 1 1.199 0v1.816h1.566a.599.599 0 0 1 0 1.198H17.55v1.769a.599.599 0 1 1-1.198 0v-1.77h-1.635a.599.599 0 0 1 0-1.197h1.635z"/></g></svg>