<svg viewBox="0 0 20 19" xmlns="http://www.w3.org/2000/svg"><g fill="currentColor" fill-rule="evenodd"><path d="M9.655 6.786H4.138c-.414 0-.69-.272-.69-.679 0-.407.276-.678.69-.678h5.517c.414 0 .69.271.69.678 0 .407-.276.679-.69.679zm1.38 2.714H4.137c-.414 0-.69-.271-.69-.679 0-.407.276-.678.69-.678h6.896c.414 0 .69.271.69.678 0 .408-.276.679-.69.679zm1.379 2.714H4.138c-.414 0-.69-.271-.69-.678 0-.407.276-.679.69-.679h8.276c.414 0 .69.272.69.679 0 .407-.276.678-.69.678z" fill-rule="nonzero"/><path d="M11.901 18.617a.65.65 0 0 1-.41-.142l-4.3-3.465H1.549c-.85 0-1.549-.7-1.549-1.553V4.251c0-.85.7-1.527 1.549-1.527H13.01c.33 0-1.265 1.404.38 3.188 1.646 1.784 3.162.757 3.162 1.242v6.304c0 .852-.696 1.552-1.554 1.552h-2.457v2.973a.63.63 0 0 1-.367.573.642.642 0 0 1-.273.06zM1.55 3.99a.25.25 0 0 0-.248.26v9.207c0 .152.114.287.248.287h5.874a.65.65 0 0 1 .408.14l3.419 2.757v-2.27c0-.35.294-.627.651-.627h3.097c.138 0 .262-.14.262-.287v-6.44c0-.434-1.512.089-2.108-.994-.597-1.082-.145-2.033-.465-2.033H1.549z" fill-rule="nonzero"/><path d="M15.759 7.94c-2.229 0-4.035-1.778-4.035-3.97C11.724 1.777 13.53 0 15.76 0c2.228 0 4.034 1.777 4.034 3.97 0 2.192-1.806 3.97-4.034 3.97zm0-1.154c1.58 0 2.862-1.261 2.862-2.816 0-1.556-1.282-2.816-2.862-2.816-1.581 0-2.862 1.26-2.862 2.816 0 1.555 1.28 2.816 2.862 2.816z" fill-rule="nonzero"/><path d="M16.282 3.086v.54H14.61a.444.444 0 1 0 0 .888h1.673v.543c0 .02.014.037.036.045a.066.066 0 0 0 .063-.01l1.16-.984a.046.046 0 0 0 .017-.035.046.046 0 0 0-.016-.035l-1.16-.987a.065.065 0 0 0-.064-.01c-.022.007-.036.025-.036.045z"/></g></svg>