<svg width="18" height="18" xmlns="http://www.w3.org/2000/svg" xmlns:xlink="http://www.w3.org/1999/xlink"><defs><path d="M16.463 15.695a.674.674 0 0 1-.673.674h-1.01a.674.674 0 0 1-.674-.674v-6.87c0-.371.302-.673.674-.673h1.01c.371 0 .673.302.673.673v6.87zm-.673-8.89h-1.01c-.22 0-.43.035-.629.1l-3.325-5.178-.434-.61-.037-.037a2.023 2.023 0 0 0-3.354 2.07l.014.04.019.039c.105.215.218.44.338.679.302.6.8 1.593.875 1.891-.049.353-.52.568-.857.568H2.96c-1.059 0-1.92.861-1.92 1.92 0 .348.095.685.269.977-.457.355-.74.907-.74 1.515a1.949 1.949 0 0 0 .76 1.545c-.163.284-.253.61-.253.947 0 .73.412 1.366 1.018 1.69a1.812 1.812 0 0 0-.179.782c0 1.143.81 1.973 1.927 1.973h6.593a.674.674 0 1 0 0-1.347H3.842c-.523 0-.58-.438-.58-.626 0-.278.235-.429.307-.468.378-.209.434-.508.434-.668 0-.428-.37-.764-.842-.764H3.01a.58.58 0 0 1-.587-.572c0-.201.112-.39.292-.494l.032-.018c.297-.16.448-.392.448-.686 0-.255-.17-.694-.805-.728-.257-.014-.475-.273-.475-.566a.58.58 0 0 1 .435-.556c.405-.102.677-.42.677-.792 0-.183-.068-.45-.39-.673a.573.573 0 0 1 .323-1.043l4.43-.001c1.026 0 2.162-.729 2.207-1.906v-.026c0-.405-.295-1.034-1.021-2.479-.11-.219-.215-.426-.312-.623a.675.675 0 0 1 1.098-.687l.34.476 3.38 5.263a2.009 2.009 0 0 0-.323 1.093v6.87c0 1.114.907 2.02 2.02 2.02h1.011c1.114 0 2.02-.906 2.02-2.02v-6.87c0-1.114-.906-2.02-2.02-2.02z" id="a"/></defs><use fill="currentColor" transform="matrix(1 0 0 -1 0 18.19)" xlink:href="#a" fill-rule="evenodd"/></svg>