<svg width="25" height="29" xmlns="http://www.w3.org/2000/svg"><g fill="currentColor" fill-rule="evenodd"><path d="M19.139 9c.28 0 .505.224.505.5s-.226.5-.505.5a.503.503 0 0 1-.506-.5c0-.276.227-.5.506-.5"/><path d="M13.866 4.152c-.325-1.008-.032-2.51.132-3.185 1.464.61 2.107 2.448 2.356 3.466l.004.016c.023.095.043.183.06.261-.589.077-1.691.103-2.552-.558zm10.341 8.65l-2.33-1.722c.118-1.207-.248-3.554-1.515-4.743-1.013-.951-2.086-1.728-3.191-2.311-.339-1.258-1.178-3.364-3.087-3.991a.698.698 0 0 0-.896.493 10.81 10.81 0 0 0-.353 2.222 9.783 9.783 0 0 0-.802-.028c-2.312.016-4.45.726-6.358 2.111a.458.458 0 0 0-.103.632.443.443 0 0 0 .622.105c1.754-1.274 3.72-1.927 5.845-1.941.273-.003.548.009.822.031.032.297.09.585.183.85a.708.708 0 0 0 .224.319c.829.665 1.811.825 2.565.825.387 0 .714-.042.928-.08a.698.698 0 0 0 .535-.443c.847.504 1.672 1.13 2.46 1.871 1.059.993 1.386 3.31 1.204 4.19a.457.457 0 0 0 .174.46l2.548 1.883c.08.06.126.15.126.252 0 .044-.01.11-.053.175a.3.3 0 0 1-.404.09l-1.167-.705a.442.442 0 0 0-.612.158.457.457 0 0 0 .156.621l1.167.705c.19.114.4.169.607.169.381 0 .756-.185.986-.523a1.227 1.227 0 0 0-.281-1.674z"/><path d="M11.347 12.303c-.358.54-.959.817-1.837.848-.062-.011-.264-.058-.338-.2-.086-.164-.02-.486.182-.882.39-.764.595-1.634.776-2.402.105-.447.205-.87.32-1.165.118-.3.203-.34.204-.341.13-.036.246-.054.344-.054a.41.41 0 0 1 .225.052c.073.047.096.13.1.154.003.04.01.06.025.1.251.702.741 2.77-.001 3.89zM5.025 28.089a.572.572 0 0 1-.332-.183c-.618-.637-.754-2.614-.697-4.186a10.626 10.626 0 0 0 2.122 1.593c-.381.497-.9 1.396-1.093 2.776zm14.382-16.761c-2.434-1.3-4.752-1.942-6.898-1.913a8.805 8.805 0 0 0-.318-1.273 1.169 1.169 0 0 0-.463-.726c-.332-.232-.771-.276-1.304-.128-.686.19-.892 1.062-1.153 2.167-.049.207-.1.423-.156.64-1.117.467-1.839 1.053-2.179 1.372-1.228 1.148-2.048 2.764-2.371 4.675-.29 1.72-.18 3.633.32 5.53.208.793.484 1.572.815 2.307a9.703 9.703 0 0 1-1.743-1.606C-.008 17.71.831 10.4 4.063 6.756a.46.46 0 0 0-.03-.639.435.435 0 0 0-.624.031C1.596 8.192.513 11.175.438 14.333c-.078 3.238.89 6.242 2.728 8.484-.08.95-.293 4.497.9 5.727a1.437 1.437 0 0 0 1.208.448.683.683 0 0 0 .604-.608c.227-1.981 1.193-2.81 1.231-2.842l.007-.006a.441.441 0 0 0 .035-.033l.008-.009.003-.003.012-.015c.008-.01.017-.02.025-.032.749-1.115 1.772-1.488 2.449-1.735.482-.176.862-.315.93-.72.066-.396-.275-.678-.403-.785a4.812 4.812 0 0 0-1.169-.713.438.438 0 0 0-.579.241c-.095.23.01.495.235.592.302.13.58.292.83.482l-.141.051c-.628.23-1.617.591-2.46 1.533a13.579 13.579 0 0 1-1.013-2.456 6.7 6.7 0 0 1 .593-.026.447.447 0 0 0 .442-.452.447.447 0 0 0-.442-.452c-.331 0-.616.021-.83.045-.673-2.911-.513-6.668 1.891-8.915a6.028 6.028 0 0 1 1.21-.861 4.82 4.82 0 0 1-.171.378c-.357.702-.415 1.287-.171 1.74.314.584.976.657 1.05.663a.415.415 0 0 0 .05.002c1.184-.033 2.052-.452 2.578-1.245.482-.728.583-1.654.536-2.493 1.972-.007 4.117.601 6.384 1.811a.44.44 0 0 0 .596-.192.457.457 0 0 0-.187-.61z"/></g></svg>