<svg width="23" height="23" xmlns="http://www.w3.org/2000/svg"><g fill="currentColor" fill-rule="evenodd"><path d="M16.319 23H6.68A6.689 6.689 0 0 1 0 16.319V6.68A6.689 6.689 0 0 1 6.681 0h9.638A6.689 6.689 0 0 1 23 6.681v8.727a.898.898 0 1 1-1.797 0V6.681a4.89 4.89 0 0 0-4.884-4.884H6.68A4.89 4.89 0 0 0 1.797 6.68v9.638a4.89 4.89 0 0 0 4.884 4.884h9.638a4.85 4.85 0 0 0 3.894-1.935.898.898 0 1 1 1.431 1.086 6.74 6.74 0 0 1-2.304 1.925 6.61 6.61 0 0 1-3.02.722"/><path d="M11.5 7.098A4.407 4.407 0 0 0 7.098 11.5a4.407 4.407 0 0 0 4.402 4.402 4.407 4.407 0 0 0 4.402-4.402A4.407 4.407 0 0 0 11.5 7.098zm0 10.601c-3.418 0-6.2-2.78-6.2-6.199 0-3.418 2.782-6.2 6.2-6.2s6.2 2.782 6.2 6.2-2.782 6.2-6.2 6.2zm6.29-13.386a.898.898 0 1 1 0 1.796.898.898 0 0 1 0-1.796"/></g></svg>