<svg viewBox="0 0 14 14" xmlns="http://www.w3.org/2000/svg"><path d="M1.05 14a1.05 1.05 0 1 1 0-2.1 1.05 1.05 0 0 1 0 2.1zm0-5.95a1.05 1.05 0 1 1 0-2.1 1.05 1.05 0 0 1 0 2.1zm0-5.95a1.05 1.05 0 1 1 0-2.1 1.05 1.05 0 0 1 0 2.1zM7 14a1.05 1.05 0 1 1 0-2.1A1.05 1.05 0 0 1 7 14zm0-5.95a1.05 1.05 0 1 1 0-2.1 1.05 1.05 0 0 1 0 2.1zM7 2.1A1.05 1.05 0 1 1 7 0a1.05 1.05 0 0 1 0 2.1zM12.95 14a1.05 1.05 0 1 1 0-2.1 1.05 1.05 0 0 1 0 2.1zm0-5.95a1.05 1.05 0 1 1 0-2.1 1.05 1.05 0 0 1 0 2.1zm0-5.95a1.05 1.05 0 1 1 0-2.1 1.05 1.05 0 0 1 0 2.1z" fill="currentColor" fill-rule="evenodd"/></svg>
