<?xml version="1.0" encoding="UTF-8"?>
<svg viewBox="0 0 20 20" version="1.1" xmlns="http://www.w3.org/2000/svg" xmlns:xlink="http://www.w3.org/1999/xlink">
    <g stroke="none" stroke-width="1" fill="currentColor" fill-rule="evenodd">
        <path d="M1.5,20 C0.671572875,20 0,19.3284271 0,18.5 C0,17.6715729 0.671572875,17 1.5,17 C2.32842712,17 3,17.6715729 3,18.5 C3,19.3284271 2.32842712,20 1.5,20 Z M1.5,11 C0.671572875,11 0,10.3284271 0,9.5 C0,8.67157288 0.671572875,8 1.5,8 C2.32842712,8 3,8.67157288 3,9.5 C3,10.3284271 2.32842712,11 1.5,11 Z M1.5,3 C0.671572875,3 0,2.32842712 0,1.5 C0,0.671572875 0.671572875,0 1.5,0 C2.32842712,0 3,0.671572875 3,1.5 C3,2.32842712 2.32842712,3 1.5,3 Z M9.5,20 C8.67157288,20 8,19.3284271 8,18.5 C8,17.6715729 8.67157288,17 9.5,17 C10.3284271,17 11,17.6715729 11,18.5 C11,19.3284271 10.3284271,20 9.5,20 Z M9.5,11 C8.67157288,11 8,10.3284271 8,9.5 C8,8.67157288 8.67157288,8 9.5,8 C10.3284271,8 11,8.67157288 11,9.5 C11,10.3284271 10.3284271,11 9.5,11 Z M9.5,3 C8.67157288,3 8,2.32842712 8,1.5 C8,0.671572875 8.67157288,0 9.5,0 C10.3284271,0 11,0.671572875 11,1.5 C11,2.32842712 10.3284271,3 9.5,3 Z M18.5,20 C17.6715729,20 17,19.3284271 17,18.5 C17,17.6715729 17.6715729,17 18.5,17 C19.3284271,17 20,17.6715729 20,18.5 C20,19.3284271 19.3284271,20 18.5,20 Z M18.5,11 C17.6715729,11 17,10.3284271 17,9.5 C17,8.67157288 17.6715729,8 18.5,8 C19.3284271,8 20,8.67157288 20,9.5 C20,10.3284271 19.3284271,11 18.5,11 Z M18.5,3 C17.6715729,3 17,2.32842712 17,1.5 C17,0.671572875 17.6715729,0 18.5,0 C19.3284271,0 20,0.671572875 20,1.5 C20,2.32842712 19.3284271,3 18.5,3 Z"></path>
    </g>
</svg>
