<?xml version="1.0" encoding="UTF-8"?>
<svg viewBox="0 0 20 20" version="1.1" xmlns="http://www.w3.org/2000/svg" xmlns:xlink="http://www.w3.org/1999/xlink">
    <g id="Symbols" stroke="none" stroke-width="1" fill="none" fill-rule="evenodd">
        <g id="Rectangle-5" transform="translate(-1143.000000, -15.000000)" fill="currentColor" fill-rule="nonzero">
            <g id="Group-2" transform="translate(1094.000000, 15.000000)">
                <path d="M49.8333333,1.66666667 C49.373096,1.66666667 49,1.29357062 49,0.833333333 C49,0.373096042 49.373096,-2.64780836e-17 49.8333333,-1.11022302e-16 L68.1666667,-2.33146835e-15 C68.626904,-3.72148419e-16 69,0.373096042 69,0.833333333 C69,1.29357062 68.626904,1.66666667 68.1666667,1.66666667 L49.8333333,1.66666667 Z M49.8333333,10.8333333 C49.373096,10.8333333 49,10.4602373 49,10 C49,9.53976271 49.373096,9.16666667 49.8333333,9.16666667 L68.1666667,9.16666667 C68.626904,9.16666667 69,9.53976271 69,10 C69,10.4602373 68.626904,10.8333333 68.1666667,10.8333333 L49.8333333,10.8333333 Z M49.8333333,20 C49.373096,20 49,19.626904 49,19.1666667 C49,18.7064294 49.373096,18.3333333 49.8333333,18.3333333 L68.1666667,18.3333333 C68.626904,18.3333333 69,18.7064294 69,19.1666667 C69,19.626904 68.626904,20 68.1666667,20 L49.8333333,20 Z" id="ic_llist_normal"></path>
            </g>
        </g>
    </g>
</svg>
