<?xml version="1.0" encoding="UTF-8"?>
<svg viewBox="0 0 20 20" version="1.1" xmlns="http://www.w3.org/2000/svg" xmlns:xlink="http://www.w3.org/1999/xlink">
    <g stroke="none" stroke-width="1" fill="none" fill-rule="evenodd">
        <g transform="translate(0.000000, -2.000000)" fill="currentColor">
            <path d="M18.4375,19.65625 C18.4375,20.0870313 18.0870313,20.4375 17.65625,20.4375 L16.484375,20.4375 C16.0535938,20.4375 15.703125,20.0870313 15.703125,19.65625 L15.703125,11.6875 C15.703125,11.2567187 16.0535938,10.90625 16.484375,10.90625 L17.65625,10.90625 C18.0870313,10.90625 18.4375,11.2567187 18.4375,11.6875 L18.4375,19.65625 Z M17.65625,9.34375 L16.484375,9.34375 C16.2299609,9.34375 15.9849219,9.38449219 15.7553516,9.45980469 L11.8983203,3.45382813 L11.3948828,2.74664062 L11.3521875,2.703125 C10.9077734,2.2496875 10.3133594,2 9.67847656,2 C8.38613281,2 7.33472656,3.05140625 7.33472656,4.34375 C7.33472656,4.60417969 7.37738281,4.86039062 7.46144531,5.10527344 L7.47742188,5.15183594 L7.49917969,5.19605469 C7.62191406,5.44585937 7.75308594,5.70703125 7.89195312,5.98347656 C8.24207031,6.68054688 8.82011719,7.83136719 8.90671875,8.17730469 C8.85035156,8.58671875 8.30296875,8.8359375 7.91304688,8.8359375 L2.7734375,8.8359375 C1.54570312,8.8359375 0.546875,9.83476562 0.546875,11.0625 C0.546875,11.4666797 0.657421875,11.8571875 0.858671875,12.1961328 C0.329257813,12.6081641 0,13.2489844 0,13.953125 C0,14.5060937 0.20203125,15.0387891 0.568867187,15.4530469 C0.665390625,15.5620703 0.770585938,15.6598047 0.882851562,15.7455078 C0.693359375,16.0757813 0.588515625,16.4534766 0.588515625,16.84375 C0.588515625,17.6905078 1.06722656,18.4283984 1.77003906,18.8048437 C1.63554687,19.08625 1.5625,19.3950391 1.5625,19.7120703 C1.5625,21.0377734 2.50242188,22 3.79742187,22 L11.4453125,22 C11.8767969,22 12.2265625,21.6502344 12.2265625,21.21875 C12.2265625,20.7872656 11.8767969,20.4375 11.4453125,20.4375 L3.79742187,20.4375 C3.19054687,20.4375 3.125,19.9301953 3.125,19.7120703 C3.125,19.3897266 3.39726563,19.2144531 3.48066406,19.1684375 C3.91894531,18.9266797 3.984375,18.5793359 3.984375,18.3938281 C3.984375,17.8969922 3.55542969,17.5078125 3.0078125,17.5078125 L2.83160156,17.5078125 C2.45632812,17.5078125 2.15101563,17.2099219 2.15101563,16.84375 C2.15101563,16.6107031 2.28085937,16.3911328 2.48984375,16.2707812 C2.50308594,16.2631641 2.51539063,16.2566016 2.5265625,16.2505859 C2.87183594,16.0641016 3.046875,15.7961328 3.046875,15.4541016 C3.046875,15.1592969 2.85007813,14.6496875 2.1125,14.6098828 C1.814375,14.59375 1.5625,14.2930078 1.5625,13.953125 C1.5625,13.6534375 1.77429688,13.3824609 2.06609375,13.3088672 C2.53589844,13.1903516 2.8515625,12.8213281 2.8515625,12.390625 C2.8515625,12.1773828 2.77292969,11.8686719 2.3984375,11.6088281 C2.21746094,11.4832422 2.109375,11.2790234 2.109375,11.0625 C2.109375,10.6963281 2.40726562,10.3984375 2.7734375,10.3984375 L7.91304688,10.3984375 C9.10332031,10.3984375 10.4202734,9.55300781 10.4723828,8.18722656 L10.4729687,8.15742188 C10.4729687,7.68769531 10.1301172,6.95832031 9.28820312,5.2821875 C9.16058594,5.028125 9.03957031,4.7871875 8.92703125,4.55878906 C8.90722656,4.489375 8.89722656,4.41722656 8.89722656,4.34375 C8.89722656,3.91296875 9.24769531,3.5625 9.67847656,3.5625 C9.87308594,3.5625 10.0563281,3.63289062 10.1997656,3.76175781 L10.5939453,4.31421875 L14.5144141,10.4189453 C14.2779688,10.7848047 14.140625,11.2204297 14.140625,11.6875 L14.140625,19.65625 C14.140625,20.9485938 15.1920312,22 16.484375,22 L17.65625,22 C18.9485938,22 20,20.9485938 20,19.65625 L20,11.6875 C20,10.3951562 18.9485938,9.34375 17.65625,9.34375 Z"></path>
        </g>
    </g>
</svg>
