<svg width="16" height="21" xmlns="http://www.w3.org/2000/svg"><g fill="currentColor" fill-rule="evenodd"><path d="M15.226 7.152h-1.51V4.058C13.716 1.82 11.876 0 9.614 0H6.38c-2.26 0-4.1 1.82-4.1 4.058v3.094H.77a.764.764 0 0 0-.769.76v7.432c0 3.102 2.551 5.625 5.687 5.625h4.622c3.135 0 5.686-2.523 5.686-5.625V7.913a.765.765 0 0 0-.769-.761zM3.818 4.058c0-1.399 1.15-2.536 2.564-2.536h3.232c1.414 0 2.564 1.137 2.564 2.536v3.094h-8.36V4.058zm10.639 11.286c0 2.263-1.861 4.103-4.148 4.103H5.687c-2.288 0-4.149-1.84-4.149-4.103v-6.67h12.919v6.67z"/><path d="M11.065 10.893a.256.256 0 0 0-.186-.077.257.257 0 0 0-.185.077l-.537.524a3.206 3.206 0 0 0-1.012-.636 3.16 3.16 0 0 0-1.173-.226c-.757 0-1.418.226-1.983.677A3.165 3.165 0 0 0 4.874 13v.028c0 .035.013.066.04.092a.127.127 0 0 0 .092.038h.822c.06 0 .102-.031.124-.093.116-.271.189-.43.22-.476a2.103 2.103 0 0 1 1.8-.992 2.07 2.07 0 0 1 1.441.557l-.57.561a.248.248 0 0 0-.078.183c0 .07.026.132.078.183a.255.255 0 0 0 .186.077h1.85a.255.255 0 0 0 .186-.077.248.248 0 0 0 .079-.183v-1.821a.247.247 0 0 0-.079-.183zm-.157 3.305h-.793c-.06 0-.102.031-.123.094-.116.27-.189.43-.22.475a2.105 2.105 0 0 1-1.8.992 2.135 2.135 0 0 1-1.437-.561l.566-.557a.249.249 0 0 0 .078-.183.248.248 0 0 0-.078-.183.255.255 0 0 0-.186-.077h-1.85a.255.255 0 0 0-.187.077.248.248 0 0 0-.078.183v1.822c0 .07.026.131.078.183a.257.257 0 0 0 .186.077.257.257 0 0 0 .186-.077l.533-.525c.295.277.63.49 1.006.638.376.15.764.224 1.166.224.755 0 1.413-.225 1.975-.677a3.154 3.154 0 0 0 1.11-1.795.123.123 0 0 0-.039-.091.128.128 0 0 0-.093-.039z"/></g></svg>