<svg viewBox="0 0 15 20" xmlns="http://www.w3.org/2000/svg"><g fill="currentColor" fill-rule="evenodd"><path d="M14.274 6.84H12.86V3.895C12.86 1.764 11.135.03 9.014.03h-3.03c-2.12 0-3.846 1.734-3.846 3.865V6.84H.721A.723.723 0 0 0 0 7.565v7.078C0 17.597 2.392 20 5.331 20h4.333c2.94 0 5.332-2.403 5.332-5.357V7.565c0-.4-.323-.724-.722-.724zM3.58 3.895A2.412 2.412 0 0 1 5.984 1.48h3.03a2.412 2.412 0 0 1 2.404 2.415V6.84H3.579V3.894zm9.974 10.749c0 2.155-1.744 3.908-3.889 3.908H5.331c-2.144 0-3.889-1.753-3.889-3.908V8.29h12.111v6.353z"/><path d="M6.777 16.145c0 .4.322.725.72.725a.723.723 0 0 0 .722-.725v-2.07a.723.723 0 0 0-.584-1.148H7.36a.723.723 0 0 0-.584 1.149v2.069z"/></g></svg>