<svg viewBox="0 0 20 21" xmlns="http://www.w3.org/2000/svg"><g fill="currentColor"><path d="M8.743 7.87c1.52-.607 2.581-2.074 2.581-3.78C11.337 1.837 9.46 0 7.163 0c-2.31 0-4.187 1.837-4.187 4.09 0 .763.496 1.715 1.489 2.856a.243.243 0 0 1-.093.385l-1.476.595a.243.243 0 0 0 .063.466c2.586.302 4.514.128 5.784-.521z"/><path d="M18.16 12.831c-1.319-.457-2.97-.293-4.955.493a.097.097 0 0 1-.11-.152c1.53-1.871 2.28-4.171 2.25-6.9-.013-1.547-.389-2.847-1.129-3.901a.46.46 0 0 0-.835.264c0 4.58-2.94 7.656-7.67 7.656-1.017 0-2.628-.407-4.832-1.22a.486.486 0 0 0-.516.797c.457.467.86.866 1.212 1.198.4.38.876.811 1.53 1.157 2.125 1.109 3.755 1.24 3.916 1.252.024 2.326-1.63 5.581-3.977 5.581a4.93 4.93 0 0 1-1.037-.12 4.497 4.497 0 0 1-.526-.134.486.486 0 0 0-.573.703c.471.828 1.331 1.299 2.58 1.412 2.903.262 4.237-.346 7.114-2.04 3.075-1.812 5.41-3.732 7.2-3.255.5.131.839.638 1.016 1.519a.486.486 0 0 0 .948.025 8.6 8.6 0 0 0 .148-.65c.123-.763.345-2.957-1.754-3.685z"/><path d="M7.452 1.662c.846 0 1.608.446 2.12 1.142.117.122.224.142.321.059.098-.083.098-.21 0-.38-.595-.793-1.476-1.308-2.44-1.308-.68 0-1.31.25-1.835.668-.155.13-.2.252-.135.368.065.115.19.127.374.036.452-.362 1-.585 1.595-.585z" stroke="#FFF" stroke-width=".5" fill="#FFF"/></g></svg>