<svg width="16" height="20" viewBox="0 0 16 20" xmlns="http://www.w3.org/2000/svg"><g fill="currentColor" fill-rule="evenodd"><path d="M3.789 10.25c.435 0 .788.35.788.781a.785.785 0 0 1-.788.781.785.785 0 0 1-.789-.78c0-.432.353-.782.789-.782zm0-6.25c.435 0 .788.35.788.781a.785.785 0 0 1-.788.782A.785.785 0 0 1 3 4.78c0-.43.353-.78.789-.78zm8.042 0c.436 0 .789.35.789.781a.785.785 0 0 1-.789.782H6.864a.785.785 0 0 1-.789-.782c0-.431.353-.781.789-.781h4.967zM3.79 7.125c.435 0 .788.35.788.781a.785.785 0 0 1-.788.782.785.785 0 0 1-.79-.783c0-.431.353-.781.789-.781zm8.83 3.906a.785.785 0 0 1-.788.781H6.864a.785.785 0 0 1-.789-.78c0-.432.353-.782.789-.782h4.967c.436 0 .789.35.789.781zM3.79 13.25c.435 0 .788.35.788.781a.785.785 0 0 1-.788.782.785.785 0 0 1-.79-.783c0-.431.353-.781.789-.781zm8.83.781a.785.785 0 0 1-.788.782H6.864a.785.785 0 0 1-.789-.782c0-.431.353-.781.789-.781h4.967c.436 0 .789.35.789.781zm0-6.125a.785.785 0 0 1-.788.782H6.864a.785.785 0 0 1-.789-.782c0-.431.353-.781.789-.781h4.967c.436 0 .789.35.789.781z"/><path d="M2 1.75a.25.25 0 0 0-.25.25v16c0 .138.112.25.25.25h12.073a.25.25 0 0 0 .25-.25V2a.25.25 0 0 0-.25-.25H2zm0-1.5h12.073c.967 0 1.75.784 1.75 1.75v16a1.75 1.75 0 0 1-1.75 1.75H2A1.75 1.75 0 0 1 .25 18V2C.25 1.034 1.034.25 2 .25z" fill-rule="nonzero"/></g></svg>