<svg viewBox="0 0 16 16" xmlns="http://www.w3.org/2000/svg"><path fill="currentColor" d="M14.18 4.58l-.187.186-2.76-2.759.186-.185a1.938 1.938 0 0 1 1.38-.572c.52 0 1.01.203 1.38.572.368.368.571.858.571 1.38 0 .52-.203 1.01-.57 1.378zm-9.7 9.05l-2.955.84.827-2.974L4.48 13.63zM15.062.938A3.18 3.18 0 0 0 12.8 0a3.18 3.18 0 0 0-2.264.938L1.588 9.884a.625.625 0 0 0-.16.275L.023 15.207a.625.625 0 0 0 .773.77l5.048-1.435a.625.625 0 0 0 .272-1.042l-3.183-3.193 7.416-7.416 2.759 2.758-5.678 5.662a.625.625 0 0 0 .883.885l6.75-6.731A3.18 3.18 0 0 0 16 3.201a3.18 3.18 0 0 0-.938-2.263z" fill-rule="evenodd"/></svg>