<svg width="20" height="20" xmlns="http://www.w3.org/2000/svg"><g fill="currentColor" fill-rule="evenodd"><path d="M14.922 8.351V.833A.831.831 0 0 0 14.09 0H.833A.831.831 0 0 0 0 .833v13.293a.83.83 0 0 0 .833.833h7.559C8.788 17.804 11.224 20 14.167 20 17.384 20 20 17.375 20 14.151a5.852 5.852 0 0 0-5.078-5.8zM1.665 1.665h11.588V6.05l-2.788-2.5a.829.829 0 0 0-1.273.2L6.437 8.46l-.808-1.4c-.192-.396-.996-.681-1.42-.037l-2.54 3.931v-9.29h-.004zm.47 11.629L4.86 9.078l2.437 4.216H2.135zm5.257-3.172l2.718-4.648 3.139 2.902a5.854 5.854 0 0 0-4.612 3.902l-1.245-2.156zm6.771 8.213c-2.298 0-4.167-1.878-4.167-4.184v-.025c.012-2.293 1.877-4.159 4.167-4.159 2.298 0 4.168 1.878 4.168 4.18 0 2.31-1.87 4.188-4.168 4.188z"/><path d="M16.5 13.5h-1.333v-1.333a.832.832 0 0 0-.834-.834.832.832 0 0 0-.834.834V13.5h-1.332a.832.832 0 0 0-.834.834c0 .462.372.834.834.834H13.5V16.5c0 .462.373.833.834.833a.832.832 0 0 0 .834-.833v-1.333H16.5a.832.832 0 0 0 .833-.834.832.832 0 0 0-.833-.834zM6 4.333a1 1 0 1 1-2 0 1 1 0 0 1 2 0z"/></g></svg>