<svg viewBox="0 0 24 24" xmlns="http://www.w3.org/2000/svg"><path d="M23.694 8.068L15.964.29a.834.834 0 0 0-1.19 0l-2.282 2.295a.846.846 0 0 0-.247.6c0 .226.088.44.247.6l.333.333-5.704 5.74L.913 11.4a.85.85 0 0 0-.394 1.422l4.661 4.691-4.933 4.964a.845.845 0 0 0-.247.6.846.846 0 0 0 .843.848.835.835 0 0 0 .596-.248l4.933-4.965 4.662 4.691c.212.214.523.3.823.217a.846.846 0 0 0 .591-.613l1.533-6.247 5.703-5.739.538.541a.836.836 0 0 0 1.192 0l2.28-2.295a.853.853 0 0 0 0-1.2zM11.17 21.142l-8.403-8.456 4.525-1.125 4.995 5.028-1.117 4.553zm2.049-6.013l-4.476-4.505 5.273-5.307 4.477 4.505-5.274 5.307zm7.599-5.365l-6.538-6.58 1.089-1.095 6.538 6.578-1.09 1.097z" fill="currentColor" fill-rule="evenodd"/></svg>
