<svg width="14" height="13" xmlns="http://www.w3.org/2000/svg"><g fill="currentColor" fill-rule="evenodd"><path d="M6.759 4.815H2.897c-.29 0-.483-.193-.483-.482s.193-.481.483-.481h3.862c.29 0 .482.192.482.481 0 .29-.193.482-.482.482zm.965 1.926H2.897c-.29 0-.483-.193-.483-.482s.193-.481.483-.481h4.827c.29 0 .483.192.483.481 0 .29-.193.482-.483.482zm.966 1.926H2.897c-.29 0-.483-.193-.483-.482s.193-.481.483-.481H8.69c.29 0 .482.192.482.481 0 .29-.193.482-.482.482z" fill-rule="nonzero"/><path d="M8.33 13a.457.457 0 0 1-.287-.099l-3.01-2.414H1.085A1.088 1.088 0 0 1 0 9.405V2.99c0-.592.49-1.064 1.084-1.064h7.947c-.256 1.031-.16 1.804.289 2.319.45.514 1.204.703 2.266.566v4.594c0 .595-.487 1.082-1.087 1.082h-1.72v2.071a.44.44 0 0 1-.257.4.451.451 0 0 1-.192.042zM1.085 2.808a.175.175 0 0 0-.173.182v6.415c0 .106.08.2.173.2h4.112a.45.45 0 0 1 .285.098l2.394 1.92v-1.581c0-.244.206-.437.456-.437H10.5c.096 0 .183-.098.183-.2V5.14c0-.363-1.086-.223-1.562-.72-.461-.484-.307-1.61-.639-1.61H1.084z" fill-rule="nonzero"/><path d="M11.103 5.778a2.893 2.893 0 0 1-2.896-2.89A2.893 2.893 0 0 1 11.103 0C12.703 0 14 1.293 14 2.889a2.893 2.893 0 0 1-2.897 2.889zm0-.84a2.052 2.052 0 0 0 2.055-2.05c0-1.131-.92-2.048-2.055-2.048A2.052 2.052 0 0 0 9.05 2.889c0 1.132.92 2.05 2.054 2.05z" fill-rule="nonzero"/><path d="M11.643 2.44v.378h-1.191a.31.31 0 0 0 0 .621h1.19v.38c0 .014.01.027.026.032a.047.047 0 0 0 .045-.007l.823-.689a.032.032 0 0 0 .013-.024.032.032 0 0 0-.012-.025l-.824-.69a.047.047 0 0 0-.045-.008c-.015.006-.025.018-.025.032z"/></g></svg>