<svg width="19" height="16" xmlns="http://www.w3.org/2000/svg"><path d="M8.858 1.556c0-.422.251-.81.647-.991a1.164 1.164 0 0 1 1.207.148l7.024 5.645c.26.213.409.524.409.847 0 .324-.149.63-.408.842l-7.028 5.671a1.17 1.17 0 0 1-1.198.145 1.092 1.092 0 0 1-.656-.993v-2.288c-1.683.049-2.544.28-3.481.984-.795.595-1.574 1.542-2.398 2.959-.2.348-.578.56-.987.56a1.16 1.16 0 0 1-.292-.035 1.105 1.105 0 0 1-.841-1.061v-.34c-.018-2.695.187-4.272 1.112-5.942C3.23 5.432 5.57 4.158 8.858 3.902V1.556zm1.386.519v3.1l-.668.024c-3.18.112-5.295 1.17-6.386 3.137-.723 1.304-.934 2.61-.949 4.763.747-1.154 1.491-1.995 2.282-2.587C5.886 9.49 7.108 9.244 9.545 9.236l.695-.002v3.12l6.385-5.15-6.381-5.13z" fill="currentColor"/></svg>