<svg viewBox="0 0 20 20" xmlns="http://www.w3.org/2000/svg"><path d="M5.053 20a2.105 2.105 0 0 1-1.167-.433c-.77-.58-1.076-1.562-.783-2.501l1.235-3.948a.626.626 0 0 0-.214-.687L.89 9.991A2.231 2.231 0 0 1 0 8.299V8.09c.01-.204.045-.41.109-.615.295-.943 1.098-1.552 2.047-1.552h3.997a.575.575 0 0 0 .562-.404L7.95 1.547C8.244.607 9.048 0 9.999 0c.95 0 1.755.607 2.048 1.546l1.236 3.975a.575.575 0 0 0 .562.402h3.997c.948 0 1.752.61 2.047 1.552.296.947-.01 1.934-.781 2.516l-2.205 1.664a.763.763 0 0 1-1.091-.18.832.832 0 0 1 .172-1.133l2.205-1.664c.325-.245.246-.599.214-.701-.032-.101-.166-.431-.561-.431h-3.997c-.94 0-1.763-.613-2.049-1.525l-1.235-3.975a.573.573 0 0 0-.562-.423c-.101 0-.44.03-.563.424L8.202 6.02a2.148 2.148 0 0 1-2.05 1.526H2.157c-.396 0-.53.33-.561.43-.032.103-.112.457.213.702l3.234 2.44a2.28 2.28 0 0 1 .782 2.501L4.59 17.567a.607.607 0 0 0 .215.687.557.557 0 0 0 .695 0l3.234-2.44a2.084 2.084 0 0 1 2.532 0l3.233 2.44a.557.557 0 0 0 .695 0 .607.607 0 0 0 .215-.687l-.845-2.702a.818.818 0 0 1 .501-1.023.776.776 0 0 1 .985.521l.845 2.703c.294.939-.013 1.92-.782 2.501-.356.269-.76.413-1.167.433h-.198a2.105 2.105 0 0 1-1.167-.433l-3.234-2.44a.572.572 0 0 0-.695 0l-3.233 2.44c-.356.269-.76.413-1.167.433h-.198z" fill="currentColor" fill-rule="evenodd"/></svg>