<svg width="26" height="22" xmlns="http://www.w3.org/2000/svg"><path d="M25.399 2.772A1.75 1.75 0 0 0 23.772.467h-.147a1.774 1.774 0 0 0-.733.204c-.073.03-.132.073-.19.102l-.088.044c-.455.175-.924.35-1.407.525C20.4.76 19.447.322 18.319.072 18.187.045 18.055 0 17.923 0h-1.246c-.146 0-.308.058-.454.088-.983.262-2.009.627-2.947 1.4-1.275 1.065-2.052 2.422-2.301 3.983-2.565-.54-4.69-1.78-6.435-3.866-.337-.394-.821-.584-1.349-.584a1.76 1.76 0 0 0-1.348.598C.875 2.772.509 4.29.816 5.938a7.9 7.9 0 0 0 .396 1.357 1.713 1.713 0 0 0-.425.933c-.205 1.663.396 3.224 1.686 4.523a1.597 1.597 0 0 0-.015.744c.22 1.138.807 2.115 1.7 2.874a8.303 8.303 0 0 1-1.744.19c-.176 0-.352 0-.527-.015h-.132c-.762 0-1.452.496-1.671 1.225a1.73 1.73 0 0 0 .776 2.028c.059.03.118.073.176.102.147.088.323.19.499.292C3.792 21.387 6.196 22 8.659 22c.909 0 1.832-.087 2.756-.248 3.005-.525 5.687-1.897 7.769-3.924 2.081-2.028 3.532-4.713 4.177-7.733.147-.7.206-1.385.25-2.042.014-.248.029-.481.058-.715a12.344 12.344 0 0 0 1.994-2.203c.205-.291.337-.642.337-1.02a1.78 1.78 0 0 0-.601-1.343zm-3.152 3.472c-.146.131-.264.38-.293.584-.117.962-.117 1.955-.322 2.888-1.188 5.486-5.146 9.352-10.54 10.315-.82.145-1.642.218-2.448.218-2.184 0-4.28-.54-6.288-1.604-.206-.102-.396-.234-.602-.35.22.014.44.029.66.029 2.624 0 5.014-1.109 5.908-2.014-2.302-.35-3.826-1.531-4.134-3.122.6-.029 1.202-.073 1.817-.102-2.448-1.167-3.679-2.8-3.459-4.639.586.146 1.187.292 1.774.438C2.385 6.828 1.886 4.26 3.19 2.728c2.477 2.933 5.658 4.494 9.543 4.756-.015-.116-.03-.19-.03-.262-.19-1.751.323-3.254 1.715-4.406.66-.555 1.452-.773 2.273-1.065h1.245c1.056.292 2.009.7 2.815 1.444.044.03.117.073.19.073.045 0 .103 0 .132-.015.733-.262 1.466-.525 2.2-.802.131-.058.263-.131.468-.233-.41 1.08-1.07 1.838-1.935 2.436.015.03.03.073.06.102.776-.219 1.567-.437 2.388-.671a10.879 10.879 0 0 1-2.008 2.16z" fill="currentColor" fill-rule="evenodd"/></svg>