<svg width="65" height="71" xmlns="http://www.w3.org/2000/svg"><path d="M18.79 19.47c0-7.633 6.15-13.843 13.71-13.843 7.56 0 13.71 6.21 13.71 13.843S40.06 33.313 32.5 33.313c-7.56 0-13.71-6.21-13.71-13.843zm24.34 15.632a19.014 19.014 0 0 0 8.16-15.632C51.29 9.01 42.86.5 32.5.5a18.56 18.56 0 0 0-10.601 3.315A19.015 19.015 0 0 0 13.71 19.47a19.014 19.014 0 0 0 8.158 15.632c-4.597 1.602-8.81 4.247-12.35 7.821C3.44 49.061.065 57.202.001 65.871v2.09a2.54 2.54 0 0 0 5.078 0v-2.07C5.204 50.732 17.457 38.439 32.5 38.439c15.077 0 27.35 12.349 27.422 27.554v1.968a2.539 2.539 0 1 0 5.078 0v-1.99c-.04-8.707-3.417-16.887-9.519-23.048-3.54-3.574-7.753-6.22-12.35-7.82z" fill="currentColor" fill-rule="evenodd"/></svg>