<svg width="20" height="20" xmlns="http://www.w3.org/2000/svg"><g fill="currentColor" fill-rule="evenodd"><path d="M9.957.045c-2.087 0-3.79 1.693-3.79 3.77v7.707c0 1.783 1.261 3.285 2.939 3.672v3.061h-1.15a.854.854 0 0 0-.851.847c0 .465.385.847.851.847h4.002a.854.854 0 0 0 .851-.847.854.854 0 0 0-.85-.847h-1.15v-3.061c1.677-.387 2.937-1.89 2.937-3.672V3.815c0-2.077-1.702-3.77-3.789-3.77zm2.128 11.48a2.103 2.103 0 0 1-2.128 2.118 2.103 2.103 0 0 1-2.128-2.117V3.815c0-1.185.937-2.117 2.128-2.117a2.13 2.13 0 0 1 2.128 2.117v7.71zm6.343-7.751a.865.865 0 0 0-1.191-.04.854.854 0 0 0-.041 1.184c1.449 1.527 1.449 4.023 0 5.55-.299.337-.299.887.04 1.184.128.126.631.415 1.192-.04 2.042-2.163 2.042-5.68 0-7.838z"/><path d="M16.64 5.468a.865.865 0 0 0-1.191-.04.854.854 0 0 0-.041 1.184 1.56 1.56 0 0 1 0 2.117c-.3.338-.3.887.04 1.185.127.126.643.43 1.191-.041a3.244 3.244 0 0 0 0-4.405zm-13.877-.55a.854.854 0 0 0-.04-1.185.864.864 0 0 0-1.191.041c-2.042 2.162-2.042 5.675 0 7.837.564.456 1.063.171 1.19.04.34-.296.34-.846.041-1.184-1.448-1.526-1.448-4.026 0-5.549z"/><path d="M3.775 5.222c-.293-.302-.736-.302-1.03.041-.994 1.25-.994 3.227 0 4.477.475.48.92.174 1.03.041.294-.302.294-.86.035-1.204-.477-.604-.477-1.551 0-2.151a.98.98 0 0 0-.035-1.204z"/></g></svg>