<svg width="18" height="18" xmlns="http://www.w3.org/2000/svg"><g fill="currentColor" fill-rule="evenodd"><path d="M14.936 1.73v2.076H5.685l9.251-2.076zM16.5 8.294v8.21h-15V5.302h15v2.992zM17.25 18a.75.75 0 0 0 .75-.748V4.554a.75.75 0 0 0-.75-.748h-.814V.795a.748.748 0 0 0-.914-.73L.586 3.416a.749.749 0 0 0-.586.73v13.106A.75.75 0 0 0 .75 18h16.5z"/><path d="M12.065 7.893a.256.256 0 0 0-.186-.077.257.257 0 0 0-.185.077l-.537.524a3.206 3.206 0 0 0-1.012-.636 3.16 3.16 0 0 0-1.173-.226c-.757 0-1.418.226-1.983.677A3.165 3.165 0 0 0 5.874 10v.028c0 .035.013.066.04.092a.127.127 0 0 0 .092.038h.822c.06 0 .102-.031.124-.093.116-.271.189-.43.22-.476a2.103 2.103 0 0 1 1.8-.992 2.07 2.07 0 0 1 1.441.557l-.57.561a.248.248 0 0 0-.078.183c0 .07.026.132.078.183a.255.255 0 0 0 .186.077h1.85a.255.255 0 0 0 .186-.077.248.248 0 0 0 .079-.183V8.076a.247.247 0 0 0-.079-.183zm-.157 3.305h-.793c-.06 0-.102.031-.123.094-.116.27-.189.43-.22.475a2.105 2.105 0 0 1-1.8.992 2.135 2.135 0 0 1-1.437-.561l.566-.557a.249.249 0 0 0 .078-.183.248.248 0 0 0-.078-.183.255.255 0 0 0-.186-.077h-1.85a.255.255 0 0 0-.187.077.248.248 0 0 0-.078.183v1.822c0 .07.026.131.078.183a.257.257 0 0 0 .186.077.257.257 0 0 0 .186-.077l.533-.525c.295.277.63.49 1.006.638.376.15.764.224 1.166.224.755 0 1.413-.225 1.975-.677a3.154 3.154 0 0 0 1.11-1.795.123.123 0 0 0-.039-.091.128.128 0 0 0-.093-.039z"/></g></svg>