<svg width="24px" height="24px" viewBox="0 0 24 24" version="1.1" xmlns="http://www.w3.org/2000/svg" xmlns:xlink="http://www.w3.org/1999/xlink">
    <title>100% powered up post icon</title>
    <g id="Page-1" stroke="none" stroke-width="1" fill="none" fill-rule="evenodd">
        <path d="M21.5585602,0.939695452 C21.5205645,0.929696187 21.2805918,0.865700893 21.190602,0.861701187 C15.1952837,0.653716478 12.7615604,2.5575765 12.6615718,2.63757062 C12.3176109,2.91555018 12.263617,3.41951313 12.5415854,3.76148799 C12.7635602,4.03546784 12.9895345,4.06946534 13.1095208,4.06746549 C13.1595152,4.06546564 13.2035101,4.09746329 13.2175086,4.14745961 C13.4634806,5.12938742 13.5054758,6.53528405 13.0675256,8.18316289 C12.3096118,11.0269538 10.6577996,12.5988382 9.80389669,12.5988382 C9.75590215,12.5988382 9.70990738,12.5928387 9.66791215,12.5808396 C9.31995171,12.4888463 8.96399219,11.9388868 8.76201515,11.1809425 C8.46004949,10.0390264 8.5100438,8.54313643 8.89999946,7.07524435 C9.42993921,5.07939109 10.4038285,3.71149166 11.2317343,3.07353857 C11.6116911,2.78156003 11.9156566,2.40158797 12.1376313,1.97561929 C12.1396311,1.97361944 12.1396311,1.96961973 12.1416309,1.96761988 C12.2416195,1.77563399 12.7075665,0.871700451 12.1636284,0.859701334 C10.1978519,0.859701334 8.05209587,3.26152475 7.16219706,6.61127846 C6.1803087,10.3070067 7.09620456,13.7567531 9.20796445,14.3187118 C9.40394217,14.370708 9.60391943,14.3967061 9.80789623,14.3967061 C11.7736727,14.3967061 13.9194287,11.9948826 14.8093276,8.64512893 C15.3052712,6.78126597 15.31527,4.9813983 14.9333135,3.58350107 C14.8873187,3.41751328 14.9793082,3.24552592 15.1432896,3.18953004 C15.7412216,2.98354518 16.5311318,2.77356062 17.5390172,2.62957121 C17.6969992,2.60757283 17.804987,2.78755959 17.7069981,2.91355033 C16.9670822,3.88947858 16.3471527,5.16138506 15.9611966,6.61327832 C14.9793082,10.3090066 15.8952041,13.758753 18.006964,14.3207116 C18.2029417,14.3727078 18.402919,14.3987059 18.6068958,14.3987059 C20.5726723,14.3987059 22.7184283,11.9968825 23.6083271,8.64712878 C24.5862159,4.9514005 23.6703201,1.49965428 21.5585602,0.939695452 Z M21.8645254,8.18316289 C21.1086113,11.0269538 19.4567991,12.5988382 18.6028962,12.5988382 C18.5549017,12.5988382 18.5089069,12.5928387 18.4669117,12.5808396 C18.1189513,12.4888463 17.7629917,11.9388868 17.5610147,11.1809425 C17.259049,10.0390264 17.3090433,8.54313643 17.698999,7.07524435 C18.4549131,4.23345329 20.1067252,2.659569 20.9626279,2.659569 C21.0106225,2.659569 21.0546175,2.66556856 21.0986125,2.67756768 C21.8305292,2.87355327 22.6804326,5.11338859 21.8645254,8.18316289 Z M0.50095445,4.66542153 C-0.198965968,4.96139977 -0.0969775646,3.57550166 0.38696741,3.1995293 C1.78880802,2.10960944 5.21641829,0.827703686 7.20019273,0.0357619118 C7.60814635,-0.126226178 8.00810087,0.291743091 7.83012111,0.693713537 C6.75024389,3.13553401 3.57660474,10.249011 1.60082939,16.5425483 C1.49884099,16.8665245 0.834916477,16.8845231 0.800920343,16.5445481 C0.620940807,14.7046834 1.90079529,9.63105644 4.62248582,3.69949254 C4.72047468,3.48750813 4.50649901,3.25952489 4.27852493,3.31152107 C3.48061566,3.49950725 2.25675481,3.92547593 0.50095445,4.66542153 Z M17.944971,15.1986471 C18.6608896,15.1986471 19.396806,15.2166458 20.1487205,15.2626424 C20.3826939,15.2746415 20.4106907,15.6106168 20.1807168,15.6586133 C16.749107,16.3645614 8.09209132,18.1904271 5.66836691,19.144357 C5.57237782,19.1823542 5.47238919,19.2003529 5.37440033,19.2003529 C5.08043376,19.2003529 4.80046559,19.0363649 4.6604815,18.7583854 C4.59848855,18.6363943 4.53449583,18.5084038 4.47250288,18.382413 C4.24852834,17.934446 4.48450151,17.3944857 4.96444694,17.2564958 C6.90822593,16.696537 11.6416877,15.1986471 17.944971,15.1986471 Z M23.6643207,17.4884787 C23.7103155,17.4884787 23.7543105,17.4884787 23.7983055,17.4904786 C24.0382782,17.4944783 24.0742741,17.8364532 23.8403007,17.8864495 C19.5407896,18.8163811 4.71847491,22.2561282 1.32086122,23.9200059 C1.21087373,23.9740019 1.09288715,24 0.976900334,24 C0.644938078,24 0.328974004,23.7880156 0.214986964,23.4480406 L0.0550051547,22.9700757 C-0.118975063,22.4441144 0.140995377,21.9701492 0.59294399,21.8581575 C3.9665604,21.0162194 18.0429599,17.4884787 23.6643207,17.4884787 Z" id="icon-100" class="icon-svg icon-svg--accent" fill-rule="nonzero"></path>
    </g>
</svg>