<?xml version="1.0" encoding="UTF-8" standalone="no"?>
<svg width="144px" height="144px" viewBox="0 0 144 144" version="1.1" xmlns="http://www.w3.org/2000/svg" xmlns:xlink="http://www.w3.org/1999/xlink">
    <!-- Generator: Sketch 3.8.3 (29802) - http://www.bohemiancoding.com/sketch -->
    <title>bitcoin</title>
    <desc>Created with Sketch.</desc>
    <defs></defs>
    <g id="Page-1" stroke="none" stroke-width="1" fill="none" fill-rule="evenodd">
        <g id="bitcoin" transform="translate(-1.000000, -1.000000)">
            <g id="layer1" transform="translate(0.428791, 0.209240)">
                <g id="g3140" transform="translate(0.521279, 0.542460)">
                    <g id="g3142">
                        <path d="M141.896,89.665 C132.275,128.236 93.206,151.711 54.626,142.093 C16.062,132.476 -7.416,93.408 2.207,54.839 C11.821,16.264 50.893,-7.214 89.46,2.403 C128.035,12.02 151.512,51.091 141.896,89.665 L141.896,89.665 Z" id="path3144" fill="#F7931A"></path>
                        <g id="g3146" transform="translate(35.000000, 25.000000)" fill="#FFFFFF">
                            <g id="g3148">
                                <path d="M68.786,36.991 C70.219,27.409 62.923,22.26 52.948,18.824 L56.183,5.846 L48.284,3.877 L45.133,16.513 C43.054,15.995 40.923,15.507 38.802,15.024 L41.973,2.304 L34.079,0.335 L30.84,13.311 C29.121,12.919 27.434,12.533 25.795,12.125 L25.803,12.085 L14.909,9.365 L12.807,17.802 C12.807,17.802 18.668,19.145 18.544,19.229 C21.744,20.028 22.321,22.145 22.225,23.823 L18.54,38.608 C18.76,38.665 19.045,38.744 19.361,38.872 C19.097,38.806 18.816,38.735 18.527,38.665 L13.361,59.375 C12.969,60.347 11.976,61.806 9.74,61.252 C9.819,61.366 3.995,59.819 3.995,59.819 L0.075,68.86 L10.355,71.423 C12.266,71.902 14.143,72.402 15.987,72.876 L12.72,86.003 L20.611,87.972 L23.848,74.985 C26.006,75.569 28.098,76.11 30.146,76.619 L26.92,89.545 L34.82,91.514 L38.09,78.412 C51.563,80.96 61.694,79.932 65.956,67.749 C69.393,57.939 65.786,52.28 58.698,48.589 C63.859,47.399 67.749,44.003 68.786,36.991 L68.786,36.991 Z M50.737,62.302 C48.293,72.113 31.777,66.809 26.419,65.478 L30.757,48.089 C36.112,49.424 53.287,52.07 50.737,62.302 L50.737,62.302 Z M53.177,36.85 C50.951,45.774 37.202,41.239 32.742,40.127 L36.674,24.355 C41.133,25.467 55.498,27.542 53.177,36.85 L53.177,36.85 Z" id="path3150"></path>
                            </g>
                        </g>
                    </g>
                </g>
            </g>
        </g>
    </g>
</svg>