<?xml version="1.0" ?><!DOCTYPE svg  PUBLIC '-//W3C//DTD SVG 1.1//EN'  'http://www.w3.org/Graphics/SVG/1.1/DTD/svg11.dtd'><svg enable-background="new -0.001 -0.266 32 32" height="32px" overflow="visible" version="1.1" viewBox="-0.001 -0.266 32 32" width="32px" xml:space="preserve" xmlns="http://www.w3.org/2000/svg" xmlns:xlink="http://www.w3.org/1999/xlink"><defs/><path d="M30.172,0H1.828C0.823,0,0,0.824,0,1.828v28.344C0,31.176,0.823,32,1.828,32h28.344  C31.177,32,32,31.176,32,30.172V1.828C32,0.824,31.177,0,30.172,0z M27.161,17.949h-4.396v11.766h-4.479V17.949h-3.111v-4.234h3.111  c0,0,0-1.736,0-3.617c0-2.844,1.837-5.455,6.071-5.455c1.714,0,2.981,0.166,2.981,0.166l-0.1,3.953c0,0-1.293-0.012-2.703-0.012  c-1.527,0-1.771,0.703-1.771,1.871c0,0.145,0,0.195,0,0.199c0,0.328,0,1.121,0,2.895h4.596L27.161,17.949z" id="facebook_1_"/></svg>