<?xml version="1.0" ?><!DOCTYPE svg  PUBLIC '-//W3C//DTD SVG 1.1//EN'  'http://www.w3.org/Graphics/SVG/1.1/DTD/svg11.dtd'><svg enable-background="new 0 0 512 512" id="Layer_1" version="1.1" viewBox="0 0 512 512" xml:space="preserve" xmlns="http://www.w3.org/2000/svg" xmlns:xlink="http://www.w3.org/1999/xlink"><g><path d="M386,1c-0.4,2.2,1.4,1.8,2.6,2.1C405.1,7,416,20.6,415.9,37.2c-0.1,15.9-11.6,29.8-27.8,33.4   c-18.6,4.2-38-9.7-40.8-29.6c-0.4-3-1.4-4.4-4.2-5c-16.8-3.9-33.6-7.9-50.5-11.9c-2.9-0.7-4.5,0.2-5.4,3.2   c-6.1,19.9-12.4,39.7-18.8,59.5c-1.1,3.5-0.1,4.2,3.2,4.5c27.6,2,54.3,7.7,79.4,19.7c5.4,2.6,10.7,5.5,15.8,8.5   c2.6,1.6,4.6,1.7,7.2-0.1c13.4-9.8,27.9-11.3,42.8-4.1c15.2,7.2,23.1,20,23.7,36.6c0.5,14.6-5.9,26.4-17.7,35.1   c-2.1,1.5-3.2,3-3,5.7c2.9,34.6-13.9,59.4-39.6,79.8c-12.4,9.8-26.4,16.7-41.4,23c9.5,5.4,17.5,11.7,23.7,20.1   c9.2,12.7,14.2,26.9,15.5,42.5c1.9,22.4-3.6,42.6-17.6,60.2c-7.1,9-16.3,15.8-27.3,19.4c-3.4,1.1-5.3,2.7-6.3,6.1   c-1.1,3.8-2.6,7.6-4.2,11.2c-1.1,2.5-0.4,3.1,2.2,3.2c8.9,0.6,17.6,2,25.3,6.6c12.8,7.7,21,18.3,20.6,34c-0.1,3.1-1,5.9-2,8.7   c-1,2.6-3,4-5.7,4.2c-1.3,0.1-2.7,0.1-4,0.1c-68.5,0-137,0-205.5,0c-7.8,0-9.2-1.1-10.9-8.6c-3-13.6,3.6-27.8,16.8-36.7   c8.5-5.6,18-7.6,27.8-8.4c1-0.1,2,0.3,2.9-0.7c-1.9-5.2-3.8-10.5-5.7-15.8c-0.6-1.7-1.6-2.8-3.3-3.4c-23.5-8.1-36.9-25.5-43.5-48.5   c-7.4-25.7-3.7-50,11.2-72.4c5.6-8.4,11.7-13.8,24.4-21.8c-9.3-4.3-18.5-8.2-27.1-13.4c-20.4-12.5-37.6-28.1-47.6-50.4   c-5.7-12.8-8.4-26.3-6.1-40.4c0.4-2.4-0.5-3.8-2.3-5C70.2,171.9,68.7,142.6,84,125c13.2-15.3,37.5-18.7,54.8-6.5   c3.1,2.2,5.1,2.1,8.3,0.2c23.9-14.3,50.1-22.1,77.6-25.7c7.9-1,15.9-2,23.8-1.9c3.2,0,4.3-1.4,5.2-4.1   c7.1-22.9,14.3-45.7,21.5-68.5c0.3-1,0.6-1.9,0.9-2.9c2.4-7.4,4.7-8.7,12.2-7C307.2,13,326.1,17.4,345,22c3.3,0.8,5.2,0.7,7.1-2.8   c4.6-8.7,12.4-13.7,21.8-16.1c1.2-0.3,3.3,0.5,3.1-2.1c0.7,0,1.3,0,2,0c1.7,1.9,3.3,1.9,5,0C384.7,1,385.3,1,386,1z M256.4,105   c-5-0.1-10,0.5-14.9,0.7c-20.6,0.9-40.6,5.2-59.9,12.2c-23.5,8.6-44.5,21.1-60.2,41.2c-17.9,22.9-19.8,51.4-5,75.5   c9.6,15.5,23,27.1,38.7,36c35.7,20.1,74.3,27,114.9,24.7c26.4-1.5,51.7-7.1,75.6-18.4c19.5-9.2,37-21.3,49-39.8   c14.6-22.5,16-45.7,2.5-69.2c-11.7-20.5-30-33.6-50.7-43.6C318,110.6,287.6,105.4,256.4,105z M256.1,498c3.5,0,7-0.3,10.5,0.1   c5.8,0.7,10.1-1.7,14.4-5.3c9.7-8.1,16.5-18.2,22.2-29.2c17.7-34.5,23.3-71.8,24.6-110c0.6-16.1-1-32.2-2.8-48.3   c-0.5-4.1-1.9-4.8-5.9-3.7c-17.3,5-35.1,7.5-53,8.2c-24.9,1-49.5-1.7-73.5-8.4c-3.1-0.9-4.3-0.7-4.8,3c-1.5,10.1-2.3,20.2-2.6,30.3   c-1,25.2,0.7,50.2,5.9,74.9c5.6,26.4,13.9,51.7,30.9,73.3c7.7,9.7,16.3,17.7,30.2,15.1C253.4,497.8,254.8,498,256.1,498z    M340,312.7c4,37.4,1.4,73.2-6.3,108.9c14.9-5.8,28.6-27.2,30.2-46.6C365.9,350.9,360.5,329.6,340,312.7z M172.3,313.4   c-19.9,17.2-25.6,38.3-23,61.9c2.4,22.4,16.9,41.9,29.8,45.9C170.5,386,169.4,350.5,172.3,313.4z M381.2,57   c11.1,0.1,20.6-9.1,20.7-20c0.1-10.9-9.2-20.5-20.1-20.8c-10.9-0.3-20.7,9.5-20.7,20.7C361.1,47.6,370.4,56.9,381.2,57z M296.7,498   c2.7,0,4.3,0,5.9,0c15.1,0,30.3,0.1,45.4-0.1c2.9,0,7.1,1.6,8.4-0.9c1.7-3.2-0.7-7-2.5-10.2c-0.6-1.1-1.5-2.2-2.4-3.1   c-9.4-10.2-21.2-12.2-34.2-10.3c-1.4,0.2-3.1,0.3-4,1.8C308.7,483.1,303.1,490.2,296.7,498z M216.1,498   c-6.5-7.5-11.9-14.6-16.3-22.4c-0.9-1.6-2.5-2.2-4.2-2.4c-8.7-1-17.3-0.8-25.2,3.7c-7,3.9-12.6,9.1-13.7,17.8   c-0.4,2.9,0.4,3.4,3,3.4C178.1,498,196.6,498,216.1,498z M426.2,153.1c-0.1-20.7-21-34-39-25.3c-3.4,1.6-4.8,2.8-1,5.8   c12.6,10.2,22.1,22.9,28.4,37.9c1.4,3.3,2.4,2.2,4,0.5C423.9,166.6,426.5,160.2,426.2,153.1z M87.9,152.3   c-0.1,7.3,2.4,13.9,6.3,18.4c2.3,2.6,3.2,2.3,4.6-0.8c6.3-14.9,16.4-26.9,28.6-37.2c3.7-3.1,1.9-3.8-0.9-5.1   C108.8,119.3,88,132.6,87.9,152.3z" fill="#A8A8A8"/><path d="M384,1c-1.7,1.9-3.3,1.9-5,0C380.7,1,382.3,1,384,1z" fill="#FEFEFE"/><path d="M227.1,180.7c-0.1,14.1-11.3,25.3-25.4,25.2c-13.9-0.1-25.5-11.7-25.4-25.5c0-14,11.8-25.6,26-25.5   C216.2,155.1,227.1,166.4,227.1,180.7z" fill="#A8A8A8"/><path d="M337.9,180.4c0,13.8-11.5,25.4-25.3,25.5c-14.1,0.1-25.7-11.5-25.6-25.7c0-13.8,11.6-25.3,25.5-25.3   C326.2,155,337.9,166.7,337.9,180.4z" fill="#A8A8A8"/><path d="M259.8,271.1c-19.5,0-35.6-1.8-50.4-9.8c-4.1-2.2-7.9-5-11.1-8.3c-3-3.1-3.4-6.6-0.7-9.8   c2.8-3.3,6.8-3.3,9.9-0.7c17.8,15.2,39,15.1,60.4,13.9c11.2-0.6,22.1-2.7,31.9-8.6c2.3-1.4,4.2-3.3,6.2-4.9   c3.7-2.9,8.2-2.7,10.7,0.4c2.4,2.9,1.8,7.1-1.4,10.2c-10.8,10.5-24.4,14.4-38.7,16.5C270,270.9,263.4,271.2,259.8,271.1z" fill="#A8A8A8"/></g></svg>