<?xml version="1.0" encoding="UTF-8"?>
<svg width="30px" height="30px" viewBox="0 0 30 30" version="1.1" xmlns="http://www.w3.org/2000/svg" xmlns:xlink="http://www.w3.org/1999/xlink">
    <!-- Generator: Sketch 47.1 (45422) - http://www.bohemiancoding.com/sketch -->
    <title>steem</title>
    <desc>Created with Sketch.</desc>
    <defs></defs>
    <g id="Page-1" stroke="none" stroke-width="1" fill="none" fill-rule="evenodd">
        <g id="steem" fill-rule="nonzero" fill="#07DFB0">
            <g id="Group-9">
                <g id="SteemIt_LogoType_Logo" transform="translate(0.122180, 0.120594)">
                    <path d="M26.220401,8.97838251 C24.9619868,7.74033201 23.4972752,6.83444139 21.9397298,6.25064522 C22.8474384,3.62356245 26.065678,2.66734458 26.065678,2.66734458 C26.065678,2.66734458 18.5564522,-1.16759234 10.2632962,0.362356245 C7.49891092,0.795170648 4.84798918,2.46603555 2.90879351,4.67036938 C-1.29967369,9.45145872 -0.742670683,16.6482564 4.15689285,20.7549605 C4.9098784,21.3890839 5.72475318,21.9024219 6.57057257,22.3151054 C6.5602577,22.30504 6.5602577,22.284909 6.54994283,22.2748436 C6.57057257,22.3251709 6.59120231,22.3754981 6.62214692,22.4258254 C5.51845577,25.183759 1.99077002,25.9386679 1.99077002,25.9386679 C1.99077002,25.9386679 6.65309153,28.8073215 12.914218,29.5521648 C14.5749121,29.7534739 16.338755,29.8038011 18.1644871,29.6125576 C21.0629658,29.3810522 23.9511295,27.8712345 26.148197,25.7474243 C30.9033523,21.1374476 30.9446118,13.628621 26.220401,8.97838251 Z M24.074908,23.9155122 C22.3007502,25.6266389 19.6498285,26.7137076 17.6074841,26.8646894 C17.5868544,26.8646894 17.5662246,26.8646894 17.5559098,26.8646894 C16.1634022,27.0056057 14.6161716,27.0257366 13.1308303,26.8445585 C10.9440777,26.5828567 9.3659025,25.9889951 7.81867191,25.4152644 C8.60260207,24.670421 9.38653224,23.643745 9.70629323,22.7579853 C9.91259064,22.2345818 9.8919609,21.6507856 9.644404,21.1374476 C7.98370984,17.7755869 8.70575078,13.7494064 11.4391915,11.1323891 C13.4196466,9.23001879 16.1427725,8.33419363 18.9071578,8.66635352 C20.9391873,8.90792435 22.7855491,9.78361861 24.229631,11.2028472 C27.736687,14.6653625 27.6129086,20.5234551 24.074908,23.9155122 Z" id="Shape"></path>
                </g>
            </g>
        </g>
    </g>
</svg>