<svg class="icon icon--twitter icon--white " viewBox="0 0 20 20" version="1.1" aria-labelledby="title"><title>twitter</title><path d="M20,4c-0.7,0.3-1.5,0.6-2.4,0.7c0.9-0.5,1.5-1.4,1.8-2.3c-0.8,0.5-1.7,0.8-2.6,1C16.1,2.5,15,2,13.8,2c-2.3,0-4.1,1.9-4.1,4.2c0,0.3,0,0.7,0.1,1C6.4,7,3.4,5.4,1.4,2.9C1,3.5,0.8,4.1,0.8,4.9c0,1.4,0.7,2.7,1.8,3.5C2,8.4,1.4,8.2,0.8,7.9v0.1c0,2,1.4,3.7,3.3,4.1c-0.4,0.1-0.7,0.2-1.1,0.2c-0.3,0-0.5,0-0.8-0.1c0.5,1.7,2,2.9,3.8,2.9c-1.4,1.1-3.2,2-5.1,2c-0.3,0-0.7,0-1-0.1c1.8,1.2,4,1.7,6.3,1.7c7.5,0,11.7-6.4,11.7-12V6.1C18.8,5.6,19.4,4.8,20,4z" /></svg>