<?xml version="1.0" ?><svg enable-background="new 0 0 32 32" version="1.1" viewBox="0 0 32 32" xml:space="preserve" xmlns="http://www.w3.org/2000/svg" xmlns:xlink="http://www.w3.org/1999/xlink"><g id="Flat_copy"><path d="M20.046,3.071c-2.89,1.052-4.716,3.764-4.509,6.732l0.07,1.145l-1.156-0.14c-4.207-0.537-7.884-2.36-11.006-5.423   L1.919,3.866L1.526,4.988c-0.832,2.501-0.3,5.143,1.433,6.92c0.925,0.982,0.716,1.122-0.878,0.537   c-0.555-0.186-1.041-0.327-1.087-0.257c-0.161,0.164,0.393,2.291,0.832,3.133c0.601,1.17,1.826,2.314,3.168,2.993l1.133,0.537   l-1.341,0.023c-1.294,0-1.341,0.023-1.202,0.515c0.462,1.519,2.289,3.133,4.323,3.834l1.433,0.49l-1.248,0.748   c-1.849,1.077-4.023,1.684-6.197,1.729C0.855,26.213,0,26.307,0,26.378c0,0.233,2.821,1.541,4.462,2.057   c4.925,1.519,10.775,0.864,15.168-1.73c3.122-1.847,6.242-5.517,7.7-9.071c0.787-1.892,1.572-5.353,1.572-7.011   c0-1.076,0.07-1.216,1.364-2.501c0.764-0.748,1.48-1.566,1.619-1.8c0.232-0.445,0.207-0.445-0.971-0.047   c-1.965,0.702-2.243,0.608-1.271-0.444c0.716-0.748,1.572-2.104,1.572-2.501c0-0.07-0.346,0.046-0.74,0.257   C30.059,3.819,29.134,4.17,28.44,4.38l-1.248,0.398l-1.133-0.772c-0.625-0.42-1.502-0.888-1.965-1.028   C22.914,2.651,21.11,2.697,20.046,3.071z"/></g></svg>