<?xml version="1.0" ?><!DOCTYPE svg  PUBLIC '-//W3C//DTD SVG 1.1//EN'  'http://www.w3.org/Graphics/SVG/1.1/DTD/svg11.dtd'><svg height="90px" id="Capa_1" version="1.1" viewBox="0 0 94 90" width="94px" xml:space="preserve" xmlns="http://www.w3.org/2000/svg" xmlns:xlink="http://www.w3.org/1999/xlink"><g><path d="M73.602,67.24c-12.326-4.493-16.266-8.282-16.266-16.395c0-4.871,3.764-3.28,5.416-12.2c0.686-3.7,4.01-0.06,4.646-8.507   c0-3.367-1.814-4.203-1.814-4.203s0.922-4.982,1.283-8.816C67.314,12.342,64.107,0,47,0S26.684,12.342,27.133,17.119   c0.361,3.834,1.283,8.816,1.283,8.816s-1.814,0.836-1.814,4.203c0.635,8.447,3.959,4.807,4.645,8.507   c1.654,8.919,5.416,7.329,5.416,12.2c0,8.113-3.938,11.902-16.264,16.395C8.033,71.746,0,76.339,0,79.473C0,82.604,0,90,0,90h47h47   c0,0,0-7.396,0-10.527C94,76.339,85.967,71.746,73.602,67.24z"/></g><g/><g/><g/><g/><g/><g/><g/><g/><g/><g/><g/><g/><g/><g/><g/></svg>
