<svg version="1.1" xmlns="http://www.w3.org/2000/svg" width="24" height="24" viewBox="0 0 24 24">
<path d="M10.3936 2.00977C11.3097 2.05489 12.2123 2.25762 13.0615 2.60938C14.0321 3.01141 14.9144 3.59995 15.6572 4.34277C16.4 5.08559 16.9886 5.96795 17.3906 6.93848C17.7927 7.90908 18 8.94943 18 10L17.9902 10.3936C17.9451 11.3097 17.7424 12.2123 17.3906 13.0615C17.1168 13.7224 16.754 14.3404 16.3174 14.9033L21.707 20.293L21.7754 20.3691C22.0956 20.7619 22.0731 21.341 21.707 21.707C21.3409 22.073 20.7619 22.0956 20.3691 21.7754L20.293 21.707L14.9033 16.3174C14.3404 16.754 13.7224 17.1168 13.0615 17.3906C12.0909 17.7927 11.0506 18 10 18C8.94943 18 7.90908 17.7927 6.93848 17.3906C5.96795 16.9886 5.08559 16.4 4.34277 15.6572C3.59995 14.9144 3.01141 14.0321 2.60938 13.0615C2.25762 12.2123 2.05489 11.3097 2.00977 10.3936L2 10C2 8.94942 2.20734 7.90908 2.60938 6.93848C3.01141 5.96795 3.59995 5.08559 4.34277 4.34277C5.08559 3.59995 5.96795 3.01141 6.93848 2.60938C7.90908 2.20734 8.94943 2 10 2L10.3936 2.00977ZM10 4C9.21209 4 8.43204 4.15552 7.7041 4.45703C6.97615 4.75856 6.31496 5.20066 5.75781 5.75781C5.20066 6.31496 4.75856 6.97615 4.45703 7.7041C4.15552 8.43204 4 9.21209 4 10L4.00684 10.2949C4.04065 10.9821 4.19319 11.6589 4.45703 12.2959C4.75856 13.0239 5.20066 13.685 5.75781 14.2422C6.31496 14.7993 6.97615 15.2414 7.7041 15.543C8.43204 15.8445 9.21209 16 10 16C10.7879 16 11.568 15.8445 12.2959 15.543C13.0239 15.2414 13.685 14.7993 14.2422 14.2422C14.7993 13.685 15.2414 13.0239 15.543 12.2959C15.8445 11.568 16 10.7879 16 10L15.9932 9.70508C15.9593 9.01791 15.8068 8.34108 15.543 7.7041C15.2414 6.97615 14.7993 6.31496 14.2422 5.75781C13.685 5.20066 13.0239 4.75856 12.2959 4.45703C11.6589 4.19319 10.9821 4.04065 10.2949 4.00684L10 4ZM13 9C13.5523 9 14 9.44772 14 10C14 10.5523 13.5523 11 13 11H7C6.44772 11 6 10.5523 6 10C6 9.44772 6.44772 9 7 9H13Z"/>
</svg>
