<svg version="1.1" xmlns="http://www.w3.org/2000/svg" width="24" height="24" viewBox="0 0 24 24">
<path d="M4 15C4.55228 15 5 15.4477 5 16V18L5.00488 18.0986C5.02757 18.3276 5.12883 18.5429 5.29297 18.707C5.48051 18.8946 5.73478 19 6 19H8C8.55228 19 9 19.4477 9 20C9 20.5523 8.55228 21 8 21H6C5.20435 21 4.44151 20.6837 3.87891 20.1211C3.38671 19.6289 3.08291 18.9835 3.01465 18.2969L3 18V16C3 15.4477 3.44772 15 4 15ZM20 15C20.5523 15 21 15.4477 21 16V18C21 18.7957 20.6837 19.5585 20.1211 20.1211C19.5585 20.6837 18.7957 21 18 21H16C15.4477 21 15 20.5523 15 20C15 19.4477 15.4477 19 16 19H18C18.2652 19 18.5195 18.8946 18.707 18.707C18.8946 18.5195 19 18.2652 19 18V16C19 15.4477 19.4477 15 20 15ZM11 7C12.0609 7 13.078 7.42173 13.8281 8.17188C14.5783 8.92202 15 9.93913 15 11L14.9951 11.1963C14.9726 11.6544 14.8712 12.1056 14.6953 12.5303C14.6237 12.7032 14.539 12.8697 14.4443 13.0303L16.707 15.293L16.7754 15.3691C17.0956 15.7619 17.0731 16.341 16.707 16.707C16.3409 17.073 15.7619 17.0956 15.3691 16.7754L15.293 16.707L13.0303 14.4443C12.8697 14.539 12.7032 14.6237 12.5303 14.6953C12.0451 14.8962 11.5252 15 11 15C10.4748 15 9.95494 14.8962 9.46973 14.6953C8.98442 14.4943 8.54331 14.1996 8.17188 13.8281C7.80044 13.4567 7.50571 13.0156 7.30469 12.5303C7.12883 12.1056 7.02739 11.6544 7.00488 11.1963L7 11C7 9.93913 7.42173 8.92202 8.17188 8.17188C8.92202 7.42173 9.93913 7 11 7ZM11 9C10.4696 9 9.96101 9.21087 9.58594 9.58594C9.21087 9.96101 9 10.4696 9 11L9.00977 11.1963C9.02903 11.3916 9.07697 11.5836 9.15234 11.7656C9.25285 12.0082 9.40029 12.2284 9.58594 12.4141C9.77159 12.5997 9.99182 12.7471 10.2344 12.8477C10.477 12.9482 10.7374 13 11 13C11.2626 13 11.523 12.9482 11.7656 12.8477C12.0082 12.7471 12.2284 12.5997 12.4141 12.4141C12.5997 12.2284 12.7471 12.0082 12.8477 11.7656C12.9482 11.523 13 11.2626 13 11L12.9902 10.8027C12.9449 10.3447 12.7423 9.91422 12.4141 9.58594C12.039 9.21087 11.5304 9 11 9ZM8 3C8.55228 3 9 3.44772 9 4C9 4.55228 8.55228 5 8 5H6C5.73478 5 5.4805 5.10543 5.29297 5.29297C5.10543 5.4805 5 5.73478 5 6V8C5 8.55228 4.55228 9 4 9C3.44772 9 3 8.55228 3 8V6C3 5.20435 3.3163 4.44152 3.87891 3.87891C4.44152 3.3163 5.20435 3 6 3H8ZM18.2969 3.01465C18.9835 3.08291 19.6289 3.38671 20.1211 3.87891C20.6837 4.44151 21 5.20435 21 6V8C21 8.55228 20.5523 9 20 9C19.4477 9 19 8.55228 19 8V6C19 5.73478 18.8946 5.48051 18.707 5.29297C18.5429 5.12883 18.3276 5.02757 18.0986 5.00488L18 5H16C15.4477 5 15 4.55228 15 4C15 3.44772 15.4477 3 16 3H18L18.2969 3.01465Z"/>
</svg>
