<svg xmlns="http://www.w3.org/2000/svg" viewBox="0 0 20 20">
    <path fill="currentColor" fill-rule="nonzero" d="M10.951 9.152c-1.27-.498-1.637-.8-1.637-1.343 0-.435.337-.943 1.287-.943.84 0 1.485.324 1.491.327a.476.476 0 0 0 .219.054.442.442 0 0 0 .414-.278l.231-.577a.354.354 0 0 0-.197-.459c-.518-.22-1.529-.39-1.54-.393-.016-.002-.072-.014-.072-.079l-.003-.837a.47.47 0 0 0-.48-.457h-.414a.47.47 0 0 0-.48.457l.002.88c0 .068-.075.097-.102.103-1.277.298-2.075 1.212-2.075 2.365 0 1.438 1.216 2.088 2.528 2.576 1.05.403 1.477.811 1.477 1.41 0 .652-.606 1.107-1.474 1.107-.742 0-1.745-.46-1.755-.464a.479.479 0 0 0-.202-.045.448.448 0 0 0-.424.288l-.22.584c-.079.218.042.395.196.473.617.314 1.809.499 1.862.507.015.001.087.027.087.091v.877a.47.47 0 0 0 .48.457h.427a.47.47 0 0 0 .48-.457v-.923c0-.086.066-.093.08-.097 1.359-.298 2.196-1.272 2.196-2.493 0-1.255-.713-2.066-2.382-2.711zM10 18.333a8.333 8.333 0 1 0 0-16.666 8.333 8.333 0 0 0 0 16.666zM10 20C4.477 20 0 15.523 0 10S4.477 0 10 0s10 4.477 10 10-4.477 10-10 10z"/>
</svg>
