<svg xmlns="http://www.w3.org/2000/svg" viewBox="0 0 22 16">
    <path fill="currentColor" fill-rule="evenodd" d="M11.043 12.701c-2.7 0-4.898-2.109-4.898-4.701 0-2.592 2.198-4.701 4.898-4.701 2.701 0 4.899 2.109 4.899 4.701 0 2.592-2.198 4.701-4.899 4.701zM11.02 16c-2.242 0-4.459-.77-6.59-2.291-2.105-1.502-3.403-3.226-3.863-3.897a3.184 3.184 0 0 1 0-3.624c.46-.671 1.758-2.395 3.863-3.897C6.56.771 8.777 0 11.019 0c2.245 0 4.46.773 6.585 2.297 2.096 1.504 3.383 3.23 3.84 3.903a3.19 3.19 0 0 1 0 3.6.881.881 0 0 1-1.19.241.805.805 0 0 1-.25-1.14 1.595 1.595 0 0 0 0-1.801c-1.375-2.024-4.813-5.45-8.985-5.45S3.388 5.072 2.002 7.095a1.59 1.59 0 0 0 0 1.81c1.386 2.023 4.845 5.446 9.017 5.446 2.89 0 5.277-1.605 6.772-2.95a.885.885 0 0 1 1.214.037.802.802 0 0 1-.038 1.166C17.247 14.153 14.47 16 11.019 16zm.024-11.052c-1.753 0-3.18 1.37-3.18 3.052 0 1.683 1.427 3.052 3.18 3.052 1.754 0 3.18-1.37 3.18-3.052 0-1.683-1.426-3.052-3.18-3.052z"/>
</svg>
