<svg xmlns="http://www.w3.org/2000/svg" viewBox="0 0 20 20">
    <path fill="currentColor" fill-rule="evenodd" d="M6.2 12.857V7.74H5V6.429h2.857v6.428H6.201zm8.432-4.553c0 .609-.329 1.147-.876 1.447.766.319 1.244.987 1.244 1.765 0 1.257-1.115 2.055-2.857 2.055-1.742 0-2.857-.788-2.857-2.025 0-.798.517-1.476 1.324-1.795-.588-.33-.966-.888-.966-1.497 0-1.117.976-1.825 2.489-1.825 1.533 0 2.499.728 2.499 1.875zm-3.674 3.063c0 .588.419.918 1.185.918.767 0 1.195-.32 1.195-.918 0-.579-.428-.908-1.195-.908-.767 0-1.185.329-1.185.908zm.18-2.963c0-.519.358-.808 1.005-.808.647 0 1.005.29 1.005.808 0 .499-.358.778-1.005.778-.647 0-1.006-.28-1.006-.778zm6.867-.213a.793.793 0 0 1 .672-.951.95.95 0 0 1 1.055.752c.179.88.268 1.549.268 2.008 0 5.514-4.486 10-10 10S0 15.514 0 10 4.486 0 10 0c.444 0 1.043.065 1.796.194.475.082.8.525.735 1.002a.822.822 0 0 1-.937.702A11.03 11.03 0 0 0 10 1.755c-4.546 0-8.245 3.699-8.245 8.245 0 4.546 3.699 8.245 8.245 8.245 4.546 0 8.245-3.699 8.245-8.245 0-.45-.08-1.052-.24-1.809zm-.562-5.638h1.843v1.322h-1.843v1.84h-1.325v-1.84h-1.832V2.553h1.832V.714h1.325v1.84z"/>
</svg>
