<svg xmlns="http://www.w3.org/2000/svg" viewBox="0 0 20 20">
    <path fill="currentColor" fill-rule="nonzero" d="M16.08 6.08a2.171 2.171 0 0 0 2.175-2.167 2.171 2.171 0 0 0-2.175-2.168 2.171 2.171 0 0 0-2.175 2.168c0 1.196.973 2.168 2.175 2.168zm0 1.746a3.917 3.917 0 0 1-3.92-3.913A3.917 3.917 0 0 1 16.08 0 3.917 3.917 0 0 1 20 3.913a3.917 3.917 0 0 1-3.92 3.913zm0 10.429a2.171 2.171 0 0 0 2.175-2.168 2.171 2.171 0 0 0-2.175-2.168 2.171 2.171 0 0 0-2.175 2.168c0 1.196.973 2.168 2.175 2.168zm0 1.745a3.917 3.917 0 0 1-3.92-3.913 3.917 3.917 0 0 1 3.92-3.913A3.917 3.917 0 0 1 20 16.087 3.917 3.917 0 0 1 16.08 20zM3.92 12.168A2.171 2.171 0 0 0 6.095 10 2.171 2.171 0 0 0 3.92 7.832 2.171 2.171 0 0 0 1.745 10c0 1.196.973 2.168 2.175 2.168zm3.017.332a3.915 3.915 0 0 1-3.017 1.413A3.917 3.917 0 0 1 0 10a3.917 3.917 0 0 1 3.92-3.913c1.213 0 2.298.55 3.017 1.413l6.049-3.018.78 1.561-6.04 3.014a3.915 3.915 0 0 1 0 1.886l6.04 3.014-.78 1.561-6.05-3.018z"/>
</svg>
