<svg xmlns="http://www.w3.org/2000/svg" width="70" height="70" viewBox="0 0 70 70">
    <g fill="none" fill-rule="evenodd">
        <path fill="#FFC80A" d="M34.998 22.58c6.86 0 12.42 5.561 12.42 12.42s-5.56 12.42-12.42 12.42C28.14 47.42 22.58 41.858 22.58 35s5.56-12.42 12.42-12.42"/>
        <path fill="#393636" d="M49.676 16.935H20.32a3.391 3.391 0 0 0-3.387 3.388v2.258h2.258v-2.258a1.13 1.13 0 0 1 1.129-1.13h29.355a1.13 1.13 0 0 1 1.129 1.13v2.258h2.258v-2.258a3.391 3.391 0 0 0-3.387-3.388M19.192 49.677v-23.71h-2.258v23.71a3.391 3.391 0 0 0 3.387 3.388h2.258v-2.259h-2.258a1.13 1.13 0 0 1-1.13-1.129M25.966 53.065h18.065v-2.259H25.966zM50.805 49.677a1.13 1.13 0 0 1-1.13 1.13h-2.257v2.258h2.258a3.391 3.391 0 0 0 3.387-3.388v-23.71h-2.258v23.71M37.256 33.871h-5.645v-2.258h5.645a1.13 1.13 0 0 1 0 2.258zm0 4.516h-5.645V36.13h5.645a1.13 1.13 0 0 1 0 2.258zm-5.645-11.29v2.258h-2.258v11.29h2.258v2.258h2.258v-2.258h2.258v2.258h2.258v-2.466a3.382 3.382 0 0 0 2.258-3.179c0-.867-.327-1.658-.864-2.258.537-.6.864-1.391.864-2.258 0-1.47-.947-2.712-2.258-3.18v-2.465h-2.258v2.258H33.87v-2.258h-2.258z"/>
        <path fill="#393636" d="M24.837 35c0-5.603 4.558-10.161 10.161-10.161 2.337 0 4.621.815 6.428 2.294l1.431-1.747a12.444 12.444 0 0 0-7.859-2.805C28.151 22.58 22.58 28.152 22.58 35c0 2.858.997 5.649 2.806 7.86l1.746-1.432A10.175 10.175 0 0 1 24.837 35M34.998 45.161c-2.337 0-4.62-.815-6.427-2.294l-1.432 1.747A12.444 12.444 0 0 0 35 47.419c6.847 0 12.419-5.571 12.419-12.419 0-2.858-.997-5.649-2.806-7.86l-1.747 1.432A10.175 10.175 0 0 1 45.16 35c0 5.603-4.558 10.161-10.162 10.161M67.06 67.061a2.325 2.325 0 0 1-3.287 0l-3.256-3.256a2.315 2.315 0 0 1-.583-2.273l1.362 1.362 1.596-1.597-1.361-1.361c.206-.058.416-.097.628-.097.595 0 1.192.226 1.644.68l3.256 3.256a2.326 2.326 0 0 1 0 3.286zm-1.66-8.14c-1.508-1.507-3.81-1.728-5.57-.686l-1.777-1.777a4.542 4.542 0 0 0-.686-5.57L56.12 49.64l-1.596 1.597 1.246 1.246c.616.616.803 1.49.583 2.273l-1.362-1.362-1.596 1.597 1.362 1.363a2.315 2.315 0 0 1-2.272-.583l-3.256-3.256a2.325 2.325 0 0 1-.002-3.286c.527-.525 1.157-.641 1.594-.647l-.029-2.258a4.525 4.525 0 0 0-3.16 1.308 4.587 4.587 0 0 0 0 6.48l3.256 3.255a4.568 4.568 0 0 0 3.24 1.34c.81 0 1.613-.228 2.33-.652l1.777 1.777c-1.041 1.758-.822 4.061.686 5.57l3.257 3.257a4.568 4.568 0 0 0 3.24 1.34 4.567 4.567 0 0 0 3.239-1.34 4.587 4.587 0 0 0 0-6.48l-3.256-3.258zM2.937 2.939a2.318 2.318 0 0 1 1.643-.68c.595 0 1.191.226 1.644.68L9.48 6.195c.615.615.803 1.49.582 2.273L8.7 7.105 7.103 8.701l1.363 1.363a2.315 2.315 0 0 1-2.273-.582L2.937 6.225a2.326 2.326 0 0 1 0-3.286zm1.659 8.14a4.568 4.568 0 0 0 3.24 1.34c.81 0 1.612-.229 2.33-.653l1.776 1.777c-1.04 1.758-.822 4.06.687 5.57l3.256 3.257a4.567 4.567 0 0 0 3.24 1.34 4.569 4.569 0 0 0 3.24-1.342 4.517 4.517 0 0 0 1.307-3.159l-2.258-.028c-.006.437-.122 1.067-.646 1.592a2.325 2.325 0 0 1-3.287 0l-3.256-3.256a2.315 2.315 0 0 1-.582-2.273l1.361 1.362 1.597-1.597-1.362-1.361a2.313 2.313 0 0 1 2.273.582l1.246 1.247 1.597-1.597-1.247-1.246a4.537 4.537 0 0 0-3.237-1.344c-.836 0-1.631.239-2.331.655l-1.777-1.777c1.04-1.758.822-4.061-.687-5.57L7.82 1.34a4.587 4.587 0 0 0-6.48 0 4.587 4.587 0 0 0 0 6.48l3.256 3.257zM60.518 6.194l3.256-3.256a2.32 2.32 0 0 1 1.644-.68 2.326 2.326 0 0 1 1.643 3.966L63.804 9.48a2.314 2.314 0 0 1-2.272.583l1.361-1.362-1.596-1.596-1.362 1.362a2.316 2.316 0 0 1 .583-2.273zM50.87 23.707a4.567 4.567 0 0 0 3.24-1.34l3.256-3.256c1.51-1.51 1.727-3.813.686-5.57l1.777-1.778a4.58 4.58 0 0 0 2.33.653 4.568 4.568 0 0 0 3.24-1.34l3.256-3.256a4.587 4.587 0 0 0 0-6.48 4.587 4.587 0 0 0-6.48 0L58.92 4.596c-1.51 1.51-1.727 3.813-.686 5.57l-1.777 1.778a4.545 4.545 0 0 0-2.332-.655 4.551 4.551 0 0 0-3.239 1.341l-1.246 1.247 1.596 1.596 1.247-1.246a2.316 2.316 0 0 1 2.272-.583l-1.361 1.362 1.596 1.596 1.362-1.361c.22.783.032 1.657-.583 2.273l-3.256 3.256a2.325 2.325 0 0 1-3.285 0c-.526-.525-.642-1.155-.647-1.592l-2.259.028a4.525 4.525 0 0 0 1.308 3.16 4.562 4.562 0 0 0 3.241 1.341zM9.479 63.806l-3.256 3.256a2.325 2.325 0 0 1-3.287-3.286l3.256-3.256a2.32 2.32 0 0 1 1.644-.68c.212 0 .422.04.629.097l-1.362 1.362L8.7 62.895l1.361-1.362c.22.783.033 1.658-.582 2.273zm9.728-17.482l-.029 2.258c.437.006 1.067.122 1.592.646.907.907.907 2.38 0 3.287l-3.256 3.256a2.314 2.314 0 0 1-2.273.582l1.362-1.361-1.596-1.597-1.362 1.362a2.315 2.315 0 0 1 .582-2.273l1.247-1.246-1.597-1.597-1.246 1.247a4.55 4.55 0 0 0-1.342 3.239c0 .837.238 1.631.654 2.331l-1.777 1.777c-1.758-1.042-4.062-.821-5.57.687L1.34 62.178a4.587 4.587 0 0 0 0 6.48 4.567 4.567 0 0 0 3.239 1.34 4.568 4.568 0 0 0 3.24-1.34l3.256-3.257c1.51-1.51 1.728-3.812.687-5.57l1.777-1.777a4.58 4.58 0 0 0 2.329.652 4.568 4.568 0 0 0 3.24-1.34l3.256-3.256a4.588 4.588 0 0 0 0-6.48c-.827-.826-1.95-1.29-3.157-1.306z"/>
    </g>
</svg>
