<svg xmlns="http://www.w3.org/2000/svg" width="60" height="60" viewBox="0 0 60 60">
    <g fill="none" fill-rule="evenodd">
        <path fill="#FFC80A" d="M41.613 24.194c-2.706 0-5.258.634-7.543 1.736a17.316 17.316 0 0 0 1.736-7.543c0-9.62-7.799-17.42-17.419-17.42-9.62 0-17.42 7.8-17.42 17.42 0 9.62 7.8 17.42 17.42 17.42 2.706 0 5.258-.635 7.543-1.737a17.316 17.316 0 0 0-1.736 7.543c0 9.62 7.799 17.42 17.419 17.42 9.62 0 17.42-7.8 17.42-17.42 0-9.62-7.8-17.42-17.42-17.42"/>
        <path fill="#393636" d="M49.355 18.387v-3.87h-9.678V12.58H51.29v1.935l5.161-3.87-5.16-3.872V8.71H39.676V6.774h9.678v-3.87l10.323 7.741-10.323 7.742M10.645 57.097L.322 49.355l10.323-7.742v3.87h9.678v1.936H8.71v-1.935l-5.161 3.87 5.16 3.872V51.29h11.614v1.936h-9.678v3.87"/>
        <path fill="#393636" d="M41.613 58.065c-9.072 0-16.452-7.38-16.452-16.452 0-9.072 7.38-16.452 16.452-16.452 9.072 0 16.452 7.38 16.452 16.452 0 9.072-7.38 16.452-16.452 16.452zm0-34.84c-4.912 0-9.37 1.949-12.673 5.099 2.45-2.6 3.963-6.091 3.963-9.937 0-3.482-1.262-6.854-3.553-9.497l-1.463 1.268a12.565 12.565 0 0 1 3.08 8.23c0 6.936-5.643 12.58-12.58 12.58a12.565 12.565 0 0 1-8.229-3.08L8.89 29.35a14.503 14.503 0 0 0 9.497 3.553c3.846 0 7.337-1.513 9.937-3.963-3.15 3.302-5.098 7.76-5.098 12.673C23.226 51.752 31.474 60 41.613 60 51.752 60 60 51.752 60 41.613c0-10.14-8.248-18.387-18.387-18.387z"/>
        <path fill="#393636" d="M43.548 40.645h-6.774V34.84h6.774c1.601 0 2.904 1.302 2.904 2.903 0 1.6-1.303 2.903-2.904 2.903zm2.904 4.839c0 1.6-1.303 2.903-2.904 2.903h-6.774v-5.806h6.774c1.601 0 2.904 1.302 2.904 2.903zm1.935-7.742A4.848 4.848 0 0 0 44.517 33v-2.033H42.58v1.935H38.71v-1.935h-1.936v1.935H34.84v17.42h1.935v1.935h1.936v-1.935h3.87v1.935h1.936v-2.033a4.835 4.835 0 1 0 1.933-8.612 4.835 4.835 0 0 0 1.938-3.871z"/>
        <path fill="#393636" d="M41.613 29.032c3.016 0 5.938 1.094 8.229 3.082l1.268-1.463a14.5 14.5 0 0 0-9.497-3.554c-8.004 0-14.516 6.512-14.516 14.516 0 3.483 1.262 6.854 3.553 9.496l1.463-1.268a12.557 12.557 0 0 1-3.08-8.228c0-6.937 5.643-12.58 12.58-12.58M52.575 32.116l-1.462 1.27a12.557 12.557 0 0 1 3.08 8.227c0 6.937-5.643 12.58-12.58 12.58a12.564 12.564 0 0 1-8.229-3.08l-1.269 1.462a14.503 14.503 0 0 0 9.498 3.554c8.004 0 14.516-6.512 14.516-14.516 0-3.483-1.262-6.855-3.554-9.497M25.161 15.484v-.968a4.844 4.844 0 0 0-4.838-4.839h-.968V7.742h-1.936v1.935h-.967a4.844 4.844 0 0 0-4.84 4.84 4.844 4.844 0 0 0 4.84 4.838h3.87c1.601 0 2.904 1.302 2.904 2.903 0 1.6-1.303 2.903-2.903 2.903h-3.871a2.907 2.907 0 0 1-2.904-2.903v-.968h-1.935v.968a4.844 4.844 0 0 0 4.839 4.839h.967v1.935h1.936v-1.935h.968a4.844 4.844 0 0 0 4.838-4.839 4.844 4.844 0 0 0-4.838-4.839h-3.871a2.907 2.907 0 0 1-2.904-2.903c0-1.6 1.303-2.903 2.904-2.903h3.87c1.601 0 2.904 1.302 2.904 2.903v.968h1.935"/>
        <path fill="#393636" d="M27.885 7.425a14.503 14.503 0 0 0-9.498-3.554c-8.004 0-14.516 6.512-14.516 14.516 0 3.482 1.262 6.855 3.554 9.498l1.462-1.27a12.565 12.565 0 0 1-3.08-8.228c0-6.937 5.643-12.58 12.58-12.58 3.016 0 5.938 1.093 8.229 3.08l1.269-1.462"/>
        <path fill="#393636" d="M18.387 34.839c-9.072 0-16.452-7.38-16.452-16.452 0-9.072 7.38-16.452 16.452-16.452 9.072 0 16.452 7.38 16.452 16.452 0 1.2-.144 2.438-.429 3.68l1.886.432c.318-1.384.478-2.767.478-4.112C36.774 8.248 28.526 0 18.387 0 8.248 0 0 8.248 0 18.387c0 10.14 8.248 18.387 18.387 18.387 1.341 0 2.724-.16 4.112-.477l-.43-1.886a16.631 16.631 0 0 1-3.682.428M45.484 18.387h1.935v-1.935h-1.935zM41.613 18.387h1.935v-1.935h-1.935zM16.452 43.548h1.935v-1.935h-1.935zM12.58 43.548h1.936v-1.935h-1.935z"/>
    </g>
</svg>
