<svg xmlns="http://www.w3.org/2000/svg" width="80" height="80" viewBox="0 0 80 80">
    <g fill="none" fill-rule="evenodd">
        <path fill="#FFC80A" d="M30.968 30.968h43.87V5.16h-43.87z"/>
        <path fill="#393636" d="M19.355 74.839h12.903v-2.58H19.355z"/>
        <path fill="#393636" d="M32.258 51.613c-1.458 0-2.79.504-3.87 1.324V6.452a3.876 3.876 0 0 1 3.87-3.871H77.42v49.032H32.26zM77.42 61.935H32.26a3.876 3.876 0 0 1-3.872-3.87 3.876 3.876 0 0 1 3.871-3.871H77.42v7.741zm-28.387 5.162H2.581V18.065h23.225v40a6.459 6.459 0 0 0 6.452 6.451h16.774v2.58zm-3.87 10.322H6.451a3.876 3.876 0 0 1-3.871-3.87v-3.872h46.451v3.871a3.876 3.876 0 0 1-3.87 3.871zM6.451 10.323h19.354v5.16H2.581v-1.29a3.876 3.876 0 0 1 3.87-3.87zM32.258 0a6.459 6.459 0 0 0-6.452 6.452v1.29H6.452A6.459 6.459 0 0 0 0 14.194v59.354A6.459 6.459 0 0 0 6.452 80h38.71a6.459 6.459 0 0 0 6.45-6.452v-9.032H80V0H32.258z"/>
        <path fill="#393636" d="M54.194 36.129h20.645v-2.58H54.194zM72.258 41.29h2.58v-2.58h-2.58zM54.194 41.29h15.483v-2.58H54.194zM72.258 59.355h2.58v-2.58h-2.58zM33.548 59.355h36.13v-2.58h-36.13zM5.161 64.516h2.58v-2.58h-2.58zM5.161 59.355h2.58V38.71h-2.58z"/>
    </g>
</svg>
