<svg xmlns="http://www.w3.org/2000/svg" width="60" height="60" viewBox="0 0 60 60">
    <g fill="none" fill-rule="evenodd">
        <path fill="#FFC80A" d="M32.903 18.387c0-3.207 2.6-5.806 5.807-5.806V3.87H7.742v17.42h25.944a5.778 5.778 0 0 1-.783-2.904"/>
        <path fill="#393636" d="M7.742 25.161h20.323v-1.935H7.742z"/>
        <path fill="#393636" d="M55.161 52.258H4.84a2.907 2.907 0 0 1-2.904-2.903v-.968h56.13v.968c0 1.6-1.303 2.903-2.904 2.903zm-39.677 5.807h29.032v-3.871H15.484v3.87zm33.87-27.097a4.844 4.844 0 0 1 4.84 4.838 4.844 4.844 0 0 1-4.84 4.84 4.844 4.844 0 0 1-4.838-4.84 4.844 4.844 0 0 1 4.839-4.838zM3.872 13.726v19.177h18.082a6.728 6.728 0 0 0-.663 2.903 6.782 6.782 0 0 0 6.775 6.775 6.782 6.782 0 0 0 6.774-6.775c0-1.04-.243-2.021-.663-2.903h8.405V26.6l2.482 3.972a6.759 6.759 0 0 0-2.482 5.235 6.782 6.782 0 0 0 6.774 6.775 6.782 6.782 0 0 0 6.774-6.775 6.782 6.782 0 0 0-6.774-6.774c-.935 0-1.827.19-2.638.535l-3.715-5.943a6.762 6.762 0 0 0 2.482-5.237 6.748 6.748 0 0 0-2.043-4.839h11.72c1.6 0 2.904 1.303 2.904 2.904v30H1.935v-30a2.9 2.9 0 0 1 1.936-2.726zm1.935-11.79h34.84v9.962a6.732 6.732 0 0 0-1.936-.285 6.782 6.782 0 0 0-6.775 6.774c0 1.636.584 3.138 1.553 4.31l-3.654 6.578a6.718 6.718 0 0 0-1.77-.243c-1.84 0-3.51.74-4.73 1.936H5.805V1.935zm32.904 21.29a4.844 4.844 0 0 1-4.839-4.839 4.844 4.844 0 0 1 4.839-4.839 4.844 4.844 0 0 1 4.838 4.84 4.844 4.844 0 0 1-4.838 4.838zm-5.914 7.742a6.834 6.834 0 0 0-1.179-.919l3.347-6.023a6.73 6.73 0 0 0 5.681.85v6.092h-7.85zm-4.731 0a4.844 4.844 0 0 1 4.838 4.838 4.844 4.844 0 0 1-4.838 4.84 4.844 4.844 0 0 1-4.84-4.84 4.844 4.844 0 0 1 4.84-4.838zM55.16 11.613h-12.58V0H3.87v11.71A4.848 4.848 0 0 0 0 16.453v32.903a4.844 4.844 0 0 0 4.839 4.839h8.71v3.87H9.676V60h40.646v-1.935h-3.871v-3.871h8.71A4.844 4.844 0 0 0 60 49.354V16.453a4.844 4.844 0 0 0-4.839-4.84z"/>
        <path fill="#393636" d="M26.128 29.032h1.936v-1.935h-1.936zM7.742 29.032h16.452v-1.935H7.742z"/>
    </g>
</svg>
