<svg xmlns="http://www.w3.org/2000/svg" width="60" height="61" viewBox="0 0 60 61">
    <g fill="none" fill-rule="evenodd">
        <path fill="#FFC80A" d="M48.283 31.103h-3.09l-.772 1.935h-.966l-.773-1.935H39.4l-.772 1.935h-.966l-.773-1.935h-3.283l-.772 1.935h-.966l-.773-1.935h-4.97c-1.423-2.867-4.366-4.84-7.776-4.84-4.8 0-8.691 3.9-8.691 8.711 0 4.812 3.89 8.712 8.69 8.712 3.412 0 6.355-1.973 7.777-4.84h22.16l2.896-3.872-2.897-3.871z"/>
        <path fill="#393636" d="M59.871 11.744C59.871 5.34 54.673.129 48.283.129H11.588C5.198.129 0 5.339 0 11.744c0 3.886 1.92 7.322 4.852 9.432-.008.083-.024.165-.024.247v29.038c0 1.601 1.3 2.904 2.897 2.904h9.657v4.84h-4.828v1.936h34.764v-1.936h-4.829v-4.84h9.657a2.904 2.904 0 0 0 2.897-2.904V21.423c0-.082-.015-.164-.023-.247 2.931-2.11 4.851-5.546 4.851-9.432zm-40.558 46.46h21.245v-4.839H19.313v4.84zm32.833-6.775H7.726a.968.968 0 0 1-.966-.968v-1.936h46.352v1.936a.968.968 0 0 1-.966.968zm.966-4.84H6.76v-24.3c1.471.68 3.104 1.07 4.828 1.07h36.695c1.725 0 3.357-.39 4.829-1.07v24.3zm-4.829-25.166H11.588c-5.324 0-9.657-4.342-9.657-9.679 0-5.337 4.333-9.68 9.657-9.68h36.695c5.325 0 9.657 4.343 9.657 9.68s-4.332 9.68-9.657 9.68z"/>
        <path fill="#393636" d="M21.245 8.84c0-3.203-2.599-5.807-5.794-5.807-3.196 0-5.794 2.604-5.794 5.807v.968H8.69v10.647h13.52V9.808h-.966V8.84zm-9.657 0a3.87 3.87 0 0 1 3.863-3.872 3.87 3.87 0 0 1 3.862 3.872v.968h-7.725V8.84zm-.966 9.68h9.657v-6.776h-9.657v6.776z"/>
        <path fill="#393636" d="M14.485 16.314v1.238h1.931v-1.238c.575-.335.966-.953.966-1.666a1.935 1.935 0 0 0-1.931-1.936 1.935 1.935 0 0 0-1.932 1.936c0 .713.392 1.33.966 1.666zM32.346 9.399l-2.41.785V7.872h-1.932v2.312l-2.41-.785-.596 1.84 2.41.785-1.489 2.054 1.561 1.14 1.49-2.056 1.49 2.055 1.562-1.139-1.49-2.054 2.41-.784zM42.002 9.399l-2.41.785V7.872h-1.931v2.312L35.25 9.4l-.597 1.84 2.41.785-1.49 2.054 1.563 1.14 1.49-2.056 1.49 2.055 1.56-1.139-1.488-2.054 2.41-.784zM51.659 9.399l-2.41.785V7.872h-1.931v2.312l-2.41-.785-.597 1.84 2.41.785-1.49 2.054 1.563 1.14 1.49-2.056 1.489 2.055 1.561-1.139-1.489-2.054 2.41-.784zM14.485 32.07a2.904 2.904 0 0 0 0 5.808 2.904 2.904 0 0 0 0-5.807zm0 3.872a.968.968 0 0 1 0-1.936.968.968 0 0 1 0 1.936z"/>
    </g>
</svg>
