<svg xmlns="http://www.w3.org/2000/svg" xmlns:xlink="http://www.w3.org/1999/xlink" width="80" height="80" viewBox="0 0 80 80">
    <defs>
        <path id="a" d="M.01.006H80V79.84H.01z"/>
    </defs>
    <g fill="none" fill-rule="evenodd">
        <path fill="#FFC80A" d="M24.516 34.769c0 6.4-5.2 11.59-11.613 11.59-6.413 0-11.613-5.19-11.613-11.59 0-6.401 5.2-11.59 11.613-11.59 6.414 0 11.613 5.189 11.613 11.59z"/>
        <g>
            <mask id="b" fill="#fff">
                <use xlink:href="#a"/>
            </mask>
            <path fill="#35302E" d="M65.806 14.165V4.199l10.986 9.966H65.806zM65.016 0H15.483v19.316h2.58V2.576h45.162V16.74H80v-3.144L65.015 0zM77.42 77.264H18.064v2.575H80V19.316h-2.58v57.948M13.44 76.893c-.169.443-.906.443-1.072 0l-2.764-7.356h6.599l-2.763 7.356zm-4.408-9.931h2.58V52.797h-2.58v14.165zm0-19.91a12.909 12.909 0 0 0 7.742 0v3.17H9.032v-3.17zm3.871-9.708a2.58 2.58 0 0 1-2.58-2.575 2.58 2.58 0 0 1 5.16 0 2.58 2.58 0 0 1-2.58 2.575zM2.581 34.77c0-5.68 4.63-10.302 10.322-10.302 5.692 0 10.323 4.621 10.323 10.302 0 5.243-3.949 9.575-9.032 10.213v-5.245c2.22-.576 3.87-2.575 3.87-4.968 0-2.841-2.314-5.151-5.16-5.151-2.847 0-5.162 2.31-5.162 5.15 0 2.394 1.65 4.393 3.87 4.969v5.245c-5.083-.638-9.031-4.97-9.031-10.213zm11.613 32.193h2.58V52.797h-2.58v14.165zm5.16-14.165h2.581V50.22h-2.58v-4.317c3.85-2.23 6.451-6.381 6.451-11.135 0-7.1-5.788-12.878-12.903-12.878S0 27.668 0 34.77c0 4.753 2.601 8.903 6.452 11.135v4.317H3.87v2.576h2.58v15.687l3.501 9.314a3.167 3.167 0 0 0 2.951 2.041 3.17 3.17 0 0 0 2.952-2.041l3.5-9.314V52.797z" mask="url(#b)"/>
        </g>
        <path fill="#35302E" d="M74.839 19.316h-2.58v16.74H28.386v2.576H74.84V19.316M20.645 21.891h2.58V7.726h36.13V5.151h-38.71v16.74"/>
        <path fill="#FFC80A" d="M52.903 12.233l-10.322 5.151-7.742-2.575-14.194 5.15v2.454c2.314 1.17 4.005 2.59 5.073 4.26 1.067 1.67 1.893 3.724 2.477 6.164h32.45V14.809l-7.742-2.576z"/>
        <path fill="#2D2E2C" d="M23.226 7.726h34.839v5.825l-5.221-2.085-3.974 1.983a7.658 7.658 0 0 0-4.999-1.86 7.748 7.748 0 0 0-6.463 3.502l-2.57-1.025-11.612 4.637V7.726zm18.809 9.211l-2.151-.858a5.15 5.15 0 0 1 3.987-1.914c.846 0 1.655.212 2.378.592l-4.245 2.119.03.061zm5.228 4.863l.958-2.391-3.067-1.224 7.809-3.895 7.682 3.065V5.15h-40v17.355L34.84 16.84 47.263 21.8z"/>
        <path fill="#35302E" d="M74.839 41.207H49.032v28.33h2.58V43.783H74.84v-2.576"/>
        <path fill="#35302E" d="M49.032 72.113v2.575H74.84v-28.33h-2.58v25.755H49.031M43.871 74.688h2.58v-2.575h-2.58zM20.645 74.688H41.29v-2.575H20.645zM21.935 69.537h24.517v-2.575H21.935zM21.935 64.386h24.517v-2.575H21.935zM21.935 59.235h24.517V56.66H21.935zM24.516 54.085h21.936v-2.576H24.516zM24.516 48.934h21.936v-2.576H24.516zM27.097 43.783h2.58v-2.576h-2.58zM32.258 43.783h14.194v-2.576H32.258z"/>
    </g>
</svg>
