<svg xmlns="http://www.w3.org/2000/svg" width="39" height="25" viewBox="0 0 39 25">
    <path fill="#FFF" fill-rule="evenodd" d="M37.78 2.38c-5.865 0-10.931 3.394-13.26 8.275a8.011 8.011 0 0 1 4.118-1.13c4.369 0 7.928 3.471 7.928 7.738s-3.559 7.738-7.928 7.738c-4.368 0-7.921-3.471-7.921-7.738 0-.152.005-.302.014-.452-.005-.047-.014-.093-.014-.141C20.717 7.478 28.371.003 37.78.003c.678 0 1.22.528 1.22 1.184 0 .665-.542 1.193-1.22 1.193zm-20.718 0c-5.867 0-10.937 3.396-13.266 8.28a8.004 8.004 0 0 1 4.125-1.135c4.368 0 7.921 3.471 7.921 7.738s-3.553 7.738-7.921 7.738S0 21.53 0 17.263c0-.152.005-.302.014-.451C.009 16.765 0 16.718 0 16.67 0 7.478 7.653.003 17.062.003c.673 0 1.221.528 1.221 1.184 0 .665-.548 1.193-1.221 1.193z"/>
</svg>
