<svg xmlns="http://www.w3.org/2000/svg" xmlns:xlink="http://www.w3.org/1999/xlink" width="56" height="100" viewBox="0 0 56 100">
    <defs>
        <path id="a" d="M.026.436h9.818v22.926H.026z"/>
    </defs>
    <g fill="none" fill-rule="evenodd">
        <path fill="#FFC80A" d="M38.628 64.248l-.894-1.912H18.047l-.894 1.912C11.117 77.158 15.735 92.533 27.891 100c12.156-7.467 16.773-22.843 10.737-35.752z"/>
        <path fill="#424242" d="M54.464 69.732l-2.062-16.447-8.186-6.537a4.79 4.79 0 0 0 .08-.788c0-2.132-1.376-3.933-3.28-4.61v-3.197c5.15-4.028 8.203-10.228 8.203-16.756C49.219 9.659 39.65.109 27.89.109c-11.76 0-21.328 9.55-21.328 21.288 0 6.53 3.052 12.728 8.203 16.756v3.196c-1.904.68-3.282 2.48-3.282 4.611 0 .27.038.53.08.787L3.38 53.283 1.318 69.732l15.466-5.79c1.538 5.582 5.16 10.793 10.134 14.448l.973.719.972-.717c4.975-3.654 8.598-8.866 10.134-14.448l15.467 5.788zM39.375 52.51a1.64 1.64 0 0 1-1.64 1.638H18.046a1.64 1.64 0 0 1-1.64-1.638 1.64 1.64 0 0 1 1.64-1.637h19.687c.906 0 1.641.735 1.641 1.637zm-22.969 6.55a1.64 1.64 0 0 1 1.64-1.637h19.688c.906 0 1.641.735 1.641 1.638a1.64 1.64 0 0 1-1.64 1.637H18.046a1.64 1.64 0 0 1-1.64-1.637zm34.13 5.705l-8.582-3.214a4.855 4.855 0 0 0 .702-2.49 4.876 4.876 0 0 0-1.28-3.275 4.868 4.868 0 0 0 1.28-3.276c0-.878-.25-1.692-.658-2.408.214-.135.409-.292.597-.457l6.721 5.366 1.22 9.754zM9.844 21.397c0-9.931 8.097-18.013 18.047-18.013 9.951 0 18.047 8.082 18.047 18.013 0 5.762-2.812 11.224-7.522 14.61l-.682.491v4.551h-3.28V24.672h1.64c2.714 0 4.923-2.204 4.923-4.913 0-2.708-2.21-4.912-4.923-4.912-2.712 0-4.922 2.204-4.922 4.912v1.638h-6.563v-1.638a4.923 4.923 0 0 0-9.843 0 4.923 4.923 0 0 0 4.921 4.913h1.641v16.376h-3.281v-4.551l-.68-.49c-4.71-3.386-7.523-8.85-7.523-14.61zm14.765 19.65h6.563V24.673h-6.563v16.376zm9.844-19.65v-1.638a1.64 1.64 0 0 1 3.281 0 1.64 1.64 0 0 1-1.64 1.638h-1.64zm-13.125 0h-1.64a1.64 1.64 0 0 1-1.641-1.638 1.64 1.64 0 0 1 3.281 0v1.638zm-4.922 22.926h22.969c.906 0 1.64.735 1.64 1.637s-.734 1.64-1.64 1.64H16.406c-.905 0-1.64-.738-1.64-1.64a1.64 1.64 0 0 1 1.64-1.637zM6.465 55.01l6.722-5.366c.187.165.383.32.596.457a4.856 4.856 0 0 0-.658 2.408c0 1.262.494 2.404 1.28 3.276a4.867 4.867 0 0 0-1.28 3.275c0 .912.266 1.756.704 2.49l-8.583 3.214 1.219-9.754zM27.89 75.003c-3.632-2.955-6.35-6.854-7.704-11.03h15.41c-1.357 4.178-4.073 8.077-7.706 11.03zM45.938 93.45h3.28V75.435h-3.28zM45.938 100h3.28v-3.276h-3.28zM52.5 88.537h3.281V73.799H52.5zM52.5 96.724h3.281v-4.912H52.5z"/>
        <g transform="translate(0 73.362)">
            <mask id="b" fill="#fff">
                <use xlink:href="#a"/>
            </mask>
            <path fill="#424242" d="M6.563 23.362h3.28V2.074h-3.28zM.026 16.812h3.255V.436H.026zM.026 23.362h3.255v-3.275H.026z" mask="url(#b)"/>
        </g>
    </g>
</svg>
