<svg xmlns="http://www.w3.org/2000/svg" xmlns:xlink="http://www.w3.org/1999/xlink" width="90" height="86" viewBox="0 0 90 86">
    <defs>
        <path id="a" d="M.011.134h89.93v85.855H.01z"/>
    </defs>
    <g fill="none" fill-rule="evenodd">
        <path fill="#FFC80A" d="M61.177 47.019c0 9.145-7.45 16.56-16.638 16.56-9.19 0-16.639-7.415-16.639-16.56 0-9.146 7.45-16.56 16.639-16.56s16.638 7.414 16.638 16.56z"/>
        <g fill="#333" stroke="#333" stroke-width=".5">
            <path d="M46.912 58.341h-3.374V45.743a.841.841 0 0 0-.844-.84h-.844v-1.68h5.062v15.118zm.844-16.797h-6.75a.841.841 0 0 0-.843.84v3.36c0 .464.377.84.843.84h.844V59.18c0 .464.377.84.844.84h5.062a.841.841 0 0 0 .844-.84V42.384a.841.841 0 0 0-.844-.84zM45.225 38.185c-.93 0-1.687-.754-1.687-1.68 0-.926.757-1.68 1.687-1.68s1.687.754 1.687 1.68c0 .926-.757 1.68-1.687 1.68zm0-5.04a3.37 3.37 0 0 0-3.375 3.36 3.37 3.37 0 0 0 3.375 3.36 3.37 3.37 0 0 0 3.375-3.36 3.37 3.37 0 0 0-3.375-3.36z"/>
        </g>
        <g>
            <mask id="b" fill="#fff">
                <use xlink:href="#a"/>
            </mask>
            <path fill="#333" d="M31.425 19.74a1.61 1.61 0 0 1 .755-1.21c2.43-1.523 6.624-3.341 12.79-3.341 6.168 0 10.36 1.818 12.791 3.343.581.365.723.913.755 1.21a1.706 1.706 0 0 1-.495 1.407c-.568.564-1.453.665-2.102.24a19.076 19.076 0 0 0-4.414-2.139l-1.996-.672v4.138h-9.076v-4.138l-1.997.67a19.076 19.076 0 0 0-4.414 2.139c-.65.429-1.535.325-2.102-.24a1.706 1.706 0 0 1-.495-1.407zM40.433 7.66c0-2.49 2.036-4.516 4.538-4.516 2.502 0 4.538 2.026 4.538 4.516s-2.036 4.517-4.538 4.517c-2.502 0-4.538-2.027-4.538-4.517zM35.69 23.898c.544-.358 1.12-.685 1.717-.977v2.806h15.126v-2.806c.597.292 1.17.619 1.717.977 1.845 1.216 4.326.954 5.91-.622a4.69 4.69 0 0 0 1.362-3.87 4.617 4.617 0 0 0-2.15-3.42c-1.938-1.217-4.873-2.583-8.812-3.3 1.213-1.336 1.973-3.087 1.973-5.025 0-4.15-3.393-7.527-7.563-7.527s-7.563 3.377-7.563 7.527c0 1.938.759 3.689 1.97 5.024-3.938.718-6.873 2.084-8.812 3.302a4.624 4.624 0 0 0-2.15 3.419 4.698 4.698 0 0 0 1.364 3.87c1.583 1.575 4.065 1.835 5.91.622zM14.003 50.173c-.708-2.772-1.15-7.302.758-13.141 1.906-5.839 4.939-9.244 7.147-11.072.362-.3.743-.378 1.04-.378a1.715 1.715 0 0 1 1.537.94c.365.713.19 1.58-.419 2.062a18.995 18.995 0 0 0-3.407 3.52l-1.257 1.682 3.954 1.28-2.805 8.59-3.954-1.279.024 2.098c.02 1.662.249 3.29.68 4.838.208.747-.162 1.55-.88 1.915-.471.238-1.017.25-1.495.033a1.612 1.612 0 0 1-.923-1.088zm-7.838-11.17a4.493 4.493 0 0 1-2.64-2.245 4.463 4.463 0 0 1-.272-3.446c.622-1.906 2.407-3.121 4.319-3.121.464 0 .934.072 1.399.221 2.378.768 3.684 3.32 2.913 5.688l-.002.001-.001.005c-.771 2.366-3.334 3.667-5.716 2.896zm11.627 14.91c1.994-1.01 3.013-3.283 2.425-5.404-.176-.626-.31-1.27-.405-1.927l2.68.867 4.675-14.318-2.68-.866c.463-.474.953-.917 1.464-1.325 1.73-1.368 2.246-3.8 1.23-5.785a4.725 4.725 0 0 0-3.275-2.486 4.674 4.674 0 0 0-3.934.977c-1.762 1.46-3.974 3.812-5.875 7.319-.935-1.617-2.396-2.835-4.193-3.416-3.962-1.28-8.24.885-9.53 4.832a7.44 7.44 0 0 0 .454 5.744 7.51 7.51 0 0 0 4.402 3.74c.77.249 1.558.372 2.346.372a7.555 7.555 0 0 0 3.06-.663c-.526 3.94-.128 7.132.434 9.34a4.638 4.638 0 0 0 2.606 3.092 4.763 4.763 0 0 0 4.116-.094zM39.949 76.622c-.201.219-.614.58-1.327.535-2.866-.187-7.331-1.167-12.321-4.775-4.992-3.612-7.308-7.535-8.373-10.19v-.001a1.61 1.61 0 0 1 .103-1.418 1.711 1.711 0 0 1 1.502-.869c.694 0 1.33.414 1.57 1.056a18.982 18.982 0 0 0 2.307 4.311l1.22 1.712 2.444-3.348 7.342 5.31-2.442 3.346 2.01.625c1.589.495 3.215.783 4.833.854.778.033 1.433.633 1.56 1.422a1.702 1.702 0 0 1-.428 1.43zm-14.421 4.503a4.523 4.523 0 0 1-2.964 1.807 4.543 4.543 0 0 1-3.376-.807 4.496 4.496 0 0 1-1.815-2.948 4.47 4.47 0 0 1 .811-3.36 4.523 4.523 0 0 1 3.682-1.862c.95 0 1.874.296 2.657.864a4.509 4.509 0 0 1 1.005 6.306zm13.424-10.362c-.656-.03-1.313-.1-1.97-.214l1.658-2.271-12.235-8.848-1.66 2.27a15.587 15.587 0 0 1-.81-1.796c-.776-2.058-2.938-3.306-5.149-2.952a4.723 4.723 0 0 0-3.387 2.332 4.613 4.613 0 0 0-.283 4.024c.849 2.118 2.415 4.941 5.178 7.825-1.835.386-3.449 1.392-4.559 2.912a7.449 7.449 0 0 0-1.352 5.602 7.472 7.472 0 0 0 3.023 4.912 7.525 7.525 0 0 0 5.63 1.346 7.528 7.528 0 0 0 4.938-3.01c1.143-1.566 1.562-3.427 1.37-5.216 3.612 1.724 6.792 2.334 9.079 2.484a4.663 4.663 0 0 0 3.759-1.511 4.692 4.692 0 0 0 1.18-3.928c-.349-2.2-2.205-3.865-4.41-3.96zM72.57 79.177a4.54 4.54 0 0 1-5.191 3.755 4.523 4.523 0 0 1-2.964-1.807 4.507 4.507 0 0 1 1.006-6.308 4.552 4.552 0 0 1 6.338 1c.712.976 1 2.168.81 3.36zm-21.25-2.02a1.59 1.59 0 0 1-1.327-.535 1.703 1.703 0 0 1-.43-1.425c.127-.79.783-1.391 1.561-1.424a19.12 19.12 0 0 0 4.833-.854l2.008-.625-2.44-3.346 7.341-5.31 2.445 3.348 1.219-1.712a18.923 18.923 0 0 0 2.307-4.311c.272-.725 1.043-1.152 1.843-1.036.52.083.97.391 1.229.847.148.258.357.785.103 1.42-1.065 2.654-3.381 6.576-8.373 10.188-4.988 3.608-9.454 4.588-12.32 4.775zm18.326-6.024c2.763-2.886 4.329-5.707 5.177-7.823a4.61 4.61 0 0 0-.282-4.026 4.73 4.73 0 0 0-3.387-2.332c-2.209-.352-4.375.894-5.149 2.952-.228.61-.5 1.21-.81 1.796l-1.66-2.27-12.236 8.848 1.658 2.271c-.656.113-1.313.184-1.968.214-2.205.096-4.063 1.762-4.413 3.961a4.695 4.695 0 0 0 1.18 3.926 4.668 4.668 0 0 0 3.76 1.512c2.287-.15 5.468-.76 9.078-2.484-.192 1.788.227 3.649 1.37 5.216h.002a7.518 7.518 0 0 0 4.936 3.01 7.528 7.528 0 0 0 5.63-1.346 7.472 7.472 0 0 0 3.024-4.913 7.442 7.442 0 0 0-1.353-5.601c-1.108-1.518-2.722-2.525-4.557-2.91zM86.416 36.758a4.493 4.493 0 0 1-2.64 2.244c-2.38.771-4.947-.533-5.719-2.9-.774-2.367.534-4.922 2.914-5.69.464-.15.934-.221 1.399-.221 1.913 0 3.697 1.216 4.318 3.122a4.453 4.453 0 0 1-.272 3.445zM75.938 50.173c-.168.662-.65.968-.92 1.09a1.712 1.712 0 0 1-1.497-.035c-.717-.363-1.087-1.167-.879-1.913a18.84 18.84 0 0 0 .68-4.84l.024-2.098-3.954 1.279-2.805-8.59 3.954-1.28-1.257-1.682a18.954 18.954 0 0 0-3.41-3.52c-.606-.481-.783-1.349-.417-2.062.24-.47.674-.798 1.19-.905a1.628 1.628 0 0 1 1.39.343c2.208 1.83 5.24 5.235 7.146 11.073 1.903 5.84 1.462 10.368.755 13.14zm13.627-17.79c-1.288-3.95-5.57-6.114-9.53-4.834-1.796.58-3.257 1.799-4.192 3.416-1.903-3.507-4.114-5.86-5.875-7.319a4.67 4.67 0 0 0-3.934-.977 4.725 4.725 0 0 0-3.275 2.486c-1.017 1.983-.5 4.417 1.228 5.785.513.408 1.003.85 1.466 1.325l-2.68.866 4.675 14.318 2.68-.867c-.093.658-.228 1.301-.405 1.929-.59 2.12.43 4.391 2.423 5.4.68.345 1.419.52 2.157.52.666 0 1.333-.142 1.96-.424a4.646 4.646 0 0 0 2.607-3.092h.001c.563-2.207.96-5.4.433-9.34a7.535 7.535 0 0 0 3.06.664c.788 0 1.577-.123 2.346-.372a7.505 7.505 0 0 0 4.402-3.741 7.434 7.434 0 0 0 .453-5.743z" mask="url(#b)"/>
        </g>
    </g>
</svg>
