<svg xmlns="http://www.w3.org/2000/svg" width="60" height="60" viewBox="0 0 60 60">
    <g fill="none" fill-rule="evenodd">
        <path fill="#FFC80A" d="M3.858 32.857H34.72V11.73H3.858z"/>
        <path fill="#393636" d="M0 59.748h59.795V.204H0v59.544zm1.93-51.86h55.936V2.124H1.929v5.762zm0 49.939h55.936V9.807H1.929v48.02z"/>
        <path fill="#393636" d="M5.787 5.006c0 .53-.432.961-.965.961a.963.963 0 0 1-.964-.961c0-.53.432-.96.964-.96.533 0 .965.43.965.96zM8.68 5.006c0 .53-.432.961-.964.961a.962.962 0 0 1-.965-.961c0-.53.432-.96.965-.96.532 0 .964.43.964.96zM11.573 5.006c0 .53-.432.961-.964.961a.963.963 0 0 1-.965-.961c0-.53.432-.96.965-.96.532 0 .964.43.964.96zM15.431 16.795V27.79l9.66-5.495-9.66-5.499zm1.928 3.312l3.843 2.187-3.843 2.185v-4.372zM36.649 13.649h19.288v-1.92H36.65zM36.649 18.45h19.288v-1.92H36.65zM36.649 23.254h19.288v-1.922H36.65zM36.649 28.055h19.288v-1.921H36.65zM36.649 32.857h19.288v-1.92H36.65zM3.858 37.659h52.08v-1.92H3.857zM3.858 51.105h15.43V40.54H3.859v10.565zm1.928-1.921H17.36v-6.722H5.786v6.722zM3.858 55.907h52.08v-1.922H3.857zM22.183 51.105h15.43V40.54h-15.43v10.565zm1.928-1.921h11.573v-6.722H24.111v6.722zM40.506 51.105h15.431V40.54h-15.43v10.565zm1.93-1.921h11.572v-6.722H42.436v6.722z"/>
    </g>
</svg>
