<svg xmlns="http://www.w3.org/2000/svg" xmlns:xlink="http://www.w3.org/1999/xlink" width="731" height="576" viewBox="0 0 731 576">
    <defs>
        <path id="a" d="M84.523 46.616c.046-2.822.077-5.733.098-8.437a.224.224 0 0 1 .022.01c.05-4.043.002-2.702.014-5.824.014-3.565.012-5.98.012-5.98 0-3.135-4.005-4.759-7.311-6.412a.11.11 0 0 0-.05-.013c-.135 0-.274.3-1.324.611-.48.143-1.064.206-1.708.206-2.393 0-5.63-.874-7.591-1.828a.29.29 0 0 0-.123-.02c-1.465 0-12.691 4.481-11.954 13.58 0 0 2.916 6.51 4.676 13.69A572.198 572.198 0 0 1 .644 40.9C-.787 32.143 8.418 26.982 16.25 26.982c3.772 0 7.226 1.196 9.022 3.764-1.77-12.391 8.221-28.64 25.362-30.04a57.246 57.246 0 0 1 5.318-.264C81.967.442 74.53 21.772 89.16 22.1c10.227-.193 7.605-10.903 17.386-13.046v37.017c-7.339.323-14.678.505-22.022.545z"/>
        <path id="b" d="M.16 31.31c-1.603-9.904 14.437-13.781 18.616-7.75C17.437 14.1 24.988 1.694 37.944.626c24.453-2.314 17.364 16.066 29.118 16.331C77.8 16.754 69.796 1.056 94.218 8.92c5.845 1.758 8.81 8.369 12.94 16.538 8.368-9.312 13.497-3.247 15.034 5.853a428.141 428.141 0 0 1-122.031 0z"/>
        <path id="c" d="M.346 3.656C.36 3.097.406 1.08.334.731.317.646.302.588.302.588L.336.59c.135.666.128 1.79.01 3.067"/>
        <path id="e" d="M.456 5.815l.005-.129c.157-1.15.167-2.16-.012-2.76h.007c.21 0 1.04-.03 2.095-.45.343-.077.569-.13.613-.133.008-.002.018-.06.03-.161l.031-.016c.574-.297 1.384-1.155 1.81-1.635L.456 5.815zM5.036.531l.29-.334s-.113.134-.29.334z"/>
        <path id="g" d="M.416.566A5 5 0 0 0 .898.321a.45.45 0 0 1-.023.134C.843.457.673.502.416.566"/>
        <path id="i" d="M5.782.468C6.224.098.385 8.633.385 8.633s.386-5.594-.355-5.4c-.232.064 2.31.123 5.752-2.765z"/>
        <path id="k" d="M9.152 9.353L.266.461l11.712.09 8.885 8.894z"/>
        <path id="m" d="M8.606 9.692L.224.242l4.002.036 8.38 9.447z"/>
        <path id="o" d="M6.54.19C6.999-.21.888 8.983.888 8.983s.4-6.025-.376-5.817C.267 3.232 2.929 3.303 6.54.19z"/>
        <path id="q" d="M5.482.032c.376-.48-4.217 7.585-4.217 7.585S.92 4.553.247 4.112c-.074-.047 2.3-.333 5.235-4.08z"/>
        <path id="s" d="M.254 6.384C.25 6.38.244 6.376.237 6.373.251 4.228.26 2.213.265.469c-.01 3.17.03 1.808-.01 5.915z"/>
        <path id="u" d="M.378.183C-.02-.158 5.24 7.728 5.24 7.728s-.382-3.877.251-4.976c.06-.103-2.007.102-5.114-2.569z"/>
    </defs>
    <g fill="none" fill-rule="evenodd">
        <path fill="#1A4B76" d="M582.082 149.28c-3.651-.93-7.534-1.469-11.538-1.605l.033-.982c4.075.137 8.028.688 11.746 1.635l-.241.952zm-34.58 1.727l-.295-.938a75.215 75.215 0 0 1 11.54-2.676l.144.973a73.997 73.997 0 0 0-11.388 2.64zm54.64 9.523a40.76 40.76 0 0 0-9.246-7l.475-.86a41.725 41.725 0 0 1 9.47 7.169l-.699.691zm-75.653.648l-.548-.816a84.407 84.407 0 0 1 10.265-5.909l.428.886a83.15 83.15 0 0 0-10.145 5.839zm-17.313 15.67l-.757-.626a80.998 80.998 0 0 1 8.19-8.564l.657.73a80.028 80.028 0 0 0-8.09 8.46zm104.24 3.805c-1.086-3.892-2.552-7.526-4.355-10.8l.858-.476c1.841 3.342 3.336 7.046 4.442 11.01l-.945.266zm-116.142 16.266l-.912-.363a75.243 75.243 0 0 1 5.235-10.639l.843.503a74.167 74.167 0 0 0-5.166 10.499zm119.48 6.987l-.98-.04c.054-1.315.08-2.63.08-3.908 0-2.68-.12-5.306-.355-7.807l.977-.093c.239 2.532.36 5.19.36 7.9 0 1.291-.028 2.62-.081 3.948zm-3.32 23.417l-.956-.22c.907-3.95 1.64-7.835 2.182-11.55l.972.143a147.184 147.184 0 0 1-2.197 11.627zm3.727 19.92l-.216-.96c3.993-.902 7.947-1.426 11.75-1.555l.033.982c-3.742.128-7.634.643-11.567 1.533zm-10.467 2.734l-.924-.333a219.23 219.23 0 0 0 3.689-11.174l.94.282a221.005 221.005 0 0 1-3.705 11.225zm44.68.225a47.634 47.634 0 0 0-11.051-3.6l.188-.964c3.9.76 7.693 1.996 11.278 3.674l-.416.89zm18.232 14.28c-2.592-3.064-5.403-5.803-8.354-8.141l.608-.77c3.003 2.377 5.861 5.162 8.495 8.275l-.75.636zm12.074 19.985c-1.583-3.696-3.367-7.212-5.306-10.45l.844-.505c1.959 3.276 3.76 6.832 5.363 10.568l-.901.387zm6.807 22.438c-.77-3.911-1.72-7.747-2.816-11.402l.939-.284a121.956 121.956 0 0 1 2.84 11.496l-.963.19zm2.547 23.352c-.107-3.948-.37-7.894-.783-11.731l.977-.105a149.1 149.1 0 0 1 .788 11.81l-.982.026zm-.2 23.597l-.977-.123a156.39 156.39 0 0 0 1.033-11.715l.982.05c-.2 3.923-.55 7.89-1.039 11.788zm-4.737 23.174l-.945-.27a152.6 152.6 0 0 0 2.79-11.424l.964.198a154.537 154.537 0 0 1-2.81 11.496zm-8.31 22.14l-.888-.42a139.81 139.81 0 0 0 4.58-10.824l.914.346a139.062 139.062 0 0 1-4.605 10.899zm-11.995 20.37l-.795-.576a124.118 124.118 0 0 0 6.416-9.83l.846.498a124.955 124.955 0 0 1-6.467 9.908zm-15.703 17.654l-.662-.728a111.429 111.429 0 0 0 8.233-8.346l.735.653a112.931 112.931 0 0 1-8.306 8.42zM631.004 451.1l-.487-.855a106.118 106.118 0 0 0 9.833-6.368l.577.796a107.51 107.51 0 0 1-9.923 6.427zm-21.64 9.415l-.293-.939a110.88 110.88 0 0 0 10.975-4.085l.39.901c-3.575 1.554-7.3 2.94-11.072 4.123zm-23.094 4.805l-.11-.977a127.133 127.133 0 0 0 11.571-1.831l.199.962c-3.786.783-7.71 1.404-11.66 1.846zm-11.885.809l-.027-.983.104-.003.026.983-.103.003zM304.608 14.493c-3.691-.345-7.42-.52-11.084-.52l-.549.002-.004-.979.553-.001c3.694 0 7.453.176 11.174.522l-.09.976zm-34.754 1.964l-.204-.957c3.78-.815 7.682-1.44 11.598-1.858l.102.973c-3.88.415-7.748 1.034-11.496 1.842zm57.614 2.375a126.405 126.405 0 0 0-11.33-2.706l.182-.962c3.816.727 7.657 1.644 11.418 2.728l-.27.94zm-79.627 5.075l-.419-.884a97.997 97.997 0 0 1 10.897-4.41l.31.928a96.75 96.75 0 0 0-10.788 4.366zm101.33 3.364a132.645 132.645 0 0 0-10.666-4.707l.352-.913c3.621 1.41 7.237 3.005 10.746 4.742l-.431.878zM228.39 36.58l-.638-.74a83.8 83.8 0 0 1 9.404-7.079l.529.822a82.86 82.86 0 0 0-9.295 6.996zm-14.943 17.717l-.835-.506a73.594 73.594 0 0 1 6.87-9.576l.744.634a72.582 72.582 0 0 0-6.78 9.448zm-8.528 21.573l-.953-.207a72.72 72.72 0 0 1 3.42-11.292l.906.36a71.707 71.707 0 0 0-3.373 11.139zm-2.411 23.278a87.15 87.15 0 0 1-.28-6.912c0-1.63.049-3.273.145-4.884l.973.059a81.781 81.781 0 0 0-.142 4.825c0 2.243.092 4.543.276 6.834l-.972.078zm4.682 23.068a110.799 110.799 0 0 1-3.004-11.396l.955-.197a109.497 109.497 0 0 0 2.978 11.293l-.929.3zm9.164 21.666a148.88 148.88 0 0 1-5.045-10.633l.897-.384a147.84 147.84 0 0 0 5.011 10.563l-.863.454zm12.266 20.05a196.89 196.89 0 0 1-6.454-9.825l.83-.514a196.52 196.52 0 0 0 6.422 9.777l-.798.562zm14.435 18.53a255.52 255.52 0 0 1-7.444-9.085l.768-.604a254.118 254.118 0 0 0 7.415 9.05l-.739.64zm-2.286 14.467l-.498-.84a218.196 218.196 0 0 1 10.237-5.732l.452.867a218.315 218.315 0 0 0-10.191 5.705zm-19.17 13.295l-.615-.76a145.097 145.097 0 0 1 9.403-7.042l.552.806a144.57 144.57 0 0 0-9.34 6.996zm-16.305 16.59l-.777-.59c2.253-2.985 4.858-5.97 7.743-8.875l.69.691c-2.854 2.874-5.43 5.826-7.656 8.775zm-10.248 20.695l-.947-.23c.895-3.692 2.287-7.416 4.136-11.071l.869.444c-1.815 3.587-3.18 7.24-4.058 10.857zm-.047 23.178a41.7 41.7 0 0 1-2.118-11.638l.974-.036c.141 3.84.837 7.664 2.069 11.365l-.925.31zm12.664 19.751c-2.89-2.849-5.411-5.918-7.496-9.12l.815-.535c2.047 3.143 4.524 6.157 7.364 8.958l-.683.697zm19.36 13.286a74.558 74.558 0 0 1-10.236-5.82l.548-.81a73.672 73.672 0 0 0 10.102 5.744l-.413.886zm57.422 4.472l-.28-.936a73.62 73.62 0 0 0 10.824-4.217l.423.881a74.435 74.435 0 0 1-10.967 4.272zm-34.958 2.323a83.365 83.365 0 0 1-11.473-2.59l.281-.937a82.464 82.464 0 0 0 11.338 2.56l-.146.967zm12.44.947l-.713-.001.007-.98.706.003c3.656 0 7.321-.252 10.89-.75l.134.969c-3.613.504-7.322.76-11.024.76z"/>
        <path fill="#FFC80A" d="M471.585 366.03l-2.516 2.516 22.087 22.088 2.516-2.517-22.087-22.087m-4.19 2.516l4.19-4.19 23.76 23.761-4.19 4.19-23.76-23.76"/>
        <path fill="#FFC80A" d="M491.156 366.03l-22.087 22.087 2.516 2.517 22.087-22.088-2.516-2.516m-23.76 22.087l23.76-23.76 4.19 4.19-23.76 23.76-4.19-4.19"/>
        <path fill="#FFC80A" d="M471.585 344.069l-2.516 2.516 22.087 22.087 2.516-2.516-22.087-22.087m-4.19 2.516l4.19-4.19 23.76 23.76-4.19 4.19-23.76-23.76"/>
        <path fill="#FFC80A" d="M491.156 344.069l-22.087 22.087 2.516 2.516 22.087-22.087-2.516-2.516m-23.76 22.087l23.76-23.76 4.19 4.189-23.76 23.76-4.19-4.19"/>
        <path fill="#FFC80A" d="M471.585 321.11l-2.516 2.515 22.087 22.088 2.516-2.515-22.087-22.089m-4.19 2.516l4.19-4.19 23.76 23.763-4.19 4.188-23.76-23.76"/>
        <path fill="#FFC80A" d="M491.156 321.11l-22.087 22.088 2.516 2.515 22.087-22.088-2.516-2.516zm-23.76 22.088l23.76-23.762 4.19 4.19-23.761 23.76-4.19-4.188z"/>
        <path fill="#FFC80A" d="M471.585 298.152l-2.516 2.514 22.087 22.087 2.516-2.516-22.087-22.085zm-4.19 2.514l4.19-4.19 23.76 23.761-4.19 4.19-23.76-23.761z"/>
        <path fill="#FFC80A" d="M491.156 298.152l-22.087 22.085 2.516 2.516 22.087-22.087-2.516-2.514zm-23.76 22.085l23.76-23.76 4.19 4.189-23.761 23.76-4.19-4.189z"/>
        <path fill="#FFC80A" d="M471.585 276.189l-2.516 2.514 22.087 22.089 2.516-2.514-22.087-22.09m-4.19 2.515l4.19-4.188 23.76 23.763-4.19 4.188-23.76-23.763"/>
        <path fill="#FFC80A" d="M491.156 276.189l-22.087 22.089 2.516 2.514 22.087-22.09-2.516-2.513m-23.76 22.089l23.76-23.763 4.19 4.188-23.76 23.763-4.19-4.188"/>
        <path fill="#FFC80A" d="M471.585 252.23l-2.516 2.515 22.087 22.09 2.516-2.515-22.087-22.09zm-4.19 2.515l4.19-4.188 23.76 23.763-4.19 4.188-23.76-23.763z"/>
        <path fill="#FFC80A" d="M491.156 252.23l-22.087 22.09 2.516 2.515 22.087-22.09-2.516-2.514zm-23.76 22.09l23.76-23.763 4.19 4.188-23.761 23.763-4.19-4.188z"/>
        <path fill="#FFC80A" d="M471.585 230.27l-2.516 2.515 22.087 22.088 2.516-2.515-22.087-22.088zm-4.19 2.515l4.19-4.189 23.76 23.762-4.19 4.189-23.76-23.762z"/>
        <path fill="#FFC80A" d="M491.156 230.27l-22.087 22.088 2.516 2.515 22.087-22.088-2.516-2.515zm-23.76 22.088l23.76-23.762 4.19 4.19-23.761 23.76-4.19-4.188z"/>
        <path fill="#FFC80A" d="M471.585 207.31l-2.516 2.516 22.087 22.088 2.516-2.515-22.087-22.089zm-4.19 2.516l4.19-4.19 23.76 23.763-4.19 4.188-23.76-23.761z"/>
        <path fill="#FFC80A" d="M491.156 207.31L469.069 229.4l2.516 2.515 22.087-22.088-2.516-2.516zm-23.76 22.089l23.76-23.762 4.19 4.189-23.761 23.761-4.19-4.188z"/>
        <path fill="#FFC80A" d="M471.585 184.35l-2.516 2.515 22.087 22.09 2.516-2.516-22.087-22.088zm-4.19 2.515l4.19-4.188 23.76 23.762-4.19 4.189-23.76-23.763z"/>
        <path fill="#FFC80A" d="M491.156 184.35l-22.087 22.089 2.516 2.516 22.087-22.09-2.516-2.514zm-23.76 22.089l23.76-23.762 4.19 4.188-23.761 23.763-4.19-4.19z"/>
        <path fill="#FFC80A" d="M471.585 162.39l-2.516 2.515 22.087 22.089 2.516-2.517-22.087-22.087zm-4.19 2.515l4.19-4.189 23.76 23.761-4.19 4.19-23.76-23.762z"/>
        <path fill="#FFC80A" d="M491.156 162.39l-22.087 22.087 2.516 2.517 22.087-22.09-2.516-2.514zm-23.76 22.087l23.76-23.761 4.19 4.189-23.761 23.762-4.19-4.19z"/>
        <path fill="#FFC80A" d="M471.585 139.431l-2.516 2.514 22.087 22.088 2.516-2.514-22.087-22.088zm-4.19 2.514l4.19-4.188 23.76 23.762-4.19 4.188-23.76-23.762z"/>
        <path fill="#FFC80A" d="M491.156 139.431l-22.087 22.088 2.516 2.514 22.087-22.088-2.516-2.514zm-23.76 22.088l23.76-23.762 4.19 4.188-23.761 23.762-4.19-4.188z"/>
        <path fill="#FFC80A" d="M471.585 116.471l-2.516 2.514 22.087 22.09 2.516-2.517-22.087-22.087zm-4.19 2.514l4.19-4.188 23.76 23.761-4.19 4.19-23.76-23.763z"/>
        <path fill="#FFC80A" d="M491.156 116.471l-22.087 22.087 2.516 2.516 22.087-22.089-2.516-2.514zm-23.76 22.087l23.76-23.76 4.19 4.187-23.761 23.763-4.19-4.19z"/>
        <path fill="#FFC80A" d="M471.585 94.51l-2.516 2.514 22.087 22.089 2.516-2.513-22.087-22.09zm-4.19 2.514l4.19-4.188 23.76 23.764-4.19 4.187-23.76-23.763z"/>
        <path fill="#FFC80A" d="M491.156 94.51l-22.087 22.09 2.516 2.513 22.087-22.089-2.516-2.514zm-23.76 22.09l23.76-23.764 4.19 4.188-23.761 23.763-4.19-4.187z"/>
        <path fill="#FFC80A" d="M471.585 70.553l-2.516 2.514 22.087 22.087 2.516-2.514-22.087-22.087zm-4.19 2.514l4.19-4.189 23.76 23.762-4.19 4.189-23.76-23.762z"/>
        <path fill="#FFC80A" d="M491.156 70.553L469.069 92.64l2.516 2.514 22.087-22.087-2.516-2.514zm-23.76 22.087l23.76-23.762 4.19 4.19-23.761 23.76-4.19-4.188z"/>
        <path fill="#FFC80A" d="M471.585 48.59l-2.516 2.515 22.087 22.089 2.516-2.515-22.087-22.089zm-4.19 2.515l4.19-4.188 23.76 23.762-4.19 4.189-23.76-23.763z"/>
        <path fill="#FFC80A" d="M491.156 48.59L469.069 70.68l2.516 2.515 22.087-22.089-2.516-2.515zm-23.76 22.089l23.76-23.762 4.19 4.188-23.761 23.763-4.19-4.19z"/>
        <path fill="#FFC80A" d="M491.551 387.151h3.596V49.078h-3.596v338.073zm-1.197 1.163h5.99V47.915h-5.99v340.399zM466.595 387.151h3.596V49.078h-3.596v338.073zm-1.196 1.163h5.989V47.915h-5.99v340.399zM699.82 34.93c0-7.588 0-16.986-.22-24.71l-3.494.111c.188 6.575.213 14.542.219 22.198v.599h-.581c-102.575 0-218.803 0-331.003-.239v3.605c111.884.24 224.456.24 333.328.24h1.75V34.93zm-335.661 2.762h-.58v-6.005h.582c112.165.241 228.395.241 331.001.241-.006-7.694-.037-15.658-.231-22.159l-.019-.6 5.814-.185.019.6c.237 7.85.237 17.551.237 25.346v3.003h-2.913c-109.06 0-221.835 0-333.91-.241z"/>
        <path fill="#FFC80A" d="M672.05 11.634l-2.323 2.69 25.25 20.96 2.323-2.69-25.25-20.96zm-4.01 2.826l3.869-4.478 27.077 22.476-3.868 4.477L668.04 14.46z"/>
        <path fill="#FFC80A" d="M694.976 11.634l-25.25 20.96 2.324 2.69 25.25-20.96-2.324-2.69zm-26.935 20.824l27.077-22.476 3.868 4.478-27.077 22.475-3.868-4.477z"/>
        <path fill="#FFC80A" d="M647.094 11.634l-2.324 2.69 25.25 20.96 2.324-2.69-25.25-20.96zm-4.01 2.826l3.873-4.478 27.073 22.476-3.874 4.477-27.071-22.475z"/>
        <path fill="#FFC80A" d="M670.02 11.634l-25.25 20.96 2.324 2.69 25.25-20.96-2.323-2.69zm-26.935 20.824l27.07-22.476 3.875 4.478-27.073 22.475-3.872-4.477z"/>
        <path fill="#FFC80A" d="M622.14 11.634l-2.324 2.69 25.248 20.96 2.324-2.69-25.249-20.96zm-4.011 2.826l3.87-4.478 27.075 22.476-3.87 4.477-27.075-22.475z"/>
        <path fill="#FFC80A" d="M645.064 11.634l-25.248 20.96 2.323 2.69 25.25-20.96-2.325-2.69zm-26.935 20.824l27.074-22.476 3.871 4.478L622 36.935l-3.87-4.477z"/>
        <path fill="#FFC80A" d="M595.188 11.634l-2.324 2.69 25.248 20.96 2.324-2.69-25.248-20.96zm-4.012 2.826l3.871-4.478 27.075 22.476-3.87 4.477-27.076-22.475z"/>
        <path fill="#FFC80A" d="M618.112 11.634l-25.248 20.96 2.324 2.69 25.248-20.96-2.324-2.69zm-26.936 20.824l27.076-22.476 3.87 4.478-27.075 22.475-3.87-4.477z"/>
        <path fill="#FFC80A" d="M569.233 11.634l-2.323 2.69 25.245 20.96 2.325-2.69-25.247-20.96zm-4.01 2.826l3.87-4.478 27.075 22.476-3.873 4.477-27.073-22.475z"/>
        <path fill="#FFC80A" d="M592.155 11.634l-25.245 20.96 2.323 2.69 25.247-20.96-2.325-2.69zm-26.933 20.824l27.073-22.476 3.873 4.478-27.075 22.475-3.87-4.477z"/>
        <path fill="#FFC80A" d="M545.276 11.634l-2.325 2.69 25.247 20.96 2.324-2.69-25.246-20.96zm-4.011 2.826l3.87-4.478 27.075 22.476-3.872 4.477-27.073-22.475z"/>
        <path fill="#FFC80A" d="M568.198 11.634l-25.247 20.96 2.325 2.69 25.246-20.96-2.324-2.69zm-26.933 20.824l27.073-22.476 3.872 4.478-27.075 22.475-3.87-4.477z"/>
        <path fill="#FFC80A" d="M519.32 11.634l-2.322 2.69 25.248 20.96 2.324-2.69-25.25-20.96zm-4.01 2.826l3.87-4.478 27.076 22.476-3.87 4.477L515.31 14.46z"/>
        <path fill="#FFC80A" d="M542.246 11.634l-25.248 20.96 2.323 2.69 25.25-20.96-2.325-2.69zM515.31 32.458l27.076-22.476 3.87 4.478-27.075 22.475-3.87-4.477z"/>
        <path fill="#FFC80A" d="M492.37 11.634l-2.324 2.69 25.248 20.959 2.322-2.69-25.246-20.959m-4.012 2.826l3.872-4.478 27.073 22.476-3.869 4.477-27.076-22.475"/>
        <path fill="#FFC80A" d="M515.294 11.634l-25.248 20.96 2.324 2.69 25.246-20.96-2.322-2.69zm-26.936 20.824l27.076-22.476 3.87 4.478-27.074 22.475-3.872-4.477z"/>
        <path fill="#FFC80A" d="M466.413 11.634l-2.322 2.69 25.244 20.96 2.326-2.69-25.248-20.96zm-4.01 2.826l3.87-4.478 27.076 22.476-3.872 4.477-27.073-22.475z"/>
        <path fill="#FFC80A" d="M489.335 11.634l-25.244 20.96 2.322 2.689 25.248-20.96-2.326-2.689m-26.931 20.824l27.073-22.476 3.872 4.478-27.076 22.475-3.87-4.477"/>
        <path fill="#FFC80A" d="M442.458 11.634l-2.326 2.69 25.247 20.96 2.325-2.69-25.246-20.96zm-4.012 2.826l3.872-4.478 27.074 22.476-3.873 4.477-27.073-22.475z"/>
        <path fill="#FFC80A" d="M465.38 11.634l-25.248 20.96 2.326 2.69 25.246-20.96-2.325-2.69zm-26.934 20.824L465.52 9.982l3.873 4.478-27.074 22.475-3.872-4.477z"/>
        <path fill="#FFC80A" d="M415.504 11.634l-2.324 2.688 25.247 20.961 2.326-2.689-25.25-20.96zm-4.01 2.826l3.868-4.478 27.077 22.476-3.872 4.477-27.073-22.475z"/>
        <path fill="#FFC80A" d="M438.427 11.634l-25.247 20.96 2.324 2.69 25.25-20.96-2.327-2.69zm-26.933 20.824l27.073-22.476 3.872 4.478-27.077 22.475-3.868-4.477z"/>
        <path fill="#FFC80A" d="M389.55 11.634l-2.323 2.69 25.247 20.96 2.323-2.69-25.247-20.96zm-4.01 2.826l3.87-4.478 27.075 22.476-3.87 4.477L385.54 14.46z"/>
        <path fill="#FFC80A" d="M412.474 11.634l-25.247 20.96 2.323 2.69 25.247-20.96-2.323-2.69zM385.54 32.458l27.075-22.476 3.87 4.478-27.075 22.475-3.87-4.477z"/>
        <path fill="#FFC80A" d="M365.525 11.634l-.747.864v3.137l23.727 19.648 2.332-2.689-25.312-20.96zm-1.947 4.544v-4.111l1.807-2.085 27.142 22.476-3.881 4.477-25.068-20.757z"/>
        <path fill="#FFC80A" d="M388.505 11.634l-23.727 19.65v3.137l.747.862 25.312-20.96-2.332-2.689zm-24.927 23.219V30.74l25.068-20.758 3.881 4.478-27.142 22.475-1.807-2.082z"/>
        <path fill="#FFC80A" d="M364.74 13.225l332.332.69v.53l.006-.53c.957 0 1.744-.71 1.744-1.586 0-.425-.181-.825-.506-1.127a1.827 1.827 0 0 0-1.238-.467l-332.337-.69v3.18m-.583 1.058l-.58-.002V8.984l333.507.692a3.048 3.048 0 0 1 2.056.78c.543.502.843 1.168.843 1.875-.006 1.458-1.306 2.643-2.906 2.643h-.006l-332.914-.691"/>
        <path fill="#CBCCCB" d="M463.402 64.885h35.937V44.921h-35.937zM419.48 38.931h29.947V8.984H419.48z"/>
        <path fill="#F2F1F0" d="M506.209 13.27L492.874.102 462.404 0l.037 36.935h43.885l-.117-23.665"/>
        <path fill="#E4E4E3" d="M463.402 37.933V0l-16.97 8.712v29.221h16.97"/>
        <path fill="#FF5447" d="M507.325 12.977L493.998 0h-13.626v12.977h26.953"/>
        <path fill="#FC544E" d="M502.333 12.977h-3.91L482.369 0h3.91l16.054 12.977M493.35 12.977h-6.095l-6.883-5.824V1.996l12.977 10.981"/>
        <path fill="#B4B5B4" d="M498.986 48.914H419.48v-11.98h86.846l-7.34 11.98"/>
        <path fill="#FC544E" d="M356.59 40.928h33.94V7.986h-33.94z"/>
        <path fill="#F2F1F0" d="M349.603 34.938h45.919V8.984h-45.919z"/>
        <path fill="#CBCCCB" d="M349.603 8.984v12.523l12.876 13.431h13.078L350.675 8.984h-1.072M395.522 34.938V25.57L379.636 8.984h-13.063l24.858 25.954h4.091"/>
        <path fill="#187070" d="M566.53 331.105c-2.958 10.11-7.67 19.97-17.648 24.51-8.975 4.087-19.064 3.575-27.152 9.903-11.762 9.209-16.487 23.282-31.442 29.564-6.16 2.587-12.726 3.471-19.368 3.402-1.104-.01-2.852.451-4.925.913-5.053 1.125-12.04 2.25-16.354-3.45-13.382-17.686 84.271-116.697 131.293-104.386 21.554 5.643-11.822 30.71-14.405 39.544"/>
        <path fill="#187070" d="M461.37 400.31c.34-.228.673-.467.997-.717a51.73 51.73 0 0 0 2.337-.451c.608-.13 1.186-.26 1.726-.377l.437.42c-1.528.466-3.445.927-5.497 1.125m6.661-1.504l-.316-.304c.626-.115 1.17-.188 1.608-.188h.033c-.357.142-.804.312-1.325.492"/>
        <path fill="#1D4828" d="M467.905 399.312l-.545-.613a44.56 44.56 0 0 1 1.602-.385l.394.445c-.443.18-.929.367-1.451.553"/>
        <path fill="#0F4D4A" d="M471.228 390.724c5.91-4.555 11.1-9.909 14.766-16.504 7.79-14.026 4.562-27.949 6.38-42.219 5.72-5.082 11.732-9.997 17.867-14.544.967 41.37-14.263 70.37-40.62 81.45-.489 0-1.053.08-1.703.207-.411.08-.858.18-1.333.288-.56.128-1.16.271-1.79.414-.77.173-1.584.346-2.426.494 4.094-3.321 6.945-8.111 8.859-9.586z"/>
        <path fill="#59BCB5" d="M448.771 395.32l-1.376-1.157c49.308-58.861 80.34-73.922 113.197-89.872a1569.27 1569.27 0 0 0 7.797-3.804l.79 1.613a1606.167 1606.167 0 0 1-7.807 3.808c-32.676 15.861-63.541 30.844-112.6 89.411"/>
        <path fill="#59BCB5" d="M546.346 332.43c-10.165-5.034-17.299-3.528-27.177-1.442-1.444.306-2.94.623-4.507.931l-.385-1.573c1.555-.305 3.043-.619 4.476-.922 9.885-2.089 17.694-3.737 28.466 1.6l-.873 1.406M486.74 355.39l-.414-1.904c1.772-.441 3.36-.89 4.762-1.285 6.436-1.819 10.32-2.92 19.196-.013l-.539 1.868c-8.378-2.745-11.86-1.755-18.189.034-1.412.4-3.015.854-4.816 1.3M536.087 319.453l-1.845-.076c3.818-3.074 7.434-8.85 10.142-13.029 1.723-2.659 3.502-5.405 5.547-7.858l1.28 1.287c-1.971 2.363-3.72 5.06-5.411 7.671-2.79 4.304-5.67 8.751-9.713 12.005"/>
        <path fill="#59BCB5" d="M511.711 263.55c4.384 11.111 7.02 23.22 1.23 34.221-5.204 9.895-14.613 16.449-17.46 27.74-4.145 16.421 1.414 32.31-7.625 48.33-3.726 6.597-9 11.953-15.006 16.509-3.427 2.599-9.802 15.487-20.855 12.512-24.314-6.54-19.502-23.482-24.429-33.018-10.127-19.609-13.197-36.358-2.067-51.449 4.56-6.176 12.282-9.418 16.525-15.787 3.887-5.834 2.201-19.17 5.745-26.494 3.856-7.964 12.538-13.761 14.355-22.397 3.878-18.473 23.188-39.577 34.986-35.595 23.963 8.087 10.77 35.723 14.601 45.429"/>
        <path fill="#FFF" d="M450.213 402.307l-1.82-.07c3.382-87.831 21.093-123.237 39.846-160.725a1788.35 1788.35 0 0 0 4.434-8.905l1.64.791c-1.48 2.996-2.96 5.96-4.439 8.914-18.663 37.308-36.29 72.549-39.661 159.995"/>
        <path fill="#FFF" d="M464.775 300.487l-1.408-1.176a361.096 361.096 0 0 0 3.368-4.147c7.382-9.19 13.214-16.445 27.295-18.635l.282 1.819c-13.382 2.078-18.739 8.743-26.151 17.97a343.886 343.886 0 0 1-3.386 4.169M455.848 341.414l-1.465-1.158c1.348-1.61 2.519-3.101 3.552-4.417 4.727-6.02 7.58-9.65 17.742-13.391l.667 1.715c-9.656 3.552-12.231 6.835-16.91 12.79-1.039 1.323-2.22 2.827-3.586 4.461M474.103 273.85l-1.752 1.68c1.464-5.485 1.338-13.475 1.116-19.092-.143-3.56-.291-7.24-.015-10.854l1.708.148c-.268 3.5-.124 7.125.017 10.63.231 5.761.468 11.718-1.074 17.487"/>
        <g fill="#CFEBF1">
            <path d="M47.741 190.85c-2.126-12.974 19.137-18.054 24.674-10.154-1.774-12.391 8.236-28.64 25.41-30.04 32.414-3.03 23.019 21.045 38.599 21.394 14.234-.27 3.624-20.832 35.998-10.53 7.748 2.302 11.677 10.962 17.152 21.662 11.093-12.198 17.892-4.254 19.93 7.668a574.312 574.312 0 0 1-161.763 0zM586.133 249.918c-1.904-11.518 17.139-16.028 22.097-9.014-1.589-11.001 7.376-25.427 22.756-26.67 29.029-2.69 20.615 18.684 34.567 18.994 12.747-.239 3.246-18.495 32.238-9.348 6.939 2.044 10.458 9.732 15.36 19.231 9.935-10.829 16.024-3.776 17.849 6.807a518.771 518.771 0 0 1-144.867 0zM.118 269.538c-1.681-10.114 15.129-14.073 19.506-7.915-1.403-9.66 6.511-22.326 20.087-23.417 25.626-2.363 18.198 16.405 30.515 16.677 11.253-.21 2.866-16.239 28.459-8.208 6.125 1.794 9.231 8.545 13.56 16.886 8.769-9.509 14.144-3.316 15.755 5.977a460.382 460.382 0 0 1-127.882 0z"/>
        </g>
        <path fill="#FFFFFE" d="M484.33 429.26v-.999h1.996l-1.996.998"/>
        <path fill="#3F46AD" d="M446.397 393.975c0 7.362-5.963 13.323-13.295 13.323h-170.06c-7.348 0-13.298-5.96-13.298-13.323V109.163c0-7.35 5.95-13.315 13.299-13.315h170.059c7.332 0 13.295 5.966 13.295 13.315v284.812"/>
        <path fill="#14236C" d="M263.427 97.412c-6.677 0-12.109 5.406-12.109 12.052v285.207c0 6.65 5.432 12.062 12.109 12.062h171.288c6.674 0 12.104-5.412 12.104-12.062V109.464c0-6.646-5.43-12.052-12.104-12.052H263.427m171.288 311.883H263.427c-8.095 0-14.681-6.56-14.681-14.624V109.464c0-8.058 6.586-14.614 14.68-14.614h171.289c8.092 0 14.677 6.556 14.677 14.614v285.207c0 8.064-6.585 14.624-14.677 14.624"/>
        <path fill="#F2F1F0" d="M253.737 375.354h188.667V117.81H253.737z"/>
        <path fill="#D4CDC8" d="M253.737 128.79h188.667v-11.979H253.737z"/>
        <path fill="#FFFFFE" d="M360.56 109.824h-22.977a1.997 1.997 0 0 1 0-3.993h22.978c1.093 0 1.984.895 1.984 1.995a1.994 1.994 0 0 1-1.984 1.998"/>
        <path fill="#1A4B76" d="M349.068 384.824a6.01 6.01 0 0 0-6.003 6.003 6.012 6.012 0 0 0 6.003 6.004 6.012 6.012 0 0 0 6.005-6.004 6.01 6.01 0 0 0-6.005-6.003m0 14.488c-4.677 0-8.484-3.806-8.484-8.485 0-4.678 3.807-8.485 8.484-8.485 4.68 0 8.486 3.807 8.486 8.485 0 4.679-3.806 8.485-8.486 8.485"/>
        <path fill="#F7D0C2" d="M483.25 387.683c-.183-3.05-.725-5.925-1.62-8.37 0 0 .69-11.73-.63-14.725-2.433-5.545-7.603-4.013-7.603-4.013-.448.258 2.388 24.77 2.504 25.443 1.585 9.086 2.172 11.061 2.052 20.495-.04 3.295.906 8.062-1.554 11.766l5.646-4.373c.508-1.347 1.327-2.823.68-3.593-1.732-2.073-2.181-2.818-1.614-5.88.55-2.977 2.657-8.007 2.14-16.75"/>
        <path fill="#0E1220" d="M483.399 417.235c-1.376.357-1.21-1.47-1.471-2.694-.969.457-1.39 1.946-2.544 2.877-.661.516-4.21 1.544-5.037.187 2.439-.878 2.918-.873 3.283-1.25 2.545-1.741 3.28-4.638 4.885-7.06 3.897 1.214.199 4.786.884 7.94"/>
        <path fill="#F7D0C2" d="M465.953 404.035c-.428 3.022.315 9.15-2.586 12.076.227-.106 1.18.255 1.41.153l4.181-4.212c.655-1.213 1.632-2.486 1.103-3.36-1.404-2.368-1.743-3.188-.814-6.053.9-2.786 3.557-7.258 4.153-15.877.206-3.009.042-5.916-.51-8.48 0 0 2.132-11.28 1.239-14.458-1.644-5.887-6.8-5.431-6.8-5.431-.468.163-.81 24.591-.781 25.275.381 9.163.7 11.204-.595 20.367"/>
        <path fill="#0E1220" d="M471.42 416.238c-1.376.355-1.21-1.471-1.471-2.695-.97.457-1.39 1.945-2.542 2.876-.662.519-4.212 1.544-5.038.187 2.436-.877 2.919-.87 3.28-1.247 2.547-1.745 3.283-4.64 4.885-7.063 3.9 1.215.202 4.785.886 7.942"/>
        <path fill="#0A0B09" d="M482.346 266.645c.421 4.451-.044 4.414 2.876 7.279.38 2.143-1.643 3.95-1.59 4.29 3.224-1.83 4.326-3.543 4.897-4.186 1.519-2.342 5.096-6.516.595-11.073-2.262-2.29-3.982-2.255-6.19-2.22-.937.015-1.964.03-3.157-.133-4.1-.562-6.453 4.325-7.054 7.545-.593 3.203-.801 9.149 1.919 12.759-.266-.566-.361-2.472-.778-3.345 1.444 1.314 2.13 2.842 3.356 3.96.212-.203-3.057-5.89-.99-7.91 1.222-2.086 1.882-2.556 3.792-4.765-.146.89-.223 1.343-.353 2.145l2.677-4.346"/>
        <path fill="#F7D0C2" d="M482.083 277.545c-.097-1.792 2.611-5.883 2.688-6.448.163-1.164-4.21-9.441-5.676-9.53-.998-.06-4.488-.427-4.621 15.922.379.056.78.007 1.216-.226 1.463-.81.951 4.833-.4 8.27-.9 2.33-3.305.76-4.936 2.14.636 3.693 5.218 6.728 5.846 10.415 2.353 1.2 1.085 1.846 2.024 1.048.427-1.887 7.784-6.966 8.102-8.845-6.77-5.186-4.19-13.09-4.243-12.746"/>
        <path fill="#FFC80A" d="M463.367 309.081a165.93 165.93 0 0 1 3.566 3.383c2.22-2.757 3.733-6.829 5.311-8.405 11.478-11.464 3.413-9.151 2.406-17.55 0 0-3.837.46-4.918 1.313-2.968 2.353-3.162 8.51-5.56 13.171-.001.011-.65 2.127-.478.721l-.327 7.367"/>
        <path fill="#F7D0C2" d="M445.034 294.899c-1.212-1.486-2.822-4.072-3.554-4.925-.96-1.112-1.742-.916-1.742-.916-.235.343.47.88.48 1.286.001.968-1.897.022-2.241-.248-.833-.654-1.702-1.295-2.243-1.521-.552-.23-.331.206-.802.244-.422.03-.963.119-1.071.581-.026.089-.193.22-.366.297-1.06.463 9.396 4.763 10.516 5.76.2.17 1.116.876 1.296 1.037.402-.525-.672-1.078-.273-1.595"/>
        <path fill="#F7D0C2" d="M439.696 293.454c5.772 2.628 13.042 14.122 18.348 17.46 2.76 1.733 7.46-.67 1.287-6.35 0 0-12.1-8.028-17.904-12.845-1.091-.908-2.67 1.306-1.731 1.735"/>
        <path fill="#FFC80A" d="M474.518 287.648c-3.896 4.559-7.32 11.795-15.39 17.396-1.51 2.56-.487 5.855.797 6.622 5.938 3.555 10.686-5.779 14.023-7.815 13.906-8.48.66-8.097 1.445-16.341l-.875.138M489.278 297.083c.989-2.687-.455-6.064 1.775-8.575 1.907 5.317 4.22 15.2-.603 19.856-1.6 1.543-2.38.961-5.122 3.103 1.29-4.088 2.47-10.367 3.95-14.384"/>
        <path fill="#F7D0C2" d="M473.858 268.863c.323-.79 1.581-6.134 2.595-6.31 3.457.033 2.65 1 2.865 4.13.109 1.647-.244 10.027-.333 10.06-.2.013-4.68 1.464-5.6.386-.12-.144.448-2.31.066-2.565-.373-.256-.348-.519-.196-.847.14-.337.195-.235-.09-.467-.28-.216-.209-.581.147-.697.556-.175-.343-.829-.84-1.426-.498-.592.656-.495 1.386-2.264"/>
        <path fill="#FFFFFE" d="M473.393 273.641c-.052-.195 1.015-.164 1.953.45 0 0-2.131.192-1.99-.07.101-.178.165-.147.037-.38"/>
        <g transform="translate(476.344 277.527)">
            <mask id="d" fill="#fff">
                <use xlink:href="#c"/>
            </mask>
            <path fill="#154740" d="M.874.684L.473 3.697l-.17-.04L.703.643" mask="url(#d)"/>
            <path fill="#15463F" d="M.704.644L.302 3.656.274 3.65.676.637" mask="url(#d)"/>
            <path fill="#15453F" d="M.676.637L.274 3.65l-.297-.071L.378.566" mask="url(#d)"/>
            <path fill="#15453F" d="M.378.566L-.023 3.58l-.028-.007.4-3.012" mask="url(#d)"/>
            <path fill="#15443F" d="M.35.56l-.401 3.012-.043-.01L.307.55" mask="url(#d)"/>
        </g>
        <g transform="translate(476.344 274.533)">
            <mask id="f" fill="#fff">
                <use xlink:href="#e"/>
            </mask>
            <path fill="#D88A6E" d="M2.042 6.571H6.4V-.132H2.04z" mask="url(#f)"/>
            <path fill="#D7896D" d="M3.267-.132L2.042 6.07l-.246-.04L3.021-.17" mask="url(#f)"/>
            <path fill="#D7896D" d="M3.021-.171L1.796 6.03l-.018-.003L3.003-.174" mask="url(#f)"/>
            <path fill="#D7886D" d="M3.003-.174L1.778 6.028l-.02-.003L2.984-.177" mask="url(#f)"/>
            <path fill="#D8886D" d="M2.983-.177L1.76 6.025 1.608 6 2.832-.202" mask="url(#f)"/>
            <path fill="#D8876D" d="M2.832-.202L1.608 6l-.02-.003L2.815-.205" mask="url(#f)"/>
            <path fill="#D8876D" d="M2.814-.205L1.589 5.997l-.02-.003L2.795-.208" mask="url(#f)"/>
            <path fill="#D8876D" d="M2.794-.208L1.57 5.994l-.17-.027L2.625-.235" mask="url(#f)"/>
            <path fill="#D8866D" d="M2.625-.235L1.4 5.967l-.434-.07L2.19-.303" mask="url(#f)"/>
            <path fill="#D8866D" d="M2.19-.304L.966 5.898l-.02-.003L2.171-.307" mask="url(#f)"/>
            <path fill="#D8856D" d="M2.171-.307L.946 5.895l-.018-.003L2.153-.31" mask="url(#f)"/>
            <path fill="#D8856D" d="M2.153-.31L.928 5.892l-.17-.027L1.982-.338" mask="url(#f)"/>
            <path fill="#D8846D" d="M1.982-.338L.758 5.865l-.189-.03L1.793-.369" mask="url(#f)"/>
            <path fill="#D7846D" d="M1.793-.368L.57 5.834.55 5.831 1.775-.37" mask="url(#f)"/>
            <path fill="#D7836D" d="M1.775-.37L.55 5.83l-.019-.003L1.756-.374" mask="url(#f)"/>
            <path fill="#D7836D" d="M1.756-.374L.531 5.828.38 5.804 1.605-.398" mask="url(#f)"/>
            <path fill="#D7826D" d="M1.605-.398L.38 5.804l-.038-.006L1.567-.404" mask="url(#f)"/>
            <path fill="#D7826D" d="M1.567-.404L.342 5.798l-.208-.033L1.36-.437" mask="url(#f)"/>
            <path fill="#D7826D" d="M1.36-.437L.134 5.765l-.018-.003L1.34-.44" mask="url(#f)"/>
            <path fill="#D7816D" d="M-.627 5.762H1.34V-.56H-.627z" mask="url(#f)"/>
        </g>
        <g transform="translate(478.34 277.527)">
            <mask id="h" fill="#fff">
                <use xlink:href="#g"/>
            </mask>
            <path fill="#D88A6E" d="M.959.331L.902.652l-.34-.06.057-.321" mask="url(#h)"/>
            <path fill="#D7896D" d="M.619.271L.562.592.378.559l.057-.32M.435.239l-.057.32L.363.557l.058-.32" mask="url(#h)"/>
            <path fill="#D7886D" d="M.42.236l-.057.32L.35.555l.057-.32" mask="url(#h)"/>
        </g>
        <path fill="#0A0B09" d="M485.109 263.122c4.601 10.328-5.32 16.402-5.32 16.402 1.016-4.587.85-5.701 1.232-5.243.788.947 1.267-.373 1.374-1.446.577-5.791-1.772-1.558-1.772-1.558.253-1.413-1.692-5.111-2.446-6.618-.738-1.5-1.833-2.047-1.833-2.047.997-1.651 6.81-3.882 8.765.51"/>
        <path fill="#FFC80A" d="M486.268 334.404c.441-5.129-2.449-5.788-.61-17.073.06-.497 3.086-10.357 3.801-12.198 3.32-8.747 4.366-8.303 3.632-12.995-.569-3.612-4.635-5.752-6.536-5.62-3.318.269-18.988 6.675-19.562 6.79-3.431.677-3.951 5.362-4.364 7.758-.04.232-1.387 1.238-1.249 1.426.009 12.884 3.405 5.997 3.488 9.763.127 14.063 1.32 58.23 4.288 70.087 4.406-1.576 7.03-2.735 12.198-3.72 2.179-24.313 4.267-37.947 4.914-44.218"/>
        <path fill="#FFE8E0" d="M472.684 327.858c-1.51 1.245-4.162 2.927-5.029 3.682-1.131.986-.892 1.742-.892 1.742.373.213.907-.5 1.333-.524 1.017-.043.101 1.852-.165 2.2-.655.843-1.293 1.715-1.507 2.257-.222.55.23.316.29.769.048.413.165.94.654 1.024.094.021.24.18.326.344.531 1.016 4.621-9.383 5.62-10.52.172-.2.875-1.126 1.035-1.311-.567-.368-1.102.703-1.665.337"/>
        <path fill="#FFE8E0" d="M470.27 333.129c2.285-5.745 10.789-10.05 13.773-15.364.772-1.377-.144-1.061-1.21-1.751-1.075-.7-2.65-3.5-4.914.752 0 0-5 8.88-9.377 14.74-.822 1.104 1.356 2.559 1.727 1.623"/>
        <path fill="#A12629" d="M479.339 312.466l.038-.09-.038.09m.038-.09c1.92-4.436 3.707-6.644 3.503-10.254.008-.205.02-.41.03-.615.14-.006.282-.015.422-.022l-.051.616c.117 3.578-1.94 5.745-3.904 10.275M464.5 310.47c.207-2.593.082-4.802-.024-6.75-.23-4.14-.398-7.132 2.714-10.22l.17.21c-3.02 3.001-2.856 5.932-2.632 9.99.11 1.96-.021 4.157-.229 6.77"/>
        <path fill="#174A47" d="M407.466 410.787c0 4.138-3.317 7.492-7.409 7.492h-35.098c-4.091 0-7.405-3.354-7.405-7.492 0-4.13 3.314-7.482 7.405-7.482h35.098c4.092 0 7.409 3.351 7.409 7.482"/>
        <path fill="#0E1220" d="M386.726 424.463l3.702-.822 2.282-.462c1.845.873 4.635-.54 6.615-.473 1.95.067 1.249-.53 3.479-.421.428.023 1.802 2.103 1.656 2.486-.578 1.567-2.797 1.995-4.138 2.31-1.329.31-4.128.594-5.475.788-3.047.432-6.7-.792-6.957-.093-.177.466-3.366.796-3.383.021-.04-1.988 2.309-2.338 2.219-3.334"/>
        <path fill="#FC544E" d="M403.602 407.43c7.673-.89 10.887-.494 12.43-3.476 2.075-4.038 5.277-2.178-2.757-13.817-12.13-17.572-10.476-21.98-25.576-23.583-.984-.104-3.577.124-5.958.353-2.324.223-4.447.446-4.679.36-.564-.22-.195-.03-.74-.296-1.82-.887-7.146-1.573-12.11 3.94 0 0-18.191 24.653-16.534 30.08.378 1.253 1.794 3.684 20.778 6.44.92.133 18.9 1.879 35.146 0"/>
        <path fill="#A12629" d="M367.536 397.316l-.267-.107c-3.7-2.006-4.957-3.368-10.463-6.218l-.25-.663c3.84 1.786 10.676 6.74 10.98 6.988M397.483 399.312c.305-.248 7.137-5.202 10.98-6.987l-.257.662c-5.5 2.854-6.753 4.213-10.452 6.213l-.27.112"/>
        <path fill="#F7D0C2" d="M377.612 364.043c.25.905-.093 5.24-.093 5.24-.057 3.88 2.527 6.071 5.534 6.071 3.007 0 5.446-2.405 5.446-5.371l-1.592-7.511s-9.916-.673-9.295 1.57"/>
        <path fill="#185C5A" d="M391.22 429.259c-13.154-.4-44.278-15.13-44.278-15.13-2.945-1.476-4.19-5.189-2.787-8.285 1.409-3.097 4.934-4.409 7.876-2.928l43.456 17.186s-1.315 9.246-4.268 9.157"/>
        <path fill="#E4E2DC" d="M358.627 407.298a1.49 1.49 0 0 0-.075.462c0 .85.7 1.535 1.555 1.535h42.81c.857 0 1.554-.684 1.554-1.535a1.47 1.47 0 0 0-.073-.462h-45.77"/>
        <path fill="#FFFFFE" d="M399.668 385.337h-35.313c-.997 0-1.81.814-1.81 1.805v19.348c0 .994.813 1.806 1.81 1.806h35.313c.996 0 1.808-.812 1.808-1.806v-19.348c0-.991-.812-1.805-1.808-1.805"/>
        <path fill="#0E1220" d="M379.291 423.877l-3.488-.771-2.153-.435c-1.744.816-6.988-.496-9.095-.394-.406.023-2.134 1.526-2.003 1.891.545 1.47 2.642 1.87 3.912 2.17 1.249.288 3.892.553 5.167.737 2.875.41 4.447.076 4.69.732.165.437 3.18.747 3.19.016.043-1.867-.3-3.008-.22-3.946"/>
        <path fill="#187070" d="M373.483 429.257s3.99.14 10.374-1.842c13.777-4.28 36.215-12.632 36.215-12.632 2.946-1.435 4.196-5.033 2.784-8.043-1.403-3.007-4.927-4.28-7.873-2.845 0 0-28.645 7.626-34.058 12.003-5.992 2.302-9.396 4.69-9.396 4.69l1.954 8.67"/>
        <path fill="#F7D0C2" d="M374.53 356.228c-.222 7.124-1.18 7.445 2.842 7.197.768-.05.355 5.819.355 5.819s-.025.335.052.797h9.526l1.196.32-1.7-11.645c-.617-.7-2.072.563-1.861-.016.091-.23.78-.761 1.507-2.948.497-1.519-.305-3.75-2.442-1.153-.054.07-.096.118-.123.163.097-.147.256-.41.245-.54.288-2.129.963-6.27.631-6.355-4.634-.707-5.972-1.408-7.804-1.463-.193 0 1.567 2.275-1.764 6.34-3.31 4.035-.654 3.147-.66 3.484"/>
        <g transform="translate(377.52 360.381)">
            <mask id="j" fill="#fff">
                <use xlink:href="#i"/>
            </mask>
            <path fill="#DEAB8C" d="M-1.959 9.955h8.283V6.471H-1.96z" mask="url(#j)"/>
            <path fill="#DEAB8C" d="M-1.575 8.172h8.149V5.308h-8.149z" mask="url(#j)"/>
            <path fill="#DEAA8B" d="M6.574 7.008l-7.898-1.7.003-.017 7.899 1.7" mask="url(#j)"/>
            <path fill="#DEAA8C" d="M6.578 6.991l-7.899-1.7.018-.084 7.899 1.7" mask="url(#j)"/>
            <path fill="#DEA98C" d="M6.596 6.907l-7.899-1.7.026-.118 7.898 1.7" mask="url(#j)"/>
            <path fill="#DEA88B" d="M6.621 6.789l-7.898-1.7.007-.034 7.898 1.7" mask="url(#j)"/>
            <path fill="#DEA88C" d="M6.628 6.755l-7.898-1.7.011-.05 7.898 1.7" mask="url(#j)"/>
            <path fill="#DEA88C" d="M6.64 6.705l-7.899-1.7.026-.119 7.897 1.7" mask="url(#j)"/>
            <path fill="#DDA78B" d="M6.664 6.587l-7.897-1.7.007-.034 7.898 1.7" mask="url(#j)"/>
            <path fill="#DEA78C" d="M6.672 6.553l-7.898-1.7.018-.085 7.898 1.7" mask="url(#j)"/>
            <path fill="#DEA68C" d="M6.69 6.469l-7.898-1.7.014-.068 7.899 1.7" mask="url(#j)"/>
            <path fill="#DEA68B" d="M6.705 6.401l-7.899-1.7.007-.034 7.899 1.7" mask="url(#j)"/>
            <path fill="#DEA68C" d="M6.712 6.368l-7.899-1.701.02-.084 7.897 1.7" mask="url(#j)"/>
            <path fill="#DDA58C" d="M6.73 6.283l-7.898-1.7.018-.084 7.898 1.7" mask="url(#j)"/>
            <path fill="#DDA48B" d="M6.748 6.199l-7.898-1.7.007-.034 7.898 1.7" mask="url(#j)"/>
            <path fill="#DDA48C" d="M6.755 6.166l-7.898-1.701.011-.05 7.898 1.7" mask="url(#j)"/>
            <path fill="#DDA38C" d="M6.766 6.115l-7.898-1.7.026-.119 7.898 1.7" mask="url(#j)"/>
            <path fill="#DDA38C" d="M6.792 5.997l-7.898-1.7.021-.102 7.899 1.7" mask="url(#j)"/>
            <path fill="#DDA28B" d="M6.814 5.895l-7.899-1.7.015-.068 7.898 1.701" mask="url(#j)"/>
            <path fill="#DEA28C" d="M6.828 5.828l-7.898-1.7.007-.034 7.898 1.7M6.835 5.794l-7.898-1.7.022-.101 7.898 1.7" mask="url(#j)"/>
            <path fill="#DEA18B" d="M6.857 5.694L-1.04 3.993l.014-.068 7.899 1.7" mask="url(#j)"/>
            <path fill="#DDA18C" d="M6.872 5.626l-7.899-1.7.004-.018L6.875 5.61" mask="url(#j)"/>
            <path fill="#DDA08B" d="M6.875 5.61l-7.898-1.702.025-.118L6.9 5.491" mask="url(#j)"/>
            <path fill="#DD9F8B" d="M6.9 5.491l-7.898-1.7.012-.051 7.898 1.7" mask="url(#j)"/>
            <path fill="#DD9F8B" d="M6.912 5.44l-7.898-1.7.007-.034 7.898 1.7" mask="url(#j)"/>
            <path fill="#DD9F8B" d="M6.919 5.407l-7.898-1.7.018-.085 7.898 1.7" mask="url(#j)"/>
            <path fill="#DD9E8B" d="M6.937 5.322l-7.898-1.7L.082-1.225 7.98.475" mask="url(#j)"/>
        </g>
        <path fill="#0A0B09" d="M389.831 344.667c-2.568-2.176-3.566.283-6.66-1.595-2.754-1.672-4.766.369-6.462.333-5.45-.112-5.643 3.626-.168 4.45 1.715-.098 3.804 1.722 5.66 1.022.113.9.45 3.887.134 6.009.026.268.25 1.2.813.539 2.333-2.596 3.583-1.09 3.04.427-.794 2.184-2.002 1.901-2.005 2.398-.008.87.644 1.702 1.316 2.34 1.17 1.112 1.57 1.195 1.648-.709.118-2.699 7.58-11.066 2.684-15.214"/>
        <path fill="#FFFFFE" d="M374.587 357.651l-.06.732c.84.007 2.995-.999 2.995-.999l-2.935.267"/>
        <path fill="#FFC80A" d="M268.71 223.623h35.937v-35.937h-35.936z"/>
        <path fill="#3F46AD" d="M310.637 223.623h35.936v-35.937h-35.936z"/>
        <path fill="#14236C" d="M351.564 223.623h35.937v-35.937h-35.937z"/>
        <path fill="#FC544E" d="M393.49 223.623h35.937v-35.937H393.49z"/>
        <path fill="#3F46AD" d="M268.71 270.54h35.937v-35.937h-35.936zM268.71 364.374h35.937v-35.937h-35.936z"/>
        <path fill="#FC544E" d="M310.637 364.374h35.936v-35.937h-35.936z"/>
        <path fill="#FFC80A" d="M268.71 169.718h155.726v-27.95H268.71z"/>
        <path fill="#FFFFFE" d="M273.9 163.536c8.549.027 100.75.327 118.834.728l.02.73v-.729c.26 0 .452-.105.628-.34 1.612-2.153.15-11.786-1.217-17.732-3.84-.139-28.051-.969-56.795-.969-24.703 0-45.935.597-63.12 1.774l1.65 16.538zm118.855 2.189h-.051c-18.858-.42-118.434-.727-119.438-.73l-.629-.002-1.93-19.351.725-.051c17.343-1.212 38.855-1.827 63.938-1.827 31.232 0 57.116.98 57.375.989l.526.02.127.533c.387 1.629 3.714 16.011 1.087 19.518-.443.59-1.04.9-1.73.9zM408.183 155.152a2.87 2.87 0 0 1-4.026-.643 2.925 2.925 0 0 1 .64-4.058 2.875 2.875 0 0 1 4.027.644 2.923 2.923 0 0 1-.64 4.057zm1.557-4.728a4.003 4.003 0 0 0-5.611-.899c-1.792 1.313-2.19 3.85-.89 5.657 1.216 1.684 3.773 2.24 5.527 1.228l3.772 5.322.917-.672-4.185-5.03c1.326-1.386 1.63-3.995.47-5.606z"/>
        <path fill="#CBCCCB" d="M602.122 558.032h-128.66l-.113-80.857 128.773.283v80.574"/>
        <path fill="#E4E4E3" d="M422.44 416.282v86.546l50.91 56.202v-81.308l-50.91-61.44"/>
        <path fill="#F2F1F0" d="M602.122 478.173h-127.56l-52.123-61.89H550l52.122 61.89"/>
        <path fill="#FFFFFE" d="M453.012 430.167l-8.612-8.894 11.353.09 8.612 8.894-11.353-.09M464.99 443.145l-8.61-8.895 11.352.09 8.612 8.895-11.353-.09M476.968 454.125l-8.61-8.894 11.353.091 8.612 8.893-11.355-.09M501.924 430.167l-8.61-8.894 11.35.092 8.615 8.892-11.355-.09M513.902 443.145l-8.61-8.895 11.354.09 8.611 8.895-11.355-.09M524.884 455.124l-8.61-8.895 11.356.092 8.608 8.892-11.354-.09"/>
        <g transform="translate(528.252 459.206)">
            <mask id="l" fill="#fff">
                <use xlink:href="#k"/>
            </mask>
            <path fill="#37B7C1" d="M.266 9.445h.241V.461H.266z" mask="url(#l)"/>
            <path fill="#39B8C0" d="M.507 9.445h.322V.461H.507z" mask="url(#l)"/>
            <path fill="#3AB8C0" d="M.83 9.445h.402V.461H.829z" mask="url(#l)"/>
            <path fill="#3CB8BF" d="M1.232 9.445h.321V.461h-.321zM1.553 9.445h.402V.461h-.402z" mask="url(#l)"/>
            <path fill="#3EB8BE" d="M1.955 9.445h.322V.461h-.322z" mask="url(#l)"/>
            <path fill="#3FB8BE" d="M2.277 9.445h.563V.461h-.563z" mask="url(#l)"/>
            <path fill="#41B8BD" d="M2.84 9.445h.322V.461H2.84zM3.162 9.445h.402V.461h-.402z" mask="url(#l)"/>
            <path fill="#43B8BC" d="M3.565 9.445h.563V.461h-.563z" mask="url(#l)"/>
            <path fill="#45B9BC" d="M4.128 9.445h.321V.461h-.321z" mask="url(#l)"/>
            <path fill="#45B9BB" d="M4.45 9.445h.16V.461h-.16z" mask="url(#l)"/>
            <path fill="#47B9BB" d="M4.61 9.445h.242V.461H4.61zM4.852 9.445h.322V.461h-.322z" mask="url(#l)"/>
            <path fill="#49B9BB" d="M5.174 9.445h.161V.461h-.161z" mask="url(#l)"/>
            <path fill="#49B9BA" d="M5.335 9.445h.402V.461h-.402z" mask="url(#l)"/>
            <path fill="#4BB9BA" d="M5.737 9.445h.483V.461h-.483z" mask="url(#l)"/>
            <path fill="#4DBAB9" d="M6.22 9.445h.563V.461H6.22z" mask="url(#l)"/>
            <path fill="#4EBAB9" d="M6.783 9.445h.563V.461h-.563z" mask="url(#l)"/>
            <path fill="#50BAB8" d="M7.346 9.445h.564V.461h-.564zM7.91 9.445h.16V.461h-.16z" mask="url(#l)"/>
            <path fill="#52BAB8" d="M8.07 9.445h.322V.461H8.07z" mask="url(#l)"/>
            <path fill="#52BAB7" d="M8.392 9.445h.403V.461h-.403z" mask="url(#l)"/>
            <path fill="#53BBB7" d="M8.795 9.445h.16V.461h-.16zM8.955 9.445h.563V.461h-.563z" mask="url(#l)"/>
            <path fill="#55BBB6" d="M9.518 9.445h.564V.461h-.564z" mask="url(#l)"/>
            <path fill="#56BBB6" d="M10.082 9.445h.322V.461h-.322z" mask="url(#l)"/>
            <path fill="#56BBB5" d="M10.404 9.445h.321V.461h-.321z" mask="url(#l)"/>
            <path fill="#57BBB5" d="M10.725 9.445h.402V.461h-.402zM11.127 9.445h.322V.461h-.322z" mask="url(#l)"/>
            <path fill="#59BCB5" d="M11.45 9.445h9.413V.461H11.45z" mask="url(#l)"/>
        </g>
        <path fill="#FFFFFE" d="M484.953 430.166l-8.61-8.893 11.356.09 8.61 8.894-11.356-.091M497.929 443.143l-8.608-8.893 11.354.09 8.61 8.895-11.356-.092M508.91 455.121l-8.608-8.892 11.354.089 8.61 8.895-11.356-.092M519.892 468.099l-8.61-8.893 11.355.093 8.61 8.891-11.355-.091M469.982 430.166l-8.612-8.893 11.354.092 8.611 8.892-11.353-.091M480.963 443.145l-8.612-8.895 11.353.092 8.612 8.893-11.353-.09M492.94 454.126l-8.61-8.895 11.356.092 8.609 8.892-11.354-.09"/>
        <path fill="#FC544E" d="M506.724 459.446l-27.385-.24 8.548 9.744 27.388.239-8.55-9.743"/>
        <g transform="translate(512.28 421.273)">
            <mask id="n" fill="#fff">
                <use xlink:href="#m"/>
            </mask>
            <path fill="#37B7C1" d="M.224 9.725h.145V.242H.224z" mask="url(#n)"/>
            <path fill="#39B8C0" d="M.369 9.725h.193V.242H.37z" mask="url(#n)"/>
            <path fill="#3AB8C0" d="M.562 9.725h.242V.242H.562z" mask="url(#n)"/>
            <path fill="#3CB8BF" d="M.804 9.725h.193V.242H.804z" mask="url(#n)"/>
            <path fill="#3CB8BF" d="M.997 9.725h.242V.242H.997z" mask="url(#n)"/>
            <path fill="#3EB8BE" d="M1.24 9.725h.193V.242H1.24z" mask="url(#n)"/>
            <path fill="#3FB8BE" d="M1.433 9.725h.339V.242h-.339z" mask="url(#n)"/>
            <path fill="#41B8BD" d="M1.772 9.725h.193V.242h-.193z" mask="url(#n)"/>
            <path fill="#41B8BD" d="M1.965 9.725h.242V.242h-.242z" mask="url(#n)"/>
            <path fill="#43B8BC" d="M2.207 9.725h.338V.242h-.338z" mask="url(#n)"/>
            <path fill="#45B9BC" d="M2.545 9.725h.194V.242h-.194z" mask="url(#n)"/>
            <path fill="#45B9BB" d="M2.739 9.725h.096V.242H2.74z" mask="url(#n)"/>
            <path fill="#47B9BB" d="M2.836 9.725h.145V.242h-.145z" mask="url(#n)"/>
            <path fill="#47B9BB" d="M2.98 9.725h.194V.242H2.98z" mask="url(#n)"/>
            <path fill="#49B9BB" d="M3.174 9.725h.097V.242h-.097z" mask="url(#n)"/>
            <path fill="#49B9BA" d="M3.27 9.725h.242V.242h-.241z" mask="url(#n)"/>
            <path fill="#4BB9BA" d="M3.512 9.725h.29V.242h-.29z" mask="url(#n)"/>
            <path fill="#4DBAB9" d="M3.803 9.725h.339V.242h-.34z" mask="url(#n)"/>
            <path fill="#4EBAB9" d="M4.142 9.725h.338V.242h-.338z" mask="url(#n)"/>
            <path fill="#50BAB8" d="M4.48 9.725h.339V.242H4.48z" mask="url(#n)"/>
            <path fill="#50BAB8" d="M4.819 9.725h.097V.242h-.097z" mask="url(#n)"/>
            <path fill="#52BAB8" d="M4.915 9.725h.194V.242h-.194z" mask="url(#n)"/>
            <path fill="#52BAB7" d="M5.109 9.725h.241V.242H5.11z" mask="url(#n)"/>
            <path fill="#53BBB7" d="M5.35 9.725h.098V.242H5.35z" mask="url(#n)"/>
            <path fill="#53BBB7" d="M5.447 9.725h.339V.242h-.339z" mask="url(#n)"/>
            <path fill="#55BBB6" d="M5.786 9.725h.339V.242h-.34z" mask="url(#n)"/>
            <path fill="#56BBB6" d="M6.125 9.725h.193V.242h-.193z" mask="url(#n)"/>
            <path fill="#56BBB5" d="M6.318 9.725h.193V.242h-.193z" mask="url(#n)"/>
            <path fill="#57BBB5" d="M6.511 9.725h.242V.242h-.242zM6.753 9.725h.193V.242h-.193z" mask="url(#n)"/>
            <path fill="#59BCB5" d="M6.946 9.725h5.66V.242h-5.66z" mask="url(#n)"/>
        </g>
        <path fill="#FFFFFE" d="M532.366 443.2l-8.107-8.95 3.872.032 8.107 8.953-3.872-.034M544.346 455.18l-8.108-8.95 3.874.032 8.105 8.951-3.871-.033M554.327 469.155l-8.107-8.95 3.871.033 8.108 8.95-3.872-.033"/>
        <path fill="#FC544E" d="M567.208 471.058l-45.943-50.783 14.947.126 45.945 50.784-14.95-.127"/>
        <path fill="#F7D0C2" d="M541.84 440.24l2.384-3.063c-2.64-3.319-8.095-10.783-8.827-9.83-.147.187-.316.336-.458.3-.286-.075-.605.421-.56.718.045.3-.683.273-.627.538.134.625-.74.221-.449.856.29.626 1.189 1.647 2.111 2.628.384.407 1.623 2.605.087 2.52-.642-.034-1.448-.957-1.983-.63-.42.257-.341.3 1.295 1.462 1.521 1.083 3.172.81 7.026 4.5"/>
        <path fill="#FFFFFE" d="M533.243 429.26c1.045.964 2.102 1.928 2.995 2.994M534.242 428.261c1.045.965 2.1 1.93 2.994 2.995M534.242 427.263c1.045.965 2.1 1.926 2.994 2.994"/>
        <path fill="#F7D0C2" d="M526.256 460.729l-2.985 2.47c-3.656-2.204-11.847-6.704-10.918-7.462.183-.15.326-.32.275-.45-.103-.26.389-.597.698-.579.316.017.228-.659.508-.628.66.075.168-.71.851-.487.673.22 1.805.978 2.899 1.761.452.326 2.835 1.31 2.622-.12-.089-.595-1.113-1.275-.815-1.796.234-.415.281-.346 1.622 1.089 1.25 1.335 1.098 2.895 5.243 6.202"/>
        <path fill="#FFFFFE" d="M514.277 454.215c1.293.703 2.583 1.413 3.993 1.997M513.279 455.213c1.293.704 2.587 1.414 3.993 1.997M512.28 455.213c1.292.703 2.584 1.412 3.993 1.997"/>
        <path fill="#0A0B09" d="M591.723 571.211l-3.471-.067-2.25-.931c-1.482 1.17-2.241-1.594-4.004-1.152-1.734.435-2.501.478-4.474 1.005-.383.104-.448.471-.247.808.824 1.38 2.895 1.355 4.157 1.398 1.247.036 7.3 2.929 7.668 3.542.246.41 3.167.116 3.033-.625-.351-1.894-.298-3.01-.412-3.978M558.188 571.211l-3.57-.067-2.311-.931c-1.522 1.17-2.303-1.594-4.114-1.152-1.784.435-2.573.478-4.601 1.005-.392.104-.458.471-.252.808.845 1.38 2.974 1.355 4.27 1.398 1.282.036 6.734 2.929 7.111 3.542.253.41 3.255.116 3.117-.625-.36-1.894.465-3.01.35-3.978"/>
        <path fill="#0E1220" d="M582.396 570.168c-4.47-7.858-18.698-54.795-22.696-64.144-1.492-3.478-6.643-27.727-7.49-29.838l19.294-.01c6.25 26.117 17.27 78.84 22.632 93.842-1.969 1.479-5.744 1.109-11.74.15"/>
        <path fill="#0D111A" d="M562.41 509.712l-.218-.594.218.594"/>
        <path fill="#0C0D0E" d="M568.155 527.086c-1.95-6.07-4.482-13.36-5.827-17.126l-.136-.379c4.152-5.748 7.876-5.5 14.518-12.442 2.845 10.292-8.555 29.947-8.555 29.947"/>
        <path fill="#0E1220" d="M558.757 571.33c2.165-4.961 5.634-27.997 8.755-43.821 1.347-6.85 2.644-9.89 3.73-11.99 10.487-20.31 4.68-29.243.57-40.34l-20.852.443c-1.61 30.402.055 78.676-3.741 94.276 2.138 1.238 5.622 3.134 11.538 1.432"/>
        <path fill="#F7D0C2" d="M551.642 398.314c2.175.062 6.267 1.867 11.772 2.619.398.09-.3 3-.638 5.256.027.288-.888 1.565-.278.866 2.542-2.756 3.699.343 3.102 1.952-.856 2.324-1.678 2.887-1.782 3.133-.253.615 1.473-.73 2.204.016.06.061 1.01 6.433 1.01 6.433l2.148 6.892s-1.384 1.35-8 1.765c-6.427.318-5.932-3.912-5.932-3.912s.482-6.229-.427-6.18c-4.78.258-2.22-6.393-3.3-6.472-3.077-.222.262-1.292.102-4.96-.033-.719-.207-7.41.02-7.408"/>
        <g transform="translate(555.205 413.287)">
            <mask id="p" fill="#fff">
                <use xlink:href="#o"/>
            </mask>
            <path fill="#DEAB8C" d="M-1.572 10.408h8.937V5.402h-8.937z" mask="url(#p)"/>
            <path fill="#DEAA8B" d="M7.365 7.234L-.907 5.402l.003-.017 8.272 1.832" mask="url(#p)"/>
            <path fill="#DEAA8C" d="M7.368 7.217L-.904 5.385l.021-.101L7.39 7.116" mask="url(#p)"/>
            <path fill="#DEA98C" d="M7.39 7.116L-.884 5.284l.025-.118 8.272 1.832" mask="url(#p)"/>
            <path fill="#DEA88B" d="M7.414 6.998L-.858 5.166l.007-.034 8.272 1.832" mask="url(#p)"/>
            <path fill="#DEA88C" d="M7.421 6.964L-.85 5.132l.014-.067 8.272 1.832" mask="url(#p)"/>
            <path fill="#DEA88C" d="M7.435 6.897L-.837 5.065l.021-.101 8.272 1.832" mask="url(#p)"/>
            <path fill="#DDA78B" d="M7.456 6.796L-.816 4.964l.01-.05 8.273 1.831" mask="url(#p)"/>
            <path fill="#DEA78C" d="M7.467 6.745L-.805 4.913l.018-.084 8.272 1.832" mask="url(#p)"/>
            <path fill="#DEA68C" d="M7.485 6.661L-.787 4.83l.017-.084 8.272 1.832" mask="url(#p)"/>
            <path fill="#DEA68B" d="M7.502 6.577L-.77 4.745l.007-.034L7.51 6.543" mask="url(#p)"/>
            <path fill="#DEA68C" d="M7.51 6.543L-.764 4.711l.018-.084 8.272 1.832" mask="url(#p)"/>
            <path fill="#DDA58C" d="M7.527 6.459L-.745 4.627l.021-.101 8.272 1.832" mask="url(#p)"/>
            <path fill="#DDA48B" d="M7.548 6.358L-.724 4.526l.007-.034 8.272 1.832" mask="url(#p)"/>
            <path fill="#DDA48C" d="M7.555 6.324L-.717 4.492l.014-.067L7.57 6.257" mask="url(#p)"/>
            <path fill="#DDA38C" d="M7.57 6.257L-.704 4.425l.021-.101L7.59 6.156M7.59 6.156L-.682 4.324l.025-.118 8.272 1.832" mask="url(#p)"/>
            <path fill="#DDA28B" d="M7.615 6.038L-.657 4.206l.014-.068L7.63 5.97" mask="url(#p)"/>
            <path fill="#DEA28C" d="M7.63 5.97L-.644 4.138l.007-.033 8.272 1.832M7.636 5.937L-.636 4.105l.025-.118 8.272 1.832" mask="url(#p)"/>
            <path fill="#DEA18B" d="M7.66 5.819L-.61 3.987l.013-.068 8.272 1.833" mask="url(#p)"/>
            <path fill="#DDA18C" d="M7.675 5.752L-.597 3.919l.007-.033 8.272 1.831" mask="url(#p)"/>
            <path fill="#DDA08B" d="M7.682 5.717L-.59 3.886l.025-.118L7.707 5.6" mask="url(#p)"/>
            <path fill="#DD9F8B" d="M7.707 5.6L-.565 3.768l.01-.051 8.272 1.832" mask="url(#p)"/>
            <path fill="#DD9F8B" d="M7.717 5.55L-.555 3.716l.011-.05 8.272 1.832" mask="url(#p)"/>
            <path fill="#DD9F8B" d="M7.728 5.499L-.544 3.667l.018-.085 8.272 1.832" mask="url(#p)"/>
            <path fill="#DD9E8B" d="M-.526 5.414h9.364v-7.048H-.526z" mask="url(#p)"/>
        </g>
        <path fill="#0A0B09" d="M568.05 400.147c-3.463-1.43-1.12-1.27-5.797-4.338-2.32-1.529-4.038-1.826-5.342-1.349a3.909 3.909 0 0 0-2.761-1.137c-2.157 0-3.906 1.735-3.906 3.875 0 2.14-.407 6.49 1.749 6.49.387 0 .75-.07 1.103-.176 1.813-.102 5.86-2.436 9.391-1.734.12.953.136 5.402-1.117 6.598.027.283.32.371.916-.33 2.46-2.762 3.936-.166 3.142 1.353-.79 1.514-2.53.85-2.536 1.38-.01.922 1.105 2.986 1.814 3.667 1.233 1.184 1.658 1.265 1.744-.75.118-2.88 7.145-11.252 1.6-13.549"/>
        <path fill="#2C339B" d="M572.175 436.774c-5.105-3.45-7.034-8.715-7.59-10.51-7.975 6.368-9.465 9.34-21.778 7.025-1.752-.33-4.488 1.73-4.572 4.635-.054 1.903 2.416 2.563 7.447 3.806 10.04 2.48 26.493-4.956 26.493-4.956"/>
        <path fill="#3F46AD" d="M547.707 432.594c0-3.66 3.833-6.804 7.837-8.736.06-.03 1.009.037 2.38.104 3.11.152 8.401.303 10.492-.678.88-.41 10.746 8.063 10.746 15.298 0 0-4.84 19.27-3.15 30.352.996 6.537-26.28 7.96-28.305 4.18-1.099-2.05 0-40.52 0-40.52"/>
        <path fill="#3F46AD" d="M573.76 438.263c0-3.772-.737-6.463-4.123-8.458-.168-.1-1.19 1.704-1.19 1.704s-8.52-3.171-9.329-3.504c-.975-.41-.33-.053-1.264-.551-3.114-1.657-10.635 7.804-10.635 15.265 0 0 4.046 21.59 2.617 33.006-.842 6.74 22.212 8.213 23.924 4.312.925-2.11 0-41.774 0-41.774"/>
        <path fill="#1E4084" d="M547.219 454.215c.025-3.384.063-6.83.103-9.982l.1.008c.211 1.923.51 4.792.795 8.108-.432 1.074-.806 1.812-.998 1.866"/>
        <path fill="#1E4084" d="M548.484 452.219a216.035 216.035 0 0 0-1.265-7.986c.184.01.367.024.553.024h4.438c-.409 2.001-2.273 5.724-3.726 7.962"/>
        <path fill="#3F46AD" d="M557.311 430.016c-3.145-5.492-12.668 3.134-14.925 9.023-4.184 10.607-9.087 9.64-11.551 14.781-.44.918-2.502 2.676-4.458 4.537a20.951 20.951 0 0 1-.542-.103c-1.753-.351-4.489 1.847-4.57 4.948-.014.524.804.896 1.128 1.277.237.339.51.307.772.108 1.114.746 3.912.886 9.479-.032 10.438-1.721 29.942-25.329 24.667-34.539"/>
        <path fill="#0A0B09" d="M556.562 409.855c-1.163.532-2.2 2.303-4.477 1.551-.186-.06-.555 2.269-.683 4.484-.08 1.367-1.327 2.859-1.176 4.128.229 1.87 1.615 2.502 2.785 2.168.967-.274 1.92-.04 3.259-1.11.963-.771 2.515-1.506 3.259-3.027.561-1.145 1.108-2.788 1.37-4.5.162-1.068-.805-3.047 1.293-7.25-2.048 2.844-4.292 2.945-5.63 3.556"/>
        <path fill="#FFFFFE" d="M552.231 413.287l-.021-.998h1.996l-1.975.998"/>
        <path fill="#B4B5B4" d="M437.067 454.227l-.046-.009-.016-.003h-.014l-2.573.026.03.004.045.008.024.008.044.02.025.015.04.03.024.02.048.048.016.018.06.078.015.023.048.073.025.045.035.062.026.051.031.07.028.06.031.074.027.068.031.08.028.074.03.086.026.08.032.094.025.084.03.104.026.092.03.105.025.099.033.122.023.099.054.233c.014.055.026.112.04.17l.016.08.054.262.007.035.048.25.018.096.036.201.019.108c.014.076.026.151.038.229l.02.112c.013.092.03.185.043.278l.01.066c.02.125.04.253.058.382l.016.105c.014.102.028.206.044.31l.014.107.06.456.01.079c.015.14.033.28.051.423l.01.094c.022.181.044.365.061.552l.012.111c.023.19.04.381.062.579l.006.072c.021.226.045.455.066.689l.002.02c.021.233.043.472.063.713l.004.065.058.695.006.108c.018.23.035.461.051.696l.01.134c.016.224.032.45.046.68l.007.107.045.738.03.517.006.142.02.374c.004.065.007.132.009.197.006.11.012.219.016.328l.012.216.014.321c.004.057.006.116.008.174.014.3.026.605.037.912l.005.13c.012.308.021.619.034.931l.003.142.023.754.003.147.018.751.002.06c.008.339.013.682.02 1.027l.002.052.012.86.002.148.007.75.003.139c.002.215.002.43.002.647a72.39 72.39 0 0 1 .004.927v.148c0 .23 0 .456-.002.683v.135l-.007.8c0 .06 0 .119-.002.177-.002.27-.003.542-.007.81l-.002.113c-.004.31-.008.618-.014.924l-.002.033c-.004.324-.012.645-.02.964v.033c-.008.34-.018.675-.028 1.01v.037c-.012.35-.021.693-.034 1.034l-.002.025c-.011.338-.026.672-.037 1.002l-.004.076c-.014.328-.03.652-.045.971l-.009.179-.015.302-.013.22c-.004.094-.01.189-.013.282-.004.073-.01.146-.015.218-.004.105-.01.21-.017.312-.002.065-.006.13-.01.195-.01.137-.018.274-.026.41l-.006.082c-.01.17-.022.338-.034.506l-.012.162-.024.337c-.004.06-.008.12-.014.18l-.035.46-.004.068c-.016.175-.03.347-.044.517l-.01.118c-.018.194-.033.383-.052.57l-.002.016a22.53 22.53 0 0 1-.053.552l-.015.145-.02.192c-.005.06-.011.121-.019.182l-.02.193a9.456 9.456 0 0 0-.02.174l-.022.193-.02.165-.023.192-.018.162-.018.121-.024.195-.017.125c-.008.061-.015.121-.024.18l-.017.126c-.01.058-.017.116-.025.176l-.018.119c-.008.06-.018.119-.025.178l-.017.106-.032.195-.014.081c-.014.09-.028.176-.044.262l-.011.074-.032.183-.018.096-.028.15-.02.1-.027.135-.02.1-.029.13-.02.095-.029.125-.017.087-.032.13-.018.073c-.015.059-.03.117-.046.173l-.006.026c-.016.058-.031.115-.048.17l-.018.06-.032.111-.02.065-.031.094-.022.065-.03.086-.022.058-.031.08-.022.054-.032.075-.022.045-.038.082-.014.03-.053.097-.014.022-.042.063-.02.029-.033.047-.024.025-.032.036-.024.022-.034.029-.023.016-.035.022-.021.011-.038.014-.02.006-.055.008 2.573-.026.056-.007.02-.005.037-.015.022-.012.034-.02.024-.018.033-.027.024-.023.032-.036.022-.026.035-.046.02-.03.04-.06.016-.024.053-.098.014-.03.04-.08.02-.046.034-.075.022-.055.03-.078.022-.06.052-.149.031-.095.02-.065.032-.11.018-.061c.015-.055.032-.111.047-.17l.008-.025c.014-.057.03-.116.043-.176l.02-.07.031-.131.02-.086.027-.128.02-.093.028-.129.02-.1.028-.136.02-.1.028-.151.017-.095.032-.187.014-.069c.014-.086.027-.174.044-.263l.011-.078.03-.198.018-.105.026-.18.018-.117c.008-.06.016-.12.026-.178l.015-.124.026-.182.016-.125c.008-.064.016-.13.026-.196l.014-.12.006-.042.016-.12c.006-.065.014-.126.022-.19l.02-.165c.008-.065.013-.128.022-.194.005-.056.013-.115.02-.174l.021-.192.018-.184.02-.19.008-.078.008-.069.053-.55v-.019c.019-.186.034-.375.053-.567l.005-.065.004-.054c.017-.171.03-.343.044-.518l.004-.061c.014-.158.026-.318.037-.48l.005-.07.008-.081c.007-.12.017-.24.026-.36l.01-.153c.012-.168.023-.335.033-.506v-.01l.007-.077c.007-.134.015-.27.025-.405l.012-.197c.005-.104.01-.206.018-.31l.006-.092.005-.124c.007-.097.01-.195.017-.292.004-.068.005-.138.01-.207l.017-.312.006-.134.002-.04c.016-.325.03-.656.044-.989l.002-.034v-.016c.014-.333.028-.67.04-1.01l.002-.02v-.008c.012-.34.021-.683.032-1.032l.002-.01v-.028c.01-.333.019-.67.027-1.01v-.032c.009-.32.014-.641.02-.965l.002-.023v-.01c.006-.306.01-.612.015-.922l.001-.076v-.038c.004-.27.008-.54.01-.811v-.176c.004-.265.004-.532.006-.8v-.135c.002-.228.002-.454.002-.684v-.146-.651l-.002-.17v-.107l-.004-.647-.002-.099v-.04c-.002-.252-.004-.5-.008-.75v-.065l-.002-.084c-.004-.287-.006-.574-.012-.858v-.017l-.002-.037c-.004-.344-.012-.688-.02-1.026v-.012l-.002-.046c-.004-.253-.012-.504-.018-.755l-.003-.144a94.22 94.22 0 0 0-.023-.755l-.002-.069-.003-.07c-.008-.318-.02-.632-.032-.942l-.004-.112c-.013-.31-.024-.62-.038-.923l-.004-.06-.004-.113-.014-.322-.009-.214-.019-.33-.008-.196-.02-.376-.007-.14c-.024-.426-.048-.844-.074-1.254l-.008-.108c-.014-.229-.03-.456-.046-.68l-.007-.134c-.019-.235-.034-.467-.052-.696l-.008-.108c-.02-.235-.038-.467-.056-.694l-.002-.02-.004-.047-.061-.71-.002-.021c-.022-.235-.044-.465-.068-.691l-.004-.05-.002-.022-.06-.577-.013-.112a30.81 30.81 0 0 0-.062-.553l-.004-.032-.006-.061-.052-.424-.01-.078-.06-.455-.005-.042-.01-.068-.042-.306-.015-.107c-.019-.129-.039-.257-.056-.381l-.002-.014-.01-.056-.044-.276-.018-.11-.04-.23-.011-.066-.006-.044c-.014-.066-.026-.132-.038-.196l-.018-.1-.048-.248-.005-.032v-.003c-.019-.09-.036-.177-.056-.263l-.016-.076-.04-.175-.004-.024-.016-.07-.033-.139-.024-.095-.032-.127-.01-.039-.014-.053-.031-.112-.026-.09-.03-.102-.014-.047-.012-.04-.032-.093-.026-.079-.03-.087-.017-.048-.01-.025-.03-.082-.028-.066-.032-.075-.02-.043v-.002l-.006-.015-.033-.068-.026-.053-.034-.062-.022-.04-.004-.006-.048-.073-.014-.02-.062-.08-.001-.003-.014-.014-.047-.049-.024-.02-.04-.03-.01-.007-.016-.008-.043-.02-.024-.009"/>
        <path fill="#F2F1F0" d="M432.422 476.2c-.033-12.13.83-21.971 1.934-21.985 1.101-.013 2.022 9.809 2.057 21.939.036 12.127-.829 21.97-1.93 21.984-1.104.012-2.025-9.81-2.06-21.939"/>
        <path fill="#0E1220" d="M345.575 540.006l-2.175-4.088.396-2.529c-1.77-2.116-1.914-4.88-2.355-7.101-.438-2.188-.374-3.109-.931-5.61-.109-.48-.727-.672-1.351-.537-2.533.553-2.874 3.016-3.18 4.495-.291 1.465-.298 4.587-.395 6.083-.22 3.38.655 5.265-.475 5.513-.749.166-.768 3.72.532 3.783 3.343.166 8.245-.163 9.934-.009"/>
        <path fill="#FFC80A" d="M345.181 530.874c44.98-6.998 48.416-5.462 59.655-6.81 4.183-.503 51.018-2.72 53.54-2.967l-6.923 23.958c-29.994-1.96-88.858-7.006-106.583-6.074-1.039-2.815-2.435-1.472.311-8.107"/>
        <path fill="#FFC80A" d="M422.024 494.048c2.559 1.86 7.507 5.365 13.163 9.682 7.024 3.828 5.263 1.388 12.022 12.502 2.003 1.647 8.774 5.838 9.636 8.347.038.114 2.431 5.2 3.58 7.8 4.862 10.086-10.105 20.06-20.363 8.466-6.444-14.203-27.382-30.214-27.44-31.726-.237-6.203-7.62 19.039-10.06 29.454-4.356-2.309-8.711-4.617-13.065-6.923 1.4-.457 7.26-56.514 32.527-37.602"/>
        <path fill="#BCDFD1" d="M379.98 505.725c.104-.056 2.391-1.494 3.383-2.596l8.13 17.937-2.178 5.022c-.128-.177-1.298-1.256-1.386-1.436l-8.265-17.663c-.24-.483-.227-.984.316-1.264"/>
        <path fill="#3F46AD" d="M378.707 504.764c.72-.246 3.577-2.633 4.033-2.633.306 0 .512.105.813.12.303.014-3.421 2.727-3.36 2.587l9.334 19.881c-.018.082.019.077 2.038-4.715l21.89.307c-1.981 4.855-.106 6.824-.114 6.946-.038.639-.46.856-.967.825l-22.054-1.342c-.37-.025-.68-.179-.804-.512l-.03.076c-.553.287-.963-.001-1.208-.497l-9.333-19.036c-.244-.493-.68-1.856-.238-2.007"/>
        <path fill="#F7D0C2" d="M408.772 521.097c.36.205.72.399 1.082.559 4.27 1.894 7.042 1.83 8.276 2.109.46.104.891.207 1.314.302-.427 1.007-.86 2.012-1.284 3.02-3.524-.282-9.174-.106-11.239-.323-2.692-.276-2.945-.576-2.945-.576.417-.695 2.858-.592 4.178-.705.995.089 2.238.08 2.33.03.441-.25-1.323-.828-2.795-.701-1.438-.127-4.64 1.203-4.932 1.315-.604.226-3.785.277-4.204.119-.994.028 8.672-4.656 10.219-5.149"/>
        <path fill="#F7D0C2" d="M407.775 516.106c.357.204.72.398 1.083.558 4.268 1.895 7.038 1.831 8.274 2.11.462.105.89.206 1.314.302-.427 1.007-.858 2.012-1.285 3.02-3.523-.282-9.173-.106-11.239-.324-2.693-.276-2.945-.575-2.945-.575.417-.696 2.858-.592 4.18-.705.994.088 2.237.08 2.328.03.441-.25-1.32-.829-2.794-.7-1.44-.129-4.641 1.202-4.934 1.314-.603.226-3.785.277-4.202.119-.995.028 8.671-4.656 10.22-5.15"/>
        <path fill="#59BCB5" d="M414.509 518.848c4.204.046 7.65-.784 10.621-1.79 16.092-5.498 19.226-16.846 22.878-25.765 2.113-4.31 7.075-10.476 6.292-1.607-1.334 8.228-8.982 29.729-9.06 29.794-10.26 8.462-19.759 9.263-30.089 5.344.33-2.051-.978-5.98-.642-5.976"/>
        <path fill="#59BCB5" d="M433.847 524.355c4.945-9.067 9.395-40.454 11.079-40.785.194-.038.476 2.185.476 2.185s8.602-3.278 9.415-3.622c.978-.421.328-.05 1.274-.566 3.14-1.713 14.835 2.003 14.242 12.637 0 0-.092.597-.267 1.66-.004 2.314-.296 4.68-.692 6.198a27.746 27.746 0 0 1-.813 2.502 843.42 843.42 0 0 1-.394 2.146c-.828 7.236.175 14.836-4.22 19.821-.158.624-.318 1.24-.478 1.841.843 4.305.373 6.375-3.763 6.092-7.857 2.538-29.592-3.263-25.859-10.109"/>
        <path fill="#187070" d="M442.842 488.155c-.533-.873-.633-1.54 0-1.996v1.996"/>
        <path fill="#59BCB5" d="M415.524 523.262c9.23-1.487 12.02-2.649 18.702-8.412 9.375-8.082 16.439-19.768 23.812-29.208 3.978-4.437 12.235 1.558 8.273 11.934-3.096 11.555-16.897 24.834-23.622 27.513-8.487 4.513-21.795 4.957-28.236 2.554l1.071-4.38"/>
        <path fill="#42A7A6" d="M458.76 485.363c-2.116 2.665-4.168 5.454-6.34 8.407-5.457 7.418-11.098 15.089-18 20.937-6.683 5.671-9.576 6.98-18.994 8.488l-.927 3.72c2.467.83 5.864 1.285 9.632 1.285 6.805 0 13.696-1.48 18.478-3.976 6.441-2.522 20.598-15.472 23.832-27.329 1.514-3.9 1.366-7.63-.413-10.242-1.111-1.632-2.742-2.606-4.362-2.606-1.114 0-2.125.463-2.906 1.316zm-44.933 42.25l-.372-.137 1.26-5.062.287-.045c9.545-1.513 12.186-2.681 18.852-8.336 6.823-5.782 12.434-13.41 17.86-20.788 2.177-2.96 4.233-5.755 6.379-8.454.97-1.064 2.205-1.627 3.573-1.627 1.912 0 3.814 1.119 5.088 2.991 1.942 2.856 2.127 6.886.52 11.016-3.287 12.065-17.76 25.297-24.305 27.856-4.926 2.577-11.795 4.056-18.838 4.056-4.061 0-7.722-.523-10.304-1.47z"/>
        <path fill="#F7D0C2" d="M439.315 470.662c.092-2.495-.568-5.27 2.294-6.398 1.092-.434.937-1.774 6.224-2.063.382.011 1.582 5.763 1.702 8.003.08.274-.497 1.21-.058.418 1.835-3.133 4.455-1.365 4.213.305-.35 2.402.68 1.068 1.505 1.652.067.048.574 3.64.574 3.64l2.607 5.947s-2.762 5.063-8.839 6.756c-3.833 1.067-4.012-1.904-4.012-1.904s-.753-6.104-1.592-5.887c-4.409 1.138-2.352 1.583-3.576-5.77-.03-.175-1.117.221-1.82.03-.51-.138.679-2.062.778-4.729"/>
        <g transform="translate(442.404 476.176)">
            <mask id="r" fill="#fff">
                <use xlink:href="#q"/>
            </mask>
            <path fill="#DEAB8C" d="M.055 7.705h5.838v-2.54H.055z" mask="url(#r)"/>
            <path fill="#DEAA8B" d="M5.893 5.255l-5.802-.09v-.017l5.802.09" mask="url(#r)"/>
            <path fill="#DEAA8C" d="M5.893 5.238l-5.802-.09.001-.071 5.802.09" mask="url(#r)"/>
            <path fill="#DEA98C" d="M5.894 5.166l-5.802-.09.001-.106 5.803.09" mask="url(#r)"/>
            <path fill="#DEA88B" d="M5.896 5.06L.093 4.97l.001-.018 5.802.09" mask="url(#r)"/>
            <path fill="#DEA88C" d="M5.896 5.042l-5.802-.09V4.9l5.803.089M5.897 4.989l-5.802-.09v-.088l5.803.09" mask="url(#r)"/>
            <path fill="#DDA78B" d="M5.898 4.9L.096 4.81v-.034l5.802.089" mask="url(#r)"/>
            <path fill="#DEA78C" d="M5.898 4.865l-5.802-.09.002-.07 5.802.089" mask="url(#r)"/>
            <path fill="#DEA68C" d="M5.9 4.794l-5.802-.09v-.07l5.803.089" mask="url(#r)"/>
            <path fill="#DEA68B" d="M5.9 4.723L.1 4.633v-.017l5.802.089" mask="url(#r)"/>
            <path fill="#DEA68C" d="M5.9 4.705L.1 4.615l.001-.07 5.802.09" mask="url(#r)"/>
            <path fill="#DDA58C" d="M5.902 4.634L.1 4.544l.001-.07 5.802.09" mask="url(#r)"/>
            <path fill="#DDA48B" d="M5.903 4.564l-5.802-.09v-.036l5.803.09" mask="url(#r)"/>
            <path fill="#DDA48C" d="M5.904 4.528L.1 4.438v-.035l5.803.09" mask="url(#r)"/>
            <path fill="#DDA38C" d="M5.904 4.492L.102 4.403l.002-.107 5.802.09" mask="url(#r)"/>
            <path fill="#DDA38C" d="M5.906 4.386l-5.802-.09v-.088l5.803.09" mask="url(#r)"/>
            <path fill="#DDA28B" d="M5.907 4.298l-5.802-.09v-.053l5.802.09" mask="url(#r)"/>
            <path fill="#DEA28C" d="M5.907 4.244l-5.802-.09.001-.017 5.802.09M5.908 4.226l-5.802-.09.001-.106 5.803.09" mask="url(#r)"/>
            <path fill="#DEA18B" d="M5.91 4.12L.107 4.03v-.035l5.803.09" mask="url(#r)"/>
            <path fill="#DDA18C" d="M5.91 4.084L.108 3.995V3.96l5.802.089" mask="url(#r)"/>
            <path fill="#DDA08B" d="M5.91 4.049l-5.802-.09.002-.088 5.802.09" mask="url(#r)"/>
            <path fill="#DD9F8B" d="M5.912 3.96L.11 3.87v-.052l5.803.089M5.913 3.907L.11 3.817V3.8l5.802.09M5.913 3.89L.11 3.8l.001-.07 5.802.088" mask="url(#r)"/>
            <path fill="#DD9E8B" d="M5.914 3.818L.112 3.73.174-.536l5.802.09" mask="url(#r)"/>
        </g>
        <path fill="#0E1220" d="M436.474 462.177c.438-2.784 2.69-5.82 7.412-4.705 1.777.42 2.99-1.977 4.225-.764 3.576-2.108 7.05 3.033 7.503 5.32.105.531.127 1.113.123 1.668 1.61.252 1.697 1.514 1.48 2.94 3.677 2.354-2.629 6.658-2.048 9.227.783 3.444-3.04-.884-3.354-1.758 0 0 .851-.347.63-1.849-.253-1.705-2.127-3.44-3.45.022-.178.504-.39-1.737-.622-3.876-2.294 1.268-4.53-.402-5.946-2.358-1.91.237-3.812.25-4.735-.437-.73-.543-1.5-1.651-1.218-3.43"/>
        <path fill="#FFFFFE" d="M441.406 476.992l.101 1.18c.3-.103.897-1.996.897-1.996l-.998.816"/>
        <path fill="#1A4B76" d="M263.357 435.704c9.69 1.298 19.63 1.1 24.402-3.225 1.365-1.236 1.741-2.82 1.058-4.456-1.213-2.904-5.93-6.134-13.424-6.362-6.171-.189-10.555 1.238-12.626 4.128-1.935 2.7-1.468 6.042-.386 8.267.267.55.594 1.1.976 1.648zm45.62 18.002c9.171.94 12.091-.04 12.304-.45-.03 0-.255-.209-.919-.413-2.094-.645-6.324-.71-11.385.863zm124.405 26.463c-.813-.028-2.046-.066-3.646-.115-59.035-1.794-130.077-6.287-133.256-17.499-.625-2.207 1.099-4.424 5.272-6.784a36.864 36.864 0 0 1 3.115-1.574c-1.928-.263-4.02-.59-6.28-.985-16.419-2.882-30.545-9.52-35.85-16.62-6.17-.849-12.177-2.28-16.688-3.64-20.7-6.238-41.504-19.578-41.223-33.002.274-13.003 25.167-22.902 44.708-28.588l.316.935c-20.603 5.996-43.724 15.908-43.973 27.675-.24 11.425 16.79 24.903 40.494 32.048a114.365 114.365 0 0 0 15.633 3.494c-.216-.352-.41-.703-.582-1.056-1.197-2.464-1.703-6.18.47-9.216 1.592-2.22 5.235-4.82 13.534-4.56 7.97.242 13.037 3.793 14.371 6.99.846 2.023.383 3.982-1.304 5.51-4.857 4.403-14.655 4.771-24.311 3.597 5.523 6.607 18.988 12.73 34.598 15.471 2.99.523 5.61.913 7.9 1.197 7.783-2.968 13.933-2.053 15.24-.928.401.343.514.784.302 1.177-.714 1.33-5.727 1.911-15.375.754a35.05 35.05 0 0 0-4.549 2.159c-3.67 2.074-5.284 3.991-4.802 5.699 1.363 4.8 20.357 13.365 132.273 16.767 1.6.05 2.837.086 3.65.114l-.037.98z"/>
        <path fill="#FFC80A" d="M268.71 317.457h35.937V281.52h-35.936z"/>
        <path fill="#3F46AD" d="M310.637 317.457h35.936V281.52h-35.936z"/>
        <path fill="#FFC80A" d="M351.564 317.457h35.937V281.52h-35.937z"/>
        <path fill="#14236C" d="M393.49 317.457h35.937V281.52H393.49z"/>
        <path fill="#0E1220" d="M209.815 370.363c1.57-4.867 2.964-9.112 3.992-11.979v.001c-1.027 2.865-2.423 7.114-3.992 11.978"/>
        <g transform="translate(226.785 295.496)">
            <mask id="t" fill="#fff">
                <use xlink:href="#s"/>
            </mask>
            <path fill="#1A6993" d="M.104 6.384h.504V.469H.104z" mask="url(#t)"/>
        </g>
        <g>
            <path fill="#F7D0C2" d="M218.709 295.355c-.093-.202-.137-.468-.094-.593.238-.636-.155-1.078-.489-1.371-.364-.322.135-.744-.493-.79-.61-.044-1.793.224-2.95.537-.48.13-2.734.152-2.048-1.047.287-.498 1.264-.743 1.31-1.314 0 0-.516-.717-2.103.089-1.354.68-5.114 3.37-7.089 4.288.187.519.35 1.053.471 1.608.052.239.113.473.167.709.231-.078.46-.153.709-.238 1.635-.553 13.167-.659 12.609-1.878"/>
            <path fill="#3F46AD" d="M185.787 302.462c7.89-.698 19.408-4.012 22.959-5.457l-1.007-3.215c-6.948-.726-18.626.732-21.947-3.307l-.005 11.98"/>
            <path fill="#14236C" d="M196.767 294.476h35.937V258.54h-35.937z"/>
            <path fill="#F7D0C2" d="M182.227 256.274c-3.129-3.668-1.48-5.722-1.66-5.72-1.719.053-2.887.838-7.243 1.48-.313.075.23 3.653.498 5.573-.02.243.603.938.12.342-2.008-2.343-2.766-.327-2.293 1.04.676 1.976 1.328 2.454 1.41 2.666.202.521-1.166-.622-1.745.01l-.797 5.472-1.7 5.859s1.096 1.147 6.33 1.501c5.083.27 4.692-3.328 4.692-3.328s-.382-5.292.337-5.252c3.78.219 2.88-.066 2.673-6.498-.01-.304 2.491.5-.622-3.145"/>
            <g transform="translate(173.808 262.533)">
                <mask id="v" fill="#fff">
                    <use xlink:href="#u"/>
                </mask>
                <path fill="#DEAB8C" d="M-.334 8.904h7.468v-4.2H-.334z" mask="url(#v)"/>
                <path fill="#DEAA8B" d="M-.334 6.23l6.907-1.525-.004-.017-6.907 1.525" mask="url(#v)"/>
                <path fill="#DEAA8C" d="M-.338 6.213L6.57 4.688 6.551 4.6-.356 6.126" mask="url(#v)"/>
                <path fill="#DEA98C" d="M-.356 6.126l6.907-1.525-.022-.104-6.907 1.526" mask="url(#v)"/>
                <path fill="#DEA88B" d="M-.378 6.023L6.53 4.497l-.004-.018-6.907 1.526" mask="url(#v)"/>
                <path fill="#DEA88C" d="M-.382 6.005l6.907-1.526-.015-.068-6.906 1.525M-.396 5.936L6.51 4.411l-.017-.087L-.414 5.85" mask="url(#v)"/>
                <path fill="#DDA78B" d="M-.414 5.85l6.907-1.526-.008-.034-6.907 1.524" mask="url(#v)"/>
                <path fill="#DEA78C" d="M-.422 5.814L6.485 4.29l-.018-.087L-.44 5.728" mask="url(#v)"/>
                <path fill="#DEA68C" d="M-.44 5.728l6.907-1.525-.015-.07L-.454 5.66" mask="url(#v)"/>
                <path fill="#DEA68B" d="M-.454 5.659l6.906-1.525-.003-.018-6.907 1.526" mask="url(#v)"/>
                <path fill="#DEA68C" d="M-.458 5.642L6.45 4.116 6.43 4.03-.476 5.555" mask="url(#v)"/>
                <path fill="#DDA58C" d="M-.476 5.555L6.43 4.03l-.015-.07L-.49 5.486" mask="url(#v)"/>
                <path fill="#DDA48B" d="M-.49 5.486L6.415 3.96l-.007-.034-6.907 1.525" mask="url(#v)"/>
                <path fill="#DDA48C" d="M-.498 5.451L6.41 3.926l-.011-.052L-.51 5.399" mask="url(#v)"/>
                <path fill="#DDA38C" d="M-.509 5.4l6.907-1.526-.022-.104L-.53 5.295M-.53 5.295L6.375 3.77l-.021-.104-6.907 1.525" mask="url(#v)"/>
                <path fill="#DDA28B" d="M-.552 5.191l6.907-1.525-.012-.052-6.906 1.525" mask="url(#v)"/>
                <path fill="#DEA28C" d="M-.563 5.14l6.906-1.526-.007-.034L-.57 5.105" mask="url(#v)"/>
                <path fill="#DEA28C" d="M-.57 5.105L6.336 3.58l-.021-.104L-.592 5" mask="url(#v)"/>
                <path fill="#DEA18B" d="M-.592 5.001l6.907-1.525-.011-.053L-.603 4.95" mask="url(#v)"/>
                <path fill="#DDA18C" d="M-.603 4.949l6.907-1.526-.004-.017-6.907 1.526" mask="url(#v)"/>
                <path fill="#DDA08B" d="M-.607 4.932L6.3 3.406l-.022-.104-6.906 1.526" mask="url(#v)"/>
                <path fill="#DD9F8B" d="M-.628 4.828l6.906-1.526-.01-.051L-.64 4.776M-.64 4.776l6.907-1.525-.007-.035L-.647 4.74" mask="url(#v)"/>
                <path fill="#DD9F8B" d="M-.647 4.741L6.26 3.216l-.014-.069-6.907 1.525" mask="url(#v)"/>
                <path fill="#DD9E8B" d="M-1.602 4.672h7.847v-6.006h-7.847z" mask="url(#v)"/>
            </g>
            <path fill="#EEA530" d="M167.182 250.697c2.49-2.004 3.422-.338 7.399-2.99 1.97-1.319 3.43-1.574 4.54-1.16a3.29 3.29 0 0 1 2.346-.984c1.834 0 3.321 1.498 3.321 3.347a3.33 3.33 0 0 1-3.32 3.34c-.329 0-.637-.06-.937-.15-1.538-.09-3.848-.239-6.848.368-.103.823 1.366 4.141 1.647 6.095-.022.246-.221 1.102-.727.497-2.094-2.387-3.216-1.003-2.723.387.705 2.009 1.792 1.75 1.797 2.208.008.796-.58 1.563-1.182 2.151-1.05 1.022-1.41 1.092-1.481-.65-.103-2.485-8.371-8.815-3.832-12.46"/>
            <path fill="#FFFFFE" d="M182.73 260.8l.062.734c-.843.005-2.995-.998-2.995-.998l2.934.263"/>
            <path fill="#0A0B09" d="M178.918 401.287l2.855.616 1.884-.004c1.31 1.001 3.298 1.275 4.85 1.648 1.531.371 2.21.408 3.952.858.337.085.395.396.216.683-.724 1.17-2.556 1.152-3.668 1.187-1.1.036-3.363-.193-4.462-.257-2.48-.144-3.738-.697-4.063-.177-.216.346-2.799.091-2.677-.535.31-1.608 1.01-3.2 1.113-4.019M146.763 400.36l3.065-.067 1.887-.004c1.307 1.139 3.294 1.452 4.85 1.877 1.53.422 2.208.465 3.95.977.338.1.395.452.217.782-.727 1.331-2.554 1.308-3.668 1.352-1.102.037-3.363-.22-4.464-.292-2.482-.163-3.737-.799-4.061-.207-.218.396-2.798.108-2.678-.605.309-1.833.802-2.881.902-3.814"/>
            <path fill="#333" d="M155.2 399.555c3.94-6.864 16.473-47.874 19.995-56.042 1.314-3.038 5.852-24.224 6.599-26.068l-16.998-.01c-5.505 22.817-15.213 68.884-19.937 81.987 1.735 1.294 5.061.97 10.341.133"/>
            <path fill="#0C0D0E" d="M169.489 360.36s-11.664-5.865-7.916-24.956c5.597 6.216 8.736 5.993 12.235 11.139-1.027 3.044-2.42 7.553-3.987 12.722l-.332 1.095"/>
            <path fill="#333" d="M177.251 401.612c-1.931-4.345-5.025-24.51-7.808-38.365-1.204-5.995-2.36-8.655-3.328-10.496-9.355-17.779-4.174-25.599-.507-35.315l18.598.39c1.434 26.613.19 71.29 3.577 84.946-1.906 1.083-5.254.33-10.532-1.16"/>
            <path fill="#14236C" d="M165.175 283.711c0-3.155.624-5.406 3.51-7.075.141-.084 1.013 1.427 1.013 1.427s7.261-2.654 7.949-2.933c.829-.343.28-.041 1.077-.458 2.654-1.39 9.06 6.524 9.06 12.764 0 0-3.444 18.06-2.23 27.608.716 5.637-18.923 6.868-20.38 3.607-.79-1.765 0-34.94 0-34.94"/>
            <path fill="#3F46AD" d="M187.783 279.045c0-3.166-4.118-4.806-7.518-6.475-.169-.085-.205.252-1.412.604-2.326.678-7.002-.415-9.562-1.638-.746-.353-13.204 4.16-12.418 13.692 0 0 7.401 16.22 5.964 25.804-.844 5.657 22.324 6.892 24.042 3.62.933-1.774.904-35.607.904-35.607"/>
            <path fill="#1E4084" d="M186.75 290.483c-4.857-2.513-3.613-1.49-5.955-5.99h5.99c-.007 1.77-.018 3.815-.035 5.99"/>
            <path fill="#3F46AD" d="M216.108 258.54c-2.942 9.418-8.35 11.516-11.99 16.975-.802 1.2-18.47-5.572-26.817-2.553-4.047 1.784.533 15.76 8.715 15.386 8.795.516 20.622-.293 24.103-4.44 5.187-4.97 10.733-20.126 10.604-25.265l-4.615-.103"/>
            <path fill="#F7D0C2" d="M214.82 258.452l4.656.088c.597-.847-.053-1.882-.112-1.925-.131-.092-.859-.074-1.124 0-.268.075-.766-.126-.992-.055-.53.166-.756-.153-1.182.058-.419.208-.791.663-1.109 1.116-.036.052-.26.467-.216.572l.08.146"/>
        </g>
    </g>
</svg>
