<svg xmlns="http://www.w3.org/2000/svg" xmlns:xlink="http://www.w3.org/1999/xlink" width="756" height="600" viewBox="0 0 756 600">
    <defs>
        <path id="a" d="M1.188 92.93C-3.68 63.187 45.04 51.543 57.726 69.652 53.66 41.248 76.6 4 115.944.792c74.276-6.948 52.75 48.242 88.443 49.04 32.614-.615 8.307-47.751 82.485-24.137 17.752 5.28 26.755 25.131 39.301 49.66 25.416-27.96 40.999-9.752 45.664 17.574a1315.266 1315.266 0 0 1-370.649 0z"/>
        <path id="b" d="M-302.42 576.148c-4.87-29.741 37.593-53.175 50.281-35.065-4.066-28.403 18.87-65.651 58.22-68.86 74.273-6.948 52.746 48.243 88.443 49.042 32.616-.616 8.304-47.755 82.48-24.138 17.754 5.277 26.758 25.131 39.304 49.655 25.416-27.962 40.995-9.75 45.665 17.58-136.895 9.228-222.525 11.786-364.393 11.786z"/>
        <path id="c" d="M.142 371.404V3.197l288.685-2.7 51.696-.483v132.878c-.522.799-1.12 1.883-1.12 1.883s-13.265-5.05-14.511-5.584c-1.512-.649-.51-.079-1.966-.872a2.579 2.579 0 0 0-1.253-.306c-1.864 0-4.286 1.662-6.652 4.29-3.786.089-8.2 1.748-12.504 5.808-8.147 8.602-18.106 26.821-20.298 52.133-1.01 11.648-.497 26.232 3.041 37.456 3.129-1.297 6.38-3.148 9.617-4.047-1.776-9.587-1.691-17.454 1.875-28.333.29-.885.595-1.768.914-2.648 2.882-7.947 6.91-15.66 11.263-23.166 1.437 11.316 2.724 25.892 1.52 35.732a4.495 4.495 0 0 0 .358 2.401c-7.261 21.223-11.945 142.132-12.938 157.9 2.59 1.013 6.24 3.193 11.152 3.193 2.37 0 5.033-.507 8.012-1.898-.222-29.887 10.097-74.14 14.707-102.49-2.7 36.818.283 96.962 3.518 104.508 1.95.572 3.695.986 5.265 1.264v.48l-340.38.808zm73.773-267.65l-28.91.326.687 60.716 59.114-.675-.045-4.045h163.712V37.517H73.915v66.236z"/>
        <path id="d" d="M.42.644C-.324.015 9.503 14.376 9.503 14.376s-.645-9.409.603-9.08c.398.096-3.883.203-9.688-4.652z"/>
        <path id="f" d="M.49 35.367C.46 24.883 3.412 7.11 12.468 2.147 14.764.887 16.638.31 18.166.31c2.108 0 3.563 1.096 4.568 3.007C21.731 1.41 20.282.316 18.182.31h-.037c-1.526.005-3.392.582-5.677 1.837C3.498 7.063.518 24.543.49 35.063v.304z"/>
        <path id="h" d="M1.143 1.427A64.53 64.53 0 0 1 .554.62a8.658 8.658 0 0 0-.04-.096l-.047-.2a33 33 0 0 1 .676 1.102"/>
        <path id="j" d="M7.656.137c.515-.742-5.635 11.557-5.635 11.557S1.212 7.227.152 6.644C.038 6.582 3.586 5.93 7.656.137z"/>
    </defs>
    <g fill="none" fill-rule="evenodd">
        <g fill="#4A51B6" transform="translate(309 22)">
            <use xlink:href="#a"/>
            <use xlink:href="#b"/>
        </g>
        <path fill="#373E9C" d="M211.943 536.301C124.958 494.09 80.234 401.695 72.995 275.007 63.753 78.747 187.747 12.689 313.428 1.303c8.444-.71 16.92-1.048 25.391-1.048 118.406 0 235.748 66.21 246.72 110.251 25.767 103.4-31.57 109.555-84.911 114.615l-288.685 2.699V536.3m348.723-112.328c.393-6.804.763-15.375 1.07-23.364 5.406 6.398 11.714 9.581 18.393 11.484-1.789 2.603-3.211 5.196-4.163 7.713-1.307 3.452-4.01 3.937-7.288 3.937-.64 0-1.304-.019-1.983-.037-.679-.019-1.373-.037-2.077-.037-1.297 0-2.627.063-3.952.304m36.02-28.926c-1.864-13.76-6.077-29.783-6.077-29.783.575-.337-.603-.387-2.393-.387-.38 0-.788.002-1.213.004-.426.003-.869.005-1.318.005-2.251 0-4.647-.058-5.787-.464l.967 30.602-.096-.13a33 33 0 0 0-.677-1.101l.048.2.04.095c-8.073-11.23-11.523-23.76-19.135-29.123-.465-.328-1.154-.653-1.97-.966-1.638-3.172-3.735-5.93-6.024-7.312a.043.043 0 0 0-.025-.006c-.12 0-.398.369-.703.834v-63.967c35.176 7.626 63.119 29.533 60.142 91.118-5.29 2.807-10.732 6.382-15.78 10.381"/>
        <path fill="#FFF" d="M489.726 209.916l-.479-1.626a72.06 72.06 0 0 1 18.344-3.971l.115 1.705a70.75 70.75 0 0 0-17.98 3.892zm54.11 1.878c-5.897-2.339-11.883-4.021-17.805-4.995l.221-1.693c6.03.992 12.118 2.7 18.108 5.078l-.524 1.61zm-85.382 18.846l-1.047-1.252c4.69-4.818 9.693-9.015 14.865-12.483l.804 1.464c-5.082 3.404-10.002 7.533-14.622 12.271zm117.285 1.213c-4.826-4.306-9.943-8.177-15.208-11.507l.77-1.485c5.338 3.374 10.52 7.298 15.406 11.66l-.968 1.332zm-234.46 20.953c-5.86-.814-12.034-1.053-18.382-.709l-.077-1.708c6.435-.354 12.704-.11 18.652.718l-.193 1.699zm-54.538 6.899l-.471-1.627c6.064-2.153 12.133-3.888 18.043-5.158l.297 1.68c-5.85 1.256-11.86 2.973-17.869 5.105zm313.66 2.24a126.96 126.96 0 0 0-11.269-16.106l1.142-1.148a129.555 129.555 0 0 1 11.422 16.317l-1.294.936zm-164.489.746l-1.342-.857c3.209-6.162 6.68-11.938 10.313-17.162l1.225 1.042c-3.586 5.168-7.024 10.876-10.196 16.977zm-60.29 3.564a73.994 73.994 0 0 0-16.46-8.878l.509-1.614a75.308 75.308 0 0 1 16.79 9.057l-.838 1.435zm-122.732 9.742l-.744-1.498a201.646 201.646 0 0 1 16.704-9.114l.618 1.569a198.717 198.717 0 0 0-16.578 9.043zm147.775 19.487c-3.23-5.975-6.935-11.435-11-16.23l1.123-1.17c4.148 4.884 7.916 10.444 11.203 16.527l-1.326.873zm-178.597 3.072l-.953-1.346a239.052 239.052 0 0 1 15.1-12.041l.857 1.423a239.478 239.478 0 0 0-15.004 11.964zm392.652.651c-1.241-6.469-3.124-12.976-5.603-19.35l1.426-.676c2.512 6.479 4.423 13.093 5.688 19.67l-1.511.356zm-193.865.725l-1.461-.558c2.09-6.693 4.37-13.138 6.784-19.162l1.412.694c-2.392 5.975-4.66 12.377-6.735 19.026zm-226.11 26.177l-1.124-1.174a263.107 263.107 0 0 1 13.272-14.437l1.042 1.267a261.82 261.82 0 0 0-13.19 14.344zm218.388 3.461l-.787-3.14c-1.1-4.362-2.347-8.603-3.727-12.613l1.445-.605a153.2 153.2 0 0 1 2.976 9.713c.304-1.307.61-2.599.92-3.876l1.493.443c-.55 2.266-1.09 4.57-1.611 6.916l-.709 3.162zm202.37 10.309l-1.494-.44c1.577-6.483 2.423-13.232 2.524-20.064l1.55.026c-.105 6.973-.974 13.86-2.58 20.478zm-443.967 18.033l-1.28-.966a263.296 263.296 0 0 1 11.12-16.508l1.204 1.072a259.226 259.226 0 0 0-11.044 16.402zm-18.258 35.506l-1.409-.713a248.188 248.188 0 0 1 8.51-18.315l1.34.846a245.636 245.636 0 0 0-8.44 18.182zm-12.183 38.507l-1.503-.403a226.46 226.46 0 0 1 5.301-19.731l1.456.562a225.854 225.854 0 0 0-5.254 19.572zm-4.935 40.379l-1.547-.046c.166-6.803.676-13.707 1.513-20.516l1.532.228a208.762 208.762 0 0 0-1.498 20.334zm1.556 40.95a206.437 206.437 0 0 1-2.576-20.404l1.54-.144a204.904 204.904 0 0 0 2.552 20.218l-1.516.33zm10.995 39.294a217.11 217.11 0 0 1-6.427-19.326l1.476-.512a215.208 215.208 0 0 0 6.375 19.165l-1.424.673zm17.728 36.161a244.701 244.701 0 0 1-9.609-17.627l1.36-.823a240.453 240.453 0 0 0 9.535 17.508l-1.286.942z"/>
        <path fill="#4A51B6" d="M125.12 354.44c-1.725-17.142 15.547-23.846 20.046-13.415-1.44-16.366 6.692-37.828 20.642-39.677 26.335-4.002 18.701 27.794 31.357 28.256 11.562-.354 2.943-27.515 29.242-13.904 6.295 3.038 9.488 14.476 13.936 28.612 9.012-16.112 14.536-5.62 16.19 10.127-43.584 10.079-87.829 10.079-131.412 0zM394.773 195.691c.919-9.145-8.296-12.721-10.697-7.157.77-8.731-3.57-20.181-11.015-21.17-14.05-2.136-9.977 14.832-16.732 15.078-6.17-.188-1.57-14.682-15.604-7.42-3.358 1.62-5.06 7.724-7.432 15.267-4.811-8.598-7.76-3-8.643 5.402 23.257 5.38 46.863 5.38 70.123 0zM713.188 432.326c1.809-11.093-16.356-15.436-21.09-8.682 1.515-10.598-7.04-24.488-21.718-25.683-27.705-2.594-19.674 17.99-32.988 18.289-12.166-.228-3.099-17.81-30.77-9.003-6.62 1.969-9.98 9.37-14.66 18.523-9.482-10.43-15.288-3.638-17.027 6.556a490.473 490.473 0 0 0 138.253 0z"/>
        <g fill="#FFC80A">
            <path d="M302.914 150.744c-.334 4.56-.507 20.589-.047 24.834l17.37-11.126-17.323-13.708zm-.85 27.256l-.422-.711c-1.092-1.838-.573-27.236-.038-28.377l.43-.912L323 164.59 302.064 178z"/>
            <path d="M303.186 176.313c1.463 1.918 4.173 3.662 6.4 4.045.135.012 1.618.066 13.62.066 9.78 0 21.138-.038 21.701-.074 3.554-.616 7.555-2.019 9.007-3.846l-17.687-11.536-7.566 6.46-7.568-6.466-17.907 11.351zm20.02 5.687c-13.32 0-13.74-.065-13.878-.087-2.924-.503-6.404-2.885-7.932-5.424l-.396-.658 20.235-12.825 7.426 6.345 7.44-6.351L356 175.98l-.292.62c-1.698 3.608-9.122 5.057-10.595 5.311-.437.068-17.202.089-21.907.089z"/>
            <path d="M337.571 164.356l16.77 11.284c.3-.875.457-1.768.457-2.623 0-3.833.167-6.942.329-9.95.157-2.986.324-6.073.324-9.863 0-1.237-.329-2.55-.939-3.775l-16.94 14.927zM355.024 178L335 164.526 354.89 147l.478.772c1.067 1.716 1.632 3.594 1.632 5.432 0 3.834-.167 6.943-.33 9.95-.157 2.986-.324 6.074-.324 9.863 0 1.368-.324 2.804-.944 4.154l-.378.829z"/>
            <path d="M303.998 148.905l25.58 20.998 25.33-22.11c-1.384-1.904-3.366-3.226-5.408-3.586-6.65-1.073-12.838-1.595-18.915-1.595s-12.268.522-18.928 1.597c-2.684.473-6.226 2.422-7.659 4.696zM329.608 172L302 149.337l.267-.575c1.418-3.051 5.846-5.565 9.132-6.143 6.753-1.09 13.026-1.619 19.186-1.619 6.157 0 12.43.53 19.171 1.617 2.686.472 5.252 2.297 6.872 4.882l.372.59L329.608 172z"/>
        </g>
        <path fill="#59BCB5" d="M224.438 93.54c.19.003 0 .491 0 .491 8.644-3.517 68.227-5.844 70.126 7.321 3.058 21.243 6.151 36.045-9.974 42.418-10.36 4.096-33.145 3.016-47.802 1.646l-11.758 8.739.277-10.058a40.579 40.579 0 0 1-1.453-.237c-16.025-3.053-25.106-50.7.584-50.32"/>
        <path fill="#FFFFFE" d="M233.946 101.865c-.08-.154-.235-.38-.495-.38s-.427.23-.514.38c-.173.124-.277.437-.39.919-.116.506-.278 1.07-.492 1.72-.093.608-.22 1.216-.376 1.808-.246.936-.246 1.055-.246 1.114 0 .18-.032.393-.097.63-.105.385-.116.533-.116.604-.002.032-.024.188-.23.92-.161.572-.29 1.23-.388 1.953-.093.698-.23 1.365-.409 1.985-.177.617-.312 1.03-.415 1.254-.095.31-.198.707-.302 1.178-.103.467-.201.907-.297 1.319a7.504 7.504 0 0 0-.185 1.208c-.025.375-.036.61-.036.708 0 .092-.012.37-.037.834-.023.454-.08.993-.174 1.594a120.97 120.97 0 0 1-.403 2.091 50.792 50.792 0 0 0-.404 2.241l-.287 1.584c-.1.553-.148.93-.148 1.155 0 .203-.008.488-.024.857a6.197 6.197 0 0 1-.331 1.724l-.011-.05a4.715 4.715 0 0 1-.124-1.103l-.007-.06c-.092-.393-.15-.994-.173-1.78a76.418 76.418 0 0 1-.034-2.278c0-.72-.033-1.393-.097-1.993a13.428 13.428 0 0 1-.094-1.317l-.008-.058a12.65 12.65 0 0 0-.29-1.083c-.126-.381-.131-.483-.131-.5l-.009-.069c-.15-.564-.18-.832-.18-.955 0-.226-.05-.568-.15-1.042-.096-.456-.192-.89-.291-1.325-.093-.291-.183-.65-.268-1.066-.083-.41-.127-.712-.127-.9l-.024-.112c-.059-.128-.177-.484-.399-1.447a22.35 22.35 0 0 1-.412-2.4c-.094-.828-.223-1.649-.383-2.438-.193-.953-.234-1.305-.234-1.434l-.023-.113c-.06-.126-.158-.474-.301-1.426-.12-.8-.286-1.627-.489-2.433a477.65 477.65 0 0 0-.415-2.476c-.121-.696-.437-.841-.68-.841-.199 0-.37.126-.508.377-.11.201-.163.366-.163.509v1.237l.023.112c.088.188.188.505.294.939.108.44.209.863.302 1.265 0 .523.034.979.099 1.358.081.486.091.622.091.658 0 .078.012.224.116.605.065.238.098.45.098.633 0 .123.037.31.116.604.066.24.099.452.099.633 0 .077.01.22.103.6.058.239.087.454.087.64l.013.08c.091.29.185.661.278 1.105.09.431.137.792.137 1.076l.012.08c.095.297.184.617.27.97.113.466.123.59.123.616 0 .224.044.576.136 1.071.087.472.177 1.02.284 1.679.204.613.393 1.245.566 1.878.168.618.252 1.07.252 1.346 0 .322.04.642.116.957.064.271.098.501.098.685l-.006.104.079.077c.004.006.076.114.093.64.017.44.025.921.025 1.44 0 .532.036 1.163.109 1.873.07.696.105 1.252.105 1.65 0 .425.044 1.004.134 1.726.087.714.18 1.385.275 2.013.094.515.165 1.04.211 1.558.048.524.118.899.214 1.14.002.192.008.374.023.54.024.242.115.368.21.434a.419.419 0 0 0 .321.232c.111.02.221.028.331.028.296 0 .48-.315.54-.416.122-.21.23-.47.321-.762a2.26 2.26 0 0 0 .19-.799c.017-.268.025-.452.025-.551 0-.008.003-.083.112-.295.082-.157.163-.273.239-.35l.053-.079c.1-.211.194-.462.285-.74a2.62 2.62 0 0 0 .146-.797c0-.283.031-.62.102-1.001.073-.41.111-.834.111-1.26 0-.285.031-.602.09-.942.088-.494.1-.648.1-.724 0-.093.012-.272.035-.538.021-.255.078-.529.167-.81l.012-.081c0-.386.077-.868.229-1.43.16-.594.291-1.212.386-1.833a11.43 11.43 0 0 0 .172-1.717c.015-.597.023-1.003.023-1.21v-1.139a2.09 2.09 0 0 0 .27-.543c.104-.29.157-.556.157-.793 0-.28.043-.608.126-.976.085-.38.174-.72.267-1.016.093-.294.219-.628.373-1 .166-.394.252-.759.257-1.082.093-.293.18-.583.265-.875.096-.33.142-.602.142-.835 0-.032.01-.142.098-.466.07-.258.109-.499.115-.714.05-.116.09-.273.127-.488.04-.22.083-.45.13-.686.049-.241.097-.54.148-.93 0-.031.01-.128.095-.382.08-.239.12-.529.12-.857 0-.173.03-.343.09-.501.061-.164.099-.296.115-.406.246-.28.382-.721.414-1.354 0-.179.04-.396.118-.647.078-.245.16-.462.241-.649.288-.276.405-.527.357-.763-.037-.184-.164-.331-.38-.432M238.55 126.157c-.01-.65-.013-1.395-.013-2.234 0-.843-.003-1.744-.011-2.705-.008-.97-.062-1.765-.155-2.317 0-.594-.028-1.414-.085-2.443a55.122 55.122 0 0 1-.082-2.913c0-.923-.03-1.79-.083-2.579-.069-.963-.084-1.306-.084-1.422v-.067l-.031-.06a1.043 1.043 0 0 1-.123-.477c-.007-.219-.011-.414-.011-.586 0-.166.026-.624.08-1.36.058-.749.085-1.637.085-2.638 0-1.257-.003-2.159-.01-2.707-.01-.592-.047-1.083-.423-1.083-.112 0-.324.041-.473.32-.063.12-.105.238-.12.35-.085.135-.169.397-.243 1.017a18.846 18.846 0 0 0-.097 2.103v3.998c0 .336.004.756.012 1.266.009.512.06.947.155 1.295.003.276.031.843.084 1.68.054.875.084 1.817.084 2.805 0 .997.026 2.138.081 3.394a71.54 71.54 0 0 1 .084 3.127v5.358c0 .1.004.213.012.34.01.159.073.267.154.333v.444c-.124.329-.177.475-.168.575-.02.204-.07.27-.087.285l-.076.077v.11c0 .162-.028.43-.082.797-.057.39-.086.852-.086 1.371 0 .415-.03.871-.093 1.36-.06.476-.136.835-.23 1.09-.141.49-.141.678-.127.787.027.195.157.366.387.5.25.248.305.285.351.31l.073.031h.064c.142 0 .259-.095.364-.198.216-.218.34-.454.373-.704.025-.204.037-.47.037-.817 0-.246.028-.617.082-1.103.056-.51.085-.988.085-1.422 0-.496.033-1.005.094-1.516.06-.507.14-.927.234-1.26.099-.447.15-.761.16-.96.008-.19.012-.332.012-.43l.014-.092-.077-.078c-.007-.015-.082-.17-.092-.952M243.306 133.941l.077-.076v-.11c0-.033.007-.112.052-.293.05-.201.034-.43-.052-.704.001-.149.004-.335.012-.554.008-.244.052-.308.052-.308l.08-.078v-.11c0-.138.025-.303.074-.495.06-.235.091-.486.091-.744 0-.302.023-.595.069-.875.05-.304.074-.588.074-.84 0-.216.026-.424.076-.625.06-.24.092-.456.092-.637 0-.105.032-.204.097-.303l.045-.066v-.083c0-.022.005-.112.078-.414.06-.261.09-.586.09-.99 0-.304.03-.696.092-1.166.062-.474.134-.903.212-1.29.08-.477.15-.982.205-1.501.058-.531.045-1.205-.035-1.97 0-.622-.027-1.26-.084-1.89a17.908 17.908 0 0 1-.082-1.395l-.013-.084c-.04-.119-.108-.492-.117-1.67-.01-.925-.013-1.896-.013-2.912 0-1.008.025-1.923.072-2.722.071-1.219.071-1.316.071-1.349 0-.038.01-.205.082-.888.056-.54.084-1.13.084-1.754 0-.688.025-1.308.07-1.845.053-.6.069-.823.074-.914.06-.171.107-.216.102-.216.035-.014.142-.042.417-.042h1.056c.43.132.851.417 1.255.85.239.239.499.494.776.762.272.265.53.481.769.644.163.239.396.532.694.867.293.33.516.648.68.971.157.235.334.514.53.835.193.318.33.552.406.706.063.13.107.307.127.527.025.255.077.475.156.655.004.239.038.523.098.844.065.344.14.642.237.924.297.612.45 1.15.45 1.6 0 .228-.029.85-.082 1.84a55.38 55.38 0 0 0-.086 3.156c0 1.085-.032 2.177-.093 3.247-.063 1.059-.134 1.783-.21 2.15l-.005.055c0 .3-.032.643-.092 1.017-.066.406-.13.612-.176.713-.097.118-.185.3-.27.572-.078.252-.156.496-.241.751-.08.324-.153.663-.217 1.017a5.186 5.186 0 0 0-.099.895c-.078.309-.147.6-.209.882a3.575 3.575 0 0 0-.101.723c0 .019-.005.1-.073.33a2.119 2.119 0 0 0-.094.599c0 .142-.023.343-.067.597-.047.26-.07.51-.076.743-.077.16-.18.382-.31.67a6.034 6.034 0 0 1-.398.753 5.9 5.9 0 0 0-.473.537c-.078.096-.127.143-.139.161h-.01c-.121 0-.244.066-.472.253-.074.074-.177.16-.31.264a.463.463 0 0 1-.288.112l-.105-.005-.079.076c-.01.008-.102.075-.545.158-.355.069-.837.104-1.464.104-.744.078-1.284.087-1.57.04a2.732 2.732 0 0 1-.609-.163.844.844 0 0 0-.412-.195.305.305 0 0 1-.172-.081l-.053-.054c.074-.055.15-.115.222-.189zm10.5-23.253l-.048-.07c-.125-.124-.227-.327-.301-.597-.089-.321-.174-.603-.255-.846a9.379 9.379 0 0 1-.207-.727c-.084-.345-.088-.438-.088-.452 0-.082-.017-.212-.221-.728a77.537 77.537 0 0 0-.45-1.106c-.489-.975-1.086-1.788-1.765-2.4a28.705 28.705 0 0 1-.777-.803c-.187-.199-.228-.29-.238-.277l.041-.253h-.266c-.003 0-.058-.027-.186-.176a2.83 2.83 0 0 0-.597-.516 3.166 3.166 0 0 0-.704-.555 3.54 3.54 0 0 0-.824-.3l-.066-.008c-.215 0-.42-.024-.612-.074a2.45 2.45 0 0 0-.624-.091c-.09 0-.256-.023-.556-.128l-.089-.015c-.127 0-.27.047-.439.143a1.02 1.02 0 0 0-.397.417c-.16.164-.306.348-.436.551-.163.253-.232.422-.232.558v.62c0 .04-.01.213-.082.927a21.166 21.166 0 0 0-.084 2.026c0 .69-.024 1.309-.07 1.845a19.12 19.12 0 0 0-.074.965v.64l.015.086c.141.426.139.952-.005 1.565-.085.336-.128.763-.128 1.265 0 .49.04.935.118 1.325.001.382.025.85.074 1.4.046.545.07 1.056.07 1.525 0 .479.029 1.075.084 1.771a23 23 0 0 1 .082 1.824 64.5 64.5 0 0 1-.023 1.694c-.018.705-.08 1.028-.13 1.173l-.013.083c0 .304-.023.593-.07.861-.049.305-.074.538-.074.71 0 .02-.005.1-.07.329a2.157 2.157 0 0 0-.095.602c0 .22-.023.46-.067.715a4.11 4.11 0 0 0-.077.69c0 .136-.027.322-.076.547-.06.266-.08.401-.087.48-.082.19-.152.474-.215.87a7.906 7.906 0 0 0-.098 1.22c0 .364-.03.754-.093 1.15-.073.477-.142.685-.203.812-.09.268-.132.5-.132.705 0 .193.04.418.122.671.04.465.179.734.435.81a.416.416 0 0 0-.234.163l-.107.107c-.118.181-.045.425.049.648a.387.387 0 0 0 .313.335c.158.036.298.025.577.041.08.005.116.035.135.054l.07.05c.197.1.512.153.967.17.416.017 1.014.025 1.795.025.952 0 1.58-.012 1.913-.036.402-.028.672-.158.806-.383.111-.118.215-.186.312-.206l.095-.039c.298-.2.577-.428.824-.676.168-.166.358-.392.564-.672.2-.275.382-.53.535-.763.37-.504.65-1.162.83-1.953l.006-.061c0-.361.056-.817.168-1.407a.79.79 0 0 1 .056-.232 1.43 1.43 0 0 0 .083-.34 1.57 1.57 0 0 0 .143-.392c.018-.102.028-.2.028-.283.014-.356.058-.643.13-.857l.01-.084c0-.293.06-.636.171-1.022.12-.415.22-.784.3-1.103.077-.306.174-.63.29-.965.13-.373.194-.687.194-.956 0-.217.045-.517.136-.89l.006-.065c0-.08.009-.484.025-1.22.014-.727.063-1.564.143-2.513 0-1.018.003-1.965.012-2.844.008-1.058.067-1.451.116-1.597l.013-.084a7 7 0 0 1 .08-.903c.06-.398.088-.728.088-.978 0-.257-.035-.533-.102-.823a3.256 3.256 0 0 0-.236-.7zM268.507 134.425l-.06-.034h-.069c-.157 0-.297.01-.42.027-.145.021-.3.078-.472.174-.06.032-.218.088-.627.097-.355.007-.88.012-1.576.012-.68 0-1.197-.031-1.538-.091-.343-.06-.629-.13-.87-.209a13.145 13.145 0 0 0-.984-.219c-.64-.119-1.511-.093-2.436-.111-.385-.008-.685-.048-.897-.12l-.084-.011c-.217 0-.442-.029-.675-.088-.296-.074-.365-.136-.365-.136v.002c-.082-.089-.217-.307-.398-.834-.07-.213-.11-.534-.117-.957-.009-.451-.012-.865-.012-1.245 0-.225.027-.6.082-1.113.055-.529.084-1.035.084-1.505 0-.529.023-1.076.07-1.632.05-.577.073-1.01.073-1.32 0-.28.027-.552.079-.803.078-.381.088-.51.088-.578 0-.126.022-.332.068-.61.05-.306.075-.621.075-.936v-1.858l-.09-.416.36-.085.069-.027c.069-.039.211-.085.49-.085.24 0 .467.034.677.105l.094.014c.114 0 .35.007.705.024a56.309 56.309 0 0 0 2.31.046h.577c.212 0 .342-.03.434-.105.067-.053.134-.146.229-.313.108-.123.176-.306.213-.573l.033-.303h-.307c-.064 0-.268-.003-.615-.01l-1.288-.025c-.481-.01-.968-.02-1.459-.036-.496-.017-.88-.024-1.192-.024-.817 0-1.195-.014-1.383-.035v-.008c0-.046.012-.243.07-.905.048-.543.073-1.175.073-1.88 0-.688.054-1.559.167-2.619a.34.34 0 0 1 .043-.143c.064-.131.098-.291.098-.474 0-.093.015-.366.083-1.144.056-.64.085-1.354.085-2.119 0-.85.023-1.756.07-2.688.048-.947.072-1.701.072-2.24 0-.613.007-1.126.024-1.537.008-.175.019-.287.029-.352.325.018.607.061.835.119.248.083.562.164.959.245.367.075.67.156.877.223.129.055.35.115.696.184.32.065.671.128 1.057.19.382.064.751.126 1.109.18l.794.125c.655.174.907.258 1 .3a.406.406 0 0 1 .185.142c.006.113.028.223.108.302l.099.087.168-.005c.097-.02.179-.068.552-.442.342-.34.44-.477.484-.556a.393.393 0 0 0 .045-.313.487.487 0 0 0-.191-.26c-.127-.195-.458-.26-.653-.297a5.713 5.713 0 0 0-1.081-.099c-.37-.077-.72-.155-1.05-.233-.41-.095-.498-.16-.505-.165l-.086-.08h-.112c-.05 0-.167-.008-.352-.021a37.585 37.585 0 0 1-.686-.06l-.747-.071a6.214 6.214 0 0 0-.573-.037 2.52 2.52 0 0 1-.818-.14v-.171h-.267a.526.526 0 0 1-.202-.06 1.049 1.049 0 0 0-.404-.104c-.003 0 .02.046-.181-.113a3.133 3.133 0 0 0-1.026-.543 1.914 1.914 0 0 0-.528-.108c-.08 0-.152.006-.213.014a.367.367 0 0 0-.318.281.795.795 0 0 0-.154.392c-.017.14-.026.253-.026.342 0 .034-.007.242-.07 1.413a58.447 58.447 0 0 0-.072 3.062c0 1.225-.028 2.34-.083 3.32-.056.978-.082 1.632-.082 1.942 0 .22-.033.532-.093.92-.063.393-.132.74-.209 1.033l-.01.069c0 .291-.024.77-.07 1.422-.049.66-.072 1.268-.072 1.817v5.427c0 .368-.028.788-.082 1.254-.054.466-.083.858-.085 1.162-.08.32-.15.811-.213 1.497a23.435 23.435 0 0 0-.096 2.108c0 .61-.024 1.216-.071 1.798-.05.621-.073.98-.073 1.132 0 .247.027.638.085 1.193.056.539.121.954.202 1.268.001.377.025.748.072 1.107.058.427.07.625.07.714 0 .154.009.304.025.45.034.282.179.383.29.418.112.084.23.124.35.124.102 0 .256-.031.425-.201.094-.112.18-.25.252-.402.08-.17.12-.347.12-.532v-.1c.066.039.121.08.163.122l.079.079h.11c.127 0 .365.028.709.08.796.124 1.674.07 2.478.157.452.05.839.073 1.146.073.223 0 .539.032.936.091.407.063.8.134 1.187.215.377.064.704.122.98.178.346.07.488.047.59-.016.09-.012.234-.033.476-.08.268-.052.587-.078.945-.078.102.002.198.002.287.002h.001c.716 0 1.098-.047 1.198-.292.112-.16.166-.298.166-.431a.913.913 0 0 0-.066-.338c-.056-.138-.18-.26-.38-.37M282.903 123.074l-.007.063c0 .385-.027.823-.08 1.302-.057.5-.086.92-.086 1.245 0 .384-.024.764-.07 1.12-.045.361-.07.666-.073.907-.077.234-.15.489-.217.765-.065.259-.103.47-.114.635-.075.115-.179.332-.344.805a6.598 6.598 0 0 1-.573 1.224c-.242.401-.446.79-.61 1.147-.207.456-.288.55-.302.564-.075.075-.19.18-.343.306a1.531 1.531 0 0 1-.506.273l-.063.031a5.04 5.04 0 0 1-.814.428c-.322.14-.564.247-.726.329-.302.075-.59.137-.863.19-.249.049-.525.04-.972-.04-.375 0-.712-.033-1-.1-.287-.068-.505-.134-.645-.205a2.563 2.563 0 0 1-.427-.28 3.022 3.022 0 0 0-.484-.32 12.425 12.425 0 0 1-.4-.421c-.111-.124-.137-.185-.136-.172 0-.092-.027-.232-.2-.629a9.596 9.596 0 0 1-.303-.772l-.453-.908-.376-4.472c0-1.022.02-1.853.058-2.471.04-.617.09-1.134.153-1.535.061-.398.131-.73.206-.99.08-.27.167-.572.254-.882.163-.406.296-.837.393-1.278.093-.419.18-.747.255-.972l.227-.68c.106-.321.12-.448.12-.523 0-.039.008-.198.07-.819.048-.493.073-1.026.073-1.586 0-.468.028-1 .081-1.58a15.08 15.08 0 0 0 .085-1.277c0-.219.026-.466.078-.734.061-.305.089-.539.089-.717 0-.028.007-.114.065-.356.052-.217.077-.417.077-.594.002-.016.014-.12.155-.565l.013-.079c0-.02.005-.103.073-.346a2.29 2.29 0 0 0 .094-.606c0-.136.025-.303.075-.495.061-.239.09-.442.09-.627 0-.137.023-.306.066-.5a2.9 2.9 0 0 0 .078-.617c0-.138.026-.327.076-.561.081-.362.09-.49.09-.559 0-.13.029-.281.084-.453.067-.213.126-.288.165-.327.098-.117.337-.348.958-.792.128-.125.341-.258.642-.394.048.01.142.032.313.088l.645.217.827.55c.302.201.526.409.698.658.244.243.508.479.784.699.275.218.408.331.472.393.084.164.227.417.428.759.215.365.442.746.67 1.127.233.464.428.923.582 1.36.154.442.273.822.358 1.16.113.306.255 1.205.294 3.74v3.29h.137c.017.093.038.297.03.71 0 .237.006.666.023 1.28.016.618.066 1.217.143 1.741 0 .476-.008 1.046-.025 1.709-.014.642-.06 1.12-.135 1.419zm1.313-3.775c-.017-.619-.063-1.052-.144-1.322-.003-.332-.03-.925-.084-1.807a45.012 45.012 0 0 1-.083-2.77c0-.954-.055-2.138-.165-3.499 0-.066-.012-.199-.103-.605-.065-.287-.136-.59-.215-.912a8.478 8.478 0 0 0-.455-1.255c-.218-.5-.452-.959-.677-1.325a7.319 7.319 0 0 0-.666-1.262c-.281-.43-.503-.724-.678-.898a7.62 7.62 0 0 0-.568-.509 6.373 6.373 0 0 1-.527-.467c-.174-.175-.438-.376-.806-.61a17.665 17.665 0 0 1-1.025-.703 53.025 53.025 0 0 0-.91-.442c-.422-.199-.566-.227-.662-.23-.087 0-.2.011-.344.028a.791.791 0 0 0-.37.14h-.385c-.343 0-.478.157-.529.287a1.253 1.253 0 0 0-.066.457c0 .072-.027.203-.16.416-.125.198-.26.371-.406.514-.35.35-.558.632-.635.866-.068.205-.143.544-.228 1.083 0 .307-.028.662-.08 1.06-.059.428-.085.76-.085 1.01 0 .22-.027.455-.079.696a4.29 4.29 0 0 0-.086.496c-.175.359-.28.809-.312 1.358 0 .141-.027.375-.08.692a5.566 5.566 0 0 0-.087.902c0 .3-.023.627-.07.963a6.653 6.653 0 0 0-.073.799c0 .142-.026.375-.08.693a5.564 5.564 0 0 0-.087.9c0 .224-.027.541-.08.941a8.61 8.61 0 0 0-.086 1.13c0 .295-.058.682-.172 1.153-.12.495-.22.943-.296 1.329-.077.309-.175.63-.291.95-.144.405-.183.572-.19.665-.104.351-.157.614-.168.793-.04.095-.095.268-.175.648-.072.339-.143.766-.206 1.272a27.514 27.514 0 0 0-.157 1.694 30.204 30.204 0 0 0-.058 1.925l.429 4.286.66 1.358c.163.407.356.8.578 1.169.227.377.424.648.596.82.339.352.668.636.98.837.115.103.303.193.585.28.238.074.433.15.58.222l.056.029h.063c.221 0 .471.022.741.067.3.05.533.075.658.07.34.069.591.101.768.101.176 0 .427-.032.798-.11a7.15 7.15 0 0 0 .83-.345c.29-.143.559-.292.8-.451.253-.09.543-.24.882-.458.337-.215.596-.448.775-.696.335-.18.58-.415.733-.7.135-.256.286-.583.442-.977.165-.253.307-.564.42-.924.104-.326.23-.6.374-.815l.031-.062c.083-.248.157-.517.222-.8a3.37 3.37 0 0 0 .102-.711c0-.142.03-.345.088-.61.062-.276.13-.532.207-.76l.015-.084a6.57 6.57 0 0 1 .08-.917c.056-.41.085-.734.085-.988 0-.222.026-.495.08-.812.058-.35.087-.606.087-.783 0-.148.027-.496.081-1.032.056-.553.085-1.12.085-1.68 0-.558-.007-1.146-.022-1.768z"/>
        <path fill="#187070" d="M683.686 529.914c-5.283 11.227-6.768 32.526-19.21 35.997-5.156 1.438-11.637-.563-18.16-2.565-7.642-2.344-15.343-4.688-21.042-1.504-15.367 8.579 2.723 21.246-15.827 25.846-7.645 1.889-41.6 4.58-49.32 3.295-1.13-.188-2.905-.04-5.017.107-6.138.429-15.115.857-19.295-6.93-12.364-23.026 119.324-120.552 171.833-97.675 24.067 10.491-19.356 33.612-23.962 43.429"/>
        <path fill="#185C5A" d="M564.618 589.734c-.16-2.375-.298-5.203-.42-8.403 7.588-4.175 14.486-9.374 19.887-16.22 12.264-15.546-5.232-21.275-2.625-36.06 12.767-9.32 27.155-18.35 41.803-25.904-6.124 46.4-27.71 76.876-58.645 86.587"/>
        <path fill="#59BCB5" d="M535.49 583.462l-1.4-1.608c68.51-59.844 107.61-71.79 149.016-84.442 3.264-.995 6.527-1.997 9.829-3.022l.633 2.032c-3.294 1.029-6.573 2.028-9.844 3.025-41.178 12.584-80.066 24.465-148.235 84.015"/>
        <path fill="#59BCB5" d="M660.27 528.287c-10.839-8.43-19.475-7.762-31.433-6.832-1.744.128-3.558.272-5.45.391l-.129-2.125c1.878-.115 3.68-.252 5.416-.393 11.963-.923 21.417-1.655 32.903 7.283l-1.306 1.676M586.492 543.625l-.153-2.12c2.104-.157 4.002-.355 5.676-.527 7.689-.798 12.327-1.284 22.018 3.424l-.925 1.914c-9.15-4.447-13.313-4.012-20.873-3.223-1.689.177-3.603.379-5.743.532M650.523 509.935l-2.219-.434c5.154-2.672 10.532-8.374 14.533-12.485 2.546-2.611 5.175-5.31 8.073-7.633l1.335 1.66c-2.803 2.241-5.384 4.892-7.884 7.46-4.119 4.227-8.377 8.603-13.838 11.432"/>
        <path fill="#59BCB5" d="M632.123 440.372c3.093 13.799 3.957 28.456-4.815 40.275-7.89 10.634-39.018 30.975-44.41 43.672-7.846 18.468 14.679 23.69 1.187 40.793-5.56 7.046-12.706 12.347-20.557 16.584-4.478 2.42-14.282 16.344-26.664 10.844-27.218-12.093-18.497-31.047-22.513-43.112-8.253-24.796-11.566-54.454 4.204-70.085 3.191-3.165 7.841-3.025 12.466-2.886 4.724.144 9.423.287 12.518-3.09 5.605-6.12 2.782-30.295 6.368-39.238 4.31-10.734 11.105-10.578 16.788-10.423 4.15.113 7.707.226 9.27-3.9 7.91-20.915 48.376-47.162 61.44-40.348 26.526 13.84-7.985 48.85-5.282 60.914"/>
        <path fill="#FFF" d="M535.936 592.104l-1.908-1.532c19.877-101.74 46.559-138.682 74.994-178.988a2423 2423 0 0 0 6.731-9.578l1.741 1.217c-2.245 3.225-4.492 6.409-6.73 9.586-28.303 40.115-55.034 78.005-74.828 179.295"/>
        <path fill="#FFF" d="M572.095 475.12l-1.406-1.593a443.915 443.915 0 0 0 4.6-4.136c10.107-9.175 18.082-16.419 34.618-16.402v2.131c-15.713-.022-23.047 6.63-33.186 15.845a392.813 392.813 0 0 1-4.626 4.155M554.086 520.525l-1.427-1.585a194.375 194.375 0 0 0 4.746-4.445c6.344-6.08 10.174-9.748 22.154-12.267l.44 2.083c-11.392 2.39-14.843 5.706-21.123 11.718a212.527 212.527 0 0 1-4.79 4.496M588.171 445.486l-2.455 1.604c2.78-6.032 4.065-15.257 4.801-21.764.46-4.12.943-8.387 1.93-12.495l2.073.502c-.962 3.977-1.438 8.177-1.895 12.237-.75 6.672-1.528 13.577-4.454 19.916"/>
        <use fill="#FFF" transform="translate(212 224)" xlink:href="#c"/>
        <path fill="#F2F1F0" d="M553.18 257.2v-32.563l-340.375 3.183v29.38H553.18"/>
        <path fill="#FAF39F" d="M553.177 241.27V221.45l-341.774 3.186v16.632h341.774"/>
        <path fill="#FFC80A" d="M553.304 267.112l-342.029 3.181V239.5l342.128-1.134-.1 28.747"/>
        <path fill="#FFAE2D" d="M253.507 232.81a3.132 3.132 0 0 0 3.125 3.125 3.135 3.135 0 0 0 3.128-3.124 3.134 3.134 0 0 0-3.128-3.123 3.131 3.131 0 0 0-3.125 3.123"/>
        <path fill="#4A51B6" d="M241.32 232.81a3.131 3.131 0 0 0 3.125 3.125 3.132 3.132 0 0 0 3.127-3.124 3.131 3.131 0 0 0-3.127-3.123 3.13 3.13 0 0 0-3.124 3.123"/>
        <path fill="#FC544E" d="M268.822 235.935a3.134 3.134 0 0 0 3.128-3.124 3.133 3.133 0 0 0-3.128-3.123 3.13 3.13 0 0 0-3.122 3.123 3.13 3.13 0 0 0 3.122 3.124zM372.599 405.364h30.147V394.21h-30.147z"/>
        <path fill="#2489A6" d="M409.992 395.117h54.567v-.704h-54.567zM409.992 400.142h47.536v-.706h-47.536zM409.992 405.164h45.333v-.711h-45.333z"/>
        <path fill="#FC544E" d="M372.599 423.216h30.147V412.06h-30.147z"/>
        <path fill="#2489A6" d="M409.992 412.974h54.567v-.708h-54.567zM409.992 417.993h54.567v-.705h-54.567zM409.992 423.014h27.746v-.704h-27.746zM374.215 467.848h88.734v-.709h-88.734zM374.215 471.874h86.953v-.707h-86.953zM374.215 475.902h47.803v-.705h-47.803z"/>
        <path fill="#3F46AD" d="M372.951 461.137h91.262V430.57H372.95z"/>
        <path fill="#555CBF" d="M426.398 445.853c0 4.31-3.5 7.825-7.814 7.825-4.32 0-7.826-3.514-7.826-7.825 0-4.317 3.507-7.824 7.826-7.824 4.314 0 7.814 3.507 7.814 7.824"/>
        <path fill="#FFF" stroke="#FFF" d="M416.38 443.6v4.503a1 1 0 0 0 1.5.865l5.394-3.115-6.894-3.987v7.969l5.396-3.117a1 1 0 0 0 0-1.731l-3.896-2.253a1 1 0 0 0-1.5.865z"/>
        <path fill="#FC544E" d="M372.951 494.943h91.262v-15.09H372.95z"/>
        <path fill="#59BCB5" d="M372.599 532.924h30.147V505.7h-30.147z"/>
        <path fill="#3F46AD" d="M372.951 572.625h91.262v-30.557H372.95z"/>
        <path fill="#555CBF" d="M426.398 557.349c0 4.317-3.5 7.82-7.814 7.82-4.32 0-7.826-3.503-7.826-7.82 0-4.32 3.507-7.83 7.826-7.83 4.314 0 7.814 3.51 7.814 7.83"/>
        <path fill="#EEA530" stroke="#FFF" d="M423.274 557.349l-6.894-3.993v7.972l6.894-3.98-6.894-3.992v7.972"/>
        <path fill="#3F46AD" d="M301.425 489.938h52.874V447.34h-52.874z"/>
        <path fill="#4A51B6" d="M409.992 506.615h54.567v-.711h-54.567zM409.992 511.636h47.536v-.71h-47.536zM409.992 516.651h45.333v-.7h-45.333zM409.992 524.467h54.567v-.71h-54.567zM409.992 529.49h31.68v-.71h-31.68zM409.992 534.507h27.746v-.706h-27.746zM374.215 579.34h88.734v-.71h-88.734zM374.215 583.373h86.953v-.708h-86.953zM374.215 587.396h47.803v-.71h-47.803zM313.577 394.563h28.57v-.705h-28.57zM313.577 398.59h24.558v-.706h-24.558zM313.577 402.62h15.392v-.71h-15.392zM302.283 431.81h49.713v-.712h-49.713zM302.283 435.837h51.153v-.708h-51.153zM302.283 439.872h45.13v-.716h-45.13zM301.425 424.615h52.874v-15.09h-52.874zM313.577 506.056h28.57v-.707h-28.57zM313.577 510.087h24.558v-.712h-24.558zM313.577 514.11h15.392v-.711h-15.392zM302.283 543.3h49.713v-.704h-49.713zM302.283 547.33h51.153v-.706h-51.153zM302.283 551.362h45.13v-.709h-45.13z"/>
        <path fill="#3F46AD" d="M301.425 536.105h52.874v-15.086h-52.874zM301.425 584.444h52.874v-25.603h-52.874z"/>
        <path fill="#FFFFFE" d="M467.799 254.836c4.461.008 52.559.161 61.99.362l.016.368v-.368c.125 0 .23-.053.323-.168.84-1.076.077-5.894-.636-8.866a925.289 925.289 0 0 0-29.625-.485c-12.89 0-23.966.3-32.93.887l.862 8.27zm62.006 1.091h-.036c-9.832-.208-61.776-.36-62.301-.36h-.327l-1.01-9.68.38-.024c9.048-.605 20.272-.914 33.356-.914 16.29 0 29.795.49 29.926.493l.275.01.07.268c.2.815 1.938 8.004.562 9.758-.232.294-.546.45-.895.45zM537.958 251.184a1.602 1.602 0 0 1-2.232-.355 1.605 1.605 0 0 1 .352-2.232 1.606 1.606 0 0 1 2.234.357 1.6 1.6 0 0 1-.354 2.23zm.861-2.599a2.22 2.22 0 0 0-3.107-.493 2.228 2.228 0 0 0-.496 3.106c.677.928 2.089 1.23 3.064.677l2.092 2.926.505-.369-2.316-2.767c.732-.761.9-2.2.258-3.08z"/>
        <path fill="#3F46AD" d="M286 384.558h194.557V262H286z"/>
        <text fill="#FFF" font-family="Roboto Slab" font-size="20" font-weight="bold">
            <tspan x="338.229" y="338">GOLOS.IO</tspan>
        </text>
        <path fill="#FFF" d="M552.379 275.534L553 260l-341 .351v15.223l340.379-.04"/>
        <path fill="#FC544E" d="M312.887 268.557h140.209v-1.837h-140.21z"/>
        <path fill="#FFFFFE" d="M316.606 388.744l-59.113.675-.687-60.716 59.115-.668.685 60.71"/>
        <path fill="#F6C65E" d="M295.527 385.05c-6.613-.066-2.739-10.042-16.482-8.632-2.09.184-18.765 1.05-20.296 2.06l.108 9.731 56.54-.647-.18-15.917c-12.883 1.58-14.023 13.238-19.69 13.406"/>
        <path fill="#187070" d="M304.96 368.743c-1.163 2.47-1.489 7.151-4.226 7.913-1.134.316-2.559-.124-3.992-.564-1.68-.515-3.372-1.03-4.625-.33-3.38 1.887.6 4.669-3.48 5.682-1.682.414-9.145 1.007-10.84.727-.25-.042-.641-.01-1.106.023-1.35.093-3.321.187-4.242-1.527-2.717-5.06 26.234-26.5 37.778-21.47 5.29 2.306-4.256 7.39-5.267 9.546"/>
        <path fill="#154442" d="M275.897 382.405c-1.238 0-2.686-.338-3.44-1.723.714 1.31 2.046 1.554 3.236 1.554.352 0 .691-.02.998-.042.306-.022.58-.043.804-.043.115 0 .217.006.301.02a8.338 8.338 0 0 1-1.899.234m-3.448-1.738l-.007-.013.007.013m-.008-.014c-.325-.624-.177-1.492.356-2.526-.532 1.034-.681 1.902-.356 2.526m.369-2.553"/>
        <path fill="#185C5A" d="M275.693 382.236c-1.19 0-2.522-.243-3.236-1.554l-.008-.015-.007-.013v-.001c-.326-.624-.177-1.492.355-2.526l.002-.004a.26.26 0 0 1 .007-.014l.004-.009.003-.005c2.142-4.112 10.297-10.82 18.864-15.237-1.414 10.69-6.557 17.533-13.88 19.313a1.95 1.95 0 0 0-.302-.02c-.223 0-.498.021-.804.043a14.45 14.45 0 0 1-.998.042"/>
        <path fill="#59BCB5" d="M272.378 380.515l-.306-.353c15.064-13.152 23.658-15.781 32.759-18.56.719-.226 1.436-.44 2.16-.673l.142.453c-.727.227-1.447.444-2.164.664-9.053 2.766-17.607 5.376-32.591 18.469"/>
        <path fill="#59BCB5" d="M299.809 368.384c-2.381-1.852-4.278-1.702-6.905-1.503-.387.031-.787.064-1.2.088l-.029-.468c.414-.022.807-.055 1.191-.081 2.628-.209 4.707-.37 7.232 1.597l-.29.367M283.589 371.76l-.035-.467c.465-.037.88-.08 1.254-.118 1.689-.177 2.706-.284 4.84.754l-.206.42c-2.01-.978-2.927-.882-4.585-.71-.374.038-.795.084-1.268.12M297.67 364.353l-.49-.099c1.135-.588 2.317-1.838 3.195-2.743.56-.576 1.14-1.162 1.773-1.682l.294.368c-.615.493-1.184 1.076-1.733 1.637-.906.932-1.84 1.896-3.04 2.519"/>
        <path fill="#59BCB5" d="M293.623 349.057c.68 3.032.871 6.26-1.059 8.854-1.735 2.34-8.578 6.807-9.763 9.601-1.725 4.058 3.227 5.212.259 8.97-1.222 1.545-2.793 2.715-4.518 3.646-.986.528-3.136 3.593-5.863 2.382-5.981-2.657-4.065-6.823-4.949-9.48-1.812-5.449-2.538-11.967.926-15.405 1.42-1.409 4.147.151 5.492-1.315 1.233-1.347.612-6.655 1.4-8.625 1.639-4.081 4.914-1 5.73-3.148 1.738-4.598 10.636-10.37 13.507-8.873 5.832 3.047-1.755 10.741-1.162 13.393"/>
        <path fill="#FFF" d="M272.478 382.417l-.42-.344c4.37-22.362 10.236-30.481 16.487-39.346.493-.697.983-1.396 1.48-2.106l.385.27c-.497.708-.992 1.41-1.485 2.11-6.22 8.813-12.095 17.146-16.447 39.416"/>
        <path fill="#FFF" d="M280.425 356.698l-.307-.355c.353-.308.687-.614 1.01-.904 2.22-2.017 3.974-3.613 7.612-3.607l-.003.468c-3.45-.003-5.065 1.459-7.292 3.48-.328.3-.663.604-1.02.918M276.468 366.678l-.314-.35c.394-.351.738-.684 1.043-.972 1.392-1.34 2.236-2.144 4.87-2.697l.098.457c-2.504.526-3.265 1.253-4.645 2.571-.307.294-.657.63-1.052.99M283.959 350.183l-.536.352c.61-1.325.89-3.354 1.05-4.783.104-.904.212-1.843.427-2.75l.454.111c-.209.872-.312 1.797-.414 2.692-.165 1.465-.334 2.981-.981 4.378"/>
        <path fill="#FFC80A" d="M309.452 344.579a5.083 5.083 0 0 1-5.024 5.133 5.076 5.076 0 0 1-5.14-5.017c-.027-2.81 2.219-5.112 5.024-5.141a5.081 5.081 0 0 1 5.14 5.025"/>
        <path fill="#59BCB5" d="M260.482 386.835l53.08-.602-.635-55.622-53.076.603.631 55.62zm56.124 1.91l-59.112.674-.688-60.716 59.115-.668.685 60.71z"/>
        <path fill="#F7D0C2" d="M584.53 359.47c.368-.304.759-.594 1.14-.88-1.102-1.903-1.595-3.179-2.221-4.323-1.082-1.967-2.194-5.668-2.194-5.668-.278-.971-.904-1.182-1.404-.9-.885.49.223 10.531.547 13.137 1.613 1.584 2.359-2.912 3.749-1.05.132-.106.26-.216.383-.317"/>
        <path fill="#F7D0C2" d="M589.455 368.468c.656-5.006 1.787-10.257.46-15.216a70.07 70.07 0 0 1-4.715-1.687c-7.262 2.033-4.555 18.443-2.83 16.12 2.515-.162 4.452.29 7.085.783"/>
        <path fill="#FFC80A" d="M561.045 364.965c9.952 7.012 12.79 26.275 28.145 38.865-.328 3.008.045 7.168-.227 10.168-10.74-1.796-21.138-4.675-29.19-15.915-.072-.11-10.775-19.809-11.122-36.735 0 0 9.758 1.758 12.394 3.617"/>
        <path fill="#F7D0C2" d="M504.519 444.586l-6.555 3.041c1.025 7.175 2.572 22.969 4.591 22.02.407-.191.804-.307.995-.134.373.325 1.33-.221 1.533-.713.211-.505 1.317.078 1.475-.382.378-1.078 1.358.204 1.49-1.015.142-1.19-.316-3.463-.835-5.695-.215-.922-.1-5.304 2.21-4.03.96.533 1.362 2.59 2.49 2.471.889-.094.809-.21-.655-3.26-1.356-2.836-4.172-3.636-6.74-12.303"/>
        <path fill="#FFFFFE" d="M506.945 467.837c-.541-2.385-1.096-4.773-1.306-7.22M505.223 468.628c-.536-2.376-1.089-4.764-1.3-7.215M503.325 469.513c-.53-2.384-1.09-4.765-1.306-7.216"/>
        <path fill="#F7D0C2" d="M557.979 331.573c-.871-3.632-.484-12.82-5.219-8.708-1.317 1.146-1.882-2.328-9.675-1.208-.553.122-.623 8.897-.144 12.217-.034.424 1.081 1.634.21.596-3.592-4.058-6.894-.706-6.054 1.67 1.215 3.418-.677 1.763-1.713 2.858-.084.093.232 5.508.232 5.508l-1.632 16s1.962 1.986 11.323 2.593c9.09.47 8.396-5.758 8.396-5.758s-.667-9.313.603-9.08c4.017.72 3.893 1.63 3.53-9.495-.01-.27 1.592-.483 2.558-.968.704-.352-1.487-2.344-2.415-6.225"/>
        <g transform="translate(544.2 342.965)">
            <mask id="e" fill="#fff">
                <use xlink:href="#d"/>
            </mask>
            <path fill="#DEAB8C" d="M-.91 16.604h14.37V8.789H-.91z" mask="url(#e)"/>
            <path fill="#DEAA8B" d="M-.91 11.653L12.394 8.79l-.01-.042L-.918 11.61" mask="url(#e)"/>
            <path fill="#DEAA8C" d="M-.919 11.611l13.304-2.864-.027-.128-13.304 2.865" mask="url(#e)"/>
            <path fill="#DEA98C" d="M-.946 11.484l13.304-2.865-.046-.211-13.304 2.864" mask="url(#e)"/>
            <path fill="#DEA88B" d="M-.992 11.272l13.304-2.864-.01-.043L-1 11.23" mask="url(#e)"/>
            <path fill="#DEA88C" d="M-1.001 11.23l13.304-2.865-.023-.106-13.304 2.865" mask="url(#e)"/>
            <path fill="#DEA88C" d="M-1.024 11.124L12.28 8.26l-.036-.169-13.304 2.865" mask="url(#e)"/>
            <path fill="#DDA78B" d="M-1.06 10.955L12.244 8.09l-.015-.064-13.303 2.865" mask="url(#e)"/>
            <path fill="#DEA78C" d="M-1.074 10.891l13.303-2.865-.031-.148-13.304 2.865" mask="url(#e)"/>
            <path fill="#DEA68C" d="M-1.106 10.743l13.304-2.865-.027-.127-13.304 2.864" mask="url(#e)"/>
            <path fill="#DEA68B" d="M-1.133 10.615l13.304-2.864-.01-.042-13.303 2.864" mask="url(#e)"/>
            <path fill="#DEA68C" d="M-1.142 10.573L12.162 7.71l-.033-.149-13.303 2.865" mask="url(#e)"/>
            <path fill="#DDA58C" d="M-1.174 10.425L12.129 7.56l-.027-.127-13.303 2.865" mask="url(#e)"/>
            <path fill="#DDA48B" d="M-1.201 10.298l13.303-2.865-.014-.063-13.303 2.864" mask="url(#e)"/>
            <path fill="#DDA48C" d="M-1.215 10.234L12.088 7.37l-.022-.106-13.304 2.864" mask="url(#e)"/>
            <path fill="#DDA38C" d="M-1.238 10.128l13.304-2.864-.037-.17L-1.275 9.96" mask="url(#e)"/>
            <path fill="#DDA38C" d="M-1.275 9.959L12.03 7.094l-.04-.19-13.304 2.864" mask="url(#e)"/>
            <path fill="#DDA28B" d="M-1.315 9.768l13.303-2.864-.023-.107L-1.34 9.663" mask="url(#e)"/>
            <path fill="#DEA28C" d="M-1.339 9.663l13.304-2.866-.01-.042L-1.347 9.62" mask="url(#e)"/>
            <path fill="#DEA28C" d="M-1.348 9.62l13.304-2.865-.04-.19-13.304 2.864" mask="url(#e)"/>
            <path fill="#DEA18B" d="M-1.388 9.429l13.303-2.864-.023-.106L-1.41 9.323" mask="url(#e)"/>
            <path fill="#DDA18C" d="M-1.411 9.323L11.892 6.46l-.009-.043L-1.42 9.281" mask="url(#e)"/>
            <path fill="#DDA08B" d="M-1.42 9.281l13.303-2.865-.041-.19L-1.461 9.09" mask="url(#e)"/>
            <path fill="#DD9F8B" d="M-1.461 9.09l13.303-2.865-.018-.084L-1.48 9.005" mask="url(#e)"/>
            <path fill="#DD9F8B" d="M-1.48 9.005l13.304-2.864-.014-.063-13.303 2.864M-1.493 8.942L11.81 6.078l-.028-.128L-1.52 8.815" mask="url(#e)"/>
            <path fill="#DD9E8B" d="M-1.521 8.815L11.782 5.95l-1.757-8.163L-3.278.65" mask="url(#e)"/>
        </g>
        <path fill="#0A0B09" d="M510.153 590.286l6.607-.123 4.07-.003c2.82 2.024 7.107 2.57 10.463 3.33 3.309.747 4.763.82 8.524 1.727.72.18.851.807.467 1.388-1.565 2.37-5.515 2.332-7.914 2.405-2.379.064-7.26-.394-9.632-.525-5.35-.29-8.061-1.42-8.76-.36-.464.698-6.036.193-5.773-1.078.66-3.255 1.723-5.107 1.948-6.76M547.283 590.286l6.603-.123 4.068-.003c2.819 2.024 7.11 2.57 10.465 3.33 3.303.747 4.765.82 8.527 1.727.718.18.847.807.465 1.388-1.567 2.37-5.517 2.332-7.914 2.405-2.38.064-7.263-.394-9.629-.525-5.355-.29-8.061-1.42-8.765-.36-.464.698-6.035.193-5.772-1.078.665-3.255 1.727-5.107 1.952-6.76"/>
        <path fill="#0E1220" d="M522.758 431.84c-.445-2.38 1.356-1.515 1.207-2.055l33.722 3.744c6.87 3.1 4.552 132.615 7.207 159.631-3.51 2.064-8.097 3.173-17.836.315-3.835-8.947-7.315-91.82-1.393-122.109-1.012 23.28-17.109 82.843-16.831 120.09-9.155 4.276-15.325.207-19.164-1.293 1-15.876 5.741-138.334 13.088-158.323"/>
        <path fill="#FFC80A" d="M562.564 376.347c0-6.01-4.246-16.483-9.513-19.66-.266-.157-1.847 2.71-1.847 2.71s-13.265-5.049-14.512-5.582c-1.512-.65-.51-.08-1.966-.873-4.84-2.645-16.545 12.432-16.545 24.315 0 0 6.295 34.404 4.07 52.605-1.304 10.74 34.55 13.082 37.208 6.873 1.44-3.363 3.105-60.388 3.105-60.388"/>
        <path fill="#FFF" d="M556.34 361.98l-2.925-6.978s-.364 1.634-1.21 2.74c-.762 1.015-12.493-3.55-18.053-4.994 2.282 2.701 2.96 3.272 11.002 13.205l7.492-6.997 3.85 4.143-.157-1.119"/>
        <path fill="#3F46AD" d="M553.081 358.723s-1.952-1.057-2.86-.524c-.907.524-1.57 3.15-1.57 3.15l2.343 4.805-.489 45.433 3.026 3.017 2.35-3.692s-2.81-44.94-3.02-45.028c-.324-.118 2.038-6.333.22-7.16"/>
        <path fill="#FFC80A" d="M508.553 419.943c-3.567 10.879-3.651 18.746-1.875 28.333-3.238.9-6.489 2.75-9.617 4.047-3.538-11.224-4.051-25.807-3.041-37.455 2.191-25.313 12.15-43.532 20.297-52.134 12.58-11.867 26.114-3.226 22.1 5.202-9.2 16.33-21.812 33.52-27.864 52.007"/>
        <g transform="translate(505.005 379.146)">
            <mask id="g" fill="#fff">
                <use xlink:href="#f"/>
            </mask>
            <path fill="#F2F2EF" d="M22.57 35.367h.264V.31h-.265z" mask="url(#g)"/>
            <path fill="#F1F0ED" d="M21.908 35.367h.661V.31h-.66z" mask="url(#g)"/>
            <path fill="#F0F0EC" d="M21.776 35.367h.131V.31h-.131z" mask="url(#g)"/>
            <path fill="#EFEFEC" d="M21.114 35.367h.662V.31h-.662z" mask="url(#g)"/>
            <path fill="#EDEEEB" d="M20.453 35.367h.661V.31h-.66z" mask="url(#g)"/>
            <path fill="#ECECE9" d="M19.66 35.367h.793V.31h-.792z" mask="url(#g)"/>
            <path fill="#EBEBE7" d="M19 35.367h.66V.31H19z" mask="url(#g)"/>
            <path fill="#EAEAE6" d="M18.47 35.367H19V.31h-.53z" mask="url(#g)"/>
            <path fill="#E8E9E5" d="M17.546 35.367h.925V.31h-.925z" mask="url(#g)"/>
            <path fill="#E7E8E3" d="M17.016 35.367h.53V.31h-.53z" mask="url(#g)"/>
            <path fill="#E6E6E1" d="M16.09 35.367h.926V.31h-.925z" mask="url(#g)"/>
            <path fill="#E5E6E0" d="M15.562 35.367h.53V.31h-.53z" mask="url(#g)"/>
            <path fill="#E6E6E1" d="M14.769 35.367h.793V.31h-.793z" mask="url(#g)"/>
            <path fill="#E7E8E3" d="M14.372 35.367h.397V.31h-.397z" mask="url(#g)"/>
            <path fill="#E8E9E5" d="M13.58 35.367h.792V.31h-.793z" mask="url(#g)"/>
            <path fill="#EAEAE6" d="M13.182 35.367h.397V.31h-.397z" mask="url(#g)"/>
            <path fill="#EBEBE7" d="M12.654 35.367h.529V.31h-.53z" mask="url(#g)"/>
            <path fill="#ECECE9" d="M11.86 35.367h.793V.31h-.793z" mask="url(#g)"/>
            <path fill="#EDEEEB" d="M11.464 35.367h.396V.31h-.396z" mask="url(#g)"/>
            <path fill="#EFEFEC" d="M10.803 35.367h.66V.31h-.66z" mask="url(#g)"/>
            <path fill="#F0F0EC" d="M10.67 35.367h.133V.31h-.132z" mask="url(#g)"/>
            <path fill="#F1F0ED" d="M10.142 35.367h.529V.31h-.53z" mask="url(#g)"/>
            <path fill="#F2F2EF" d="M9.48 35.367h.662V.31H9.48z" mask="url(#g)"/>
            <path fill="#F4F3F0" d="M8.952 35.367h.53V.31h-.53z" mask="url(#g)"/>
            <path fill="#F5F4F2" d="M8.291 35.367h.661V.31h-.66z" mask="url(#g)"/>
            <path fill="#F6F6F4" d="M6.97 35.367H8.29V.31H6.97z" mask="url(#g)"/>
            <path fill="#F7F7F6" d="M6.573 35.367h.396V.31h-.396z" mask="url(#g)"/>
            <path fill="#F9F9F7" d="M5.779 35.367h.793V.31h-.793z" mask="url(#g)"/>
            <path fill="#FAF9F8" d="M5.25 35.367h.53V.31h-.53z" mask="url(#g)"/>
            <path fill="#FBFBFA" d="M4.06 35.367h1.19V.31H4.06z" mask="url(#g)"/>
            <path fill="#FDFCFC" d="M3.4 35.367h.66V.31H3.4z" mask="url(#g)"/>
            <path fill="#FEFDFC" d="M2.87 35.367h.53V.31h-.53z" mask="url(#g)"/>
            <path fill="#FFFEFE" d="M2.342 35.367h.529V.31h-.53z" mask="url(#g)"/>
            <path fill="#FFFFFE" d="M.461 35.367h1.88V.31H.462z" mask="url(#g)"/>
        </g>
        <path fill="#FFFFFE" d="M557.6 342.421l.101 1.45c-1.335.013-4.754-1.966-4.754-1.966l4.653.516"/>
        <path fill="#0A0B09" d="M531.513 329.267c.44-.248-.88-3.378-.88-5.907 0-3.51 4.145-8.13 10.088-6.086 1.488-2.156 3.517-2.977 6.04-4.117 6.706-3.055 10.954.756 12.428 4.732.943 2.543.117 4.404-.809 5.423-2.82 3.105-7.124-3.313-8.34 2.063-.353 1.57-3.365 2.27-5.178 2.055.096 3.363-.885 9.866-1.352 9.081-2.985-4.711-5.27-1.598-5.145.995.114 2.285 1.483 2.538 1.483 2.538-.211 1.385-4.632 8.907-4.476 3.596.117-4.362-12.791-9.337-3.859-14.373"/>
        <path fill="#FFC80A" d="M597.326 409.673c-.663 4.866-7.275 6.478-11.76 4.467-4.479-2.015-6.486-7.278-4.469-11.765l-1.199-37.953c1.367.487 4.54.473 7.105.46 2.423-.014 4.304-.027 3.606.382 0 0 8.423 32.034 6.717 44.41z"/>
        <g transform="translate(579.625 393.467)">
            <mask id="i" fill="#fff">
                <use xlink:href="#h"/>
            </mask>
            <path fill="#1A6267" d="M.986-.315l-.893.22.5 2.03.892-.219" mask="url(#i)"/>
        </g>
        <path fill="#187070" d="M580.885 395.645c-.234-.47-.467-.973-.706-1.557.194.27.39.539.59.806l.097.165.019.586"/>
        <path fill="#187070" d="M584.353 402.08l-.536-.202c-1.216-3.221-2.08-4.512-2.932-6.233l-.02-.586c1.045 1.763 2.842 4.962 3.488 7.02"/>
        <path fill="#0C0D0E" d="M543.319 489.514l2.346-18.148.984-.273-3.33 18.421"/>
        <path fill="#187070" d="M587.834 341.681c.078 6.718 4.8 30.354.957 30.373-6.039 2.176-6.948-27.992-7.09-31.241 2.669.543 2.09 1.6 4.614 1.424"/>
        <path fill="#59BCB5" d="M618.045 308.466c-4.116 10.626-1.778 38.09 5.928 47.577-10.083-4.582-26.518-11.356-39.935-10.814-1.543.062-3.52.88-5.173.35-3.993-1.286-4.995-8.56-1.191-11.075 1.007-.663 2.237-.249 3.423-.408 13.035-1.76 29.137-18.025 36.948-25.63"/>
        <path fill="#187070" d="M635.013 330.575c1.598 13.34-2.966 24.856-10.198 25.722-7.235.872-14.392-9.245-15.985-22.578-1.605-13.337 2.96-24.86 10.192-25.73 7.235-.863 14.39 9.25 15.99 22.586"/>
        <path fill="#FC544E" d="M619.162 326.427c-3.44-.866-6.844-1.426-10.36-2.872-.386 3.142-.407 6.587.028 10.164.426 3.574 1.254 6.917 2.38 9.88 3.068-2.234 6.242-3.589 9.383-5.246l-1.43-11.926"/>
        <path fill="#FFFFFE" d="M620.643 338.348c-.997.127-2.134-2.45-2.527-5.744-.401-3.301.092-6.065 1.095-6.187 1.001-.12 2.134 2.455 2.53 5.75.397 3.296-.096 6.062-1.098 6.181"/>
        <path fill="#FFFFFE" d="M619.004 307.822c-7.21.871-11.76 12.483-10.155 25.892.766 6.371 2.809 12.237 5.753 16.516 2.908 4.23 6.373 6.457 9.77 6.273.153-.009.309-.02.467-.038 3.457-.419 6.423-3.318 8.347-8.17 1.947-4.902 2.583-11.194 1.806-17.717-.77-6.37-2.81-12.237-5.759-16.524-2.91-4.227-6.382-6.457-9.777-6.273a7.044 7.044 0 0 0-.452.04zm-10.66 25.954c-1.645-13.691 3.108-25.561 10.598-26.464 7.572-.897 14.906 9.47 16.555 23.206.791 6.605.14 12.99-1.831 17.966-2 5.037-5.112 8.05-8.77 8.489a7.16 7.16 0 0 1-.497.04c-7.394.405-14.445-9.8-16.054-23.237z"/>
        <path fill="#FFF" d="M622.043 332.212c.364 3.518-.196 6.453-1.237 6.554-1.044.101-2.18-2.672-2.536-6.196-.359-3.514.196-6.451 1.24-6.552 1.045-.098 2.179 2.675 2.533 6.194"/>
        <path fill="#1A4B76" d="M619.615 326.331l-.075-.002c-.098.007-.199.077-.298.204-.563.681-.972 2.968-.666 6.009.388 3.827 1.563 5.988 2.204 5.914.096-.012.195-.074.296-.2.565-.685.971-2.973.66-6.016-.373-3.67-1.47-5.792-2.121-5.909zm.976 12.732c-1.318-.24-2.32-3.43-2.632-6.46-.296-2.924.024-5.523.804-6.468.205-.254.452-.397.72-.423a.941.941 0 0 1 .246.01c1.319.236 2.318 3.43 2.626 6.459.295 2.924-.02 5.521-.8 6.465-.21.26-.45.401-.718.426a.798.798 0 0 1-.246-.009z"/>
        <path fill="#FFFFFE" d="M613.45 351.75l.072-.246c-2.259-.632-4.759-5.529-6.371-12.467-1.878-8.062-2.21-18.234 1.48-21.536l-.172-.191c-3.787 3.387-3.514 13.383-1.564 21.784 1.634 7.034 4.21 11.997 6.555 12.655"/>
        <path fill="#F7D0C2" d="M589.463 360.243c2.27.225 3.454-.153 3.079-1.271-.431-1.325.497-.957.497-2.133-.005-.604-.777-1.209-.677-1.301.607-.573.258-1.73-.069-1.875-.63-.257-.545-.425-.256-.831.42-.586.473-1.417-.404-1.792-.494-.22-1.283-.213-2.175-.108-1.23-.224-2.349-.3-3-.026-.897.377-.87 1.203-.47 1.791.277.407.355.576-.281.838-.34.134-.723 1.299-.139 1.866.103.09-.637.352-.658.954-.036 1.167.553 1.426.352 2.23-.4 1.578 1.555 1.802 4.2 1.658"/>
        <path fill="#E5C3B9" d="M586.214 353.357l.053-.076c1.223-.397 2.643-.281 4.002-.17.486.036.928.07 1.368.084l.067.086-.076.076c-.44-.009-.885-.051-1.364-.085-1.358-.115-2.76-.226-3.955.169l-.095-.053v-.031M585.458 355.652l.062-.072c2.309-.399 4.534-.246 6.61-.053l.07.084-.08.074c-2.07-.189-4.286-.342-6.58.052l-.085-.068.003-.017M585.344 358.077l.06-.077c2.736-.506 4.41-.503 6.88.01l.057.086-.01.006-.074.066c-2.452-.512-4.117-.512-6.837-.009l-.076-.068v-.014"/>
        <path fill="#0E1220" d="M55.857 598.406l-3.567-5.417.352-3.515c-2.794-2.744-3.252-6.537-4.105-9.55-.84-2.97-.828-4.238-1.873-7.63-.199-.65-1.13-.857-2.037-.61-3.683 1.005-3.966 4.428-4.282 6.488-.301 2.048-.03 6.342-.04 8.412-.017 4.674 1.438 7.182-.205 7.629-1.092.303-.063 3.35 1.863 3.31 4.94-.09 11.389.835 13.894.883"/>
        <path fill="#0E1220" d="M52.144 587.277c64.409-14.28 69.516-12.399 85.65-15.392 6.004-1.115 73.534-8.704 77.161-9.29l-7.775 35.039c-43.567.009-129.179-1.698-154.73 1.308-1.763-3.945-3.657-1.885-.306-11.665"/>
        <path fill="#0E1220" d="M160.85 525.992c3.87 2.437 11.358 7.015 19.946 12.687 10.523 4.85 7.746 1.501 18.561 16.855 3.055 2.183 13.244 7.571 14.724 11.101.067.16 4.003 7.252 5.907 10.877 7.98 14.056-12.74 29.812-28.663 14.098-10.658-19.824-42.446-40.888-42.671-43.053-.923-8.9-9.241 28.101-11.798 43.314-6.517-2.907-13.036-5.819-19.552-8.73 1.983-.79 5.222-81.971 43.545-57.149"/>
        <path fill="#FFFFFE" d="M101.034 546.436c.146-.092 3.253-2.293 4.57-3.912l13.152 24.095-2.639 7.155c-.2-.231-1.954-1.62-2.095-1.86l-13.325-23.703c-.38-.642-.407-1.338.337-1.775"/>
        <path fill="#FFAE2D" d="M98.903 546.47c1.012-.409 4.876-3.996 5.526-4.035.44-.03.739.1 1.174.089.434-.005-4.65 4.107-4.569 3.912l15.134 26.762c-.02.116.03.1 2.483-6.744l31.307-1.608c-2.39 6.93.466 9.493.466 9.663.003.89-.584 1.235-1.308 1.236l-31.63.187c-.534 0-.988-.188-1.196-.635l-.039.11c-.765.448-1.377.083-1.77-.58l-15.057-25.59c-.39-.663-1.139-2.515-.521-2.767"/>
        <path fill="#F7D0C2" d="M145.04 567.22c.516.29 1.043.558 1.561.78 6.139 2.597 9.99 2.248 11.74 2.578.652.12 1.258.243 1.858.355-.488 1.622-.99 3.25-1.474 4.873-4.94-.12-13.316-.398-13.316-.398.514-1.136-7.84.08-8.235.28-.816.415-5.239.785-5.835.573-1.385.13 11.592-8.127 13.7-9.04"/>
        <path fill="#F7D0C2" d="M142.982 560.21c.52.288 1.045.565 1.565.78 6.136 2.602 9.987 2.252 11.733 2.582.66.116 1.271.238 1.864.353-.49 1.63-.983 3.25-1.473 4.879-4.94-.127-12.79.66-15.686.505-3.777-.19-4.156-.639-4.156-.639.505-1.135 3.914-1.194 5.749-1.493 1.39.051 3.119-.075 3.241-.159.584-.434-1.926-1.188-3.964-.85-2.02-.073-6.341 2.312-6.731 2.51-.82.417-5.244.784-5.84.574-1.385.138 11.593-8.125 13.698-9.041"/>
        <path fill="#E32614" d="M152.175 563.21c6.057-.327 10.938-1.832 15.124-3.552 22.645-9.364 26.1-25.883 30.53-38.979 2.638-6.358 9.208-15.638 8.901-2.883-1.148 11.889-10.157 43.342-10.265 43.442-13.985 13.058-27.578 15.092-42.809 10.46.285-2.966-1.966-8.462-1.48-8.489"/>
        <path fill="#FC544E" d="M180.595 570.42c6.268-13.516 9.735-59.1 12.122-59.731.277-.077.89 3.1.89 3.1s12.071-5.523 13.205-6.095c1.37-.7.468-.103 1.78-.93 4.36-2.76 21.53 1.493 21.675 16.85 0 0-.078.869-.229 2.416.215 3.33.01 6.764-.416 8.984-.233 1.204-.58 2.454-.936 3.674-.12 1.018-.241 2.048-.363 3.123-.52 10.493 1.634 21.34-4.223 28.926-.167.913-.337 1.81-.512 2.691 1.613 6.114 1.132 9.138-4.844 9.12-11.069 4.39-42.88-1.927-38.149-12.129"/>
        <path fill="#187070" d="M192.307 517.031c-.576-1.44-.739-2.56-.217-3.373l.217 3.373"/>
        <path fill="#FC544E" d="M153.675 570.198c13.512-3.04 17.533-4.992 26.875-13.983 13.107-12.615 22.46-30.223 32.48-44.61 5.465-6.805 18.242 1.084 13.358 16.495-3.489 17.041-22.655 37.605-32.353 42.132-12.13 7.357-31.776 9.28-41.53 6.419l1.17-6.453"/>
        <path fill="#E32614" d="M213.55 511.971c-2.82 4.05-5.53 8.275-8.408 12.746-7.222 11.235-14.688 22.856-24.152 31.955-9.162 8.828-13.239 10.993-26.76 14.06l-.99 5.456c3.65.974 8.624 1.309 14.088.955 9.873-.646 19.739-3.432 26.439-7.49 9.11-4.251 28.431-24.304 32.012-41.741 1.83-5.78 1.261-11.156-1.561-14.762-1.763-2.252-4.223-3.507-6.574-3.354-1.62.107-3.043.867-4.093 2.175zm-61.226 65.292l-.553-.165 1.354-7.428.414-.096c13.705-3.086 17.425-5.025 26.566-13.821 9.359-9.003 16.784-20.55 23.963-31.73 2.878-4.48 5.603-8.714 8.466-12.818 1.3-1.626 3.04-2.558 5.026-2.686 2.775-.184 5.639 1.254 7.67 3.84 3.08 3.95 3.729 9.754 1.784 15.872-3.636 17.745-23.391 38.232-32.644 42.545-6.914 4.19-16.736 6.977-26.956 7.64-5.895.38-11.253-.03-15.09-1.153z"/>
        <path fill="#F7D0C2" d="M183.365 491.496c-.096-3.486-1.262-7.3 2.608-9.127 1.471-.703 1.137-2.56 8.445-3.44.53-.019 2.717 7.893 3.086 11.006.138.374-.577 1.733-.041.592 2.263-4.54 6.057-2.309 5.875.042-.27 3.381 1.036 1.427 2.237 2.167.095.06 1.127 5.025 1.127 5.025l4.155 8.062s-3.375 7.308-11.65 10.217c-5.223 1.833-5.739-2.29-5.739-2.29s-1.603-8.451-2.744-8.068c-6.014 1.981-3.12 2.415-5.485-7.725-.055-.244-1.53.406-2.52.204-.722-.15.752-2.94.646-6.665"/>
        <use fill="#DD9E8B" transform="translate(190.696 498.995)" xlink:href="#j"/>
        <path fill="#0E1220" d="M178.962 479.43c.37-3.946 3.284-8.417 10.078-7.288 2.557.423 4.059-3.05 5.918-1.462 4.875-3.29 10.275 3.607 11.12 6.777.198.732.281 1.556.33 2.33 2.3.21 2.542 1.967 2.363 3.992 5.43 2.967-3.12 9.59-2.06 13.142 1.426 4.76-4.39-.961-4.913-2.16 0 0 1.174-.564.724-2.656-.514-2.37-3.33-4.631-4.89.347-.21.728-.712-2.402-1.239-5.377-3.134 1.99-6.454-.15-8.64-2.768-2.687.512-5.383.708-6.746-.176-1.091-.696-2.28-2.176-2.045-4.7"/>
        <path fill="#FFFFFE" d="M186.985 500.536l.299 1.323c.641-.166 1.782-2.385 1.782-2.385l-2.08 1.062"/>
        <path fill="#59BCB5" d="M83.315 440.28h187.107v-32.356H83.315z"/>
        <path fill="#FFC80A" d="M174.591 221.828c20.89 3.8 33.22 23.583 16.429 35.777-3.313 2.402-7.633 4.148-12.45 5.269l.107.127c.993 1.047 4.576 3.947 6.086 4.45 3.774 1.25-4.298 1.299-8.69-.412-1.808-.706-3.666-1.843-5.227-2.938-17.996 1.64-39.078-4.22-43.079-17.173-4.681-15.134 13.975-31.056 46.824-25.1"/>
        <path fill="#FFFFFE" d="M149.14 255.015c-.135 0-.383-.02-.738-.057a3.484 3.484 0 0 0-1.085.057c-.482 0-.851.002-1.114.008-.134.003-.44.011-.496.18a.867.867 0 0 1-.248.147.87.87 0 0 1-.355.073h-.29c.013-.14.056-.313.134-.51.085-.156.128-.358.135-.617.007-.237.014-.425.014-.562 0-.138 0-.355.007-.651.007-.288.042-.566.113-.83l.007-.032c0-.267.022-.596.079-.974.05-.39.07-.765.07-1.118 0-.27.022-.795.064-1.562.043-.77.064-1.545.064-2.304 0-.826.029-1.608.078-2.316.05-.694.071-1.108.078-1.267.071-.22.114-.508.128-.86 0-.047.014-.174.078-.52.042-.294.07-.583.07-.862 0-.268.03-.605.072-1.004.057-.394.113-.696.184-.899l.007-1.42c0-.127.022-.287.071-.476.05-.208.078-.426.078-.647 0-.2.043-.466.128-.79v-.03c0-.05.014-.212.078-.724.05-.42.078-.88.078-1.369v-1.895a.568.568 0 0 0 .128-.308c0-.045.014-.157.07-.432.05-.232.079-.461.079-.675.106-.5.099-.602.078-.66-.057-.165-.277-.165-.348-.165h-.248v.12c0 .04-.014.115-.078.25-.05.121-.114.251-.199.402-.078.22-.149.54-.213.975-.056.424-.127 1.13-.205 2.109 0 .69-.022 1.318-.071 1.865-.05.563-.078.906-.078 1.048 0 .135 0 .302-.007.5a1.949 1.949 0 0 1-.114.58l-.007.023v.023c.021.538-.028.94-.142 1.195l-.007.049c0 .049-.014.172-.064.496-.05.274-.07.521-.07.739 0 .266-.022.58-.072.934-.05.366-.078.66-.078.876 0 .205-.021.45-.07.727-.05.272-.107.473-.178.597l-.014.027v.03c0 .137-.007.448-.014.931a14.799 14.799 0 0 1-.135 1.572v2.912c0 .346-.021.769-.064 1.262-.043.497-.064.96-.064 1.372 0 .346-.007.687-.021 1.014-.007.246-.036.343-.05.38h-.078v.12c0 .074-.007.2-.007.377-.007.168-.05.356-.12.553l-.008.04c0 .21-.007.487-.014.828-.014.327-.056.595-.127.794l-.007.041c0 .2-.022.416-.071.637-.057.27-.121.366-.15.39a.322.322 0 0 0-.127.26c.007.122.1.234.277.346l.028.017h.723c.15 0 .348-.027.596-.086.249-.057.483-.123.695-.2.213-.073.44-.138.681-.192.227-.054.44-.08.632-.082.149.074.312.118.49.133.177.012.304.017.382.017.071 0 .156.003.256.01l.035.005v.115h.12a.77.77 0 0 1 .256.068c.135.054.284.083.433.083.078 0 .177-.007.276-.02.242-.03.256-.199.256-.251v-.41c0-.171-.05-.304-.15-.396-.098-.093-.269-.134-.51-.134M157.028 248.934c-.007-.512-.014-1.096-.014-1.755 0-.66 0-1.367-.007-2.122-.007-.753-.05-1.373-.12-1.82 0-.459-.022-1.103-.065-1.91-.05-.802-.07-1.573-.07-2.29 0-.722-.022-1.4-.064-2.016a24.59 24.59 0 0 1-.064-1.122v-.03l-.015-.026a.975.975 0 0 1-.106-.415c-.007-.171-.007-.326-.007-.461 0-.134.021-.496.064-1.075.042-.585.064-1.28.064-2.064 0-.983 0-1.691-.007-2.12-.008-.495-.05-.764-.242-.764-.085 0-.205.036-.298.205a.674.674 0 0 0-.085.263c-.056.087-.127.273-.184.778-.05.426-.078.977-.078 1.638v3.139c0 .26 0 .59.007.991.007.398.05.736.12 1.004.008.21.029.645.072 1.327.042.685.063 1.426.063 2.205 0 .783.022 1.676.064 2.656.043.977.071 1.805.071 2.46v4.201c0 .077 0 .164.007.261.007.117.057.186.12.222v.412c-.113.291-.141.382-.134.432-.014.177-.057.254-.092.288l-.036.035v.051c0 .128-.02.345-.063.634-.043.303-.071.663-.071 1.065 0 .329-.022.692-.071 1.077-.05.382-.107.67-.185.869-.078.285-.113.469-.092.582.014.13.106.24.27.333.191.19.234.22.262.234l.035.016h.029c.064 0 .128-.039.22-.133.156-.155.248-.324.27-.499.02-.153.028-.366.028-.631 0-.192.021-.487.064-.873.042-.397.063-.768.063-1.107 0-.392.029-.795.078-1.2.05-.401.114-.734.185-.996.078-.345.12-.587.128-.738.007-.146.007-.257.007-.334v-.047l-.036-.037c-.014-.014-.078-.13-.085-.793M169.356 232.882c-.092 0-.177.045-.262.13-.085.087-.184.259-.32.528-.12.254-.255.556-.39.899a7.498 7.498 0 0 0-.616.954c-.192.352-.355.633-.49.842a4.29 4.29 0 0 0-.461.555 6.05 6.05 0 0 0-.355.536c-.149.09-.319.268-.518.538a5.66 5.66 0 0 1-.602.715l-.015.019a6.72 6.72 0 0 1-.68.823l-.022.025-.007.032c-.014.066-.07.21-.255.51-.078.077-.192.2-.348.368-.17.18-.29.345-.376.49a1.65 1.65 0 0 1-.262.37c-.107.117-.192.213-.27.285l-.128.08.064-.235v-.031c0-.046.014-.172.064-.504.05-.278.071-.53.071-.746 0-.1 0-.337.007-.709.007-.372.021-.833.036-1.38.02-.548.042-1.158.056-1.831.022-.67.029-1.367.029-2.072.035-1.24.064-2.21.078-2.886.007-.677.014-1.178.007-1.488-.007-.442-.05-.558-.085-.617a.288.288 0 0 0-.249-.138l-.035.005c-.34.093-.497.599-.497 1.591v3.25a63.06 63.06 0 0 1-.106 3.72l-.078 1.521c-.028.442-.057.782-.1 1.034 0 .479-.02.935-.07 1.358-.05.44-.078.72-.078.864 0 .134-.014.702-.057 1.685-.035.989-.014 2.158.057 3.468v5.009c-.085.711-.128 1.28-.128 1.695v1.662l.021.124h.1l.007.156v.03l.07.098h.072c.05 0 .141-.019.454-.148l.042-.015.021-.038c.078-.144.142-.305.185-.475.05-.181.035-.54-.043-1.113v-9.59c0-.512.014-.91.029-1.187.021-.333.056-.481.078-.547.021-.065.05-.11.092-.136a.362.362 0 0 0 .241-.117.392.392 0 0 0 .12-.282c0-.027.015-.096.107-.235.071-.107.206-.227.39-.35.15-.08.284-.181.412-.298.149-.14.212-.257.212-.379a.481.481 0 0 1 .114-.335l.142-.213.05.183.014.021c.142.264.283.538.411.813.007.138.028.275.071.404.05.138.064.217.064.258 0 .08.021.38.07.916.05.525.079 1.108.079 1.75.07.636.142 1.213.198 1.735.064.644.078.837.078.885v.05l.036.035a.357.357 0 0 1 .1.194v.33l.035.036c.05.054.085.131.092.235.014.127.021.257.021.39v1l.014.028c.071.126.135.304.192.524.064.224.128.41.206.55 0 .21.02.474.063.78.043.31.064.604.064.871 0 .349.007.655.022.911.014.256.05.428.127.533.007.138.029.296.071.479.043.181.064.378.064.58 0 .147.028.318.085.503.064.194.142.332.241.436.17.115.32.17.461.17l.036-.001c.07 0 .234-.03.248-.31.007-.132.007-.305.007-.52a2.4 2.4 0 0 0-.085-.641 2.492 2.492 0 0 0-.198-.49c0-.145-.022-.361-.064-.658a6.25 6.25 0 0 1-.064-.862c0-.281-.029-.583-.085-.9a4.909 4.909 0 0 0-.199-.781c0-.144-.021-.31-.078-.498a2.03 2.03 0 0 1-.07-.454c.006-.084-.022-.242-.065-.497a4.237 4.237 0 0 1-.064-.753c0-.219-.028-.475-.085-.762-.056-.272-.12-.45-.191-.554a4.623 4.623 0 0 0-.071-.564 4.562 4.562 0 0 1-.064-.773c0-.353-.028-.734-.085-1.137-.057-.395-.12-.77-.199-1.117 0-.274-.021-.572-.07-.883-.05-.303-.072-.56-.072-.766 0-.147-.028-.34-.092-.589a2.407 2.407 0 0 0-.206-.588 2.33 2.33 0 0 1-.184-.447c-.07-.21-.078-.303-.078-.337 0-.076-.007-.166-.014-.268-.007-.183-.114-.24-.185-.255l-.042-.052c.007-.025.035-.08.092-.19.071-.129.206-.325.397-.58a8.63 8.63 0 0 1 .703-.79l.02-.024c.207-.345.434-.68.675-1a17.5 17.5 0 0 0 .567-.797c.142-.146.326-.389.575-.747.234-.349.468-.666.688-.955.142-.277.27-.534.383-.777.17-.345.191-.465.191-.53v-.31l-.014-.027c-.106-.195-.227-.29-.362-.29M182.21 255.743c-.036-.09-.12-.17-.263-.248l-.021-.013h-.035c-.114 0-.22.006-.313.019a.936.936 0 0 0-.34.125c-.064.036-.213.081-.532.089-.284.006-.695.008-1.241.008-.54 0-.95-.023-1.22-.073a5.27 5.27 0 0 1-.696-.165 9.454 9.454 0 0 0-.766-.17c-.49-.09-1.17-.072-1.894-.085-.312-.006-.553-.039-.73-.099l-.036-.006c-.177 0-.362-.023-.553-.07-.227-.06-.305-.11-.326-.132-.107-.112-.213-.342-.334-.688-.056-.173-.092-.433-.099-.774 0-.355-.007-.682-.007-.979 0-.181.021-.478.064-.883.042-.414.07-.807.07-1.17 0-.42.015-.852.057-1.29.036-.442.05-.788.05-1.026 0-.228.021-.446.064-.65.064-.294.07-.388.07-.434 0-.106.022-.272.05-.494.043-.236.064-.478.064-.72v-1.456l-.092-.395.369-.085.028-.012c.1-.051.242-.078.433-.078.192 0 .383.029.56.087l.043.006c.092 0 .277.006.56.018a45.01 45.01 0 0 0 1.802.037h.454c.142 0 .234-.02.29-.063.03-.024.072-.072.157-.226.078-.085.128-.22.156-.411l.007-.138h-.135l-.482-.008-1.014-.02a57.069 57.069 0 0 1-1.142-.028c-.39-.012-.688-.018-.901-.018h-.036c-.801 0-1.07-.02-1.156-.035l-.043-.01.015-.02.014-.027v-.03c0-.04.007-.198.057-.719.035-.425.056-.918.056-1.466 0-.541.043-1.229.128-2.053l.043-.152a.791.791 0 0 0 .07-.335c0-.108.022-.413.064-.904.043-.499.064-1.056.064-1.653 0-.67.021-1.378.057-2.115.035-.74.057-1.329.057-1.753 0-.48.007-.888.02-1.208.008-.224.022-.325.036-.368.291.014.547.049.76.104.184.064.44.128.737.19.291.06.532.122.71.18.092.04.262.084.524.138.249.05.525.1.823.15.305.05.596.096.873.14.276.043.496.076.631.1.419.109.688.19.802.237.085.036.141.09.198.166 0 .105.022.165.057.205l.05.04.078-.002c.042-.009.085-.017.39-.322.191-.196.312-.331.362-.417a.217.217 0 0 0 .028-.179c-.014-.062-.064-.117-.128-.166-.056-.106-.227-.16-.468-.208a4.606 4.606 0 0 0-.837-.076 45.57 45.57 0 0 1-.837-.183c-.34-.081-.418-.14-.44-.154l-.042-.036h-.05c-.035 0-.128-.007-.277-.019-.163-.01-.347-.026-.539-.045l-.596-.057a4.672 4.672 0 0 0-.432-.028 2.11 2.11 0 0 1-.532-.071c-.135-.034-.185-.062-.199-.076v-.097h-.12a.53.53 0 0 1-.2-.055.74.74 0 0 0-.29-.075c-.007-.003-.057-.001-.184-.105a2.617 2.617 0 0 0-.355-.235 2.513 2.513 0 0 0-.426-.178 1.335 1.335 0 0 0-.383-.08l-.156.01c-.078.01-.163.058-.177.172a.529.529 0 0 0-.12.278c-.008.105-.015.191-.015.259 0 .04-.014.266-.057 1.113a46.85 46.85 0 0 0-.056 2.396c0 .966-.022 1.843-.064 2.61-.05.769-.071 1.28-.071 1.517 0 .18-.021.428-.071.74-.05.31-.106.586-.163.818l-.007.031c0 .232-.015.61-.057 1.12-.036.518-.05.994-.05 1.418v4.259c0 .292-.028.626-.07.995a8.274 8.274 0 0 0-.064.912c-.064.246-.121.63-.17 1.172-.05.542-.072 1.096-.072 1.646 0 .479-.021.957-.056 1.419a12.05 12.05 0 0 0-.057.876c0 .19.021.504.064.928.042.42.099.752.163.993 0 .295.014.59.057.87.035.274.05.465.05.57 0 .116.006.232.02.343.022.183.114.242.185.258a.35.35 0 0 0 .234.09c.085 0 .17-.04.262-.127.064-.084.128-.182.185-.297a.885.885 0 0 0 .085-.378v-.222l.071.031a.897.897 0 0 1 .213.146l.028.035h.057c.1 0 .29.021.567.064.284.044.582.066.887.066.355 0 .71.018 1.05.056.355.038.652.058.894.058.177 0 .425.024.744.072.32.05.639.107.93.168.305.048.553.096.773.14.248.047.355.032.411-.011.071-.007.178-.023.398-.064.212-.042.468-.064.759-.064.078.003.149.003.22.003.652 0 .822-.063.858-.183.085-.114.127-.21.127-.295a.677.677 0 0 0-.05-.23"/>
        <path fill="#FFF" d="M89.362 433.638c10.254.033 120.84.379 142.53.842l.026.839v-.84c.307 0 .541-.122.751-.39 1.933-2.479.181-13.553-1.459-20.387-4.607-.159-33.643-1.113-68.121-1.113-29.63 0-55.093.686-75.705 2.04l1.978 19.01zm142.556 2.521h-.062c-22.621-.484-142.052-.84-143.256-.84l-.752-.005-2.314-22.247.868-.057c20.8-1.397 46.604-2.098 76.687-2.098 37.46 0 68.504 1.125 68.816 1.132l.632.028.15.61c.467 1.871 4.455 18.41 1.305 22.438-.532.677-1.247 1.039-2.074 1.039zM250.673 425.243a3.674 3.674 0 0 1-5.127-.814 3.677 3.677 0 0 1 .813-5.13 3.685 3.685 0 0 1 5.133.816 3.68 3.68 0 0 1-.819 5.128zm1.983-5.974a5.125 5.125 0 0 0-7.149-1.139 5.124 5.124 0 0 0-1.13 7.15c1.548 2.13 4.802 2.83 7.04 1.553l4.801 6.725 1.169-.85-5.328-6.359c1.686-1.753 2.077-5.047.597-7.08z"/>
        <path fill="#FC544E" d="M598.264 199.388c.24.001 0 .62 0 .62 10.905-4.439 86.086-7.376 88.482 9.237 3.86 26.81 7.764 45.491-12.587 53.534-13.07 5.17-41.818 3.806-60.313 2.079l-14.835 11.029.349-12.694c-.79-.117-1.411-.22-1.833-.3-20.221-3.853-31.678-63.987.737-63.505"/>
        <path fill="#FFFFFE" d="M610.008 219.911c-.044-.993-.087-1.858-.111-2.587-.029-.73-.039-1.21-.039-1.447 0-.561-.009-1.045-.028-1.446-.01-.21-.026-.6-.225-.763-.091-.198-.292-.23-.483-.125a.424.424 0 0 1-.196.05h-.101l-.07.075a2.69 2.69 0 0 0-.336.405 1.225 1.225 0 0 0-.174.667c0 .109.013.39.044.84.023.447.06.969.106 1.566.047.595.086 1.241.122 1.935.036.69.052 1.348.052 1.956 0 .636.01 1.322.027 2.056.016.733.043 1.47.071 2.22.025.735.053 1.447.077 2.13.031.663.041 1.259.041 1.765 0 1.03-.01 2.127-.027 3.297-.014 1.145-.079 2.002-.184 2.554a15.66 15.66 0 0 0-.194 1.971 59.243 59.243 0 0 0-.026 1.242c0 .343-.011.783-.042 1.304-.023.519-.094 1.06-.2 1.598a202.77 202.77 0 0 0-.42 1.852c-.173.789-.26 1.483-.26 2.062 0 .287-.006.703-.014 1.244a61.899 61.899 0 0 0-.015 1.632v1.985a2.608 2.608 0 0 0-.183-.636 19.758 19.758 0 0 0-.067-.632c-.043-.387-.091-.823-.148-1.316-.052-.483-.1-.966-.144-1.445a11.744 11.744 0 0 1-.071-1.048c0-.468-.039-.913-.115-1.337-.086-.51-.1-.674-.1-.73l-.018-.083a3.136 3.136 0 0 1-.203-1.027c0-.239-.077-.626-.243-1.18-.006-.097-.034-.302-.144-.813-.086-.427-.182-.916-.292-1.43 0-.464-.038-.964-.124-1.476a8.407 8.407 0 0 1-.12-1.234v-.063l-.024-.053c-.1-.2-.205-.532-.32-.992a17.09 17.09 0 0 0-.33-1.213 8.86 8.86 0 0 0-.116-1.22c-.069-.458-.105-.792-.105-.994 0-.083-.014-.255-.126-.774-.075-.35-.12-.633-.12-.828 0-.242-.084-.666-.263-1.292a19.13 19.13 0 0 1-.417-1.715l-.019-.062c-.215-.434-.483-1.19-.804-2.243a136.342 136.342 0 0 0-.995-3.127 27.983 27.983 0 0 0-.77-2.916c-.294-.916-.493-1.472-.593-1.67a19.595 19.595 0 0 1-.311-1.098c-.094-.377-.141-.666-.141-.86l-.015-.075c-.117-.386-.247-.646-.39-.804-.173-.177-.341-.265-.528-.268h-.53l-.076.074c-.122.119-.236.352-.275 1.237-.028.61-.048 1.55-.048 2.792 0 .896-.033 1.83-.105 2.777-.071.979-.11 1.624-.11 1.975 0 .333-.034.835-.105 1.493-.072.675-.108 1.25-.108 1.709 0 .543-.04 1.022-.117 1.42-.115.582-.129.754-.129.835 0 .055-.015.256-.105.999-.076.586-.11 1.173-.11 1.74 0 .555-.053 1.274-.149 2.144a56.518 56.518 0 0 1-.309 2.341c-.11.568-.222 1.281-.341 2.176-.115.86-.23 1.581-.342 2.191 0 .438-.037.95-.106 1.517-.076.593-.11 1.057-.11 1.416v5.454c0 .35.034.866.11 1.536.07.646.106 1.199.106 1.639 0 .565.007 1.05.026 1.453.007.21.026.597.222.76.094.196.287.235.488.124a.385.385 0 0 1 .194-.048h.057l.053-.028c.291-.148.47-.43.527-.842.047-.34.071-.957.071-1.876 0-.574-.04-1.177-.124-1.813-.08-.608-.12-1.142-.12-1.582 0-.356-.038-.756-.112-1.184a6.557 6.557 0 0 1-.107-1.1c0-.335.013-.76.028-1.264.016-.487.08-.954.186-1.387l.006-.062c0-.546.04-1.077.119-1.574.083-.536.124-.91.124-1.139 0-.053.014-.206.105-.646.1-.493.115-.658.115-.742 0-.191.039-.423.11-.689.116-.416.134-.579.134-.664 0-.206.034-.622.106-1.235.07-.632.11-1.36.105-2.124l.31-2.268c.104-.722.156-1.266.156-1.622 0-.202.036-.502.105-.891.075-.423.11-.814.11-1.172 0-.332.04-.76.106-1.27a12.04 12.04 0 0 0 .115-1.663c0-.438.04-1.058.117-1.846.086-.799.124-1.56.124-2.253 0-.4.005-.775.014-1.127.087.202.183.5.28.88.127.484.251.898.357 1.228.11.464.263.991.452 1.568.19.58.34 1.04.447 1.381l.022.06c.205.319.368.755.502 1.293.13.565.259 1.032.368 1.388.106.342.21.75.306 1.225.099.47.15.874.15 1.2l.006.074c.106.33.206.742.31 1.221.095.47.143.876.143 1.202l.01.076c.104.33.21.727.305 1.172.135.586.146.744.146.79 0 .22.007.478.026.772.018.299.08.517.194.675.007.239.06.595.15 1.079.099.531.202 1.14.31 1.827.107.687.208 1.3.301 1.833.086.517.13.885.13 1.086v.103l.076.074c.029.029.1.134.131.445.022.273.04.522.04.734 0 .362.07.761.219 1.185.004.096.03.268.126.632.077.277.115.579.115.899 0 .191.02.512.053.995.036.474.083.984.138 1.526l.15 1.52c.042.461.068.775.068.926 0 .492.053.858.165 1.117.05.107.177.404.43.476a.509.509 0 0 0 .556.072.603.603 0 0 1 .239-.058l.182-.007v.165c-.223.507-.22.938.01 1.285.026.179.153.308.346.347a2.175 2.175 0 0 0 .718 0c.206-.039.333-.192.347-.403.148-.573.217-1.028.217-1.394 0-.33.042-.84.12-1.515.09-.693.13-1.334.13-1.904v-2.794c0-.541.002-1.024.012-1.45l.011-.724c0-.07.005-.142.014-.21h.202v-.686c0-.05.019-.203.12-.681.078-.378.124-.747.128-1.1.108-.36.168-.847.187-1.453.02-.61.029-1.197.029-1.758 0-.44.033-.895.105-1.364.086-.57.105-.78.113-.878.11-.395.174-1.29.203-2.734.024-1.448.038-3.389.038-5.938 0-1.054-.024-2.175-.067-3.335-.043-1.15-.091-2.224-.133-3.22M628.112 251.87l-.058-.031h-.062c-.179 0-.337.01-.469.031a1.518 1.518 0 0 0-.52.192c-.073.04-.262.107-.743.117-.407.012-1.005.017-1.794.017-.777 0-1.376-.036-1.768-.106a6.912 6.912 0 0 1-.99-.242c-.36-.09-.737-.177-1.122-.246a7.694 7.694 0 0 0-1.419-.115h-.108c-.397 0-.81-.007-1.243-.012-.436-.01-.79-.052-1.04-.136l-.076-.014c-.249 0-.511-.031-.785-.1-.346-.09-.435-.166-.44-.171-.097-.108-.255-.359-.466-.966-.081-.25-.127-.622-.133-1.11-.01-.512-.015-.986-.015-1.416 0-.27.03-.699.091-1.28.067-.61.098-1.184.098-1.711 0-.605.026-1.234.08-1.863.057-.646.083-1.154.083-1.505 0-.321.03-.632.088-.923.091-.432.101-.578.101-.646 0-.152.026-.389.078-.707a6.52 6.52 0 0 0 .085-1.06v-2.117l-.115-.518.465-.108.061-.024c.089-.048.26-.106.59-.106.276 0 .543.044.785.122l.096.015c.139 0 .402.01.801.026.43.022.878.034 1.35.04.474.01.9.017 1.282.017h.65c.235 0 .38-.035.465-.107.062-.048.134-.126.256-.35.112-.13.194-.339.232-.628l.043-.285h-.287c-.058 0-.297-.005-.718-.014l-1.466-.027a83.85 83.85 0 0 1-1.665-.04c-.565-.02-1-.03-1.312-.03-1.083 0-1.513-.023-1.676-.042v-.057c0-.058.011-.283.083-1.039.053-.615.08-1.335.08-2.138 0-.783.064-1.777.188-2.986a.46.46 0 0 1 .058-.187c.073-.149.104-.316.104-.52 0-.152.034-.593.096-1.309.063-.725.096-1.537.096-2.409 0-.968.028-2.003.082-3.07.055-1.072.08-1.933.08-2.552 0-.696.01-1.287.03-1.752.007-.246.024-.383.043-.46.387.024.732.072 1.01.143a9.55 9.55 0 0 0 1.09.279c.421.09.769.178 1.01.257.145.064.4.13.782.206.364.073.766.145 1.201.22.44.071.856.14 1.263.203.409.061.718.11.914.143.749.2 1.038.295 1.145.343a.56.56 0 0 1 .245.193l.02.163c.05.183.181.247.286.247l.058-.004c.086-.018.162-.05.602-.492.297-.297.469-.488.546-.617a.419.419 0 0 0 .043-.322.507.507 0 0 0-.202-.27c-.114-.189-.422-.268-.717-.325a6.664 6.664 0 0 0-1.23-.114 48.552 48.552 0 0 1-1.203-.264c-.498-.113-.588-.194-.602-.206l-.082-.072h-.105c-.058 0-.191-.007-.407-.027a28.517 28.517 0 0 1-.783-.067l-.851-.081a6.19 6.19 0 0 0-.641-.04 3.01 3.01 0 0 1-.76-.104 1.218 1.218 0 0 1-.235-.077v-.173h-.249a.656.656 0 0 1-.25-.076 1.221 1.221 0 0 0-.453-.113c-.005 0-.034.013-.225-.137a3.49 3.49 0 0 0-1.155-.616c-.254-.079-.43-.114-.575-.117a1.94 1.94 0 0 0-.246.014.351.351 0 0 0-.316.292.795.795 0 0 0-.174.427 3.26 3.26 0 0 0-.03.385c0 .041-.008.278-.08 1.616a67.324 67.324 0 0 0-.087 3.487c0 1.405-.028 2.68-.09 3.787a44.07 44.07 0 0 0-.091 2.215c0 .254-.043.611-.11 1.058a12.3 12.3 0 0 1-.24 1.184l-.01.064c0 .334-.023.882-.076 1.622-.057.76-.086 1.453-.086 2.069v6.19c0 .426-.029.907-.091 1.436-.067.545-.096.98-.096 1.33-.09.358-.176.916-.249 1.703-.067.79-.109 1.598-.109 2.397 0 .694-.025 1.385-.077 2.058a21.39 21.39 0 0 0-.083 1.282c0 .282.03.737.098 1.354.06.608.138 1.091.224 1.445 0 .433.033.857.091 1.266.053.394.072.671.072.82 0 .172.01.34.033.502.029.301.187.405.302.436.12.095.25.138.374.138.153 0 .3-.064.444-.21.1-.122.196-.273.278-.448.086-.184.13-.38.13-.58v-.207c.118.06.212.125.277.196l.076.073h.105c.106 0 .328.014.816.09.897.139 1.885.082 2.82.177.512.053.945.086 1.302.086.258 0 .619.034 1.076.106.45.062.9.148 1.354.239.433.072.804.14 1.12.201.366.077.54.055.645-.014.098-.01.264-.034.548-.092.316-.06.682-.09 1.086-.09 1.118.024 1.549-.043 1.649-.297.122-.177.184-.33.184-.469a.975.975 0 0 0-.074-.363c-.057-.149-.19-.278-.41-.4M657.66 215.672a.991.991 0 0 0-.793-.23l-.085.01-.06.06c-.138.137-.255.365-.36.7a3.326 3.326 0 0 0-.146.997c0 .308-.043.738-.132 1.276-.089.544-.19 1.034-.299 1.47a16.268 16.268 0 0 1-.531 1.912 14.86 14.86 0 0 0-.54 1.928c-.216.54-.5 1.232-.855 2.072a31.158 31.158 0 0 0-.847 2.225c-.332.662-.61 1.375-.83 2.118-.215.73-.377 1.254-.488 1.576l-.011.082c0 .315-.037.799-.106 1.44a16.21 16.21 0 0 0-.11 1.816c0 .524-.048 1.064-.131 1.6-.111.656-.211.952-.278 1.086-.12.237-.225.594-.32 1.082-.091.473-.14.942-.14 1.392 0 .406-.075.9-.22 1.455a62.286 62.286 0 0 0-.401 1.533c-.111.536-.249 1.107-.427 1.701a18.41 18.41 0 0 0-.44 1.737c-.076.313-.174.703-.29 1.162a2.442 2.442 0 0 1-.087-.667 5.637 5.637 0 0 0-.108-1.102 4.735 4.735 0 0 1-.108-.852c0-.134-.038-.33-.117-.622a2.768 2.768 0 0 1-.1-.656c0-.239-.05-.517-.146-.81-.089-.26-.184-.455-.294-.594a3.299 3.299 0 0 0-.141-.572 35.719 35.719 0 0 0-.29-.885c0-.33-.038-.646-.114-.948-.087-.349-.101-.483-.101-.53 0-.135-.034-.34-.115-.65a3.485 3.485 0 0 1-.1-.846v-.06l-.027-.052a1.618 1.618 0 0 1-.162-.666c-.018-.282-.031-.53-.031-.74 0-.135-.039-.34-.13-.642a4.73 4.73 0 0 0-.301-.773c-.1-.203-.24-.54-.407-.998a3.626 3.626 0 0 0-.115-.583 2.43 2.43 0 0 1-.1-.675c0-.334-.039-.754-.115-1.241a8.716 8.716 0 0 1-.105-1.333c0-.446-.072-.97-.22-1.554a6.438 6.438 0 0 0-.11-.746 6.101 6.101 0 0 1-.106-1.174l-.005-.062a16.525 16.525 0 0 1-.293-1.563c-.094-.61-.137-1.077-.137-1.39a6.24 6.24 0 0 0-.14-1.202c-.09-.44-.186-.765-.296-1.001-.004-.242-.06-.668-.162-1.284a13.18 13.18 0 0 0-.486-1.955c-.11-.65-.255-1.513-.435-2.54a.426.426 0 0 0-.34-.435 2.606 2.606 0 0 0-.32-.03c-.771-.066-.905.25-.924.465v.652c0 .205-.029.5-.09.87a7.24 7.24 0 0 0-.101 1.275c0 .416-.043.815-.135 1.192-.08.378-.174.67-.274.87l-.026.051v.06c0 .043-.015.199-.13.778-.09.44-.186.873-.297 1.317a10.438 10.438 0 0 0-.197 1.847 65.912 65.912 0 0 0-.028 1.65c0 .53-.035 1.046-.11 1.539a11.49 11.49 0 0 0-.11 1.242c-.104.335-.2.778-.294 1.32a9.686 9.686 0 0 0-.136 1.516c0 .532-.036 1.026-.105 1.484-.1.648-.113.827-.113.906 0 .055-.014.232-.107.816-.075.473-.108.993-.108 1.545 0 .526-.036.986-.105 1.369-.103.555-.11.724-.11.768-.147.963-.22 1.844-.22 2.614 0 .642-.037 1.273-.106 1.885-.086.69-.105.953-.11 1.068-.11.236-.206.583-.296 1.045a7.647 7.647 0 0 0-.139 1.407c0 .414-.033.801-.105 1.16-.1.521-.11.684-.11.766 0 .043-.02.143-.092.34l-.047.119a24.7 24.7 0 0 1-.22-.555l-.029-.043a3.55 3.55 0 0 1-.452-1.098c-.105-.443-.158-.82-.158-1.125l-.007-.078c-.11-.316-.208-.675-.296-1.062a4.928 4.928 0 0 1-.128-1.03l-.012-.085c-.11-.321-.22-.658-.325-1.01-.115-.371-.23-.615-.356-.76a4.068 4.068 0 0 1-.268-.716 3.096 3.096 0 0 1-.13-.878c0-.225-.033-.787-.11-1.718a36.952 36.952 0 0 1-.105-2.818c0-.978-.038-1.905-.11-2.746-.07-.833-.106-1.36-.106-1.57 0-.239-.037-.497-.116-.785-.089-.315-.104-.44-.104-.49 0-.078-.011-.258-.111-.905a10.566 10.566 0 0 1-.104-1.48c0-.56-.038-1.043-.112-1.447-.093-.489-.105-.646-.105-.701l-.012-.09c-.14-.332-.203-.593-.203-.777 0-.252-.09-.584-.266-1.02a9.334 9.334 0 0 1-.392-1.211c-.111-.432-.21-.88-.314-1.337-.105-.49-.215-.842-.332-1.076-.067-.137-.173-.44-.304-1.13-.11-.58-.215-1.192-.321-1.8 0-.662-.04-1.245-.11-1.734-.093-.609-.105-.792-.105-.847l-.019-.09c-.196-.51-.206-.693-.196-.778v-.433c0-.328-.104-.535-.297-.611a1.018 1.018 0 0 0-.392-.072h-.47v.247c0 .068 0 .128-.007.187h-.109l-.07.136a.92.92 0 0 0-.028.82c.005.228.045.52.115.887.067.363.1.703.1 1.01 0 .342.044.71.114 1.095.073.353.101.632.101.834 0 .241.098.69.282 1.368.187.652.389 1.316.594 1.925.105.76.33 1.63.65 2.589.005.114.036.404.15 1.276.102.748.26 1.629.475 2.588.105.977.206 1.93.296 2.86.091.92.14 1.547.14 1.858 0 .23.033.795.104 1.72.072.907.11 1.85.11 2.816v2.105c0 .546.024 1.019.067 1.402.048.393.12.748.214 1.072.092.313.22.681.385 1.137.215.533.415 1.121.59 1.753.175.617.264 1.081.264 1.38 0 .356.088.773.258 1.242.162.447.309.79.404.98.115.34.256.694.419 1.06.206.463.22.58.22.601 0 .256.086.572.268.971.168.367.302.658.397.852.172.469.423 1.01.857 1.01h.005c.119 0 .224-.01.325-.02a.39.39 0 0 0 .354-.32c.115-.153.22-.402.326-.766.104-.387.214-.794.325-1.231l.006-.06c0-.421.036-.92.106-1.474.074-.58.114-1.1.114-1.541 0-.42.032-.873.106-1.35a9.9 9.9 0 0 0 .11-1.224c.105-.44.206-.99.295-1.639.09-.672.14-1.292.14-1.84 0-.63.07-1.415.215-2.363 0-.053.013-.21.106-.713.075-.412.11-.9.11-1.455 0-.426.038-.913.11-1.45.075-.566.11-1.006.11-1.348v-1.087l.139-.11c.052-.062.105-.172.077-.344v-.572c.109-.237.162-.447.162-.655a.783.783 0 0 0-.038-.254l.062-.12c.163-.302.249-.698.249-1.175v-2.605c0-.332-.01-.631-.03-.899-.02-.282-.095-.443-.185-.531v-.455l.009-.041.421.846v-1.5c0-.102.01-.27.029-.493l.014-.123h.177v-.251c0-.125-.015-.242-.034-.347a.459.459 0 0 0-.08-.18c.109-.203.143-.395.114-.558 0-.106.01-.281.039-.532.019-.206.119-.39.29-.566l.052-.067a2.45 2.45 0 0 0 .217-.804c.099.291.187.603.265.929.085.35.127.628.127.822 0 .078.01.257.11.882.075.434.106.87.106 1.29l.014.08c.105.31.206.73.29 1.248.088.523.131.94.131 1.25l.01.06c.11.44.21.813.301 1.124.11.387.125.514.125.555v.25h.14c.017.068.04.197.049.451.016.457.03 1.011.03 1.657 0 .887.056 1.585.166 2.078a31.3 31.3 0 0 0 .493 1.868c.105.428.205.847.293 1.242.09.378.132.67.132.866 0 .09.015.258.142.792.093.38.189.79.298 1.213.111.55.249 1.177.422 1.87.168.69.306 1.362.416 2.006.11.652.25 1.363.411 2.112.158.735.235 1.313.244 1.775.105.536.206 1.175.294 1.892.085.723.132 1.301.132 1.723 0 .454.05.88.146 1.27.089.361.184.605.299.758a.41.41 0 0 0 .328.336c.108.023.22.033.349.033.224 0 .607-.106.674-.818.192-.474.264-.938.226-1.364 0-.191.052-.531.157-1 .105-.47.263-.98.488-1.555.11-.54.216-1.1.316-1.672.098-.555.199-.993.304-1.309.105-.33.208-.64.294-.942.1-.321.151-.606.151-.85 0-.04.012-.18.131-.643.086-.35.185-.69.29-1.014l.012-.077c0-.416.036-.823.107-1.206.065-.359.101-.645.111-.87a.882.882 0 0 0 .143-.254h.074v-.249l-.007-.086.022-.13-.067-.01c.067-.161.151-.34.256-.566.115-.335.215-.748.306-1.223.093-.487.14-1.123.14-1.892 0-.639.037-1.255.11-1.833.075-.604.11-1.064.11-1.401 0-.132.042-.421.234-1.05.157-.531.3-1.015.406-1.442l1.299-2.613c.11-.326.25-.712.421-1.174.172-.463.314-.858.41-1.155.224-.445.437-1.063.64-1.825.204-.756.361-1.472.467-2.13.11-.637.239-1.238.401-1.788.177-.615.235-.871.25-.997.253-.448.4-.897.44-1.354a4.125 4.125 0 0 0-.03-.618c-.028-.339-.2-.449-.33-.483M671.815 218.294a4.503 4.503 0 0 0-.075-.797c-.06-.262-.06-.346-.06-.367v-.253h-.152c-.007-.085-.015-.156-.015-.211 0-.196-.06-.435-.18-.723a13.109 13.109 0 0 1-.287-.723 7.498 7.498 0 0 0-.542-.884c-.2-.281-.396-.465-.588-.565a1.576 1.576 0 0 0-.577-.366c-.28-.1-.399-.11-.466-.11-.074 0-.191.012-.493.108-.21.06-.426.13-.644.203l-.071.036c-.201.153-.464.334-.8.547-.34.218-.626.44-.85.669-.24.233-.48.568-.724.99-.231.4-.5.827-.827 1.32-.436 1.038-.744 1.97-.91 2.752-.075.324-.123.756-.14 1.283-.02.52-.029 1.006-.029 1.463 0 .46.029.958.084 1.478.053.502.079.912.079 1.208 0 .391.036.837.098 1.322.06.482.131.952.2 1.404l.023.063c.15.347.234.675.246.972.024.318.031.561.031.72a3.54 3.54 0 0 0 .447 1.572c.072.215.151.454.23.711.095.316.184.499.29.609l.054.052.072.014c.029.005.09.105.1.354 0 .077.025.216.307.87.186.443.39.927.608 1.451.22.53.459 1.067.712 1.598.247.526.41.895.476 1.098.079.232.175.457.29.665.117.215.131.287.136.287-.005.077.005.225.022.445.027.242.122.488.299.73.065.205.126.46.184.76.057.316.089.623.089.92l.01.056c.063.279.076.628.048 1.034-.037.423-.058.797-.058 1.106-.072.296-.137.64-.199 1.047-.065.412-.1.78-.1 1.096 0 .199-.046.478-.127.84l-.01.057c0 .01 0 .064-.062.2a1.394 1.394 0 0 0-.096.534c0 .072-.026.264-.194.7a4.403 4.403 0 0 1-.513.973c-.163.304-.331.614-.51.93-.173.3-.3.534-.374.701a2.856 2.856 0 0 1-1.038.656c-.337.064-.593.088-.751.064-.106-.014-.347-.086-.883-.344l-.048-.017a2.16 2.16 0 0 1-.782-.357 4.577 4.577 0 0 1-.62-.5l-.074-.048c-.074-.035-.193-.128-.327-.382a6.293 6.293 0 0 0-.445-.703 17.449 17.449 0 0 1-.202-.658 5.762 5.762 0 0 0-.229-.656 3.162 3.162 0 0 1-.189-.597 2.883 2.883 0 0 1-.088-.659l-.015-.079c-.06-.193-.105-.5-.122-.909-.016-.43-.026-.799-.026-1.1 0-.296.026-.622.078-.971.054-.345.08-.606.085-.78.096-.297.1-.445.03-.565-.092-.153-.277-.187-.552-.187-.215-.045-.435.032-.656.223l-.083.074.009 3.907c.07.383.15.76.227 1.134.089.39.169.668.247.85l.053.07c.005.01.067.072.14.34.085.297.085.374.085.378 0 .192.038.395.107.603.072.196.146.343.235.443.105.194.236.4.412.5l.05.103.107.127c.046.193.22.373.522.55.096.086.258.187.483.309.258.155.354.231.384.26.2.201.458.325.764.368l.287.039v-.029c.063.029.132.058.2.086.173.168.314.278.44.345a.735.735 0 0 0 .31.057c.127 0 .277-.019.454-.057.225-.005.477-.038.742-.105.275-.072.45-.139.565-.235.171-.076.344-.182.521-.306.155-.105.272-.2.361-.278.156-.062.269-.234.397-.478.123-.237.223-.47.297-.687.172-.234.344-.567.536-1.012l.54-1.258c.164-.531.31-1.04.422-1.52.124-.497.186-.913.186-1.243 0-.292.029-.668.092-1.117.061-.46.134-.874.2-1.268.081-.613.11-1.06.11-1.359a4.24 4.24 0 0 0-.115-.976c-.071-.216-.172-.522-.301-.921a8.527 8.527 0 0 1-.285-1.137l-.021-.05c-.158-.378-.3-.725-.415-1.045-.145-.407-.162-.503-.162-.514v-.103l-.074-.077a.735.735 0 0 1-.153-.23.605.605 0 0 1-.072-.186l-.017-.1c-.073-.163-.184-.431-.337-.81a9.165 9.165 0 0 0-.555-1.13 45.844 45.844 0 0 1-.593-1.783l-.022-.058-.038-.043c-.034-.028-.089-.105-.182-.306l-.239-.541a5.752 5.752 0 0 1-.589-1.33 8.063 8.063 0 0 1-.196-.497 1.332 1.332 0 0 1-.081-.434c0-.057-.005-.17-.072-.508a3.502 3.502 0 0 1-.067-.55c0-.237-.024-.475-.086-.7a2.056 2.056 0 0 1-.077-.495c0-.079-.005-.176-.012-.29a.416.416 0 0 0-.136-.308c-.014-.074-.033-.175-.074-.321a2.778 2.778 0 0 1-.074-.709l-.015-.081c-.043-.13-.096-.452-.105-1.24-.01-.659-.014-1.367-.014-2.126 0-.962.033-1.668.094-2.096.061-.426.168-.903.331-1.429.073-.3.178-.642.307-1.02.124-.364.268-.649.41-.842a8.09 8.09 0 0 0 .533-.812c.2-.34.34-.44.402-.47l.59-.565a2.22 2.22 0 0 0 .393-.504c.143-.07.301-.158.473-.263.15-.091.283-.138.398-.138h.626c.125.138.325.437.67 1.096.143.193.278.483.407.853.136.398.287.785.444 1.159.07.37.134.708.179 1.028.053.296.045.62-.023 1.016 0 .29-.03.596-.096.917a4.826 4.826 0 0 1-.193.796l-.012.079c0 .194-.027.387-.07.575a2.357 2.357 0 0 0-.093.62.785.785 0 0 1-.053.211c-.05.142-.079.3-.083.47-.13.33-.182.602-.163.808v.283l-.062.071a.503.503 0 0 0-.072.41v.386h.25c.204 0 .367-.182.499-.362.133-.184.246-.366.322-.545.075-.168.18-.406.301-.713.136-.316.234-.585.31-.803l.014-.08c0-.207.023-.528.068-.954.038-.438.068-.823.06-1.094.166-.922.166-1.75.008-2.46"/>
        <path fill="#FFF" d="M643.716 324.834l3.321-.906c4.31-1.192 8.762-2.417 13.274-3.43l.268 1.187c-4.486 1.008-8.924 2.228-13.22 3.41l-3.322.91-.32-1.171M633.48 307.312l1.506-3.081c1.96-4.02 3.986-8.177 6.209-12.24l1.069.584c-2.21 4.034-4.237 8.182-6.184 12.192l-1.505 3.081-1.095-.536M639.02 352.147l.928-.784 2.211 2.624c2.869 3.411 5.832 6.937 8.961 10.313l-.892.827c-3.146-3.399-6.119-6.937-8.998-10.361l-2.21-2.619"/>
        <path fill="#14236C" d="M755.894 596.3c-19.205-.205-32.32.36-41.304.75-12.573.54-16.816.724-18.279-1.895-3.904-6.982-10.401-8.139-15.165-6.897-3.708.964-6.474 3.34-7.206 6.036-1.756-.345-4.356-.349-8.193.303-26.44 4.5-659.267 2.187-665.556 2.173l-.003 2.248c5.097.006 32.949.03 74.544.03 167.974 0 570.049 1.4 591.392-2.233 4.003-.689 6.362-.55 7.673-.244.174 1.634.86 2.247 1.455 2.462.626.225 1.334.04 1.786-.493.535-.638.588-1.564.128-2.368-.218-.383-.565-.765-1.1-1.1.407-1.977 2.66-3.862 5.646-4.64 3.957-1.023 9.353-.04 12.632 5.824 2.148 3.825 6.724 3.626 20.344 3.043 8.962-.39 22.039-.955 41.206-.75v-2.248"/>
    </g>
</svg>
