<svg xmlns="http://www.w3.org/2000/svg" xmlns:xlink="http://www.w3.org/1999/xlink" width="660" height="525" viewBox="0 0 660 525">
    <defs>
        <path id="a" d="M121.076 28.112c1.561-11.352-7.253-26.24-22.371-27.523-28.534-2.776-20.261 19.284-33.98 19.602-12.524-.247-3.187-19.086-31.685-9.647-6.823 2.11-10.28 10.044-15.102 19.848C8.174 19.216 2.188 26.493.393 37.417a485.973 485.973 0 0 0 142.408 0c1.871-11.887-16.847-16.542-21.725-9.305z"/>
        <path id="b" d="M.196 4.774C-.024 3.063-.038 1.558.214.666h.064S.25.743.218.858C.08 1.324.167 4.035.196 4.774"/>
        <path id="d" d="M5.562 6.967L.418.554c.478.58 1.39 1.625 2.035 1.987l.035.02c.013.122.025.19.034.194.049.002.302.067.685.16 1.186.51 2.117.546 2.356.546h.008c-.202.728-.19 1.957-.014 3.354l.005.152"/>
        <path id="f" d="M1.009.749C.529.629.214.545.152.542.141.538.126.45.11.292c.308.178.61.329.899.457"/>
        <path id="h" d="M.523.712C.275.402.12.196.12.196l.403.516"/>
        <path id="j" d="M6.804.32C7.322-.107.472 9.726.472 9.726s.5-4.834-.326-6.204C.07 3.397 2.762 3.65 6.804.32z"/>
        <path id="l" d="M8.35.408C8.956-.133.946 12.33.946 12.33s.53-8.165-.486-7.882c-.32.092 3.167.177 7.89-4.039z"/>
    </defs>
    <g fill="none" fill-rule="evenodd">
        <path fill="#14236C" d="M572 455h-2.034L551 301h2.028L572 455M506 455h-2.03L485 301h2.03L506 455"/>
        <path fill="#14236C" d="M480 396h107V254H480z"/>
        <path fill="#FD3A28" d="M500.023 453H498l43.979-116H544l-43.977 116M435.024 453H433l43.977-116H479l-43.976 116"/>
        <path fill="#E4E4E3" d="M541.514 395H437l37.483-125H579l-37.486 125"/>
        <path fill="#F2F1F0" d="M545.515 380H441l37.481-125H583l-37.485 125"/>
        <path fill="#334188" d="M485 258h92v-6h-92z"/>
        <path fill="#185C5A" d="M353 148v-21l-216 2.064 26.473 13.709C194.564 142.773 353 148 353 148"/>
        <use fill="#4A51B6" transform="translate(517 166)" xlink:href="#a"/>
        <path fill="#14236C" d="M309.698 2.177c-4.95-.545-9.938-.86-14.824-.937l.02-1.24c4.924.078 9.952.395 14.941.944l-.137 1.233zM265.34 3.79l-.24-1.217A137.14 137.14 0 0 1 279.93.506l.105 1.235A135.766 135.766 0 0 0 265.34 3.79zm73.466 4.253a170.031 170.031 0 0 0-14.422-3.578l.245-1.215c4.87.983 9.757 2.195 14.53 3.604l-.353 1.19zm-101.577 4.991l-.542-1.117a111.85 111.85 0 0 1 13.906-5.582l.386 1.18a110.466 110.466 0 0 0-13.75 5.52zm129.18 5.9c-4.37-2.2-8.93-4.24-13.555-6.062l.457-1.153a165.21 165.21 0 0 1 13.657 6.107l-.56 1.108zM212.893 29.679l-.853-.9a94.946 94.946 0 0 1 11.674-9.378l.7 1.024a93.65 93.65 0 0 0-11.521 9.254zm178.563 5.075a144.001 144.001 0 0 0-12.124-8.53l.662-1.049a145.288 145.288 0 0 1 12.23 8.604l-.768.975zm-196.444 18.31l-1.096-.587a95.256 95.256 0 0 1 8.105-12.575l.99.752a93.868 93.868 0 0 0-7.999 12.41zm217.468 2.49c-3.001-3.798-6.328-7.506-9.889-11.017l.873-.882a120.771 120.771 0 0 1 9.99 11.133l-.974.767zm-227.621 25.19l-1.213-.27a116.203 116.203 0 0 1 4.169-14.348l1.168.424a115.212 115.212 0 0 0-4.124 14.194zm242.517.244a100.808 100.808 0 0 0-6.54-13.243l1.071-.626a101.836 101.836 0 0 1 6.622 13.406l-1.153.463zM182.238 97.615L181 97.501c.071-.767.147-1.53.23-2.29l1.236.133c-.082.753-.159 1.51-.228 2.271zm251.852 12.031a95.805 95.805 0 0 0-2.246-14.583l1.212-.282a97.34 97.34 0 0 1 2.273 14.772l-1.24.093zm-.808 29.66l-1.219-.251a111.016 111.016 0 0 0 2.052-14.643l1.24.087a112.478 112.478 0 0 1-2.073 14.807zm77.822 14.83a107.16 107.16 0 0 0-14.34-.971h-.435l-.004-1.24h.439c4.812 0 9.692.33 14.508.983l-.168 1.229zm-44.012 3.306l-.35-1.191a108.02 108.02 0 0 1 14.637-3.205l.182 1.226a106.655 106.655 0 0 0-14.47 3.17zm72.535 4.473a118.308 118.308 0 0 0-14.008-4.813l.331-1.195a120.07 120.07 0 0 1 14.156 4.863l-.48 1.145zm-115.751 5.71l-1.131-.51a145.82 145.82 0 0 0 5.438-13.78l1.177.395a146.31 146.31 0 0 1-5.484 13.896zm16.168 1.763l-.641-1.062c4.337-2.6 8.804-4.923 13.28-6.911l.506 1.135a121.643 121.643 0 0 0-13.145 6.838zm125.384 7.01a130.196 130.196 0 0 0-12.478-7.995l.608-1.08a131.252 131.252 0 0 1 12.6 8.071l-.73 1.005zM416.42 187.25l-.844-.909a155.092 155.092 0 0 1 11.445-9.62l.752.987a153.46 153.46 0 0 0-11.353 9.542zm-7.158 6.393l-1.034-.688c2.81-4.202 5.43-8.45 7.788-12.629l1.082.609a199.087 199.087 0 0 1-7.836 12.708zm178.027 2.694a130.539 130.539 0 0 0-10.37-10.59l.84-.915a132.063 132.063 0 0 1 10.468 10.692l-.938.813zm16.56 24.481c-2.154-4.308-4.682-8.6-7.5-12.759l1.027-.695c2.852 4.204 5.406 8.544 7.578 12.9l-1.105.554zm8.767 28.072c-.569-4.71-1.642-9.553-3.18-14.395l1.182-.374c1.565 4.914 2.651 9.833 3.233 14.62l-1.235.149zm-2.179 29.403l-1.157-.454c1.772-4.484 2.948-9.277 3.485-14.25l1.235.134c-.55 5.083-1.752 9.985-3.563 14.57zM592.456 302l-.776-.972c3.976-3.15 7.461-6.66 10.358-10.436l.99.754c-2.962 3.856-6.518 7.44-10.572 10.654zM133.509 70.67c-4.74-.942-9.709-1.424-14.775-1.434l.003-1.236c5.147.01 10.2.501 15.018 1.46l-.246 1.21zM89.51 74.148l-.403-1.169a96.33 96.33 0 0 1 14.604-3.7l.214 1.217a94.998 94.998 0 0 0-14.415 3.652zm70.763 8.572a60.264 60.264 0 0 0-12.646-7.6l.514-1.126a61.461 61.461 0 0 1 12.908 7.76l-.776.966zm-97.02 5.098l-.75-.988a94.969 94.969 0 0 1 12.755-7.956l.581 1.093a93.547 93.547 0 0 0-12.586 7.851zM43.11 109.242l-1.062-.652c2.597-4.136 5.693-8.112 9.205-11.821l.913.844c-3.456 3.648-6.503 7.56-9.056 11.63zm-9.538 27.507l-1.243-.117a62.329 62.329 0 0 1 3.209-14.58l1.181.404a61.108 61.108 0 0 0-3.147 14.293zm2.705 29.29c-1.728-4.823-2.943-9.696-3.609-14.485l1.237-.168c.655 4.705 1.85 9.495 3.55 14.241l-1.178.411zm14.455 26.047c-3.107-4.123-5.87-8.323-8.21-12.483l1.092-.6c2.312 4.111 5.044 8.266 8.12 12.344l-1.002.739zm20.324 21.889a178.2 178.2 0 0 1-10.683-10.465l.918-.838a176.836 176.836 0 0 0 10.606 10.39l-.841.913zm18.233 13.229l-2.364-.324a106.071 106.071 0 0 0-9.682-.883l.055-1.234c2.442.106 4.955.309 7.495.602-.771-.59-1.532-1.18-2.284-1.77l.776-.967a243.008 243.008 0 0 0 4.103 3.15l1.9 1.426zm-41.291 2.799l-.425-1.162c4.599-1.64 9.531-2.812 14.664-3.481l.163 1.225c-5.043.657-9.89 1.807-14.402 3.418zm-24.436 16.1l-.92-.836a63.203 63.203 0 0 1 11.452-9.72l.693 1.029a61.884 61.884 0 0 0-11.225 9.527zM8.405 271.18l-1.17-.433c1.82-4.806 3.993-9.338 6.457-13.472l1.076.627c-2.426 4.071-4.568 8.54-6.363 13.278zm-6.482 28.694l-1.244-.12c.499-5.061 1.28-10.01 2.322-14.71l1.22.264a123.443 123.443 0 0 0-2.298 14.566zM.76 329.481a163.751 163.751 0 0 1-.76-14.86l1.25-.005a162.5 162.5 0 0 0 .753 14.749l-1.243.116zm5.288 29.262A190.16 190.16 0 0 1 2.81 344.22l1.23-.22c.87 4.797 1.952 9.651 3.217 14.433l-1.21.311zm9.786 28.105a195.57 195.57 0 0 1-5.429-13.87l1.18-.4a195.403 195.403 0 0 0 5.396 13.783l-1.147.487zm13.984 26.305a188.255 188.255 0 0 1-7.51-12.883l1.106-.575c2.321 4.37 4.83 8.676 7.46 12.8l-1.056.658zm18.093 23.73a171.309 171.309 0 0 1-9.557-11.485l.997-.743a170.497 170.497 0 0 0 9.488 11.402l-.928.826zm22.103 20.128a152.557 152.557 0 0 1-11.538-9.54l.846-.908a151.656 151.656 0 0 0 11.445 9.464l-.753.984zm25.732 15.326a140.895 140.895 0 0 1-13.28-6.988l.646-1.06a138.818 138.818 0 0 0 13.16 6.926l-.526 1.122zm28.463 9.464a138.47 138.47 0 0 1-14.495-3.954l.397-1.171a136.759 136.759 0 0 0 14.364 3.916l-.266 1.209zm44.884 2.559l-.11-1.23a173.182 173.182 0 0 0 14.797-1.976l.22 1.216a175.438 175.438 0 0 1-14.907 1.99zm-15.03.64c-5.047-.026-10.099-.303-15.013-.826l.133-1.228c4.873.517 9.882.792 14.887.82l-.007 1.234z"/>
        <path fill="#F7D0C2" d="M434.106 414.897c.238-3.897.944-7.575 2.11-10.702 0 0-.9-14.989.819-18.815 3.169-7.09 9.902-5.132 9.902-5.132.585.332-3.108 31.657-3.26 32.521-2.063 11.612-2.83 14.136-2.672 26.193.052 4.212-1.181 10.307 2.025 15.038l-7.356-5.592c-.66-1.72-1.728-3.604-.886-4.588 2.257-2.65 2.844-3.605 2.101-7.516-.714-3.806-3.459-10.233-2.783-21.407"/>
        <path fill="#0E1220" d="M434.213 453.724c1.791.436 1.575-1.8 1.915-3.3 1.262.56 1.809 2.385 3.31 3.522.863.632 5.485 1.89 6.562.23-3.175-1.077-3.8-1.067-4.275-1.53-3.315-2.134-4.27-5.679-6.361-8.646-5.076 1.486-.26 5.86-1.151 9.724"/>
        <path fill="#F7D0C2" d="M455.47 438.136c.582 3.914-.434 11.855 3.53 15.643-.31-.138-1.611.332-1.926.196l-5.71-5.455c-.895-1.571-2.23-3.22-1.509-4.352 1.92-3.067 2.382-4.129 1.114-7.843-1.23-3.608-4.86-9.4-5.675-20.566-.28-3.895-.058-7.663.696-10.985 0 0-2.91-14.611-1.692-18.728 2.248-7.626 9.291-7.035 9.291-7.035.638.21 1.107 31.855 1.067 32.741-.521 11.87-.958 14.515.814 26.384"/>
        <path fill="#0E1220" d="M448.212 452.721c1.792.437 1.575-1.799 1.915-3.297 1.265.56 1.811 2.382 3.31 3.52.864.636 5.486 1.892 6.563.23-3.174-1.075-3.802-1.063-4.274-1.525-3.317-2.137-4.273-5.682-6.359-8.649-5.08 1.486-.265 5.858-1.155 9.721"/>
        <path fill="#0A0B09" d="M435.351 260.26c-.533 5.308.057 5.264-3.638 8.68-.48 2.557 2.079 4.71 2.012 5.117-4.08-2.183-5.475-4.225-6.197-4.992-1.923-2.794-6.448-7.772-.752-13.206 2.863-2.73 5.038-2.688 7.83-2.647 1.187.018 2.487.035 3.998-.16 5.187-.667 8.165 5.159 8.926 8.999.748 3.821 1.013 10.91-2.43 15.216.34-.675.46-2.948.984-3.99-1.825 1.567-2.694 3.39-4.246 4.723-.266-.241 3.87-7.024 1.256-9.434-1.548-2.486-2.384-3.047-4.801-5.681.184 1.063.283 1.601.448 2.557-1.157-1.766-2.08-3.178-3.39-5.182"/>
        <path fill="#F7D0C2" d="M433.58 275.077c.127-2.362-3.435-7.754-3.534-8.5-.216-1.534 5.535-12.444 7.462-12.562 1.313-.077 5.902-.562 6.076 20.987-.497.073-1.025.01-1.598-.296-1.924-1.068-1.252 6.371.523 10.899 1.186 3.07 4.35 1.002 6.491 2.82-.835 4.87-6.859 8.87-7.685 13.728-3.095 1.584-1.428 2.434-2.66 1.382-.563-2.487-10.238-9.18-10.655-11.657 8.901-6.837 5.51-17.255 5.58-16.8"/>
        <path fill="#FC544E" d="M459 313.83a208.657 208.657 0 0 0-4.523 4.17c-2.817-3.399-4.738-8.418-6.742-10.362-14.565-14.136-4.329-11.285-3.052-21.638 0 0 4.869.565 6.24 1.618 3.767 2.9 4.013 10.494 7.055 16.24.002.012.826 2.621.608.888l.414 9.083"/>
        <path fill="#F7D0C2" d="M483.458 295.804c1.515-2.048 3.532-5.61 4.45-6.786 1.201-1.531 2.182-1.262 2.182-1.262.294.474-.59 1.215-.601 1.772-.002 1.333 2.375.03 2.806-.342 1.044-.901 2.13-1.784 2.808-2.094.692-.317.416.284 1.003.335.528.042 1.208.164 1.341.802.032.122.244.302.458.408 1.33.637-11.767 6.562-13.166 7.935-.253.235-1.398 1.207-1.625 1.428-.501-.723.843-1.483.344-2.196"/>
        <path fill="#F7D0C2" d="M490.651 295.347c-7.042 3.158-15.909 16.975-22.377 20.988-3.366 2.084-9.097-.804-1.571-7.633 0 0 14.757-9.65 21.834-15.442 1.333-1.09 3.259 1.57 2.114 2.087"/>
        <path fill="#FC544E" d="M444.155 286.172c4.791 5.662 8.997 14.652 18.92 21.608 1.856 3.18.6 7.274-.978 8.226-7.302 4.418-13.14-7.177-17.243-9.706-17.095-10.534-.812-10.058-1.775-20.3l1.076.172"/>
        <path fill="#F7D0C2" d="M444.06 265.006c-.418-1-2.036-7.784-3.344-8.006-4.453.042-3.412 1.268-3.69 5.242-.14 2.088.314 12.722.43 12.764.257.015 6.028 1.858 7.211.488.157-.182-.576-2.93-.083-3.253.48-.325.448-.66.253-1.077-.18-.427-.252-.297.115-.591.36-.274.268-.737-.19-.884-.716-.222.442-1.052 1.083-1.81.64-.751-.845-.628-1.786-2.873"/>
        <path fill="#333" d="M442.934 265.066c.076-.12-1.521-.102-2.934.281 0 0 3.198.122 2.99-.043-.156-.11-.248-.092-.056-.238"/>
        <g transform="translate(441 275)">
            <mask id="c" fill="#fff">
                <use xlink:href="#b"/>
            </mask>
            <path fill="#DDA28B" d="M-.803.795l.752 4.034.046-.008L-.756.787" mask="url(#c)"/>
            <path fill="#DDA18B" d="M-.757.787l.753 4.034.047-.007L-.71.779" mask="url(#c)"/>
            <path fill="#DEA28C" d="M-.71.78l.753 4.034.209-.036L-.501.744" mask="url(#c)"/>
            <path fill="#DEA18B" d="M-.501.744l.753 4.034.046-.008L-.454.736" mask="url(#c)"/>
            <path fill="#DDA08B" d="M-.455.736L.3 4.77l.023-.004L-.431.732" mask="url(#c)"/>
            <path fill="#DDA08B" d="M-.431.732l.753 4.034.28-.047L-.151.685" mask="url(#c)"/>
            <path fill="#DD9F8B" d="M-.151.685L.6 4.719l.047-.008L-.105.677M-.105.677l.753 4.034.21-.036L.105.641M.105.641l.753 4.034.046-.008L.151.634" mask="url(#c)"/>
            <path fill="#DD9E8B" d="M.151.634l.754 4.033.116-.02L.268.615" mask="url(#c)"/>
        </g>
        <g transform="translate(435 272)">
            <mask id="e" fill="#fff">
                <use xlink:href="#d"/>
            </mask>
            <path fill="#D88A6E" d="M-.718.75L.576 7.83l3.206-.554L2.488.196" mask="url(#e)"/>
            <path fill="#D7896D" d="M2.488.196l1.294 7.08.26-.045L2.75.151" mask="url(#e)"/>
            <path fill="#D7896D" d="M2.749.151l1.294 7.08.018-.003L2.767.147" mask="url(#e)"/>
            <path fill="#D7886D" d="M2.767.148l1.294 7.08.038-.007L2.804.141" mask="url(#e)"/>
            <path fill="#D8886D" d="M2.804.141L4.1 7.221l.168-.03L2.972.113" mask="url(#e)"/>
            <path fill="#D8876D" d="M2.972.112l1.295 7.08.018-.003L2.991.109" mask="url(#e)"/>
            <path fill="#D8876D" d="M2.991.11l1.294 7.079.019-.003L3.01.106" mask="url(#e)"/>
            <path fill="#D8876D" d="M3.01.106l1.294 7.08.186-.033L3.196.073" mask="url(#e)"/>
            <path fill="#D8866D" d="M3.196.073l1.294 7.08.485-.083L3.68-.01" mask="url(#e)"/>
            <path fill="#D8866D" d="M3.68-.01l1.295 7.08.018-.004L3.7-.014" mask="url(#e)"/>
            <path fill="#D8856D" d="M3.699-.013l1.294 7.08.019-.003-1.294-7.08" mask="url(#e)"/>
            <path fill="#D8856D" d="M3.718-.016l1.294 7.08.186-.033L3.904-.05" mask="url(#e)"/>
            <path fill="#D8846D" d="M3.904-.049l1.294 7.08.224-.039-1.295-7.08" mask="url(#e)"/>
            <path fill="#D7846D" d="M4.127-.087l1.295 7.08.019-.004L4.146-.09" mask="url(#e)"/>
            <path fill="#D7836D" d="M4.146-.09l1.295 7.08.018-.004-1.294-7.08M4.165-.094l1.294 7.08.168-.03-1.294-7.08" mask="url(#e)"/>
            <path fill="#D7826D" d="M4.333-.123l1.294 7.08.056-.01-1.295-7.08" mask="url(#e)"/>
            <path fill="#D7826D" d="M4.388-.132l1.295 7.08.223-.039-1.294-7.08" mask="url(#e)"/>
            <path fill="#D7826D" d="M4.612-.17l1.294 7.079.019-.003-1.294-7.08" mask="url(#e)"/>
            <path fill="#D7816D" d="M4.63-.174l1.295 7.08.782-.136L5.413-.31" mask="url(#e)"/>
        </g>
        <g transform="translate(437 273)">
            <mask id="g" fill="#fff">
                <use xlink:href="#f"/>
            </mask>
            <path fill="#D88A6E" d="M-.019.314l.107.598L.74.796.634.2" mask="url(#g)"/>
            <path fill="#D7896D" d="M.634.199L.74.797l.326-.059L.959.141M.96.141l.106.597.023-.004L.983.136" mask="url(#g)"/>
            <path fill="#D7886D" d="M.983.137l.106.597.046-.008L1.03.128" mask="url(#g)"/>
        </g>
        <g transform="translate(435 272)">
            <mask id="i" fill="#fff">
                <use xlink:href="#h"/>
            </mask>
            <path fill="#D88A6E" d="M.03.211l.102.57L.64.69.54.12" mask="url(#i)"/>
        </g>
        <path fill="#0A0B09" d="M429.048 265.808c.948 7.796 8.745 12.192 8.745 12.192-1.24-5.806-1.037-7.216-1.505-6.636-.961 1.2-1.545-.473-1.677-1.828-.706-7.33 2.164-1.972 2.164-1.972-.31-1.788 2.064-6.468 2.986-8.375.9-1.897 2.239-2.59 2.239-2.59-1.219-2.088-8.316-4.91-10.702.646-1.369 3.186-2.555 6.051-2.25 8.563z"/>
        <path fill="#FC544E" d="M429.395 325.235c-.07-.634-3.786-13.183-4.664-15.527-4.076-11.136-5.36-10.571-4.457-16.545.698-4.598 5.689-7.322 8.022-7.156 4.073.344 20.489 7.156 23.24 9.184.166.122 1.898 1.584 2.181 2.56.487 1.677.874 2.96 1.196 4.89.048.293.17 3.418 0 3.657-.01 16.4.102 7.68 0 12.474-.157 17.907-1.62 74.132-5.262 89.228-5.409-2.005-8.631-3.481-14.972-4.737-2.673-30.951-5.237-48.309-6.033-56.291-.539-6.529 3.008-7.37.749-21.737z"/>
        <path fill="#F7D0C2" d="M447.082 336.589c1.894 1.767 5.215 4.155 6.3 5.227 1.417 1.399 1.116 2.474 1.116 2.474-.464.3-1.136-.711-1.667-.744-1.274-.062-.13 2.628.206 3.118.82 1.2 1.618 2.435 1.887 3.203.277.784-.29.45-.36 1.094-.062.587-.21 1.334-.823 1.453-.117.033-.3.254-.408.487-.666 1.443-5.787-13.315-7.036-14.928-.217-.288-1.097-1.6-1.297-1.862.71-.523 1.38.999 2.082.478"/>
        <path fill="#F7D0C2" d="M451.487 344.62c-3.005-7.269-14.187-12.716-18.11-19.441-1.015-1.745.19-1.342 1.59-2.216 1.415-.885 3.486-4.426 6.46.95 0 0 6.575 11.238 12.331 18.653 1.081 1.396-1.782 3.24-2.271 2.055"/>
        <path fill="#333" d="M438 320l-.047-.12.047.12m-.047-.12c-2.46-6.188-5.037-9.152-4.89-14.039A73.274 73.274 0 0 1 433 305c.174.008.35.02.526.03.014.279.028.558.04.84-.256 4.933 1.98 7.949 4.387 14.01M455.82 320c-.277-3.694-.452-6.8-.304-9.574.299-5.738.517-9.881-3.516-14.128l.225-.298c4.158 4.37 3.935 8.6 3.627 14.455-.141 2.755-.308 5.88-.031 9.545"/>
        <path fill="#187070" d="M166 464l-2.608-321.962L137.467 129 137 448.377c0 1.096 29 15.623 29 15.623"/>
        <path fill="#59BCB5" d="M190.07 142H164s.008 320.019.02 321H362V142H190.07"/>
        <path fill="#FFFFFE" d="M173.423 162.066c1.902-.2 3.469.071 3.487.607l.09 2.922c.016.536-1.524 1.139-3.424 1.34-1.9.198-3.469-.075-3.485-.61l-.09-2.92c-.018-.535 1.523-1.138 3.422-1.339"/>
        <path fill="#2489A6" d="M178 162.288c-.875 5.32-3.571 7.967-8.742 8.578-4.772.566-11.625-.657-20.953-3.74-4.877-1.612-8.63-3.682-10.855-5.984-3.28-3.397-3.267-7.247.042-11.142l.436.178c-3.264 3.842-3.292 7.627-.083 10.952 2.154 2.229 5.801 4.232 10.543 5.803 9.19 3.038 15.925 4.244 20.587 3.692 5.06-.597 7.7-3.21 8.565-8.465l.46.128"/>
        <path fill="#14236C" d="M159.88 170.995zm-12.336-3.542c-4.134-1.522-7.381-3.412-9.423-5.483 2.164 2.194 5.664 4.178 10.128 5.737a37.79 37.79 0 0 1-.705-.254zm25.208 3.08c2.623-1.326 4.136-3.79 4.76-7.619-.624 3.829-2.137 6.293-4.76 7.62zm5.248-7.7l-.016.108c-.87 5.528-3.565 8.279-8.734 8.92-4.774.588-11.61-.683-20.903-3.89-4.875-1.679-8.664-3.864-10.894-6.277-3.278-3.545-3.27-7.559.022-11.607l.071-.087.867.364-.073.088c-3.206 3.942-3.242 7.82-.103 11.213 2.086 2.257 5.648 4.306 10.27 5.904 9.024 3.116 15.626 4.356 20.183 3.792 4.948-.612 7.534-3.292 8.384-8.69l.017-.107.909.27z"/>
        <path fill="#FFFFFE" d="M173.423 186.067c1.901-.203 3.468.073 3.486.608l.09 2.921c.016.536-1.522 1.137-3.424 1.339-1.9.2-3.466-.075-3.484-.61l-.09-2.921c-.017-.536 1.523-1.135 3.422-1.337"/>
        <path fill="#2489A6" d="M178 188.288c-.875 5.318-3.571 7.967-8.742 8.578-4.772.565-11.625-.657-20.953-3.741-4.877-1.612-8.63-3.682-10.855-5.984-3.28-3.396-3.267-7.248.042-11.141l.436.177c-3.264 3.842-3.292 7.628-.083 10.952 2.154 2.229 5.801 4.232 10.543 5.803 9.19 3.037 15.925 4.245 20.587 3.692 5.06-.598 7.7-3.21 8.565-8.464l.46.128"/>
        <path fill="#14236C" d="M159.88 196.994zm-12.336-3.54c-4.134-1.524-7.381-3.413-9.423-5.485 2.164 2.194 5.664 4.179 10.128 5.74-.238-.086-.472-.169-.705-.256zm25.208 3.08c2.623-1.327 4.136-3.792 4.76-7.62-.624 3.828-2.137 6.293-4.76 7.62zm5.248-7.702l-.016.11c-.87 5.526-3.565 8.277-8.734 8.918-4.774.59-11.61-.683-20.903-3.889-4.875-1.68-8.664-3.865-10.894-6.276-3.278-3.546-3.27-7.56.022-11.607l.071-.088.867.364-.073.087c-3.206 3.942-3.242 7.82-.103 11.215 2.086 2.255 5.648 4.305 10.27 5.903 9.024 3.117 15.626 4.356 20.183 3.792 4.948-.613 7.534-3.293 8.384-8.69l.017-.107.909.268z"/>
        <path fill="#FFFFFE" d="M172.423 211.067c1.9-.203 3.468.073 3.486.608l.09 2.92c.017.536-1.524 1.138-3.424 1.34-1.9.199-3.468-.074-3.484-.608l-.09-2.922c-.019-.534 1.522-1.138 3.422-1.338"/>
        <path fill="#2489A6" d="M178 212.288c-.875 5.319-3.571 7.967-8.742 8.578-4.772.566-11.625-.657-20.953-3.74-4.877-1.612-8.63-3.682-10.855-5.984-3.28-3.397-3.267-7.248.042-11.142l.436.177c-3.264 3.842-3.292 7.628-.083 10.951 2.154 2.231 5.801 4.235 10.543 5.805 9.19 3.037 15.925 4.244 20.587 3.692 5.06-.598 7.7-3.212 8.565-8.465l.46.128"/>
        <path fill="#14236C" d="M159.88 220.995zm-12.336-3.541c-4.134-1.523-7.381-3.412-9.423-5.483 2.164 2.194 5.664 4.178 10.128 5.737a50.559 50.559 0 0 1-.705-.254zm25.208 3.08c2.623-1.327 4.136-3.79 4.76-7.62-.624 3.83-2.137 6.293-4.76 7.62zm5.248-7.7l-.016.107c-.87 5.529-3.565 8.28-8.734 8.92-4.774.589-11.61-.684-20.903-3.889-4.875-1.68-8.664-3.864-10.894-6.277-3.278-3.545-3.27-7.559.022-11.607l.071-.088.867.365-.073.087c-3.206 3.942-3.242 7.82-.103 11.214 2.086 2.256 5.648 4.306 10.27 5.903 9.024 3.117 15.626 4.356 20.183 3.792 4.948-.612 7.534-3.293 8.384-8.688l.017-.109.909.27z"/>
        <path fill="#FFFFFE" d="M173.423 234.066c1.902-.2 3.469.072 3.487.607l.09 2.921c.016.537-1.524 1.14-3.424 1.342-1.9.197-3.469-.076-3.485-.61l-.09-2.921c-.018-.535 1.523-1.139 3.422-1.34"/>
        <path fill="#2489A6" d="M178 236.288c-.875 5.32-3.571 7.968-8.742 8.578-4.772.566-11.625-.657-20.953-3.74-4.877-1.612-8.63-3.683-10.855-5.985-3.28-3.395-3.267-7.247.042-11.141l.436.177c-3.264 3.842-3.292 7.628-.083 10.953 2.154 2.229 5.801 4.233 10.543 5.803 9.19 3.038 15.925 4.245 20.587 3.692 5.06-.597 7.7-3.21 8.565-8.464l.46.127"/>
        <path fill="#14236C" d="M159.88 244.995zm-12.336-3.541c-4.134-1.524-7.381-3.414-9.423-5.485 2.164 2.194 5.664 4.18 10.128 5.74a50.572 50.572 0 0 1-.705-.255zm25.208 3.08c2.623-1.327 4.136-3.792 4.76-7.62-.624 3.828-2.137 6.293-4.76 7.62zm5.248-7.702l-.016.108c-.87 5.528-3.565 8.28-8.734 8.92-4.774.589-11.61-.683-20.903-3.888-4.875-1.68-8.664-3.865-10.894-6.278-3.278-3.545-3.27-7.56.022-11.608l.071-.086.867.363-.073.087c-3.206 3.943-3.242 7.821-.103 11.215 2.086 2.256 5.648 4.306 10.27 5.904 9.024 3.116 15.626 4.356 20.183 3.792 4.948-.613 7.534-3.292 8.384-8.69l.017-.108.909.27z"/>
        <path fill="#FFFFFE" d="M173.423 259.066c1.901-.202 3.468.074 3.486.609l.09 2.921c.016.536-1.522 1.138-3.424 1.338-1.9.2-3.466-.073-3.484-.608l-.09-2.921c-.017-.536 1.523-1.136 3.422-1.339"/>
        <path fill="#14236C" d="M178 262.288c-.875 5.319-3.571 7.967-8.742 8.578-4.772.565-11.625-.657-20.953-3.74-4.877-1.613-8.63-3.683-10.855-5.985-3.28-3.396-3.267-7.247.042-11.141l.436.177c-3.264 3.842-3.292 7.628-.083 10.952 2.154 2.229 5.801 4.233 10.543 5.803 9.19 3.038 15.925 4.245 20.587 3.692 5.06-.598 7.7-3.21 8.565-8.464l.46.128"/>
        <path fill="#2489A6" d="M159.88 268.995zm-12.336-3.541c-4.134-1.524-7.381-3.413-9.423-5.485 2.164 2.196 5.664 4.179 10.128 5.739a50.559 50.559 0 0 1-.705-.254zm25.208 3.08c2.623-1.327 4.136-3.791 4.76-7.62-.624 3.829-2.137 6.293-4.76 7.62zm5.248-7.701l-.016.109c-.87 5.526-3.565 8.278-8.734 8.919-4.774.588-11.61-.684-20.903-3.89-4.875-1.68-8.664-3.864-10.894-6.276-3.278-3.546-3.27-7.56.022-11.607l.071-.088.867.365-.073.086c-3.206 3.943-3.242 7.82-.103 11.215 2.086 2.255 5.648 4.305 10.27 5.903 9.024 3.116 15.626 4.356 20.183 3.791 4.948-.612 7.534-3.291 8.384-8.688l.017-.108.909.269z"/>
        <path fill="#FFFFFE" d="M172.423 283.067c1.9-.203 3.468.071 3.486.607l.09 2.92c.017.537-1.524 1.138-3.424 1.34-1.9.2-3.468-.074-3.484-.607l-.09-2.922c-.019-.536 1.522-1.139 3.422-1.338"/>
        <path fill="#2489A6" d="M178 284.288c-.875 5.32-3.571 7.967-8.742 8.578-4.772.565-11.625-.657-20.953-3.74-4.877-1.612-8.63-3.684-10.855-5.985-3.28-3.396-3.267-7.248.042-11.141l.436.177c-3.264 3.843-3.292 7.627-.083 10.953 2.154 2.228 5.801 4.231 10.543 5.802 9.19 3.037 15.925 4.245 20.587 3.692 5.06-.598 7.7-3.21 8.565-8.464l.46.128"/>
        <path fill="#14236C" d="M159.88 292.995zm-12.336-3.54c-4.134-1.525-7.381-3.414-9.423-5.486 2.164 2.195 5.664 4.179 10.128 5.74l-.705-.254zm25.208 3.079c2.623-1.327 4.136-3.791 4.76-7.62-.624 3.829-2.137 6.293-4.76 7.62zm5.248-7.702l-.016.109c-.87 5.528-3.565 8.28-8.734 8.92-4.774.588-11.61-.684-20.903-3.89-4.875-1.679-8.664-3.864-10.894-6.277-3.278-3.546-3.27-7.56.022-11.607l.071-.087.867.363-.073.088c-3.206 3.942-3.242 7.82-.103 11.215 2.086 2.255 5.648 4.304 10.27 5.902 9.024 3.117 15.626 4.357 20.183 3.792 4.948-.612 7.534-3.291 8.384-8.69l.017-.106.909.268z"/>
        <path fill="#FFFFFE" d="M173.423 307.067c1.902-.202 3.469.07 3.487.605l.09 2.923c.016.535-1.524 1.139-3.424 1.34-1.9.199-3.469-.073-3.485-.608l-.09-2.922c-.018-.537 1.523-1.14 3.422-1.338"/>
        <path fill="#2489A6" d="M178 309.288c-.875 5.317-3.571 7.967-8.742 8.577-4.772.568-11.625-.657-20.953-3.74-4.877-1.611-8.63-3.683-10.855-5.983-3.28-3.398-3.267-7.249.042-11.142l.436.177c-3.264 3.842-3.292 7.628-.083 10.953 2.154 2.227 5.801 4.23 10.543 5.803 9.19 3.036 15.925 4.244 20.587 3.691 5.06-.597 7.7-3.211 8.565-8.463l.46.127"/>
        <path fill="#14236C" d="M159.88 317.994zm-12.336-3.54c-4.134-1.524-7.381-3.414-9.423-5.484 2.164 2.194 5.664 4.177 10.128 5.737-.238-.084-.472-.168-.705-.253zm25.208 3.08c2.623-1.327 4.136-3.791 4.76-7.622-.624 3.83-2.137 6.295-4.76 7.622zm5.248-7.701l-.016.107c-.87 5.53-3.565 8.28-8.734 8.92-4.774.59-11.61-.683-20.903-3.89-4.875-1.678-8.664-3.863-10.894-6.277-3.278-3.544-3.27-7.558.022-11.605l.071-.088.867.364-.073.087c-3.206 3.942-3.242 7.82-.103 11.214 2.086 2.255 5.648 4.304 10.27 5.904 9.024 3.116 15.626 4.356 20.183 3.79 4.948-.61 7.534-3.292 8.384-8.69l.017-.105.909.269z"/>
        <path fill="#FFFFFE" d="M173.423 332.067c1.901-.203 3.468.07 3.486.608l.09 2.92c.016.536-1.522 1.138-3.424 1.34-1.9.2-3.466-.075-3.484-.609l-.09-2.922c-.017-.535 1.523-1.136 3.422-1.337"/>
        <path fill="#2489A6" d="M178 333.287c-.875 5.32-3.571 7.968-8.742 8.58-4.772.564-11.625-.657-20.953-3.742-4.877-1.611-8.63-3.682-10.855-5.984-3.28-3.397-3.267-7.247.042-11.141l.436.177c-3.264 3.842-3.292 7.627-.083 10.952 2.154 2.23 5.801 4.233 10.543 5.802 9.19 3.04 15.925 4.246 20.587 3.694 5.06-.599 7.7-3.21 8.565-8.466l.46.128"/>
        <path fill="#14236C" d="M159.88 341.995zm-12.336-3.542c-4.134-1.524-7.381-3.412-9.423-5.485 2.164 2.196 5.664 4.18 10.128 5.74-.238-.085-.472-.168-.705-.255zm25.208 3.08c2.623-1.327 4.136-3.79 4.76-7.618-.624 3.828-2.137 6.291-4.76 7.618zm5.248-7.7l-.016.109c-.87 5.527-3.565 8.277-8.734 8.919-4.774.588-11.61-.684-20.903-3.889-4.875-1.68-8.664-3.866-10.894-6.278-3.278-3.546-3.27-7.559.022-11.606l.071-.088.867.365-.073.085c-3.206 3.941-3.242 7.82-.103 11.214 2.086 2.258 5.648 4.308 10.27 5.904 9.024 3.117 15.626 4.357 20.183 3.794 4.948-.614 7.534-3.293 8.384-8.69l.017-.106.909.266z"/>
        <path fill="#FFFFFE" d="M172.423 357.066c1.9-.2 3.468.073 3.486.608l.09 2.92c.017.537-1.524 1.138-3.424 1.341-1.9.199-3.468-.075-3.484-.608l-.09-2.922c-.019-.535 1.522-1.138 3.422-1.34"/>
        <path fill="#2489A6" d="M178 359.29c-.875 5.317-3.571 7.965-8.742 8.575-4.772.568-11.625-.656-20.953-3.739-4.877-1.613-8.63-3.683-10.855-5.983-3.28-3.397-3.267-7.249.042-11.143l.436.179c-3.264 3.84-3.292 7.628-.083 10.952 2.154 2.228 5.801 4.231 10.543 5.802 9.19 3.037 15.925 4.244 20.587 3.691 5.06-.595 7.7-3.21 8.565-8.463l.46.128"/>
        <path fill="#14236C" d="M159.88 367.995zm-12.336-3.541c-4.134-1.524-7.381-3.415-9.423-5.484 2.164 2.195 5.664 4.177 10.128 5.738-.238-.084-.472-.17-.705-.254zm25.208 3.08c2.623-1.326 4.136-3.79 4.76-7.621-.624 3.83-2.137 6.295-4.76 7.621zm5.248-7.702l-.016.108c-.87 5.528-3.565 8.28-8.734 8.92-4.774.59-11.61-.683-20.903-3.89-4.875-1.679-8.664-3.863-10.894-6.278-3.278-3.543-3.27-7.558.022-11.605l.071-.087.867.363-.073.087c-3.206 3.944-3.242 7.821-.103 11.215 2.086 2.256 5.648 4.305 10.27 5.904 9.024 3.117 15.626 4.356 20.183 3.79 4.948-.61 7.534-3.291 8.384-8.688l.017-.107.909.268z"/>
        <path fill="#FFFFFE" d="M173.423 380.066c1.902-.2 3.469.071 3.487.608l.09 2.92c.016.538-1.524 1.141-3.424 1.341-1.9.2-3.469-.076-3.485-.61l-.09-2.92c-.018-.535 1.523-1.138 3.422-1.339"/>
        <path fill="#2489A6" d="M178 380.287c-.875 5.321-3.571 7.97-8.742 8.58-4.772.564-11.625-.657-20.953-3.742-4.877-1.61-8.63-3.682-10.855-5.984-3.28-3.397-3.267-7.247.042-11.141l.436.176c-3.264 3.844-3.292 7.629-.083 10.953 2.154 2.23 5.801 4.235 10.543 5.802 9.19 3.04 15.925 4.247 20.587 3.694 5.06-.598 7.7-3.21 8.565-8.466l.46.128"/>
        <path fill="#14236C" d="M159.88 388.995zm-12.336-3.542c-4.134-1.523-7.381-3.41-9.423-5.483 2.164 2.194 5.664 4.18 10.128 5.738-.238-.084-.472-.167-.705-.255zm25.208 3.082c2.623-1.328 4.136-3.792 4.76-7.62-.624 3.828-2.137 6.292-4.76 7.62zm5.248-7.703l-.016.11c-.87 5.527-3.565 8.277-8.734 8.919-4.774.588-11.61-.684-20.903-3.889-4.875-1.68-8.664-3.865-10.894-6.277-3.278-3.547-3.27-7.56.022-11.607l.071-.088.867.365-.073.087c-3.206 3.941-3.242 7.819-.103 11.214 2.086 2.256 5.648 4.307 10.27 5.902 9.024 3.117 15.626 4.357 20.183 3.794 4.948-.614 7.534-3.293 8.384-8.688l.017-.109.909.267z"/>
        <path fill="#FFFFFE" d="M173.423 405.067c1.901-.203 3.468.07 3.486.608l.09 2.92c.016.537-1.522 1.138-3.424 1.339-1.9.202-3.466-.074-3.484-.608l-.09-2.922c-.017-.534 1.523-1.135 3.422-1.337"/>
        <path fill="#2489A6" d="M178 405.287c-.875 5.32-3.571 7.968-8.742 8.58-4.772.564-11.625-.657-20.953-3.742-4.877-1.61-8.63-3.682-10.855-5.985-3.28-3.396-3.267-7.246.042-11.14l.436.176c-3.264 3.844-3.292 7.628-.083 10.952 2.154 2.23 5.801 4.234 10.543 5.804 9.19 3.038 15.925 4.245 20.587 3.692 5.06-.598 7.7-3.21 8.565-8.465l.46.128"/>
        <path fill="#14236C" d="M159.88 413.995zm-12.336-3.54c-4.134-1.526-7.381-3.414-9.423-5.486 2.164 2.195 5.664 4.18 10.128 5.739-.238-.084-.472-.167-.705-.254zm25.208 3.079c2.623-1.328 4.136-3.791 4.76-7.619-.624 3.828-2.137 6.291-4.76 7.619zm5.248-7.701l-.016.11c-.87 5.526-3.565 8.277-8.734 8.918-4.774.588-11.61-.684-20.903-3.889-4.875-1.68-8.664-3.865-10.894-6.277-3.278-3.547-3.27-7.56.022-11.607l.071-.088.867.365-.073.086c-3.206 3.94-3.242 7.82-.103 11.214 2.086 2.257 5.648 4.307 10.27 5.903 9.024 3.118 15.626 4.358 20.183 3.794 4.948-.613 7.534-3.293 8.384-8.69l.017-.106.909.267z"/>
        <path fill="#FFFFFE" d="M172.423 429.066c1.9-.201 3.468.074 3.486.608l.09 2.921c.017.536-1.524 1.137-3.424 1.34-1.9.198-3.468-.075-3.484-.608l-.09-2.923c-.019-.534 1.522-1.138 3.422-1.338"/>
        <path fill="#2489A6" d="M178 430.29c-.875 5.317-3.571 7.964-8.742 8.575-4.772.568-11.625-.656-20.953-3.74-4.877-1.61-8.63-3.682-10.855-5.982-3.28-3.397-3.267-7.25.042-11.143l.436.178c-3.264 3.84-3.292 7.628-.083 10.951 2.154 2.23 5.801 4.233 10.543 5.804 9.19 3.037 15.925 4.244 20.587 3.691 5.06-.596 7.7-3.21 8.565-8.463l.46.128"/>
        <path fill="#14236C" d="M159.88 438.995zm-12.336-3.541c-4.134-1.524-7.381-3.414-9.423-5.483 2.164 2.194 5.664 4.176 10.128 5.737a76.33 76.33 0 0 1-.705-.254zm25.208 3.08c2.623-1.327 4.136-3.79 4.76-7.621-.624 3.83-2.137 6.294-4.76 7.621zm5.248-7.702l-.016.108c-.87 5.53-3.565 8.28-8.734 8.92-4.774.59-11.61-.682-20.903-3.89-4.875-1.679-8.664-3.862-10.894-6.276-3.278-3.544-3.27-7.56.022-11.606l.071-.088.867.364-.073.088c-3.206 3.942-3.242 7.82-.103 11.215 2.086 2.254 5.648 4.303 10.27 5.902 9.024 3.118 15.626 4.357 20.183 3.79 4.948-.61 7.534-3.291 8.384-8.688l.017-.107.909.268z"/>
        <path fill="#FFFFFE" d="M227.866 190.454c.297.005 0 .757 0 .757 13.354-5.4 105.408-8.975 108.34 11.238 4.728 32.616 9.505 55.344-15.406 65.132-16.01 6.293-51.202 4.626-73.858 2.527l-17.733-2.027a59.28 59.28 0 0 1-2.242-.36c-24.764-4.686-38.793-77.849.899-77.267l73.097 43.75"/>
        <text fill="#3F46AD" font-family="Noteworthy-Bold, Noteworthy" font-size="16" font-weight="bold">
            <tspan x="211.52" y="237">TESTIMONIALS</tspan>
        </text>
        <path fill="#FFFFFE" d="M336.397 363L364 356.302 345.124 307 331 310.429 336.397 363"/>
        <path fill="#14236C" d="M377.502 522L405 515.479 365.498 355 338 361.524 377.502 522"/>
        <path fill="#000661" fill-opacity=".123" d="M322 297s-51.425-11.18-51.425-62.004C270.575 184.173 322 169 322 169c-34.794 0-63 28.654-63 64 0 35.346 28.206 64 63 64z"/>
        <path fill="#FFC80A" d="M262.062 236.305c-.713-33.658 25.984-61.516 59.637-62.24 33.654-.72 61.517 25.986 62.236 59.636.717 33.648-25.978 61.514-59.632 62.232-33.655.717-61.52-25.977-62.241-59.628m21.734 61.443c34.659 21.656 80.3 11.112 101.954-23.548 21.651-34.65 11.111-80.301-23.546-101.956-34.655-21.645-80.305-11.099-101.952 23.552-21.657 34.66-11.108 80.304 23.544 101.952"/>
        <path fill="#DE982F" d="M324.461 302c-11.855 0-23.852-3.254-34.647-10.078-30.691-19.405-40.023-60.304-20.854-91.364 10.723-17.364 28.086-27.973 46.677-30.558a65.207 65.207 0 0 0-18.933 9.988 60.208 60.208 0 0 0-11.247 6.832 61.306 61.306 0 0 0-20 27.01c-2.688 7.147-4.088 14.926-3.917 23.04a62.23 62.23 0 0 0 1.39 11.848 61.17 61.17 0 0 0 10.335 23.07c10.18 13.986 26.089 23.398 44.14 24.755a64.474 64.474 0 0 0 18.64 2.749c3.003 0 5.993-.208 8.955-.62A65.153 65.153 0 0 1 324.461 302"/>
        <path fill="#FFFFFE" d="M267.1 201.918c-19.075 30.526-9.752 70.873 20.782 89.942 14.906 9.307 32.534 12.203 49.635 8.16 16.844-3.984 31.168-14.262 40.34-28.936 9.24-14.784 12.167-32.284 8.244-49.272-3.926-16.99-14.234-31.432-29.027-40.671-14.902-9.306-32.528-12.206-49.63-8.158-16.846 3.983-31.172 14.26-40.344 28.935zm19.616 91.81c-31.563-19.716-41.2-61.423-21.48-92.974 9.479-15.17 24.288-25.794 41.7-29.914 17.678-4.18 35.9-1.186 51.308 8.438 15.29 9.546 25.945 24.477 29.999 42.038 4.059 17.563 1.032 35.648-8.52 50.934-9.48 15.167-24.288 25.793-41.698 29.91h-.002c-17.677 4.179-35.899 1.187-51.307-8.432z"/>
        <path fill="#FD3A28" d="M367 363.385l-.898-3.385L339 366.617l.898 3.383L367 363.385"/>
        <path fill="#F7D0C2" d="M381.983 335.924c3.97-4.44 1.877-6.926 2.105-6.924 2.183.065 3.664 1.015 9.192 1.791.398.092-.291 4.424-.632 6.746.025.295-.765 1.137-.153.415 2.55-2.836 3.51-.395 2.91 1.26-.857 2.391-1.685 2.97-1.789 3.225-.256.632 1.48-.751 2.214.013.06.065 1.014 6.624 1.014 6.624l2.156 7.092s-1.393 1.388-8.032 1.816c-6.45.327-5.956-4.027-5.956-4.027s.486-6.408-.428-6.357c-4.795.263-3.653-.08-3.39-7.866.011-.367-3.16.606.79-3.808"/>
        <g transform="translate(385 344)">
            <mask id="k" fill="#fff">
                <use xlink:href="#j"/>
            </mask>
            <path fill="#DEAB8C" d="M-1.99 11.192H7.73V5.957H-1.99z" mask="url(#k)"/>
            <path fill="#DEAA8B" d="M7.731 7.859l-8.99-1.902.007-.035 8.99 1.901" mask="url(#k)"/>
            <path fill="#DEAA8C" d="M7.739 7.823l-8.99-1.901.018-.088L7.76 7.736" mask="url(#k)"/>
            <path fill="#DEA98C" d="M7.759 7.736l-8.992-1.902.03-.14L7.79 7.595" mask="url(#k)"/>
            <path fill="#DEA88B" d="M7.79 7.595l-8.992-1.901.004-.018 8.99 1.901" mask="url(#k)"/>
            <path fill="#DEA88C" d="M7.793 7.577l-8.991-1.9.016-.071 8.99 1.9" mask="url(#k)"/>
            <path fill="#DEA88C" d="M7.809 7.507l-8.991-1.901.026-.123 8.992 1.901" mask="url(#k)"/>
            <path fill="#DDA78B" d="M7.836 7.384l-8.992-1.902.012-.052 8.991 1.901" mask="url(#k)"/>
            <path fill="#DEA78C" d="M7.847 7.331L-1.144 5.43l.019-.088 8.991 1.902" mask="url(#k)"/>
            <path fill="#DEA68C" d="M7.866 7.244l-8.991-1.902.023-.105L7.89 7.138" mask="url(#k)"/>
            <path fill="#DEA68B" d="M7.89 7.138l-8.992-1.901.004-.018 8.991 1.902" mask="url(#k)"/>
            <path fill="#DEA68C" d="M7.893 7.12l-8.99-1.9.022-.106 8.991 1.901" mask="url(#k)"/>
            <path fill="#DDA58C" d="M7.916 7.015l-8.99-1.901.018-.088 8.991 1.902" mask="url(#k)"/>
            <path fill="#DDA48B" d="M7.935 6.928l-8.99-1.902.008-.035 8.99 1.9" mask="url(#k)"/>
            <path fill="#DDA48C" d="M7.943 6.892l-8.99-1.901.015-.07 8.991 1.9" mask="url(#k)"/>
            <path fill="#DDA38C" d="M7.959 6.822L-1.032 4.92l.027-.123 8.99 1.9" mask="url(#k)"/>
            <path fill="#DDA38C" d="M7.986 6.699l-8.991-1.901.027-.124 8.99 1.902" mask="url(#k)"/>
            <path fill="#DDA28B" d="M8.012 6.576l-8.99-1.902.015-.07 8.99 1.902" mask="url(#k)"/>
            <path fill="#DEA28C" d="M8.028 6.506l-8.99-1.902.01-.053L8.04 6.453M8.04 6.453L-.951 4.551l.026-.122L8.067 6.33" mask="url(#k)"/>
            <path fill="#DEA18B" d="M8.067 6.33L-.925 4.429l.012-.053 8.991 1.9" mask="url(#k)"/>
            <path fill="#DDA18C" d="M8.078 6.277L-.913 4.376l.008-.035 8.99 1.9" mask="url(#k)"/>
            <path fill="#DDA08B" d="M8.086 6.242L-.904 4.34l.03-.141 8.99 1.901" mask="url(#k)"/>
            <path fill="#DD9F8B" d="M8.117 6.101L-.874 4.2l.011-.053L8.128 6.05M8.128 6.049l-8.99-1.902.007-.035 8.99 1.902M8.136 6.014L-.855 4.112l.023-.105 8.99 1.901" mask="url(#k)"/>
            <path fill="#DD9E8B" d="M8.159 5.908l-8.99-1.901L.39-1.573 9.383.328" mask="url(#k)"/>
        </g>
        <path fill="#FFAE2D" d="M401.279 329.497c-3.151-2.536-4.331-.429-9.363-3.783-2.492-1.67-4.342-1.992-5.747-1.47a4.169 4.169 0 0 0-2.968-1.244c-2.32 0-4.201 1.897-4.201 4.236 0 2.337 1.88 4.226 4.2 4.226.416 0 .807-.077 1.187-.192 1.948-.112 4.87-.3 8.666.468.13 1.041-1.729 5.24-2.084 7.711.027.313.279 1.394.918.63 2.652-3.02 4.07-1.27 3.445.49-.891 2.542-2.266 2.213-2.273 2.793-.01 1.005.735 1.977 1.498 2.722 1.326 1.294 1.781 1.383 1.873-.82.131-3.146 10.592-11.156 4.849-15.767"/>
        <path fill="#FFFFFE" d="M381.082 342.263L381 343c1.127.006 4-1 4-1l-3.918.263"/>
        <path fill="#FFC80A" d="M383.582 519l-3.622.737-2.39-.006c-1.664 1.208-4.185 1.533-6.156 1.985-1.943.447-2.803.488-5.014 1.028-.427.104-.5.476-.276.824.92 1.405 3.245 1.381 4.656 1.428 1.397.04 4.268-.232 5.663-.308 3.147-.174 4.743-.841 5.154-.214.274.417 3.552.11 3.398-.645-.392-1.933-1.282-3.848-1.413-4.829M424.85 518.086l-3.89-.08-2.393-.006c-1.659 1.368-4.18 1.745-6.156 2.26-1.941.503-2.8.556-5.012 1.17-.427.12-.5.543-.273.94.922 1.599 3.24 1.572 4.653 1.625 1.397.047 4.268-.264 5.664-.35 3.149-.198 4.743-.958 5.153-.251.278.476 3.55.132 3.399-.727-.392-2.201-1.018-3.457-1.146-4.581"/>
        <path fill="#185C5A" d="M415.841 519.06c-5.013-8.778-20.963-61.246-25.445-71.695-1.672-3.887-7.446-30.99-8.396-33.35l21.63-.015c7.004 29.193 19.359 88.13 25.37 104.891-2.208 1.656-6.44 1.24-13.159.169"/>
        <path fill="#0E1220" d="M396 466c-1.97-6.917-3.728-12.995-5-16.999V449c1.272 4.007 3.03 10.079 5 17"/>
        <path fill="#174A47" d="M396.657 466c-2.23-6.988-4.218-13.118-5.657-17.164 4.584-6.394 8.695-6.119 16.028-13.836 4.9 23.677-10.32 30.976-10.371 31"/>
        <path fill="#187070" d="M387.896 517.899c2.363-5.47 6.153-30.837 9.56-48.268 1.472-7.543 2.89-10.887 4.074-13.202 11.455-22.367 5.11-32.206.622-44.429l-22.773.49c-1.757 33.48-.232 89.686-4.379 106.864 2.334 1.366 6.433.417 12.896-1.455"/>
        <path fill="#FFAE2D" d="M403.587 369.62c0-3.985-.736-6.828-4.129-8.935-.166-.107-1.19 1.801-1.19 1.801s-8.54-3.352-9.348-3.703c-.974-.433-.33-.053-1.267-.58-3.12-1.754-10.653 8.24-10.653 16.123 0 0 4.05 22.81 2.62 34.869-.84 7.122 22.254 8.676 23.967 4.558.93-2.23 0-44.132 0-44.132"/>
        <path fill="#FFC80A" d="M377 363.552c0-4.017 5.057-6.097 9.232-8.214.208-.108.251.318 1.734.766 2.856.86 8.599-.529 11.74-2.08.919-.447 16.214 5.277 15.25 17.374 0 0-9.087 20.581-7.324 32.744 1.037 7.178-27.41 8.745-29.52 4.59-1.146-2.25-1.112-45.18-1.112-45.18"/>
        <path fill="#EEA530" d="M377.038 377c-.018-2.547-.03-4.944-.038-7h.001c.008 2.057.019 4.452.038 7h-.001"/>
        <path fill="#E46B2A" d="M377.05 384a1771.213 1771.213 0 0 0 0-.002V384"/>
        <path fill="#FFAE2D" d="M377.104 385c-.024-2.243-.044-4.48-.06-6.626-.021-3.048-.035-5.913-.044-8.374h7c-2.742 5.871-3.864 7.869-6.896 15"/>
        <path fill="#F7D0C2" d="M338.445 342h-4.692c-1.39-5.232-4.857-16.516-3.404-16.506.288 0 .554-.051.617-.222.13-.347.842-.278 1.1 0 .264.276.75-.473.973-.209.519.619.74-.571 1.157.218.41.775.775 2.473 1.085 4.162.129.7 1.411 3.657 2.414 2.052.417-.667.082-2.2.779-2.476.552-.22.536-.112.521 2.435-.012 2.369-1.447 3.806-.55 10.546"/>
        <path fill="#FFFFFE" d="M334 325c.279 1.681.55 3.37 1 5M333 325c.28 1.681.551 3.37 1 5M331 325c.28 1.681.552 3.37 1 5"/>
        <path fill="#FFC80A" d="M338.84 339c3.733 11.233 10.614 14.016 15.233 20.527 1.019 1.433 23.435-6.644 34.028-3.044 5.135 2.128-.675 18.798-11.058 18.353-11.16.613-26.165-.35-30.585-5.297-6.58-5.93-13.618-24.006-13.455-30.135l5.837-.404"/>
        <path fill="#59BCB5" d="M110.983 291.16c1.12 5.674 6.413 14.067 2.736 18.812-3.306 4.27-13.394 4.185-15.706 9.323-3.364 7.47 6.85 7.215 1.208 14.07-2.324 2.826-14.223 13.232-17.45 14.885-1.841.945-5.954 6.538-10.922 4.17-10.923-5.211 11.301-78.222 37.125-84.173 11.837-2.727 2.03 17.957 3.01 22.912"/>
        <path fill="#185C5A" d="M69.939 351l-.939-.211c8.838-40.878 19.83-55.986 31.47-71.982.916-1.262 1.835-2.527 2.756-3.807l.774.58c-.923 1.282-1.843 2.547-2.761 3.812-11.576 15.907-22.507 30.935-31.3 71.608"/>
        <path fill="#185C5A" d="M100.974 297.022c-6.683-.165-9.872 2.54-14.287 6.283-.647.546-1.315 1.114-2.022 1.695l-.665-.78c.702-.576 1.368-1.138 2.008-1.684 4.42-3.746 7.911-6.705 14.992-6.529l-.026 1.015M77.625 321l-.625-.715a86.543 86.543 0 0 0 1.92-1.69c2.575-2.322 4.128-3.72 8.907-4.595l.173.93c-4.51.824-5.903 2.083-8.435 4.363-.565.509-1.206 1.086-1.94 1.707M90.986 293.509L90 294c1.233-2.64 1.687-6.582 2.062-9.458.24-1.831.488-3.72.946-5.542l.992.28c-.445 1.752-.688 3.61-.923 5.407-.386 2.963-.785 6.025-2.091 8.822M72.916 386c-.955-8.142-.639-14.9-.384-20.333.296-6.353.51-10.947-1.532-13.594L72.725 351c2.441 3.168 2.214 8.026 1.901 14.749-.252 5.365-.564 12.05.374 20.055l-2.084.196"/>
        <path fill="#187070" d="M83.916 269.93c3.984 5.274 7.184 11.341 5.725 18.059-1.314 6.043-10.66 20.69-10.509 27.127.221 9.366 10.838 7.25 8.387 17.125-1.012 4.066-3.035 7.697-5.565 11.01-1.444 1.893-2.937 9.705-9.278 9.748-13.944.1-13.886-9.642-17.928-13.997-8.31-8.96-15.45-20.935-11.744-30.622 1.519-3.962 8.181-3.333 9.502-7.353 1.21-3.684-4.665-13.421-4.861-17.917-.407-9.337 8.657-6.24 8.348-11.11-.666-10.42 11.524-29.377 18.412-28.994 13.987.776 6.028 22.313 9.51 26.923"/>
        <path fill="#59BCB5" d="M71 352l-.945-.28c-9.493-46.5-5.885-67.087-2.193-89.418.291-1.759.582-3.52.868-5.302l.832.18c-.286 1.782-.579 3.546-.868 5.308C65.018 284.713 61.549 305.705 71 352"/>
        <path fill="#59BCB5" d="M64.893 296l-.893-.416c.405-.93.782-1.827 1.147-2.693 2.505-5.955 4.483-10.658 11.447-13.891l.406.921c-6.619 3.073-8.435 7.393-10.95 13.37-.366.872-.747 1.774-1.157 2.709M65.93 318l-.93-.41c.46-1.056.846-2.021 1.188-2.873 1.559-3.9 2.5-6.256 7.212-9.717l.6.82c-4.478 3.29-5.326 5.416-6.872 9.273-.342.861-.731 1.834-1.198 2.907M65 278.923L64.342 280c.02-2.897-1.082-6.794-1.923-9.513-.535-1.722-1.086-3.502-1.419-5.313l.874-.174c.32 1.755.863 3.507 1.39 5.205.864 2.786 1.757 5.67 1.736 8.718"/>
        <path fill="#FFC80A" d="M93.891 450c2.043-44.315 12.371-74.325 13.109-83.993H41.123L41 366c.739 9.668 6.224 29.837 13.105 84h39.786"/>
        <path fill="#FFAE2D" d="M109 367H37.757s-1.703-6.937 0-7.122c38.914-4.225 71.243 0 71.243 0V367"/>
        <path fill="#0D1745" d="M269 466.493c0 5.254-4.381 9.507-9.793 9.507h-46.414c-5.412 0-9.793-4.253-9.793-9.507 0-5.242 4.38-9.493 9.793-9.493h46.414c5.412 0 9.793 4.251 9.793 9.493"/>
        <path fill="#0E1220" d="M242.313 483.876l4.941-1.078 3.047-.607c2.463 1.144 6.186-.709 8.83-.619 2.602.085 1.666-.697 4.644-.555.573.03 2.404 2.759 2.21 3.264-.771 2.057-3.731 2.619-5.523 3.03-1.772.406-5.51.778-7.307 1.033-4.068.57-6.292.103-6.636 1.02-.235.61-4.49 1.044-4.515.028-.054-2.609.428-4.209.309-5.516"/>
        <path fill="#FC544E" d="M264.522 463.843c10.069-1.185 14.286-.656 16.308-4.642 2.726-5.392 6.926-2.907-3.615-18.457-15.92-23.47-13.746-29.358-33.559-31.497-1.293-.14-4.7.165-7.828.47-3.046.299-5.827.596-6.131.482-.74-.296-.255-.04-.971-.397-2.387-1.185-9.376-2.102-15.89 5.262 0 0-23.87 32.93-21.696 40.178.497 1.676 2.356 4.922 27.266 8.601 1.205.178 24.8 2.512 46.116 0"/>
        <path fill="#A12629" d="M217 449l-.367-.134c-5.052-2.586-6.768-4.337-14.29-8.011L202 440c5.246 2.302 14.584 8.684 15 9M256 452c.418-.322 9.749-6.7 15-9l-.35.854c-7.515 3.675-9.227 5.424-14.282 8L256 452"/>
        <path fill="#F7D0C2" d="M230.128 406.31c.344 1.256-.127 7.27-.127 7.27-.078 5.38 3.452 8.42 7.562 8.42 4.106 0 7.437-3.338 7.437-7.452l-2.175-10.417s-13.545-.932-12.697 2.179"/>
        <path fill="#1F2F7E" d="M248.03 493l-59.43-21.328c-4.028-1.834-5.731-6.442-3.81-10.285 1.926-3.84 6.747-5.469 10.77-3.631L255 479.082 248.03 493"/>
        <path fill="#E4E2DC" d="M205.1 462c-.065.223-.1.45-.1.694 0 1.276.926 2.306 2.065 2.306h56.869c1.141 0 2.066-1.03 2.066-2.306 0-.243-.034-.47-.097-.694h-60.804"/>
        <path fill="#FFFFFE" d="M259.632 433h-46.26c-1.305 0-2.372 1.03-2.372 2.28v24.436c0 1.257 1.067 2.284 2.372 2.284h46.26c1.304 0 2.368-1.027 2.368-2.284V435.28c0-1.25-1.064-2.28-2.368-2.28"/>
        <path fill="#0E1220" d="M234.684 483.414l-4.933-1.16-3.046-.655c-2.464 1.228-9.882-.743-12.862-.59-.574.035-3.017 2.295-2.833 2.84.771 2.212 3.737 2.81 5.533 3.258 1.765.437 5.504.837 7.306 1.112 4.066.614 6.29.115 6.636 1.098.232.657 4.495 1.123 4.51.025.06-2.805-.425-4.52-.311-5.928"/>
        <path fill="#14236C" d="M228.965 494l59.436-21.332c4.025-1.836 5.736-6.433 3.804-10.278-1.918-3.843-6.738-5.47-10.767-3.635L222 480.087 228.965 494"/>
        <path fill="#F7D0C2" d="M225.407 395.71c-.312 9.22-1.655 9.636 3.986 9.315 1.075-.064.498 7.528.498 7.528s-.036.435.074 1.033h13.358L245 414s-2.32-14.994-2.384-15.066c-.864-.909-2.906.723-2.61-.023.127-.299 1.095-.986 2.114-3.815.698-1.965-.43-4.852-3.426-1.493-.075.092-.134.154-.172.213.135-.191.361-.533.345-.702.403-2.752 1.35-8.11.885-8.22-6.5-.915-8.377-1.82-10.948-1.894-.27 0 2.2 2.943-2.473 8.203-4.642 5.224-.916 4.072-.924 4.507"/>
        <g transform="translate(228 399)">
            <mask id="m" fill="#fff">
                <use xlink:href="#l"/>
            </mask>
            <path fill="#DEAB8C" d="M-2.27 14.26H9.435V7.487H-2.27z" mask="url(#m)"/>
            <path fill="#DEAA8B" d="M9.433 9.97L-1.4 7.487l.007-.038L9.441 9.932" mask="url(#m)"/>
            <path fill="#DEAA8C" d="M9.441 9.932L-1.394 7.449l.023-.116L9.465 9.816" mask="url(#m)"/>
            <path fill="#DEA98C" d="M9.465 9.816L-1.371 7.333l.036-.173L9.499 9.643" mask="url(#m)"/>
            <path fill="#DEA88B" d="M9.5 9.643L-1.336 7.16l.008-.039L9.508 9.604" mask="url(#m)"/>
            <path fill="#DEA88C" d="M9.508 9.604L-1.327 7.121l.019-.096L9.527 9.508" mask="url(#m)"/>
            <path fill="#DEA88C" d="M9.527 9.508L-1.308 7.025l.031-.154L9.558 9.354" mask="url(#m)"/>
            <path fill="#DDA78B" d="M9.558 9.354L-1.277 6.87l.012-.058L9.57 9.296" mask="url(#m)"/>
            <path fill="#DEA78C" d="M9.57 9.296L-1.265 6.813l.023-.115L9.593 9.18" mask="url(#m)"/>
            <path fill="#DEA68C" d="M9.593 9.18L-1.242 6.699l.024-.116L9.617 9.065" mask="url(#m)"/>
            <path fill="#DEA68B" d="M9.617 9.065L-1.219 6.582l.008-.038L9.623 9.027" mask="url(#m)"/>
            <path fill="#DEA68C" d="M9.624 9.027L-1.21 6.544l.024-.116L9.648 8.911" mask="url(#m)"/>
            <path fill="#DDA58C" d="M9.648 8.911L-1.187 6.428l.027-.135L9.675 8.776" mask="url(#m)"/>
            <path fill="#DDA48B" d="M9.675 8.776L-1.16 6.293l.008-.039L9.683 8.737" mask="url(#m)"/>
            <path fill="#DDA48C" d="M9.683 8.737L-1.152 6.254l.02-.096L9.702 8.64" mask="url(#m)"/>
            <path fill="#DDA38C" d="M9.703 8.64L-1.133 6.159l.032-.154L9.733 8.487M9.733 8.487L-1.1 6.004l.03-.154L9.766 8.333" mask="url(#m)"/>
            <path fill="#DDA28B" d="M9.765 8.333L-1.07 5.85l.019-.096L9.784 8.237" mask="url(#m)"/>
            <path fill="#DEA28C" d="M9.784 8.237L-1.05 5.754l.008-.039L9.792 8.198" mask="url(#m)"/>
            <path fill="#DEA28C" d="M9.792 8.198L-1.043 5.715l.031-.154L9.823 8.044" mask="url(#m)"/>
            <path fill="#DEA18B" d="M9.823 8.044L-1.012 5.561l.02-.096L9.842 7.948" mask="url(#m)"/>
            <path fill="#DDA18C" d="M9.843 7.948L-.993 5.465l.008-.04L9.85 7.91" mask="url(#m)"/>
            <path fill="#DDA08B" d="M9.85 7.909L-.985 5.426l.035-.173L9.886 7.736" mask="url(#m)"/>
            <path fill="#DD9F8B" d="M9.886 7.736L-.95 5.253l.011-.058L9.897 7.678M9.897 7.678L-.938 5.195l.012-.058L9.909 7.62M9.909 7.62L-.926 5.137l.023-.116L9.932 7.504" mask="url(#m)"/>
            <path fill="#DD9E8B" d="M-.903 7.504h12.269v-9.568H-.903z" mask="url(#m)"/>
        </g>
        <path fill="#0A0B09" d="M246.896 380.853c-3.25-2.754-4.514.355-8.428-2.02-3.486-2.113-6.03.467-8.176.422-6.896-.14-7.14 4.588-.213 5.633 2.17-.125 4.815 2.18 7.16 1.293.145 1.139.572 4.918.17 7.605.034.337.317 1.516 1.032.68 2.95-3.284 4.533-1.379 3.844.54-1.005 2.764-2.531 2.407-2.536 3.037-.01 1.1.816 2.152 1.666 2.961 1.48 1.404 1.984 1.51 2.085-.898.15-3.415 9.59-14.004 3.396-19.253"/>
        <path fill="#FFFFFE" d="M225.08 398.266L225 399c1.122.008 4-1 4-1l-3.92.266"/>
    </g>
</svg>
