<svg xmlns="http://www.w3.org/2000/svg" viewBox="0 0 18 18">
    <path fill="currentColor" fill-rule="evenodd" d="M8.996 1.686a7.3 7.3 0 0 1 7.318 7.31 7.302 7.302 0 0 1-7.318 7.318 7.3 7.3 0 0 1-7.31-7.318 7.299 7.299 0 0 1 7.31-7.31zm0-1.686C4.048 0 0 4.048 0 8.996 0 13.952 4.048 18 8.996 18 13.952 18 18 13.952 18 8.996 18 4.048 13.952 0 8.996 0zm1.728 11.87c-.506.302-1.115.505-1.728.505-1.91 0-3.371-1.46-3.371-3.379 0-1.91 1.46-3.371 3.371-3.371.654 0 1.308.176 1.83.53a.684.684 0 0 0 .963-.201l.153-.243a.715.715 0 0 0-.168-.948 4.913 4.913 0 0 0-.209-.143 5.289 5.289 0 0 0-2.569-.681A5.034 5.034 0 0 0 3.94 8.996a5.04 5.04 0 0 0 5.057 5.065c.928 0 1.726-.25 2.446-.66a.752.752 0 0 0 .231-1.104l-.21-.28a.563.563 0 0 0-.739-.147z"/>
</svg>
