<svg xmlns="http://www.w3.org/2000/svg" viewBox="0 0 24 18">
    <path fill="currentColor" fill-rule="evenodd" d="M6.979 0H23.02a.979.979 0 1 1 0 1.958H6.98a.979.979 0 0 1 0-1.958zm0 3.915H23.02a.979.979 0 1 1 0 1.958H6.98a.979.979 0 1 1 0-1.958zm0 3.916H23.02a.979.979 0 1 1 0 1.958H6.98a.979.979 0 1 1 0-1.958zm0 3.915H23.02a.979.979 0 1 1 0 1.958H6.98a.979.979 0 1 1 0-1.958zm0 3.916H23.02a.979.979 0 1 1 0 1.958H6.98a.979.979 0 1 1 0-1.958zM1.939 4.178H.952V.975H0V.293L1.94 0v4.178zm1.117 6.881H.071v-.63l1.37-1.412c.175-.195.303-.369.385-.522a.874.874 0 0 0 .123-.398.566.566 0 0 0-.125-.385c-.083-.095-.207-.143-.373-.143a.403.403 0 0 0-.35.185.814.814 0 0 0-.128.472H.006l-.005-.018a1.29 1.29 0 0 1 .386-.982c.268-.268.622-.403 1.064-.403.468 0 .834.113 1.097.339.263.225.394.534.394.926 0 .264-.07.497-.21.7-.14.202-.397.504-.772.903l-.577.605.01.017h1.663v.746zm-2.05 4.389h.465c.178 0 .315-.047.41-.14a.52.52 0 0 0 .144-.39.463.463 0 0 0-.129-.334c-.086-.09-.211-.134-.375-.134a.554.554 0 0 0-.34.109.336.336 0 0 0-.146.28H.074l-.006-.016c-.012-.333.122-.603.401-.81.28-.206.618-.309 1.017-.309.463 0 .833.104 1.11.311.278.208.416.502.416.882 0 .19-.06.364-.18.523-.12.16-.28.285-.482.375.229.082.407.207.536.374a.955.955 0 0 1 .194.6c0 .383-.15.684-.449.903-.299.219-.68.328-1.145.328-.4 0-.75-.103-1.05-.308-.3-.206-.445-.504-.436-.894l.006-.017h.967c0 .134.053.246.16.337.106.091.236.136.388.136a.59.59 0 0 0 .416-.143.47.47 0 0 0 .155-.361c0-.203-.054-.35-.162-.443-.109-.093-.262-.14-.459-.14h-.466v-.72z"/>
</svg>
