<svg xmlns="http://www.w3.org/2000/svg" viewBox="0 0 24 21">
    <path fill="currentColor" fill-rule="evenodd" d="M17.424 15.655L11.122 7.32A1 1 0 0 0 9.5 7.36l-.626.916-2.265-2.88a1 1 0 0 0-1.616.06l-3.115 4.632V2.864c0-.527.42-.955.938-.955h18.37c.517 0 .938.428.938.955v12.79h-4.699zm4.7 2.481c0 .527-.422.955-.939.955H2.815a.948.948 0 0 1-.938-.955v-4.668l4-5.947 1.878 2.388-4.212 6.16a.959.959 0 0 0 .238 1.324.929.929 0 0 0 1.303-.234l5.276-7.716 6.14 8.12h5.623v.573zM2.814 0C1.263 0 0 1.285 0 2.864v15.272C0 19.716 1.263 21 2.815 21h18.37C22.737 21 24 19.715 24 18.136V2.864C24 1.284 22.737 0 21.185 0H2.815zm14.898 7.255a.948.948 0 0 1-.938-.955c0-.526.42-.955.938-.955.517 0 .938.429.938.955s-.42.955-.938.955zm0-3.819c-1.552 0-2.815 1.285-2.815 2.864s1.263 2.864 2.815 2.864 2.815-1.285 2.815-2.864-1.263-2.864-2.815-2.864z"/>
</svg>
