<svg xmlns="http://www.w3.org/2000/svg" viewBox="0 0 20 20">
    <path fill="currentColor" fill-rule="evenodd" d="M1.25 3.125h3.125c.346 0 .625.28.625.625v2.375a2 2 0 0 1-2 2H.625A.625.625 0 0 1 0 7.5V1.875C0 .841.841 0 1.875 0H3.75v1.25H1.875a.626.626 0 0 0-.625.625v1.25zm10 3a2 2 0 0 1-2 2H6.875A.625.625 0 0 1 6.25 7.5V1.875C6.25.841 7.091 0 8.125 0H10v1.25H8.125a.626.626 0 0 0-.625.625v1.25h3.125c.346 0 .625.28.625.625v2.375zm3.75 7.75a2 2 0 0 1 2-2h2.375c.346 0 .625.28.625.625v5.625A1.877 1.877 0 0 1 18.125 20H16.25v-1.25h1.875c.345 0 .625-.28.625-.625v-1.25h-3.125A.625.625 0 0 1 15 16.25v-2.375zm-6.25 0a2 2 0 0 1 2-2h2.375c.346 0 .625.28.625.625v5.625A1.877 1.877 0 0 1 11.875 20H10v-1.25h1.875c.345 0 .625-.28.625-.625v-1.25H9.375a.625.625 0 0 1-.625-.625v-2.375z"/>
</svg>
