<svg xmlns="http://www.w3.org/2000/svg" viewBox="0 0 20 18">
    <path fill="currentColor" fill-rule="evenodd" d="M4.775 8.147a5.384 5.384 0 0 1-.611-.926c-.385-.749-.577-1.474-.577-2.176 0-1.396.536-2.588 1.609-3.575C6.261.49 7.836 0 9.917 0c.4 0 1.07.073 2.006.22.529.092 1.237.277 2.126.555.054.196.054 1.542 0 4.039h-.96c-.401-1.15-.814-2.033-1.238-2.465-.705-.702-1.546-1.053-2.523-1.053-.913 0-1.642.228-2.186.683-.537.447-.805 1.01-.805 1.69 0 .563.264 1.102.793 1.62.529.516 1.645 1.014 3.35 1.492.554.154 1.247.41 2.08.764.463.216.844.416 1.14.602H4.775zm7.899 4.15c-.263-.217-.791-.485-1.586-.8h4.758c.053.293.08.639.08 1.038a6.17 6.17 0 0 1-.474 2.393 3.748 3.748 0 0 1-.822 1.174c-.286.264-.706.569-1.262.915-.617.362-1.208.61-1.77.745-.618.159-1.401.238-2.35.238-.88 0-1.632-.087-2.257-.26l-1.62-.451c-.44-.12-.81-.226-.926-.316-.041-.04-.041-1.328 0-3.862h1.18c.116.255.231.523.347.801l.261.633c.058.142.106.244.144.304.27.43.58.783.926 1.061.333.272.738.486 1.216.645a4.46 4.46 0 0 0 1.528.248c.493 0 1.03-.102 1.608-.305.594-.196 1.065-.52 1.412-.971.363-.46.544-.945.544-1.457 0-.632-.312-1.223-.937-1.773zM20 9.134v1.434H0V9.134h20z"/>
</svg>
