<svg xmlns="http://www.w3.org/2000/svg" viewBox="0 0 24 20">
    <path fill="none" fill-rule="evenodd" stroke="currentColor" stroke-width="2" d="M12.504 9.996L11 9.156v1.686l1.504-.846zm-2.305-1.288zm12.05-6.412c.598.842.751 2.084.751 5.244v4.92c0 2.794-.327 4.444-1.14 5.364-.763.865-2.015 1.176-4.316 1.176H6.456C2.113 19 1 17.6 1 12.46V7.54c0-3.28.114-4.316.674-5.159C2.355 1.357 3.755 1 6.456 1h11.088c2.64 0 4.023.336 4.705 1.296zm0 0zm0 0C21.62 1.408 20.307 1 17.544 1H6.456c-2.824 0-4.15.432-4.782 1.381C1.115 3.222 1 4.26 1 7.541v4.92C1 17.556 2.067 19 6.456 19h11.088c2.39 0 3.597-.36 4.317-1.176.772-.876 1.139-2.467 1.139-5.364V7.54c0-3.183-.16-4.412-.75-5.244z"/>
</svg>
