<svg xmlns="http://www.w3.org/2000/svg" width="515.004" height="115.008" viewBox="22.857 40.533 515.004 115.008"><g fill="#19355B"><path d="M141.66 79.44c-2.465-10.208-6.465-18.437-12.232-25.156-5.086-5.926-10.462-9.85-16.436-11.995-3.29-1.183-6.987-1.757-11.3-1.757-.3 0-.605.002-.908.007-1.03.018-2.08.02-3.094.023-3.043.006-6.188.013-9.232.434-6.795.94-12.957 4.238-18.84 10.082-6.852 6.802-11.69 15.49-14.788 26.556-.363 1.295-.654 2.604-.964 3.988-.138.62-.28 1.253-.433 1.906-.588.21-1.195.43-1.815.656-1.56.566-3.177 1.152-4.823 1.7-3.125 1.04-5.654 2.445-7.73 4.297-1.42 1.265-2.77 2.65-4.073 3.99l-.687.703c-.737.754-1.472 1.532-2.183 2.285-.89.947-1.813 1.924-2.746 2.857-.832.833-1.577 1.094-2.51.9a5.97 5.97 0 0 0-1.23-.107c-.32 0-.642.014-.984.03-.358.015-.726.03-1.11.03h-.685l.552.41c.166.124.318.243.46.355.294.23.548.43.834.593 1.108.628 2.468.96 3.933.96 2.054 0 4.056-.648 5.49-1.78.447-.35.975-.625 1.502-.884-.86.894-1.723 1.762-2.564 2.61-.5.502-.998 1.002-1.494 1.506-.207.212-.322.487-.433.752-.035.083-.073.163-.108.243-1.67.537-3.28 1.328-3.88 3.36l-.17.58.51-.323c1.054-.67 1.962-1.52 2.842-2.34l.054-.052c.216-.202.436-.4.656-.598l.267-.242 2.22-.95-1.483 1.74.896-.39c.394-.17.76-.315 1.104-.453.705-.28 1.313-.523 1.878-.86 1.16-.697 2.418-1.036 3.844-1.036.803 0 1.672.108 2.652.328.405.09.81.182 1.216.27.697.155 1.394.31 2.088.47 2.29.53 4.99 1.072 7.67 1.072 1.61 0 3.084-.186 4.51-.566 1.21-.324 2.398-.79 3.547-1.238.89-.348 1.807-.708 2.726-.997 1.278-.404 2.465-.597 3.55-.574.328.007.706.343 1.072.667.124.11.25.223.38.327-.08.108-.157.22-.232.33-.246.36-.477.7-.78.867-4.752 2.593-9.72 3.993-14.77 4.164-.568.02-1.154.03-1.79.03-1.55 0-3.13-.06-4.66-.114-.897-.032-1.796-.066-2.693-.088-4.964-.12-8.31 2.052-9.938 6.447l-.144.383.4-.083c.45-.094.903-.195 1.356-.295 1.012-.227 2.06-.46 3.102-.606a8.76 8.76 0 0 1 1.204-.094c1.09 0 1.957.29 2.704.905-1.208.644-2.506 1.267-3.892 1.622-3.042.78-5.286 1.99-7.063 3.81-1.284 1.315-2.744 2.13-4.343 2.424l-2.176.4 2.51.056c.747.017 1.52.034 2.275.034.452 0 .86-.006 1.25-.018 6.344-.204 11.282-2.254 15.095-6.27.726-.762 1.55-1.46 2.35-2.138l.06-.05c1.236-1.047 2.934-2.262 5.108-2.35a56.937 56.937 0 0 1 2.26-.057c.91 0 1.71.036 2.454.11.74.073 1.475.11 2.19.11 4.954 0 9.442-1.787 13.344-5.312.26-.234.537-.45.89-.725l.272-.214c.006.19.016.37.024.537.03.578.055 1.076-.054 1.517-.444 1.763-1.505 3.364-3.25 4.898-2.173 1.913-4.932 3.237-8.68 4.17-1.994.496-4.038.93-6.016 1.352-1.753.374-3.564.76-5.337 1.187-5.472 1.317-9.254 4.19-11.562 8.78l-.515 1.027 1.226-1.067c.213-.185.39-.34.57-.49 2.177-1.85 4.174-2.825 6.286-3.072 1.62-.19 2.856.234 3.975 1.36-.194.142-.38.287-.56.428-.497.387-.966.753-1.474.92-1.52.503-3.208.934-5.312 1.356-.695.14-1.42.222-2.123.302-.99.114-2.017.23-2.99.51-1.5.433-2.94 1.02-4.334 1.59-.578.235-1.144.466-1.7.68l-1.138.437h1.22c.315 0 .65.002 1 .006.38.003.78.006 1.184.006.527 0 .986-.006 1.405-.018 1.295-.04 2.614-.065 3.89-.09 3.25-.062 6.606-.127 9.894-.414 5.084-.44 9.19-2.473 12.207-6.036.66-.778 1.457-1.663 2.384-2.324.96-.688 2-1.2 3.006-1.48a.47.47 0 0 1 .125-.016c.397 0 1.046.35 1.312.71.105.14.047.67-.272 1.403-.145.33-.436.63-.718.918-.077.08-.156.16-.23.24-2.205 2.37-5.152 3.567-7.74 4.502-2.603.942-5.174 1.962-7.585 2.926-.744.3-1.266.633-1.595 1.023-.358.426-.77 1.256-.56 1.77.232.57 1.033 1.064 1.596 1.13a4.318 4.318 0 0 0 2.306-.415c2.012-1.017 4.09-2.07 6.03-3.35 1.196-.79 2.35-1.677 3.467-2.535.973-.747 1.977-1.52 3-2.22 1.438-.983 2.88-1.482 4.285-1.482 1.2 0 2.422.36 3.634 1.074 2.792 1.643 5.97 2.094 9.34 1.33 1.23-.278 2.477-.586 3.683-.884l.965-.238c-1.964 2.09-3.67 2.872-6.45 3.03a205.1 205.1 0 0 1-1.356.068c-2.747.134-5.587.272-8.3 1.218-.644.225-1.36.266-2.166.295-1.032.036-2.083.054-3.1.074-1.28.023-2.604.047-3.905.106-1.506.066-2.55.656-3.023 1.704-.49 1.1-1.323 1.812-2.778 2.383-1.326.52-2.652 1.034-3.98 1.546l-.86.332c-2.36.913-4.37 1.34-6.325 1.34-.547 0-1.095-.036-1.63-.105-.503-.064-1.018-.11-1.513-.15-.226-.022-.45-.04-.677-.063l-.073.446a41.485 41.485 0 0 0 13.53.947c2.438-.23 5.247-.75 7.605-2.878.454-.41 1.258-.704 2.264-.826.857-.103 1.746-.104 2.605-.106.47 0 .956 0 1.433-.02.454-.016.9-.017 1.398-.017h.205c1.124 0 2.4 0 3.6-.27 2.508-.565 5.02-1.29 7.453-1.994.926-.268 1.85-.535 2.778-.794 1.962-.548 3.188-1.682 3.647-3.372.508-1.877 1.19-2.79 2.085-2.79.705 0 1.61.53 2.77 1.62.876.824 2.094 1.8 3.728 2.027.547.076 1.096.158 1.643.24 1.852.275 3.768.56 5.666.623 2.67.088 4.99.386 6.342 3.154l.86 1.76-.436-1.91c-.124-.54-.26-1.054-.393-1.552-.283-1.072-.55-2.084-.617-3.092-.096-1.462.688-2.743 1.256-3.623l16.24 2.3c-.042.098-.088.196-.14.284-2.376 3.978-5.068 7.218-8.228 9.904-4.976 4.232-10.146 6.417-15.806 6.68-6.043.28-11.745-1.717-16.952-5.936-1.302-1.055-2.515-2.222-3.685-3.35-.528-.51-1.03-.99-1.534-1.458l-.172-.162-1.49 1.77.13.146c.1.11.2.23.305.353.243.288.496.586.79.854.424.39.844.786 1.264 1.182 1.102 1.04 2.24 2.116 3.467 3.046 5.31 4.024 10.958 6.065 16.79 6.065 5.62 0 11.127-1.898 16.367-5.645 2.273-1.625 4.372-3.563 6.326-5.856-2.624 3.23-5.44 5.74-8.584 7.683-5.017 3.1-10.123 4.67-15.176 4.67-1.786 0-3.604-.194-5.404-.577-5.993-1.277-11.297-4.456-16.694-10.008a39.71 39.71 0 0 1-.675-.715l-.473-.504-3.006 1.907 2.53 2.12-.045.102-1.04-.065c-1.278-.08-2.557-.16-3.836-.232a3.974 3.974 0 0 0-.224-.008c-.146 0-.36.012-.535.118-.802.488-1.59.99-2.502 1.573l-1.3.825.267.198c.732.544 1.443 1.095 2.132 1.627 1.51 1.168 2.935 2.272 4.474 3.24 5.346 3.362 10.597 4.996 16.053 4.996.312 0 .625-.005.94-.016.905-.03 1.874-.045 3.05-.045.797 0 1.593.006 2.39.012.798.007 1.598.014 2.395.014.92 0 1.724-.01 2.458-.028 1.798-.045 3.504-.243 5.07-.586 7.917-1.736 14.642-6.06 20.562-13.22 7.935-9.593 12.547-21.56 14.098-36.58.843-8.164.187-16.556-2.007-25.652zm-9.285 45.396l-1.258 2.652c-.026-1.898.23-2.322 1.258-2.652zm5.323-26.305v3.59c-2.283-.503-4.502-1.456-6.916-2.97l6.916-.62zm-10.658 2.273c.407 0 .783.135 1.134.272.698.274 1.383.63 2.047.972.293.15.582.3.875.444.524.26 1.045.525 1.566.792 1.238.63 2.517 1.283 3.82 1.828.86.36 1.06.702.857 1.47-.086.325-.127.658-.176 1.045-.01.072-.02.145-.028.22l-.1-.08a8.594 8.594 0 0 1-.654-.575c-2.312-2.327-4.866-3.895-7.803-4.796-.643-.198-1.266-.53-1.925-.882-.225-.12-.456-.242-.695-.365.363-.232.72-.344 1.085-.344zM65.467 80.576l-6.574.373-.013-.112c-.006-.06-.01-.094-.01-.116.385-1.787.578-2.684 1.09-3.094.508-.41 1.43-.41 3.27-.41h1.82c-.623 1.87-.404 2.492.417 3.358zm-2.387-5.81l-2.462-.002.273-.708c.372-.96.72-1.867 1.096-2.756.038-.09.262-.24.39-.243 1.08-.018 2.143-.02 3.04-.02h2.347c-.09.258-.18.507-.264.75-.325.92-.63 1.785-.96 2.62-.062.15-.318.33-.436.334-1.083.023-2.136.027-3.024.027zm6.854-8.572c-.355.742-.66 1.383-1 2.02-.066.12-.293.265-.418.268-1.076.018-2.13.02-3.02.02l-2.322-.002.257-.508c.376-.745.73-1.448 1.11-2.125.04-.076.284-.185.46-.186 1.015-.014 2-.016 2.833-.016l2.354.002-.253.528zm3.04-5.356c-.494.787-.92 1.467-1.396 2.127-.09.122-.418.23-.72.237-.693.013-1.442.02-2.428.02h-1.32c-.352-.002-.71-.003-1.08-.003l.36-.542a75.8 75.8 0 0 1 1.47-2.16.71.71 0 0 1 .464-.25c.98-.017 1.938-.02 2.746-.02l2.272.004c-.126.2-.248.395-.37.586zm.738-3.017c-.467-.04-.973-.06-1.59-.06-.405 0-.815.008-1.233.017-.31.006-.62.012-.94.015.572-.988 1.155-1.31 2.117-1.227.47.04.98.06 1.6.06.407 0 .822-.008 1.242-.016.32-.007.644-.013.974-.017-.514.975-1.153 1.318-2.172 1.228zm3.224-3.632c-.12 0-.243-.008-.37-.023-.397-.05-.825-.07-1.35-.07-.354 0-.715.01-1.088.02-.25.006-.505.014-.767.018 1.062-1.333 2.08-1.796 3.458-1.607.33.045.685.066 1.123.066.3 0 .605-.01.924-.02.193-.005.392-.012.597-.016-.753.93-1.406 1.632-2.524 1.632zM68.87 77.454c3.415-10.79 8.166-18.604 14.954-24.59 5.397-4.76 11.174-7.276 17.66-7.69a25.702 25.702 0 0 1 1.64-.054c5.056 0 9.878 1.472 14.747 4.5 2.89 1.797 5.522 4.05 7.96 6.825-3.67-4.007-7.66-6.818-12.102-8.542-3.335-1.294-6.662-1.95-9.89-1.95-6.015 0-11.875 2.265-17.42 6.73C80.06 57.81 75.35 64.81 72.022 74.09c-.227.635-.443 1.29-.673 1.98l-.37 1.113-.182.533 1.908-.996.48 1.04 3.53-8.92c1.066.33 2.19.484 3.51.484.945 0 1.892-.08 2.807-.155.33-.028.657-.055.988-.08a19.04 19.04 0 0 1 3.996.162c1.45.203 2.684 1.04 3.77 2.56l.02.026c1.303 1.815 2.647 3.693 4.62 4.976.142.09.26.252.394.44l.09.124-4.886 3.548v-.004l-3.44 2.153c.268-.308.526-.594.833-.812.42-.298.89-.554 1.344-.8.357-.194.727-.396 1.078-.62 1.172-.748 1.714-1.77 1.564-2.953-.166-1.31-1.235-1.82-2.26-2.15a6.755 6.755 0 0 0-2.06-.33c-.776 0-1.55.144-2.3.43-.74.28-1.475.567-2.208.853-1.415.552-2.876 1.123-4.33 1.638-1.914.68-3.797 1.024-5.597 1.024-1.76 0-3.502-.33-5.177-.98-.592-.225-.786-.333-.6-.92zM86.453 89.39c.026-.165.368-.486.626-.545 1.264-.286 2.403-.425 3.484-.425 1.282 0 2.46.194 3.604.595.762.267.906.833 1.09 1.615-.098 0-.192.004-.283.006-.38.008-.72.01-.983-.014a17.326 17.326 0 0 0-1.602-.075c-2.147 0-4.26.402-5.957 1.134-.36.156-.342.706-.317 1.4.018.553.04 1.178-.137 1.542l.406.197c.233-.482 2.29-1.532 2.902-1.67a14.117 14.117 0 0 1 2.918-.324c.656 0 1.22.058 1.675.172.147.037.334.077.548.123 1.26.272 3.604.777 3.664 1.972.044.895-.563 1.03-1.3 1.106-.207.02-.358.036-.47.094-.383.194-.8.21-1.246.23-.438.018-.892.037-1.34.23l-.14.06.016.68 1.244.086c.903.064 1.808.128 2.713.18a9.5 9.5 0 0 0 1.272-.023c.396-.03.67.027.814.178.142.148.202.416.186.82-.088 2.07-.13 4.176-.17 6.213-.016.715-.03 1.432-.047 2.147-.003.11.012.212.03.34.01.065.02.138.03.224l.032.29 1.874-.713c.488.9.08 1.612-.47 2.578l-.19.337 1.155.47c-1.242.11-2.484.358-3.587 1.293-.216.183-.626.288-1.126.288a3.33 3.33 0 0 1-.75-.082c-.347-.08-.58-.116-.777-.116-.72 0-.965.51-1.128 1.333l-.036.18.17.072c.884.378 4.25.514 7.108.514 2.667 0 7.388-.137 8.16-.65l.31-.205-.325-.18c-.375-.21-.746-.42-1.115-.628-.977-.55-1.897-1.072-2.854-1.577-.415-.22-1.008-.526-1.512-.45-.47.07-.956.104-1.434.134-.012-.162-.02-.314-.03-.448-.02-.343-.037-.614-.07-.882l-.014-.096c-.078-.606-.153-1.178.117-1.517.18-.223.51-.353 1.007-.402.375-.036.628-.43.923-.884.122-.19.25-.388.386-.556l.327-.404-4.355.297-.583.75c-.005-.71-.033-1.428-.06-2.125-.067-1.723-.135-3.505.154-5.183.357-2.09.45-4.195.54-6.232l.008-.17c.167-3.78-.497-4.324-3.96-5.42-1.42-.45-2.914-.67-4.562-.67-1.1 0-2.273.098-3.59.3-.262.04-.547.058-.897.058-.26 0-.523-.01-.793-.02-.204-.008-.41-.016-.62-.02.21-1.238.498-2.047 1.68-2.156 1.766-.16 2.293-1.506 2.76-2.693.063-.165.127-.328.195-.49l.06-.14 1.39-.235c.678-.114 1.358-.23 2.037-.342 1.146-.19 1.93-.422 2.304-.98.36-.537.295-1.317.057-2.394l.637-.414.283 1.374.26-.84c.043-.134.09-.255.134-.363.094-.24.177-.45.146-.67-.034-.245-.114-.48-.19-.708-.094-.284-.186-.552-.177-.805.057-1.932-.62-3.527-1.958-4.612-1.85-1.5-3.896-3.006-6.64-4.88-1.07-.732-2.444-.838-3.905-.308-.747.27-1.72.647-2.61 1.16-1.78 1.026-3.717 1.383-6.024 1.098a.347.347 0 0 1 .02-.095c4.062-7.567 9.05-12.82 15.253-16.058 3.82-1.995 7.662-3.005 11.415-3.005 5.332 0 10.638 2.036 15.77 6.052 5.11 4 9.025 9.253 11.97 16.064.203.47.43.938.647 1.39.453.935.92 1.9 1.198 2.922.38 1.392.852 2.78 1.306 4.124l.208.62c.22.65.148 1.2-.237 1.83-1.698 2.774-3.607 4.923-5.838 6.57-1.78 1.31-3.867 1.603-6.25.873-.247-.077-.564-.397-.65-.658-.675-2.037-2.177-3.258-3.702-4.276-2.653-1.77-5.287-3.67-7.833-5.506-.876-.63-1.75-1.262-2.627-1.888l1.834.592.208-.655-.213-.07a19.98 19.98 0 0 0-.57-.176c-.434-.13-.88-.263-1.288-.45-.22-.1-.415-.287-.62-.485-.047-.045-.09-.09-.138-.132l.12-.165c.163-.228.317-.443.506-.54.44-.23.894-.34 1.387-.34.84 0 1.667.325 2.433.674 1.8.82 3.69 1.105 5.632.847 2.854-.38 4.72-1.49 5.87-3.496.904-1.577.798-2.726-.375-4.098-.418-.49-.856-.948-1.32-1.433-.207-.216-.417-.435-.628-.66l-.342-.367-.05.5c-.4 4.193-2.353 6.366-5.46 6.02.105-.09.21-.18.315-.268.516-.436 1.004-.848 1.417-1.344.762-.91 1.623-1.943 2.146-3.083.47-1.02.475-2.072.02-2.958-.473-.924-1.38-1.56-2.558-1.79-.854-.166-1.636-.21-2.314-.125-2.094.257-4.058-.046-6.042-.934-1.15-.515-2.37-.903-3.553-1.28-.24-.076-.482-.152-.72-.23-.312-.1-.637-.112-.955-.125a6.84 6.84 0 0 1-.407-.024l-.165-.016-.272.635.192.094c.153.075.303.157.452.24.337.186.687.378 1.068.492.745.223 1.512.42 2.252.614.62.16 1.263.327 1.888.507 2.034.584 3.3 1.575 3.664 2.863.36 1.29-.202 2.794-1.632 4.354a14.66 14.66 0 0 1-2.518 2.204c.005-.268.01-.536.018-.805.022-.945.047-1.922-.06-2.877a10.626 10.626 0 0 0-.92-3.305c-.352-.752-1.066-1.46-1.737-1.723-1.816-.71-3.16-1.927-4.127-2.91-1.313-1.332-2.562-1.496-3.955-.538-2.006 1.377-4.175 1.868-6.706 1.512a3.482 3.482 0 0 0-.578-.013c-.08.002-.16.005-.24.005h-.15l-.29.66.213.09c.165.07.33.153.503.244.394.203.802.414 1.24.444 1.44.104 2.82.104 4.097 0 1.61-.13 3.062.372 4.62 1.604 1.905 1.505 3.668 3.297 3.67 6.183.002 2.06-.74 3.424-2.34 4.297-.268.146-.522.316-.766.48l-.335.224-.152.1.233.637.182-.024c.5-.07 1-.14 1.502-.213 1.28-.185 2.604-.375 3.91-.502.33-.03.687.08 1.072.196.107.032.217.066.33.097-.382.843-.452 1.493-.216 1.98.213.44.674.737 1.372.882 3.19.66 5.055 2.84 7.03 5.147.667.778 1.365 1.54 2.074 2.292-1.13.05-2.915.114-3.732.124h-.22c-.456 0-.92-.015-1.37-.028a29.542 29.542 0 0 0-1.91-.022c-1.487.043-2.676.75-3.438 2.045-.957 1.63-.968 3.412-.872 4.78l.008.102.026.02c0 .107-.03.343-.05.506-.072.534-.095.755.066.88l.228.177.117-.265c.863-1.945 1.864-2.698 2.46-3.148.12-.09.222-.167.304-.237.41-.356.426-.72.44-1.014.014-.273.022-.438.323-.61.414-.238 2.238-.6 3.706-.893 1.193-.237 2.225-.442 2.6-.586.45-.17.723-.248.905-.297.446-.124.482-.166.824-.688l.156-.238c.667.697 1.34 1.386 2.003 2.062.918.932 1.863 1.895 2.768 2.862.094.1.213.15.32.19.45 3.763.754 7.766-.654 11.76-.583 1.658-1.336 3.52-2.134 5.494-1.4 3.467-2.847 7.052-3.604 10.06-.53 2.102-3.377 4.125-5.264 5.463l-.18.127c-1.495 1.063-1.908 1.183-3.136 1.543-.31.09-.67.196-1.108.334-.503.16-1.3.238-2.37.238-2.164 0-4.806-.33-5.564-.432-2.354-.315-4.935-4.41-5.938-6.156-3.542-6.176-4.55-9.946-6.172-16.62-.977-4.022-.992-8.394-.05-14.183zm36.502.392c.347.225.675.437 1.01.637 2.634 1.578 5.185 1.373 7.345-.59 1.147-1.042 2.212-2.207 3.242-3.333.475-.52.965-1.054 1.455-1.57.12-.125.248-.24.423-.4a.622.622 0 0 0 .037-.034l.14.888c.194 1.258.38 2.447.542 3.63.02.147-.053.383-.177.572-1.642 2.538-4.837 4.178-8.136 4.178-1.38 0-2.704-.3-3.833-.868-.493-.248-.928-.604-1.39-.98-.183-.15-.367-.302-.554-.445l-.236-1.77c.044.03.087.057.13.085zM78.352 50.026c1.106-.748 2.295-.858 3.336-.858.458 0 .93.026 1.393.055-.91.596-1.977.867-3.38.867-.43 0-.866-.025-1.348-.064zm59.193 46.092c-.874.086-1.776.17-2.65.17-1.684 0-2.986-.315-4.17-1.018 1.355-.87 4.858-1.87 6.82-1.93v2.778zm-54.693 50.53c-.508.052-1 .077-1.468.077h-.002c-1.758 0-3.018-.36-3.604-1.025a8.265 8.265 0 0 1 1.7-.185c1.387 0 2.543.39 3.374 1.132z"/><path d="M34.845 115.74l-.797.264c-2 .662-2.63 1.393-2.503 2.89l.044.526 3.255-3.68zM119.614 80.93c-1.587 0-3.057-.56-4.37-1.663-.115-.1-.232-.198-.35-.298-.512-.44-1.042-.894-1.626-1.256-.483-.302-1.017-.528-1.532-.748a27 27 0 0 1-.67-.293l-.19-.088-.34.604.13.12c.28.265.56.53.842.793.615.577 1.23 1.154 1.837 1.738 1.41 1.357 3.153 2.044 5.186 2.044h.104c.783-.01 1.602-.072 2.503-.19 2.312-.3 5.015-.794 7.52-2.162 2.12-1.158 2.974-3.095 2.28-5.182-.308-.928-.786-1.807-1.25-2.655-.205-.376-.417-.764-.61-1.15l-.093-.19-.672.285.026.174.134.863c.098.62.198 1.26.285 1.893.243 1.794 0 4.203-2.55 5.49-1.374.694-3.018 1.25-5.025 1.695a7.297 7.297 0 0 1-1.568.176zM107.403 95.116l.155-.038c.706-.17 1.422-.372 2.117-.565 1.864-.522 3.792-1.06 5.663-1.06 1.766 0 3.317.484 4.74 1.485l.024.156h.192l.278.205-.003-.41.038-.127-.044-.032c-.063-1.113-.874-1.652-1.582-1.998-1.872-.914-3.99-1.24-6.52-.994-1.263.122-2.63.453-4.18 1.013-.16.06-.338.096-.51.132-.4.082-.813.168-.96.526-.145.345.007.815.503 1.573l.088.136zM103.028 119.18c1.354 0 2.54.245 3.726.772l.84.374-.57-.72c-.772-.976-1.072-1.65-.973-2.188.084-.45.473-.868 1.222-1.31l-.2-.405c-1.572.635-2.985 1.16-4.363 1.16-.687 0-1.305-.13-1.896-.396l-.208-.094-1.4 3.235.41-.066c1.1-.18 2.244-.363 3.412-.363zM113.292 97.998c2.506 0 5.643-.45 6.23-1.717l.243-.526-.536.224c-1.555.646-3.58.988-5.855.988-2.03 0-4.194-.283-5.94-.778l-.715-.203.482.566c.905 1.07 3.846 1.448 6.09 1.448zM88.194 97.553c.166 0 .34-.124.477-.252.493.052 1.186.008 1.83-.04.424-.034.86-.067 1.25-.067.403 0 .712.036.946.11l.218.068.194-.628-.205-.07c-.55-.194-1.164-.21-1.747-.21h-.504c-.544 0-1.115-.013-1.597-.182l-.188-.067-.09.18a2.157 2.157 0 0 1-.276.428 2.116 2.116 0 0 1-.23-.055l-.186-.06-.086.175c-.075.15-.16.37-.06.536a.297.297 0 0 0 .256.137z"/></g><g fill="#18355B"><path d="M210.724 96.137c-1.816 2.467-4.175 4.47-7.073 6.006-2.898 1.534-6.382 2.302-10.45 2.302-3.506 0-6.74-.593-9.704-1.783s-5.518-2.858-7.66-5c-2.14-2.14-3.82-4.695-5.028-7.66-1.213-2.96-1.82-6.218-1.82-9.768 0-3.59.617-6.87 1.85-9.835 1.235-2.962 2.944-5.495 5.13-7.595 2.184-2.097 4.77-3.73 7.756-4.9 2.985-1.168 6.23-1.75 9.735-1.75 1.558 0 3.137.15 4.738.453 1.6.303 3.137.757 4.608 1.36a19.137 19.137 0 0 1 4.023 2.242 14.63 14.63 0 0 1 3.116 3.082l-5.063 3.897c-1.125-1.56-2.715-2.85-4.77-3.865-2.057-1.015-4.275-1.523-6.654-1.523-2.684 0-5.096.486-7.237 1.46-2.142.973-3.97 2.303-5.485 3.99-1.515 1.687-2.684 3.645-3.504 5.874-.822 2.23-1.234 4.6-1.234 7.108 0 2.598.4 5.02 1.2 7.27.802 2.25 1.948 4.21 3.44 5.874 1.494 1.667 3.31 2.978 5.453 3.927 2.142.954 4.533 1.43 7.173 1.43 2.596 0 4.955-.52 7.075-1.56 2.12-1.038 3.873-2.553 5.258-4.54l5.126 3.502zM269.34 80.234c0 3.55-.617 6.807-1.85 9.77-1.233 2.964-2.936 5.518-5.095 7.66-2.167 2.14-4.74 3.808-7.726 4.998-2.986 1.19-6.23 1.783-9.736 1.783s-6.74-.593-9.706-1.783c-2.964-1.19-5.527-2.858-7.69-5-2.165-2.14-3.853-4.695-5.062-7.66-1.214-2.96-1.82-6.218-1.82-9.768 0-3.59.605-6.87 1.82-9.835 1.21-2.962 2.897-5.495 5.062-7.595 2.163-2.097 4.726-3.73 7.69-4.9 2.966-1.168 6.2-1.75 9.706-1.75s6.75.582 9.735 1.75c2.985 1.17 5.56 2.803 7.725 4.9 2.16 2.1 3.862 4.633 5.096 7.594 1.232 2.964 1.85 6.244 1.85 9.834zm-6.946 0c0-2.507-.414-4.88-1.235-7.108-.82-2.23-1.992-4.187-3.505-5.874-1.514-1.688-3.343-3.017-5.483-3.99-2.144-.974-4.556-1.46-7.238-1.46-2.64 0-5.03.486-7.173 1.46-2.14.973-3.957 2.303-5.452 3.99-1.492 1.687-2.65 3.645-3.47 5.874-.823 2.23-1.235 4.6-1.235 7.108 0 2.554.412 4.955 1.234 7.206.82 2.25 1.99 4.21 3.504 5.874 1.515 1.666 3.333 2.975 5.454 3.927 2.12.953 4.5 1.428 7.14 1.428 2.638 0 5.04-.475 7.204-1.427 2.165-.95 4.004-2.26 5.518-3.926 1.514-1.665 2.684-3.623 3.504-5.874.82-2.25 1.234-4.652 1.234-7.206zM291.017 103.277h-6.428V57.322h6.427v45.955zM341.063 94.062h.133v-36.74h6.424v45.955h-8.113L315.234 65.76h-.134v37.517h-6.427V57.322h8.373l24.017 36.74zM371.698 97.564h24.017v5.713h-30.44V57.322h29.468v5.646H371.7V76.73h21.68v5.516H371.7l-.002 15.318zM433.624 65.825c-.912-1.256-2.146-2.28-3.703-3.083-1.555-.8-3.308-1.2-5.256-1.2-1.04 0-2.09.14-3.148.422-1.06.28-2.02.734-2.89 1.36a7.56 7.56 0 0 0-2.108 2.34c-.542.93-.812 2.042-.812 3.34 0 1.256.253 2.307.75 3.15a6.682 6.682 0 0 0 2.01 2.14c.846.585 1.84 1.083 2.986 1.493 1.146.414 2.37.834 3.667 1.266a75.126 75.126 0 0 1 4.735 1.625c1.603.604 3.053 1.405 4.352 2.4s2.357 2.24 3.18 3.73c.82 1.494 1.234 3.39 1.234 5.68 0 2.383-.444 4.448-1.332 6.2-.885 1.754-2.066 3.203-3.535 4.348-1.475 1.15-3.17 2.002-5.094 2.565-1.927.562-3.907.843-5.942.843-2.897 0-5.7-.563-8.406-1.687-2.704-1.124-4.943-2.79-6.717-4.997l5-4.22c1.077 1.6 2.53 2.9 4.35 3.894 1.813.996 3.783 1.493 5.905 1.493 1.078 0 2.16-.15 3.244-.454a9.082 9.082 0 0 0 2.952-1.43 7.788 7.788 0 0 0 2.175-2.434c.562-.975.847-2.154.847-3.537 0-1.384-.294-2.54-.878-3.473-.584-.93-1.377-1.72-2.368-2.368-1-.65-2.153-1.2-3.475-1.654-1.32-.458-2.717-.92-4.187-1.398a36.2 36.2 0 0 1-4.35-1.588 15.055 15.055 0 0 1-3.83-2.4c-1.126-.975-2.033-2.178-2.726-3.605-.692-1.427-1.04-3.202-1.04-5.32 0-2.293.465-4.262 1.4-5.91a12.696 12.696 0 0 1 3.63-4.087c1.494-1.08 3.184-1.87 5.064-2.368a22.107 22.107 0 0 1 5.678-.747c2.686 0 5.194.476 7.53 1.428 2.336.95 4.218 2.23 5.646 3.828l-4.538 4.415zM477.046 65.825c-.91-1.256-2.145-2.28-3.702-3.083-1.557-.8-3.31-1.2-5.258-1.2-1.038 0-2.09.14-3.146.422a8.68 8.68 0 0 0-2.892 1.36 7.558 7.558 0 0 0-2.106 2.34c-.542.93-.813 2.042-.813 3.34 0 1.256.25 2.307.748 3.15a6.697 6.697 0 0 0 2.01 2.14c.848.585 1.84 1.083 2.986 1.493 1.146.414 2.372.834 3.67 1.266a75.566 75.566 0 0 1 4.735 1.625c1.603.604 3.05 1.405 4.35 2.4s2.356 2.24 3.18 3.73c.82 1.494 1.234 3.39 1.234 5.68 0 2.383-.446 4.448-1.33 6.2-.89 1.754-2.07 3.203-3.538 4.348-1.475 1.15-3.17 2.002-5.095 2.565-1.924.562-3.905.843-5.94.843-2.896 0-5.7-.563-8.404-1.687s-4.945-2.79-6.717-4.997l4.997-4.22c1.078 1.6 2.53 2.9 4.35 3.894 1.814.996 3.785 1.493 5.907 1.493 1.076 0 2.16-.15 3.243-.454a9.09 9.09 0 0 0 2.952-1.43 7.8 7.8 0 0 0 2.174-2.434c.563-.974.846-2.154.846-3.537 0-1.384-.293-2.54-.878-3.473-.582-.93-1.375-1.72-2.368-2.368-1-.65-2.153-1.2-3.474-1.654-1.32-.458-2.717-.92-4.187-1.398a36.184 36.184 0 0 1-4.35-1.588 14.99 14.99 0 0 1-3.827-2.4c-1.128-.975-2.035-2.178-2.73-3.605-.687-1.427-1.037-3.202-1.037-5.32 0-2.293.466-4.262 1.397-5.91a12.707 12.707 0 0 1 3.63-4.087c1.495-1.08 3.185-1.87 5.066-2.368a22.093 22.093 0 0 1 5.677-.747c2.686 0 5.195.476 7.53 1.428 2.336.95 4.218 2.23 5.647 3.828l-4.54 4.415zM499.5 103.277h-7.14l19.925-45.955h5.845l19.73 45.955h-7.27l-4.674-11.294h-21.81l-4.605 11.294zm6.882-16.942h17.2l-8.567-21.55-8.633 21.55z"/></g><g fill="#18355B"><path d="M182.924 148.524c-.298 0-.643-.01-1.035-.04-.395-.022-.797-.06-1.207-.102-.41-.044-.8-.095-1.166-.16a9.88 9.88 0 0 1-.942-.196v-17.472c.314-.088.663-.16 1.048-.22.382-.064.78-.117 1.19-.16.41-.044.813-.074 1.207-.09.392-.02.755-.028 1.087-.028.978 0 1.907.08 2.79.235.882.16 1.654.42 2.318.785.664.367 1.19.852 1.585 1.453.393.6.59 1.348.59 2.237 0 .976-.25 1.808-.747 2.497a3.808 3.808 0 0 1-2.005 1.428 6.1 6.1 0 0 1 1.442.52c.435.23.82.523 1.152.882.33.358.59.796.77 1.31.185.517.276 1.132.276 1.852 0 1.71-.68 3.02-2.042 3.922-1.363.9-3.467 1.348-6.312 1.348zm-2.57-10.398h3.46c.645 0 1.256-.05 1.833-.145.575-.095 1.078-.267 1.507-.52a2.76 2.76 0 0 0 1.007-1.018c.245-.427.367-.968.367-1.63 0-.59-.13-1.09-.392-1.5a2.972 2.972 0 0 0-1.113-1.005c-.482-.26-1.053-.447-1.716-.56a13.29 13.29 0 0 0-2.2-.17c-.646 0-1.193.017-1.64.053a11.81 11.81 0 0 0-1.11.13v6.366zm0 1.518v7.18c.265.034.657.072 1.18.116.523.043 1.057.065 1.6.065.8 0 1.582-.05 2.343-.16.76-.102 1.43-.297 2.003-.575a3.62 3.62 0 0 0 1.39-1.157c.35-.492.523-1.122.523-1.894 0-.704-.122-1.286-.366-1.75a2.783 2.783 0 0 0-1.048-1.103c-.455-.273-1.01-.462-1.664-.566a13.758 13.758 0 0 0-2.188-.158l-3.773.002zM207.128 130.214h1.782v18.153h-1.782v-18.153zM237.202 130.214v1.545h-5.815v16.607h-1.782V131.76h-5.815v-1.545h13.412zM259.206 148.762a8.388 8.388 0 0 1-3.26-.63 7.4 7.4 0 0 1-2.62-1.834c-.742-.8-1.327-1.794-1.755-2.973-.427-1.178-.642-2.527-.642-4.047s.23-2.87.695-4.048c.462-1.178 1.078-2.17 1.846-2.972a7.605 7.605 0 0 1 2.67-1.82 8.353 8.353 0 0 1 3.17-.617c.684 0 1.3.045 1.862.133a10.355 10.355 0 0 1 2.54.72c.295.13.525.248.68.354l-.575 1.546c-.438-.263-.99-.52-1.663-.774-.672-.252-1.504-.38-2.5-.38-1.138 0-2.127.193-2.976.575a5.895 5.895 0 0 0-2.134 1.625c-.578.698-1.01 1.53-1.3 2.49-.285.96-.43 2.025-.43 3.196 0 1.204.145 2.292.43 3.26.29.97.714 1.794 1.272 2.476a5.578 5.578 0 0 0 2.057 1.572c.81.366 1.74.55 2.79.55 1.154 0 2.118-.107 2.894-.326.776-.218 1.367-.443 1.77-.67l.497 1.52c-.124.088-.33.19-.63.302a12.353 12.353 0 0 1-2.698.656c-.594.075-1.258.116-1.99.116zM295.726 139.278c0 1.556-.227 2.925-.68 4.113-.458 1.19-1.07 2.18-1.846 2.974a7.623 7.623 0 0 1-2.713 1.794 8.942 8.942 0 0 1-3.276.604 8.926 8.926 0 0 1-3.272-.604c-1.032-.4-1.934-1-2.71-1.794-.776-.793-1.395-1.785-1.85-2.973-.453-1.186-.678-2.556-.678-4.112 0-1.554.225-2.92.68-4.1.453-1.178 1.072-2.166 1.848-2.96a7.635 7.635 0 0 1 2.71-1.795 8.925 8.925 0 0 1 3.273-.602c1.155 0 2.246.2 3.277.603a7.713 7.713 0 0 1 2.713 1.794c.776.796 1.388 1.784 1.846 2.96.453 1.18.68 2.547.68 4.1zm-1.886 0c0-1.222-.16-2.32-.47-3.287-.316-.97-.763-1.793-1.34-2.474a5.738 5.738 0 0 0-2.08-1.56c-.815-.358-1.726-.538-2.74-.538-1.012 0-1.925.18-2.736.54a5.7 5.7 0 0 0-2.083 1.558c-.574.68-1.02 1.503-1.333 2.475-.317.97-.474 2.066-.474 3.288s.156 2.32.474 3.287c.312.97.76 1.794 1.334 2.476a5.827 5.827 0 0 0 2.084 1.573c.81.366 1.724.55 2.736.55 1.014 0 1.925-.184 2.74-.55a5.852 5.852 0 0 0 2.08-1.572c.577-.68 1.023-1.503 1.34-2.475.31-.968.47-2.065.47-3.287zM311.758 130.214h1.78v18.153h-1.78v-18.153zM342.67 148.368a57.857 57.857 0 0 0-1.268-2.15 89.78 89.78 0 0 0-1.696-2.628 634.735 634.735 0 0 0-1.948-2.876c-.677-.99-1.35-1.953-2.02-2.888a71.21 71.21 0 0 0-1.97-2.63 95.258 95.258 0 0 0-1.708-2.12v15.292h-1.756v-18.153h1.416a67.296 67.296 0 0 1 2.864 3.446 138.455 138.455 0 0 1 2.995 3.985c.978 1.354 1.89 2.677 2.738 3.97a63.83 63.83 0 0 1 2.09 3.373v-14.773h1.756v18.153h-1.494zM389.474 132.44c.842 2.806 1.68 5.352 2.52 7.633a127.457 127.457 0 0 0 2.48 6.276c.603-2.06 1.203-4.49 1.815-7.28.61-2.793 1.197-5.746 1.76-8.856h1.757c-.32 1.87-.646 3.623-.964 5.256a111.05 111.05 0 0 1-1.01 4.662c-.353 1.477-.72 2.89-1.106 4.243a77.028 77.028 0 0 1-1.266 3.992h-1.917c-.41-1-.82-1.996-1.23-2.992-.41-.995-.817-2.02-1.222-3.076-.4-1.057-.807-2.16-1.212-3.313-.403-1.15-.81-2.373-1.22-3.665a123.65 123.65 0 0 1-1.234 3.675 134.553 134.553 0 0 1-2.43 6.395c-.41.995-.83 1.987-1.257 2.975h-1.88a68.136 68.136 0 0 1-1.302-3.998 77.957 77.957 0 0 1-1.104-4.246c-.344-1.474-.666-3.03-.978-4.66a323.21 323.21 0 0 1-.937-5.25h1.833c.27 1.534.543 3.04.82 4.515.272 1.476.568 2.902.875 4.284.307 1.378.62 2.686.94 3.917.318 1.234.64 2.372.965 3.42.747-1.937 1.548-4.034 2.41-6.296.858-2.258 1.706-4.796 2.543-7.613h1.554zM427.18 148.368c-.35-.89-.667-1.75-.957-2.573-.29-.823-.568-1.624-.835-2.404h-8.868c-.303.786-.603 1.59-.893 2.413-.29.823-.596 1.68-.918 2.565h-1.86c.69-1.89 1.34-3.65 1.952-5.284a181.66 181.66 0 0 1 1.807-4.632c.59-1.455 1.174-2.855 1.755-4.198.58-1.343 1.19-2.69 1.83-4.04h1.57a97.73 97.73 0 0 1 1.823 4.034 250.543 250.543 0 0 1 1.75 4.2 168.59 168.59 0 0 1 1.797 4.636 469.49 469.49 0 0 0 2.008 5.284h-1.963zm-6.248-16.11c-.658 1.506-1.3 3.038-1.92 4.588a228.968 228.968 0 0 0-1.935 5.024h7.75a178.235 178.235 0 0 0-3.895-9.612zM454.11 146.823v1.544h-10.324v-18.153h1.783v16.61h8.54zM479.31 146.823v1.544h-10.32v-18.153h1.78v16.61h8.54zM494.19 148.368v-18.153h10.48v1.545h-8.7v6.313h7.755v1.52h-7.755v7.23h9.38v1.545h-11.16zM532.305 130.214v1.545h-5.813v16.607h-1.784V131.76h-5.815v-1.545h13.412z"/></g></svg>