<?xml version="1.0" encoding="utf-8"?>
<!-- Generator: Adobe Illustrator 19.0.1, SVG Export Plug-In . SVG Version: 6.00 Build 0)  -->
<svg version="1.1" id="Layer_1" xmlns="http://www.w3.org/2000/svg" xmlns:xlink="http://www.w3.org/1999/xlink" x="0px" y="0px"
	 viewBox="0 0 701 169" style="enable-background:new 0 0 701 169;" xml:space="preserve">
<style type="text/css">
	.st0{fill:#E9A520;}
	.st1{fill:#DEE1F3;}
	.st2{fill:#EBAC32;}
	.st3{fill:#EFC36C;}
	.st4{fill:#15A9E0;}
	.st5{fill:#16A9E0;}
	.st6{fill:#19AAE0;}
	.st7{fill:#F2CC82;}
</style>
<g>
	<g>
		<path class="st0" d="M111.6,113.9c-7.4-0.4-14.9,0.3-22.3-1.5c-9.9-2.5-18.4-7.6-26.5-13.4c-6.2-4.5-12.3-9.1-18.6-13.4
			c-7.6-5.3-16-7.8-25.3-7.4C13,78.4,7,78.1,1,78c0-0.3,0-0.7,0-1c1.6-7,1.6-14,0-21c0-0.3,0-0.7,0-1c4.6-0.1,9.3-0.6,13.9-0.1
			c16.3,1.8,28.9-5.9,40.6-15.6c16.3-13.4,34.2-22.3,56-20.2c0.5-0.7,0.2-1-0.5-1.2c-3-3-5.8-6.2-9.1-9c-2.8-2.4-3.3-4.8-2-8
			c0.7,0,1.3,0,2,0c5.7,1.6,11.3,1.6,17,0c0.3,0,0.7,0,1,0c10,7.2,17.8,16.8,26.6,25.3c3.5,3.4,3.5,6.4,0,10
			c-6.9,7-13.8,14-20.8,20.9c-2.6,2.6-5.7,3.9-9.5,3.7c-4.2-0.1-8.3-0.1-12.5-0.1c-1.9,0-3.8-0.1-4.7-2.1c-0.9-2.2,0.9-3.4,2.1-4.6
			c3.4-3.4,6.8-6.7,10.8-10.7c-10.2-1.1-19.1-0.4-27.5,4.6c-8.5,5-16,11.4-24.1,17c-1.9,1.3-1.6,2,0.1,3.2
			C68.1,73.4,75.5,78.8,83,84c8.5,5.8,18.1,6.9,29.4,5.6c-4.3-4.1-7.9-7.6-11.5-11.1c-1.2-1.2-2.6-2.4-1.6-4.3c0.8-1.7,2.5-2,4.2-2
			c4.5,0,9,0,13.5,0.1c3.5,0.1,6.4,1.4,8.9,3.9c6.8,6.9,13.7,13.7,20.4,20.5c3.7,3.8,3.8,6.6,0.2,10.3c-6.8,6.9-13.6,13.7-20.4,20.6
			c-2.6,2.6-5.7,4-9.4,4c-4.7,0-9.3-0.2-14-0.3c-1.4,0-2.7-0.3-3.4-1.6c-0.9-1.6,0-2.9,1.1-4c3.5-3.5,7.1-7,10.6-10.6
			C111.8,114.9,112.1,114.6,111.6,113.9z"/>
		<path class="st1" d="M633,169c0-3.3,0.2-6.7-0.1-10c-0.3-3.9,0.9-5.3,5-5.1c9.6,0.3,19.3,0,28.7-1.9c10.7-2.2,18.2-11.7,18.3-22.6
			c0.2-22.3,0-44.7,0.1-67c0-2.2,0.2-4.5-3.1-4.3c-9.5,0.5-18.9-0.4-28.4,0.8c-15.9,2.1-23.4,19.2-21,33.1
			c3.4,20.1,25.5,26.3,42.4,17c3.9-2.1,4.2-1.3,4.2,2.5c0,11.8-3.3,15.4-17.2,16.5c-20,1.5-39.4-10-44.2-30.9
			c-5.5-23.9,6.9-46.1,32-52.6c1.7-0.4,3.6-0.4,5.5-0.4c15.3,0,30.7,0,46,0c0,29,0,58,0,87c-0.3,0.4-0.8,0.8-0.8,1.2
			c-2.1,18-13.2,28-29.4,33.8c-3.9,1.4-8.1,1.1-11.8,3C650.3,169,641.7,169,633,169z"/>
		<path class="st2" d="M1,56c1.6,7,1.6,14,0,21C1,70,1,63,1,56z"/>
		<path class="st3" d="M119,1c-5.7,1.6-11.3,1.6-17,0C107.7,1,113.3,1,119,1z"/>
		<path class="st4" d="M450.4,43.3c-6.6,11.4-12.7,22.1-19,32.6c-1.7,2.9-1.9,4.2,1.7,5.6c10.1,4,14.8,12.4,16.7,22.6
			c1.3,6.9,0.9,13.9,1,20.9c0,2.2-0.7,3.1-2.9,2.9c-0.3,0-0.7,0-1,0c-11.8,0.4-12.1,0.4-11.8-11.4c0.6-22.2-16.2-27.8-32.2-26
			c-2.9,0.3-2.9,1.9-2.9,4.1c0,9.7-0.1,19.3,0.1,29c0.1,3.5-1,4.5-4.5,4.4c-11-0.1-11,0.1-11-10.8c0-36,0.1-71.9-0.1-107.9
			c0-3.9,0.9-5.1,4.9-5.1c10.5,0.2,10.5,0,10.5,10.4c0,19,0.1,38-0.1,56.9c0,3.5,0.6,4.4,4.7,5.1c9.3,1.6,12.8-3.3,16.1-10.4
			c3.2-6.8,7.2-13.1,10.6-19.8c1.2-2.4,2.8-3.4,5.5-3.2C441.1,43.5,445.3,43.3,450.4,43.3z"/>
		<path class="st5" d="M305.2,86c-0.1,24.9-19,44-43.5,43.9c-24.2-0.2-42.8-19.7-42.7-44.7c0.1-24.7,19-43.8,43.2-43.6
			C286.4,41.7,305.3,61.2,305.2,86z M289.3,86.1c0.1-15-7.8-26.3-20.3-28.9c-13.8-2.9-26,2.8-31.3,14.6c-6,13.3-2.4,30.3,8.2,38.2
			c2.6,1.9,5.4,3.2,8.5,4C273.7,118.9,289.2,106.5,289.3,86.1z"/>
		<path class="st1" d="M556.8,42c24.1-1.1,43.7,19.9,43.4,44c-0.3,24-18,44-43.4,43.8c-24.5-0.1-42.7-19.3-42.8-44.4
			C513.9,60.7,533.5,40.8,556.8,42z M557.1,57c-16.7-1.4-27.3,12.4-27.1,28.6c0.2,17.6,10.8,29.2,26.9,29.4
			c16.9,0.2,27.4-13.7,27.4-28.9C584.2,69.3,573.5,55.6,557.1,57z"/>
		<path class="st4" d="M159.7,58.2c2.3-4.8,4.1-8.7,6-12.5c0.3-0.7,1-1.9,1.4-1.9c5.8,0.2,4.6-4.1,5.1-7.5
			c2.3-16.4,16.3-29.2,34.2-31.3c8.5-1,8.1-1,8.6,7.6c0.3,5.4-1.3,7-6.6,7.4c-12.6,1-20,8.6-20.7,19.7c-0.2,2.9,0.7,3.8,3.5,3.7
			c4.5-0.2,9,0,13.5-0.1c2.4-0.1,3,0.8,3.1,3.2c0.5,11.7,0.6,11.7-11.1,11.7c-9.1,0-9.1,0-9.1,9.2c0,18.3-0.1,36.7,0.1,55
			c0.1,4.2-0.7,5.8-5.3,5.7c-10.8-0.4-10.8-0.1-10.8-11.1c0-17.7-0.2-35.3,0.1-53c0.1-4.6-1.1-6.5-5.8-5.8
			C164.1,58.5,162.3,58.2,159.7,58.2z"/>
		<path class="st1" d="M485,52.2c0,13.7,0.1,27.3-0.1,41c0,3.4,0.6,6.6,1.3,9.8c1.2,5.7,6.9,9.9,14,9.8c4.2,0,4.9,1.6,4.9,5.3
			c-0.1,10.2,0,9.9-10,9c-16.4-1.5-24.2-10.8-25.2-27c-1.8-30.4-0.2-60.9-0.9-91.3c-0.1-3.3,1-4.7,4.6-4.8
			c11.1-0.3,11.5,0,11.5,10.8C485,27.2,485,39.7,485,52.2z"/>
		<path class="st6" d="M321.3,97.8c0.3-8.2-0.5-18,0.6-27.9c1.9-16.6,9.9-24.8,26.6-26.2c7.3-0.6,14.6-0.3,22-0.5
			c2.4-0.1,3.1,0.9,3.2,3.2c0.7,11.9,0.8,11.8-11,11.9c-4.5,0-9-0.1-13.5,0.3c-6.7,0.7-10,4-11.4,10.6c-0.8,4.1-0.9,8.3-0.9,12.4
			c0,14-0.1,28,0.1,42c0,3.2-0.7,4.3-4.1,4.3c-11.7,0-11.7,0.2-11.7-11.7C321.3,110.7,321.3,105,321.3,97.8z"/>
		<path class="st7" d="M111.6,113.9c0.5,0.7,0.2,1-0.5,1.2C111.2,114.7,111.4,114.3,111.6,113.9z"/>
		<path class="st7" d="M111.6,19.1c-0.2-0.4-0.3-0.8-0.5-1.2C111.8,18.1,112.1,18.5,111.6,19.1z"/>
	</g>
</g>
</svg>
