<?xml version="1.0" encoding="utf-8"?>
<!-- Generator: Adobe Illustrator 19.2.1, SVG Export Plug-In . SVG Version: 6.00 Build 0)  -->
<!DOCTYPE svg PUBLIC "-//W3C//DTD SVG 1.1//EN" "http://www.w3.org/Graphics/SVG/1.1/DTD/svg11.dtd">
<svg version="1.1" id="Layer_1" xmlns="http://www.w3.org/2000/svg" xmlns:xlink="http://www.w3.org/1999/xlink" x="0px" y="0px"
	 viewBox="0 0 166.5 141.7" style="enable-background:new 0 0 166.5 141.7;" xml:space="preserve">
<style type="text/css">
	.st0{fill:#19519A;}
	.st1{fill:#165098;}
	.st2{fill:#5C9DD5;}
</style>
<path class="st0" d="M17.9,116.6c-1.1-0.4-2.1-1.1-2.9-2c-0.8-0.9-1.2-2.1-1.2-3.6c0-0.9,0.2-1.7,0.6-2.5c0.4-0.7,1-1.4,1.7-1.9
	c0.7-0.5,1.5-0.9,2.4-1.2c0.9-0.3,1.9-0.4,3-0.4c1.2,0,2.2,0.1,3.2,0.3c0.9,0.2,1.8,0.5,2.6,0.8c0.7,0.3,1,0.8,1,1.4
	c0,0.4-0.2,0.7-0.5,1c-0.3,0.2-0.7,0.4-1.1,0.4c-0.2,0-0.4,0-0.6-0.1c-1.5-0.6-3.1-1-4.9-1c-0.5,0-1,0.1-1.4,0.2
	c-0.5,0.1-0.9,0.3-1.3,0.5c-0.4,0.2-0.7,0.5-1,0.9c-0.3,0.4-0.4,0.9-0.4,1.4c0,0.9,0.3,1.6,0.8,2c0.5,0.5,1.1,0.8,1.6,1l4.5,1.7
	c1.4,0.5,2.6,1.3,3.4,2.3c0.9,1,1.3,2.2,1.3,3.5c0,0.9-0.2,1.8-0.6,2.6c-0.4,0.8-0.9,1.5-1.6,2.1c-0.7,0.6-1.5,1-2.4,1.4
	c-0.9,0.3-1.9,0.5-3,0.5c-1.2,0-2.4-0.1-3.4-0.3c-1-0.2-2-0.5-2.9-0.9c-0.6-0.3-1-0.7-1-1.4c0-0.4,0.1-0.7,0.5-1
	c0.3-0.3,0.7-0.4,1.2-0.4c0.1,0,0.2,0,0.3,0c0.1,0,0.2,0.1,0.3,0.1c0.8,0.3,1.6,0.6,2.4,0.8c0.8,0.2,1.7,0.3,2.7,0.3
	c1.1,0,2.1-0.3,2.9-0.9c0.9-0.6,1.3-1.4,1.3-2.4c0-0.9-0.2-1.7-0.7-2.2c-0.5-0.5-1.2-1-2.3-1.4L17.9,116.6z"/>
<path class="st0" d="M34.4,97.8c0-0.4,0.2-0.8,0.5-1.1c0.3-0.3,0.7-0.4,1.1-0.4c0.4,0,0.8,0.1,1.1,0.4c0.3,0.3,0.5,0.6,0.5,1.1v7.7
	h5.5c0.4,0,0.8,0.1,1.1,0.4c0.3,0.3,0.5,0.6,0.5,1c0,0.4-0.2,0.7-0.5,1c-0.3,0.3-0.7,0.4-1.1,0.4h-5.5v13.7c0,0.9,0.3,1.7,0.9,2.2
	c0.6,0.5,1.3,0.8,2.1,0.8c0.3,0,0.8,0,1.3-0.1c0.5-0.1,0.9-0.1,1.2-0.1c0.3,0,0.7,0.1,1,0.4c0.3,0.2,0.5,0.6,0.5,1
	c0,0.4-0.1,0.7-0.4,0.9c-0.2,0.3-0.6,0.4-1,0.5c-0.4,0.1-0.9,0.1-1.4,0.2c-0.5,0-0.9,0.1-1.4,0.1c-0.9,0-1.7-0.1-2.4-0.4
	c-0.8-0.3-1.4-0.7-2-1.2c-0.6-0.5-1-1.2-1.3-1.9c-0.3-0.7-0.5-1.6-0.5-2.4V97.8z"/>
<path class="st0" d="M52.1,117.5v2.5c0,1.6,0.5,2.9,1.4,3.8c1,1,2.3,1.5,4,1.5c1,0,1.9-0.1,2.8-0.4s1.8-0.5,2.6-0.9
	c0.2-0.1,0.4-0.1,0.7-0.1c0.4,0,0.8,0.1,1.1,0.4c0.3,0.3,0.5,0.6,0.5,1c0,0.6-0.3,1.1-0.9,1.3c-1.1,0.5-2.2,0.9-3.3,1.1
	c-1.1,0.2-2.3,0.3-3.5,0.3c-1.3,0-2.5-0.2-3.6-0.6c-1.1-0.4-2-0.9-2.8-1.6s-1.3-1.5-1.8-2.5c-0.4-1-0.6-2.1-0.6-3.3v-6.8
	c0-1.2,0.2-2.3,0.6-3.3c0.4-1,1-1.8,1.8-2.5s1.7-1.3,2.8-1.6c1.1-0.4,2.3-0.6,3.6-0.6c1.3,0,2.5,0.2,3.5,0.6c1.1,0.4,2,0.9,2.7,1.6
	c0.8,0.7,1.3,1.5,1.8,2.5c0.4,1,0.6,2.1,0.6,3.3v2.3c0,0.6-0.2,1.1-0.6,1.5c-0.4,0.4-1,0.6-1.6,0.6H52.1z M63,112.9
	c0-1.6-0.5-2.8-1.4-3.7c-1-0.9-2.3-1.3-4-1.3c-1.7,0-3,0.4-4,1.3c-1,0.9-1.4,2.1-1.4,3.7v1.8H63V112.9z"/>
<path class="st0" d="M74.4,117.5v2.5c0,1.6,0.5,2.9,1.4,3.8c1,1,2.3,1.5,4,1.5c1,0,1.9-0.1,2.8-0.4s1.8-0.5,2.6-0.9
	c0.2-0.1,0.4-0.1,0.7-0.1c0.4,0,0.8,0.1,1.1,0.4c0.3,0.3,0.5,0.6,0.5,1c0,0.6-0.3,1.1-0.9,1.3c-1.1,0.5-2.2,0.9-3.3,1.1
	c-1.1,0.2-2.3,0.3-3.5,0.3c-1.3,0-2.5-0.2-3.6-0.6c-1.1-0.4-2-0.9-2.8-1.6s-1.3-1.5-1.8-2.5c-0.4-1-0.6-2.1-0.6-3.3v-6.8
	c0-1.2,0.2-2.3,0.6-3.3c0.4-1,1-1.8,1.8-2.5s1.7-1.3,2.8-1.6c1.1-0.4,2.3-0.6,3.6-0.6c1.3,0,2.5,0.2,3.5,0.6c1.1,0.4,2,0.9,2.7,1.6
	s1.3,1.5,1.8,2.5c0.4,1,0.6,2.1,0.6,3.3v2.3c0,0.6-0.2,1.1-0.6,1.5c-0.4,0.4-1,0.6-1.6,0.6H74.4z M85.2,112.9c0-1.6-0.5-2.8-1.4-3.7
	c-1-0.9-2.3-1.3-4-1.3c-1.7,0-3,0.4-4,1.3c-1,0.9-1.4,2.1-1.4,3.7v1.8h10.9V112.9z"/>
<path class="st0" d="M119.5,112.4c0-0.6-0.1-1.2-0.4-1.8c-0.2-0.6-0.6-1-1-1.5c-0.4-0.4-0.9-0.8-1.5-1c-0.6-0.2-1.2-0.4-1.8-0.4
	c-1.7,0-3.3,0.5-4.7,1.5v17.2c0,0.4-0.1,0.8-0.4,1.1c-0.3,0.3-0.6,0.4-1,0.4c-0.4,0-0.8-0.1-1.1-0.4c-0.3-0.3-0.4-0.6-0.4-1.1V111
	c0-0.5-0.1-0.9-0.3-1.3c-0.2-0.4-0.5-0.7-0.9-1c-0.4-0.3-0.8-0.5-1.3-0.6c-0.5-0.1-1-0.2-1.5-0.2c-1.8,0-3.6,0.3-5.2,0.8v17.8
	c0,0.4-0.1,0.8-0.4,1.1c-0.3,0.3-0.7,0.4-1.1,0.4c-0.4,0-0.8-0.1-1.1-0.4c-0.3-0.3-0.4-0.6-0.4-1.1v-18.3c0-0.4,0.1-0.8,0.4-1.1
	c0.2-0.4,0.6-0.6,1-0.7c1.1-0.4,2.3-0.7,3.4-0.9c1.1-0.2,2.3-0.3,3.6-0.3c1.1,0,2.1,0.2,3,0.6c0.9,0.4,1.7,0.9,2.3,1.5
	c0.9-0.6,1.9-1.1,3-1.5c1.1-0.4,2.2-0.5,3.3-0.5c1,0,2,0.2,3,0.6c0.9,0.4,1.7,0.9,2.4,1.6c0.7,0.7,1.3,1.5,1.7,2.4
	c0.4,0.9,0.6,1.9,0.6,2.9v13.9c0,0.4-0.1,0.8-0.4,1.1s-0.7,0.4-1.1,0.4c-0.4,0-0.8-0.1-1.1-0.4c-0.3-0.3-0.4-0.6-0.4-1.1V112.4z"/>
<path class="st0" d="M132.2,100.3c-0.6,0-1.1-0.2-1.5-0.6c-0.4-0.4-0.6-0.9-0.6-1.4s0.2-1,0.6-1.4c0.4-0.4,0.9-0.6,1.5-0.6
	s1.1,0.2,1.5,0.6c0.4,0.4,0.6,0.9,0.6,1.4s-0.2,1-0.6,1.4C133.3,100.1,132.8,100.3,132.2,100.3z M130.6,106.6c0-0.4,0.2-0.8,0.5-1.1
	c0.3-0.3,0.7-0.4,1.1-0.4c0.4,0,0.8,0.1,1.1,0.4c0.3,0.3,0.5,0.6,0.5,1.1v19.9c0,0.4-0.2,0.8-0.5,1.1c-0.3,0.3-0.7,0.4-1.1,0.4
	c-0.4,0-0.8-0.1-1.1-0.4s-0.5-0.6-0.5-1.1V106.6z"/>
<path class="st0" d="M141.9,97.8c0-0.4,0.2-0.8,0.5-1.1c0.3-0.3,0.7-0.4,1.1-0.4c0.4,0,0.8,0.1,1.1,0.4c0.3,0.3,0.5,0.6,0.5,1.1v7.7
	h5.5c0.4,0,0.8,0.1,1.1,0.4c0.3,0.3,0.5,0.6,0.5,1c0,0.4-0.2,0.7-0.5,1c-0.3,0.3-0.7,0.4-1.1,0.4h-5.5v13.7c0,0.9,0.3,1.7,0.9,2.2
	c0.6,0.5,1.3,0.8,2.1,0.8c0.3,0,0.8,0,1.3-0.1s0.9-0.1,1.2-0.1c0.3,0,0.7,0.1,1,0.4c0.3,0.2,0.5,0.6,0.5,1c0,0.4-0.1,0.7-0.4,0.9
	c-0.2,0.3-0.6,0.4-1,0.5c-0.4,0.1-0.9,0.1-1.4,0.2c-0.5,0-0.9,0.1-1.4,0.1c-0.9,0-1.7-0.1-2.4-0.4c-0.8-0.3-1.4-0.7-2-1.2
	c-0.6-0.5-1-1.2-1.3-1.9c-0.3-0.7-0.5-1.6-0.5-2.4V97.8z"/>
<path class="st1" d="M57.5,17.6c-3.1,2.6-6.3,5.8-7.6,9.7c-1.5,4.6,0.6,9.3,2.6,13.4c2,4.2,4.2,8.3,6.1,12.6
	c1.5,3.4,3.6,7.4,3.1,11.2c-0.4,2.7-1.3,5.3-1.8,8c-0.4,1.8,1.3,0,1.9-0.5c3.5-3,7.3-6.4,8.7-11c0.7-2.3,0.3-4.4-0.5-6.6
	c-0.8-2.1-1.7-4.1-2.6-6.2c-1.9-4.2-3.9-8.4-5.9-12.6c-0.8-1.5-1.6-3.1-2.3-4.7c-0.7-1.7-1.1-3.5-1.2-5.4c-0.1-1.5-0.1-2.9,0.1-4.4
	c0.1-1.1,0.4-2.1,0.5-3.2C58.7,17.3,58.2,17.1,57.5,17.6z"/>
<path class="st1" d="M103.3,17.6c-3.1,2.6-6.3,5.8-7.6,9.7c-1.5,4.6,0.6,9.3,2.6,13.4c2,4.2,4.2,8.3,6.1,12.6
	c1.5,3.4,3.6,7.4,3.1,11.2c-0.4,2.7-1.3,5.3-1.8,8c-0.4,1.8,1.3,0,1.9-0.5c3.5-3,7.3-6.4,8.7-11c0.7-2.3,0.3-4.4-0.5-6.6
	c-0.8-2.1-1.7-4.1-2.6-6.2c-1.9-4.2-3.9-8.4-5.9-12.6c-0.8-1.5-1.6-3.1-2.3-4.7c-0.7-1.7-1.1-3.5-1.2-5.4c-0.1-1.5-0.1-2.9,0.1-4.4
	c0.1-1.1,0.4-2.1,0.5-3.2C104.5,17.3,104,17.1,103.3,17.6z"/>
<path class="st2" d="M79.7,10c-3.5,2.9-7.3,6.4-9.4,10.5c-1.5,2.9-1.7,5.9-0.9,8.9c1,3.6,2.4,7.2,3.9,10.7c2.9,6.7,6.7,13,9.5,19.8
	c1,2.4,2.1,5.1,2.3,7.8c0.2,3.3-0.9,6.8-1.8,9.9c-0.2,0.9-0.8,2.1-0.7,3c0.1,0.7,0.5,0.4,0.9,0.1c1.7-1.3,3.4-2.8,4.9-4.3
	c4.1-3.9,8.8-9.1,8.4-15.2c-0.2-2.5-1.4-4.9-2.4-7.2c-1.1-2.7-2.3-5.3-3.5-7.9c-2.2-4.9-4.5-9.7-6.9-14.5c-0.8-1.7-1.8-3.3-2.4-5
	c-0.9-2.3-1.3-4.7-1.4-7.1c-0.1-1.8,0-3.7,0.2-5.5c0.1-1.2,0.5-2.3,0.5-3.5C81.2,9.4,80.6,9.3,79.7,10z"/>
</svg>
