<?xml version="1.0" encoding="UTF-8"?>
<svg width="64px" height="62px" viewBox="0 0 64 62" version="1.1" xmlns="http://www.w3.org/2000/svg" xmlns:xlink="http://www.w3.org/1999/xlink">
    <!-- Generator: Sketch 51 (57462) - http://www.bohemiancoding.com/sketch -->
    <title>Rectangle 13</title>
    <desc>Created with Sketch.</desc>
    <defs>
        <path d="M4.14645991,5.18129584 L12.9944724,0.000883938341 C14.7242386,-1.01187473 16.9070585,-0.80969135 18.4213792,0.503550406 L34.5547421,14.4946459 C36.5060396,16.1868405 36.716084,19.1404744 35.0238894,21.091772 C34.8763408,21.2619127 34.716695,21.4211733 34.5461983,21.5683105 L18.2567457,35.6259701 C16.8232718,36.8630458 14.7853113,37.1136866 13.0948032,36.2608172 L4.40288049,31.8757003 C2.82677452,31.0805472 1.83272405,29.4656519 1.83272405,27.7003252 L1.83272405,9.217099 C1.83272405,7.55645003 2.71337263,6.02035234 4.14645991,5.18129584 Z" id="path-1"></path>
        <filter x="-64.0%" y="-53.5%" width="228.1%" height="217.7%" filterUnits="objectBoundingBox" id="filter-2">
            <feOffset dx="0" dy="2" in="SourceAlpha" result="shadowOffsetOuter1"></feOffset>
            <feGaussianBlur stdDeviation="7" in="shadowOffsetOuter1" result="shadowBlurOuter1"></feGaussianBlur>
            <feColorMatrix values="0 0 0 0 0   0 0 0 0 0   0 0 0 0 0  0 0 0 0.06 0" type="matrix" in="shadowBlurOuter1"></feColorMatrix>
        </filter>
    </defs>
    <g id="Symbols" stroke="none" stroke-width="1" fill="none" fill-rule="evenodd">
        <g id="Group-2" transform="translate(-492.000000, -164.000000)">
            <g id="Rectangle-">
                <g id="Group-26" transform="translate(507.000000, 177.000000)">
                    <g id="Rectangle-13">
                        <g transform="translate(19.009485, 18.061982) rotate(-270.000000) translate(-19.009485, -18.061982) ">
                            <use fill="black" fill-opacity="1" filter="url(#filter-2)" xlink:href="#path-1"></use>
                            <use fill="#FFFFFF" fill-rule="evenodd" xlink:href="#path-1"></use>
                        </g>
                        <path d="M25.5719932,12.827792 L27.6269321,8.56334186 L29.681871,12.827792 L25.5719932,12.827792 Z M20.4930216,24.9647059 L24.7461067,14.6180733 L29.1815081,14.6180733 L20.4930216,24.9647059 Z M18.9999845,24.0331628 L15.1299358,14.6180733 L22.8700332,14.6180733 L18.9999845,24.0331628 Z M8.81846093,14.6180733 L13.2538623,14.6180733 L17.5069474,24.9647059 L8.81846093,14.6180733 Z M10.3730369,8.56334186 L12.4279758,12.827792 L8.31809797,12.827792 L10.3730369,8.56334186 Z M17.274595,7.456948 L13.9710492,12.0269395 L11.768877,7.456948 L17.274595,7.456948 Z M22.4507635,12.827792 L15.5492055,12.827792 L18.9999845,8.05370844 L22.4507635,12.827792 Z M26.231092,7.456948 L24.0289198,12.0269395 L20.725374,7.456948 L26.231092,7.456948 Z M31.8495354,13.3225064 L28.3987564,6.16138107 C28.2316811,5.8571526 27.9971432,5.66666667 27.6269321,5.66666667 L10.3730369,5.66666667 C10.0123155,5.66666667 9.771106,5.85237852 9.60121264,6.16138107 L6.1504336,13.3225064 C5.99066253,13.6745951 6.04535738,14.0284143 6.271786,14.3107417 L18.3495127,28.6926684 C18.5134247,28.887809 18.7503782,29 18.9999845,29 C19.2495909,29 19.4865443,28.887809 19.6504564,28.6926684 L31.728183,14.3107417 C31.9531738,14.0298465 32.0102842,13.676445 31.8495354,13.3225064 Z" id="ic_quality_b" fill="#FFB839"></path>
                    </g>
                </g>
            </g>
        </g>
    </g>
</svg>