<?xml version="1.0" encoding="UTF-8"?>
<svg width="64px" height="62px" viewBox="0 0 64 62" version="1.1" xmlns="http://www.w3.org/2000/svg" xmlns:xlink="http://www.w3.org/1999/xlink">
    <defs>
        <filter x="-64.0%" y="-53.5%" width="228.1%" height="217.7%" filterUnits="objectBoundingBox" id="filter-2">
            <feOffset dx="0" dy="2" in="SourceAlpha" result="shadowOffsetOuter1"></feOffset>
            <feGaussianBlur stdDeviation="7" in="shadowOffsetOuter1" result="shadowBlurOuter1"></feGaussianBlur>
            <feColorMatrix values="0 0 0 0 0   0 0 0 0 0   0 0 0 0 0  0 0 0 0.06 0" type="matrix" in="shadowBlurOuter1"></feColorMatrix>
        </filter>
    </defs>
    <g id="Symbols" stroke="none" stroke-width="1" fill="none" fill-rule="evenodd">
        <g id="Group-2" transform="translate(-492.000000, -164.000000)">
            <g id="Group-26" transform="translate(506.000000, 178.000000)">
                <g id="Brilliant">
                    <g id="Rectangle-13">
                        <path d="M26.5719932,11.827792 L28.6269321,7.56334186 L30.681871,11.827792 L26.5719932,11.827792 Z M21.4930216,23.9647059 L25.7461067,13.6180733 L30.1815081,13.6180733 L21.4930216,23.9647059 Z M19.9999845,23.0331628 L16.1299358,13.6180733 L23.8700332,13.6180733 L19.9999845,23.0331628 Z M9.81846093,13.6180733 L14.2538623,13.6180733 L18.5069474,23.9647059 L9.81846093,13.6180733 Z M11.3730369,7.56334186 L13.4279758,11.827792 L9.31809797,11.827792 L11.3730369,7.56334186 Z M18.274595,6.456948 L14.9710492,11.0269395 L12.768877,6.456948 L18.274595,6.456948 Z M23.4507635,11.827792 L16.5492055,11.827792 L19.9999845,7.05370844 L23.4507635,11.827792 Z M27.231092,6.456948 L25.0289198,11.0269395 L21.725374,6.456948 L27.231092,6.456948 Z M32.8495354,12.3225064 L29.3987564,5.16138107 C29.2316811,4.8571526 28.9971432,4.66666667 28.6269321,4.66666667 L11.3730369,4.66666667 C11.0123155,4.66666667 10.771106,4.85237852 10.6012126,5.16138107 L7.1504336,12.3225064 C6.99066253,12.6745951 7.04535738,13.0284143 7.271786,13.3107417 L19.3495127,27.6926684 C19.5134247,27.887809 19.7503782,28 19.9999845,28 C20.2495909,28 20.4865443,27.887809 20.6504564,27.6926684 L32.728183,13.3107417 C32.9531738,13.0298465 33.0102842,12.676445 32.8495354,12.3225064 Z" id="ic_quality_b" fill="#FFB839"></path>
                    </g>
                </g>
            </g>
        </g>
    </g>
</svg>
