<?xml version="1.0" encoding="UTF-8"?>
<svg viewBox="0 0 20 20" version="1.1" xmlns="http://www.w3.org/2000/svg" xmlns:xlink="http://www.w3.org/1999/xlink">
    <g id="Symbols" stroke="none" stroke-width="1" fill="none" fill-rule="evenodd">
        <g id="Group-8" transform="translate(0.000000, -2.000000)">
            <g id="ic_like_pressed" transform="translate(0.000000, 2.000000)">
                <path d="M16.484375,7.34375 C16.2299609,7.34375 15.9849219,7.38449219 15.7553516,7.45980469 L11.8983203,1.45382813 L11.3948828,0.746640625 L11.3521875,0.703125 C10.9077734,0.2496875 10.3133594,0 9.67847656,0 C8.38613281,0 7.33472656,1.05140625 7.33472656,2.34375 C7.33472656,2.60417969 7.37738281,2.86039062 7.46144531,3.10527344 L7.49917969,3.19605469 C7.62191406,3.44585937 7.75308594,3.70703125 7.89195312,3.98347656 C8.24207031,4.68054688 8.82011719,5.83136719 8.90671875,6.17730469 C8.85035156,6.58671875 8.30296875,6.8359375 7.91304688,6.8359375 L2.7734375,6.8359375 C1.54570312,6.8359375 0.546875,7.83476562 0.546875,9.0625 C0.546875,9.46667969 0.657421875,9.8571875 0.858671875,10.1961328 C0.329257813,10.6081641 0,11.2489844 0,11.953125 C0,12.5060937 0.20203125,13.0387891 0.568867187,13.4530469 C0.665390625,13.5620703 0.770585938,13.6598047 0.882851562,13.7455078 C0.693359375,14.0757813 0.588515625,14.4534766 0.588515625,14.84375 C0.588515625,15.6905078 1.06722656,16.4283984 1.77003906,16.8048437 C1.63554687,17.08625 1.5625,17.3950391 1.5625,17.7120703 C1.5625,19.0377734 2.50242188,20 3.79742187,20 C7.19765414,20 9.74782834,20 11.4479445,20 C12.7806929,20 14.7798156,20 17.4453125,20 C17.8767969,20 15.1920312,20 16.484375,20 L17.65625,20 C18.9485938,20 20,18.9485938 20,17.65625 L20,9.6875 C20,8.39515625 18.9485938,7.34375 17.65625,7.34375 L16.484375,7.34375 Z" fill="#2879FF" class="filler"></path>
                <path d="M15.7553516,7.45980469 L11.8983203,1.45382813 L11.3948828,0.746640625 L11.3521875,0.703125 C10.9077734,0.2496875 10.3133594,0 9.67847656,0 C8.38613281,0 7.33472656,1.05140625 7.33472656,2.34375 C7.33472656,2.60417969 7.37738281,2.86039062 7.46144531,3.10527344 L7.49917969,3.19605469 C7.62191406,3.44585937 7.75308594,3.70703125 7.89195312,3.98347656 C8.24207031,4.68054688 8.82011719,5.83136719 8.90671875,6.17730469 C8.85035156,6.58671875 8.30296875,6.8359375 7.91304688,6.8359375 L2.7734375,6.8359375 C1.54570313,6.8359375 0.546875,7.83476562 0.546875,9.0625 C0.546875,9.46667969 0.657421875,9.8571875 0.858671875,10.1961328 C0.329257813,10.6081641 0,11.2489844 0,11.953125 C0,12.5060937 0.20203125,13.0387891 0.568867188,13.4530469 C0.665390625,13.5620703 0.770585938,13.6598047 0.882851563,13.7455078 C0.693359375,14.0757813 0.588515625,14.4534766 0.588515625,14.84375 C0.588515625,15.6905078 1.06722656,16.4283984 1.77003906,16.8048437 C1.63554688,17.08625 1.5625,17.3950391 1.5625,17.7120703 C1.5625,19.0377734 2.50242188,20 3.79742188,20 L17.4453125,20 C17.8767969,20 17.2265625,19.6502344 17.2265625,19.21875 C17.2265625,18.7872656 16.8767969,18.4375 16.4453125,18.4375 L3.79742188,18.4375 C3.19054688,18.4375 3.125,17.9301953 3.125,17.7120703 C3.125,17.3897266 3.39726563,17.2144531 3.48066406,17.1684375 C3.91894531,16.9266797 3.984375,16.5793359 3.984375,16.3938281 C3.984375,15.8969922 3.55542969,15.5078125 3.0078125,15.5078125 L2.83160156,15.5078125 C2.45632813,15.5078125 2.15101563,15.2099219 2.15101563,14.84375 C2.15101563,14.6107031 2.28085938,14.3911328 2.48984375,14.2707812 C2.87183594,14.0641016 3.046875,13.7961328 3.046875,13.4541016 C3.046875,13.1592969 2.85007813,12.6496875 2.1125,12.6098828 C1.814375,12.59375 1.5625,12.2930078 1.5625,11.953125 C1.5625,11.6534375 1.77429688,11.3824609 2.06609375,11.3088672 C2.53589844,11.1903516 2.8515625,10.8213281 2.8515625,10.390625 C2.8515625,10.1773828 2.77292969,9.86867187 2.3984375,9.60882812 C2.21746094,9.48324219 2.109375,9.27902344 2.109375,9.0625 C2.109375,8.69632812 2.40726563,8.3984375 2.7734375,8.3984375 L7.91304688,8.3984375 C9.10332031,8.3984375 10.4202734,7.55300781 10.4723828,6.18722656 C10.4729687,5.68769531 10.1301172,4.95832031 9.28820313,3.2821875 C9.16058594,3.028125 9.03957031,2.7871875 8.92703125,2.55878906 C8.90722656,2.489375 8.89722656,2.41722656 8.89722656,2.34375 C8.89722656,1.91296875 9.24769531,1.5625 9.67847656,1.5625 C9.87308594,1.5625 10.0563281,1.63289062 10.1997656,1.76175781 L10.5939453,2.31421875 L14.5144141,8.41894531 C14.2779688,8.78480469 15.9849219,7.38449219 15.7553516,7.45980469 Z" id="Fill-1" fill="currentColor"></path>
                <path d="M18.4375,17.65625 C18.4375,18.0870313 18.0870313,18.4375 17.65625,18.4375 L16.484375,18.4375 C16.0535938,18.4375 15.703125,18.0870313 15.703125,17.65625 L15.703125,9.6875 C15.703125,9.25671875 16.0535938,8.90625 16.484375,8.90625 L17.65625,8.90625 C18.0870313,8.90625 18.4375,9.25671875 18.4375,9.6875 L18.4375,17.65625 Z M16.484375,7.34375 C16.2299609,7.34375 15.9849219,7.38449219 15.7553516,7.45980469 L14.5144141,8.41894531 C14.2779688,8.78480469 14.140625,9.22042969 14.140625,9.6875 L14.140625,17.65625 C14.140625,18.9485938 15.1920313,20 16.484375,20 L17.65625,20 C18.9485938,20 20,18.9485938 20,17.65625 L20,9.6875 C20,8.39515625 18.9485938,7.34375 17.65625,7.34375 L16.484375,7.34375 Z" id="Fill-1" fill="currentColor"></path>
            </g>
        </g>
    </g>
</svg>
