<?xml version="1.0" encoding="UTF-8"?>
<svg width="20px" height="20px" viewBox="0 0 20 20" version="1.1" xmlns="http://www.w3.org/2000/svg" xmlns:xlink="http://www.w3.org/1999/xlink">
    <!-- Generator: Sketch 46.2 (44496) - http://www.bohemiancoding.com/sketch -->
    <title>icon-payments</title>
    <desc>Created with Sketch.</desc>
    <defs></defs>
    <g id="Page-6" stroke="none" stroke-width="1" fill="none" fill-rule="evenodd">
        <g id="icon-payments" fill="#333333">
            <path d="M9.22838137,17 L11.1086475,17 L11.1086475,15.27446 C12.8115299,14.9898348 14,13.8691233 14,12.1435832 C14,10.5425667 12.9889135,9.56416773 11.3392461,9.15501906 L9.49445676,8.71029225 C8.74944568,8.51461245 8.35920177,8.17662008 8.35920177,7.57179161 C8.35920177,6.84243964 8.96230599,6.36213469 9.90243902,6.36213469 C10.9490022,6.36213469 11.5521064,6.87801779 11.7827051,7.55400254 L13.8935698,7.55400254 C13.5920177,6.0952986 12.6696231,5.04574333 11.1086475,4.68996188 L11.1086475,3 L9.22838137,3 L9.22838137,4.61880559 C7.4368071,4.85006353 6.24833703,6.05972046 6.24833703,7.73189327 C6.24833703,9.49301144 7.40133038,10.2935197 8.83813747,10.6315121 L10.5764967,11.0584498 C11.4988914,11.2719187 11.8713969,11.6099111 11.8713969,12.2681067 C11.8713969,13.068615 11.232816,13.5311309 10.2217295,13.5311309 C9.22838137,13.5311309 8.50110865,13.1219822 8.19955654,12.2147395 L6,12.2147395 C6.30155211,13.9224905 7.49002217,14.9898348 9.22838137,15.27446 L9.22838137,17 Z" id="$"></path>
        </g>
    </g>
</svg>