<?xml version="1.0" encoding="UTF-8"?>
<svg width="20px" height="20px" viewBox="0 0 20 20" version="1.1" xmlns="http://www.w3.org/2000/svg" xmlns:xlink="http://www.w3.org/1999/xlink">
    <!-- Generator: Sketch 46.2 (44496) - http://www.bohemiancoding.com/sketch -->
    <title>icon-mentions</title>
    <desc>Created with Sketch.</desc>
    <defs></defs>
    <g id="Page-6" stroke="none" stroke-width="1" fill="none" fill-rule="evenodd">
        <g id="icon-mentions" fill="#333333">
            <path d="M4,10.7196262 C4,6.07476636 7.29710145,3 11.2850242,3 C14.7705314,3 17,5.48598131 17,8.98598131 C17,12.0280374 14.9903382,13.5327103 13.263285,13.5327103 C12.3369565,13.5327103 11.5676329,13.0747664 11.3792271,12.2897196 L11.3478261,12.2897196 C10.9396135,12.9439252 10.0917874,13.3691589 9.46376812,13.3691589 C8.1763285,13.3691589 7.32850242,12.3551402 7.32850242,10.8504673 C7.32850242,8.75700935 8.77294686,6.76168224 10.5628019,6.76168224 C11.0652174,6.76168224 11.47343,6.99065421 11.7246377,7.57943925 L11.7560386,7.57943925 L12.0072464,6.89252336 L13.6400966,6.89252336 L12.8864734,10.6214953 C12.6980676,11.4392523 12.9178744,11.8317757 13.5458937,11.8317757 C14.4879227,11.8317757 15.3357488,10.7196262 15.3357488,9.05140187 C15.3357488,6.8271028 14.236715,4.6682243 11.0652174,4.6682243 C8.42753623,4.6682243 5.78985507,7.02336449 5.78985507,10.6542056 C5.78985507,13.8925234 7.98792271,15.3317757 10.3429952,15.3317757 C11.0966184,15.3317757 12.0386473,15.0700935 12.6666667,14.7429907 L13.2318841,16.2476636 C12.2584541,16.771028 11.2536232,17 10.1231884,17 C6.95169082,17 4,15.0373832 4,10.7196262 Z M9.33816425,10.6869159 C9.33816425,11.2920561 9.58937198,11.635514 10.0603865,11.635514 C10.3429952,11.635514 10.5942029,11.4719626 10.9396135,10.9813084 L11.2850242,8.92056075 C11.1751208,8.69158879 10.9396135,8.52803738 10.6570048,8.52803738 C9.84057971,8.52803738 9.33816425,9.80373832 9.33816425,10.6869159 Z" id="icon-outline"></path>
        </g>
    </g>
</svg>