<?xml version="1.0" encoding="UTF-8"?>
<svg width="120px" height="120px" viewBox="0 0 120 120" version="1.1" xmlns="http://www.w3.org/2000/svg" xmlns:xlink="http://www.w3.org/1999/xlink">
    <!-- Generator: Sketch 46.2 (44496) - http://www.bohemiancoding.com/sketch -->
    <title>icon-no-notifications</title>
    <desc>Created with Sketch.</desc>
    <defs></defs>
    <g id="Logos" stroke="none" stroke-width="1" fill="none" fill-rule="evenodd">
        <g id="icon-no-notifications" fill-rule="nonzero">
            <g>
                <circle id="Oval" fill="#8DD9FF" cx="60" cy="60" r="60"></circle>
                <g id="Group" opacity="0.3" transform="translate(31.406250, 0.000000)" fill="#FFFFF4">
                    <path d="M4.55226563,5.02546875 C1.67179688,10.0389844 0,15.8346094 0,22.03125 C0,40.9296094 15.3201562,56.25 34.21875,56.25 C53.1173438,56.25 68.4375,40.9296094 68.4375,22.03125 C68.4375,19.3989844 68.1121875,16.8473438 67.5494531,14.3857031 C57.0658594,5.42367188 43.4669531,0 28.59375,0 C20.041875,0 11.9144531,1.80117187 4.55226563,5.02546875 Z" id="Shape"></path>
                </g>
                <g id="Group" opacity="0.4" transform="translate(49.453125, 5.859375)" fill="#FFFFF4">
                    <circle id="Oval" cx="16.171875" cy="16.171875" r="16.0872656"></circle>
                </g>
                <g id="Group" opacity="0.6" transform="translate(62.109375, 64.218750)" fill="#FFFFFF">
                    <path d="M19.4730469,7.59773437 C19.4730469,4.73320312 17.1508594,2.41078125 14.2860937,2.41078125 C13.8536719,2.41078125 13.4404687,2.47921875 13.03875,2.57882812 C11.6852344,1.11726562 9.76640625,0.187734375 7.6171875,0.187734375 C3.52476562,0.187734375 0.207421875,3.5053125 0.207421875,7.5975 L19.4730469,7.5975 L19.4730469,7.59773437 Z" id="Shape"></path>
                </g>
                <path d="M40.1526562,71.8164844 C40.1526562,67.90125 36.97875,64.7273437 33.0635156,64.7273437 C32.4726563,64.7273437 31.9075781,64.8208594 31.3589063,64.9570312 C29.5089844,62.9594531 26.8863281,61.6891406 23.9489063,61.6891406 C18.3557813,61.6891406 13.8213281,66.2233594 13.8213281,71.8167188 L40.1526562,71.8167188 L40.1526562,71.8164844 Z" id="Shape" fill="#FFFFFF"></path>
                <path d="M64.0047656,68.3786719 C63.6440625,68.3786719 63.3032812,68.4496875 62.9765625,68.5525781 C61.9415625,67.065 60.225,66.0867188 58.2754687,66.0867188 C56.3259375,66.0867188 54.6091406,67.0647656 53.574375,68.5525781 C53.2476562,68.4494531 52.906875,68.3786719 52.5461719,68.3786719 C50.6475,68.3786719 49.1085937,69.9178125 49.1085937,71.81625 L67.4428125,71.81625 C67.4423437,69.9178125 65.9032031,68.3786719 64.0047656,68.3786719 Z" id="Shape" fill="#FFFFFF"></path>
                <path d="M101.992734,69.04875 C101.702344,69.04875 101.427891,69.1059375 101.164922,69.1889063 C100.331719,67.99125 98.9496094,67.20375 97.38,67.20375 C95.8103906,67.20375 94.4282812,67.99125 93.5950781,69.1889063 C93.3321094,69.1059375 93.0576562,69.04875 92.7672656,69.04875 C91.2386719,69.04875 89.9997656,70.2878906 89.9997656,71.81625 L104.760234,71.81625 C104.760469,70.2878906 103.521328,69.04875 101.992734,69.04875 Z" id="Shape" fill="#FFFFFF"></path>
                <g id="Group" opacity="0.6" transform="translate(99.843750, 66.093750)" fill="#FFFFFF">
                    <path d="M14.870625,2.32734375 C14.514375,2.32734375 14.1778125,2.39742187 13.8550781,2.49914063 C12.8329687,1.02984375 11.1372656,0.06375 9.21164062,0.06375 C7.28601562,0.06375 5.59054687,1.02984375 4.56820312,2.49914063 C4.24546875,2.39742187 3.90890625,2.32734375 3.55265625,2.32734375 C1.67742187,2.32734375 0.157265625,3.8475 0.157265625,5.72273438 L18.2657812,5.72273438 C18.2660156,3.8475 16.7458594,2.32734375 14.870625,2.32734375 Z" id="Shape"></path>
                </g>
                <g id="Group" opacity="0.2" transform="translate(10.781250, 75.000000)" fill="#57B9E7">
                    <path d="M107.328516,0 L0.156328125,0 L9.84375,22.5 C9.84375,22.5 37.5321094,38.7499219 45.5629687,40.6249219 C48.8655469,41.3960156 54.6499219,42.6953906 60.3164062,43.9586719 C83.2359375,39.6703125 101.571563,22.3671094 107.328516,0 Z" id="Shape"></path>
                </g>
                <path d="M111.277266,91.1688281 C100.682109,86.8926563 81.5404688,84.0314063 59.6472656,84.0314063 C41.1147656,84.0314063 24.5404688,86.0798438 13.45875,89.3017969 L16.4997656,96.2467969 C16.4997656,96.2467969 37.0839844,108.123984 49.2597656,113.440781 C52.6364063,113.584453 56.1032813,113.663438 59.6472656,113.663438 C71.0107031,113.663438 81.6236719,112.887891 90.7017188,111.549609 C99.1071094,106.532578 106.186641,99.5254687 111.277266,91.1688281 Z" id="Shape" fill="#B3F4EF"></path>
                <path d="M109.019766,94.5836719 L30.9825,94.5836719 L30.9825,100.078125 L104.640469,100.078125 C106.205859,98.3371875 107.664609,96.4999219 109.019766,94.5836719 Z" id="Shape" fill="#FFFFFF"></path>
                <path d="M105.688125,98.8474219 L30.9825,98.8474219 C30.9825,98.8474219 46.0504687,108.984375 46.2283594,108.984375 C46.3434375,108.984375 68.799375,110.941406 84.6525,112.324219 C86.7297656,112.09125 88.7575781,111.83625 90.7017187,111.549844 C96.3761719,108.162656 101.42625,103.851328 105.688125,98.8474219 Z" id="Shape" fill="#FFF8DB"></path>
                <path d="M60,78.046875 C81.0539063,78.046875 100.230938,80.5753125 114.646172,84.7197656 C116.057344,81.6070313 117.242344,78.3698438 118.109531,75 L10.9375781,75 L14.1747656,82.5185156 C27.2130469,79.6994531 42.9914063,78.046875 60,78.046875 Z" id="Shape" fill="#57B9E7"></path>
                <g id="Group" transform="translate(9.140625, 26.484375)">
                    <path d="M2.04351562,49.453125 C1.34414062,49.453125 0.673828125,49.06125 0.3515625,48.3902344 C-0.09703125,47.4564844 0.29671875,46.3366406 1.23046875,45.8880469 C9.42632812,41.9503125 19.1967187,33.3417187 19.1967187,14.690625 C19.1967187,13.6551562 20.0353125,12.815625 21.0717187,12.815625 C22.108125,12.815625 22.9467187,13.6551562 22.9467187,14.690625 C22.9467187,35.2917188 12.0189844,44.8645312 2.8528125,49.2682031 C2.59101562,49.3935937 2.31445312,49.453125 2.04351562,49.453125 Z" id="Shape" fill="#8C665B"></path>
                    <g transform="translate(3.281250, 0.000000)" id="Shape">
                        <path d="M18.5264063,12.9335156 C18.5264063,12.9335156 7.22625,12.6377344 6.83320312,24.2275781 C6.83320312,24.2275781 8.11453125,23.1885937 8.56335938,22.2189844 C8.56335938,22.2189844 8.85351563,22.8065625 8.64796875,23.4199219 C8.64796875,23.4199219 9.70453125,22.3928906 9.98179688,21.2552344 C9.98179688,21.2552344 10.1728125,21.6796875 9.98554688,22.2942187 C9.98554688,22.2942187 11.0889844,21.3876562 11.3934375,20.6636719 C11.3934375,20.6636719 11.5732031,20.9892187 11.323125,21.4429687 C11.323125,21.4429687 12.3700781,20.5328906 12.6314063,19.2372656 C12.6314063,19.2372656 12.9508594,19.5330469 12.8688281,20.2134375 C12.8688281,20.2134375 14.120625,18.7291406 14.2507031,17.8757812 C14.2507031,17.8757812 14.6779688,18.0541406 14.43375,18.6977344 C14.43375,18.6975 17.50125,16.4177344 18.5264063,12.9335156 Z" fill="#43AB5F"></path>
                        <path d="M18.5264062,12.9335156 C18.5264062,12.9335156 28.09875,18.9464063 22.0061719,28.8135938 C22.0061719,28.8135938 21.5146875,27.2388281 21.6782812,26.1829688 C21.6782812,26.1829688 21.1110937,26.5113281 20.9425781,27.1359375 C20.9425781,27.1359375 20.6315625,25.6957031 21.0311719,24.5946094 C21.0311719,24.5946094 20.6369531,24.8423438 20.4527344,25.4578125 C20.4527344,25.4578125 20.0360156,24.091875 20.1836719,23.3203125 C20.1836719,23.3203125 19.8536719,23.491875 19.8105469,24.0082031 C19.8105469,24.0082031 19.4430469,22.6703906 19.9429687,21.4471875 C19.9429687,21.4471875 19.513125,21.5165625 19.2046875,22.1282813 C19.2046875,22.1282813 18.9846094,20.1991406 19.3490625,19.4165625 C19.3490625,19.4165625 18.894375,19.3284375 18.7413281,19.9996875 C18.7410937,19.9994531 17.4501562,16.4022656 18.5264062,12.9335156 Z" fill="#43AB5F"></path>
                        <path d="M18.5264062,12.9335156 C18.5264062,12.9335156 19.689375,1.18359375 8.43726562,0.039140625 C8.43726562,0.039140625 9.34945312,1.43953125 10.2585937,1.96851563 C10.2585937,1.96851563 9.66398437,2.23335937 9.08273437,1.98023437 C9.08273437,1.98023437 10.0007812,3.14578125 11.086875,3.50671875 C11.086875,3.50671875 10.6589063,3.67898438 10.0750781,3.44484375 C10.0750781,3.44484375 10.8719531,4.65140625 11.5535156,5.01445313 C11.5535156,5.01445313 11.2228125,5.18085938 10.8004687,4.891875 C10.8004687,4.891875 11.6053125,6.03984375 12.8463281,6.39421875 C12.8463281,6.39421875 12.5336719,6.70828125 11.8776562,6.57984375 C11.8776562,6.57984375 13.2257812,7.97742188 14.0465625,8.16726563 C14.0465625,8.16726563 13.8396094,8.60085938 13.2321094,8.30554688 C13.2321094,8.30554688 15.2139844,11.6446875 18.5264062,12.9335156 Z" fill="#52C883"></path>
                        <path d="M18.5264062,12.9335156 C18.5264062,12.9335156 10.0605469,3.37195313 0.0928125,12.0496875 C0.0928125,12.0496875 1.9471875,12.3007031 3.10171875,11.9184375 C3.10171875,11.9184375 2.83523437,12.6145313 2.16515625,12.9210938 C2.16515625,12.9210938 3.83625,12.9958594 4.99875,12.3410156 C4.99875,12.3410156 4.79226562,12.8285156 4.1353125,13.1510156 C4.1353125,13.1510156 5.74195312,13.3582031 6.58054687,13.0471875 C6.58054687,13.0471875 6.44742187,13.4484375 5.87648437,13.5944531 C5.87648437,13.5944531 7.44257812,13.7521875 8.724375,12.9614063 C8.724375,12.9614063 8.72414062,13.455 8.0934375,13.9157813 C8.0934375,13.9157813 10.2963281,13.7964844 11.1084375,13.2410156 C11.1084375,13.2410156 11.2891406,13.7325 10.5639844,14.0308594 C10.5642188,14.0310938 14.8305469,14.7930469 18.5264062,12.9335156 Z" fill="#34BE69"></path>
                        <path d="M18.5264063,12.9335156 C18.5264063,12.9335156 30.8711719,9.661875 34.3635937,22.408125 C34.3635937,22.408125 32.6805469,21.5901562 31.9310156,20.6322656 C31.9310156,20.6322656 31.7671875,21.3592969 32.1553125,21.9857813 C32.1553125,21.9857813 30.7225781,21.1223438 30.1174219,19.933125 C30.1174219,19.933125 30.0192188,20.4534375 30.3876562,21.0860156 C30.3876562,21.0860156 28.9352344,20.3685938 28.4092969,19.6450781 C28.4092969,19.6450781 28.2979688,20.0528906 28.6924219,20.4907031 C28.6924219,20.4907031 27.3011719,19.7545313 26.671875,18.3860156 C26.671875,18.3860156 26.3988281,18.7973438 26.6685937,19.5302344 C26.6685937,19.5302344 24.9004687,18.2107031 24.5322656,17.2985156 C24.5322656,17.2985156 24.1096875,17.6076563 24.5482031,18.2575781 C24.5477344,18.2575781 20.5736719,16.5290625 18.5264063,12.9335156 Z" fill="#34BE69"></path>
                        <path d="M18.5264063,12.9335156 C18.5264063,12.9335156 20.7785156,0.3628125 33.80625,2.58421875 C33.80625,2.58421875 32.3535938,3.7640625 31.1688281,4.03851562 C31.1688281,4.03851562 31.7585156,4.49414062 32.4902344,4.4071875 C32.4902344,4.4071875 31.1020313,5.34070313 29.7689063,5.38664063 C29.7689063,5.38664063 30.19875,5.69578125 30.9276563,5.62898437 C30.9276563,5.62898437 29.6639063,6.6421875 28.7857031,6.81304687 C28.7857031,6.81304687 29.1079688,7.08609375 29.6716406,6.91382812 C29.6716406,6.91382812 28.4163281,7.86351562 26.9104688,7.85554687 C26.9104688,7.85554687 27.1678125,8.27695312 27.9459375,8.34210937 C27.9459375,8.34210937 26.0029688,9.38695312 25.0204688,9.33515625 C25.0204688,9.33515625 25.1219531,9.84890625 25.8965625,9.72609375 C25.8963281,9.72632812 22.6502344,12.5976562 18.5264063,12.9335156 Z" fill="#52C883"></path>
                    </g>
                </g>
                <path d="M24.1542187,96.0351562 L24.1542187,92.2305469 C30.1842187,92.2305469 44.5664062,76.35375 44.9472656,69.2742187 L48.748125,69.4785937 C48.2503125,78.6621094 32.1628125,96.0351562 24.1542187,96.0351562 Z" id="Shape" fill="#8C665B"></path>
                <circle id="Oval" fill="#FFFFFF" cx="65.625" cy="22.03125" r="6.32460937"></circle>
                <path d="M48.6550781,101.25 C44.0088281,97.5 39.0185156,101.093672 36.2650781,95.625 C34.6410937,92.3992969 27.3902344,94.59375 23.8750781,91.875 C19.2288281,88.2813281 19.9401562,83.6524219 17.6800781,78.75 C14.7761719,72.4511719 7.48640625,68.0751562 0.48984375,67.5527344 C4.2065625,97.1217187 29.4229687,120 60,120 C75.2107031,120 89.0894531,114.328828 99.6649219,105 C94.95,105 63.5932031,105 58.98,105 C53.9894531,105 51.4075781,103.471641 48.6550781,101.25 Z" id="Shape" fill="#8C665B"></path>
                <g id="Group" transform="translate(27.187500, 54.609375)">
                    <path d="M20.20875,15.3344531 C20.20875,15.3344531 7.83375,13.8728906 6.23625,26.5558594 C6.23625,26.5558594 7.7475,25.5440625 8.33765625,24.525 C8.33765625,24.525 8.59710938,25.1992969 8.30976563,25.8520313 C8.30976563,25.8520313 9.5728125,24.8310938 9.991875,23.6097656 C9.991875,23.6097656 10.1589844,24.0949219 9.89132812,24.7507031 C9.89132812,24.7507031 11.1939844,23.8666406 11.6008594,23.1023437 C11.6008594,23.1023437 11.7653906,23.4778125 11.4452344,23.9507812 C11.4452344,23.9507812 12.68625,23.0571094 13.1034375,21.6611719 C13.1034375,21.6611719 13.4242969,22.018125 13.2658594,22.7566406 C13.2658594,22.7566406 14.7892969,21.253125 15.0180469,20.3294531 C15.0180469,20.3294531 15.4692188,20.5682812 15.1361719,21.2503125 C15.1361719,21.2500781 18.7326562,19.0558594 20.20875,15.3344531 Z" id="Shape" fill="#43AB5F"></path>
                    <path d="M20.20875,15.3344531 C20.20875,15.3344531 30.1115625,22.8982031 22.4308594,33.1167188 C22.4308594,33.1167188 22.05,31.3385156 22.3354688,30.1959375 C22.3354688,30.1959375 21.6799219,30.4994531 21.4319531,31.168125 C21.4319531,31.168125 21.2355469,29.5558594 21.7846875,28.3875 C21.7846875,28.3875 21.3271875,28.6197656 21.0628125,29.2767188 C21.0628125,29.2767188 20.7428906,27.7352344 20.9826563,26.9032031 C20.9826563,26.9032031 20.6032031,27.0583594 20.5038281,27.620625 C20.5038281,27.620625 20.235,26.115 20.9067187,24.8224219 C20.9067187,24.8224219 20.4278906,24.8552344 20.0278125,25.4957812 C20.0278125,25.4957812 19.9802344,23.3559375 20.4590625,22.5335156 C20.4590625,22.5335156 19.9689844,22.3910156 19.7332031,23.1124219 C19.7334375,23.1126562 18.6782813,19.0338281 20.20875,15.3344531 Z" id="Shape" fill="#43AB5F"></path>
                    <path d="M20.20875,15.3344531 C20.20875,15.3344531 22.6675781,2.55304688 10.4308594,0.164765625 C10.4308594,0.164765625 11.29125,1.79367188 12.2360156,2.46585938 C12.2360156,2.46585938 11.5567969,2.69671875 10.9441406,2.360625 C10.9441406,2.360625 11.8345313,3.73242188 12.9904687,4.23796875 C12.9904687,4.23796875 12.5034375,4.38398438 11.8860938,4.06828125 C11.8860938,4.06828125 12.6396094,5.47289063 13.3511719,5.94 C13.3511719,5.94 12.97125,6.08929688 12.5367188,5.72953125 C12.5367188,5.72953125 13.3047656,7.07085938 14.6313281,7.584375 C14.6313281,7.584375 14.2563281,7.89773438 13.5492188,7.69054687 C13.5492188,7.69054687 14.8884375,9.36046875 15.7703906,9.65132812 C15.7703906,9.65132812 15.4996875,10.1064844 14.8624219,9.72117187 C14.8626562,9.72140625 16.7022656,13.5860156 20.20875,15.3344531 Z" id="Shape" fill="#52C883"></path>
                    <path d="M20.20875,15.3344531 C20.20875,15.3344531 11.8774219,3.98648438 0.062109375,12.5095313 C0.062109375,12.5095313 2.07257812,12.9717188 3.37851562,12.6682031 C3.37851562,12.6682031 3.0159375,13.4055469 2.24953125,13.6748438 C2.24953125,13.6748438 4.07648437,13.9251563 5.41851562,13.3232813 C5.41851562,13.3232813 5.14289062,13.8377344 4.38914062,14.1255469 C4.38914062,14.1255469 6.13195312,14.5146094 7.08398437,14.2575 C7.08398437,14.2575 6.89765625,14.6845313 6.25617187,14.7874219 C6.25617187,14.7874219 7.959375,15.118125 9.44625,14.3791406 C9.44625,14.3791406 9.39632812,14.9210156 8.65757812,15.3632813 C8.65757812,15.3632813 11.0878125,15.4539844 12.0351562,14.9259375 C12.0351562,14.9259375 12.1839844,15.48375 11.3580469,15.7380469 C11.3578125,15.7380469 15.9644531,17.0036719 20.20875,15.3344531 Z" id="Shape" fill="#34BE69"></path>
                    <path d="M20.20875,15.3344531 C20.20875,15.3344531 34.0891406,12.9850781 36.6405469,27.3285938 C36.6405469,27.3285938 34.8752344,26.26125 34.1489062,25.1346094 C34.1489062,25.1346094 33.8960156,25.91625 34.2588281,26.6428125 C34.2588281,26.6428125 32.7728906,25.5508594 32.2282031,24.1844531 C32.2282031,24.1844531 32.068125,24.7457813 32.4089062,25.4770313 C32.4089062,25.4770313 30.8866406,24.5435156 30.3820312,23.6960156 C30.3820312,23.6960156 30.2189062,24.1324219 30.6077344,24.6529688 C30.6077344,24.6529688 29.1546094,23.7046875 28.6014844,22.1392969 C28.6014844,22.1392969 28.2602344,22.5632813 28.4826562,23.3948438 C28.4826562,23.3948438 26.6744531,21.7685156 26.3620312,20.73 C26.3620312,20.73 25.8670312,21.0269531 26.2830469,21.7844531 C26.2828125,21.7846875 22.0942969,19.4873438 20.20875,15.3344531 Z" id="Shape" fill="#34BE69"></path>
                    <path d="M20.20875,15.3344531 C20.20875,15.3344531 23.945625,1.7615625 38.0233594,5.51085938 C38.0233594,5.51085938 36.3100781,6.65976563 34.9816406,6.841875 C34.9816406,6.841875 35.5832812,7.40132813 36.3951562,7.37953125 C36.3951562,7.37953125 34.7775,8.26476562 33.3091406,8.18085937 C33.3091406,8.18085937 33.75,8.56335937 34.5567188,8.56359375 C34.5567188,8.56359375 33.0675,9.54867187 32.0864063,9.64804687 C32.0864063,9.64804687 32.4128906,9.98039062 33.04875,9.84796875 C33.04875,9.84796875 31.5752344,10.7641406 29.9228906,10.6040625 C29.9228906,10.6040625 30.163125,11.0925 31.010625,11.2425 C31.010625,11.2425 28.7725781,12.1938281 27.6991406,12.0382031 C27.6991406,12.0382031 27.7589063,12.6124219 28.6214063,12.5554687 C28.6216406,12.5552344 24.7694531,15.380625 20.20875,15.3344531 Z" id="Shape" fill="#52C883"></path>
                </g>
                <path d="M93.3417187,50.625 L89.5917187,50.625 C89.5917187,70.4022656 95.7213281,85.1367188 108.277266,95.6217187 C109.022344,94.6136719 109.728516,93.5758594 110.410547,92.5209375 C98.94,82.7936719 93.3417187,69.069375 93.3417187,50.625 Z" id="Shape" fill="#8C665B"></path>
                <g id="Group" transform="translate(68.437500, 29.296875)">
                    <path d="M22.5883594,20.7801563 C22.5883594,20.7801563 8.89710937,26.5567969 14.7142969,40.6474219 C14.7142969,40.6474219 15.6850781,38.7079687 15.6963281,37.3035937 C15.6963281,37.3035937 16.3626562,37.8496875 16.4491406,38.6957812 C16.4491406,38.6957812 17.1571875,36.8929687 16.8719531,35.3800781 C16.8719531,35.3800781 17.3310937,35.7846094 17.4400781,36.6220312 C17.4400781,36.6220312 18.2695312,34.9378125 18.2411719,33.905625 C18.2411719,33.905625 18.6328125,34.1978906 18.5798437,34.876875 C18.5798437,34.876875 19.3396875,33.2189062 18.9496875,31.5260156 C18.9496875,31.5260156 19.4927344,31.7069531 19.7636719,32.5659375 C19.7636719,32.5659375 20.4574219,30.1094531 20.1499219,29.0170312 C20.1499219,29.0170312 20.7583594,28.99875 20.8150781,29.9020313 C20.8150781,29.9022656 23.2511719,25.5082031 22.5883594,20.7801563 Z" id="Shape" fill="#43AB5F"></path>
                    <path d="M22.5883594,20.7801563 C22.5883594,20.7801563 37.3125,22.786875 35.3704688,37.9071094 C35.3704688,37.9071094 33.9276562,36.2880469 33.5505469,34.9352344 C33.5505469,34.9352344 33.0496875,35.63625 33.1867969,36.4755469 C33.1867969,36.4755469 32.0332031,34.9197656 31.9141406,33.3846094 C31.9141406,33.3846094 31.5764062,33.8950781 31.6898437,34.7320313 C31.6898437,34.7320313 30.4497656,33.3225 30.208125,32.3184375 C30.208125,32.3184375 29.9060156,32.7030469 30.1345312,33.3445313 C30.1345312,33.3445313 28.96875,31.9420313 28.9035937,30.2060156 C28.9035937,30.2060156 28.4266406,30.5221875 28.3891406,31.4221875 C28.3891406,31.4221875 27.07875,29.2314844 27.0907031,28.096875 C27.0907031,28.096875 26.4984375,28.2379688 26.679375,29.1248438 C26.6791406,29.124375 23.1815625,25.5173437 22.5883594,20.7801563 Z" id="Shape" fill="#43AB5F"></path>
                    <path d="M22.5883594,20.7801563 C22.5883594,20.7801563 17.6060156,6.07992188 3.51210938,10.8140625 C3.51210938,10.8140625 5.36390625,11.9960156 6.7396875,12.1361719 C6.7396875,12.1361719 6.1715625,12.7757813 5.33835938,12.7882031 C5.33835938,12.7882031 7.06992188,13.6858594 8.56617188,13.5285938 C8.56617188,13.5285938 8.14710938,13.966875 7.32117188,14.0034375 C7.32117188,14.0034375 8.92992187,15.0157031 9.943125,15.0808594 C9.943125,15.0808594 9.63726563,15.459375 8.9746875,15.3426563 C8.9746875,15.3426563 10.5611719,16.280625 12.2395313,16.0314844 C12.2395313,16.0314844 12.035625,16.5773438 11.1801563,16.779375 C11.1801563,16.779375 13.5525,17.7215625 14.6385938,17.5033594 C14.6385938,17.5033594 14.6261719,18.1347656 13.7383594,18.1108594 C13.738125,18.1108594 17.9228906,21.03375 22.5883594,20.7801563 Z" id="Shape" fill="#52C883"></path>
                    <path d="M22.5883594,20.7801562 C22.5883594,20.7801562 7.26398437,13.9242187 0.036328125,29.7227344 C0.036328125,29.7227344 2.39296875,29.0172656 3.568125,27.9330469 C3.568125,27.9330469 3.62671875,28.9110937 2.99085938,29.641875 C2.99085938,29.641875 5.0325,28.8248437 6.06914063,27.4099219 C6.06914063,27.4099219 6.08648438,28.1055469 5.47476563,28.8482812 C5.47476563,28.8482812 7.51101563,28.2248437 8.34632813,27.3972656 C8.34632813,27.3972656 8.4046875,27.9496875 7.80023438,28.434375 C7.80023438,28.434375 9.76101563,27.7734375 10.8670313,26.1314062 C10.8670313,26.1314062 11.1344531,26.7227344 10.629375,27.6166406 C10.629375,27.6166406 13.2023438,26.2788281 13.8733594,25.1728125 C13.8733594,25.1728125 14.3561719,25.6633594 13.6497656,26.4138281 C13.65,26.4140625 19.1716406,25.0117969 22.5883594,20.7801562 Z" id="Shape" fill="#34BE69"></path>
                    <path d="M22.5883594,20.7801563 C22.5883594,20.7801563 35.595,10.1653125 46.6919531,23.5328906 C46.6919531,23.5328906 44.2328906,23.4665625 42.8158594,22.7264063 C42.8158594,22.7264063 43.0141406,23.6857031 43.81875,24.2254688 C43.81875,24.2254688 41.6346094,23.9688281 40.2649219,22.8733594 C40.2649219,22.8733594 40.4296875,23.5497656 41.2139062,24.1071094 C41.2139062,24.1071094 39.0855469,24.0363281 38.0632031,23.4550781 C38.0632031,23.4550781 38.1510937,24.00375 38.8610156,24.3140625 C38.8610156,24.3140625 36.7957031,24.1872656 35.2996875,22.8902344 C35.2996875,22.8902344 35.1958594,23.5310156 35.9163281,24.2620313 C35.9163281,24.2620313 33.0834375,23.6414063 32.1473437,22.7489063 C32.1473437,22.7489063 31.8091406,23.3484375 32.6866406,23.8886719 C32.686875,23.8882031 26.9903906,23.9746875 22.5883594,20.7801563 Z" id="Shape" fill="#34BE69"></path>
                    <path d="M22.5883594,20.7801563 C22.5883594,20.7801563 18.465,4.50632813 35.2696875,0.09796875 C35.2696875,0.09796875 34.1704688,2.29875 32.9003906,3.27023438 C32.9003906,3.27023438 33.8538281,3.4959375 34.6828125,2.99484375 C34.6828125,2.99484375 33.5271094,4.86585937 31.955625,5.64398437 C31.955625,5.64398437 32.638125,5.78085937 33.4746094,5.30554688 C33.4746094,5.30554688 32.5110938,7.20445313 31.5522656,7.88554688 C31.5522656,7.88554688 32.0864063,8.03765625 32.6678906,7.52554688 C32.6678906,7.52554688 31.6802344,9.34382813 29.8725,10.15125 C29.8725,10.15125 30.4092188,10.5161719 31.37625,10.1723438 C31.37625,10.1723438 29.6165625,12.4774219 28.4121094,12.9485156 C28.4121094,12.9485156 28.8124219,13.5084375 29.6730469,12.94125 C29.6732813,12.9414844 27.3440625,18.140625 22.5883594,20.7801563 Z" id="Shape" fill="#52C883"></path>
                </g>
                <path d="M15.1223438,84.7197656 C11.7996094,78.0004688 7.5084375,78.2421094 2.72671875,77.8434375 C10.3230469,102.263203 33.0799219,120 60,120 C71.7675,120 82.7301562,116.594297 91.9905469,110.737969 C88.9910156,110.300625 85.6249219,109.374844 79.7498438,111.896484 C76.8110156,113.157891 72.7141406,107.676797 70.0010156,107.34375 C62.3678906,106.40625 54.0623438,112.324219 49.108125,108.28125 C42.7546875,103.096641 40.078125,107.8125 34.9699219,105.585703 C29.8617188,103.359141 32.56875,99.1985156 30.5198438,96.9792188 C27.2496094,93.4375781 19.9999219,94.5836719 15.1223438,84.7197656 Z" id="Shape" fill="#674447"></path>
            </g>
        </g>
    </g>
</svg>