<svg xmlns="http://www.w3.org/2000/svg" xmlns:xlink="http://www.w3.org/1999/xlink" width="100" height="215"><defs><svg width="99" height="106" id="a" data-image="53065"><svg xmlns="http://www.w3.org/2000/svg" viewBox="0 0 41 44" xmlns:xlink="http://www.w3.org/1999/xlink"><path d="M6.445 17.625a1.243 1.243 0 0 1-.288-2.387l3.153-1.252c-1.534-1.767-2.324-3.54-2.324-5.319C6.986 3.791 10.464 0 15.236 0c4.841 0 8.79 3.895 8.764 8.667 0 3.525-2.212 6.702-5.464 8.03-2.718 1.378-6.74 1.668-12.09.928zm11.218-2.728l.084-.038C20.277 13.841 22 11.378 22 8.662 22.02 5.002 18.977 2 15.237 2c-3.628 0-6.25 2.859-6.25 6.667 0 1.458.813 3.036 2.511 4.733a1.243 1.243 0 0 1-.42 2.035l-1.315.523c3.473.221 6.11-.142 7.9-1.06z" fill="rgba(241, 241, 241, 1)"/><path d="M32.904 25.507c1.507-.12 2.848-.01 4 .386 3.72 1.282 4.53 4.37 3.943 7.974-.122.715-.512 1.763-1.175 3.2a1.486 1.486 0 0 1-2.835-.642c.027-2.185-.43-3.227-1.186-3.425-1.178-.312-2.683.07-4.833 1.2-1.388.728-7.356 4.443-7.146 4.317-.252.152-.499.298-.743.44-.945.554-3.765 2.281-4.156 2.513-1.479.877-2.572 1.436-3.66 1.836-1.88.69-3.675.848-5.697.436-3.06-.623-5.128-2.332-6.082-5.06a1.486 1.486 0 0 1 2.075-1.816c.298.151.668.272 1.128.362.62.132 1.185.2 1.734.2 3.038 0 5.938-4.107 6.387-8.202-2.435.326-4.95-.014-7.559-1.522-2.657-1.536-4.673-3.691-6.03-6.447a1.486 1.486 0 0 1 1.654-2.109c4.994 1.108 8.618 1.66 10.836 1.66 7.141 0 13.069-5.65 13.069-12.952V6.522a1.486 1.486 0 0 1 2.611-.971c2.047 2.37 3.066 5.41 3.066 9.077 0 3.564-.982 6.886-2.636 9.967a25.756 25.756 0 0 1-1.008 1.717c1.554-.426 2.93-.7 4.243-.805zm5.97 8.031c.447-2.746-.114-4.89-2.622-5.754-.857-.295-1.934-.383-3.188-.283-1.172.094-2.43.344-3.792.717-.61.168-.907.259-1.903.573-.313.098-.474.147-.614.184a2.249 2.249 0 0 1-.284.06c-.098.013-.098.013-.274.007-.28-.02-.28-.02-.79-.504-.212-.366-.173-.625-.054-.914a1.4 1.4 0 0 1 .107-.207c.047-.076.104-.16.19-.28-.002.003.408-.557.563-.775a24.812 24.812 0 0 0 1.694-2.712c1.508-2.811 2.398-5.82 2.398-9.022 0-2.587-.561-4.762-1.679-6.55-.119 8.321-6.915 14.73-15.067 14.73-2.225 0-5.606-.49-10.173-1.468 1.153 1.94 2.72 3.48 4.714 4.633 2.293 1.325 4.48 1.569 6.615 1.223-.005.001.877-.17 1.077-.156l.916.068.01.919c.058 5.42-3.776 11.4-8.447 11.4-.7 0-1.402-.084-2.133-.24a7.779 7.779 0 0 1-.429-.096c.821 1.411 2.168 2.296 4.106 2.691 1.65.336 3.068.212 4.608-.353.951-.35 1.947-.86 3.33-1.68.373-.22 3.199-1.951 4.166-2.517.237-.14.478-.282.724-.43-.273.164 5.78-3.605 7.245-4.374 2.554-1.34 4.494-1.833 6.272-1.362 1.373.36 2.187 1.465 2.512 3.198a4.9 4.9 0 0 0 .202-.726zM15.542 5.341c-.901 0-1.77.319-2.521.904l-.091.056c-.534.257-1.039.209-1.312-.263-.261-.452-.087-.911.367-1.28C13.03 3.946 14.26 3.5 15.542 3.5c1.821 0 3.542.92 4.759 2.505.284.48.284.965-.111 1.293-.397.329-.873.244-1.289-.185-.844-1.118-2.064-1.772-3.359-1.772zm-3.045.059c-.12.057-.056.063-.013.137.027.048.019.082.092.028l-.08-.165z" fill="rgba(241, 241, 241, 1)"/></svg></svg><svg width="98.618" height="105.662" id="b" data-image="81329"><svg xmlns="http://www.w3.org/2000/svg" viewBox="0 0 41 44" xmlns:xlink="http://www.w3.org/1999/xlink"><path d="M6.445 17.625a1.243 1.243 0 0 1-.288-2.387l3.153-1.252c-1.534-1.767-2.324-3.54-2.324-5.319C6.986 3.791 10.464 0 15.236 0c4.841 0 8.79 3.895 8.764 8.667 0 3.525-2.212 6.702-5.464 8.03-2.718 1.378-6.74 1.668-12.09.928zm11.218-2.728l.084-.038C20.277 13.841 22 11.378 22 8.662 22.02 5.002 18.977 2 15.237 2c-3.628 0-6.25 2.859-6.25 6.667 0 1.458.813 3.036 2.511 4.733a1.243 1.243 0 0 1-.42 2.035l-1.315.523c3.473.221 6.11-.142 7.9-1.06z" fill="rgba(241, 241, 241, 1)"/><path d="M32.904 25.507c1.507-.12 2.848-.01 4 .386 3.72 1.282 4.53 4.37 3.943 7.974-.122.715-.512 1.763-1.175 3.2a1.486 1.486 0 0 1-2.835-.642c.027-2.185-.43-3.227-1.186-3.425-1.178-.312-2.683.07-4.833 1.2-1.388.728-7.356 4.443-7.146 4.317-.252.152-.499.298-.743.44-.945.554-3.765 2.281-4.156 2.513-1.479.877-2.572 1.436-3.66 1.836-1.88.69-3.675.848-5.697.436-3.06-.623-5.128-2.332-6.082-5.06a1.486 1.486 0 0 1 2.075-1.816c.298.151.668.272 1.128.362.62.132 1.185.2 1.734.2 3.038 0 5.938-4.107 6.387-8.202-2.435.326-4.95-.014-7.559-1.522-2.657-1.536-4.673-3.691-6.03-6.447a1.486 1.486 0 0 1 1.654-2.109c4.994 1.108 8.618 1.66 10.836 1.66 7.141 0 13.069-5.65 13.069-12.952V6.522a1.486 1.486 0 0 1 2.611-.971c2.047 2.37 3.066 5.41 3.066 9.077 0 3.564-.982 6.886-2.636 9.967a25.756 25.756 0 0 1-1.008 1.717c1.554-.426 2.93-.7 4.243-.805zm5.97 8.031c.447-2.746-.114-4.89-2.622-5.754-.857-.295-1.934-.383-3.188-.283-1.172.094-2.43.344-3.792.717-.61.168-.907.259-1.903.573-.313.098-.474.147-.614.184a2.249 2.249 0 0 1-.284.06c-.098.013-.098.013-.274.007-.28-.02-.28-.02-.79-.504-.212-.366-.173-.625-.054-.914a1.4 1.4 0 0 1 .107-.207c.047-.076.104-.16.19-.28-.002.003.408-.557.563-.775a24.812 24.812 0 0 0 1.694-2.712c1.508-2.811 2.398-5.82 2.398-9.022 0-2.587-.561-4.762-1.679-6.55-.119 8.321-6.915 14.73-15.067 14.73-2.225 0-5.606-.49-10.173-1.468 1.153 1.94 2.72 3.48 4.714 4.633 2.293 1.325 4.48 1.569 6.615 1.223-.005.001.877-.17 1.077-.156l.916.068.01.919c.058 5.42-3.776 11.4-8.447 11.4-.7 0-1.402-.084-2.133-.24a7.779 7.779 0 0 1-.429-.096c.821 1.411 2.168 2.296 4.106 2.691 1.65.336 3.068.212 4.608-.353.951-.35 1.947-.86 3.33-1.68.373-.22 3.199-1.951 4.166-2.517.237-.14.478-.282.724-.43-.273.164 5.78-3.605 7.245-4.374 2.554-1.34 4.494-1.833 6.272-1.362 1.373.36 2.187 1.465 2.512 3.198a4.9 4.9 0 0 0 .202-.726zM15.542 5.341c-.901 0-1.77.319-2.521.904l-.091.056c-.534.257-1.039.209-1.312-.263-.261-.452-.087-.911.367-1.28C13.03 3.946 14.26 3.5 15.542 3.5c1.821 0 3.542.92 4.759 2.505.284.48.284.965-.111 1.293-.397.329-.873.244-1.289-.185-.844-1.118-2.064-1.772-3.359-1.772zm-3.045.059c-.12.057-.056.063-.013.137.027.048.019.082.092.028l-.08-.165z" fill="rgba(241, 241, 241, 1)"/></svg></svg></defs><path fill="rgba(249, 249, 249, 1)" d="M0 0h100v215H0z"/><use xlink:href="#a" transform="translate(-100 -215)"/><use xlink:href="#a" transform="translate(0 -215)"/><use xlink:href="#a" transform="translate(100 -215)"/><use xlink:href="#a" transform="translate(-100)"/><use xlink:href="#a"/><use xlink:href="#a" transform="translate(100)"/><use xlink:href="#a" transform="translate(-100 215)"/><use xlink:href="#a" transform="translate(0 215)"/><use xlink:href="#a" transform="translate(100 215)"/><use xlink:href="#b" transform="translate(-100 -215)"/><use xlink:href="#b" transform="translate(0 -215)"/><use xlink:href="#b" transform="translate(100 -215)"/><use xlink:href="#b" transform="translate(-100)"/><use xlink:href="#b"/><use xlink:href="#b" transform="translate(100)"/><use xlink:href="#b" transform="translate(-100 215)"/><use xlink:href="#b" transform="translate(0 215)"/><use xlink:href="#b" transform="translate(100 215)"/></svg>