<?xml version="1.0" encoding="UTF-8" standalone="no"?>
<svg width="142px" height="228px" viewBox="0 0 142 228" version="1.1" xmlns="http://www.w3.org/2000/svg" xmlns:xlink="http://www.w3.org/1999/xlink">
    <!-- Generator: Sketch 3.8.3 (29802) - http://www.bohemiancoding.com/sketch -->
    <title>ether</title>
    <desc>Created with Sketch.</desc>
    <defs></defs>
    <g id="Page-1" stroke="none" stroke-width="1" fill="none" fill-rule="evenodd">
        <g id="ether" transform="translate(0.000000, -1.000000)">
            <g id="g3" fill="#231F20">
                <polygon id="polygon5" points="68.553 158 68.553 87.977 0.158 117.937"></polygon>
                <polygon id="polygon7" points="68.553 83.163 68.553 0.944 2.362 112.156"></polygon>
                <polygon id="polygon9" points="72.962 0.91 72.962 83.163 140.083 112.566"></polygon>
                <polygon id="polygon11" points="72.962 87.977 72.962 158.002 141.405 117.957"></polygon>
                <polygon id="polygon13" points="68.553 228.406 68.553 172.085 0.618 132.31"></polygon>
                <polygon id="polygon15" points="72.962 228.406 140.897 132.31 72.962 172.085"></polygon>
            </g>
            <path d="M3.673586,110.99547 C3.673586,110.85395 17.836098,86.939635 35.145834,57.85255 C52.455571,28.765463 66.9714,4.3554126 67.40322,3.6079926 C68.00231,2.571064 68.15227,11.819735 68.03606,42.638385 L67.88375,83.02772 L41.044583,94.776571 C26.283039,101.23843 11.835752,107.58907 8.939499,108.8891 C6.043247,110.18913 3.673586,111.137 3.673586,110.99547 L3.673586,110.99547 Z" id="path3826" fill="#A0A0A0"></path>
            <path d="M5.032531,109.74479 C5.032531,109.55445 17.619019,88.194784 33.002503,62.278872 C48.385987,36.362958 62.37463,12.768104 64.08838,9.8458631 L67.20428,4.5326983 L67.37977,43.440165 C67.47627,64.839272 67.32337,82.554624 67.04003,82.807619 C66.62396,83.179087 9.257066,108.46975 5.965216,109.73295 C5.452239,109.9298 5.032531,109.93512 5.032531,109.74475 L5.032531,109.74479 Z" id="path3828" fill="#8A92B2"></path>
            <path d="M34.896453,137.82583 C16.678696,127.16301 1.772764,118.25814 1.77216,118.03724 C1.77066,117.48974 67.68712,88.662534 68.06849,89.043901 C68.23546,89.210871 68.29278,104.61718 68.19586,123.28014 L68.01965,157.21279 L34.896453,137.82583 L34.896453,137.82583 Z" id="path4338" fill="#62688F"></path>
            <path d="M73.11569,123.16353 C73.11569,104.30858 73.3427,88.881812 73.62015,88.881812 C74.5821,88.881812 139.70401,117.63603 139.70401,118.06077 C139.70401,118.41424 118.63032,130.89765 79.75974,153.56993 L73.11569,157.44525 L73.11569,123.16353 L73.11569,123.16353 Z" id="path4340" fill="#454A75"></path>
            <path d="M105.71286,97.08495 L73.45543,82.943697 L73.30362,42.596372 L73.15181,2.2490473 L74.85735,4.966938 C81.65403,15.797861 138.4265,110.77 138.22487,110.97163 C138.08485,111.11164 123.45445,104.86264 105.71286,97.08495 L105.71286,97.08495 Z" id="path4342" fill="#6A6F95"></path>
            <path d="M35.514497,180.97434 C17.636665,155.67752 3.12604,134.86343 3.268664,134.72081 C3.532386,134.45709 66.82905,171.3343 67.829,172.33425 C68.12941,172.63466 68.2952,185.05028 68.19743,199.92451 L68.01965,226.96857 L35.514497,180.97434 L35.514497,180.97434 Z" id="path4344" fill="#8A92B2"></path>
            <path d="M73.30241,199.70108 L73.45543,172.24766 L105.71106,153.36437 C123.45166,142.97856 138.08552,134.59991 138.23076,134.74515 C138.44011,134.9545 78.23872,220.55642 74.1976,225.79555 C73.24857,227.02593 73.16388,224.55711 73.30241,199.70108 L73.30241,199.70108 Z" id="path4346" fill="#62688F"></path>
        </g>
    </g>
</svg>